<svg id="DEFICIENCY" xmlns="http://www.w3.org/2000/svg" width="83.74" height="75" viewBox="0 0 83.74 75">
  <path id="Path_61" data-name="Path 61" d="M82.473,60.979,49.966,4.674a9.348,9.348,0,0,0-16.191,0L1.267,60.979A9.348,9.348,0,0,0,9.363,75H74.378a9.348,9.348,0,0,0,8.1-14.021Zm-4.253,6.892a4.392,4.392,0,0,1-3.843,2.219H9.363A4.437,4.437,0,0,1,5.52,63.434l32.508-56.3a4.437,4.437,0,0,1,7.686,0l32.508,56.3A4.392,4.392,0,0,1,78.221,67.871Z" transform="translate(0 0)" fill="#ff5100"/>
  <path id="Path_62" data-name="Path 62" d="M21.8,25.787a3.274,3.274,0,1,0,3.274,3.274A3.277,3.277,0,0,0,21.8,25.787Z" transform="translate(20.07 27.936)" fill="#ff5100"/>
  <path id="Path_63" data-name="Path 63" d="M23.83,11.252h-4.91v25.37h4.91Z" transform="translate(20.496 12.19)" fill="#ff5100"/>
</svg>
