<svg xmlns="http://www.w3.org/2000/svg" xmlns:xlink="http://www.w3.org/1999/xlink" width="288.163" height="225.683" viewBox="0 0 288.163 225.683">
  <defs>
    <clipPath id="clip-path">
      <path id="Path_17633" data-name="Path 17633" d="M10-46.7s6.941,4.172,43.029-2.341c24.209-5.151,38.526,13.289,58.8,3.392,33.166-10.714,44,10.243,83.89-1.052,17.633-4.992,30.59-7.411,46.579-6.484,7.828.453,16.767,4.813,22.65,5.7a35.348,35.348,0,0,0,23.216-7.174L272.318,71.1H0Z" transform="translate(0 8.656)" fill="#ff5100"/>
    </clipPath>
  </defs>
  <g id="Group_31358" data-name="Group 31358" transform="translate(-883.695 -241.427)">
    <g id="Mask_Group_22" data-name="Mask Group 22" transform="translate(883.695 387.354)" clip-path="url(#clip-path)">
      <path id="Icon_awesome-shield-alt" data-name="Icon awesome-shield-alt" d="M187.8,34.675l-79.56-33.15a19.952,19.952,0,0,0-15.29,0L13.39,34.675A19.869,19.869,0,0,0,1.125,53.031c0,82.253,47.446,139.105,91.784,157.586a19.952,19.952,0,0,0,15.29,0c35.512-14.793,91.825-65.885,91.825-157.586A19.9,19.9,0,0,0,187.8,34.675Z" transform="translate(35.484 -142.502)" fill="#ff5100"/>
    </g>
    <path id="Icon_awesome-shield-alt-2" data-name="Icon awesome-shield-alt" d="M187.8,34.675l-79.56-33.15a19.952,19.952,0,0,0-15.29,0L13.39,34.675A19.869,19.869,0,0,0,1.125,53.031c0,82.253,47.446,139.105,91.784,157.586a19.952,19.952,0,0,0,15.29,0c35.512-14.793,91.825-65.885,91.825-157.586A19.9,19.9,0,0,0,187.8,34.675Z" transform="translate(919.18 244.998)" fill="none" stroke="#4e5868" stroke-width="7"/>
    <text id="Protection_Level_Medium" data-name="Protection Level
Medium" transform="translate(1019 296.11)" fill="#4e5868" font-size="17" font-family="Mulish-Bold, Mulish" font-weight="700"><tspan x="-64" y="0">Protection Level</tspan><tspan fill="#ff5100" font-size="32" font-family="Mulish-ExtraBold, Mulish" font-weight="800"><tspan x="-61" y="36">Medium</tspan></tspan></text>
  </g>
</svg>
