<svg id="file_1_" data-name="file (1)" xmlns="http://www.w3.org/2000/svg" width="30.777" height="31" viewBox="0 0 30.777 31">
  <path id="Path_767" data-name="Path 767" d="M29.825,19.241a6.076,6.076,0,0,0-6.655-1.314V7.236a1.649,1.649,0,0,0-.483-1.171L17.129.485a1.646,1.646,0,0,0-.446-.317h0L16.66.156l-.044-.02A1.648,1.648,0,0,0,15.962,0H2.573A1.749,1.749,0,0,0,.83,1.75v27.5A1.749,1.749,0,0,0,2.573,31H21.426a1.749,1.749,0,0,0,1.741-1.645q0-.018,0-.036v-.125a6.1,6.1,0,0,0,6.657-9.952ZM21.113,6.2H17.132A.134.134,0,0,1,17,6.062v-4Zm.85,23.1a.54.54,0,0,1-.537.493H2.573a.54.54,0,0,1-.539-.541V1.75a.54.54,0,0,1,.539-.541H15.794V6.062a1.342,1.342,0,0,0,1.338,1.344h4.833V18.6a6.12,6.12,0,0,0,0,9.911V29.3Zm7.01-2.272A4.913,4.913,0,1,1,30.4,23.561,4.872,4.872,0,0,1,28.973,27.025Z" transform="translate(-0.83 0)" fill="#ff4d58"/>
  <path id="Path_768" data-name="Path 768" d="M61.9,140.584h8.39a.6.6,0,1,0,0-1.2H61.9a.6.6,0,1,0,0,1.2Z" transform="translate(-57.658 -130.948)" fill="#ff4d58"/>
  <path id="Path_769" data-name="Path 769" d="M72.381,319.3H61.9a.6.6,0,0,0,0,1.2H72.381a.6.6,0,1,0,0-1.2Z" transform="translate(-57.658 -299.982)" fill="#ff4d58"/>
  <path id="Path_770" data-name="Path 770" d="M72.381,379.271H61.9a.6.6,0,0,0,0,1.2H72.381a.6.6,0,1,0,0-1.2Z" transform="translate(-57.658 -356.327)" fill="#ff4d58"/>
  <path id="Path_771" data-name="Path 771" d="M75.765,259.326H61.9a.6.6,0,1,0,0,1.2H75.765a.6.6,0,1,0,0-1.2Z" transform="translate(-57.658 -243.638)" fill="#ff4d58"/>
  <path id="Path_772" data-name="Path 772" d="M60.9,201.2H71.756a.6.6,0,0,0,0-1.2H60.9a.6.6,0,0,0,0,1.2Z" transform="translate(-56.718 -187.901)" fill="#ff4d58"/>
  <ellipse id="Ellipse_64" data-name="Ellipse 64" cx="0.602" cy="0.602" rx="0.602" ry="0.602" transform="translate(17.45 12.099)" fill="#ff4d58"/>
  <path id="Path_773" data-name="Path 773" d="M376.85,351.427a.6.6,0,0,0-.851,0l-1.277,1.277-1.257-1.257a.6.6,0,1,0-.851.851l1.257,1.257-1.277,1.277a.6.6,0,0,0,.851.851l1.277-1.277,1.257,1.257a.6.6,0,0,0,.851-.851l-1.257-1.257,1.277-1.277A.6.6,0,0,0,376.85,351.427Z" transform="translate(-350.023 -329.988)" fill="#ff4d58"/>
</svg>
