<svg xmlns="http://www.w3.org/2000/svg" xmlns:xlink="http://www.w3.org/1999/xlink" width="40.5" height="45" viewBox="0 0 40.5 45">
  <defs>
    <clipPath id="clip-path">
      <rect id="Rectangle_132" data-name="Rectangle 132" width="40.5" height="45" fill="#ff4d58"/>
    </clipPath>
  </defs>
  <g id="Credit_Limit" data-name="Credit Limit" clip-path="url(#clip-path)">
    <path id="Path_201" data-name="Path 201" d="M37.007,35.509H26.882c-.354-.355-.7-1.054-1.393-1.41C24.1,31.635,24.1,30.936,24.1,30.936s0-.7,1.393-3.163c.7-.355,1.05-1.054,1.393-1.41H37.007Zm-1.747,7.737H1.746V18.637H35.261v5.628H25.832s-3.493,4.573-3.493,6.682,3.493,6.682,3.493,6.682h9.429v5.616ZM5.239,2.109l7.682,1.055-.354.7L8.732,3.507a2.7,2.7,0,0,1-2.8,2.464H5.582l-1.393,10.9H3.139ZM6.29,16.872,7.34,7.725A7.781,7.781,0,0,0,9.086,6.671l1.05-1.055,1.747.355L7.34,16.872ZM15.011,2.464l7.328,3.164-.7.7L18.15,4.917a2.623,2.623,0,0,1-2.443,1.754c-.354,0-.7-.355-1.05-.355L10.114,16.861h-.7Zm-2.8,14.419,3.493-8.436a4.382,4.382,0,0,0,3.139-1.41l1.746.7-6.986,9.147Zm19.908-.355v.355H19.554l4.189-5.628a1.274,1.274,0,0,0,1.05.355,5.115,5.115,0,0,0,2.1-.7h.354l4.886,3.863v1.754Zm-7.328-10.9,13.264,10.2-1.393,1.754a1.8,1.8,0,0,0-1.393-.7h-1.05a2.8,2.8,0,0,1,.354-2.808L27.247,8.448A3.163,3.163,0,0,1,24.8,9.5a3.727,3.727,0,0,1-1.746-.355l-5.936,7.737h-1.05L24.8,5.628ZM38.057,24.265h-1.05V20.047L40.5,15.474,32.464,9.147l.7-1.055L28.275,5.983,24.439,2.82l-.7.7.354-.7-5.239-.7L14.314.011l-.7,1.41L3.493,0,1.746,13.365A2.648,2.648,0,0,0,0,15.829V43.258a1.651,1.651,0,0,0,1.746,1.754H35.261a1.651,1.651,0,0,0,1.747-1.754V37.63h1.05a1.121,1.121,0,0,0,1.05-1.054V25.32A1.121,1.121,0,0,0,38.057,24.265Z" fill="#ff4d58" fill-rule="evenodd"/>
    <path id="Path_202" data-name="Path 202" d="M26.616,26.753A1.556,1.556,0,0,1,27.654,27.8a1.534,1.534,0,0,1-1.039,1.043A1.534,1.534,0,0,1,25.577,27.8,1.534,1.534,0,0,1,26.616,26.753Zm0,3.805A2.965,2.965,0,0,0,29.367,27.8a2.974,2.974,0,0,0-2.751-2.762A2.974,2.974,0,0,0,23.865,27.8,2.974,2.974,0,0,0,26.616,30.558Z" transform="translate(2.983 3.129)" fill="#ff4d58" fill-rule="evenodd"/>
  </g>
</svg>
