<svg xmlns="http://www.w3.org/2000/svg" xmlns:xlink="http://www.w3.org/1999/xlink" width="27.9" height="31" viewBox="0 0 27.9 31">
  <defs>
    <clipPath id="clip-path">
      <rect id="Rectangle_12898" data-name="Rectangle 12898" width="27.9" height="31" fill="#00ae8d"/>
    </clipPath>
  </defs>
  <g id="Credit_Limit" data-name="Credit Limit" clip-path="url(#clip-path)">
    <path id="Path_17852" data-name="Path 17852" d="M25.494,24.462H18.519c-.244-.245-.48-.726-.959-.971a6.181,6.181,0,0,1-.959-2.179,6.181,6.181,0,0,1,.959-2.179c.48-.245.723-.726.959-.971h6.975Zm-1.2,5.33H1.2V12.839H24.291v3.877H17.8s-2.406,3.151-2.406,4.6,2.406,4.6,2.406,4.6h6.5v3.869ZM3.609,1.453,8.9,2.179l-.244.482L6.016,2.416a1.862,1.862,0,0,1-1.927,1.7H3.845l-.959,7.509H2.162Zm.723,10.17.723-6.3a5.36,5.36,0,0,0,1.2-.726l.723-.726,1.2.245-3.13,7.509ZM10.341,1.7l5.048,2.179-.48.482L12.5,3.387A1.807,1.807,0,0,1,10.82,4.6c-.244,0-.48-.245-.723-.245l-3.13,7.264h-.48ZM8.414,11.631,10.82,5.819a3.018,3.018,0,0,0,2.162-.971l1.2.482-4.813,6.3Zm13.714-.245v.245H13.47l2.886-3.877A.878.878,0,0,0,17.08,8a3.523,3.523,0,0,0,1.447-.482h.244l3.366,2.661v1.208ZM17.08,3.877,26.217,10.9l-.959,1.208a1.239,1.239,0,0,0-.959-.482h-.723A1.928,1.928,0,0,1,23.819,9.7L18.77,5.819a2.179,2.179,0,0,1-1.683.726,2.568,2.568,0,0,1-1.2-.245L11.8,11.631h-.723l6.016-7.754Zm9.137,12.839h-.723V13.81L27.9,10.66,22.364,6.3l.48-.726L19.478,4.122,16.836,1.942l-.48.482.244-.482-3.609-.482L9.861.008l-.48.971L2.406,0,1.2,9.207A1.824,1.824,0,0,0,0,10.9V29.8a1.137,1.137,0,0,0,1.2,1.208H24.291a1.137,1.137,0,0,0,1.2-1.208V25.923h.723a.772.772,0,0,0,.723-.726V17.442A.772.772,0,0,0,26.217,16.716Z" fill="#00ae8d" fill-rule="evenodd"/>
    <path id="Path_17853" data-name="Path 17853" d="M25.76,26.218a1.072,1.072,0,0,1,.716.719,1.057,1.057,0,0,1-.716.719,1.057,1.057,0,0,1-.716-.719A1.057,1.057,0,0,1,25.76,26.218Zm0,2.622a2.042,2.042,0,0,0,1.9-1.9,2.049,2.049,0,0,0-1.9-1.9,2.049,2.049,0,0,0-1.9,1.9A2.049,2.049,0,0,0,25.76,28.839Z" transform="translate(-5.37 -5.632)" fill="#00ae8d" fill-rule="evenodd"/>
  </g>
</svg>
