<svg xmlns="http://www.w3.org/2000/svg" width="40" height="40" viewBox="0 0 40 40">
  <g id="Group_31897" data-name="Group 31897" transform="translate(-1822 -1020)">
    <rect id="Rectangle_12092" data-name="Rectangle 12092" width="40" height="40" rx="5" transform="translate(1822 1020)" fill="#43b0ef"/>
    <path id="Icon_awesome-download" data-name="Icon awesome-download" d="M8.232,0H11.28a.912.912,0,0,1,.915.915v6.4h3.342a.761.761,0,0,1,.537,1.3l-5.8,5.8a.738.738,0,0,1-1.04,0l-5.8-5.8a.761.761,0,0,1,.537-1.3H7.317V.915A.912.912,0,0,1,8.232,0Zm11.28,14.329V18.6a.912.912,0,0,1-.915.915H.915A.912.912,0,0,1,0,18.6V14.329a.912.912,0,0,1,.915-.915H6.505l1.867,1.867a1.953,1.953,0,0,0,2.767,0l1.867-1.867H18.6A.912.912,0,0,1,19.512,14.329Zm-4.725,3.354a.762.762,0,1,0-.762.762A.764.764,0,0,0,14.786,17.682Zm2.439,0a.762.762,0,1,0-.762.762A.764.764,0,0,0,17.225,17.682Z" transform="translate(1832 1030)" fill="#fff"/>
  </g>
</svg>
