<svg id="change" xmlns="http://www.w3.org/2000/svg" width="36.962" height="31" viewBox="0 0 36.962 31">
  <path id="Path_764" data-name="Path 764" d="M21.978,17.08A10.893,10.893,0,0,1,29.129,19.6l1.024-.719A12.455,12.455,0,0,0,21.978,16C15.925,16,11,19.876,11,24.639s4.925,8.639,10.978,8.639a12.455,12.455,0,0,0,8.176-2.88l-1.024-.719A10.893,10.893,0,0,1,21.978,32.2c-5.3,0-9.605-3.391-9.605-7.559S16.681,17.08,21.978,17.08Z" transform="translate(-5.797 -9.139)" fill="#ff7433"/>
  <path id="Path_765" data-name="Path 765" d="M3.008,24.481q.12.57.284,1.129l-1.248.765a.613.613,0,0,0-.205.813L4.1,31.313a.549.549,0,0,0,.771.219l1.251-.759q.375.43.783.826l-.72,1.319a.615.615,0,0,0,.207.814L10.3,36.116a.551.551,0,0,0,.772-.217l.725-1.316c.353.116.711.216,1.071.3V36.4a.581.581,0,0,0,.565.6h4.522a.581.581,0,0,0,.565-.6V34.882c.36-.084.718-.184,1.071-.3l.725,1.316a.549.549,0,0,0,.772.217L25,33.731a.614.614,0,0,0,.207-.814l-.72-1.319q.407-.393.783-.826l1.251.759.564-1.034-1.651-1a.546.546,0,0,0-.712.131A12.151,12.151,0,0,1,23.4,31.02a.619.619,0,0,0-.123.751L23.947,33l-2.934,1.789-.672-1.22a.553.553,0,0,0-.677-.263,11.477,11.477,0,0,1-1.808.507.588.588,0,0,0-.464.586v1.413H14V34.395a.588.588,0,0,0-.464-.586A11.349,11.349,0,0,1,11.73,33.3a.553.553,0,0,0-.677.263l-.672,1.22L7.447,33l.668-1.225a.62.62,0,0,0-.123-.751,12.1,12.1,0,0,1-1.321-1.394.546.546,0,0,0-.712-.131L4.8,30.2l-1.7-3.1L4.258,26.4a.612.612,0,0,0,.249-.713,12.93,12.93,0,0,1-.481-1.906.575.575,0,0,0-.556-.489H2.131V19.712H3.47a.575.575,0,0,0,.556-.489,13.061,13.061,0,0,1,.48-1.906.612.612,0,0,0-.249-.713L3.1,15.895l1.7-3.1,1.162.705a.545.545,0,0,0,.712-.131,12.151,12.151,0,0,1,1.321-1.394.619.619,0,0,0,.123-.751L7.446,10l2.934-1.789.672,1.22a.553.553,0,0,0,.677.263,11.477,11.477,0,0,1,1.808-.507A.588.588,0,0,0,14,8.606V7.192h3.392V8.605a.588.588,0,0,0,.464.586,11.351,11.351,0,0,1,1.808.507.554.554,0,0,0,.677-.263l.672-1.22L23.946,10l-.668,1.225a.62.62,0,0,0,.123.751,12.1,12.1,0,0,1,1.321,1.394.546.546,0,0,0,.712.131l1.651-1-.564-1.034-1.251.759q-.375-.43-.783-.826l.72-1.319A.615.615,0,0,0,25,9.269L21.089,6.885a.55.55,0,0,0-.772.217l-.725,1.316c-.352-.116-.709-.216-1.069-.3V6.6a.581.581,0,0,0-.565-.6H13.436a.581.581,0,0,0-.565.6V8.118c-.36.084-.718.184-1.071.3L11.075,7.1a.55.55,0,0,0-.772-.217L6.392,9.269a.614.614,0,0,0-.207.814L6.9,11.4q-.407.393-.783.826l-1.251-.759a.549.549,0,0,0-.771.218L1.839,15.813a.614.614,0,0,0,.205.813l1.248.765q-.165.558-.284,1.129H1.565a.581.581,0,0,0-.565.6v4.769a.581.581,0,0,0,.565.6Z" transform="translate(-1 -6)" fill="#ff7433"/>
  <path id="Path_766" data-name="Path 766" d="M48.587,24.559l-4.8-3.43a.686.686,0,0,0-1.085.558v1.372H33.78a.685.685,0,0,0-.4.128l-4.2,3-3.237-2.315a.685.685,0,0,0-.4-.128H18.686a.686.686,0,0,0-.686.686v2.744a.686.686,0,0,0,.686.686h5.269L25.4,28.891,23.955,29.92H18.686a.686.686,0,0,0-.686.686V33.35a.686.686,0,0,0,.686.686h6.861a.685.685,0,0,0,.4-.128l3.237-2.315,4.2,3a.682.682,0,0,0,.4.128h4.8v1.372a.684.684,0,0,0,.686.686.678.678,0,0,0,.4-.128l4.8-3.43a.685.685,0,0,0,0-1.116l-4.8-3.43a.686.686,0,0,0-1.085.558v1.372H35.372l-2.4-1.715,2.4-1.715H42.7v1.372a.686.686,0,0,0,1.085.558l4.8-3.43a.686.686,0,0,0,0-1.116Zm-23.26,8.1H19.372V31.292h4.8a.682.682,0,0,0,.4-.128l2-1.431L28,30.75Zm9.826-.686h4.117a.686.686,0,0,0,.686-.686v-.725l2.936,2.1-2.936,2.1v-.725a.686.686,0,0,0-.686-.686H34l-4.418-3.158h0l-2.607-1.859h0l-2.4-1.714a.682.682,0,0,0-.4-.128h-4.8V25.117h5.955l3.457,2.472h0l2.607,1.859h0l3.359,2.4A.685.685,0,0,0,35.152,31.978Zm8.919-4.764v-.725a.686.686,0,0,0-.686-.686H35.152a.682.682,0,0,0-.4.128l-2.963,2.116L30.364,27.03,34,24.431h9.385a.686.686,0,0,0,.686-.686V23.02l2.936,2.1Z" transform="translate(-11.913 -13.128)" fill="#ff7433"/>
</svg>
