<svg xmlns="http://www.w3.org/2000/svg" width="41.429" height="45" viewBox="0 0 41.429 45">
  <path id="guarantee" d="M70.593,36.767a3.977,3.977,0,0,0-4.121.2L58.3,41.378a.624.624,0,0,0-.088.057,1.839,1.839,0,0,1-.468.256,2.165,2.165,0,0,0,.463-1.224c.044-1.028-.682-2.01-2.159-2.918-3.113-1.915-9.21-3.176-11.625-1.863l-.017.01c-.039.023-3.757,2.2-7.4,4.374a2.271,2.271,0,0,0-3-.7L31.8,40.63a2.227,2.227,0,0,0-.826,3.054l5.357,9.193a2.237,2.237,0,0,0,1.37,1.04,2.294,2.294,0,0,0,.59.078,2.253,2.253,0,0,0,1.121-.3l2.193-1.255a2.227,2.227,0,0,0,.826-3.054l-.123-.211,2.552-1.518.009-.005c.049.016.109.034.178.053l7.862,2.14a6.2,6.2,0,0,0,2.014.356,5.2,5.2,0,0,0,2.793-.816l12.128-7.246A3.3,3.3,0,0,0,72.1,39.363,2.885,2.885,0,0,0,70.593,36.767ZM40.966,51.335,38.772,52.59a.979.979,0,0,1-1.324-.352l-5.357-9.193a.956.956,0,0,1,.355-1.312l2.193-1.255a.978.978,0,0,1,1.324.351l5.357,9.193a.956.956,0,0,1-.355,1.312ZM70.815,39.3c-.034.66-.58,1.263-1.537,1.7a.615.615,0,0,0-.064.034L57.051,48.3l-.011.006a4.11,4.11,0,0,1-3.723.331l-.042-.013-7.883-2.146c-.085-.023-.145-.044-.2-.062a.971.971,0,0,0-1,.156l-2.525,1.5-4.02-6.9c3.558-2.125,7.189-4.249,7.4-4.372,1.8-.966,7.382.026,10.319,1.833,1.008.62,1.574,1.269,1.552,1.781-.02.465-.544.986-1.477,1.47a25.287,25.287,0,0,1-5.5-1.278.645.645,0,0,0-.813.406.637.637,0,0,0,.41.805c4.809,1.57,7.89,1.785,9.415.658l8.147-4.4.031-.018a2.713,2.713,0,0,1,2.8-.194A1.621,1.621,0,0,1,70.815,39.3Zm-35.08,4.309a.634.634,0,0,1-.236.871.647.647,0,0,1-.879-.233L33.84,42.9a.634.634,0,0,1,.236-.871.647.647,0,0,1,.879.233Zm5.7-13.855,2.839.407.411,2.813a.988.988,0,0,0,.675.8,1.019,1.019,0,0,0,.319.052,1,1,0,0,0,.707-.294l5.64-5.666a4.606,4.606,0,0,1,.735.6l.72.714a1.848,1.848,0,0,0,2.594,0l.72-.713c.064-.064.13-.124.2-.183l5.9,5.86a1,1,0,0,0,.706.291,1.021,1.021,0,0,0,.318-.051.989.989,0,0,0,.675-.8L65,30.763l2.839-.407a1,1,0,0,0,.806-.667.985.985,0,0,0-.239-1.013l-5.528-5.538a4.128,4.128,0,0,1,1.1-1.792l.72-.714a1.809,1.809,0,0,0,0-2.57l-.72-.714a4.075,4.075,0,0,1-1.266-3.03V13.311a1.828,1.828,0,0,0-1.834-1.817H59.853A4.15,4.15,0,0,1,56.8,10.239l-.72-.714a1.848,1.848,0,0,0-2.594,0l-.72.714A4.15,4.15,0,0,1,49.7,11.493H48.686a1.828,1.828,0,0,0-1.834,1.817V14.32a4.074,4.074,0,0,1-1.267,3.03l-.72.714a1.809,1.809,0,0,0,0,2.57l.72.714a4.324,4.324,0,0,1,.871,1.2l-5.584,5.521a.985.985,0,0,0-.242,1.014,1,1,0,0,0,.806.669Zm22.9-.182a.641.641,0,0,0-.545.54l-.4,2.724-5.306-5.274a4.287,4.287,0,0,1,1.765-.356h1.018a1.828,1.828,0,0,0,1.834-1.817v-.6l4.385,4.393Zm-18.563-10.6.72-.713a5.355,5.355,0,0,0,1.644-3.931V13.311a.545.545,0,0,1,.547-.542H49.7a5.455,5.455,0,0,0,3.968-1.629l.72-.713a.551.551,0,0,1,.774,0l.72.714a5.456,5.456,0,0,0,3.968,1.628h1.019a.545.545,0,0,1,.547.542V14.32a5.355,5.355,0,0,0,1.643,3.931l.72.714a.542.542,0,0,1,0,.766l-.72.714a5.355,5.355,0,0,0-1.643,3.931v1.009a.545.545,0,0,1-.547.542H59.853a5.455,5.455,0,0,0-3.968,1.629l-.72.714a.552.552,0,0,1-.774,0l-.72-.714A5.455,5.455,0,0,0,49.7,25.927H48.686a.545.545,0,0,1-.547-.542V24.376a5.355,5.355,0,0,0-1.644-3.931l-.72-.714a.539.539,0,0,1,0-.767Zm1.06,5.01c.011.132.017.265.017.4v1.009A1.828,1.828,0,0,0,48.686,27.2H49.7a4.6,4.6,0,0,1,1.054.117l-4.881,4.9-.4-2.72a.641.641,0,0,0-.545-.54l-2.749-.394Zm5.632-4.354a.634.634,0,0,1,0-.9.648.648,0,0,1,.91,0l.873.865,2.245-2.224a.648.648,0,0,1,.91,0,.634.634,0,0,1,0,.9l-2.7,2.674a.648.648,0,0,1-.91,0Zm2.312,4.855A5.127,5.127,0,1,0,49.6,19.349a5.151,5.151,0,0,0,5.174,5.127Zm0-8.978a3.852,3.852,0,1,1-3.887,3.851A3.869,3.869,0,0,1,54.779,15.5Z" transform="translate(-30.676 -8.993)" fill="#ff7433"/>
</svg>
