<svg xmlns="http://www.w3.org/2000/svg" width="41.818" height="31" viewBox="0 0 41.818 31">
  <g id="handshake" transform="translate(0 -66.227)">
    <g id="Group_31892" data-name="Group 31892" transform="translate(0 66.227)">
      <g id="Group_31891" data-name="Group 31891" transform="translate(0 0)">
        <path id="Path_17857" data-name="Path 17857" d="M41.622,74.79l-8.11-8.11a.668.668,0,0,0-.945,0l-4.055,4.055a.668.668,0,0,0,0,.945l.4.4-.93.929a2.088,2.088,0,0,1-2.33.409,5.768,5.768,0,0,0-5.144.191,4.5,4.5,0,0,0-2.614.139,2.08,2.08,0,0,1-2.205-.463l-1.669-1.669.2-.2a.668.668,0,0,0,0-.944l-4.055-4.055a.668.668,0,0,0-.945,0L.2,75.45a.668.668,0,0,0,0,.944L4.251,80.45a.668.668,0,0,0,.945,0l.242-.242,1.177,1.177a2.042,2.042,0,0,1,.569,1.072,10.488,10.488,0,0,0,2.905,5.515l.222.222a2.4,2.4,0,0,0,1.744,4.056c.04,0,.08,0,.12,0a2.4,2.4,0,0,0,2.4,2.524h.054a2.4,2.4,0,0,0,4.1,1.752c.038-.038.074-.078.109-.118a2.247,2.247,0,0,0,2.834-1.31l.068.068a2.246,2.246,0,0,0,3.693-.807A2.245,2.245,0,0,0,29,92.539a2.265,2.265,0,0,0-.063-.531,2.246,2.246,0,0,0,1.379-3.5l.536-.536a10.485,10.485,0,0,0,2.918-5.584,1.8,1.8,0,0,1,.51-.956l1.993-1.993.35.35a.668.668,0,0,0,.945,0l4.055-4.055a.668.668,0,0,0,0-.944Zm-36.9,4.243L1.613,75.922,9.7,67.839l3.111,3.111ZM12.81,90.6a1.068,1.068,0,1,1,0-1.51A1.069,1.069,0,0,1,12.81,90.6Zm2.52,2.52a1.068,1.068,0,1,1,0-1.51A1.06,1.06,0,0,1,15.329,93.123Zm2.455,2.455a1.068,1.068,0,1,1,0-1.51A1.061,1.061,0,0,1,17.784,95.578Zm11.344-5.127a.908.908,0,0,1-1.286,0l-6.479-6.478a.668.668,0,0,0-.944.945L27.4,91.9a.91.91,0,1,1-1.287,1.287l-1.177-1.177-.02-.02-.006-.006L19.5,86.567a.668.668,0,1,0-.945.944l5.43,5.43a.909.909,0,0,1-1.295,1.277L16.8,88.33a.668.668,0,0,0-.945.945l4.364,4.364,0,0a.91.91,0,0,1-.644,1.552.926.926,0,0,1-.172-.017,2.4,2.4,0,0,0-2.376-2.76h-.054a2.4,2.4,0,0,0-2.4-2.456l-.12,0a2.4,2.4,0,0,0-2.941-2.459l-.479-.479A9.157,9.157,0,0,1,8.5,82.213a3.373,3.373,0,0,0-.938-1.772L6.382,79.263l6.7-6.7,1.669,1.669a3.405,3.405,0,0,0,2.41.985,3.5,3.5,0,0,0,1.2-.211,3.143,3.143,0,0,1,.583-.15L14.8,78.994a2.679,2.679,0,0,0,3.788,3.788l2.077-2.077.562.563h0l.023.023.022.022h0l.019.018,7.831,7.831a.91.91,0,0,1,0,1.287Zm4.207-9.963a3.132,3.132,0,0,0-.88,1.665,9.155,9.155,0,0,1-2.548,4.876l-.513.513-4.225-4.225c.092.007.184.011.277.011a3.408,3.408,0,0,0,1.3-.253.668.668,0,0,0-.506-1.236c-1.719.7-3.78-1.235-4.009-1.458l-.012-.011-.024-.024h0l-.021-.021h0l-.562-.563.638-.638a.668.668,0,1,0-.944-.945L20.2,79.287h0l-2.548,2.548a1.343,1.343,0,1,1-1.9-1.9l4.4-4.4a4.429,4.429,0,0,1,4.958-.9,3.43,3.43,0,0,0,3.827-.681l.93-.93,5.466,5.466Zm3.76-2.115-7.166-7.166L33.04,68.1l7.166,7.166Z" transform="translate(0 -66.227)" fill="#ff7433"/>
      </g>
    </g>
    <g id="Group_31894" data-name="Group 31894" transform="translate(38.082 75.188)">
      <g id="Group_31893" data-name="Group 31893" transform="translate(0 0)">
        <circle id="Ellipse_237" data-name="Ellipse 237" cx="0.529" cy="0.529" r="0.529" fill="#ff7433"/>
      </g>
    </g>
    <g id="Group_31896" data-name="Group 31896" transform="translate(2.936 75.854)">
      <g id="Group_31895" data-name="Group 31895" transform="translate(0 0)">
        <circle id="Ellipse_238" data-name="Ellipse 238" cx="0.529" cy="0.529" r="0.529" fill="#ff7433"/>
      </g>
    </g>
  </g>
</svg>
