<svg xmlns="http://www.w3.org/2000/svg" width="27" height="27" viewBox="0 0 27 27">
  <g id="Icon_ionic-ios-pie" data-name="Icon ionic-ios-pie" transform="translate(-2.25 -2.25)">
    <path id="Path_17915" data-name="Path 17915" d="M17.418,4.749v13.2a.478.478,0,0,1-.362.464L5.672,21.341a.243.243,0,0,0-.163.325A12.543,12.543,0,1,0,17.672,4.514.24.24,0,0,0,17.418,4.749Z" transform="translate(-0.463 -0.323)" fill="#00ae8d"/>
    <path id="Path_17916" data-name="Path 17916" d="M2.25,14.743a14.145,14.145,0,0,0,.916,4.888.237.237,0,0,0,.277.133l11.68-3a.542.542,0,0,0,.386-.494V2.491a.242.242,0,0,0-.241-.241C5.806,2.365,2.25,9.3,2.25,14.743Z" fill="#00ae8d"/>
  </g>
</svg>
