<svg xmlns="http://www.w3.org/2000/svg" xmlns:xlink="http://www.w3.org/1999/xlink" width="36" height="40" viewBox="0 0 36 40">
  <defs>
    <clipPath id="clip-path">
      <rect id="Rectangle_132" data-name="Rectangle 132" width="36" height="40" fill="#ff5100"/>
    </clipPath>
  </defs>
  <g id="Credit_Limit" data-name="Credit Limit" clip-path="url(#clip-path)">
    <path id="Path_201" data-name="Path 201" d="M32.9,31.564h-9c-.315-.316-.619-.937-1.238-1.253A7.975,7.975,0,0,1,21.419,27.5a7.975,7.975,0,0,1,1.238-2.812c.619-.316.933-.937,1.238-1.253h9Zm-1.552,6.877H1.552V16.566h29.79v5H22.962s-3.1,4.065-3.1,5.94,3.1,5.94,3.1,5.94h8.381v4.992ZM4.657,1.875l6.829.937-.314.622L7.762,3.118A2.4,2.4,0,0,1,5.276,5.308H4.962L3.724,15H2.79ZM5.591,15l.933-8.13A6.916,6.916,0,0,0,8.077,5.93l.933-.937,1.552.316L6.524,15ZM13.343,2.191,19.857,5l-.619.621-3.1-1.253A2.332,2.332,0,0,1,13.962,5.93c-.315,0-.619-.316-.934-.316L8.99,14.987H8.371ZM10.857,15.008l3.1-7.5a3.9,3.9,0,0,0,2.79-1.253l1.552.622-6.21,8.13Zm17.7-.316v.316H17.381l3.724-5a1.133,1.133,0,0,0,.934.316A4.546,4.546,0,0,0,23.905,9.7h.314l4.343,3.434v1.559ZM22.038,5l11.79,9.068-1.238,1.559a1.6,1.6,0,0,0-1.238-.621h-.933a2.487,2.487,0,0,1,.314-2.5l-6.514-5a2.811,2.811,0,0,1-2.171.937A3.313,3.313,0,0,1,20.5,8.13L15.22,15.008h-.933L22.049,5Zm11.79,16.566H32.9V17.82L36,13.755,28.857,8.13l.619-.937L25.133,5.318,21.724,2.506l-.619.622.315-.622-4.657-.622L12.724.01,12.1,1.263,3.1,0,1.552,11.88A2.354,2.354,0,0,0,0,14.07V38.451A1.468,1.468,0,0,0,1.552,40.01h29.79A1.468,1.468,0,0,0,32.9,38.451v-5h.933a1,1,0,0,0,.933-.937V22.506A1,1,0,0,0,33.829,21.569Z" fill="#ff5100" fill-rule="evenodd"/>
    <path id="Path_202" data-name="Path 202" d="M26.31,26.561a1.384,1.384,0,0,1,.923.927,1.364,1.364,0,0,1-.923.927,1.364,1.364,0,0,1-.923-.927A1.364,1.364,0,0,1,26.31,26.561Zm0,3.383a2.635,2.635,0,0,0,2.445-2.455,2.643,2.643,0,0,0-2.445-2.455,2.643,2.643,0,0,0-2.445,2.455A2.643,2.643,0,0,0,26.31,29.944Z" fill="#ff5100" fill-rule="evenodd"/>
  </g>
</svg>
