<svg xmlns="http://www.w3.org/2000/svg" width="20.833" height="25" viewBox="0 0 20.833 25">
  <path id="pie-chart" d="M19.969,0H4.865A2.867,2.867,0,0,0,2,2.865V22.135A2.867,2.867,0,0,0,4.865,25h15.1a2.867,2.867,0,0,0,2.865-2.865V2.865A2.867,2.867,0,0,0,19.969,0ZM11.115,13.542V8.413a5.2,5.2,0,1,1-3.857,9.309l3.628-3.628a.778.778,0,0,0,.229-.552ZM9.552,8.413v4.806l-3.4,3.4a5.166,5.166,0,0,1,3.4-8.205Zm9.375,13.723H5.906a.781.781,0,0,1,0-1.563H18.927a.781.781,0,0,1,0,1.563Zm0-3.385H17.365a.781.781,0,0,1,0-1.563h1.563a.781.781,0,1,1,0,1.563Zm0-2.865H17.365a.781.781,0,0,1,0-1.563h1.563a.781.781,0,0,1,0,1.563Zm0-3.125H17.365a.781.781,0,1,1,0-1.563h1.563a.781.781,0,1,1,0,1.563Zm0-2.865H17.365a.781.781,0,1,1,0-1.563h1.563a.781.781,0,0,1,0,1.563Z" transform="translate(-2)" fill="#00ae8d"/>
</svg>
