<svg xmlns="http://www.w3.org/2000/svg" width="31.137" height="31" viewBox="0 0 31.137 31">
  <g id="Group_31955" data-name="Group 31955" style="mix-blend-mode: normal;isolation: isolate">
    <g id="project-management" transform="translate(0 0)">
      <g id="Group_31190" data-name="Group 31190" transform="translate(0 0)">
        <g id="Group_31189" data-name="Group 31189">
          <path id="Path_17582" data-name="Path 17582" d="M30.694,10.1h0l-2.01-.287a.517.517,0,0,1-.237-.925L30.07,7.669a.517.517,0,0,0,.1-.723l-1.86-2.48a.517.517,0,0,0-.723-.1L25.966,5.581a.517.517,0,0,1-.824-.486l.287-2.01a.517.517,0,0,0-.438-.585h0l-3.067-.438a.517.517,0,0,0-.585.438h0l-.287,2.01a.517.517,0,0,1-.925.237L18.91,3.123a.517.517,0,0,0-.723-.1L16.634,4.185a10,10,0,0,0-2.113,0,9.817,9.817,0,0,0-8.656,8.8c-.014.146-.019.291-.026.437H5.684a.517.517,0,0,0-.505.413l-.357,1.7-1.43-.986a.517.517,0,0,0-.659.06l-1.55,1.55a.517.517,0,0,0-.06.658L2.1,18.244l-1.7.357A.517.517,0,0,0,0,19.107v2.067a.517.517,0,0,0,.41.506l1.7.357-.982,1.428a.517.517,0,0,0,.06.658l1.55,1.55a.517.517,0,0,0,.659.06l1.428-.984.357,1.7a.517.517,0,0,0,.505.413H7.752a.517.517,0,0,0,.506-.41l.357-1.7,1.428.982a.517.517,0,0,0,.658-.06l.8-.8V26.34a2.06,2.06,0,0,0,1.033,1.779V30.99A2.067,2.067,0,0,0,14.6,33.057H16.67a2.067,2.067,0,0,0,2.067-2.067V28.12A2.06,2.06,0,0,0,19.77,26.34V24.3a2.532,2.532,0,0,1,1.2-2.109,9.915,9.915,0,0,0,1.216-.93l-.689-.77a8.8,8.8,0,0,1-1.089.832A3.559,3.559,0,0,0,18.736,24.3V26.34A1.033,1.033,0,0,1,17.7,27.373H13.57a1.033,1.033,0,0,1-1.033-1.033V24.252A3.476,3.476,0,0,0,10.9,21.336,8.757,8.757,0,0,1,15.525,5.165a.562.562,0,0,0-.02.056.517.517,0,0,0,.1.383l1.218,1.624a.506.506,0,0,1,.031.573.514.514,0,0,1-.517.249l-2.01-.287a.517.517,0,0,0-.585.438h0L13.3,11.27a.517.517,0,0,0,.438.585h0l2.01.287a.517.517,0,0,1,.237.925l-1.624,1.218a.517.517,0,0,0-.1.723l1.86,2.48a.517.517,0,0,0,.723.1l1.624-1.218a.517.517,0,0,1,.821.486L19,18.869a.517.517,0,0,0,.438.585h0l3.069.439a.572.572,0,0,0,.073,0,.517.517,0,0,0,.512-.443l.287-2.01a.517.517,0,0,1,.925-.237l1.218,1.624a.517.517,0,0,0,.723.1l2.48-1.86a.517.517,0,0,0,.1-.723l-1.218-1.624a.508.508,0,0,1-.031-.573.5.5,0,0,1,.517-.248l2.01.287a.517.517,0,0,0,.585-.438h0l.438-3.069A.517.517,0,0,0,30.694,10.1ZM13.57,28.407H17.7V29.44H13.57Zm0,2.067H17.7v.517a1.033,1.033,0,0,1-1.033,1.033H14.6A1.033,1.033,0,0,1,13.57,30.99Zm-4.113-8.91a9.766,9.766,0,0,0,.883.643,2.522,2.522,0,0,1,1.041,1.322l-1.108,1.106L9.2,23.9a1.033,1.033,0,0,0-1.6.638l-.271,1.29H6.1l-.271-1.288a1.033,1.033,0,0,0-1.6-.638l-1.074.738L2.22,23.7l.739-1.073a1.033,1.033,0,0,0-.638-1.6l-1.288-.271V19.526l1.288-.271a1.033,1.033,0,0,0,.638-1.595l-.74-1.076.941-.939,1.074.74a1.033,1.033,0,0,0,1.6-.639l.09-.43a9.839,9.839,0,0,0,.41,1.752,3.1,3.1,0,1,0,3.124,4.495Zm-.8-.728a2.064,2.064,0,1,1-1.938-2.762h.02A9.785,9.785,0,0,0,8.654,20.836Zm21.087-7.741-1.5-.214a1.55,1.55,0,0,0-1.459,2.464l.908,1.211L26.038,17.8l-.908-1.21a1.55,1.55,0,0,0-2.774.71l-.209,1.5L20.1,18.5l.214-1.5a1.55,1.55,0,0,0-2.464-1.46l-1.211.908L15.4,14.8l1.21-.908a1.55,1.55,0,0,0-.71-2.774L14.4,10.9l.292-2.045,1.5.214a1.55,1.55,0,0,0,1.46-2.464L16.74,5.4l1.653-1.24L19.3,5.367a1.55,1.55,0,0,0,2.774-.71l.214-1.5,2.045.292-.214,1.5a1.55,1.55,0,0,0,2.464,1.459L27.8,5.5l1.24,1.653-1.211.908a1.55,1.55,0,0,0,.71,2.774l1.5.214Z" transform="translate(0 -2.057)" fill="#68d2c0"/>
        </g>
      </g>
      <g id="Group_31192" data-name="Group 31192" transform="translate(18.01 4.767)">
        <g id="Group_31191" data-name="Group 31191">
          <path id="Path_17583" data-name="Path 17583" d="M284.18,76.171a4.18,4.18,0,1,0,4.18,4.18A4.18,4.18,0,0,0,284.18,76.171Zm0,7.315a3.135,3.135,0,1,1,3.135-3.135A3.135,3.135,0,0,1,284.18,83.486Z" transform="translate(-280 -76.171)" fill="#68d2c0"/>
        </g>
      </g>
    </g>
  </g>
</svg>
