<svg xmlns="http://www.w3.org/2000/svg" width="29.406" height="29.413" viewBox="0 0 29.406 29.413">
  <path id="Path_208" data-name="Path 208" d="M27.8,17.689l-3.213,2.071L23.2,18.841l4.824-2.756A3.38,3.38,0,0,1,27.8,17.7Zm-.689,2.3c-.232.233-.232.693-.457.919l-.921-.459,1.61-.919A.814.814,0,0,0,27.106,19.985Zm-2.988,4.134a10.642,10.642,0,0,1-4.135,2.99,13.569,13.569,0,0,1-5.28,1.152,13.54,13.54,0,0,1-5.28-1.152,10.642,10.642,0,0,1-4.134-2.99A10.691,10.691,0,0,1,2.3,19.985,13.655,13.655,0,0,1,1.153,14.7,13.654,13.654,0,0,1,2.3,9.413,10.582,10.582,0,0,1,5.288,5.279a10.642,10.642,0,0,1,4.134-2.99,16.911,16.911,0,0,1,4.591-1.152V8.042A6.674,6.674,0,0,0,14.7,21.371a7.2,7.2,0,0,0,5.513-2.756l5.745,3.449a7.477,7.477,0,0,1-1.835,2.071ZM15.392,6.664,21.369,2.99a4.937,4.937,0,0,1,1.146.693L15.392,8.05V6.664Zm0-2.99,3.213-1.837a3.318,3.318,0,0,1,1.378.459h.232L15.392,5.053Zm0-2.53c.457,0,.921.233,1.61.233l-1.61.919V1.145Zm8.733,4.134a.644.644,0,0,1,.457.233l-6.2,3.675A1.991,1.991,0,0,0,17,8.494l6.666-3.908C23.9,4.819,24.125,5.045,24.125,5.279Zm1.146,1.152c.232.233.457.693.689.919L20.215,10.8c-.232-.233-.689-.693-.921-.919ZM27.106,9.42v.233L21.129,13.1c0-.459-.232-.693-.457-1.152L26.642,8.5c.232.233.232.693.457.919Zm.921,2.53-6.666,3.908V14.481l6.2-3.675c.232.459.232.919.457,1.152ZM14.7,9.194a6.508,6.508,0,0,1,3.9,1.611,6.522,6.522,0,0,1,1.61,3.908,6.523,6.523,0,0,1-1.61,3.908,6.508,6.508,0,0,1-3.9,1.611,5.524,5.524,0,0,1-3.9-1.611,5.548,5.548,0,0,1,0-7.816A5.552,5.552,0,0,1,14.7,9.194ZM28.26,14.707l-6.2,3.449-1.146-.693,7.123-4.134a2.885,2.885,0,0,1,.232,1.378ZM14.7,0A14.811,14.811,0,0,0,0,14.707,14.81,14.81,0,0,0,14.7,29.413a14.81,14.81,0,0,0,14.7-14.706A14.806,14.806,0,0,0,14.7,0Z" fill="#ff5100" fill-rule="evenodd"/>
</svg>
