<svg xmlns="http://www.w3.org/2000/svg" width="38.182" height="23.026" viewBox="0 0 38.182 23.026">
  <path id="Path_211" data-name="Path 211" d="M29.536,21.828V1.2h2.986V21.828Zm-8.053,0V11.517h3.277V21.835H21.483Zm-8.053,0V5.038h3.278v16.79Zm-7.761,0V15.348H8.656v6.479Zm31.617,0H34.3V.721C34.3.243,33.708,0,33.407,0H28.632c-.3,0-.895.243-.895.721V21.828H26.249V10.8c0-.243-.3-.478-.895-.478H20.579a.587.587,0,0,0-.593.478V21.828H18.2V4.56a.64.64,0,0,0-.593-.721H12.828c-.593,0-.895.243-.895.721V21.828H10.445v-7.2c0-.243-.593-.478-.895-.478H4.775c-.3,0-.895.243-.895.478v7.2H.895c-.593,0-.895.243-.895.478,0,.478.3.721.895.721H37.287c.593,0,.895-.243.895-.721C38.182,22.063,37.88,21.828,37.287,21.828Z" fill="#ff5100" fill-rule="evenodd"/>
</svg>
