<svg xmlns="http://www.w3.org/2000/svg" width="30.694" height="31" viewBox="0 0 30.694 31">
  <g id="save" transform="translate(-0.421)">
    <path id="Path_22963" data-name="Path 22963" d="M27.654,254.26l-.147.084a2.106,2.106,0,0,0-2.588-.679l-.009.005-.363.207a2.712,2.712,0,0,0-3.242-.3l-2,1.152H16.643a3.659,3.659,0,0,1-1.66-.4l-.367-.188a6.011,6.011,0,0,0-6.559.679l-.026.023-.885.835a3.012,3.012,0,0,1-1.139.677l-.5-1.733a.416.416,0,0,0-.395-.31H.833a.4.4,0,0,0-.309.147.454.454,0,0,0-.1.343l1.427,12.4a.422.422,0,0,0,.41.384H8.68a.406.406,0,0,0,.332-.177.459.459,0,0,0,.063-.388l-.84-2.922,2.617-1.753a1.491,1.491,0,0,1,1.143-.156l.026.006,5.343,1.042a6.583,6.583,0,0,0,4.281-.64.41.41,0,0,0,.05-.032l9.241-6.723a.453.453,0,0,0,.12-.586,2.473,2.473,0,0,0-3.4-.986Zm-2.359.183a1.288,1.288,0,0,1,1.458.332l-3.487,1.994-.191.107a3.3,3.3,0,0,0-.467-.9Zm-3.593-.1.01-.006a1.915,1.915,0,0,1,2.025.007l-1.752,1a2.962,2.962,0,0,0-1.1-.531ZM2.625,266.7,1.3,255.178H4.807L8.122,266.7Zm18.626-4.883a5.792,5.792,0,0,1-3.741.55l-5.329-1.04a2.273,2.273,0,0,0-1.742.25l-.019.012L7.984,263.22l-1.737-6.036a3.828,3.828,0,0,0,1.447-.861l.872-.823a5.227,5.227,0,0,1,5.69-.58l.366.188a4.451,4.451,0,0,0,2.019.49H20.2a2.271,2.271,0,0,1,2.188,1.9l-2.558-.123a14.581,14.581,0,0,0-2.806.137.434.434,0,0,0-.352.493.417.417,0,0,0,.465.373,13.8,13.8,0,0,1,2.656-.13l3.032.146h.019a.425.425,0,0,0,.413-.437c0-.065,0-.13-.006-.195l.408-.228,4.392-2.51a1.656,1.656,0,0,1,2.066.34Zm0,0" transform="translate(0 -236.573)" fill="#43b0ef"/>
    <path id="Path_22964" data-name="Path 22964" d="M50.516,397.965a1.344,1.344,0,1,0,1.344-1.344A1.344,1.344,0,0,0,50.516,397.965Zm1.344-.47a.47.47,0,1,1-.47.47.47.47,0,0,1,.47-.47Zm0,0" transform="translate(-46.445 -369.571)" fill="#43b0ef"/>
    <path id="Path_22965" data-name="Path 22965" d="M125.336,34.285a7.723,7.723,0,1,0-7.723-7.723A7.723,7.723,0,0,0,125.336,34.285Zm0-14.571a6.848,6.848,0,1,1-6.848,6.848A6.848,6.848,0,0,1,125.336,19.714Zm0,0" transform="translate(-109.568 -17.467)" fill="#43b0ef"/>
    <path id="Path_22966" data-name="Path 22966" d="M188,74.833h-.016l-1.3-.014h0a.437.437,0,0,0-.3.752l3.206,3.095a.437.437,0,1,0,.607-.629l-2.415-2.331.2,0a2.381,2.381,0,0,0,2.36-1.918l.894.01h0a.437.437,0,0,0,0-.874l-.893-.01a2.354,2.354,0,0,0-.485-1.074l1.389.015h0a.437.437,0,1,0,0-.874l-3.233-.035-1.3-.014a.437.437,0,0,0-.009.874l1.3.014a1.509,1.509,0,0,1,1.43,1.084l-2.737-.029h0a.437.437,0,0,0,0,.874l2.736.029A1.508,1.508,0,0,1,188,74.833Zm0,0" transform="translate(-173.204 -66.147)" fill="#43b0ef"/>
    <path id="Path_22967" data-name="Path 22967" d="M365.4,67.668a.437.437,0,0,0-.437.437v.729a.437.437,0,0,0,.874,0v-.729A.437.437,0,0,0,365.4,67.668Zm0,0" transform="translate(-339.813 -62.9)" fill="#43b0ef"/>
    <path id="Path_22968" data-name="Path 22968" d="M365.4,97.668a.437.437,0,0,0-.437.437v.729a.437.437,0,1,0,.874,0v-.729A.437.437,0,0,0,365.4,97.668Zm0,0" transform="translate(-339.813 -90.973)" fill="#43b0ef"/>
    <path id="Path_22969" data-name="Path 22969" d="M345.4,87.668a.437.437,0,0,0,0,.874h.729a.437.437,0,0,0,0-.874Zm0,0" transform="translate(-320.926 -81.65)" fill="#43b0ef"/>
    <path id="Path_22970" data-name="Path 22970" d="M376.131,88.542a.437.437,0,0,0,0-.874H375.4a.437.437,0,0,0,0,.874Zm0,0" transform="translate(-349.085 -81.65)" fill="#43b0ef"/>
    <path id="Path_22971" data-name="Path 22971" d="M102.261,0a.437.437,0,0,0-.437.437v.729a.437.437,0,0,0,.874,0V.437A.437.437,0,0,0,102.261,0Zm0,0" transform="translate(-94.442)" fill="#43b0ef"/>
    <path id="Path_22972" data-name="Path 22972" d="M102.261,30a.437.437,0,0,0-.437.437v.729a.437.437,0,0,0,.874,0v-.729A.437.437,0,0,0,102.261,30Zm0,0" transform="translate(-94.442 -27.814)" fill="#43b0ef"/>
    <path id="Path_22973" data-name="Path 22973" d="M82.261,20a.437.437,0,1,0,0,.874h.729a.437.437,0,0,0,0-.874Zm0,0" transform="translate(-75.823 -18.543)" fill="#43b0ef"/>
    <path id="Path_22974" data-name="Path 22974" d="M112.99,20h-.729a.437.437,0,1,0,0,.874h.729a.437.437,0,1,0,0-.874Zm0,0" transform="translate(-103.767 -18.543)" fill="#43b0ef"/>
  </g>
</svg>
