<svg xmlns="http://www.w3.org/2000/svg" width="44.556" height="45" viewBox="0 0 44.556 45">
  <g id="save" transform="translate(-0.421)">
    <path id="Path_22963" data-name="Path 22963" d="M39.953,254.7l-.214.118a3.119,3.119,0,0,0-3.757-.954l-.013.007-.527.291a4.035,4.035,0,0,0-4.707-.428l-2.9,1.62H23.969a5.45,5.45,0,0,1-2.41-.567l-.532-.264a8.953,8.953,0,0,0-9.521.954.479.479,0,0,0-.038.032l-1.285,1.174a4.4,4.4,0,0,1-1.654.952L7.805,255.2a.6.6,0,0,0-.573-.435H1.02a.591.591,0,0,0-.448.207.625.625,0,0,0-.146.482L2.5,272.883a.6.6,0,0,0,.595.54H12.41a.6.6,0,0,0,.482-.249.628.628,0,0,0,.091-.545l-1.22-4.109,3.8-2.465a2.226,2.226,0,0,1,1.659-.22l.037.008,7.756,1.466a9.828,9.828,0,0,0,6.215-.9.6.6,0,0,0,.073-.044l13.415-9.454a.625.625,0,0,0,.174-.824,3.65,3.65,0,0,0-4.937-1.386Zm-3.424.258a1.911,1.911,0,0,1,2.116.466l-5.062,2.8-.278.15a4.585,4.585,0,0,0-.677-1.262Zm-5.216-.147.014-.008a2.857,2.857,0,0,1,2.94.009l-2.544,1.407a4.36,4.36,0,0,0-1.6-.747ZM3.621,272.194,1.7,255.993H6.789l4.812,16.2Zm27.038-6.867a8.648,8.648,0,0,1-5.43.774l-7.736-1.462a3.391,3.391,0,0,0-2.529.352l-.027.017L11.4,267.3l-2.521-8.488a5.6,5.6,0,0,0,2.1-1.211l1.266-1.157a7.787,7.787,0,0,1,8.26-.815l.532.264a6.629,6.629,0,0,0,2.931.69h5.16a3.266,3.266,0,0,1,3.176,2.677l-3.714-.172a21.84,21.84,0,0,0-4.074.193.613.613,0,0,0-.511.694.6.6,0,0,0,.676.524,20.666,20.666,0,0,1,3.855-.182l4.4.2h.027a.607.607,0,0,0,.6-.615c0-.092,0-.183-.009-.274l.592-.32,6.376-3.53a2.46,2.46,0,0,1,3,.478Zm0,0" transform="translate(0 -228.424)" fill="#43b0ef"/>
    <path id="Path_22964" data-name="Path 22964" d="M50.516,398.511a1.89,1.89,0,1,0,1.889-1.891A1.89,1.89,0,0,0,50.516,398.511Zm1.89-.661a.661.661,0,1,1-.66.661.661.661,0,0,1,.66-.661Zm0,0" transform="translate(-44.963 -357.176)" fill="#43b0ef"/>
    <path id="Path_22965" data-name="Path 22965" d="M128.473,40.56a10.86,10.86,0,1,0-10.86-10.86A10.86,10.86,0,0,0,128.473,40.56Zm0-20.491a9.631,9.631,0,1,1-9.631,9.631A9.631,9.631,0,0,1,128.473,20.069Zm0,0" transform="translate(-105.775 -16.91)" fill="#43b0ef"/>
    <path id="Path_22966" data-name="Path 22966" d="M188.716,76.417h-.023l-1.822-.02h-.007a.615.615,0,0,0-.427,1.057l4.508,4.352a.615.615,0,1,0,.854-.884l-3.4-3.278.277,0A3.348,3.348,0,0,0,192,74.95l1.257.014h.006a.615.615,0,0,0,.007-1.229l-1.256-.014a3.31,3.31,0,0,0-.682-1.51l1.954.02h.007A.615.615,0,0,0,193.3,71l-4.546-.049-1.822-.019a.615.615,0,0,0-.013,1.229l1.822.019a2.122,2.122,0,0,1,2.011,1.525l-3.85-.041h-.007a.615.615,0,1,0-.006,1.229l3.848.041A2.121,2.121,0,0,1,188.716,76.417Zm0,0" transform="translate(-167.379 -63.912)" fill="#43b0ef"/>
    <path id="Path_22967" data-name="Path 22967" d="M365.58,67.668a.615.615,0,0,0-.615.615v1.025a.615.615,0,0,0,1.229,0V68.283A.615.615,0,0,0,365.58,67.668Zm0,0" transform="translate(-328.374 -60.735)" fill="#43b0ef"/>
    <path id="Path_22968" data-name="Path 22968" d="M365.58,97.668a.615.615,0,0,0-.615.615v1.025a.615.615,0,1,0,1.229,0V98.283A.615.615,0,0,0,365.58,97.668Zm0,0" transform="translate(-328.374 -87.933)" fill="#43b0ef"/>
    <path id="Path_22969" data-name="Path 22969" d="M345.58,87.668a.615.615,0,0,0,0,1.229H346.6a.615.615,0,0,0,0-1.229Zm0,0" transform="translate(-310.201 -78.924)" fill="#43b0ef"/>
    <path id="Path_22970" data-name="Path 22970" d="M376.6,88.9a.615.615,0,0,0,0-1.229H375.58a.615.615,0,0,0,0,1.229Zm0,0" transform="translate(-337.349 -78.924)" fill="#43b0ef"/>
    <path id="Path_22971" data-name="Path 22971" d="M102.439,0a.615.615,0,0,0-.615.615V1.639a.615.615,0,0,0,1.229,0V.615A.615.615,0,0,0,102.439,0Zm0,0" transform="translate(-91.289)" fill="#43b0ef"/>
    <path id="Path_22972" data-name="Path 22972" d="M102.439,30a.615.615,0,0,0-.615.615v1.025a.615.615,0,0,0,1.229,0V30.615A.615.615,0,0,0,102.439,30Zm0,0" transform="translate(-91.289 -26.926)" fill="#43b0ef"/>
    <path id="Path_22973" data-name="Path 22973" d="M82.439,20a.615.615,0,0,0,0,1.229h1.025a.615.615,0,0,0,0-1.229Zm0,0" transform="translate(-73.29 -17.951)" fill="#43b0ef"/>
    <path id="Path_22974" data-name="Path 22974" d="M113.463,20h-1.025a.615.615,0,1,0,0,1.229h1.025a.615.615,0,1,0,0-1.229Zm0,0" transform="translate(-100.299 -17.951)" fill="#43b0ef"/>
  </g>
</svg>
