<svg xmlns="http://www.w3.org/2000/svg" width="40" height="40" viewBox="0 0 40 40">
  <path id="Total_Sales" data-name="Total Sales" d="M31.552,38.433V14.992l1.874,1.567V17.5A3.171,3.171,0,0,0,34.992,20V38.433Zm-1.567,0H26.544V11.562c.317,0,.317-.317.625-.317l2.816,2.5v24.69Zm-8.438,0V14.368l3.123-2.816h.317V38.423H21.546Zm-1.567,0H16.539V21.557a2.719,2.719,0,0,0,1.874-2.5c0-.317-.317-.625-.317-.942l1.874-1.874V38.423Zm-8.438,0V22.816l2.816-1.567c.317,0,.317.317.625.317V38.443H11.541Zm-1.567,0H6.534V28.121a2.678,2.678,0,0,0,1.874-2.191c0-.317,0-.625-.317-.625l1.874-1.249V38.423Zm-8.438,0V34.992a.835.835,0,0,0,.942-.942c0-.318-.317-.625-.942-.625V29.985a.836.836,0,0,0,.942-.942c0-.317-.317-.625-.942-.625V24.977L3.41,25.6v.317a2.353,2.353,0,0,0,1.567,2.192V38.423H1.567ZM5.909,25c.317,0,.625.317.625.942a.672.672,0,0,1-.625.625c-.625,0-.942-.317-.942-.625A.836.836,0,0,1,5.909,25ZM15.9,18.433a.672.672,0,0,1,.625.625c0,.625-.317.942-.625.942a.835.835,0,0,1-.942-.942C14.962,18.74,15.279,18.433,15.9,18.433ZM25.9,8.438a.672.672,0,0,1,.625.625c0,.625-.317.942-.625.942a.836.836,0,0,1-.942-.942C24.956,8.746,25.274,8.438,25.9,8.438ZM36.518,17.5c0,.317-.317.942-.625.942a.942.942,0,1,1,0-1.884C36.211,16.559,36.518,17.184,36.518,17.5Zm2.5,20.932h-2.5V20c.942-.625,1.874-1.567,1.874-2.5,0-.317-.317-.625-.317-.942l1.567-1.874c.317,0,.317-.317.317-.625s-.317-.625-.942-.625h-.625L36.825,15.31a1.146,1.146,0,0,0-.942-.317c-.625,0-.942,0-1.249.317L28.07,9.995c0-.317.317-.625.317-.942a2.687,2.687,0,0,0-2.5-2.5,2.46,2.46,0,0,0-2.5,2.5V10.3l-6.564,6.564c-.317,0-.625-.317-.942-.317a2.46,2.46,0,0,0-2.5,2.5v.625L7.138,23.738a1.868,1.868,0,0,0-1.249-.317,2.644,2.644,0,0,0-1.874.625L1.823,23.42H1.505V19.98a.836.836,0,0,0,.942-.942c0-.317-.317-.625-.942-.625V14.972a.836.836,0,0,0,.942-.942c0-.317-.317-.625-.942-.625V9.964a.835.835,0,0,0,.942-.942c0-.317-.317-.625-.942-.625V4.956a.835.835,0,0,0,.942-.942c0-.317-.317-.625-.942-.625V.942C1.505.317,1.188,0,.881,0,.317,0,0,.317,0,.942V39.058A.835.835,0,0,0,.942,40H39.058A.835.835,0,0,0,40,39.058c0-.317-.317-.625-.942-.625Z" fill="#ff5100" fill-rule="evenodd"/>
</svg>
