<svg xmlns="http://www.w3.org/2000/svg" width="37.272" height="41.5" viewBox="0 0 37.272 41.5">
  <g id="Upgrade_Policy" data-name="Upgrade Policy" transform="translate(0.75 0.75)">
    <path id="Path_196" data-name="Path 196" d="M3.164,22.034H38.936v5.5l-2.87.252a17.158,17.158,0,0,1-2.435,6.35L35.5,36.512,31.9,40.4l-2.2-2.017a14.59,14.59,0,0,1-5.874,2.632l-.233,3.1H18.506l-.233-3.1A14.587,14.587,0,0,1,12.4,38.386L10.2,40.4,6.6,36.512,8.47,34.138a17.163,17.163,0,0,1-2.435-6.35l-2.87-.252Z" transform="translate(-3.164 -4.121)" fill="none" stroke="#ff5100" stroke-linecap="round" stroke-linejoin="round" stroke-width="1.5" fill-rule="evenodd"/>
    <path id="Path_197" data-name="Path 197" d="M29.877,22.234a12.145,12.145,0,0,1,.27,2.552c0,5.825-4.073,10.547-9.1,10.547s-9.1-4.722-9.1-10.547a12.145,12.145,0,0,1,.27-2.552" transform="translate(-3.164 -3.176)" fill="none" stroke="#ff5100" stroke-linecap="round" stroke-linejoin="round" stroke-width="1.5"/>
    <path id="Path_198" data-name="Path 198" d="M25.137,21.595V11.426h1.758L22.5,5.273l-4.395,6.152h1.758V21.595" transform="translate(-4.614 -0.879)" fill="none" stroke="#ff5100" stroke-linecap="round" stroke-linejoin="round" stroke-width="1.5"/>
    <path id="Path_199" data-name="Path 199" d="M37.441,21.595V7.031H39.2L34.8.879,30.41,7.031h1.758V21.595" transform="translate(-6.064 -0.879)" fill="none" stroke="#ff5100" stroke-linecap="round" stroke-linejoin="round" stroke-width="1.5"/>
    <path id="Path_200" data-name="Path 200" d="M12.832,21.595V15.82H14.59L10.2,9.668,5.8,15.82H7.559v5.774" transform="translate(-3.164 -1.789)" fill="none" stroke="#ff5100" stroke-linecap="round" stroke-linejoin="round" stroke-width="1.5"/>
  </g>
</svg>
