<svg id="Component_153_1" data-name="Component 153 – 1" xmlns="http://www.w3.org/2000/svg" xmlns:xlink="http://www.w3.org/1999/xlink" width="24.583" height="23.318" viewBox="0 0 24.583 23.318">
  <defs>
    <clipPath id="clip-path">
      <rect id="Rectangle_11216" data-name="Rectangle 11216" width="24.582" height="23.318" fill="none"/>
    </clipPath>
    <clipPath id="clip-path-2">
      <rect id="Rectangle_11217" data-name="Rectangle 11217" width="24.583" height="23.318" fill="none"/>
    </clipPath>
  </defs>
  <g id="Group_30012" data-name="Group 30012">
    <g id="Group_30011" data-name="Group 30011" clip-path="url(#clip-path)">
      <path id="Path_17081" data-name="Path 17081" d="M24.306,6.953C23.952,3.042,21.183.2,17.718.2a6.553,6.553,0,0,0-5.611,3.233A6.31,6.31,0,0,0,6.631.2C3.165.2.4,3.042.042,6.953A6.926,6.926,0,0,0,.248,9.518,10.983,10.983,0,0,0,3.62,15.142l8.482,7.7,8.626-7.7A11.007,11.007,0,0,0,24.1,9.518a6.976,6.976,0,0,0,.205-2.565M23.188,9.3A10.067,10.067,0,0,1,20.1,14.448l-8,7.133L4.249,14.45A10.076,10.076,0,0,1,1.16,9.3,6.1,6.1,0,0,1,.965,7.1l.007-.046c.3-3.427,2.684-5.914,5.659-5.914A5.484,5.484,0,0,1,11.672,4.66L12.1,5.682l.432-1.022a5.654,5.654,0,0,1,5.183-3.518c2.973,0,5.353,2.488,5.663,5.958a6.092,6.092,0,0,1-.194,2.2" transform="translate(-0.001 -0.085)" fill="#1a1818"/>
    </g>
  </g>
  <g id="Group_30014" data-name="Group 30014">
    <g id="Group_30013" data-name="Group 30013" clip-path="url(#clip-path-2)">
      <path id="Path_17082" data-name="Path 17082" d="M9.484,5.067A4.687,4.687,0,0,0,4.8,9.749a.467.467,0,1,0,.935,0A3.751,3.751,0,0,1,9.484,6a.468.468,0,0,0,0-.935" transform="translate(-1.991 -2.101)" fill="#1a1818"/>
    </g>
  </g>
</svg>
