<svg id="Component_152_1" data-name="Component 152 – 1" xmlns="http://www.w3.org/2000/svg" xmlns:xlink="http://www.w3.org/1999/xlink" width="25.706" height="27.954" viewBox="0 0 25.706 27.954">
  <defs>
    <clipPath id="clip-path">
      <rect id="Rectangle_11215" data-name="Rectangle 11215" width="25.706" height="27.954" fill="none"/>
    </clipPath>
  </defs>
  <g id="Group_30009" data-name="Group 30009" clip-path="url(#clip-path)">
    <path id="Path_17079" data-name="Path 17079" d="M4.739,34.8A2.341,2.341,0,1,0,7.08,37.139,2.346,2.346,0,0,0,4.739,34.8m0,3.748a1.4,1.4,0,1,1,1.406-1.406,1.407,1.407,0,0,1-1.406,1.406" transform="translate(-0.994 -14.431)" fill="#1a1818"/>
    <path id="Path_17080" data-name="Path 17080" d="M25.753,16.788a1.988,1.988,0,0,0-1.271-1.982,2.34,2.34,0,0,0-1.539-4.1H16.217l.341-1.6a16.19,16.19,0,0,0,.055-5.24C16.37,2.229,14.923.4,13.35.4h-.11c-.747,0-2,.426-2,3.279,0,3.756-.937,5.475-1.724,6.255a2.426,2.426,0,0,1-1.552.768H7.492V9.765H0V27.556H7.492v-.935H20.6a2.34,2.34,0,0,0,1.841-3.786,2.34,2.34,0,0,0,1.406-3.747,2.342,2.342,0,0,0,1.9-2.3M.938,10.7H6.555V26.622H.938Zm22.474,7.489H18.261a.469.469,0,0,0,0,.938h3.748a1.4,1.4,0,0,1,0,2.81H17.326a.467.467,0,1,0,0,.935H20.6a1.4,1.4,0,1,1,0,2.81H7.492V11.637h.452a3.2,3.2,0,0,0,2.193-1c1.351-1.31,2.037-3.649,2.037-6.954,0-.876.137-2.341,1.065-2.341h.11c1.045,0,2.158,1.465,2.336,2.663a15.284,15.284,0,0,1-.043,4.907l-.584,2.73h7.883a1.4,1.4,0,1,1,0,2.81H18.261a.469.469,0,0,0,0,.938h3.279a16.14,16.14,0,0,1,1.8.089c1.223.18,1.472.656,1.472,1.315a1.4,1.4,0,0,1-1.4,1.4" transform="translate(0 -0.166)" fill="#1a1818"/>
  </g>
</svg>
