<svg xmlns="http://www.w3.org/2000/svg" width="16.341" height="18.581" viewBox="0 0 16.341 18.581">
  <path id="Icon_awesome-calendar-alt" data-name="Icon awesome-calendar-alt" d="M0,16.839a1.747,1.747,0,0,0,1.751,1.742H14.59a1.747,1.747,0,0,0,1.751-1.742V6.968H0ZM11.672,9.726a.438.438,0,0,1,.438-.435h1.459a.438.438,0,0,1,.438.435v1.452a.438.438,0,0,1-.438.435H12.11a.438.438,0,0,1-.438-.435Zm0,4.645a.438.438,0,0,1,.438-.435h1.459a.438.438,0,0,1,.438.435v1.452a.438.438,0,0,1-.438.435H12.11a.438.438,0,0,1-.438-.435ZM7,9.726a.438.438,0,0,1,.438-.435H8.9a.438.438,0,0,1,.438.435v1.452a.438.438,0,0,1-.438.435H7.441A.438.438,0,0,1,7,11.177Zm0,4.645a.438.438,0,0,1,.438-.435H8.9a.438.438,0,0,1,.438.435v1.452a.438.438,0,0,1-.438.435H7.441A.438.438,0,0,1,7,15.823ZM2.334,9.726a.438.438,0,0,1,.438-.435H4.231a.438.438,0,0,1,.438.435v1.452a.438.438,0,0,1-.438.435H2.772a.438.438,0,0,1-.438-.435Zm0,4.645a.438.438,0,0,1,.438-.435H4.231a.438.438,0,0,1,.438.435v1.452a.438.438,0,0,1-.438.435H2.772a.438.438,0,0,1-.438-.435ZM14.59,2.323H12.839V.581A.584.584,0,0,0,12.256,0H11.088A.584.584,0,0,0,10.5.581V2.323H5.836V.581A.584.584,0,0,0,5.252,0H4.085A.584.584,0,0,0,3.5.581V2.323H1.751A1.747,1.747,0,0,0,0,4.065V5.806H16.341V4.065A1.747,1.747,0,0,0,14.59,2.323Z" fill="#585857"/>
</svg>
