<svg xmlns="http://www.w3.org/2000/svg" width="28.163" height="26" viewBox="0 0 28.163 26">
  <g id="hierarchical-structure" transform="translate(0 -19.664)">
    <g id="Group_30315" data-name="Group 30315" transform="translate(0 19.664)">
      <path id="Path_17237" data-name="Path 17237" d="M25.964,38.709h-.82V37.673A4.45,4.45,0,0,0,20.7,33.229H15.091V29.4H17.55a2.2,2.2,0,0,0,2.2-2.2V21.863a2.2,2.2,0,0,0-2.2-2.2H10.981a2.2,2.2,0,0,0-2.2,2.2V27.2a2.2,2.2,0,0,0,2.2,2.2h2.459v3.828H7.5a4.45,4.45,0,0,0-4.445,4.445v1.035H2.2a2.2,2.2,0,0,0-2.2,2.2v2.557a2.2,2.2,0,0,0,2.2,2.2H5.564a2.2,2.2,0,0,0,2.2-2.2V40.908a2.2,2.2,0,0,0-2.2-2.2H4.707V37.673A2.8,2.8,0,0,1,7.5,34.881h5.939v3.828h-.856a2.2,2.2,0,0,0-2.2,2.2v2.557a2.2,2.2,0,0,0,2.2,2.2h3.365a2.2,2.2,0,0,0,2.2-2.2V40.908a2.2,2.2,0,0,0-2.2-2.2h-.856V34.881H20.7a2.8,2.8,0,0,1,2.793,2.793v1.035H22.6a2.2,2.2,0,0,0-2.2,2.2v2.557a2.2,2.2,0,0,0,2.2,2.2h3.365a2.2,2.2,0,0,0,2.2-2.2V40.908A2.2,2.2,0,0,0,25.964,38.709ZM5.564,40.36a.548.548,0,0,1,.547.548v2.557a.548.548,0,0,1-.547.547H2.2a.548.548,0,0,1-.548-.547V40.908A.548.548,0,0,1,2.2,40.36Zm10.384,0a.548.548,0,0,1,.547.548v2.557a.548.548,0,0,1-.547.547H12.583a.548.548,0,0,1-.548-.547V40.908a.548.548,0,0,1,.548-.548ZM10.981,27.749a.548.548,0,0,1-.547-.548V21.863a.548.548,0,0,1,.547-.548H17.55a.548.548,0,0,1,.547.548V27.2a.548.548,0,0,1-.547.548H10.981ZM26.512,43.465a.548.548,0,0,1-.548.547H22.6a.548.548,0,0,1-.547-.547V40.908a.548.548,0,0,1,.547-.548h3.365a.548.548,0,0,1,.548.548Z" transform="translate(0 -19.664)" fill="#00ae8d"/>
    </g>
  </g>
</svg>
