<svg xmlns="http://www.w3.org/2000/svg" width="26.254" height="26.25" viewBox="0 0 26.254 26.25">
  <g id="planning" transform="translate(0.125 0.125)">
    <path id="Path_17229" data-name="Path 17229" d="M19.854,363.053c-.258.141-.52.286-.785.433-2.244,1.244-4.787,2.654-7.232,2.436l-8.657-.773-.034,0H.763v-4.284H3.146a.382.382,0,0,0,.246-.09,10.335,10.335,0,0,1,1.727-1.118.382.382,0,1,0-.352-.677A11.48,11.48,0,0,0,3.011,360.1H.382a.382.382,0,0,0-.382.382v5.047a.382.382,0,0,0,.382.382H3.129l8.64.771q.293.026.585.026c2.478,0,4.916-1.352,7.085-2.554.264-.146.524-.29.78-.43a.382.382,0,0,0-.365-.67Z" transform="translate(0 -340.708)" fill="#00ae8d" stroke="#00ae8d" stroke-width="0.25"/>
    <path id="Path_17230" data-name="Path 17230" d="M137.213,299.25a1.451,1.451,0,0,0-1.723-.468,1.318,1.318,0,0,0-1.93-1.085l-.908.478a1.307,1.307,0,0,0-1.928-1.081l-.678.368a1.349,1.349,0,0,0-1.973-1.134l-4.9,2.569a8.382,8.382,0,0,0-4.358-.4,8.126,8.126,0,0,0-1.084.283.382.382,0,1,0,.242.724,7.37,7.37,0,0,1,.981-.257,7.667,7.667,0,0,1,4.082.419.381.381,0,0,0,.156.034h5.1a.659.659,0,0,1,.082,1.312l-6.461.818a.382.382,0,0,0,0,.757l2.744.331a12.541,12.541,0,0,0,7.641-1.5l3.429-1.906a.691.691,0,0,1,.874.2.7.7,0,0,1-.222,1.032l-3.679,2a.382.382,0,0,0,.365.67l3.679-2a1.461,1.461,0,0,0,.466-2.162ZM128.426,297a.582.582,0,0,1,.743.172.591.591,0,0,1-.193.865l-1.649.894h-2.583Zm.347,2.016,2.314-1.255a.544.544,0,0,1,.725.2.55.55,0,0,1-.212.767l-2.007,1.058A1.428,1.428,0,0,0,128.773,299.019Zm3.156,1.731a11.776,11.776,0,0,1-6.837,1.445l3.378-.428a1.424,1.424,0,0,0,1.221-1.169l4.224-2.226a.557.557,0,0,1,.528.981Z" transform="translate(-111.507 -281.132)" fill="#00ae8d" stroke="#00ae8d" stroke-width="0.25"/>
    <path id="Path_17231" data-name="Path 17231" d="M121.3,96.8a2.847,2.847,0,0,0,1.232-.277.382.382,0,1,0-.328-.689,2.09,2.09,0,0,1-.9.2,2.108,2.108,0,1,1,1.848-1.092.382.382,0,1,0,.668.369A2.873,2.873,0,1,0,121.3,96.8Z" transform="translate(-112.415 -86.434)" fill="#00ae8d" stroke="#00ae8d" stroke-width="0.25"/>
    <path id="Path_17232" data-name="Path 17232" d="M45.584,8.631l.791.119A5.248,5.248,0,0,0,47,10.264l-.475.644a.753.753,0,0,0,.074.986l.544.545a.753.753,0,0,0,.986.074l.644-.475a5.247,5.247,0,0,0,1.514.628l.119.791a.753.753,0,0,0,.75.645h.77a.753.753,0,0,0,.75-.645l.119-.791a5.248,5.248,0,0,0,1.514-.628l.644.475a.753.753,0,0,0,.986-.074l.544-.544a.753.753,0,0,0,.074-.986l-.475-.644a5.246,5.246,0,0,0,.628-1.514l.791-.119a.753.753,0,0,0,.645-.75v0h2.265v4.864a.891.891,0,0,0,.89.89h1.63a1.743,1.743,0,1,0,0-.763H61.3a.127.127,0,0,1-.127-.127V7.878h1.757a1.743,1.743,0,1,0,0-.763H61.175V2.251a.127.127,0,0,1,.127-.127h1.63a1.743,1.743,0,1,0,0-.763H61.3a.891.891,0,0,0-.89.89V7.115H58.147v0a.753.753,0,0,0-.645-.75l-.791-.119a5.247,5.247,0,0,0-.628-1.514l.475-.644a.753.753,0,0,0-.074-.986l-.544-.545a.753.753,0,0,0-.986-.074l-.644.475A5.247,5.247,0,0,0,52.8,2.328l-.119-.791a.753.753,0,0,0-.75-.645h-.77a.753.753,0,0,0-.75.645l-.119.791a5.249,5.249,0,0,0-1.514.628l-.644-.475a.753.753,0,0,0-.986.074L46.6,3.1a.753.753,0,0,0-.074.986L47,4.729a5.247,5.247,0,0,0-.628,1.514l-.791.119a.753.753,0,0,0-.645.75v.77a.753.753,0,0,0,.645.75Zm19.048,3.64a.979.979,0,1,1-.979.979.981.981,0,0,1,.979-.979Zm0-5.754a.979.979,0,1,1-.979.979A.981.981,0,0,1,64.632,6.517Zm0-5.754a.979.979,0,1,1-.979.979.981.981,0,0,1,.979-.979ZM45.7,7.116l1.047-.157a.382.382,0,0,0,.318-.307,4.5,4.5,0,0,1,.713-1.722.382.382,0,0,0-.008-.442l-.629-.852.538-.538.852.63a.382.382,0,0,0,.442.008A4.5,4.5,0,0,1,50.7,3.021a.382.382,0,0,0,.307-.318l.157-1.047h.761L52.081,2.7a.382.382,0,0,0,.307.318,4.5,4.5,0,0,1,1.722.714.382.382,0,0,0,.442-.008L55.4,3.1l.538.538-.629.852a.382.382,0,0,0-.008.442,4.5,4.5,0,0,1,.714,1.722.382.382,0,0,0,.318.307l1.047.157v.761l-1.047.157a.382.382,0,0,0-.318.307,4.5,4.5,0,0,1-.714,1.722.382.382,0,0,0,.008.442l.63.852L55.4,11.9l-.852-.63a.382.382,0,0,0-.442-.008,4.5,4.5,0,0,1-1.722.714.382.382,0,0,0-.307.318l-.157,1.047h-.761l-.157-1.047a.382.382,0,0,0-.307-.318,4.5,4.5,0,0,1-1.722-.714.382.382,0,0,0-.442.008l-.852.63-.538-.538.63-.852a.382.382,0,0,0,.008-.442,4.5,4.5,0,0,1-.713-1.722.382.382,0,0,0-.318-.307L45.7,7.877Z" transform="translate(-42.657)" fill="#00ae8d" stroke="#00ae8d" stroke-width="0.25"/>
  </g>
</svg>
