<svg xmlns="http://www.w3.org/2000/svg" width="26.33" height="26.3" viewBox="0 0 26.33 26.3">
  <path id="third-party" d="M19.349,33.614A4.511,4.511,0,0,0,15,29.789a4.511,4.511,0,0,0-4.353,3.825.837.837,0,0,0,.368.839,7.618,7.618,0,0,0,7.97,0A.838.838,0,0,0,19.349,33.614Zm.628-.092a1.471,1.471,0,0,1-.638,1.455A7.76,7.76,0,0,1,15,36.209a7.757,7.757,0,0,1-4.343-1.232,1.47,1.47,0,0,1-.638-1.455,5.124,5.124,0,0,1,4.976-4.367H15a5.126,5.126,0,0,1,4.977,4.367Zm-6.869-7.577A1.887,1.887,0,1,0,15,24.057,1.89,1.89,0,0,0,13.108,25.945Zm-.635,0A2.522,2.522,0,1,1,15,28.467,2.525,2.525,0,0,1,12.474,25.945Zm22.9,7.669a4.39,4.39,0,0,0-8.706,0,.838.838,0,0,0,.368.839,7.618,7.618,0,0,0,7.97,0A.837.837,0,0,0,35.375,33.614Zm-.01,1.363a8.272,8.272,0,0,1-8.686,0,1.471,1.471,0,0,1-.638-1.455,5.126,5.126,0,0,1,4.977-4.367h.009A5.124,5.124,0,0,1,36,33.522a1.47,1.47,0,0,1-.638,1.455Zm-4.343-10.92a1.887,1.887,0,1,0,1.887,1.887A1.889,1.889,0,0,0,31.023,24.057Zm0-.635A2.522,2.522,0,1,1,28.5,25.945a2.525,2.525,0,0,1,2.522-2.522ZM18.656,20.4a.838.838,0,0,0,.367.839,7.162,7.162,0,0,0,3.986,1.125,7.157,7.157,0,0,0,3.985-1.125.838.838,0,0,0,.367-.839,4.389,4.389,0,0,0-8.706,0ZM19.7,17.224A5.1,5.1,0,0,1,23,15.941h.009a5.125,5.125,0,0,1,4.976,4.367,1.472,1.472,0,0,1-.638,1.455A7.759,7.759,0,0,1,23.009,23a7.759,7.759,0,0,1-4.344-1.232,1.472,1.472,0,0,1-.638-1.455A5.119,5.119,0,0,1,19.7,17.224Zm1.419-4.494a1.887,1.887,0,1,0,1.887-1.887A1.89,1.89,0,0,0,21.122,12.731Zm-.635,0a2.522,2.522,0,1,1,2.522,2.522,2.525,2.525,0,0,1-2.522-2.522Zm3.258,14.827a.737.737,0,1,0-.737.737A.738.738,0,0,0,23.746,27.558Zm.635,0a1.371,1.371,0,1,1-1.371-1.371A1.373,1.373,0,0,1,24.381,27.558Zm1.057-.259a2.5,2.5,0,0,1,0,.5l-.385.036a.587.587,0,0,0-.395.963l.249.3a2.456,2.456,0,0,1-.351.354l-.3-.247a.587.587,0,0,0-.96.4l-.033.385a2.5,2.5,0,0,1-.5,0l-.035-.385a.587.587,0,0,0-.963-.395l-.3.249a2.483,2.483,0,0,1-.354-.351l.247-.3a.587.587,0,0,0-.4-.96l-.385-.033a2.491,2.491,0,0,1,0-.5l.385-.036a.587.587,0,0,0,.395-.963l-.249-.3a2.441,2.441,0,0,1,.351-.354l.3.247a.587.587,0,0,0,.96-.4l.033-.385a2.5,2.5,0,0,1,.5,0l.035.385a.587.587,0,0,0,.963.395l.3-.249a2.439,2.439,0,0,1,.354.351l-.246.3a.587.587,0,0,0,.4.96Zm.075,1.13a.612.612,0,0,0,.557-.551,3.127,3.127,0,0,0,0-.663.612.612,0,0,0-.561-.547l-.309-.026.2-.238a.611.611,0,0,0,0-.783,3.083,3.083,0,0,0-.472-.468.61.61,0,0,0-.783.011l-.236.2-.029-.308a.612.612,0,0,0-.551-.557h0a3.12,3.12,0,0,0-.663,0,.619.619,0,0,0-.547.561l-.026.309-.238-.2a.612.612,0,0,0-.783,0,3.056,3.056,0,0,0-.467.472.61.61,0,0,0,.011.783l.2.236-.308.029a.618.618,0,0,0-.557.551,3.084,3.084,0,0,0,0,.664.619.619,0,0,0,.561.547l.309.026-.2.238a.618.618,0,0,0,0,.783,3.1,3.1,0,0,0,.471.468.611.611,0,0,0,.783-.011l.236-.2.029.308a.611.611,0,0,0,.551.556,3.081,3.081,0,0,0,.664,0,.619.619,0,0,0,.547-.561l.026-.309.238.2a.611.611,0,0,0,.783,0,3.073,3.073,0,0,0,.468-.472.611.611,0,0,0-.01-.783l-.2-.236Zm-.545,3.751H21.051a.317.317,0,1,0,0,.635h3.917a.317.317,0,1,0,0-.635ZM15,22.471a.317.317,0,0,1-.317-.317v-6.9a1.906,1.906,0,0,1,1.9-1.9h2.752a.317.317,0,1,1,0,.635H16.582a1.271,1.271,0,0,0-1.269,1.269v6.9a.317.317,0,0,1-.317.317Zm11.371-8.8a.317.317,0,0,1,.317-.317h2.752a1.906,1.906,0,0,1,1.9,1.9v6.9a.317.317,0,0,1-.635,0v-6.9a1.271,1.271,0,0,0-1.269-1.269H26.684A.317.317,0,0,1,26.367,13.667Z" transform="translate(-9.844 -10.059)" fill="#00ae8d" stroke="#00ae8d" stroke-width="0.3" fill-rule="evenodd"/>
</svg>
