<svg xmlns="http://www.w3.org/2000/svg" width="26.278" height="26.256" viewBox="0 0 26.278 26.256">
  <g id="insurance" transform="translate(-0.979 -1)">
    <path id="Path_17233" data-name="Path 17233" d="M40.145,20.358c-.051-4.893.239-2.942-2.209-7.177a1.546,1.546,0,0,0-2.857.812c0,.411.039.32.942,3v1.3c-1.978-.605-2.208,1.861-4.244,3.531-2.234,1.83-.343,3.231-1.1,6.8h-.14a1.1,1.1,0,0,0-1.094,1.094V31.35a1.1,1.1,0,0,0,1.094,1.094h5.928a1.1,1.1,0,0,0,1.094-1.094V29.718a1.1,1.1,0,0,0-.887-1.073,4.591,4.591,0,0,1,1.549-3.209c1.826-2.04,1.968-.905,1.926-5.078ZM30.534,31.35V29.718h5.928V31.35Zm6.891-6.667a5.641,5.641,0,0,0-1.855,3.941H31.8c.713-3.669-.953-4.623.674-5.958a12.3,12.3,0,0,0,2.111-2.505c.457-.68.609-.853.941-.853a.634.634,0,0,1,.56.343c.5,1.01-3.208,3.564-2.017,4.333a.547.547,0,0,0,.756-.163c1.547-2.4,2.874-3.168,2.294-4.54-.012-3.076.209-1.921-.737-4.615-.2-.583-.2-.586-.2-.673A.452.452,0,0,1,37,13.741c2.383,4.125,2.007,2.007,2.055,6.628.037,3.613.08,2.4-1.625,4.314Z" transform="translate(-12.893 -5.188)" fill="#00ae8d"/>
    <path id="Path_17234" data-name="Path 17234" d="M4.433,28.639a1.1,1.1,0,0,0-.883,1.073v1.632a1.1,1.1,0,0,0,1.094,1.094h5.928a1.1,1.1,0,0,0,1.094-1.094V29.712a1.1,1.1,0,0,0-1.094-1.094h-.14c-.681-3.236.6-4.151-.263-5.788l0,0a3.358,3.358,0,0,0-1.037-1.179,24.711,24.711,0,0,1-2.145-2.736,1.724,1.724,0,0,0-1.9-.634V16.988c.275-1.371,1.9-3.5.068-4.383a1.5,1.5,0,0,0-1.991.583C1.755,15.627.98,16.2.98,17.615v5.1c0,1.949,3.315,2.676,3.454,5.923Zm6.14,2.7H4.644V29.712h5.928Zm-8.5-13.729c0-1.009.7-1.557,2.03-3.867a.451.451,0,0,1,.807.388c-1.108,3.26-.942,2.044-.917,5.139-.583,1.376.745,2.139,2.293,4.54a.547.547,0,0,0,.92-.593C5.7,20.889,4.7,20.316,5.026,19.646a.633.633,0,0,1,.515-.341c.425-.03.565.262.9.733A13.794,13.794,0,0,0,8.517,22.56c1.688,1.141.139,2.631.8,6.058H5.537c-.133-3.578-3.463-4.781-3.463-5.9Z" transform="translate(0 -5.182)" fill="#00ae8d"/>
    <path id="Path_17235" data-name="Path 17235" d="M24.591,12.9l-2.162,2.158-.846-.844a.547.547,0,1,0-.772.775l1.232,1.229a.547.547,0,0,0,.772,0l2.548-2.543a.547.547,0,1,0-.772-.775Z" transform="translate(-8.911 -5.316)" fill="#00ae8d"/>
    <path id="Path_17236" data-name="Path 17236" d="M25.8,1l-.014,0a.543.543,0,0,0-.47.153,4.7,4.7,0,0,1-6.621,0,.59.59,0,0,0-.793,0,4.818,4.818,0,0,1-6.79,0A.594.594,0,0,0,10.709,1a.547.547,0,0,0-.543.479c-.744,5.91,2.562,14.494,7.938,16.7a.546.546,0,0,0,.418,0c5.358-2.227,8.641-10.807,7.89-16.7A.549.549,0,0,0,25.8,1Zm-7.49,16.075c-4.449-2.01-7.358-9.174-7.142-14.458A5.922,5.922,0,0,0,18.3,2.278a5.8,5.8,0,0,0,7.105.239c.267,5.281-2.633,12.524-7.095,14.562Z" transform="translate(-4.114 0)" fill="#00ae8d"/>
  </g>
</svg>
