<svg xmlns="http://www.w3.org/2000/svg" width="31.75" height="33.818" viewBox="0 0 31.75 33.818">
  <path id="office" d="M45.573,9.291H39.617V1.614A1.626,1.626,0,0,0,37.993-.01H25.037a1.627,1.627,0,0,0-1.626,1.624V9.291H17.457a1.819,1.819,0,0,0-1.817,1.817V27.625a.529.529,0,0,0,.529.529H28.1c.283.445.583.883.888,1.31-1.6.389-2.565,1.135-2.565,2.032,0,1.518,2.563,2.313,5.095,2.313s5.095-.795,5.095-2.313c0-.907-.936-1.639-2.544-2.028.306-.427.606-.866.888-1.314H46.861a.529.529,0,0,0,.529-.529V11.108a1.819,1.819,0,0,0-1.817-1.817ZM16.7,11.108a.76.76,0,0,1,.759-.759h5.955V27.1H16.7Zm17.525,16.22c-.01.015-.02.03-.028.046-.579.945-1.268,1.87-1.911,2.732q-.229.307-.446.6a.364.364,0,0,1-.314.16A.375.375,0,0,1,31.2,30.7c-.165-.227-.337-.459-.511-.694-.631-.855-1.286-1.742-1.839-2.634a.6.6,0,0,0-.034-.055c-1.362-2.219-2.075-4.471-.2-6.347a4.1,4.1,0,0,1,5.792,0C36.278,22.836,35.556,25.134,34.223,27.327Zm1.33,4.167c0,.426-1.425,1.256-4.037,1.256s-4.037-.83-4.037-1.256c0-.3.758-.831,2.188-1.1l.178.24c.172.234.342.463.507.69a1.448,1.448,0,0,0,2.339,0c.143-.194.291-.393.443-.6l.25-.336c1.419.265,2.171.789,2.171,1.091Zm-.389-11.268a5.159,5.159,0,0,0-7.288,0A4.805,4.805,0,0,0,26.8,25.608a10.7,10.7,0,0,0,.672,1.487h-3V1.614a.568.568,0,0,1,.568-.566H37.993a.567.567,0,0,1,.566.566V27.1H35.572a10.872,10.872,0,0,0,.627-1.388,4.856,4.856,0,0,0-1.035-5.482ZM46.333,27.1H39.617V10.349h5.956a.76.76,0,0,1,.759.759V27.1ZM31.515,20.313a3.174,3.174,0,1,0,3.174,3.174A3.178,3.178,0,0,0,31.515,20.313Zm0,5.291a2.117,2.117,0,1,1,2.117-2.117A2.119,2.119,0,0,1,31.515,25.6ZM28.328,3.111h-1.7a.859.859,0,0,0-.859.859v1.7a.859.859,0,0,0,.859.859h1.7a.859.859,0,0,0,.859-.859v-1.7a.859.859,0,0,0-.859-.859Zm-.2,2.361h-1.3v-1.3h1.3Zm4.236-2.361h-1.7a.859.859,0,0,0-.859.859v1.7a.859.859,0,0,0,.859.859h1.7a.859.859,0,0,0,.859-.859v-1.7a.859.859,0,0,0-.859-.859Zm-.2,2.361h-1.3v-1.3h1.3ZM34.7,6.529h1.7a.859.859,0,0,0,.859-.859v-1.7a.859.859,0,0,0-.859-.859H34.7a.859.859,0,0,0-.859.859v1.7A.859.859,0,0,0,34.7,6.529Zm.2-2.361H36.2v1.3H34.9ZM28.328,7.439h-1.7a.859.859,0,0,0-.859.859V10a.859.859,0,0,0,.859.859h1.7A.859.859,0,0,0,29.187,10V8.3A.859.859,0,0,0,28.328,7.439Zm-.2,2.362h-1.3V8.5h1.3Zm4.236-2.362h-1.7A.859.859,0,0,0,29.8,8.3V10a.859.859,0,0,0,.859.859h1.7A.859.859,0,0,0,33.224,10V8.3a.859.859,0,0,0-.859-.859Zm-.2,2.362h-1.3V8.5h1.3ZM34.7,10.86h1.7A.859.859,0,0,0,37.262,10V8.3a.859.859,0,0,0-.859-.859H34.7a.859.859,0,0,0-.859.859V10A.859.859,0,0,0,34.7,10.86ZM34.9,8.5H36.2V9.8H34.9Zm-6.571,3.273h-1.7a.859.859,0,0,0-.859.859v1.7a.859.859,0,0,0,.859.859h1.7a.859.859,0,0,0,.859-.859v-1.7A.859.859,0,0,0,28.328,11.769Zm-.2,2.361h-1.3v-1.3h1.3Zm4.236-2.361h-1.7a.859.859,0,0,0-.859.859v1.7a.859.859,0,0,0,.859.859h1.7a.859.859,0,0,0,.859-.859v-1.7A.859.859,0,0,0,32.365,11.769Zm-.2,2.361h-1.3v-1.3h1.3Zm5.1.2v-1.7a.859.859,0,0,0-.859-.859H34.7a.859.859,0,0,0-.859.859v1.7a.859.859,0,0,0,.859.859h1.7A.859.859,0,0,0,37.262,14.33Zm-1.058-.2H34.9v-1.3H36.2Zm7.623-1.943h-1.7a.859.859,0,0,0-.859.859v1.7a.859.859,0,0,0,.859.859h1.7a.859.859,0,0,0,.859-.859v-1.7A.86.86,0,0,0,43.827,12.187Zm-.2,2.361H42.322v-1.3h1.305ZM20.905,12.187H19.2a.859.859,0,0,0-.859.859v1.7a.859.859,0,0,0,.859.859h1.7a.859.859,0,0,0,.859-.859v-1.7A.859.859,0,0,0,20.905,12.187Zm-.2,2.361H19.4v-1.3h1.3Z" transform="translate(-15.64 0.01)" fill="#ff5100"/>
</svg>
