<svg xmlns="http://www.w3.org/2000/svg" width="20.8" height="26" viewBox="0 0 20.8 26">
  <g id="document" transform="translate(-4 -2)">
    <path id="Path_17238" data-name="Path 17238" d="M24.423,9.423,17.377,2.377A1.287,1.287,0,0,0,16.454,2H7.9A3.9,3.9,0,0,0,4,5.9V24.1A3.9,3.9,0,0,0,7.9,28h13a3.9,3.9,0,0,0,3.9-3.9V10.333a1.343,1.343,0,0,0-.377-.923ZM17,4.756,22.044,9.8H18.3A1.3,1.3,0,0,1,17,8.5ZM22.85,24.1a1.947,1.947,0,0,1-1.95,1.95H7.9A1.947,1.947,0,0,1,5.95,24.1V5.9A1.947,1.947,0,0,1,7.9,3.95h7.15V8.5a3.251,3.251,0,0,0,3.25,3.25h4.55Z" transform="translate(0)" fill="#00ae8d"/>
    <g id="Group_30316" data-name="Group 30316" transform="translate(9.407 13.932)">
      <path id="Path_17239" data-name="Path 17239" d="M11.941,19.826a1.348,1.348,0,0,1-.963-.4,1.371,1.371,0,0,1,0-1.926l4.852-4.852a1.362,1.362,0,0,1,1.926,1.926L12.9,19.426a1.348,1.348,0,0,1-.963.4Z" transform="translate(-8.166 -12.253)" fill="#00ae8d"/>
      <path id="Path_17240" data-name="Path 17240" d="M13.028,18.731a1.348,1.348,0,0,1-.963-.4L9.648,15.914a1.362,1.362,0,1,1,1.926-1.926L13.991,16.4a1.371,1.371,0,0,1,0,1.926,1.348,1.348,0,0,1-.963.4Z" transform="translate(-9.253 -11.157)" fill="#00ae8d"/>
    </g>
  </g>
</svg>
