<svg id="_13-Unlock" data-name="13-Unlock" xmlns="http://www.w3.org/2000/svg" width="14.906" height="20.868" viewBox="0 0 14.906 20.868">
  <path id="Path_602" data-name="Path 602" d="M18.67,9.453H9.726V7a3.51,3.51,0,0,1,3.51-3.51h.432A3.51,3.51,0,0,1,17.179,7,.745.745,0,0,0,18.67,7a5.008,5.008,0,0,0-5-5h-.432a5.008,5.008,0,0,0-5,5V9.453A2.236,2.236,0,0,0,6,11.689V18.62a4.256,4.256,0,0,0,4.248,4.248h6.409a4.256,4.256,0,0,0,4.248-4.248V11.689A2.236,2.236,0,0,0,18.67,9.453Zm.745,9.167a2.758,2.758,0,0,1-2.758,2.758H10.248A2.758,2.758,0,0,1,7.491,18.62V11.689a.745.745,0,0,1,.745-.745H18.67a.745.745,0,0,1,.745.745ZM14.2,15.952V18.4a.745.745,0,0,1-1.491,0V15.952a1.491,1.491,0,1,1,1.491,0Z" transform="translate(-6 -2)" fill="#fff"/>
</svg>
