<svg id="Layer_1" data-name="Layer 1" xmlns="http://www.w3.org/2000/svg" width="32.643" height="32.632" viewBox="0 0 32.643 32.632">
  <path id="Path_593" data-name="Path 593" d="M31.893,13.346a.734.734,0,0,0,.74-.74V9.637a.711.711,0,0,0-.381-.631h0L16.687.1h0a.8.8,0,0,0-.359-.1.7.7,0,0,0-.359.109h0L.371,9h0a.779.779,0,0,0-.381.642v2.969a.74.74,0,0,0,.74.74H2.97V26.693h-.74a.738.738,0,0,0-.7.511h0l-1.5,4.449h0a.849.849,0,0,0-.044.239.74.74,0,0,0,.74.74H31.893a.734.734,0,0,0,.74-.74.774.774,0,0,0-.044-.228h0L31.11,27.215h0a.738.738,0,0,0-.7-.511h-.74V13.346H31.9ZM16.317,1.6,29.1,8.908H3.536ZM29.87,28.183l.99,2.969H1.774l.99-2.969ZM4.45,13.346H7.419V26.693H4.45Zm4.449,0h2.969V26.693H8.9Zm4.449,0h5.939V26.693H13.347V13.346Zm7.418,0h2.969V26.693H20.766Zm4.449,0h2.969V26.693H25.214ZM1.48,10.388H31.153v1.479H1.48Z" transform="translate(0.01 0)" fill="#ff5100" fill-rule="evenodd"/>
</svg>
