<svg xmlns="http://www.w3.org/2000/svg" width="35" height="28.634" viewBox="0 0 35 28.634">
  <g id="Layer_1" data-name="Layer 1" transform="translate(0)">
    <path id="Path_597" data-name="Path 597" d="M8.752,11.139h1.594a.792.792,0,0,0,0-1.584H8.752a.792.792,0,0,0,0,1.584m24.654-7.96H23.861A3.177,3.177,0,0,0,20.683,0H14.317a3.177,3.177,0,0,0-3.178,3.178H1.594A1.6,1.6,0,0,0,0,4.772V27.04a1.6,1.6,0,0,0,1.594,1.594H33.406A1.6,1.6,0,0,0,35,27.04V4.772a1.6,1.6,0,0,0-1.594-1.594M14.317,1.594h6.366a1.589,1.589,0,0,1,1.584,1.594H12.723a1.6,1.6,0,0,1,1.594-1.594M4.772,22.268a.792.792,0,0,0,0,1.584V27.03H1.594V4.772H4.772Zm23.861,0a.792.792,0,0,0,0,1.584V27.03H6.366V23.852a.792.792,0,0,0,0-1.584V4.772H28.634Zm4.772,4.772H30.228V23.861a.792.792,0,0,0,0-1.584V4.772h3.178ZM8.752,7.951h4.772a.792.792,0,0,0,0-1.584H8.752a.792.792,0,0,0,0,1.584" transform="translate(0)" fill="#fff" fill-rule="evenodd"/>
  </g>
</svg>
