<svg id="Group_30095" data-name="Group 30095" xmlns="http://www.w3.org/2000/svg" width="23.342" height="23.341" viewBox="0 0 23.342 23.341">
  <path id="Path_470" data-name="Path 470" d="M1.778,2.556h2.5l2.75,11.691a2.328,2.328,0,0,0,.2,4.648H20.451a.778.778,0,1,0,0-1.556H7.224a.778.778,0,1,1,0-1.556H20.359a2.326,2.326,0,0,0,2.272-1.8l1.649-7a2.334,2.334,0,0,0-2.273-2.869H6.239L5.648,1.6A.778.778,0,0,0,4.89,1H1.778a.778.778,0,1,0,0,1.556ZM22.007,5.668a.79.79,0,0,1,.758.956l-1.649,7a.773.773,0,0,1-.756.6H8.619L6.6,5.668Z" transform="translate(-1 -1)" fill="#00ae8d"/>
  <path id="Path_471" data-name="Path 471" d="M20,27.334A2.334,2.334,0,1,0,22.334,25,2.334,2.334,0,0,0,20,27.334Zm3.112,0a.778.778,0,1,1-.778-.778A.778.778,0,0,1,23.112,27.334Z" transform="translate(-5.217 -6.327)" fill="#00ae8d"/>
  <path id="Path_472" data-name="Path 472" d="M9,27.334A2.334,2.334,0,1,0,11.334,25,2.334,2.334,0,0,0,9,27.334Zm3.112,0a.778.778,0,1,1-.778-.778A.778.778,0,0,1,12.112,27.334Z" transform="translate(-2.776 -6.327)" fill="#00ae8d"/>
</svg>
