<svg xmlns="http://www.w3.org/2000/svg" width="35" height="25.455" viewBox="0 0 35 25.455">
  <g id="Layer_1" data-name="Layer 1" transform="translate(0)">
    <path id="Path_598" data-name="Path 598" d="M10.564,2.961H5.278A1.5,1.5,0,0,0,3.954,4.59V11.1a1.5,1.5,0,0,0,1.324,1.629h5.295A1.5,1.5,0,0,0,11.9,11.1V4.59a1.5,1.5,0,0,0-1.324-1.629M1.6,25.455H33.4a1.593,1.593,0,0,0,1.6-1.6V1.6A1.6,1.6,0,0,0,33.4,0H1.6A1.593,1.593,0,0,0,0,1.6V23.859a1.6,1.6,0,0,0,1.6,1.6M1.6,1.6H33.4V14.322H1.6Zm0,19.091H33.4v3.182H1.6ZM29.434,7.95H15.112a.8.8,0,1,0,0,1.6H29.434a.8.8,0,0,0,0-1.6m0-3.182H18.293a.8.8,0,0,0,0,1.6H29.434a.8.8,0,0,0,0-1.6" transform="translate(0)" fill="#585857" fill-rule="evenodd"/>
  </g>
</svg>
