<svg xmlns="http://www.w3.org/2000/svg" width="26.955" height="24.168" viewBox="0 0 26.955 24.168">
  <g id="costumer" transform="translate(0.153 -3.2)">
    <path id="Path_685" data-name="Path 685" d="M26.386,19.1a1.779,1.779,0,0,0-2.232-.671l-.383.175c.012-.437,0-.745,0-.754,0-.15-.029-3.657-2.657-4.448A15.533,15.533,0,0,1,18.1,12a5.028,5.028,0,0,0,.925-1.832,2.6,2.6,0,0,0,.92-1.6,1.278,1.278,0,0,0-.5-1.491l.021-.516a3.006,3.006,0,0,0-.812-2.245,3.267,3.267,0,0,0-2.4-.975H15.67a3.267,3.267,0,0,0-2.4.975,2.948,2.948,0,0,0-.816,2.236l.021.521a1.293,1.293,0,0,0-.5,1.5,2.567,2.567,0,0,0,.916,1.6A5.028,5.028,0,0,0,13.817,12,15.3,15.3,0,0,1,10.8,13.4c-2.037.612-2.511,2.911-2.62,3.923H6.071v-.708a.4.4,0,0,0-.4-.4H1.11a.4.4,0,0,0-.4.375L0,25.893a.394.394,0,0,0,.108.3.4.4,0,0,0,.3.129H5.667a.4.4,0,0,0,.4-.4v-.741H7.882a1.165,1.165,0,0,1,.412.075l4.9,1.77a3.234,3.234,0,0,0,1.1.192,3.156,3.156,0,0,0,1.512-.379L25.711,21.6a1.759,1.759,0,0,0,.941-1.566,1.788,1.788,0,0,0-.267-.941ZM13.317,9.485a1.786,1.786,0,0,1-.55-1.062c-.029-.142-.1-.612.154-.658.017,0,.05-.008.067-.012a.407.407,0,0,0,.3-.4l-.029-.816a2.191,2.191,0,0,1,.587-1.653,2.472,2.472,0,0,1,1.816-.725h.587a2.472,2.472,0,0,1,1.816.725,2.195,2.195,0,0,1,.587,1.658l-.029.812a.407.407,0,0,0,.3.408c.008,0,.042.008.05.008.262.05.2.516.167.662a1.832,1.832,0,0,1-.541,1.058.4.4,0,0,0-.321.3c-.371,1.524-1.308,2.549-2.332,2.549S14,11.309,13.621,9.784a.377.377,0,0,0-.3-.3ZM11.035,14.17a16.842,16.842,0,0,0,3.382-1.583,2.56,2.56,0,0,0,1.537.55,2.515,2.515,0,0,0,1.537-.55,17.256,17.256,0,0,0,3.386,1.583c2.053.621,2.082,3.644,2.082,3.69,0,0,.017.5-.021,1.116l-2.116.966V17.318a.4.4,0,0,0-.808,0v2.99l-1.537.7a1.032,1.032,0,0,0,.012-.112,1.553,1.553,0,0,0-1.553-1.549H13.221a1.257,1.257,0,0,1-.571-.142l-.745-.391v-1.5a.4.4,0,0,0-.808,0v1.066l-1.583-.833a2,2,0,0,0-.529-.187c.1-.87.5-2.724,2.049-3.194ZM5.263,25.523H.84l.646-8.5H5.263Zm20.074-4.631-9.912,5.235a2.423,2.423,0,0,1-1.962.137l-4.893-1.77a2.041,2.041,0,0,0-.687-.121H6.071V18.126h2.5a1.227,1.227,0,0,1,.566.142l3.14,1.653a2.079,2.079,0,0,0,.941.229h3.715a.744.744,0,0,1,.745.741.755.755,0,0,1-.217.529.87.87,0,0,1-.167.125l-.046.021a.758.758,0,0,1-.312.071H12.151a1.415,1.415,0,0,0-1.416,1.416.4.4,0,1,0,.808,0,.611.611,0,0,1,.608-.608H16.94a1.522,1.522,0,0,0,.646-.146l5.9-2.686h0l1-.458a.966.966,0,0,1,1.216.366.953.953,0,0,1,.146.512.993.993,0,0,1-.516.858Z" fill="#00ae8d" stroke="#00ae8d" stroke-width="0.3"/>
  </g>
</svg>
