<svg xmlns="http://www.w3.org/2000/svg" width="24.329" height="25.412" viewBox="0 0 24.329 25.412">
  <g id="file" transform="translate(-10.867 0.125)">
    <path id="Path_663" data-name="Path 663" d="M24.825,24.423H13.374a1.644,1.644,0,0,1-1.642-1.642V21.739h3.026a.37.37,0,1,0,0-.739H13.224V.819A.079.079,0,0,1,13.3.739H28.291a.37.37,0,1,0,0-.739H13.3a.82.82,0,0,0-.819.819V21h-.861a.632.632,0,0,0-.632.632v1.15a2.384,2.384,0,0,0,2.382,2.382H24.825a.37.37,0,0,0,0-.739Z" fill="#00ae8d" stroke="#00ae8d" stroke-width="0.25"/>
    <path id="Path_664" data-name="Path 664" d="M120.706,426h-8.492a.37.37,0,1,0,0,.739h8.492a.37.37,0,1,0,0-.739Z" transform="translate(-95.881 -405.005)" fill="#00ae8d" stroke="#00ae8d" stroke-width="0.25"/>
    <path id="Path_665" data-name="Path 665" d="M386.761.739h1.9a.079.079,0,0,1,.079.079v9.434a.37.37,0,0,0,.739,0V.819A.82.82,0,0,0,388.661,0h-1.9a.37.37,0,1,0,0,.739Z" transform="translate(-356.894 0)" fill="#00ae8d" stroke="#00ae8d" stroke-width="0.25"/>
    <path id="Path_666" data-name="Path 666" d="M321.822,232.266v-.906h.1a.9.9,0,0,0,.894-.894v-1.219a.9.9,0,0,0-.894-.894h-4.741a.37.37,0,1,0,0,.739h4.741a.154.154,0,0,1,.154.154v1.219a.154.154,0,0,1-.154.154h-7.372a.154.154,0,0,1-.154-.154v-1.219a.154.154,0,0,1,.154-.154H315.6a.37.37,0,0,0,0-.739h-1.056a.9.9,0,0,0-.894.894v1.219a.9.9,0,0,0,.894.894h.1v.906a3.608,3.608,0,0,0,1.684,3.041,3.608,3.608,0,0,0-1.684,3.041v.906h-.1a.9.9,0,0,0-.894.894v1.219a.9.9,0,0,0,.894.894h7.372a.9.9,0,0,0,.894-.894v-1.219a.9.9,0,0,0-.894-.894h-.1v-.906a3.565,3.565,0,0,0-1.684-3.041A3.565,3.565,0,0,0,321.822,232.266Zm-.739-.906v.886h-5.7v-.886Zm-4.306,4.539a.692.692,0,0,0,.215-.2l.849.5v1.054a4.654,4.654,0,0,0-1.5.372l-.934.407A2.867,2.867,0,0,1,316.777,235.9Zm5.3,4.248v1.219a.154.154,0,0,1-.154.154h-7.372a.154.154,0,0,1-.154-.154v-1.219a.154.154,0,0,1,.154-.154h7.372A.155.155,0,0,1,322.074,240.147Zm-6.689-.894v-.406l1.248-.544a3.942,3.942,0,0,1,3.076-.025l1.374.573v.4h-5.7Zm5.682-1.209-1.074-.447a4.649,4.649,0,0,0-1.412-.341v-1.1l.9-.483a.72.72,0,0,0,.244.247A2.829,2.829,0,0,1,321.067,238.044ZM319.72,234.7l-1.551.839-1.391-.82h0a2.868,2.868,0,0,1-1.3-1.728h5.513A2.832,2.832,0,0,1,319.72,234.7Z" transform="translate(-287.743 -217.098)" fill="#00ae8d" stroke="#00ae8d" stroke-width="0.25"/>
    <path id="Path_667" data-name="Path 667" d="M96.233,61.159H97.1a.37.37,0,1,0,0-.739h-.871a.37.37,0,1,0,0,.739Z" transform="translate(-80.687 -57.442)" fill="#00ae8d" stroke="#00ae8d" stroke-width="0.25"/>
    <path id="Path_668" data-name="Path 668" d="M159.406,60.42H147.928a.37.37,0,1,0,0,.739h11.478a.37.37,0,1,0,0-.739Z" transform="translate(-129.834 -57.442)" fill="#00ae8d" stroke="#00ae8d" stroke-width="0.25"/>
    <path id="Path_669" data-name="Path 669" d="M110.259,115.06H96.233a.37.37,0,0,0,0,.739h14.026a.37.37,0,0,0,0-.739Z" transform="translate(-80.687 -109.388)" fill="#00ae8d" stroke="#00ae8d" stroke-width="0.25"/>
    <path id="Path_670" data-name="Path 670" d="M110.629,170.07a.37.37,0,0,0-.37-.37H96.233a.37.37,0,1,0,0,.739h14.026A.37.37,0,0,0,110.629,170.07Z" transform="translate(-80.687 -161.335)" fill="#00ae8d" stroke="#00ae8d" stroke-width="0.25"/>
    <path id="Path_671" data-name="Path 671" d="M104.971,224.34H96.233a.37.37,0,1,0,0,.739h8.738a.37.37,0,1,0,0-.739Z" transform="translate(-80.687 -213.282)" fill="#00ae8d" stroke="#00ae8d" stroke-width="0.25"/>
    <path id="Path_672" data-name="Path 672" d="M104.971,278.979H96.233a.37.37,0,0,0,0,.739h8.738a.37.37,0,0,0,0-.739Z" transform="translate(-80.687 -265.227)" fill="#00ae8d" stroke="#00ae8d" stroke-width="0.25"/>
    <path id="Path_673" data-name="Path 673" d="M104.971,333.619H96.233a.37.37,0,0,0,0,.739h8.738a.37.37,0,0,0,0-.739Z" transform="translate(-80.687 -317.174)" fill="#00ae8d" stroke="#00ae8d" stroke-width="0.25"/>
  </g>
</svg>
