<svg id="Group_1171" data-name="Group 1171" xmlns="http://www.w3.org/2000/svg" width="23.077" height="25" viewBox="0 0 23.077 25">
  <path id="Path_194" data-name="Path 194" d="M12.681,25A11.551,11.551,0,0,1,1.142,13.462V4.807A.961.961,0,0,1,2.1,3.846c5.369,0,9.93-3.6,9.976-3.635a.963.963,0,0,1,1.2,0c.045.035,4.628,3.635,9.977,3.635a.962.962,0,0,1,.961.961v8.654A11.552,11.552,0,0,1,12.681,25M3.065,5.737v7.725a9.616,9.616,0,0,0,19.231,0V5.737a20.1,20.1,0,0,1-9.616-3.581A20.1,20.1,0,0,1,3.065,5.737" transform="translate(-1.142 0)" fill="#00ae8d"/>
  <path id="Path_195" data-name="Path 195" d="M11.3,17.076a.923.923,0,0,1-.653-.27L6.951,13.113a.923.923,0,0,1,1.3-1.305l3.04,3.04L17.1,9.039a.923.923,0,0,1,1.305,1.305l-6.461,6.462A.923.923,0,0,1,11.3,17.076Z" transform="translate(-0.638 0.559)" fill="#00ae8d"/>
</svg>
