<svg xmlns="http://www.w3.org/2000/svg" width="24.899" height="23.341" viewBox="0 0 24.899 23.341">
  <g id="Group_30094" data-name="Group 30094" transform="translate(0 0)">
    <g id="Group_855" data-name="Group 855" transform="translate(0 0)">
      <path id="Path_466" data-name="Path 466" d="M58.772,206.748H42.237A2.24,2.24,0,0,1,40,204.511v-11.77a.778.778,0,1,1,1.556,0v11.77a.682.682,0,0,0,.681.681H58.772a.682.682,0,0,0,.681-.681v-11.77a.778.778,0,1,1,1.556,0v11.77A2.24,2.24,0,0,1,58.772,206.748Z" transform="translate(-38.055 -183.407)" fill="#00ae8d"/>
      <path id="Path_467" data-name="Path 467" d="M24.121,28.075a.775.775,0,0,1-.55-.228L13.894,18.17a2.045,2.045,0,0,0-2.888,0L1.329,27.847a.778.778,0,0,1-1.1-1.1l9.677-9.677a3.6,3.6,0,0,1,5.089,0l9.677,9.677a.778.778,0,0,1-.55,1.328Z" transform="translate(0 -16.017)" fill="#00ae8d"/>
      <path id="Path_468" data-name="Path 468" d="M183,298.1h-6.225a.778.778,0,0,1-.778-.778v-6.906a2.434,2.434,0,0,1,2.432-2.432h2.918a2.434,2.434,0,0,1,2.432,2.432v6.906A.778.778,0,0,1,183,298.1Zm-5.447-1.556h4.669v-6.128a.876.876,0,0,0-.875-.875h-2.918a.876.876,0,0,0-.875.875Z" transform="translate(-167.441 -274.757)" fill="#00ae8d"/>
    </g>
  </g>
</svg>
