<svg id="Group_854" data-name="Group 854" xmlns="http://www.w3.org/2000/svg" width="21.083" height="23.341" viewBox="0 0 21.083 23.341">
  <path id="Path_469" data-name="Path 469" d="M36.029,14.761V10.327a7.761,7.761,0,0,0-5.011-7.24,2.635,2.635,0,0,0,.053-.516,2.571,2.571,0,1,0-5.143,0,2.753,2.753,0,0,0,.049.5,7.523,7.523,0,0,0-5.007,7.093v4.6a.3.3,0,0,1-.3.3,2.7,2.7,0,0,0-2.7,2.379,2.636,2.636,0,0,0,2.624,2.891h4.54a3.386,3.386,0,0,0,6.731,0h4.54a2.636,2.636,0,0,0,2.624-2.891,2.7,2.7,0,0,0-2.7-2.379.3.3,0,0,1-.3-.3ZM28.5,1.506a1.067,1.067,0,0,1,1.065,1.065.92.92,0,0,1-.015.143,6.672,6.672,0,0,0-.776-.072,7.758,7.758,0,0,0-1.325.075.92.92,0,0,1-.015-.143A1.068,1.068,0,0,1,28.5,1.506Zm0,20.329a1.889,1.889,0,0,1-1.845-1.506h3.689A1.889,1.889,0,0,1,28.5,21.835Zm9.032-4.254a1.125,1.125,0,0,1-1.126,1.242H20.594a1.131,1.131,0,0,1-1.126-1.242,1.183,1.183,0,0,1,1.2-1.016,1.806,1.806,0,0,0,1.8-1.8v-4.6A6.026,6.026,0,0,1,28.5,4.141c.075,0,.147,0,.222,0a6.159,6.159,0,0,1,5.8,6.182v4.435a1.806,1.806,0,0,0,1.8,1.8A1.186,1.186,0,0,1,37.531,17.581Z" transform="translate(-17.958 0)" fill="#00ae8d"/>
</svg>
