<svg xmlns="http://www.w3.org/2000/svg" width="36.143" height="23" viewBox="0 0 36.143 23">
  <path id="Icon_material-people" data-name="Icon material-people" d="M26.143,17.357a4.929,4.929,0,1,0-4.929-4.929A4.908,4.908,0,0,0,26.143,17.357ZM13,17.357a4.929,4.929,0,1,0-4.929-4.929A4.908,4.908,0,0,0,13,17.357Zm0,3.286c-3.828,0-11.5,1.922-11.5,5.75V30.5h23V26.393C24.5,22.565,16.828,20.643,13,20.643Zm13.143,0c-.476,0-1.019.033-1.594.082a6.933,6.933,0,0,1,3.236,5.668V30.5h9.857V26.393C37.643,22.565,29.971,20.643,26.143,20.643Z" transform="translate(-1.5 -7.5)" fill="#585857"/>
</svg>
