<svg xmlns="http://www.w3.org/2000/svg" width="39.322" height="29.15" viewBox="0 0 39.322 29.15">
  <g id="handshake" transform="translate(0 -66.227)">
    <g id="Group_999" data-name="Group 999" transform="translate(0 66.227)">
      <g id="Group_998" data-name="Group 998" transform="translate(0 0)">
        <path id="Path_634" data-name="Path 634" d="M39.138,74.279l-7.626-7.626a.628.628,0,0,0-.888,0L26.81,70.466a.628.628,0,0,0,0,.888l.38.38-.874.874a1.963,1.963,0,0,1-2.191.385,5.424,5.424,0,0,0-4.837.18,4.233,4.233,0,0,0-2.458.131,1.955,1.955,0,0,1-2.074-.436l-1.57-1.57.187-.187a.628.628,0,0,0,0-.888L9.561,66.41a.628.628,0,0,0-.888,0L.184,74.9a.628.628,0,0,0,0,.888L4,79.6a.628.628,0,0,0,.888,0l.227-.227L6.22,80.48a1.92,1.92,0,0,1,.535,1.008,9.862,9.862,0,0,0,2.732,5.186l.209.209a2.259,2.259,0,0,0,1.64,3.814l.113,0A2.258,2.258,0,0,0,13.7,93.068h.05a2.259,2.259,0,0,0,3.856,1.648c.036-.036.07-.073.1-.111a2.113,2.113,0,0,0,2.665-1.232l.064.064a2.112,2.112,0,0,0,3.473-.759,2.111,2.111,0,0,0,3.353-1.708,2.13,2.13,0,0,0-.059-.5,2.112,2.112,0,0,0,1.3-3.291l.5-.5a9.859,9.859,0,0,0,2.744-5.251,1.7,1.7,0,0,1,.479-.9l1.874-1.874.329.329a.628.628,0,0,0,.888,0l3.813-3.813a.628.628,0,0,0,0-.888Zm-34.7,3.99L1.516,75.344l7.6-7.6,2.925,2.925Zm7.6,10.88a1,1,0,1,1,0-1.42A1.006,1.006,0,0,1,12.045,89.149Zm2.369,2.369a1,1,0,1,1,0-1.42A1,1,0,0,1,14.414,91.518Zm2.308,2.308a1,1,0,1,1,0-1.42A1,1,0,0,1,16.723,93.826ZM27.39,89.005a.854.854,0,0,1-1.209,0l-6.093-6.091a.628.628,0,0,0-.888.888l6.563,6.562a.855.855,0,1,1-1.21,1.21l-1.107-1.107-.019-.019-.006-.005-5.089-5.089a.628.628,0,0,0-.888.888l5.106,5.106a.855.855,0,0,1-1.218,1.2L15.8,87.011a.628.628,0,0,0-.888.888l4.1,4.1,0,0a.855.855,0,0,1-.605,1.459.871.871,0,0,1-.162-.016,2.259,2.259,0,0,0-2.234-2.595h-.05a2.258,2.258,0,0,0-2.258-2.31l-.113,0a2.257,2.257,0,0,0-2.766-2.313l-.45-.45A8.61,8.61,0,0,1,7.99,81.259a3.172,3.172,0,0,0-.882-1.666L6,78.485l6.3-6.3,1.57,1.57a3.2,3.2,0,0,0,2.266.926,3.292,3.292,0,0,0,1.125-.2,2.956,2.956,0,0,1,.549-.141L13.92,78.232a2.519,2.519,0,0,0,3.562,3.562l1.953-1.953.529.529h0l.022.022.021.021h0l.018.017L27.39,87.8a.856.856,0,0,1,0,1.21Zm3.956-9.369a2.945,2.945,0,0,0-.827,1.565,8.608,8.608,0,0,1-2.4,4.585l-.483.483L23.667,82.3c.086.006.173.011.26.011a3.2,3.2,0,0,0,1.224-.238.628.628,0,0,0-.476-1.162c-1.616.661-3.554-1.161-3.77-1.371l-.011-.01-.022-.022h0l-.019-.019h0l-.529-.529.6-.6a.628.628,0,1,0-.888-.888l-1.042,1.042h0l-2.4,2.4a1.263,1.263,0,1,1-1.786-1.786l4.136-4.136a4.165,4.165,0,0,1,4.662-.848,3.225,3.225,0,0,0,3.6-.64l.874-.874,5.14,5.14Zm3.536-1.988L28.143,70.91l2.925-2.925,6.738,6.738Z" transform="translate(0 -66.227)" fill="#ff5100"/>
      </g>
    </g>
    <g id="Group_1001" data-name="Group 1001" transform="translate(34.886 74.575)">
      <g id="Group_1000" data-name="Group 1000">
        <circle id="Ellipse_13" data-name="Ellipse 13" cx="0.628" cy="0.628" r="0.628" fill="#ff5100"/>
      </g>
    </g>
    <g id="Group_1003" data-name="Group 1003" transform="translate(3.486 75.196)">
      <g id="Group_1002" data-name="Group 1002">
        <circle id="Ellipse_14" data-name="Ellipse 14" cx="0.628" cy="0.628" r="0.628" fill="#ff5100"/>
      </g>
    </g>
  </g>
</svg>
