<svg id="search-interface-symbol" xmlns="http://www.w3.org/2000/svg" width="19.02" height="19.02" viewBox="0 0 19.02 19.02">
  <g id="_x34__4_" transform="translate(0)">
    <g id="Group_30092" data-name="Group 30092">
      <path id="Path_17097" data-name="Path 17097" d="M18.846,17.985l-4.911-4.832a7.767,7.767,0,0,0,2.076-5.278A7.94,7.94,0,0,0,8.008,0a7.939,7.939,0,0,0-8,7.875,7.939,7.939,0,0,0,8,7.875,8.048,8.048,0,0,0,5.037-1.759l4.93,4.851a.622.622,0,0,0,.87,0A.6.6,0,0,0,18.846,17.985ZM8.008,14.538A6.718,6.718,0,0,1,1.237,7.875,6.718,6.718,0,0,1,8.008,1.212a6.718,6.718,0,0,1,6.771,6.663A6.718,6.718,0,0,1,8.008,14.538Z" transform="translate(-0.006)" fill="#00ae8d"/>
    </g>
  </g>
</svg>
