<svg xmlns="http://www.w3.org/2000/svg" width="25" height="25" viewBox="0 0 25 25">
  <path id="tab" d="M5.983,12.5a.781.781,0,0,0,.781.781h4.954v4.954a.781.781,0,0,0,1.563,0V13.281h4.954a.781.781,0,0,0,0-1.562H13.281V6.764a.781.781,0,0,0-1.562,0v4.954H6.764A.781.781,0,0,0,5.983,12.5ZM0,4.4V20.6A4.408,4.408,0,0,0,4.4,25H20.6A4.408,4.408,0,0,0,25,20.6V4.4A4.408,4.408,0,0,0,20.6,0H4.4A4.408,4.408,0,0,0,0,4.4Zm1.563,0A2.844,2.844,0,0,1,4.4,1.562H20.6A2.844,2.844,0,0,1,23.438,4.4V20.6A2.844,2.844,0,0,1,20.6,23.437H4.4A2.844,2.844,0,0,1,1.563,20.6Z" fill="#00ae8d"/>
</svg>
