<svg xmlns="http://www.w3.org/2000/svg" width="12" height="15.324" viewBox="0 0 12 15.324">
  <path id="Upload_2" data-name="Upload 2" d="M12,10.827v4.287a.21.21,0,0,1-.21.21H.21a.21.21,0,0,1-.21-.21V10.827a.21.21,0,0,1,.21-.21H1.754a.21.21,0,0,1,.21.21v2.533h8.075V10.827a.21.21,0,0,1,.21-.21H11.79A.21.21,0,0,1,12,10.827ZM.807,5.613H3.469v6.45a.21.21,0,0,0,.21.21H8.321a.21.21,0,0,0,.21-.21V5.613h2.662a.21.21,0,0,0,.148-.358L6.149.061a.21.21,0,0,0-.3,0L.659,5.255a.21.21,0,0,0,.148.358Z" fill="#00ae8d"/>
</svg>
