<svg xmlns="http://www.w3.org/2000/svg" width="26.671" height="23.034" viewBox="0 0 26.671 23.034">
  <g id="briefcase" transform="translate(0 -34.909)">
    <g id="Group_972" data-name="Group 972" transform="translate(0.606 47.638)">
      <g id="Group_971" data-name="Group 971">
        <path id="Path_609" data-name="Path 609" d="M36.489,279.273a.573.573,0,0,0-.606.606v7.88a.573.573,0,0,1-.606.606H13.455a.573.573,0,0,1-.606-.606v-7.88a.606.606,0,1,0-1.212,0v7.88a1.786,1.786,0,0,0,1.818,1.818H35.277a1.786,1.786,0,0,0,1.818-1.818v-7.88A.573.573,0,0,0,36.489,279.273Z" transform="translate(-11.637 -279.273)" fill="#585858"/>
      </g>
    </g>
    <g id="Group_974" data-name="Group 974" transform="translate(0 39.152)">
      <g id="Group_973" data-name="Group 973" transform="translate(0 0)">
        <path id="Path_610" data-name="Path 610" d="M24.852,116.364H1.818A1.786,1.786,0,0,0,0,118.182v3.879a1.82,1.82,0,0,0,1.394,1.758l9.517,2.122v1.94a.573.573,0,0,0,.606.606h3.637a.573.573,0,0,0,.606-.606v-1.94l9.517-2.122a1.82,1.82,0,0,0,1.394-1.758v-3.879A1.786,1.786,0,0,0,24.852,116.364Zm-10.3,10.911H12.123V124.85h2.425Zm10.911-5.213a.59.59,0,0,1-.485.606l-9.214,2.061v-.485a.573.573,0,0,0-.606-.606H11.517a.573.573,0,0,0-.606.606v.485L1.7,122.668a.59.59,0,0,1-.485-.606v-3.879a.573.573,0,0,1,.606-.606H24.852a.573.573,0,0,1,.606.606Z" transform="translate(0 -116.364)" fill="#585858"/>
      </g>
    </g>
    <g id="Group_976" data-name="Group 976" transform="translate(8.486 34.909)">
      <g id="Group_975" data-name="Group 975" transform="translate(0 0)">
        <path id="Path_611" data-name="Path 611" d="M170.789,34.909h-6.062a1.786,1.786,0,0,0-1.818,1.818v.606a.606.606,0,0,0,1.212,0v-.606a.573.573,0,0,1,.606-.606h6.062a.573.573,0,0,1,.606.606v.606a.606.606,0,1,0,1.212,0v-.606A1.786,1.786,0,0,0,170.789,34.909Z" transform="translate(-162.909 -34.909)" fill="#585858"/>
      </g>
    </g>
  </g>
</svg>
