<svg xmlns="http://www.w3.org/2000/svg" width="46.242" height="46.242" viewBox="0 0 46.242 46.242">
  <g id="checked" transform="translate(-9.2 -13.2)">
    <path id="Path_618" data-name="Path 618" d="M31.135,36.4a1.727,1.727,0,0,0-2.556,2.324l8.772,9.527a1.736,1.736,0,0,0,1.22.581h.058a1.582,1.582,0,0,0,1.22-.523L62.041,26.178a1.684,1.684,0,0,0,0-2.44,1.735,1.735,0,0,0-2.44,0L38.687,44.594Z" transform="translate(-7.935 -4.206)" fill="#ff5100"/>
    <path id="Path_619" data-name="Path 619" d="M53.7,34.578a1.712,1.712,0,0,0-1.743,1.743A19.636,19.636,0,1,1,32.321,16.686a1.743,1.743,0,1,0,0-3.486A23.121,23.121,0,1,0,55.442,36.321,1.712,1.712,0,0,0,53.7,34.578Z" fill="#ff5100"/>
  </g>
</svg>
