<svg xmlns="http://www.w3.org/2000/svg" width="23.231" height="16.334" viewBox="0 0 23.231 16.334">
  <g id="mail" transform="translate(0 -76)">
    <g id="Group_970" data-name="Group 970" transform="translate(0 76)">
      <path id="Path_608" data-name="Path 608" d="M21.189,76H2.042A2.045,2.045,0,0,0,0,78.042v12.25a2.045,2.045,0,0,0,2.042,2.042H21.189a2.044,2.044,0,0,0,2.042-2.042V78.042A2.044,2.044,0,0,0,21.189,76ZM20.9,77.361l-7.844,7.8a2.042,2.042,0,0,1-2.889,0l-7.843-7.8ZM1.361,90.015V78.32l5.882,5.851Zm.967.958,5.88-5.842,1,1a3.4,3.4,0,0,0,4.811,0l1-1,5.88,5.842Zm19.541-.958-5.882-5.845,5.882-5.851Z" transform="translate(0 -76)" fill="#585858"/>
    </g>
  </g>
</svg>
