<svg xmlns="http://www.w3.org/2000/svg" width="21.135" height="21.175" viewBox="0 0 21.135 21.175">
  <path id="Icon_feather-phone-call" data-name="Icon feather-phone-call" d="M23,17.376v2.992a1.994,1.994,0,0,1-2.174,1.994A19.735,19.735,0,0,1,12.221,19.3a19.446,19.446,0,0,1-5.983-5.983A19.735,19.735,0,0,1,3.176,4.671,1.994,1.994,0,0,1,5.16,2.5H8.152a1.994,1.994,0,0,1,1.994,1.715,12.8,12.8,0,0,0,.7,2.8,1.994,1.994,0,0,1-.449,2.1L9.129,10.385a15.956,15.956,0,0,0,5.983,5.983L16.379,15.1a1.994,1.994,0,0,1,2.1-.449,12.8,12.8,0,0,0,2.8.7A1.994,1.994,0,0,1,23,17.376Z" transform="translate(-2.517 -1.847)" fill="none" stroke="#585858" stroke-linecap="round" stroke-linejoin="round" stroke-width="1.3"/>
</svg>
