<svg id="user" xmlns="http://www.w3.org/2000/svg" width="17.41" height="20.868" viewBox="0 0 17.41 20.868">
  <path id="Path_603" data-name="Path 603" d="M92.058,10.052A4.863,4.863,0,0,0,95.612,8.58a4.864,4.864,0,0,0,1.472-3.554,4.864,4.864,0,0,0-1.473-3.554,5.025,5.025,0,0,0-7.107,0,4.863,4.863,0,0,0-1.473,3.554A4.864,4.864,0,0,0,88.5,8.58,4.865,4.865,0,0,0,92.058,10.052ZM89.369,2.337a3.8,3.8,0,0,1,5.378,0,3.634,3.634,0,0,1,1.114,2.689,3.634,3.634,0,0,1-1.114,2.689,3.8,3.8,0,0,1-5.378,0,3.633,3.633,0,0,1-1.114-2.689,3.633,3.633,0,0,1,1.114-2.689Zm0,0" transform="translate(-83.484 0)" fill="#585858"/>
  <path id="Path_604" data-name="Path 604" d="M17.368,253.283a12.413,12.413,0,0,0-.169-1.319,10.389,10.389,0,0,0-.324-1.326,6.549,6.549,0,0,0-.545-1.236,4.661,4.661,0,0,0-.822-1.071,3.623,3.623,0,0,0-1.181-.742,4.08,4.08,0,0,0-1.507-.273,1.53,1.53,0,0,0-.817.346c-.245.16-.531.344-.851.549a4.876,4.876,0,0,1-1.1.485,4.276,4.276,0,0,1-2.694,0,4.862,4.862,0,0,1-1.1-.485c-.317-.2-.6-.387-.852-.549a1.528,1.528,0,0,0-.817-.346,4.075,4.075,0,0,0-1.507.273,3.621,3.621,0,0,0-1.181.742A4.662,4.662,0,0,0,1.08,249.4a6.562,6.562,0,0,0-.545,1.237,10.414,10.414,0,0,0-.324,1.326,12.33,12.33,0,0,0-.169,1.319c-.028.4-.042.813-.042,1.232a3.465,3.465,0,0,0,1.029,2.622,3.7,3.7,0,0,0,2.652.967H13.729a3.7,3.7,0,0,0,2.652-.967,3.464,3.464,0,0,0,1.029-2.622c0-.42-.014-.835-.042-1.233Zm-1.83,2.968a2.494,2.494,0,0,1-1.809.63H3.681a2.494,2.494,0,0,1-1.809-.63,2.263,2.263,0,0,1-.649-1.736c0-.391.013-.777.039-1.148a11.121,11.121,0,0,1,.153-1.188,9.184,9.184,0,0,1,.285-1.169,5.341,5.341,0,0,1,.444-1.005,3.456,3.456,0,0,1,.6-.791,2.4,2.4,0,0,1,.785-.488,2.814,2.814,0,0,1,.963-.186c.043.023.119.066.243.147.251.164.541.351.861.555a6.058,6.058,0,0,0,1.382.618,5.5,5.5,0,0,0,3.446,0,6.067,6.067,0,0,0,1.383-.618c.328-.21.609-.391.861-.555.124-.08.2-.124.243-.147a2.816,2.816,0,0,1,.963.186,2.407,2.407,0,0,1,.785.488,3.446,3.446,0,0,1,.6.792,5.323,5.323,0,0,1,.444,1.005A9.163,9.163,0,0,1,16,252.18a11.215,11.215,0,0,1,.153,1.188h0c.026.369.039.755.039,1.147a2.263,2.263,0,0,1-.65,1.736Zm0,0" transform="translate(0 -237.236)" fill="#585858"/>
</svg>
