<svg xmlns="http://www.w3.org/2000/svg" width="26" height="26" viewBox="0 0 26 26">
  <g id="Group_31371" data-name="Group 31371" transform="translate(-1216 -367)">
    <rect id="Rectangle_12092" data-name="Rectangle 12092" width="26" height="26" rx="5" transform="translate(1216 367)" fill="#ff7433"/>
    <path id="Upload_2" data-name="Upload 2" d="M10.963,9.892v3.916a.192.192,0,0,1-.191.191H.191A.191.191,0,0,1,0,13.809V9.892A.191.191,0,0,1,.191,9.7H1.6a.191.191,0,0,1,.191.191v2.314H9.171V9.892A.191.191,0,0,1,9.362,9.7h1.41A.192.192,0,0,1,10.963,9.892ZM.737,5.128H3.169v5.893a.191.191,0,0,0,.191.191H7.6a.191.191,0,0,0,.191-.191V5.128h2.432a.191.191,0,0,0,.135-.327L5.617.056a.191.191,0,0,0-.271,0L.6,4.8a.191.191,0,0,0,.135.327Z" transform="translate(1223.863 373)" fill="#fff"/>
  </g>
</svg>
