<svg xmlns="http://www.w3.org/2000/svg" width="13.46" height="15.314" viewBox="0 0 13.46 15.314">
  <g id="bin" transform="translate(-31)">
    <g id="Group_30310" data-name="Group 30310" transform="translate(31.933 4.487)">
      <g id="Group_30309" data-name="Group 30309" transform="translate(0)">
        <path id="Path_17216" data-name="Path 17216" d="M62.2,150,63,159.593a1.353,1.353,0,0,0,1.341,1.234h7.322A1.353,1.353,0,0,0,73,159.593L73.8,150Zm3.553,9.033a.449.449,0,0,1-.447-.421l-.449-7.238a.449.449,0,0,1,.42-.476.442.442,0,0,1,.476.42l.449,7.238A.449.449,0,0,1,65.758,159.033Zm2.692-.449a.449.449,0,1,1-.9,0v-7.238a.449.449,0,1,1,.9,0Zm2.691-7.21-.449,7.238a.449.449,0,0,1-.9-.056l.449-7.238a.456.456,0,0,1,.476-.42A.449.449,0,0,1,71.141,151.374Z" transform="translate(-62.205 -150)" fill="#ff5100"/>
      </g>
    </g>
    <g id="Group_30312" data-name="Group 30312" transform="translate(31)">
      <g id="Group_30311" data-name="Group 30311" transform="translate(0)">
        <path id="Path_17217" data-name="Path 17217" d="M43.562,1.795H40.87V1.346A1.347,1.347,0,0,0,39.524,0H35.935a1.347,1.347,0,0,0-1.346,1.346v.449H31.9a.9.9,0,1,0,0,1.795H43.562a.9.9,0,0,0,0-1.795Zm-3.589,0H35.487V1.346A.449.449,0,0,1,35.935.9h3.589a.449.449,0,0,1,.449.449Z" transform="translate(-31)" fill="#ff5100"/>
      </g>
    </g>
  </g>
</svg>
