<svg xmlns="http://www.w3.org/2000/svg" width="42.088" height="40.652" viewBox="0 0 42.088 40.652">
  <g id="Group_30273" data-name="Group 30273" transform="translate(0)">
    <path id="Path_17230" data-name="Path 17230" d="M22.77,21.913c-.117-.261-.232-.523-.348-.785-.1-.234-.216-.465-.3-.707-.1-.213-.194-.423-.288-.637-.252-.57-.5-1.143-.752-1.714q-.34-.773-.684-1.542c-.1-.191-.17-.4-.269-.592q-.111-.258-.221-.517c0-.015,0-.03,0-.046a.6.6,0,0,1-.048-.1.427.427,0,0,1-.04-.059c-.2-.455-.4-.911-.6-1.364a2.182,2.182,0,0,0-.171-.362c-.086.183-.162.345-.238.507a1.186,1.186,0,0,1-.127.293,1.111,1.111,0,0,0-.049.11c-.183.421-.38.836-.554,1.258a3.353,3.353,0,0,1-.259.552.117.117,0,0,0,0,.021.268.268,0,0,1-.044.1.456.456,0,0,1-.074.174c-.024.03-.017.068-.034.1-.131.252-.228.518-.349.774-.089.191-.156.391-.259.575-.253.572-.5,1.143-.758,1.714a1.355,1.355,0,0,1-.175.362,3.815,3.815,0,0,1-.151.388,1.424,1.424,0,0,1-.148.345.555.555,0,0,0-.06.106c-.109.325-.272.628-.4.943-.068.161-.075.158.1.158h7.313a.067.067,0,0,0,.008-.057M20.8,20.771q-1.76,0-3.52,0c-.087,0-.1-.012-.064-.095.048-.1.084-.2.124-.306.2-.508.416-1.011.622-1.517s.427-1.023.631-1.54a.33.33,0,0,1,.054-.1c.065-.228.188-.432.274-.651.035-.089.028-.207.138-.259.263.671.541,1.336.819,2,.088.209.165.422.25.633a.593.593,0,0,0,.066.1,3.16,3.16,0,0,0,.2.509,6.112,6.112,0,0,0,.25.593.53.53,0,0,1,.048.1c.056.142.109.288.174.427.036.08.028.1-.063.1" transform="translate(-4.724 -4.163)" fill="#ef5423"/>
    <path id="Path_17231" data-name="Path 17231" d="M14.709,28.627c-.678,0-1.364-.008-2.045-.042a1.683,1.683,0,0,1-1.3-1.229,14.34,14.34,0,0,1-.436-2.968c0-.275-.03-.3-.48-.506-.106-.048-.214-.1-.32-.151-.169-.087-.2-.1-.622.256a19.894,19.894,0,0,1-2.172,1.684,1.817,1.817,0,0,1-1.29.137c-.074-.011-.147-.023-.215-.03a1.092,1.092,0,0,1-.659-.36l-.05-.048c-2.932-2.458-3-3.072-.666-5.965.449-.558.5-.826.27-1.368-.122-.284-.212-.312-.718-.361-.144-.014-.29-.028-.433-.054l-.319-.059a4.144,4.144,0,0,0-1.081-.12,1.968,1.968,0,0,1-1.561-.406,2.26,2.26,0,0,1-.6-1.7l0-.079c-.086-3.715.209-4.044,3.943-4.4.585-.056.642-.1.729-.355l.028-.082c.233-.669.232-.784-.01-1.028a6.7,6.7,0,0,1-.687-.856,4.723,4.723,0,0,0-.624-.761,1.943,1.943,0,0,1-.743-1.4,2.192,2.192,0,0,1,.8-1.549c.59-.567,1.181-1.132,1.786-1.71L6.365,2.052l2.98,2.314a1.214,1.214,0,0,0,1.1.341c.27-.109.466-.468.539-.984.036-.253.059-.508.082-.763.022-.236.044-.473.074-.708.044-.339.1-.675.161-1.07L11.489,0h5.833L17.4.6c.045.351.094.7.143,1.038.118.83.23,1.614.276,2.427.017.3.051.366.442.519l.115.046c.536.212.571.2.774.015.59-.542,1.213-1.018,1.935-1.569.325-.248.669-.512,1.037-.8L22.6,1.9l4.163,4.141-.382.484c-.281.357-.535.689-.773,1a23.136,23.136,0,0,1-1.482,1.818c-.3.324-.279.492-.021,1.2.082.225.108.252.6.307l.182.021c.752.1,1.521.175,2.288.23a1.463,1.463,0,0,1,1.542,1.609c-.031,1.157-.018,2.3,0,3.158a1.388,1.388,0,0,1-1.479,1.541c-.416.019-.831.071-1.271.124-.269.032-.538.066-.807.091-.766.073-.982.115-1.188.6-.2.469-.1.615.35,1.156.425.512.834,1.038,1.289,1.625l1.022,1.309-4.2,4.222-.484-.389c-.3-.242-.586-.476-.862-.7-.653-.536-1.271-1.043-1.9-1.486a.965.965,0,0,0-.571-.151c-.647.214-.743.292-.755.611-.03.782-.135,1.563-.245,2.39-.05.378-.1.774-.153,1.2l-.072.611-1.647,0c-.341,0-.686,0-1.032,0m-1.872-1.418c.957.043,1.942.037,2.9.031l.431,0q.04-.313.08-.61c.111-.829.207-1.544.234-2.261a2.008,2.008,0,0,1,1.675-1.861,2.223,2.223,0,0,1,1.828.323c.673.474,1.309,1,1.983,1.55l.368.3L24.8,22.207l-.273-.351c-.445-.575-.843-1.089-1.26-1.589a2.246,2.246,0,0,1-.56-2.579,2.315,2.315,0,0,1,2.281-1.435c.307-.03.563-.061.82-.092.445-.054.906-.11,1.373-.132a.93.93,0,0,0,.156-.018.823.823,0,0,0,.006-.118c-.015-.877-.029-2.035,0-3.219a.591.591,0,0,0-.013-.162c-.013.007-.084-.02-.246-.032-.793-.057-1.588-.137-2.364-.237l-.158-.019a1.817,1.817,0,0,1-1.751-1.206,2.252,2.252,0,0,1,.31-2.62c.467-.5.9-1.061,1.392-1.712q.2-.257.408-.532L22.494,3.743c-.2.151-.386.3-.57.436-.695.53-1.295.988-1.838,1.488a1.879,1.879,0,0,1-2.222.252l-.108-.042a1.808,1.808,0,0,1-1.319-1.73c-.042-.754-.15-1.51-.264-2.309q-.032-.226-.065-.454l-3.44.017c-.061.38-.113.7-.155,1.027-.028.218-.048.438-.068.658-.026.278-.052.555-.091.831a2.444,2.444,0,0,1-1.39,2.071A2.474,2.474,0,0,1,8.5,5.459L6.458,3.875l-.265.254C5.588,4.707,5,5.271,4.409,5.836c-.353.339-.379.492-.378.531,0,.066.077.2.286.391a5.8,5.8,0,0,1,.822.984,5.611,5.611,0,0,0,.545.687,2.1,2.1,0,0,1,.335,2.456l-.028.079a1.92,1.92,0,0,1-1.906,1.279,5.923,5.923,0,0,0-2.511.476,5.771,5.771,0,0,0-.179,2.511v.079c.013.544.109.673.139.7a.87.87,0,0,0,.521.057,5.251,5.251,0,0,1,1.46.14l.3.056c.107.019.216.028.324.039a1.958,1.958,0,0,1,1.857,1.192,2.446,2.446,0,0,1-.465,2.782c-.819,1.015-1.4,1.763-1.351,2.136.048.408.913,1.133,1.829,1.9.041.033.081.073.122.113l.118.017a3.415,3.415,0,0,0,.383.04,19.318,19.318,0,0,0,1.977-1.545,1.782,1.782,0,0,1,2.155-.432c.084.044.169.082.252.118a1.814,1.814,0,0,1,1.295,1.75,13.217,13.217,0,0,0,.4,2.682.669.669,0,0,0,.127.156" transform="translate(0 -0.001)" fill="#ef5423"/>
    <path id="Path_17232" data-name="Path 17232" d="M17.5,24.752a7.463,7.463,0,0,1-7.423-7.395,7.319,7.319,0,0,1,2.131-5.233,7.456,7.456,0,0,1,5.3-2.257,7.619,7.619,0,0,1,7.437,7.323,7.488,7.488,0,0,1-2.157,5.294,7.363,7.363,0,0,1-5.225,2.267Zm-6.04-7.409a6.078,6.078,0,0,0,6.04,6.027h.048A5.992,5.992,0,0,0,21.8,21.518a6.1,6.1,0,0,0,1.762-4.307,6.194,6.194,0,0,0-6-5.962h-.04a6.078,6.078,0,0,0-4.32,1.844,5.947,5.947,0,0,0-1.735,4.249" transform="translate(-3.112 -3.046)" fill="#ef5423"/>
    <path id="Path_17233" data-name="Path 17233" d="M46.5,38.637a1.2,1.2,0,0,1-1.015-.752,7.935,7.935,0,0,1-.424-1.457l-.044-.012-.077-.024-.035.039A10.241,10.241,0,0,1,43.9,37.453a1.213,1.213,0,0,1-.861.236h-.095a.945.945,0,0,1-.57-.206c-1.794-1.137-1.92-1.647-.848-3.413.116-.192.123-.212.061-.318l-.1,0c-.082,0-.164.006-.246,0l-.169-.008a1.87,1.87,0,0,0-.455,0,1.336,1.336,0,0,1-1.076-.151,1.47,1.47,0,0,1-.558-1.038c-.326-2.076-.091-2.422,1.934-2.89l.1-.023c.014-.069.026-.128.031-.168a4.011,4.011,0,0,1-.425-.408,2.213,2.213,0,0,0-.306-.29,1.3,1.3,0,0,1-.61-.88,1.454,1.454,0,0,1,.369-1.094l1.457-1.822,1.9,1.108a.535.535,0,0,0,.238.088,1.316,1.316,0,0,0,.026-.227c0-.124,0-.248-.009-.373s-.01-.246-.01-.369c0-.178,0-.355.009-.563l.02-.89,3.509-.468.156.588c.046.172.093.341.14.508.108.382.219.778.3,1.182l.01,0,.142.037c.265-.31.535-.58.845-.889.145-.145.3-.3.463-.468l.427-.438,2.845,2.161-.315.53c-.115.195-.218.375-.315.545a11.891,11.891,0,0,1-.641,1.041.4.4,0,0,0,.059.177l.047,0h.1q.57,0,1.14-.038a1.082,1.082,0,0,1,1.242,1.009c.055.522.129,1.044.207,1.565a1.04,1.04,0,0,1-.913,1.258c-.206.038-.408.091-.61.143-.133.035-.266.069-.4.1a1.81,1.81,0,0,0-.283.079s-.008.023-.018.058a.308.308,0,0,0-.013.07,1.557,1.557,0,0,1,.167.143c.254.234.5.475.773.746l.8.787-2.191,2.879-1.018-.619c-.371-.23-.692-.429-1.025-.6a.228.228,0,0,0-.041-.008l-.088.046c.034.4.033.784.033,1.192,0,.191,0,.39,0,.6l.01.615-1.128.153c-.519.073-1.038.145-1.558.188-.023,0-.045,0-.068,0m-1.633-3.662a1.261,1.261,0,0,1,.429.079l.117.037a1.255,1.255,0,0,1,1.005,1.067,5.684,5.684,0,0,0,.3,1.073c.381-.039.76-.091,1.14-.144v-.012c0-.413,0-.771-.032-1.116a1.358,1.358,0,0,1,.906-1.384,1.469,1.469,0,0,1,1.243.044c.36.187.7.4,1.059.618l.7-.915c-.237-.234-.452-.446-.675-.651a1.455,1.455,0,0,1-.55-1.595,1.505,1.505,0,0,1,1.3-1.113c.146-.034.268-.065.389-.1.154-.041.309-.08.465-.115-.055-.38-.107-.755-.15-1.13-.358.017-.693.026-1.026.028H51.41a1.262,1.262,0,0,1-1.268-.67,1.459,1.459,0,0,1,0-1.69c.191-.268.364-.572.566-.925l.017-.03-.9-.682-.046.046c-.306.3-.57.569-.8.843a1.52,1.52,0,0,1-2.528-.671c-.064-.341-.16-.684-.262-1.047l-1.136.152c0,.08,0,.156,0,.232,0,.106,0,.213.009.32.006.147.012.293.01.44a1.579,1.579,0,0,1-.729,1.424,1.6,1.6,0,0,1-1.612-.1l-.872-.508-.709.888-.008.009a3.425,3.425,0,0,1,.481.449,2.44,2.44,0,0,0,.278.27,1.4,1.4,0,0,1,.459,1.548,1.328,1.328,0,0,1-1.135,1.074,7.118,7.118,0,0,0-1.007.273,6.883,6.883,0,0,0,.12,1.015c.006.032.01.061.015.085a3.068,3.068,0,0,1,.8-.027l.147.008c.045,0,.09,0,.136,0a1.313,1.313,0,0,1,1.316.639,1.573,1.573,0,0,1-.047,1.776,4.669,4.669,0,0,0-.49.934c.062.064.556.377.886.586h.007a10.394,10.394,0,0,0,.769-.8,1.343,1.343,0,0,1,.99-.533M43.007,36.4h0" transform="translate(-11.996 -7.191)" fill="#ef5423"/>
    <path id="Path_17234" data-name="Path 17234" d="M48.186,36.505a3.734,3.734,0,0,1-3.678-3.2,3.662,3.662,0,0,1,.709-2.738A3.725,3.725,0,0,1,47.69,29.1a3.806,3.806,0,0,1,4.172,3.137A3.744,3.744,0,0,1,51.146,35,3.679,3.679,0,0,1,48.7,36.469a3.766,3.766,0,0,1-.519.037m-2.31-3.4a2.346,2.346,0,0,0,2.635,2,2.308,2.308,0,0,0,1.527-.926,2.355,2.355,0,0,0,.456-1.737,2.415,2.415,0,0,0-2.611-1.97,2.348,2.348,0,0,0-1.56.927,2.291,2.291,0,0,0-.447,1.71" transform="translate(-13.726 -8.971)" fill="#ef5423"/>
    <path id="Path_17235" data-name="Path 17235" d="M30.365,52.779l-1.056-.14c-.447-.057-.893-.113-1.334-.195a1.1,1.1,0,0,1-.807-.953,7.15,7.15,0,0,1-.03-1.24,8.87,8.87,0,0,1-1.047.606,1.15,1.15,0,0,1-.836.006l-.075-.021a.848.848,0,0,1-.478-.33c-1.266-1.388-1.254-1.888.077-3.149a.916.916,0,0,0,.094-.1h-.006c-.072-.017-.144-.034-.214-.057l-.142-.047a1.626,1.626,0,0,0-.348-.092,1.241,1.241,0,0,1-.926-.4,1.347,1.347,0,0,1-.25-1.059c.2-1.852.507-2.117,2.354-2.043h.02l.011-.021a3.829,3.829,0,0,1-.233-.4,1.859,1.859,0,0,0-.176-.292,1.211,1.211,0,0,1-.329-.943,1.337,1.337,0,0,1,.591-.889l1.684-1.228,1.383,1.4a.61.61,0,0,0,.062.057q.011-.029.023-.068c.028-.1.05-.2.074-.3s.048-.212.077-.316c.039-.146.083-.292.134-.463l.241-.815,3.18.427,0,.608,0,.446c0,.324.006.659-.016,1h0l.011.006c.268-.18.541-.336.85-.513.153-.088.317-.181.492-.284l.527-.312,1.974,2.57-.443.429c-.14.135-.265.261-.384.38-.261.261-.487.488-.744.7l0,.024.062.016c.315.084.631.159.949.226a1.018,1.018,0,0,1,.876,1.225c-.072.445-.129.892-.18,1.338a.994.994,0,0,1-1.147.922c-.175-.015-.351-.017-.528-.019-.119,0-.239,0-.357-.008l-.182,0c.021.037.048.08.068.11.154.247.3.5.464.779l.541.922-2.6,2-.76-.8c-.234-.251-.449-.482-.678-.7-.06.307-.142.606-.227.92-.043.157-.088.321-.133.5Zm-1.84-1.643c.27.044.54.079.811.113.085-.309.157-.581.2-.848a1.252,1.252,0,0,1,1.139-1.02,1.346,1.346,0,0,1,1.105.34c.232.215.45.444.681.691l.644-.494c-.126-.216-.243-.415-.366-.61a1.352,1.352,0,0,1-.1-1.548,1.394,1.394,0,0,1,1.415-.676c.127,0,.234.006.342.007l.321.006q.049-.4.106-.791c-.265-.059-.519-.122-.77-.189a1.2,1.2,0,0,1-1.031-.928,1.352,1.352,0,0,1,.419-1.5c.2-.166.4-.364.629-.591l-.484-.631c-.309.177-.577.33-.816.5a1.4,1.4,0,0,1-2.1-1.213c.022-.274.022-.55.02-.832l-.806-.109c-.01.036-.02.072-.03.108-.024.089-.044.178-.064.267-.028.124-.057.247-.091.368a1.356,1.356,0,0,1-2.4.608l-.547-.555-.646.471a3.536,3.536,0,0,1,.247.414,1.908,1.908,0,0,0,.16.273,1.3,1.3,0,0,1,.039,1.486,1.226,1.226,0,0,1-1.272.687,7.931,7.931,0,0,0-.814-.009c-.037.154-.072.461-.106.763a3.167,3.167,0,0,1,.584.15l.121.039c.037.012.073.019.108.028a1.229,1.229,0,0,1,1.016.895,1.456,1.456,0,0,1-.467,1.557,6.594,6.594,0,0,0-.554.568,6.316,6.316,0,0,0,.5.589c.251-.132.5-.294.744-.45a1.164,1.164,0,0,1,1.388-.054l.084.054a1.166,1.166,0,0,1,.637,1.205,4.458,4.458,0,0,0,0,.859M25.5,49.5l.036.01L25.5,49.5m8.31-1.036-.015,0a.019.019,0,0,0,.015,0" transform="translate(-7.09 -12.127)" fill="#ef5423"/>
    <path id="Path_17236" data-name="Path 17236" d="M31.107,50.828a3.122,3.122,0,0,1-.4-.025,3.3,3.3,0,0,1-2.844-3.676A3.24,3.24,0,0,1,29.1,44.956a3.3,3.3,0,0,1,2.449-.676,3.366,3.366,0,0,1,2.831,3.645,3.31,3.31,0,0,1-1.253,2.194,3.276,3.276,0,0,1-2.023.709M29.234,47.3h0a1.913,1.913,0,0,0,1.645,2.136,1.881,1.881,0,0,0,1.4-.4,1.914,1.914,0,0,0,.731-1.268,1.97,1.97,0,0,0-1.631-2.11,1.905,1.905,0,0,0-1.427.4,1.862,1.862,0,0,0-.718,1.249" transform="translate(-8.592 -13.659)" fill="#ef5423"/>
  </g>
</svg>
