<svg id="Group_30274" data-name="Group 30274" xmlns="http://www.w3.org/2000/svg" width="38.563" height="40.575" viewBox="0 0 38.563 40.575">
  <path id="Path_17221" data-name="Path 17221" d="M498.115,47.176c-.055-.124-.1-.242-.166-.366a2.25,2.25,0,0,1-.263.422h.422c.007-.014.021-.035.007-.055m-3.7-8.352a.671.671,0,0,0-.035.076.656.656,0,0,1,.118.069.778.778,0,0,0-.083-.145m.595,11.276a6.428,6.428,0,0,1-3.083-.477l-1.155.187c-.339.055-.671.111-1,.159-.747.124-1.479.242-2.178.353l-.968.152H477.07c-.463-.055-.919-.1-1.376-.138a28.7,28.7,0,0,1-7.633-1.493c-1.77-.671-2.634-1.452-2.959-2.676v-.982q.2-.5.373-1c.3-.8.595-1.611.954-2.371a6.612,6.612,0,0,1,6.125-3.913c.318-.021.636-.069.94-.118a2.858,2.858,0,0,1,1.334-.041,2.433,2.433,0,0,1,.657.885,6.7,6.7,0,0,0,.581.906c.816,1,1.652,1.977,2.53,3.014l1.569,1.839.436-1.03a5.678,5.678,0,0,0,.463-4.39H482.3a3.013,3.013,0,0,0-.152,2.752c.041.138.083.27.118.408a3.793,3.793,0,0,0,.643,1.376l.539.74,1.569-2.033c1.113-1.438,2.226-2.876,3.353-4.307a.948.948,0,0,1,.138-.145c.235.021.456.035.677.055.339.028.664.055.975.09.38.035.74.076,1.085.118a6.873,6.873,0,0,1,2.786-.843,7.167,7.167,0,0,0-1.549-.394c-.014,0-.035-.007-.048-.007-.456-.062-.933-.124-1.438-.18-.754-.083-1.576-.152-2.544-.228a1.516,1.516,0,0,0-1.168.678c-1.127,1.438-2.24,2.876-3.36,4.321l-.318.408c-.041-.152-.09-.3-.131-.449-.235-.8-.339-1.224.062-1.708a1.646,1.646,0,0,0,.3-.94c.014-.083.021-.173.035-.263l.173-.83h-5.5l.8,1.092a3.12,3.12,0,0,1,.4,3.07l-.09-.1c-.871-1.03-1.7-2-2.51-2.994a4.707,4.707,0,0,1-.449-.712,3.1,3.1,0,0,0-1.3-1.459,3.738,3.738,0,0,0-2.116-.069,6.425,6.425,0,0,1-.8.1,8,8,0,0,0-7.3,4.7c-.38.823-.691,1.666-1,2.482-.138.373-.27.74-.415,1.106l-.048.118v1.327l.021.159c.532,2.212,2.33,3.153,3.837,3.719a29.693,29.693,0,0,0,7.992,1.576c.456.041.919.083,1.383.138l9.783.007,1.072-.173c1.244-.194,2.6-.408,3.975-.636.567-.1,1.148-.194,1.715-.3l.484-.083A9.774,9.774,0,0,0,496.048,50l.242-.1c.145-.055.283-.118.415-.18a6.569,6.569,0,0,1-1.694.387m3.1-2.924c-.055-.124-.1-.242-.166-.366a2.25,2.25,0,0,1-.263.422h.422c.007-.014.021-.035.007-.055m-3.7-8.352a.671.671,0,0,0-.035.076.656.656,0,0,1,.118.069.778.778,0,0,0-.083-.145" transform="translate(-463.72 -11.281)" fill="#ef5423"/>
  <path id="Path_17222" data-name="Path 17222" d="M494.714,12.314c-.7-.415-.7-.767-.7-1.549V9.259A9.033,9.033,0,0,0,487.551.61c-.415-.131-.843-.235-1.265-.339-.187-.048-.373-.09-.56-.138L483.507.112,483.3.14c-.062.021-.124.041-.18.062a1.445,1.445,0,0,1-.187.062,9.027,9.027,0,0,0-7.819,7.881,22.779,22.779,0,0,0-.1,3.063l.007.346c.007.3-.007.311-.207.408a2.915,2.915,0,0,0-1.708,2.634,21.178,21.178,0,0,0,.007,2.205,3.087,3.087,0,0,0,2.848,2.938c.27.021.311.055.422.3a13.782,13.782,0,0,0,3.312,4.625,7.6,7.6,0,0,0,3.077,1.749,5.923,5.923,0,0,0,3.256,0,7.184,7.184,0,0,0,2.731-1.5,14.939,14.939,0,0,0,2.067-2.33c.27-.346.539-.691.816-1.03.118-.138.228-.283.339-.429a4.055,4.055,0,0,1,.595-.691,6.581,6.581,0,0,1,1.445-.9c1.348-.608,2.026-2.371,2.109-3.837a3.563,3.563,0,0,0-1.417-3.388M489.321,19.4a4.077,4.077,0,0,1-1.742.553c-.173.035-.346.062-.5.1a2.547,2.547,0,0,1-.325-.076,2.722,2.722,0,0,0-.678-.145l-.332-.014a11.869,11.869,0,0,0-2.475.035,1.025,1.025,0,0,0-.678.477,2.18,2.18,0,0,0-.387,1.514,1.992,1.992,0,0,0,1.569,1.417l.27.021a3.774,3.774,0,0,0,2.869-.622,1.1,1.1,0,0,1,.373-.159,4.707,4.707,0,0,1-2.351,1.141,4.073,4.073,0,0,1-3.346-1.1,13.275,13.275,0,0,1-2.793-3.955l-.1-.2a6.465,6.465,0,0,1-.456-3.747c.028-.36.048-.712.062-1.072a1.88,1.88,0,0,1,.8-1.383,2.63,2.63,0,0,1,1.549-.525,2.018,2.018,0,0,1,.5.062,11.571,11.571,0,0,0,5.621.083,2.942,2.942,0,0,1,1.272.2c.207.062.415.124.622.173a2.631,2.631,0,0,1,.463.207c.124.069.256.138.408.207l.733.353a6.25,6.25,0,0,1,.553,1.95,5.511,5.511,0,0,1-.007,2.261,5.192,5.192,0,0,1-1.486,2.247m-2.869,1.929a1.705,1.705,0,0,0-.387.235,2.459,2.459,0,0,1-1.908.339l-.249-.014a1.033,1.033,0,0,1-.353-.3,1.21,1.21,0,0,1,.124-.394,11.877,11.877,0,0,1,1.984,0l.339.021a1.435,1.435,0,0,1,.346.083.608.608,0,0,1,.1.035m8.3-5.7a3.179,3.179,0,0,1-1.3,2.655,7.834,7.834,0,0,0-1.749,1.092,5.1,5.1,0,0,0-.823.919c-.1.131-.194.256-.29.38-.3.346-.574.712-.857,1.072-.118.152-.235.311-.353.456l.166-.249.843-1.334-.553.1a3.406,3.406,0,0,0,.366-.249,6.624,6.624,0,0,0,1.915-2.862,6.452,6.452,0,0,0,.062-2.931,6.734,6.734,0,0,0-1.742-3.892.959.959,0,0,0-.636-.263l-1.016-.187.1.47c-.145-.041-.3-.083-.449-.131a3.891,3.891,0,0,0-1.991-.221,9.977,9.977,0,0,1-4.957-.076,3.852,3.852,0,0,0-3.222.705,3.239,3.239,0,0,0-1.348,2.44c-.007.339-.035.678-.062,1.016a7.819,7.819,0,0,0,.622,4.5l.1.2a14.41,14.41,0,0,0,3.1,4.342,5.452,5.452,0,0,0,4.452,1.424,6.225,6.225,0,0,0,3.36-1.749,7.453,7.453,0,0,1-.629.608c-2.281,1.957-4.915,1.874-7.238-.221a12.335,12.335,0,0,1-2.973-4.169,1.722,1.722,0,0,0-1.576-1.113,1.707,1.707,0,0,1-1.583-1.645,20.294,20.294,0,0,1,0-2.053,1.557,1.557,0,0,1,.906-1.452,1.635,1.635,0,0,0,1.009-1.673l-.007-.353a23.388,23.388,0,0,1,.09-2.876,7.654,7.654,0,0,1,6.637-6.678,2.155,2.155,0,0,0,.47-.131l.028-.007h1.839c.166.041.332.076.491.118.4.1.8.194,1.182.318a7.559,7.559,0,0,1,5.1,4.922l-1.562-2.012a7.712,7.712,0,0,0-6.685-2.994,7.053,7.053,0,0,0-5.655,3.132l-1.348,2.268,2.288-1.314A10.144,10.144,0,0,1,489.8,5.871l2.544,1.362a8.548,8.548,0,0,1,.283,2.046v1.486a2.7,2.7,0,0,0,1.376,2.738,2.289,2.289,0,0,1,.74,2.122" transform="translate(-466.61 -0.112)" fill="#ef5423"/>
  <path id="Path_17223" data-name="Path 17223" d="M508.615,47.257c-.055-.124-.1-.242-.166-.366s-.118-.277-.18-.408c-.1-.235-.214-.463-.3-.705-.1-.207-.194-.415-.283-.629l-.747-1.7c-.221-.512-.449-1.016-.678-1.528-.1-.187-.166-.394-.27-.588-.069-.173-.145-.339-.214-.512,0-.014-.007-.035-.007-.048-.021-.028-.028-.069-.048-.1a.279.279,0,0,1-.035-.062l-.6-1.348c-.035-.069-.055-.145-.09-.214a.778.778,0,0,0-.083-.145.666.666,0,0,0-.035.076c-.069.152-.138.29-.2.429a1.187,1.187,0,0,1-.124.29.7.7,0,0,0-.048.1c-.18.422-.38.83-.553,1.251a3.266,3.266,0,0,1-.256.546v.021a.285.285,0,0,1-.048.1.6.6,0,0,1-.069.173c-.028.028-.021.062-.035.1-.131.249-.228.512-.346.767-.09.194-.159.387-.256.574-.256.567-.5,1.134-.754,1.694a1.328,1.328,0,0,1-.173.36,3.742,3.742,0,0,1-.152.387,1.473,1.473,0,0,1-.145.339.571.571,0,0,0-.062.111c-.1.318-.27.622-.4.933-.062.159-.069.152.1.152h7.252c.007-.014.021-.035.007-.055m-1.95-1.134h-3.491c-.083,0-.1-.007-.062-.09s.083-.2.124-.3c.2-.5.415-1,.615-1.507s.422-1.009.629-1.521a.422.422,0,0,1,.048-.1,6.662,6.662,0,0,1,.277-.643c.035-.09.028-.207.138-.263.256.671.532,1.327.809,1.984.09.207.166.422.249.629a.517.517,0,0,0,.062.1,3.2,3.2,0,0,0,.2.5,6.174,6.174,0,0,0,.242.588.317.317,0,0,1,.048.1c.055.145.111.29.173.429.035.076.028.09-.062.09m1.95,1.134c-.055-.124-.1-.242-.166-.366s-.118-.277-.18-.408c-.1-.235-.214-.463-.3-.705-.1-.207-.194-.415-.283-.629l-.747-1.7c-.221-.512-.449-1.016-.678-1.528-.1-.187-.166-.394-.27-.588-.069-.173-.145-.339-.214-.512,0-.014-.007-.035-.007-.048-.021-.028-.028-.069-.048-.1a.279.279,0,0,1-.035-.062l-.6-1.348c-.035-.069-.055-.145-.09-.214a.778.778,0,0,0-.083-.145.666.666,0,0,0-.035.076c-.069.152-.138.29-.2.429a1.187,1.187,0,0,1-.124.29.7.7,0,0,0-.048.1c-.18.422-.38.83-.553,1.251a3.266,3.266,0,0,1-.256.546v.021a.285.285,0,0,1-.048.1.6.6,0,0,1-.069.173c-.028.028-.021.062-.035.1-.131.249-.228.512-.346.767-.09.194-.159.387-.256.574-.256.567-.5,1.134-.754,1.694a1.328,1.328,0,0,1-.173.36,3.742,3.742,0,0,1-.152.387,1.473,1.473,0,0,1-.145.339.571.571,0,0,0-.062.111c-.1.318-.27.622-.4.933-.062.159-.069.152.1.152h7.252c.007-.014.021-.035.007-.055m-1.95-1.134h-3.491c-.083,0-.1-.007-.062-.09s.083-.2.124-.3c.2-.5.415-1,.615-1.507s.422-1.009.629-1.521a.422.422,0,0,1,.048-.1,6.662,6.662,0,0,1,.277-.643c.035-.09.028-.207.138-.263.256.671.532,1.327.809,1.984.09.207.166.422.249.629a.517.517,0,0,0,.062.1,3.2,3.2,0,0,0,.2.5,6.174,6.174,0,0,0,.242.588.317.317,0,0,1,.048.1c.055.145.111.29.173.429.035.076.028.09-.062.09m2.869-7.881a7.035,7.035,0,0,0-6.6-1.383,7.368,7.368,0,0,0-2.275,1.127A7.027,7.027,0,0,0,497.8,42.9a3.6,3.6,0,0,0-.062.629,7.152,7.152,0,0,0,2.634,5.724,6.805,6.805,0,0,0,.9.636,6.884,6.884,0,0,0,2.724.94,7.165,7.165,0,0,0,5.538-12.59m.394,9.589a6.428,6.428,0,0,1-4.418,2.351,6.428,6.428,0,0,1-3.083-.477,6.251,6.251,0,0,1-1.618-.982,6.457,6.457,0,0,1-2.378-5.185,2.389,2.389,0,0,1,.035-.415l.021-.145a6.327,6.327,0,0,1,3.256-4.874,6.873,6.873,0,0,1,2.786-.843c.145-.007.3-.014.442-.014a6.361,6.361,0,0,1,4.114,1.528,6.459,6.459,0,0,1,.843,9.057m-1.48-.94c-.055-.138-.118-.277-.18-.408-.1-.235-.214-.463-.3-.705-.1-.207-.194-.415-.283-.629l-.747-1.7c-.221-.512-.449-1.016-.678-1.528-.1-.187-.166-.394-.27-.588-.069-.173-.145-.339-.214-.512,0-.014-.007-.035-.007-.048-.021-.028-.028-.069-.048-.1a.279.279,0,0,1-.035-.062l-.6-1.348c-.035-.069-.055-.145-.09-.214a.778.778,0,0,0-.083-.145.666.666,0,0,0-.035.076c-.069.152-.138.29-.2.429a1.187,1.187,0,0,1-.124.29.7.7,0,0,0-.048.1c-.18.422-.38.83-.553,1.251a3.266,3.266,0,0,1-.256.546v.021a.285.285,0,0,1-.048.1.6.6,0,0,1-.069.173c-.028.028-.021.062-.035.1-.131.249-.228.512-.346.767-.09.194-.159.387-.256.574-.256.567-.5,1.134-.754,1.694a1.328,1.328,0,0,1-.173.36,3.742,3.742,0,0,1-.152.387,1.473,1.473,0,0,1-.145.339.571.571,0,0,0-.062.111c-.1.318-.27.622-.4.933-.062.159-.069.152.1.152h7.252c.007-.014.021-.035.007-.055-.055-.124-.1-.242-.166-.366m-1.784-.767h-3.491c-.083,0-.1-.007-.062-.09s.083-.2.124-.3c.2-.5.415-1,.615-1.507s.422-1.009.629-1.521a.422.422,0,0,1,.048-.1,6.662,6.662,0,0,1,.277-.643c.035-.09.028-.207.138-.263.256.671.532,1.327.809,1.984.09.207.166.422.249.629a.517.517,0,0,0,.062.1,3.2,3.2,0,0,0,.2.5,6.174,6.174,0,0,0,.242.588.317.317,0,0,1,.048.1c.055.145.111.29.173.429.035.076.028.09-.062.09" transform="translate(-474.22 -11.362)" fill="#ef5423" fill-rule="evenodd"/>
  <path id="Path_17224" data-name="Path 17224" d="M509.675,37.406h-.007a7.727,7.727,0,0,0-7.944-1.279c-.187.076-.366.152-.539.242a7.428,7.428,0,0,0-1.811,1.217A7.741,7.741,0,0,0,496.8,42.5l-.014.124a3.806,3.806,0,0,0-.048.608,7.886,7.886,0,0,0,2.876,6.243c.111.09.228.18.346.263a7.433,7.433,0,0,0,2.012,1.079,7.858,7.858,0,0,0,2.655.463c.235,0,.463-.014.7-.035a7.867,7.867,0,0,0,4.349-13.841M506.9,49.484a6.569,6.569,0,0,1-1.694.387,6.428,6.428,0,0,1-3.083-.477,6.251,6.251,0,0,1-1.618-.982,6.457,6.457,0,0,1-2.378-5.185,2.386,2.386,0,0,1,.035-.415l.021-.145a6.327,6.327,0,0,1,3.256-4.874,6.873,6.873,0,0,1,2.786-.843c.145-.007.3-.014.442-.014a6.361,6.361,0,0,1,4.114,1.528,6.459,6.459,0,0,1,.843,9.057,6.614,6.614,0,0,1-2.724,1.963" transform="translate(-473.912 -11.051)" fill="#ef5423"/>
  <path id="Path_17225" data-name="Path 17225" d="M510.168,48.3c-.055-.124-.1-.242-.166-.366s-.118-.277-.18-.408c-.1-.235-.214-.463-.3-.705-.1-.207-.194-.415-.283-.629l-.747-1.7c-.221-.512-.449-1.016-.677-1.528-.1-.187-.166-.394-.27-.588-.069-.173-.145-.339-.214-.512,0-.014-.007-.035-.007-.048-.021-.028-.028-.069-.048-.1a.279.279,0,0,1-.035-.062l-.6-1.348c-.035-.069-.055-.145-.09-.214a.778.778,0,0,0-.083-.145.666.666,0,0,0-.035.076c-.069.152-.138.29-.2.429a1.187,1.187,0,0,1-.124.29.7.7,0,0,0-.048.1c-.18.422-.38.83-.553,1.251a3.268,3.268,0,0,1-.256.546v.021a.286.286,0,0,1-.048.1.6.6,0,0,1-.069.173c-.028.028-.021.062-.035.1-.131.249-.228.512-.346.767-.09.194-.159.387-.256.574-.256.567-.5,1.134-.754,1.694a1.329,1.329,0,0,1-.173.36,3.742,3.742,0,0,1-.152.387,1.472,1.472,0,0,1-.145.339.571.571,0,0,0-.062.111c-.1.318-.27.622-.4.933-.062.159-.069.152.1.152h7.252c.007-.014.021-.035.007-.055m-1.95-1.134h-3.491c-.083,0-.1-.007-.062-.09s.083-.2.124-.3c.2-.5.415-1,.615-1.507s.422-1.009.629-1.521a.423.423,0,0,1,.048-.1,6.661,6.661,0,0,1,.277-.643c.035-.09.028-.207.138-.263.256.671.532,1.327.809,1.984.09.207.166.422.249.629a.516.516,0,0,0,.062.1,3.2,3.2,0,0,0,.2.5,6.173,6.173,0,0,0,.242.588.318.318,0,0,1,.048.1c.055.145.111.29.173.429.035.076.028.09-.062.09" transform="translate(-475.773 -12.409)" fill="#ef5423"/>
</svg>
