<svg xmlns="http://www.w3.org/2000/svg" width="42.391" height="39.991" viewBox="0 0 42.391 39.991">
  <g id="Group_30271" data-name="Group 30271" transform="translate(0)">
    <path id="Path_17237" data-name="Path 17237" d="M253.063,2.34a4.895,4.895,0,0,1,2.9.941c.175.124.351.247.533.383l.846.635.834-.651a5.6,5.6,0,0,1,2.709-1.173,4.665,4.665,0,0,1,.651-.046,5.149,5.149,0,0,1,5,4.281,7.991,7.991,0,0,1-1.041,5.075,17.521,17.521,0,0,1-5.006,5.637c-.919.7-1.9,1.321-2.938,1.977l-.424.268c-3.986-2.416-6.611-5.043-8.241-8.237a7.048,7.048,0,0,1-.613-5.764,5.056,5.056,0,0,1,4.792-3.325m0-1.383a6.442,6.442,0,0,0-6.1,4.248,8.425,8.425,0,0,0,.684,6.851c2.053,4.024,5.372,6.8,9.188,9.05a.567.567,0,0,0,.294.07.6.6,0,0,0,.315-.077c1.307-.836,2.648-1.639,3.878-2.579a18.954,18.954,0,0,0,5.386-6.084A9.349,9.349,0,0,0,267.9,6.505a6.532,6.532,0,0,0-6.367-5.458,6.092,6.092,0,0,0-.843.059,6.976,6.976,0,0,0-3.367,1.452c-.194-.145-.38-.277-.567-.408A6.262,6.262,0,0,0,253.063.957" transform="translate(-236.061 -0.957)" fill="#ef5423"/>
    <path id="Path_17238" data-name="Path 17238" d="M247.077,43.825a5.234,5.234,0,0,1-.727-.05,5.008,5.008,0,0,1-4.356-4.547,15.605,15.605,0,0,1-.1-3c.035-.587.035-.587-1.065-1.677l-.562-.559L232.649,26.5c-1.176-1.02-1.214-1.41-1.214-3.3L231.391,12a1.606,1.606,0,0,1,.93-1.569,2.434,2.434,0,0,1,2.47.584c.945.983,1.492,4.306,2.03,9,.043.377.079.692.108.919.053.353.088.649.117.9a1.8,1.8,0,0,0,.738,1.549c.39.382.811.833,1.242,1.3,1.1,1.179,2.6,2.788,3.406,2.788h.033c.057,0,.191-.011.363-.242.239-.337.1-.639-.626-1.33l-.184-.177c-.3-.316-.623-.634-.957-.96-1.473-1.437-2.863-2.794-2.349-4.077a2.663,2.663,0,0,1,1.54-1.491,2.025,2.025,0,0,1,1.739.193l.118.091,3.854,3.679c.306.306.6.592.884.874,1,.99,1.954,1.925,2.891,3.034.277.311.531.575.754.807,1.281,1.328,1.686,1.9,1.686,5.158,0,.42.016.957.034,1.552.065,2.146.145,4.816-.344,6.06a5.072,5.072,0,0,1-4.789,3.195m-14.3-31.832.044,11.212c0,1.614,0,1.614.77,2.284l8.213,8.077c1.368,1.356,1.544,1.531,1.472,2.741a14.214,14.214,0,0,0,.1,2.765,3.617,3.617,0,0,0,3.174,3.333,3.7,3.7,0,0,0,4.04-2.29c.382-.971.3-3.7.245-5.5-.018-.612-.035-1.164-.035-1.594,0-2.853-.25-3.11-1.3-4.2-.235-.244-.5-.521-.8-.861-.907-1.074-1.834-1.987-2.816-2.954-.289-.284-.581-.573-.879-.87l-3.782-3.609a.623.623,0,0,0-.512-.036,1.29,1.29,0,0,0-.7.684c-.176.44,1.368,1.945,2.026,2.588.349.341.691.674.984.988l.143.136c.54.514,1.805,1.716.793,3.145a1.844,1.844,0,0,1-1.407.81c-1.455.1-3.013-1.6-4.526-3.227-.415-.447-.821-.882-1.2-1.255a3.08,3.08,0,0,1-1.139-2.372c-.028-.236-.06-.517-.113-.867-.032-.245-.068-.566-.113-.952-.208-1.82-.843-7.357-1.629-8.175a1.1,1.1,0,0,0-.949-.3c-.078.034-.1.18-.1.3" transform="translate(-231.391 -3.836)" fill="#ef5423"/>
    <path id="Path_17239" data-name="Path 17239" d="M267.608,43.845a5.141,5.141,0,0,1-4.7-2.982c-.527-1.212-.677-9.644.13-11.4.794-1.853,8.768-9.257,9.414-9.823a2,2,0,0,1,1.671-.51,2.64,2.64,0,0,1,1.793,1.345,2.1,2.1,0,0,1-.832,2.768c-.1.087-.2.17-.286.254l-.159.145c-2.85,2.592-2.8,3.473-2.766,3.624s.392.256.5.282c.4.1,1.409-.951,1.889-1.462.18-.192.356-.378.523-.545.544-.535.982-.942,1.34-1.275,1.289-1.2,1.366-1.27,1.574-2.756.322-2.349.621-4.472,1.011-6.64l.019-.134c.254-1.725.518-3.507,1.739-4.16a2.673,2.673,0,0,1,2.459.156l.395.187V19.15c.007.977.023,1.783.035,2.454.068,3.431.073,3.711-1.728,5.285-.166.144-.349.3-.552.487l-2.727,2.773c-1.6,1.605-2.738,2.693-3.572,3.487-1.918,1.827-1.918,1.827-1.914,3a23.552,23.552,0,0,1-.1,2.423,5,5,0,0,1-4.189,4.7,5.584,5.584,0,0,1-.962.084M273.8,20.487a.655.655,0,0,0-.439.189c-1.7,1.485-8.509,8.048-9.066,9.349-.643,1.4-.526,9.3-.132,10.271a3.807,3.807,0,0,0,4.165,2.1,3.665,3.665,0,0,0,3.052-3.466,22.251,22.251,0,0,0,.094-2.295c-.006-1.765.172-1.934,2.344-4,.828-.789,1.962-1.869,3.542-3.459l2.757-2.8c.24-.216.427-.38.6-.528,1.316-1.15,1.316-1.15,1.255-4.217-.013-.677-.029-1.489-.036-2.474V11.821a1.1,1.1,0,0,0-.819-.026c-.608.324-.838,1.887-1.023,3.142l-.023.156c-.389,2.163-.686,4.27-1.006,6.607-.268,1.908-.579,2.255-2,3.579-.35.326-.779.724-1.307,1.243-.153.153-.318.329-.489.511-.96,1.021-2.048,2.181-3.245,1.853a1.81,1.81,0,0,1-1.491-1.28c-.3-1.179.681-2.718,3.177-4.987l.129-.118c.09-.091.218-.2.353-.315.626-.53.7-.678.507-1.06a1.254,1.254,0,0,0-.8-.632.553.553,0,0,0-.095-.008" transform="translate(-240.983 -3.854)" fill="#ef5423"/>
    <path id="Path_17240" data-name="Path 17240" d="M264.092,16.577c-.055-.124-.1-.242-.166-.366s-.118-.277-.18-.408c-.1-.235-.214-.463-.3-.705-.1-.207-.194-.415-.283-.629l-.747-1.7c-.221-.512-.449-1.016-.678-1.528-.1-.187-.166-.394-.27-.588-.069-.173-.145-.339-.214-.512,0-.014-.007-.035-.007-.048-.021-.028-.028-.069-.048-.1a.282.282,0,0,1-.035-.062l-.6-1.348c-.035-.069-.055-.145-.09-.214a.776.776,0,0,0-.083-.145.671.671,0,0,0-.035.076c-.069.152-.138.29-.2.429a1.186,1.186,0,0,1-.124.29.7.7,0,0,0-.048.1c-.18.422-.38.83-.553,1.251a3.271,3.271,0,0,1-.256.546v.021a.285.285,0,0,1-.048.1.6.6,0,0,1-.069.173c-.028.028-.021.062-.035.1-.131.249-.228.512-.346.767-.09.194-.159.387-.256.574-.256.567-.5,1.134-.754,1.694a1.329,1.329,0,0,1-.173.36,3.756,3.756,0,0,1-.152.387,1.473,1.473,0,0,1-.145.339.571.571,0,0,0-.062.111c-.1.318-.27.622-.4.933-.062.159-.069.152.1.152h7.252c.007-.014.021-.035.007-.055m-1.95-1.134h-3.491c-.083,0-.1-.007-.062-.09s.083-.2.124-.3c.2-.5.415-1,.615-1.507s.422-1.009.629-1.521a.422.422,0,0,1,.048-.1,6.669,6.669,0,0,1,.277-.643c.035-.09.028-.207.138-.263.256.671.532,1.327.809,1.984.09.207.166.422.249.629a.514.514,0,0,0,.062.1,3.2,3.2,0,0,0,.2.5,6.182,6.182,0,0,0,.242.588.317.317,0,0,1,.048.1c.055.145.111.29.173.429.035.076.028.09-.062.09" transform="translate(-239.201 -3.2)" fill="#ef5423"/>
  </g>
</svg>
