<svg id="Group_30272" data-name="Group 30272" xmlns="http://www.w3.org/2000/svg" width="40.219" height="40.584" viewBox="0 0 40.219 40.584">
  <path id="Path_17211" data-name="Path 17211" d="M148.883,30.085c-.121-.271-.24-.541-.36-.812-.108-.242-.223-.48-.312-.731-.1-.219-.2-.437-.3-.657-.26-.59-.518-1.183-.778-1.773q-.353-.8-.707-1.6c-.107-.2-.176-.413-.278-.613l-.23-.535q0-.024,0-.048a.676.676,0,0,1-.049-.1.4.4,0,0,1-.041-.062c-.209-.471-.415-.942-.625-1.411a2.213,2.213,0,0,0-.177-.373c-.089.189-.168.357-.246.524a1.244,1.244,0,0,1-.131.3,1.06,1.06,0,0,0-.051.114c-.189.435-.393.864-.573,1.3a3.391,3.391,0,0,1-.269.571c0,.008,0,.015,0,.022a.26.26,0,0,1-.046.105.465.465,0,0,1-.076.18c-.025.03-.017.071-.035.106-.136.26-.236.535-.361.8-.092.2-.161.4-.268.595-.261.591-.521,1.182-.785,1.773a1.37,1.37,0,0,1-.18.373,4.018,4.018,0,0,1-.156.4,1.443,1.443,0,0,1-.153.357.615.615,0,0,0-.062.109c-.113.337-.281.65-.418.975-.071.167-.077.164.1.164h7.563c.008-.019.019-.037.009-.059M146.849,28.9q-1.82-.005-3.641,0c-.091,0-.107-.012-.067-.1.05-.1.087-.212.129-.317.21-.525.43-1.045.643-1.569s.442-1.058.653-1.592a.34.34,0,0,1,.057-.1c.067-.236.194-.447.283-.673.036-.092.03-.214.143-.268.272.694.559,1.382.847,2.069.091.216.171.437.259.655a.571.571,0,0,0,.068.107,3.269,3.269,0,0,0,.2.527,6.285,6.285,0,0,0,.258.613.541.541,0,0,1,.05.1c.059.147.113.3.18.442.037.082.028.1-.065.1" transform="translate(-124.915 -6.665)" fill="#ef5423"/>
  <path id="Path_17212" data-name="Path 17212" d="M143.306,33.767h-.1a7.818,7.818,0,0,1-5.5-2.373,7.689,7.689,0,0,1-2.245-5.518,7.837,7.837,0,0,1,7.79-7.709h.007a7.882,7.882,0,0,1,7.806,7.827,7.876,7.876,0,0,1-2.376,5.529,7.66,7.66,0,0,1-5.385,2.246m-.052-14.219a6.448,6.448,0,0,0-6.407,6.347,6.31,6.31,0,0,0,1.849,4.529,6.437,6.437,0,0,0,4.527,1.96,6.274,6.274,0,0,0,4.5-1.849,6.488,6.488,0,0,0,1.961-4.55,6.5,6.5,0,0,0-6.425-6.436Z" transform="translate(-123.155 -5.675)" fill="#ef5423"/>
  <path id="Path_17213" data-name="Path 17213" d="M144.5,11.829h-.086c-.526-.018-1.745-.266-1.706-2.185.024-1.121.019-2.243.015-3.364V6.2l-.063.07a1.961,1.961,0,0,1-1.412.707,1.777,1.777,0,0,1-1.3-.59,1.754,1.754,0,0,1,.116-2.6c1.038-1.05,2.049-2.072,3.079-3.076a1.8,1.8,0,0,1,2.693,0l.588.568a35.545,35.545,0,0,1,2.57,2.655,2.253,2.253,0,0,1,.089,2.328,1.53,1.53,0,0,1-1.136.724,1.91,1.91,0,0,1-1.529-.622c-.053-.054-.105-.109-.155-.165v.06c0,1.131-.009,2.261.013,3.391a2.24,2.24,0,0,1-.55,1.722,1.678,1.678,0,0,1-1.227.462M142.885,3.6l1.213.947,0,1.722c0,1.133.009,2.266-.015,3.4-.016.76.18.767.369.774a.464.464,0,0,0,.3-.063c.035-.035.149-.188.138-.711-.022-1.141-.018-2.281-.013-3.424l0-1.791,1.226-.781.384.514c.1.138.2.279.3.421a6.048,6.048,0,0,0,.607.778.612.612,0,0,0,.4.216c.016,0,.056-.006.115-.1a1.112,1.112,0,0,0,0-.708,35.271,35.271,0,0,0-2.458-2.532l-.594-.573c-.288-.281-.474-.28-.763,0-1.023,1-2.028,2.015-3.034,3.031-.405.41-.253.568-.131.7a.471.471,0,0,0,.284.167h0a.689.689,0,0,0,.411-.26,6.4,6.4,0,0,0,.554-.745c.09-.133.18-.268.274-.4Z" transform="translate(-124.378 -0.099)" fill="#ef5423"/>
  <path id="Path_17214" data-name="Path 17214" d="M165.816,32.148a2.157,2.157,0,0,1-1.112-.277,1.533,1.533,0,0,1-.727-1.133,1.913,1.913,0,0,1,.613-1.532c.056-.055.112-.108.169-.16h-.115c-1.145,0-2.29-.008-3.434.011a2.179,2.179,0,0,1-1.615-.543,1.719,1.719,0,0,1-.467-1.305,1.761,1.761,0,0,1,2-1.718h.063c1.162.021,2.324.017,3.484.012h.089c-.054-.048-.107-.1-.159-.147a1.908,1.908,0,0,1-.633-1.527,1.523,1.523,0,0,1,.714-1.138,2.27,2.27,0,0,1,2.335.073,28.023,28.023,0,0,1,3.294,3.3,2.211,2.211,0,0,1,.008,2.4,28.144,28.144,0,0,1-3.294,3.3,1.9,1.9,0,0,1-1.217.376m-2.6-4.488c.476,0,.953,0,1.43,0l1.772,0,.888,1.174-.546.418c-.136.1-.276.2-.416.306a6.489,6.489,0,0,0-.78.621.6.6,0,0,0-.214.405c0,.016.006.057.1.115a1.109,1.109,0,0,0,.705,0,26.882,26.882,0,0,0,3.115-3.128,1.258,1.258,0,0,0-.025-.647,26.9,26.9,0,0,0-3.114-3.112,1.167,1.167,0,0,0-.684.03c-.089.059-.093.1-.094.113a.6.6,0,0,0,.22.4,5.891,5.891,0,0,0,.786.6c.14.1.281.193.418.292l.533.391-.82,1.233-1.806,0c-1.17,0-2.343.008-3.513-.012-.654-.024-.656.2-.661.373a.441.441,0,0,0,.068.295c.033.033.17.129.608.133.677-.011,1.354-.015,2.032-.015" transform="translate(-130.459 -6.984)" fill="#ef5423"/>
  <path id="Path_17215" data-name="Path 17215" d="M122.523,32.148a1.9,1.9,0,0,1-1.218-.376,28.127,28.127,0,0,1-3.292-3.3,2.21,2.21,0,0,1,.006-2.4,28.047,28.047,0,0,1,3.3-3.3,2.27,2.27,0,0,1,2.335-.072,1.526,1.526,0,0,1,.713,1.137,1.913,1.913,0,0,1-.633,1.527c-.053.051-.105.1-.159.147h.089c1.161.006,2.322.009,3.484-.012h.063a1.761,1.761,0,0,1,2,1.718,1.716,1.716,0,0,1-.467,1.305,2.176,2.176,0,0,1-1.615.543c-1.145-.019-2.289-.015-3.434-.012h-.116c.057.052.113.105.169.16a1.912,1.912,0,0,1,.613,1.532,1.529,1.529,0,0,1-.727,1.132,2.15,2.15,0,0,1-1.112.277m-.014-8.364a.781.781,0,0,0-.322.051,26.808,26.808,0,0,0-3.111,3.122,1.226,1.226,0,0,0,.015.65,26.924,26.924,0,0,0,3.11,3.112,1.154,1.154,0,0,0,.691-.014c.088-.057.093-.1.095-.113a.6.6,0,0,0-.214-.405,6.348,6.348,0,0,0-.778-.621c-.14-.1-.281-.2-.417-.306l-.545-.418.888-1.175,1.771,0c1.155,0,2.309-.008,3.462.012.431-.007.575-.1.608-.133a.438.438,0,0,0,.068-.295c0-.171,0-.4-.661-.373-1.17.02-2.342.017-3.513.012l-1.807,0-.819-1.233.532-.391c.138-.1.279-.2.42-.294a5.872,5.872,0,0,0,.784-.6.606.606,0,0,0,.221-.4c0-.015,0-.055-.095-.113a.906.906,0,0,0-.382-.064" transform="translate(-117.661 -6.984)" fill="#ef5423"/>
  <path id="Path_17216" data-name="Path 17216" d="M144.482,53.575a1.9,1.9,0,0,1-1.323-.586c-1.164-1.13-2.2-2.164-3.161-3.163a1.933,1.933,0,0,1-.593-1.545,1.526,1.526,0,0,1,.73-1.114,2.46,2.46,0,0,1,2.207.024,1.776,1.776,0,0,1,.363.25q0-1.644,0-3.287c0-.067,0-.14-.008-.214a1.568,1.568,0,0,1,.271-1.191c.045-.049,1.1-1.218,1.923-.787a2.467,2.467,0,0,1,1.316,1.754c.08,1.238.068,2.489.055,3.7a1.854,1.854,0,0,1,.4-.261,2.242,2.242,0,0,1,2.277.139A2.129,2.129,0,0,1,149,49.71a39.145,39.145,0,0,1-2.9,2.98l-.339.325a1.852,1.852,0,0,1-1.286.56M141.123,48.3a.608.608,0,0,0-.251.039c-.088.056-.093.1-.095.11a.636.636,0,0,0,.216.421c.953.987,1.976,2.012,3.129,3.13.292.284.481.218.688.02l.34-.326a38.349,38.349,0,0,0,2.8-2.873,1.366,1.366,0,0,0,0-.512,1.474,1.474,0,0,0-.689.1,2.012,2.012,0,0,0-.518.569c-.113.155-.227.308-.347.447l-.346.4-1.176-.564v-.436c0-.46,0-.919.01-1.379.012-1.2.025-2.434-.052-3.633a1.209,1.209,0,0,0-.392-.494,2.394,2.394,0,0,0-.366.287c0,.075,0,.187.009.261.006.1.011.205.01.3q-.006,1.745,0,3.491v1.636l-1.214.593-.346-.427c-.115-.142-.222-.3-.328-.454a2.028,2.028,0,0,0-.492-.579,1.387,1.387,0,0,0-.585-.122" transform="translate(-124.369 -12.991)" fill="#ef5423"/>
  <path id="Path_17217" data-name="Path 17217" d="M132.535,17.02a2.25,2.25,0,0,1-1.59-.82c-.67-.689-1.345-1.372-2.09-2.128a1.877,1.877,0,0,1-.514,1.344,1.737,1.737,0,0,1-1.267.473h-.018a1.677,1.677,0,0,1-1.744-1.8q-.018-2.124,0-4.249a1.716,1.716,0,0,1,1.836-1.831c1.417-.01,2.833-.012,4.25,0a1.683,1.683,0,0,1,1.8,1.749,1.7,1.7,0,0,1-1.745,1.79l-.109,0q1.081,1.049,2.166,2.095c1.379,1.323.675,2.373.309,2.764a1.735,1.735,0,0,1-1.264.61ZM127.473,10.7,129.74,13c.787.8,1.495,1.515,2.2,2.237.362.371.549.4.6.4h0c.093,0,.209-.109.269-.174.145-.155.283-.3-.259-.82q-1.106-1.061-2.2-2.131l-1.269-1.23.519-1.113.874,0c.306,0,.613.007.919-.006.4-.018.426-.161.424-.4s-.032-.376-.425-.38c-1.41-.012-2.819-.01-4.228,0-.37,0-.461.092-.463.458q-.016,2.114,0,4.229c0,.4.142.427.371.428a.51.51,0,0,0,.3-.073.666.666,0,0,0,.1-.422V10.7Z" transform="translate(-120.02 -2.538)" fill="#ef5423"/>
  <path id="Path_17218" data-name="Path 17218" d="M156.938,17.023a1.927,1.927,0,0,1-1.791-1.818,2.383,2.383,0,0,1,.865-1.605c.684-.655,1.361-1.318,2.109-2.048h-.035a1.686,1.686,0,0,1-1.805-1.72,1.662,1.662,0,0,1,1.741-1.816c1.383-.021,2.812-.023,4.369,0a1.689,1.689,0,0,1,1.768,1.778c.022,1.751.021,3.1,0,4.371a1.8,1.8,0,0,1-.652,1.415,1.519,1.519,0,0,1-1.31.258,2.486,2.486,0,0,1-1.479-1.412,1.6,1.6,0,0,1-.095-.3c-.292.283-.57.555-.847.827-.44.432-.833.819-1.214,1.216a2.351,2.351,0,0,1-1.609.857Zm2.878-6.853h1.7l-2.351,2.295c-.781.765-1.485,1.453-2.2,2.133-.393.377-.438.565-.439.628a.473.473,0,0,0,.153.257c.059.059.169.158.256.158h0c.049,0,.239-.032.62-.431s.794-.8,1.2-1.2c.455-.447.865-.846,1.318-1.287L162,10.844v1.639c0,.263-.016.5-.03.718a2.052,2.052,0,0,0,.01.673,1.306,1.306,0,0,0,.533.615.168.168,0,0,0,.141-.008.473.473,0,0,0,.114-.348c.025-1.256.026-2.591,0-4.326,0-.316-.094-.409-.4-.413-1.546-.019-2.961-.019-4.33,0a.468.468,0,0,0-.31.084.462.462,0,0,0-.071.311c.006.227.031.368.449.375.3.006.592.006.989,0Z" transform="translate(-129.231 -2.537)" fill="#ef5423"/>
  <path id="Path_17219" data-name="Path 17219" d="M129.316,46.886c-.651,0-1.3-.015-1.935-.029l-.355-.007a1.687,1.687,0,0,1-1.715-1.822q-.009-2.118,0-4.234a1.687,1.687,0,0,1,1.716-1.815,1.692,1.692,0,0,1,1.827,1.776l1.731-1.724c.194-.2.388-.394.59-.583A1.8,1.8,0,1,1,133.711,41c-.584.6-1.179,1.193-1.773,1.786l-.534.532.079,0a1.832,1.832,0,0,1,1.41.675,1.507,1.507,0,0,1,.246,1.271,2.142,2.142,0,0,1-1.6,1.541c-.738.058-1.48.077-2.219.077m-2.236-6.525h-.024c-.223,0-.361.029-.364.44q-.01,2.109,0,4.219c0,.438.177.442.362.446l.356.008c1.326.029,2.7.059,4.016-.044a1.25,1.25,0,0,0,.364-.475.182.182,0,0,0,0-.126.534.534,0,0,0-.377-.126c-.3-.015-.592-.012-.96-.008l-2.223,0,1.356-1.486c.159-.176.271-.3.389-.418q.492-.495.989-.989c.588-.587,1.177-1.173,1.757-1.77.363-.373.2-.532.074-.66s-.285-.282-.675.082c-.188.175-.368.358-.548.541l-4.1,4.074V41.75c0-.357,0-.634,0-.911a.639.639,0,0,0-.105-.407.44.44,0,0,0-.287-.071" transform="translate(-120.02 -11.75)" fill="#ef5423"/>
  <path id="Path_17220" data-name="Path 17220" d="M160.319,46.876q-1.1,0-2.2-.008a1.847,1.847,0,0,1-1.378-.525,1.751,1.751,0,0,1-.454-1.322,1.676,1.676,0,0,1,1.782-1.7c-.611-.612-1.182-1.183-1.749-1.755l-.191-.187c-.517-.5-1.594-1.54-.488-2.91a1.518,1.518,0,0,1,1.126-.6A2.94,2.94,0,0,1,158.842,39c.6.615,1.19,1.238,1.78,1.862,0-.045,0-.089,0-.134a1.769,1.769,0,0,1,3.537.048c.016,1.412.01,2.826,0,4.239a1.718,1.718,0,0,1-1.809,1.854q-1.018.011-2.037.011m-1.7-2.171-.5,0c-.443,0-.448.161-.455.36a.475.475,0,0,0,.069.319.6.6,0,0,0,.39.1c1.4.009,2.809.014,4.214,0,.325,0,.44-.077.442-.478.008-1.406.014-2.811,0-4.216,0-.359-.116-.418-.382-.42-.243.009-.375.034-.391.411-.012.308-.008.615,0,.923l0,.85-1.112.6-1.177-1.242c-.617-.653-1.235-1.307-1.863-1.949-.691-.707-.989-.72-1.023-.715s-.083.051-.115.092c-.268.331-.293.4.373,1.047l.212.207c.642.647,1.287,1.293,1.99,2l2.109,2.113h-2.78" transform="translate(-129.234 -11.757)" fill="#ef5423"/>
</svg>
