<svg xmlns="http://www.w3.org/2000/svg" xmlns:xlink="http://www.w3.org/1999/xlink" width="34.041" height="34.041" viewBox="0 0 34.041 34.041">
  <defs>
    <clipPath id="clip-path">
      <path id="Path_17305" data-name="Path 17305" d="M0,0H34.041V34.041H0Z" fill="none"/>
    </clipPath>
  </defs>
  <g id="changes" clip-path="url(#clip-path)">
    <path id="Path_17304" data-name="Path 17304" d="M23.2,13.579l-8.028,8.028a1.413,1.413,0,0,1-2,0L9.163,17.593a1.414,1.414,0,0,1,2-2L14.17,18.6l7.021-7.021a1.419,1.419,0,0,1,2.014,2ZM4.837,16.09a11.271,11.271,0,0,1,3.716-8.34l2.17,2.17a.709.709,0,0,0,1.206-.511V3.324a.7.7,0,0,0-.709-.709H5.135a.7.7,0,0,0-.5,1.206l1.9,1.915a14.152,14.152,0,0,0,6.468,24.183,1.426,1.426,0,1,0,.638-2.78A11.347,11.347,0,0,1,4.837,16.09Zm25.531,0A14.206,14.206,0,0,0,19.361,2.26a1.426,1.426,0,1,0-.638,2.78A11.292,11.292,0,0,1,23.815,24.43l-2.17-2.17a.709.709,0,0,0-1.206.511v6.085a.7.7,0,0,0,.709.709h6.085a.7.7,0,0,0,.5-1.206l-1.9-1.915A14.089,14.089,0,0,0,30.368,16.09Z" transform="translate(0.837 0.931)" fill="#fff"/>
  </g>
</svg>
