<svg xmlns="http://www.w3.org/2000/svg" xmlns:xlink="http://www.w3.org/1999/xlink" width="317.771" height="102.869" viewBox="0 0 317.771 102.869">
  <defs>
    <clipPath id="clip-path">
      <rect id="Rectangle_847" data-name="Rectangle 847" width="317.771" height="102.869" fill="#fff"/>
    </clipPath>
  </defs>
  <g id="Group_1108" data-name="Group 1108" clip-path="url(#clip-path)">
    <path id="Path_710" data-name="Path 710" d="M1.9,76.056a6.511,6.511,0,0,1-1.9-4.8,6.432,6.432,0,0,1,1.988-4.837,6.785,6.785,0,0,1,4.871-1.9A7.313,7.313,0,0,1,12.135,66.7l-1.6,1.689a4.917,4.917,0,0,0-3.675-1.548,4.337,4.337,0,0,0-3.148,1.25,4.6,4.6,0,0,0-.018,6.278,4.219,4.219,0,0,0,3.131,1.266,5.2,5.2,0,0,0,3.64-1.5V72.169H6.7V70.058h5.981v5.259a7.9,7.9,0,0,1-5.927,2.621A6.69,6.69,0,0,1,1.9,76.056" transform="translate(0 24.562)" fill="#fff"/>
    <rect id="Rectangle_843" data-name="Rectangle 843" width="2.286" height="13.367" transform="translate(14.683 88.94)" fill="#fff"/>
    <path id="Path_711" data-name="Path 711" d="M15.026,68.462A4.97,4.97,0,0,1,18.7,67a4.9,4.9,0,0,1,3.659,1.461A4.812,4.812,0,0,1,23.8,72.014a4.933,4.933,0,0,1-5.1,5.03,4.9,4.9,0,0,1-5.1-5.03,4.865,4.865,0,0,1,1.424-3.553m5.664,1.512a2.76,2.76,0,0,0-3.975,0,3,3,0,0,0,0,4.1,2.763,2.763,0,0,0,3.975,0,3,3,0,0,0,0-4.1" transform="translate(5.178 25.508)" fill="#fff"/>
    <path id="Path_712" data-name="Path 712" d="M30.992,69.446a5.329,5.329,0,0,1,0,7.14,4.49,4.49,0,0,1-3.4,1.425,3.76,3.76,0,0,1-3.06-1.5v1.266H22.287V64.416h2.286v5.047A3.82,3.82,0,0,1,27.615,68a4.4,4.4,0,0,1,3.377,1.443m-1.741,1.512a2.546,2.546,0,0,0-1.988-.845,2.583,2.583,0,0,0-2,.845A2.891,2.891,0,0,0,24.485,73a2.976,2.976,0,0,0,.773,2.075,2.626,2.626,0,0,0,2,.826,2.587,2.587,0,0,0,1.988-.826A2.977,2.977,0,0,0,30.026,73a2.892,2.892,0,0,0-.775-2.041" transform="translate(8.485 24.524)" fill="#fff"/>
    <path id="Path_713" data-name="Path 713" d="M38.37,67.243h2.18v9.55H38.37V75.615a4,4,0,0,1-3.114,1.407,4.414,4.414,0,0,1-3.394-1.443,5.109,5.109,0,0,1-1.337-3.605,4.925,4.925,0,0,1,1.337-3.553,4.539,4.539,0,0,1,3.394-1.407,4.019,4.019,0,0,1,3.114,1.441Zm-.739,2.709a2.844,2.844,0,0,0-4.045,0,3.147,3.147,0,0,0,0,4.132,2.844,2.844,0,0,0,4.045,0,3.094,3.094,0,0,0,0-4.132" transform="translate(11.622 25.513)" fill="#fff"/>
    <rect id="Rectangle_844" data-name="Rectangle 844" width="2.286" height="13.367" transform="translate(54.509 88.94)" fill="#fff"/>
    <path id="Path_714" data-name="Path 714" d="M54.2,77.681l-1.073-2.955H48.514l-1.071,2.955H44.891l5.03-13h1.847l4.977,13Zm-3.359-9.568-1.618,4.45h3.218Z" transform="translate(17.091 24.625)" fill="#fff"/>
    <path id="Path_715" data-name="Path 715" d="M53.844,75.164l1.3-1.407a3.328,3.328,0,0,0,2.567,1.354c.827,0,1.407-.439,1.407-1a1.055,1.055,0,0,0-.721-.914,10.847,10.847,0,0,0-1.161-.475c-.6-.229-1-.4-1.214-.511a2.651,2.651,0,0,1-.65-4.467,3.815,3.815,0,0,1,2.516-.793,4.164,4.164,0,0,1,3.271,1.408l-1.2,1.459a2.886,2.886,0,0,0-2.146-.986c-.721,0-1.161.388-1.161.9,0,.422.282.739.827.932,1.371.545,2.146.862,2.3.95a2.68,2.68,0,0,1,1.618,2.427A2.718,2.718,0,0,1,60.387,76.2a4.024,4.024,0,0,1-2.691.862,4.631,4.631,0,0,1-3.852-1.9" transform="translate(20.499 25.488)" fill="#fff"/>
    <path id="Path_716" data-name="Path 716" d="M59.957,75.164l1.3-1.407a3.328,3.328,0,0,0,2.567,1.354c.827,0,1.407-.439,1.407-1a1.055,1.055,0,0,0-.721-.914,10.982,10.982,0,0,0-1.161-.475c-.6-.229-1-.4-1.214-.511a2.651,2.651,0,0,1-.65-4.467A3.815,3.815,0,0,1,64,66.95a4.164,4.164,0,0,1,3.271,1.408l-1.2,1.459a2.886,2.886,0,0,0-2.146-.986c-.721,0-1.161.388-1.161.9,0,.422.282.739.827.932,1.371.545,2.146.862,2.3.95a2.68,2.68,0,0,1,1.618,2.427A2.718,2.718,0,0,1,66.5,76.2a4.024,4.024,0,0,1-2.691.862,4.631,4.631,0,0,1-3.852-1.9" transform="translate(22.826 25.488)" fill="#fff"/>
    <path id="Path_717" data-name="Path 717" d="M66.515,65.7a1.435,1.435,0,0,1,1.477-1.441A1.443,1.443,0,1,1,66.515,65.7m2.6,12.136h-2.3v-9.55h2.3Z" transform="translate(25.323 24.466)" fill="#fff"/>
    <path id="Path_718" data-name="Path 718" d="M69.5,75.164l1.3-1.407a3.328,3.328,0,0,0,2.567,1.354c.827,0,1.407-.439,1.407-1a1.055,1.055,0,0,0-.721-.914,10.98,10.98,0,0,0-1.161-.475c-.6-.229-1-.4-1.214-.511a2.651,2.651,0,0,1-.65-4.467,3.815,3.815,0,0,1,2.516-.793,4.164,4.164,0,0,1,3.271,1.408l-1.2,1.459a2.886,2.886,0,0,0-2.146-.986c-.721,0-1.161.388-1.161.9,0,.422.282.739.827.932,1.371.545,2.146.862,2.3.95a2.68,2.68,0,0,1,1.618,2.427A2.718,2.718,0,0,1,76.038,76.2a4.024,4.024,0,0,1-2.691.862,4.631,4.631,0,0,1-3.852-1.9" transform="translate(26.458 25.488)" fill="#fff"/>
    <path id="Path_719" data-name="Path 719" d="M83.135,77.1a4.739,4.739,0,0,1-2.761.791c-2.165,0-3.272-1.283-3.272-3.728V70.046H75.518V68.111h1.618V64.734h2.27v3.377h3.2v1.934h-3.2v4.028c0,1.143.457,1.725,1.389,1.725a3.085,3.085,0,0,0,1.618-.493Z" transform="translate(28.751 24.645)" fill="#fff"/>
    <path id="Path_720" data-name="Path 720" d="M89.285,67.243h2.18v9.55h-2.18V75.615a4,4,0,0,1-3.114,1.407,4.414,4.414,0,0,1-3.394-1.443,5.109,5.109,0,0,1-1.337-3.605,4.925,4.925,0,0,1,1.337-3.553,4.539,4.539,0,0,1,3.394-1.407,4.019,4.019,0,0,1,3.114,1.441Zm-.739,2.709a2.844,2.844,0,0,0-4.045,0,3.147,3.147,0,0,0,0,4.132,2.844,2.844,0,0,0,4.045,0,3.094,3.094,0,0,0,0-4.132" transform="translate(31.006 25.513)" fill="#fff"/>
    <path id="Path_721" data-name="Path 721" d="M90.394,76.8v-9.55h2.251v1.337A3.269,3.269,0,0,1,95.653,67a3.738,3.738,0,0,1,2.655,1.037A3.852,3.852,0,0,1,99.4,70.977V76.8h-2.3V71.609c0-1.6-.827-2.514-2.093-2.514a2.348,2.348,0,0,0-2.321,2.55V76.8Z" transform="translate(34.414 25.508)" fill="#fff"/>
    <path id="Path_722" data-name="Path 722" d="M99.543,75.6a4.863,4.863,0,0,1-1.407-3.587,4.808,4.808,0,0,1,1.425-3.588,5.054,5.054,0,0,1,3.693-1.407,4.717,4.717,0,0,1,4.432,2.621l-1.864,1a2.956,2.956,0,0,0-2.534-1.513,2.8,2.8,0,0,0-2.866,2.886,2.841,2.841,0,0,0,.791,2.057,2.677,2.677,0,0,0,2,.827,2.956,2.956,0,0,0,2.568-1.5l1.864,1.091A5.3,5.3,0,0,1,99.543,75.6" transform="translate(37.362 25.513)" fill="#fff"/>
    <path id="Path_723" data-name="Path 723" d="M115.4,72.836h-7.282a2.74,2.74,0,0,0,2.919,2.2,5.387,5.387,0,0,0,3.149-.986l.914,1.636A6.758,6.758,0,0,1,110.948,77a4.782,4.782,0,0,1-5.171-4.994,4.9,4.9,0,0,1,1.371-3.571,4.811,4.811,0,0,1,3.588-1.425,4.529,4.529,0,0,1,4.732,4.8,8.278,8.278,0,0,1-.07,1.02M108.116,71.1h5.1a2.394,2.394,0,0,0-2.48-2.164,2.593,2.593,0,0,0-2.621,2.164" transform="translate(40.271 25.513)" fill="#fff"/>
    <path id="Path_724" data-name="Path 724" d="M117.506,73.255a2.7,2.7,0,0,1,2.778-2.673,2.629,2.629,0,0,1,2.673,2.673A2.665,2.665,0,0,1,120.284,76a2.731,2.731,0,0,1-2.778-2.742" transform="translate(44.736 26.871)" fill="#fff"/>
    <path id="Path_725" data-name="Path 725" d="M129.25,67H125.5V64.684h9.919V67h-3.746V77.68H129.25Z" transform="translate(47.781 24.626)" fill="#fff"/>
    <path id="Path_726" data-name="Path 726" d="M133.056,76.8v-9.55h2.2v1.32A2.869,2.869,0,0,1,137.911,67a3.472,3.472,0,0,1,1.143.193l-.195,2.2a3.675,3.675,0,0,0-1.107-.193c-1.425,0-2.409.95-2.409,2.937V76.8Z" transform="translate(50.656 25.508)" fill="#fff"/>
    <path id="Path_727" data-name="Path 727" d="M145.536,67.243h2.182v9.55h-2.182V75.615a3.992,3.992,0,0,1-3.112,1.407,4.415,4.415,0,0,1-3.4-1.443,5.109,5.109,0,0,1-1.337-3.605,4.925,4.925,0,0,1,1.337-3.553,4.54,4.54,0,0,1,3.4-1.407,4.019,4.019,0,0,1,3.112,1.441Zm-.739,2.709a2.843,2.843,0,0,0-4.045,0,3.147,3.147,0,0,0,0,4.132,2.844,2.844,0,0,0,4.045,0,3.094,3.094,0,0,0,0-4.132" transform="translate(52.421 25.513)" fill="#fff"/>
    <path id="Path_728" data-name="Path 728" d="M153.446,67.18h2.514l-4.168,9.532h-1.723l-4.15-9.532h2.532l2.516,6.4Z" transform="translate(55.553 25.576)" fill="#fff"/>
    <path id="Path_729" data-name="Path 729" d="M163.054,72.836h-7.282a2.74,2.74,0,0,0,2.919,2.2,5.39,5.39,0,0,0,3.149-.986l.914,1.636A6.758,6.758,0,0,1,158.6,77a4.782,4.782,0,0,1-5.171-4.994,4.891,4.891,0,0,1,1.372-3.571,4.805,4.805,0,0,1,3.587-1.425,4.527,4.527,0,0,1,4.73,4.8,8.236,8.236,0,0,1-.069,1.02M155.772,71.1h5.1a2.393,2.393,0,0,0-2.48-2.164,2.593,2.593,0,0,0-2.621,2.164" transform="translate(58.414 25.513)" fill="#fff"/>
    <rect id="Rectangle_845" data-name="Rectangle 845" width="2.286" height="13.367" transform="translate(223.311 88.94)" fill="#fff"/>
    <rect id="Rectangle_846" data-name="Rectangle 846" width="2.409" height="12.997" transform="translate(232.613 89.309)" fill="#fff"/>
    <path id="Path_730" data-name="Path 730" d="M172.1,76.8v-9.55h2.251v1.337A3.27,3.27,0,0,1,177.361,67a3.738,3.738,0,0,1,2.655,1.037,3.852,3.852,0,0,1,1.091,2.938V76.8h-2.3V71.609c0-1.6-.827-2.514-2.092-2.514a2.348,2.348,0,0,0-2.322,2.55V76.8Z" transform="translate(65.522 25.508)" fill="#fff"/>
    <path id="Path_731" data-name="Path 731" d="M179.654,75.164l1.3-1.407a3.328,3.328,0,0,0,2.568,1.354c.826,0,1.406-.439,1.406-1a1.055,1.055,0,0,0-.721-.914,10.981,10.981,0,0,0-1.161-.475c-.6-.229-1-.4-1.214-.511a2.651,2.651,0,0,1-.65-4.467,3.815,3.815,0,0,1,2.516-.793,4.162,4.162,0,0,1,3.271,1.408l-1.2,1.459a2.886,2.886,0,0,0-2.146-.986c-.722,0-1.161.388-1.161.9,0,.422.282.739.827.932,1.372.545,2.146.862,2.3.95a2.682,2.682,0,0,1,1.618,2.427A2.718,2.718,0,0,1,186.2,76.2a4.024,4.024,0,0,1-2.691.862,4.631,4.631,0,0,1-3.852-1.9" transform="translate(68.397 25.488)" fill="#fff"/>
    <path id="Path_732" data-name="Path 732" d="M186.315,72.738V67.179h2.3v5.559a2.017,2.017,0,1,0,4.028,0V67.179h2.3v5.559c0,2.655-1.635,4.221-4.326,4.221a3.934,3.934,0,0,1-4.309-4.221" transform="translate(70.933 25.576)" fill="#fff"/>
    <path id="Path_733" data-name="Path 733" d="M194.16,76.8v-9.55h2.2v1.32A2.869,2.869,0,0,1,199.015,67a3.472,3.472,0,0,1,1.143.193l-.195,2.2a3.675,3.675,0,0,0-1.107-.193c-1.425,0-2.409.95-2.409,2.937V76.8Z" transform="translate(73.919 25.508)" fill="#fff"/>
    <path id="Path_734" data-name="Path 734" d="M206.639,67.243h2.182v9.55h-2.182V75.615a3.992,3.992,0,0,1-3.112,1.407,4.415,4.415,0,0,1-3.4-1.443,5.109,5.109,0,0,1-1.337-3.605,4.925,4.925,0,0,1,1.337-3.553,4.54,4.54,0,0,1,3.4-1.407,4.019,4.019,0,0,1,3.112,1.441Zm-.739,2.709a2.843,2.843,0,0,0-4.045,0,3.147,3.147,0,0,0,0,4.132,2.844,2.844,0,0,0,4.045,0,3.094,3.094,0,0,0,0-4.132" transform="translate(75.684 25.513)" fill="#fff"/>
    <path id="Path_735" data-name="Path 735" d="M207.748,76.8v-9.55H210v1.337A3.27,3.27,0,0,1,213.007,67a3.738,3.738,0,0,1,2.655,1.037,3.852,3.852,0,0,1,1.091,2.938V76.8h-2.3V71.609c0-1.6-.827-2.514-2.092-2.514a2.348,2.348,0,0,0-2.322,2.55V76.8Z" transform="translate(79.092 25.508)" fill="#fff"/>
    <path id="Path_736" data-name="Path 736" d="M216.9,75.6a4.863,4.863,0,0,1-1.407-3.587,4.813,4.813,0,0,1,1.423-3.588,5.058,5.058,0,0,1,3.695-1.407,4.719,4.719,0,0,1,4.432,2.621l-1.865,1a2.952,2.952,0,0,0-2.532-1.513,2.8,2.8,0,0,0-2.866,2.886,2.841,2.841,0,0,0,.791,2.057,2.677,2.677,0,0,0,2,.827,2.958,2.958,0,0,0,2.568-1.5l1.864,1.091A5.3,5.3,0,0,1,216.9,75.6" transform="translate(82.04 25.513)" fill="#fff"/>
    <path id="Path_737" data-name="Path 737" d="M232.753,72.836h-7.282a2.74,2.74,0,0,0,2.919,2.2,5.391,5.391,0,0,0,3.149-.986l.914,1.636A6.757,6.757,0,0,1,228.3,77a4.782,4.782,0,0,1-5.171-4.994A4.891,4.891,0,0,1,224.5,68.44a4.805,4.805,0,0,1,3.587-1.425,4.527,4.527,0,0,1,4.73,4.8,8.236,8.236,0,0,1-.069,1.02M225.471,71.1h5.1a2.393,2.393,0,0,0-2.48-2.164,2.593,2.593,0,0,0-2.621,2.164" transform="translate(84.949 25.513)" fill="#fff"/>
    <path id="Path_738" data-name="Path 738" d="M194.524,38.072l.428-1.1,4.712-12.131,1.048-2.7-2.7,1.048L185.883,27.9l-1.194.465-.465,1.194L179.511,41.7l-1.048,2.7h0l2.7-1.048,12.132-4.714.976-.38.218-.084Zm2.3-12.044h0l-3.78,9.038-2.629-2.629-2.629-2.629Zm-14.48,14.48,3.782-9.04,2.629,2.629h0l2.629,2.628-9.038,3.782Z" transform="translate(67.943 8.43)" fill="#fff"/>
    <path id="Path_739" data-name="Path 739" d="M60.188,55.014l5.68-5.462A15.011,15.011,0,0,0,79.2,57.782c5.535,0,9.178-3.278,9.178-7.356,0-2.7-1.749-5.026-5.318-6.919q-1.311-.657-5.462-2.4c-2.7-1.239-4.806-2.257-6.191-3.06-5.462-3.278-8.157-7.648-8.157-13.037a13.769,13.769,0,0,1,4.661-10.634c3.133-2.84,7.211-4.3,12.236-4.3A19.957,19.957,0,0,1,96.531,17.8L91.36,23.55a13.723,13.723,0,0,0-11.144-5.535c-4.661,0-8.011,2.549-8.011,6.554,0,2.55,1.528,4.734,4.515,6.409.947.511,2.915,1.53,6.046,2.986,3.131,1.385,5.317,2.477,6.627,3.2,5.462,2.986,8.23,7.283,8.23,12.819a14.455,14.455,0,0,1-5.171,11.363c-3.424,2.913-7.867,4.37-13.256,4.37-7.867,0-15.149-3.787-19.01-10.707" transform="translate(22.914 3.836)" fill="#fff"/>
    <path id="Path_740" data-name="Path 740" d="M94.159,64.585V10.761h34.377V18.7h-26V33.34h24.109v7.939H102.534V56.646h26.075v7.939Z" transform="translate(35.848 4.097)" fill="#fff"/>
    <path id="Path_741" data-name="Path 741" d="M131.512,57.855q-7.866-7.866-7.866-19.884c0-8.085,2.7-14.713,8.157-19.957a27.47,27.47,0,0,1,19.957-7.939c8.958,0,17.335,3.787,22.214,9.542l-5.753,5.68a21.134,21.134,0,0,0-16.388-7.064,18.994,18.994,0,0,0-13.984,5.607,19.211,19.211,0,0,0-5.608,14.13,19.1,19.1,0,0,0,5.535,14.057,18.719,18.719,0,0,0,13.838,5.535A23.026,23.026,0,0,0,168,50.571V40.957h-16.97V33.381H175.8V54.5c-6.7,7.43-14.859,11.144-24.4,11.144-8.012,0-14.64-2.622-19.884-7.793" transform="translate(47.074 3.835)" fill="#fff"/>
    <path id="Path_742" data-name="Path 742" d="M174.312,57.781a26.64,26.64,0,0,1-7.939-19.592,27.042,27.042,0,0,1,8.157-19.884,27.955,27.955,0,0,1,39.548-.072,26.826,26.826,0,0,1,8.159,19.737,26.553,26.553,0,0,1-8.159,19.666,27.355,27.355,0,0,1-20.027,8.084,26.855,26.855,0,0,1-19.739-7.939m33.576-5.827A18.946,18.946,0,0,0,213.5,38.044a19.163,19.163,0,0,0-5.608-14.057,19.254,19.254,0,0,0-27.24.073,18.937,18.937,0,0,0-5.535,13.984,19.07,19.07,0,0,0,5.462,13.839,19.524,19.524,0,0,0,27.313.072" transform="translate(63.34 3.835)" fill="#fff"/>
    <path id="Path_743" data-name="Path 743" d="M66.029,51.6l-3.4-7.725L51.584,18.795l-3.84-8.716h0L43.9,18.795,32.861,43.87l-3.4,7.725-6.22,14.126h9.1L38.134,51.6h19.22l5.792,14.126h9.1ZM47.744,43.87H41.3l6.441-15.71h0L54.186,43.87Z" transform="translate(8.847 3.836)" fill="#fff"/>
    <path id="Path_744" data-name="Path 744" d="M177.337,7.121V0H202.7V7.047Z" transform="translate(67.515 0)" fill="#fff"/>
  </g>
</svg>
