<svg xmlns="http://www.w3.org/2000/svg" width="20.909" height="20.909" viewBox="0 0 20.909 20.909">
  <g id="Icon_feather-eye-off" data-name="Icon feather-eye-off" transform="translate(-0.581 -0.581)">
    <path id="Path_17209" data-name="Path 17209" d="M16.184,18.084a8.729,8.729,0,0,1-5.149,1.786c-6.068,0-9.535-6.935-9.535-6.935A15.993,15.993,0,0,1,5.886,7.786M9.215,6.208A7.906,7.906,0,0,1,11.035,6c6.068,0,9.535,6.935,9.535,6.935A16.036,16.036,0,0,1,18.7,15.7m-5.825-.928A2.6,2.6,0,1,1,9.2,11.1" transform="translate(0 -1.899)" fill="none" stroke="#585857" stroke-linecap="round" stroke-linejoin="round" stroke-width="1.3"/>
    <path id="Path_17210" data-name="Path 17210" d="M1.5,1.5,20.57,20.57" fill="none" stroke="#585857" stroke-linecap="round" stroke-linejoin="round" stroke-width="1.3"/>
  </g>
</svg>
