<svg xmlns="http://www.w3.org/2000/svg" width="21.729" height="21.729" viewBox="0 0 21.729 21.729">
  <path id="Icon_metro-warning" data-name="Icon metro-warning" d="M13.435,3.9,22.54,22.044H4.33L13.435,3.9Zm0-1.969a1.571,1.571,0,0,0-1.292.947L2.869,21.36c-.711,1.263-.106,2.3,1.343,2.3H22.658c1.449,0,2.054-1.034,1.343-2.3h0L14.727,2.875A1.57,1.57,0,0,0,13.435,1.928Zm1.358,17.655a1.358,1.358,0,1,1-1.358-1.358A1.358,1.358,0,0,1,14.793,19.583Zm-1.358-2.716a1.358,1.358,0,0,1-1.358-1.358V11.434a1.358,1.358,0,1,1,2.716,0v4.074A1.358,1.358,0,0,1,13.435,16.866Z" transform="translate(-2.571 -1.928)" fill="#ff4d58"/>
</svg>
