<svg xmlns="http://www.w3.org/2000/svg" width="39.93" height="37.459" viewBox="0 0 39.93 37.459">
  <g id="rupees_1_" data-name="rupees (1)" transform="translate(0 -0.144)">
    <path id="Path_17796" data-name="Path 17796" d="M60.678,3.527l-.2,24.684h15.96a.555.555,0,0,1,.555.555v3.691a5.014,5.014,0,0,0,9.954.977A8.458,8.458,0,0,1,79.407,22.4a.552.552,0,0,1-.336.114H76.335a.555.555,0,0,1,0-1.111h2.736a.556.556,0,0,1,.54.426,8.447,8.447,0,0,1,7.427-5.284V3.065A4.019,4.019,0,0,1,88.295.144h-24.2a3.427,3.427,0,0,0-3.416,3.382ZM73.984,22.512H64.239a.555.555,0,1,1,0-1.111h9.745a.555.555,0,0,1,0,1.111Zm-3.258-7.1a.555.555,0,0,1,.555-.555h2.164a.555.555,0,1,1,0,1.111H71.281A.556.556,0,0,1,70.726,15.416Zm11.98.555H75.795a.555.555,0,0,1,0-1.111h6.911a.555.555,0,1,1,0,1.111ZM81.372,8.32h1.333a.555.555,0,1,1,0,1.111H81.372a.555.555,0,1,1,0-1.111Zm-10.182,0h7.841a.555.555,0,1,1,0,1.111H71.19a.555.555,0,1,1,0-1.111Zm-2.3,7.651H64.239a.555.555,0,1,1,0-1.111h4.655a.555.555,0,0,1,0,1.111ZM68.881,8.32a.555.555,0,1,1,0,1.111H64.239a.555.555,0,1,1,0-1.111Zm0,0" transform="translate(-54.877)" fill="#4e5868"/>
    <path id="Path_17797" data-name="Path 17797" d="M359.375,10.041h5.84V3.228a2.92,2.92,0,0,0-5.84,0Zm0,0" transform="translate(-326.103 -0.163)" fill="#4e5868"/>
    <path id="Path_17798" data-name="Path 17798" d="M5.021,323.585H23.654A6.288,6.288,0,0,1,21,318.44V315.3H0v3.136a5.09,5.09,0,0,0,5.021,5.145Zm0,0" transform="translate(0 -285.982)" fill="#4e5868"/>
    <path id="Path_17799" data-name="Path 17799" d="M285.038,191.257a7.35,7.35,0,1,0-5.2,12.547l.11,0a7.349,7.349,0,0,0,5.093-12.545Zm-3.5,2.808,1.065.012a.556.556,0,0,1-.006,1.111h-.006l-1.065-.012a2.918,2.918,0,0,1-2.857,2.331h-.032l-.179,0,2.892,2.792a.556.556,0,1,1-.772.8l-3.9-3.762a.556.556,0,0,1,.392-.955l1.575.017a1.805,1.805,0,0,0,1.731-1.232l-3.293-.035a.555.555,0,0,1,.006-1.111h.006l3.294.035a1.805,1.805,0,0,0-1.7-1.269l-1.575-.017a.555.555,0,1,1,.006-1.111h.006l1.575.017,3.929.042a.556.556,0,0,1-.006,1.111h-.006l-1.639-.018A2.884,2.884,0,0,1,281.534,194.065Zm0,0" transform="translate(-247.261 -171.465)" fill="#4e5868"/>
  </g>
</svg>
