<svg xmlns="http://www.w3.org/2000/svg" width="19.619" height="17.436" viewBox="0 0 19.619 17.436">
  <path id="Icon_awesome-edit" data-name="Icon awesome-edit" d="M13.713,2.838,16.785,5.91a.333.333,0,0,1,0,.47L9.346,13.819l-3.161.351a.662.662,0,0,1-.732-.732L5.8,10.276l7.439-7.439A.333.333,0,0,1,13.713,2.838Zm5.518-.78L17.569.4a1.332,1.332,0,0,0-1.88,0L14.483,1.6a.333.333,0,0,0,0,.47l3.072,3.072a.333.333,0,0,0,.47,0l1.206-1.206a1.332,1.332,0,0,0,0-1.88ZM13.079,11.8v3.467H2.18V4.363h7.827a.419.419,0,0,0,.29-.119l1.362-1.362a.409.409,0,0,0-.29-.7H1.635A1.635,1.635,0,0,0,0,3.818V15.808a1.635,1.635,0,0,0,1.635,1.635H13.624a1.635,1.635,0,0,0,1.635-1.635V10.433a.409.409,0,0,0-.7-.29L13.2,11.506A.419.419,0,0,0,13.079,11.8Z" transform="translate(0 -0.007)" fill="#ff5100"/>
</svg>
