<svg id="Approved" xmlns="http://www.w3.org/2000/svg" width="40.981" height="42.723" viewBox="0 0 40.981 42.723">
  <path id="Path_55" data-name="Path 55" d="M10.587,20.017a1.489,1.489,0,1,1,2.106-2.106l3.583,3.583L24.5,13.273A1.49,1.49,0,1,1,26.6,15.381l-9.272,9.274a1.491,1.491,0,0,1-2.108,0Z" transform="translate(1.895 2.397)" fill="#4e5868" fill-rule="evenodd"/>
  <path id="Path_56" data-name="Path 56" d="M17.971,1.043a3.564,3.564,0,0,1,5.039,0l2.871,2.871a.58.58,0,0,0,.5.163l4.01-.634A3.562,3.562,0,0,1,34.472,6.4l.634,4.01a.586.586,0,0,0,.312.429l3.617,1.842a3.562,3.562,0,0,1,1.558,4.793L38.75,21.1a.577.577,0,0,0,0,.529l1.842,3.618a3.562,3.562,0,0,1-1.558,4.793l-3.617,1.842a.587.587,0,0,0-.312.429l-.634,4.01a3.562,3.562,0,0,1-4.078,2.961l-4.01-.634a.581.581,0,0,0-.5.163L23.01,41.679a3.564,3.564,0,0,1-5.039,0L15.1,38.808a.581.581,0,0,0-.5-.163l-4.01.634a3.562,3.562,0,0,1-4.078-2.961l-.634-4.01a.586.586,0,0,0-.312-.429L1.947,30.037A3.562,3.562,0,0,1,.389,25.244l1.842-3.618a.577.577,0,0,0,0-.529L.389,17.479a3.562,3.562,0,0,1,1.558-4.793l3.617-1.842a.586.586,0,0,0,.312-.429L6.509,6.4a3.562,3.562,0,0,1,4.078-2.961l4.01.634a.58.58,0,0,0,.5-.163Zm2.108,2.108L17.208,6.023a3.563,3.563,0,0,1-3.078,1l-4.01-.636a.581.581,0,0,0-.433.105.574.574,0,0,0-.232.38l-.636,4.01a3.558,3.558,0,0,1-1.9,2.617L3.3,15.342a.586.586,0,0,0-.254.783l1.844,3.618a3.558,3.558,0,0,1,0,3.235L3.044,26.6a.586.586,0,0,0,.254.783l3.618,1.844a3.558,3.558,0,0,1,1.9,2.617l.636,4.01a.575.575,0,0,0,.232.38.581.581,0,0,0,.433.105l4.01-.636a3.563,3.563,0,0,1,3.078,1l2.871,2.871a.58.58,0,0,0,.823,0L23.773,36.7a3.563,3.563,0,0,1,3.078-1l4.01.636a.581.581,0,0,0,.433-.105.575.575,0,0,0,.232-.38l.636-4.01a3.558,3.558,0,0,1,1.9-2.617l3.618-1.844a.586.586,0,0,0,.254-.783l-1.844-3.618a3.558,3.558,0,0,1,0-3.235l1.844-3.618a.586.586,0,0,0-.254-.783L34.064,13.5a3.558,3.558,0,0,1-1.9-2.617l-.636-4.01a.574.574,0,0,0-.232-.38.581.581,0,0,0-.433-.105l-4.01.636a3.563,3.563,0,0,1-3.078-1L20.9,3.152a.58.58,0,0,0-.823,0Z" transform="translate(0 0)" fill="#4e5868" fill-rule="evenodd"/>
</svg>
