<svg xmlns="http://www.w3.org/2000/svg" width="29.736" height="31" viewBox="0 0 29.736 31">
  <g id="Group_31952" data-name="Group 31952" transform="translate(-548 -10706)">
    <g id="Group_31951" data-name="Group 31951" transform="translate(548 10706)">
      <path id="Path_55" data-name="Path 55" d="M10.587,20.017a1.489,1.489,0,1,1,2.106-2.106l3.583,3.583L24.5,13.273A1.49,1.49,0,1,1,26.6,15.381l-9.272,9.274a1.491,1.491,0,0,1-2.108,0Z" transform="translate(-3.727 -3.464)" fill="#ff7433" fill-rule="evenodd"/>
      <path id="Path_56" data-name="Path 56" d="M13.04.757a2.586,2.586,0,0,1,3.657,0L18.78,2.84a.421.421,0,0,0,.365.118l2.91-.46a2.585,2.585,0,0,1,2.959,2.148l.46,2.91a.426.426,0,0,0,.226.311L28.323,9.2a2.585,2.585,0,0,1,1.13,3.478l-1.337,2.626a.419.419,0,0,0,0,.384l1.337,2.626a2.585,2.585,0,0,1-1.13,3.478L25.7,23.132a.426.426,0,0,0-.226.311l-.46,2.91A2.584,2.584,0,0,1,22.054,28.5l-2.91-.46a.421.421,0,0,0-.365.118L16.7,30.243a2.586,2.586,0,0,1-3.657,0L10.956,28.16a.421.421,0,0,0-.365-.118l-2.91.46a2.585,2.585,0,0,1-2.959-2.148l-.46-2.91a.425.425,0,0,0-.226-.311L1.413,21.8a2.585,2.585,0,0,1-1.13-3.478l1.337-2.626a.419.419,0,0,0,0-.384L.282,12.683A2.585,2.585,0,0,1,1.413,9.2L4.037,7.868a.425.425,0,0,0,.226-.311l.46-2.91A2.585,2.585,0,0,1,7.682,2.5l2.91.46a.421.421,0,0,0,.365-.118Zm1.53,1.53L12.486,4.37a2.586,2.586,0,0,1-2.233.725l-2.91-.461a.422.422,0,0,0-.314.076.417.417,0,0,0-.169.275L6.4,7.9a2.582,2.582,0,0,1-1.38,1.9L2.393,11.133a.425.425,0,0,0-.185.568l1.338,2.626a2.582,2.582,0,0,1,0,2.347L2.208,19.3a.425.425,0,0,0,.185.568l2.626,1.338A2.582,2.582,0,0,1,6.4,23.1l.461,2.91a.417.417,0,0,0,.169.275.422.422,0,0,0,.314.076l2.91-.461a2.586,2.586,0,0,1,2.233.725l2.083,2.084a.421.421,0,0,0,.6,0L17.25,26.63a2.586,2.586,0,0,1,2.233-.725l2.91.461a.422.422,0,0,0,.314-.076.417.417,0,0,0,.169-.275l.461-2.91a2.582,2.582,0,0,1,1.38-1.9l2.626-1.338a.425.425,0,0,0,.185-.568l-1.338-2.626a2.582,2.582,0,0,1,0-2.347L27.528,11.7a.425.425,0,0,0-.185-.568L24.717,9.795a2.582,2.582,0,0,1-1.38-1.9l-.461-2.91a.417.417,0,0,0-.169-.275.422.422,0,0,0-.314-.076l-2.91.461A2.586,2.586,0,0,1,17.25,4.37L15.166,2.287a.421.421,0,0,0-.6,0Z" transform="translate(0 0)" fill="#ff7433" fill-rule="evenodd"/>
    </g>
  </g>
</svg>
