<svg xmlns="http://www.w3.org/2000/svg" width="21.615" height="24.593" viewBox="0 0 21.615 24.593">
  <g id="bin" transform="translate(-31)">
    <g id="Group_30310" data-name="Group 30310" transform="translate(32.499 7.205)">
      <g id="Group_30309" data-name="Group 30309" transform="translate(0)">
        <path id="Path_17216" data-name="Path 17216" d="M62.2,150l1.276,15.406a2.173,2.173,0,0,0,2.153,1.982H77.393a2.173,2.173,0,0,0,2.153-1.982L80.822,150Zm5.705,14.506a.72.72,0,0,1-.718-.675l-.72-11.624a.72.72,0,0,1,.674-.764.709.709,0,0,1,.764.674l.72,11.624A.721.721,0,0,1,67.91,164.506Zm4.324-.72a.72.72,0,1,1-1.441,0V152.161a.72.72,0,1,1,1.441,0Zm4.321-11.579-.72,11.624a.72.72,0,0,1-1.438-.09l.72-11.624a.732.732,0,0,1,.764-.674A.72.72,0,0,1,76.555,152.207Z" transform="translate(-62.205 -150)" fill="#68d2c0"/>
      </g>
    </g>
    <g id="Group_30312" data-name="Group 30312" transform="translate(31)">
      <g id="Group_30311" data-name="Group 30311" transform="translate(0)">
        <path id="Path_17217" data-name="Path 17217" d="M51.174,2.882H46.851v-.72A2.164,2.164,0,0,0,44.689,0H38.925a2.164,2.164,0,0,0-2.161,2.161v.72H32.441a1.441,1.441,0,1,0,0,2.882H51.174a1.441,1.441,0,1,0,0-2.882Zm-5.764,0H38.2v-.72a.721.721,0,0,1,.72-.72h5.764a.721.721,0,0,1,.72.72Z" transform="translate(-31)" fill="#68d2c0"/>
      </g>
    </g>
  </g>
</svg>
