<svg id="Calculator" xmlns="http://www.w3.org/2000/svg" width="29.05" height="34.971" viewBox="0 0 29.05 34.971">
  <path id="Path_17664" data-name="Path 17664" d="M32.813,36.971H12.236A4.165,4.165,0,0,1,8,32.891V6.08A4.165,4.165,0,0,1,12.236,2H32.813A4.165,4.165,0,0,1,37.05,6.08V32.891A4.165,4.165,0,0,1,32.813,36.971ZM12.236,3.166A2.975,2.975,0,0,0,9.21,6.08V32.891a2.975,2.975,0,0,0,3.026,2.914H32.813a2.975,2.975,0,0,0,3.026-2.914V6.08a2.975,2.975,0,0,0-3.026-2.914Z" transform="translate(-8 -2)" fill="#4e5868"/>
  <path id="Path_17665" data-name="Path 17665" d="M30.852,54.294H27.617A1.768,1.768,0,0,1,26,52.406V49.888A1.768,1.768,0,0,1,27.617,48h3.234a1.768,1.768,0,0,1,1.617,1.888v2.517A1.768,1.768,0,0,1,30.852,54.294Zm-3.234-5.035a.589.589,0,0,0-.539.629v2.517a.589.589,0,0,0,.539.629h3.234a.589.589,0,0,0,.539-.629V49.888a.589.589,0,0,0-.539-.629Z" transform="translate(-14.709 -21.84)" fill="#4e5868"/>
  <path id="Path_17666" data-name="Path 17666" d="M16.852,54.294H13.617A1.768,1.768,0,0,1,12,52.406V49.888A1.768,1.768,0,0,1,13.617,48h3.234a1.768,1.768,0,0,1,1.617,1.888v2.517A1.768,1.768,0,0,1,16.852,54.294Zm-3.234-5.035a.589.589,0,0,0-.539.629v2.517a.589.589,0,0,0,.539.629h3.234a.589.589,0,0,0,.539-.629V49.888a.589.589,0,0,0-.539-.629Z" transform="translate(-9.844 -21.84)" fill="#4e5868"/>
  <path id="Path_17667" data-name="Path 17667" d="M44.852,49.846H41.617A1.768,1.768,0,0,1,40,47.958V37.888A1.768,1.768,0,0,1,41.617,36h3.234a1.768,1.768,0,0,1,1.617,1.888v10.07A1.768,1.768,0,0,1,44.852,49.846ZM41.617,37.259a.589.589,0,0,0-.539.629v10.07a.589.589,0,0,0,.539.629h3.234a.589.589,0,0,0,.539-.629V37.888a.589.589,0,0,0-.539-.629Z" transform="translate(-19.575 -17.393)" fill="#4e5868"/>
  <path id="Path_17668" data-name="Path 17668" d="M30.852,42.294H27.617A1.768,1.768,0,0,1,26,40.406V37.888A1.768,1.768,0,0,1,27.617,36h3.234a1.768,1.768,0,0,1,1.617,1.888v2.517A1.768,1.768,0,0,1,30.852,42.294Zm-3.234-5.035a.589.589,0,0,0-.539.629v2.517a.589.589,0,0,0,.539.629h3.234a.589.589,0,0,0,.539-.629V37.888a.589.589,0,0,0-.539-.629Z" transform="translate(-14.709 -16.499)" fill="#4e5868"/>
  <path id="Path_17669" data-name="Path 17669" d="M16.852,42.294H13.617A1.768,1.768,0,0,1,12,40.406V37.888A1.768,1.768,0,0,1,13.617,36h3.234a1.768,1.768,0,0,1,1.617,1.888v2.517A1.768,1.768,0,0,1,16.852,42.294Zm-3.234-5.035a.589.589,0,0,0-.539.629v2.517a.589.589,0,0,0,.539.629h3.234a.589.589,0,0,0,.539-.629V37.888a.589.589,0,0,0-.539-.629Z" transform="translate(-9.844 -16.499)" fill="#4e5868"/>
  <path id="Path_17670" data-name="Path 17670" d="M30.852,30.294H27.617A1.768,1.768,0,0,1,26,28.406V25.888A1.768,1.768,0,0,1,27.617,24h3.234a1.768,1.768,0,0,1,1.617,1.888v2.517A1.768,1.768,0,0,1,30.852,30.294Zm-3.234-5.035a.589.589,0,0,0-.539.629v2.517a.589.589,0,0,0,.539.629h3.234a.589.589,0,0,0,.539-.629V25.888a.589.589,0,0,0-.539-.629Z" transform="translate(-14.709 -11.382)" fill="#4e5868"/>
  <path id="Path_17671" data-name="Path 17671" d="M16.852,30.294H13.617A1.768,1.768,0,0,1,12,28.406V25.888A1.768,1.768,0,0,1,13.617,24h3.234a1.768,1.768,0,0,1,1.617,1.888v2.517A1.768,1.768,0,0,1,16.852,30.294Zm-3.234-5.035a.589.589,0,0,0-.539.629v2.517a.589.589,0,0,0,.539.629h3.234a.589.589,0,0,0,.539-.629V25.888a.589.589,0,0,0-.539-.629Z" transform="translate(-9.844 -11.382)" fill="#4e5868"/>
  <path id="Path_17672" data-name="Path 17672" d="M44.852,30.294H41.617A1.768,1.768,0,0,1,40,28.406V25.888A1.768,1.768,0,0,1,41.617,24h3.234a1.768,1.768,0,0,1,1.617,1.888v2.517A1.768,1.768,0,0,1,44.852,30.294Zm-3.234-5.035a.589.589,0,0,0-.539.629v2.517a.589.589,0,0,0,.539.629h3.234a.589.589,0,0,0,.539-.629V25.888a.589.589,0,0,0-.539-.629Z" transform="translate(-19.575 -11.382)" fill="#4e5868"/>
  <path id="Path_17673" data-name="Path 17673" d="M34.882,14.811H13.855A1.872,1.872,0,0,1,12,12.923V7.888A1.872,1.872,0,0,1,13.855,6H34.882a1.872,1.872,0,0,1,1.855,1.888v5.035A1.872,1.872,0,0,1,34.882,14.811ZM13.855,7.259a.624.624,0,0,0-.618.629v5.035a.624.624,0,0,0,.618.629H34.882a.624.624,0,0,0,.618-.629V7.888a.624.624,0,0,0-.618-.629Z" transform="translate(-9.844 -3.483)" fill="#4e5868"/>
  <path id="Path_17674" data-name="Path 17674" d="M44.617,14.035A1.768,1.768,0,0,1,43,12.147V10.888a1.637,1.637,0,1,1,3.234,0v1.259A1.768,1.768,0,0,1,44.617,14.035Zm0-3.776a.589.589,0,0,0-.539.629v1.259a.546.546,0,1,0,1.078,0V10.888A.589.589,0,0,0,44.617,10.259Z" transform="translate(-20.958 -4.594)" fill="#4e5868"/>
</svg>
