<svg xmlns="http://www.w3.org/2000/svg" width="26" height="26" viewBox="0 0 26 26">
  <g id="Group_31762" data-name="Group 31762" transform="translate(-1216 -367)">
    <rect id="Rectangle_12092" data-name="Rectangle 12092" width="26" height="26" rx="5" transform="translate(1216 367)" fill="#ff7433"/>
    <path id="Icon_awesome-camera" data-name="Icon awesome-camera" d="M16.179,5.789v9.1a1.517,1.517,0,0,1-1.517,1.517H1.517A1.517,1.517,0,0,1,0,14.89v-9.1A1.517,1.517,0,0,1,1.517,4.272H4.3l.389-1.04A1.515,1.515,0,0,1,6.105,2.25h3.966a1.515,1.515,0,0,1,1.419.983l.392,1.04h2.781A1.517,1.517,0,0,1,16.179,5.789Zm-4.3,4.55A3.792,3.792,0,1,0,8.09,14.132,3.795,3.795,0,0,0,11.882,10.34Zm-1.011,0A2.781,2.781,0,1,1,8.09,7.559,2.785,2.785,0,0,1,10.87,10.34Z" transform="translate(1220.911 370.672)" fill="#fff"/>
  </g>
</svg>
