<svg xmlns="http://www.w3.org/2000/svg" width="26.075" height="26.075" viewBox="0 0 26.075 26.075">
  <g id="checklist" transform="translate(-1.25 -1.25)">
    <path id="Path_17037" data-name="Path 17037" d="M18.9,9.939H12.53a.91.91,0,1,1,0-1.819H18.9a.91.91,0,1,1,0,1.819Z" transform="translate(2.207 1.462)" fill="#4e5868"/>
    <path id="Path_17038" data-name="Path 17038" d="M7.438,11.178a.9.9,0,0,1-.643-.267L5.886,10A.909.909,0,1,1,7.171,8.716l.267.267L9.524,6.9A.909.909,0,0,1,10.81,8.182L8.081,10.911a.909.909,0,0,1-.643.267Z" transform="translate(0.93 1.145)" fill="#4e5868"/>
    <path id="Path_17039" data-name="Path 17039" d="M18.9,16.939H12.53a.91.91,0,1,1,0-1.819H18.9a.91.91,0,1,1,0,1.819Z" transform="translate(2.207 2.952)" fill="#4e5868"/>
    <path id="Path_17040" data-name="Path 17040" d="M7.438,18.178a.9.9,0,0,1-.643-.267L5.886,17a.909.909,0,0,1,1.286-1.286l.267.267L9.524,13.9a.909.909,0,0,1,1.286,1.286L8.081,17.911a.909.909,0,0,1-.643.267Z" transform="translate(0.93 2.635)" fill="#4e5868"/>
    <path id="Path_17041" data-name="Path 17041" d="M17.926,27.325H10.649c-6.586,0-9.4-2.814-9.4-9.4V10.649c0-6.586,2.814-9.4,9.4-9.4h7.277c6.586,0,9.4,2.814,9.4,9.4v7.277C27.325,24.511,24.511,27.325,17.926,27.325ZM10.649,3.069c-5.591,0-7.58,1.989-7.58,7.58v7.277c0,5.591,1.989,7.58,7.58,7.58h7.277c5.591,0,7.58-1.989,7.58-7.58V10.649c0-5.591-1.989-7.58-7.58-7.58Z" fill="#4e5868"/>
  </g>
</svg>
