<svg id="checked" xmlns="http://www.w3.org/2000/svg" width="53.522" height="53.522" viewBox="0 0 53.522 53.522">
  <path id="Path_618" data-name="Path 618" d="M31.607,38.475a2,2,0,0,0-2.958,2.69L38.8,52.192a2.01,2.01,0,0,0,1.412.672h.067a1.831,1.831,0,0,0,1.412-.605L67.378,26.641a1.95,1.95,0,0,0,0-2.824,2.009,2.009,0,0,0-2.824,0L40.348,47.956Z" transform="translate(-15.403 -16.488)" fill="#ff7433"/>
  <path id="Path_619" data-name="Path 619" d="M60.7,37.944a1.981,1.981,0,0,0-2.017,2.017A22.727,22.727,0,1,1,35.961,17.234a2.017,2.017,0,0,0,0-4.034A26.761,26.761,0,1,0,62.722,39.961,1.981,1.981,0,0,0,60.7,37.944Z" transform="translate(-9.2 -13.2)" fill="#ff7433"/>
</svg>
