<svg id="claim" xmlns="http://www.w3.org/2000/svg" width="54" height="54" viewBox="0 0 54 54">
  <path id="Path_17004" data-name="Path 17004" d="M31,27H47.75v2.393H31Z" transform="translate(-5.634 -21.306)" fill="#00ae8d"/>
  <path id="Path_17651" data-name="Path 17651" d="M31,27H44.775v2.393H31Z" transform="translate(-2.65 -15.025)" fill="#00ae8d"/>
  <path id="Path_17006" data-name="Path 17006" d="M55,22.985a4.464,4.464,0,0,0-5.226-4.5V2.742A1.744,1.744,0,0,0,48.032,1H15.446l-9.22,9.22V22.414L3.595,25.045A8.8,8.8,0,0,0,1,31.308a8.892,8.892,0,0,0,.3,2.283L4.46,45.447,2.55,55H16.869l-.7-3.484H38.207L37.336,55H50.019l-1.97-7.88L49.72,36.257a4.667,4.667,0,0,0,.054-.705,6.433,6.433,0,0,0-1.413-4.036l5.3-5.3A4.533,4.533,0,0,0,55,22.985Zm-6.968-3.871a4.594,4.594,0,0,0-.827.642l-7.372,7.373H34.968a2.612,2.612,0,0,0-1.568,4.7l.989.742L30,36.965l-.118.118-1.3,3.034-2.127-7.23a1.966,1.966,0,0,0-1.876-1.4,1.945,1.945,0,0,0-1.933,1.657l-1.463,9.514a.185.185,0,0,1-.35.012L19.484,36.61a2.092,2.092,0,0,0-3.891-.533l-2.9-5.791a7.859,7.859,0,0,0,.7.5l4.155,2.6,4.155-2.6a7.8,7.8,0,0,0,3.683-6.647v-7.8l-3.062,1.022a3.7,3.7,0,0,1-3.746-.885l-1.03-1.029-1.032,1.03a3.694,3.694,0,0,1-3.745.885L9.71,16.339v7.8a7.845,7.845,0,0,0,.61,3.029,1.71,1.71,0,0,0-.277-.038,3.792,3.792,0,0,0-2.075.621V11.209l.864-.287a6.665,6.665,0,0,1,5.767.772l2.079,1.387V2.742H48.032ZM42.758,34.656a2.787,2.787,0,0,0-2.736-2.3h0a2.79,2.79,0,0,0-2.729,2.237l-1.35,6.75c-.01.051-.014.1-.023.154l-.079.079-3.994-3.994L42.806,26.619,46.8,30.613ZM28.917,43.747l.422-.983,1.317,1.317-.982.421a.589.589,0,0,1-.8-.527A.583.583,0,0,1,28.917,43.747Zm3.462-.406-2.3-2.3.829-1.934,3.406,3.406Zm2.065-12.9a.871.871,0,0,1,.523-1.567h3.123l-2.458,2.458Zm9.594-5.051,1.381-1.381L49.414,28l-1.381,1.381ZM11.452,24.138V18.756l.769.256A5.457,5.457,0,0,0,17.548,17.9a5.451,5.451,0,0,0,5.328,1.114l.769-.255v5.382a6.064,6.064,0,0,1-2.865,5.17l-3.231,2.018-3.231-2.019a6.063,6.063,0,0,1-2.865-5.17ZM10.015,8.894l4.921-4.921V9.863A8.422,8.422,0,0,0,10.015,8.894ZM4.675,53.258,6.069,46.29H13.35l1.394,6.968ZM14.248,43.1l-.722,1.444h-7.5L2.982,33.141a7.113,7.113,0,0,1,1.844-6.864l1.4-1.4v6.607h.044a4.173,4.173,0,0,0,.172.786l1.3,3.911a4.36,4.36,0,0,1,.223,1.378v1.765H9.71V37.558A6.1,6.1,0,0,0,9.4,35.63l-1.3-3.911a2.43,2.43,0,0,1-.125-.773,2.076,2.076,0,0,1,2.075-2.075l4.206,8.412a6.508,6.508,0,0,1,0,5.822Zm1.576,6.67-.847-4.232.829-1.659a8.21,8.21,0,0,0,.637-5.627l.675-1.349a.37.37,0,0,1,.665.082l1.346,6.057a1.92,1.92,0,0,0,3.771-.125l1.463-9.514a.222.222,0,0,1,.416-.028L27.5,42.631l-.185.431a2.3,2.3,0,0,0-.187.913A2.316,2.316,0,0,0,30.358,46.1l5.655-2.424a5.259,5.259,0,0,0,1.919,2.874l1.276.957-.565,2.264Zm23.743,3.484,1.306-5.226h5.607l1.306,5.226Zm8.465-17.707A2.858,2.858,0,0,1,48,35.99l-1.584,10.3h-5.93l-1.507-1.13a3.491,3.491,0,0,1-1.328-3.478L39,34.934a1.043,1.043,0,0,1,1.021-.837h0a1.047,1.047,0,0,1,1.044,1.045v5.923h1.742V37.07l4.3-4.3A4.7,4.7,0,0,1,48.032,35.551Zm4.4-10.569-1.785,1.786-3.994-3.994,1.785-1.785a2.824,2.824,0,1,1,3.994,3.993Z" transform="translate(-1 -1)" fill="#00ae8d"/>
</svg>
