<svg id="DEFICIENCY" xmlns="http://www.w3.org/2000/svg" width="60.293" height="54" viewBox="0 0 60.293 54">
  <path id="Path_61" data-name="Path 61" d="M59.381,43.9,35.975,3.365a6.73,6.73,0,0,0-11.657,0L.912,43.9A6.73,6.73,0,0,0,6.741,54H53.552a6.73,6.73,0,0,0,5.829-10.1Zm-3.062,4.962a3.163,3.163,0,0,1-2.767,1.6H6.741a3.195,3.195,0,0,1-2.767-4.792L27.38,5.133a3.195,3.195,0,0,1,5.534,0L56.319,45.672A3.162,3.162,0,0,1,56.319,48.867Z" transform="translate(0 0)" fill="#ff4d58"/>
  <path id="Path_62" data-name="Path 62" d="M20.865,25.787A2.338,2.338,0,1,0,23.2,28.125,2.341,2.341,0,0,0,20.865,25.787Z" transform="translate(9.282 12.923)" fill="#ff4d58"/>
  <path id="Path_63" data-name="Path 63" d="M22.427,11.252H18.919V29.374h3.508Z" transform="translate(9.474 5.694)" fill="#ff4d58"/>
</svg>
