<svg xmlns="http://www.w3.org/2000/svg" width="34.613" height="31" viewBox="0 0 34.613 31">
  <g id="Group_31948" data-name="Group 31948" transform="translate(-961 -10432)">
    <path id="Path_61" data-name="Path 61" d="M34.089,25.2,20.652,1.932a3.864,3.864,0,0,0-6.692,0L.524,25.2A3.864,3.864,0,0,0,3.87,31H30.743a3.864,3.864,0,0,0,3.346-5.8Zm-1.758,2.849a1.816,1.816,0,0,1-1.588.917H3.87a1.834,1.834,0,0,1-1.588-2.751L15.718,2.947a1.834,1.834,0,0,1,3.177,0L32.331,26.219A1.815,1.815,0,0,1,32.331,28.053Z" transform="translate(961 10432)" fill="#ff4d58"/>
    <path id="Path_62" data-name="Path 62" d="M20.8,25.787a2.275,2.275,0,1,0,2.275,2.275A2.277,2.277,0,0,0,20.8,25.787Z" transform="translate(957.505 10426.737)" fill="#ff4d58"/>
    <path id="Path_63" data-name="Path 63" d="M22.331,11.252H18.919V23.857h3.412Z" transform="translate(957.681 10427.093)" fill="#ff4d58"/>
  </g>
</svg>
