<svg xmlns="http://www.w3.org/2000/svg" width="21.518" height="24.592" viewBox="0 0 21.518 24.592">
  <path id="file" d="M15.141,0a4.476,4.476,0,0,1,3.612,1.768l3.766,4.688a4.916,4.916,0,0,1,1,2.843V19.981a4.625,4.625,0,0,1-4.611,4.611H6.611A4.625,4.625,0,0,1,2,19.981V4.611A4.625,4.625,0,0,1,6.611,0Zm2.382,8.684a3.779,3.779,0,0,0-5.072-.307A.826.826,0,0,0,12.3,9.452a.826.826,0,0,0,1.076.154,2.295,2.295,0,0,1,3,3.458l-2.69,2.69-1.306,1.306-.077.077A2.285,2.285,0,0,1,9.07,13.91l.077-.077,1.768-1.768.077-.077a.719.719,0,0,1,1,.077.743.743,0,0,1,0,1.076l-1.768,1.768-.077.077a.719.719,0,0,0,.077,1,.743.743,0,0,0,1.076,0l1.768-1.768.077-.077a2.353,2.353,0,0,0-.077-3.151,2.228,2.228,0,0,0-3.228,0l-.692.692-.077.077-.461.461-.538.538a3.858,3.858,0,0,0,5.456,5.456l1.768-1.768.077-.077L17.6,14.14l.154-.154a4,4,0,0,0-.231-5.3Z" transform="translate(-2)" fill="#68d2c0" fill-rule="evenodd"/>
</svg>
