<svg xmlns="http://www.w3.org/2000/svg" width="35.561" height="37.328" viewBox="0 0 35.561 37.328">
  <g id="Group_31655" data-name="Group 31655" transform="translate(16316.586 12318.222)">
    <path id="Icon_metro-question" data-name="Icon metro-question" d="M15.636,21.629h3.425v3.425H15.636ZM22.487,9.64A1.713,1.713,0,0,1,24.2,11.353v5.138l-5.138,3.425H15.636V18.2l5.138-3.425V13.065H12.211V9.64H22.487Z" transform="translate(-16317.008 -12320.112)" fill="#43b0ef"/>
    <path id="Icon_material-chat_bubble_outline" data-name="Icon material-chat_bubble_outline" d="M32.754,3H6.306A3.316,3.316,0,0,0,3,6.306V36.061l6.612-6.612H32.754a3.316,3.316,0,0,0,3.306-3.306V6.306A3.316,3.316,0,0,0,32.754,3Z" transform="translate(-16318.336 -12319.972)" fill="none" stroke="#43b0ef" stroke-width="2.5"/>
  </g>
</svg>
