<svg xmlns="http://www.w3.org/2000/svg" width="37.687" height="37.754" viewBox="0 0 37.687 37.754">
  <path id="Icon_feather-phone-call" data-name="Icon feather-phone-call" d="M24.88,8.213a8.391,8.391,0,0,1,6.629,6.629M24.88,1.5A15.1,15.1,0,0,1,38.222,14.825M36.544,28.217v5.035a3.356,3.356,0,0,1-3.658,3.356A33.211,33.211,0,0,1,18.4,31.455,32.725,32.725,0,0,1,8.333,21.386,33.211,33.211,0,0,1,3.181,6.837a3.356,3.356,0,0,1,3.34-3.658h5.035a3.356,3.356,0,0,1,3.356,2.886,21.548,21.548,0,0,0,1.175,4.716,3.356,3.356,0,0,1-.755,3.541L13.2,16.453A26.851,26.851,0,0,0,23.269,26.522L25.4,24.39a3.356,3.356,0,0,1,3.541-.755,21.548,21.548,0,0,0,4.716,1.175A3.356,3.356,0,0,1,36.544,28.217Z" transform="translate(-1.917 -0.12)" fill="none" stroke="#43b0ef" stroke-linecap="round" stroke-linejoin="round" stroke-width="2.5"/>
</svg>
