<svg xmlns="http://www.w3.org/2000/svg" width="13.47" height="11.973" viewBox="0 0 13.47 11.973">
  <path id="Icon_awesome-share-square" data-name="Icon awesome-share-square" d="M13.294,4.15,9.927,7.33a.562.562,0,0,1-.947-.408V5.239C5.6,5.262,4.173,6.06,5.127,9.246a.374.374,0,0,1-.585.405A4.5,4.5,0,0,1,2.806,6.3c0-3.366,2.75-4.034,6.174-4.053V.562A.562.562,0,0,1,9.927.153l3.368,3.18A.561.561,0,0,1,13.294,4.15ZM8.98,8.866v1.611H1.5V2.993H2.687a.28.28,0,0,0,.2-.086,4.559,4.559,0,0,1,1.193-.881.28.28,0,0,0-.13-.529H1.122A1.122,1.122,0,0,0,0,2.619v8.232a1.122,1.122,0,0,0,1.122,1.122H9.354a1.122,1.122,0,0,0,1.122-1.122V8.774A.281.281,0,0,0,10.1,8.51a1.68,1.68,0,0,1-.8.079A.281.281,0,0,0,8.98,8.866Z" fill="#43b0ef"/>
</svg>
