<svg xmlns="http://www.w3.org/2000/svg" width="31.493" height="24" viewBox="0 0 31.493 24">
  <g id="Icon_ionic-ios-folder-open" data-name="Icon ionic-ios-folder-open" transform="translate(-2.252 -4.5)">
    <path id="Path_17781" data-name="Path 17781" d="M31.5,8.367A1.551,1.551,0,0,0,29.9,6.75H16.235a.52.52,0,0,1-.429-.169L14.224,5l-.014-.014A1.528,1.528,0,0,0,12.994,4.5H6.237A1.673,1.673,0,0,0,4.5,6.117V11.25h27Z" fill="#43b0ef"/>
    <path id="Path_17782" data-name="Path 17782" d="M4.5,13.219H3.916c-.9,0-1.779.3-1.652,1.428S3.916,27.031,3.916,27.031A1.605,1.605,0,0,0,5.674,28.5H30.459a1.5,1.5,0,0,0,1.617-1.469s1.561-10.867,1.659-12.078a1.472,1.472,0,0,0-1.659-1.734H4.5Z" fill="#43b0ef"/>
  </g>
</svg>
