<svg xmlns="http://www.w3.org/2000/svg" width="18.358" height="18.023" viewBox="0 0 18.358 18.023">
  <path id="Icon_simple-microsoftexcel" data-name="Icon simple-microsoftexcel" d="M18.016,2.534h-6.15V3.672h1.813v1.8H11.866v.574h1.813v1.8H11.866v.59h1.813v1.705H11.866v.683h1.813v1.709H11.866v.683h1.813v1.719H11.866v1.254h6.15c.1-.029.178-.144.243-.343a1.677,1.677,0,0,0,.1-.486V2.742c0-.1-.034-.157-.1-.177A.842.842,0,0,0,18.016,2.534Zm-.8,12.4h-2.95V13.219h2.95v1.717Zm0-2.4h-2.95v-1.71h2.95Zm0-2.393h-2.95v-1.7h2.95v1.7Zm0-2.295h-2.95v-1.8h2.95v1.8h0Zm0-2.386h-2.95V3.673h2.95v1.79ZM0,2.25V16.479l10.831,1.873V.328L0,2.256ZM6.42,13.013q-.062-.168-.58-1.425c-.343-.838-.551-1.326-.611-1.466H5.21L4.048,12.888l-1.553-.1L4.337,9.341,2.65,5.9l1.583-.083L5.28,8.509H5.3L6.483,5.693l1.636-.1L6.171,9.315l2.008,3.8-1.759-.1Z" transform="translate(0 -0.329)" fill="#fff"/>
</svg>
