<svg xmlns="http://www.w3.org/2000/svg" width="37.551" height="37.549" viewBox="0 0 37.551 37.549">
  <g id="Line" transform="translate(-2.249 -2.25)">
    <path id="Path_17783" data-name="Path 17783" d="M36.045,39.8H14.2a3.755,3.755,0,0,1-3.755-3.755V35.43a10.582,10.582,0,0,1,0-20.618V6A3.755,3.755,0,0,1,14.2,2.25H29.45a3.741,3.741,0,0,1,2.663,1.106l6.581,6.581A3.741,3.741,0,0,1,39.8,12.668V36.044A3.755,3.755,0,0,1,36.045,39.8ZM12.491,35.7v.341A1.707,1.707,0,0,0,14.2,37.751H36.045a1.707,1.707,0,0,0,1.707-1.707V13.856h-5.8A3.755,3.755,0,0,1,28.193,10.1V4.3h-14A1.707,1.707,0,0,0,12.491,6v8.534h.341a10.582,10.582,0,1,1,0,21.164Zm.341-19.116a8.534,8.534,0,1,0,8.534,8.534,8.534,8.534,0,0,0-8.534-8.534Zm17.409-12.1V10.1a1.707,1.707,0,0,0,1.707,1.707H37.56a1.9,1.9,0,0,0-.314-.423L30.665,4.8a1.9,1.9,0,0,0-.423-.314Zm3.072,25.752H26.487a1.024,1.024,0,0,1,0-2.048h6.827a1.024,1.024,0,1,1,0,2.048Zm-22.53-2.048a1.01,1.01,0,0,1-.683-.341,1.024,1.024,0,0,1,0-1.365l1.748-1.748V21.025a1.024,1.024,0,1,1,2.048,0v4.1a1.024,1.024,0,0,1-.3.724l-2.13,2.007a1.01,1.01,0,0,1-.683.341Zm22.53-3.414H27.852a1.024,1.024,0,1,1,0-2.048h5.462a1.024,1.024,0,1,1,0,2.048Zm0-5.462H26.487a1.024,1.024,0,0,1,0-2.048h6.827a1.024,1.024,0,1,1,0,2.048Zm-9.558-5.462h-4.1a1.024,1.024,0,0,1,0-2.048h4.1a1.024,1.024,0,0,1,0,2.048Z" transform="translate(0)" fill="#4e5868"/>
  </g>
</svg>
