<svg xmlns="http://www.w3.org/2000/svg" width="31.647" height="31" viewBox="0 0 31.647 31">
  <g id="Group_31947" data-name="Group 31947" transform="translate(-966 -10706)">
    <path id="Path_30" data-name="Path 30" d="M18.69,4.024V3.294a.426.426,0,1,0-.852,0v.729a.426.426,0,1,0,.852,0Z" transform="translate(963.559 10705.404)" fill="#e765e0"/>
    <path id="Path_31" data-name="Path 31" d="M17.838,31.562v.729a.426.426,0,1,0,.852,0v-.729a.426.426,0,1,0-.852,0Z" transform="translate(963.559 10702.01)" fill="#e765e0"/>
    <path id="Path_32" data-name="Path 32" d="M13.522,5.286a.427.427,0,0,0,.4-.572l-.249-.685a.426.426,0,0,0-.8.292l.249.685A.426.426,0,0,0,13.522,5.286Z" transform="translate(964.25 10705.223)" fill="#e765e0"/>
    <path id="Path_33" data-name="Path 33" d="M22.8,30.337a.426.426,0,0,0-.255.546l.249.685a.426.426,0,1,0,.8-.291l-.249-.685A.426.426,0,0,0,22.8,30.337Z" transform="translate(962.934 10702.181)" fill="#e765e0"/>
    <path id="Path_34" data-name="Path 34" d="M9.352,7.694a.426.426,0,0,0,.326-.7L9.21,6.435a.426.426,0,1,0-.653.548l.469.559A.425.425,0,0,0,9.352,7.694Z" transform="translate(964.853 10705.149)" fill="#e765e0"/>
    <path id="Path_35" data-name="Path 35" d="M26.779,28.036a.426.426,0,0,0-.052.6l.469.559a.426.426,0,1,0,.653-.548l-.469-.559A.426.426,0,0,0,26.779,28.036Z" transform="translate(962.389 10702.22)" fill="#e765e0"/>
    <path id="Path_36" data-name="Path 36" d="M6.47,10.587l-.632-.365a.426.426,0,1,0-.426.738l.632.365a.426.426,0,1,0,.426-.738Z" transform="translate(964.921 10704.619)" fill="#e765e0"/>
    <path id="Path_37" data-name="Path 37" d="M30.95,24.721l-.632-.365a.426.426,0,1,0-.426.738l.632.365a.426.426,0,0,0,.426-.738Z" transform="translate(962.363 10702.699)" fill="#e765e0"/>
    <path id="Path_38" data-name="Path 38" d="M3.966,14.935a.426.426,0,1,0-.148.839l.718.127a.426.426,0,1,0,.148-.839Z" transform="translate(965.281 10703.963)" fill="#e765e0"/>
    <path id="Path_39" data-name="Path 39" d="M32.374,20.809a.426.426,0,1,0,.148-.839l-.718-.127a.426.426,0,1,0-.148.839Z" transform="translate(962.026 10703.293)" fill="#e765e0"/>
    <path id="Path_40" data-name="Path 40" d="M3.472,20.464a.426.426,0,0,0,.494.346l.718-.127a.426.426,0,1,0-.148-.839l-.718.127A.426.426,0,0,0,3.472,20.464Z" transform="translate(965.281 10703.293)" fill="#e765e0"/>
    <path id="Path_41" data-name="Path 41" d="M32.868,15.28a.426.426,0,0,0-.494-.346l-.718.127a.426.426,0,1,0,.148.839l.718-.127A.426.426,0,0,0,32.868,15.28Z" transform="translate(962.026 10703.963)" fill="#e765e0"/>
    <path id="Path_42" data-name="Path 42" d="M5.626,25.516a.424.424,0,0,0,.213-.057l.632-.365a.426.426,0,0,0-.426-.738l-.632.365a.426.426,0,0,0,.213.8Z" transform="translate(964.921 10702.699)" fill="#e765e0"/>
    <path id="Path_43" data-name="Path 43" d="M30.524,10.222l-.632.365a.426.426,0,1,0,.426.738l.632-.365a.426.426,0,0,0-.426-.738Z" transform="translate(962.363 10704.619)" fill="#e765e0"/>
    <path id="Path_44" data-name="Path 44" d="M9.026,28.089l-.469.559a.426.426,0,0,0,.653.548l.469-.559a.426.426,0,1,0-.653-.548Z" transform="translate(964.853 10702.22)" fill="#e765e0"/>
    <path id="Path_45" data-name="Path 45" d="M27.053,7.694a.425.425,0,0,0,.327-.152l.469-.559a.426.426,0,1,0-.653-.548l-.469.559a.426.426,0,0,0,.326.7Z" transform="translate(962.389 10705.149)" fill="#e765e0"/>
    <path id="Path_46" data-name="Path 46" d="M13.122,30.592l-.249.685a.426.426,0,1,0,.8.292l.249-.685a.426.426,0,1,0-.8-.292Z" transform="translate(964.25 10702.181)" fill="#e765e0"/>
    <path id="Path_47" data-name="Path 47" d="M22.941,5.286a.427.427,0,0,0,.4-.28l.249-.685a.426.426,0,0,0-.8-.292l-.249.685a.426.426,0,0,0,.4.572Z" transform="translate(962.934 10705.223)" fill="#e765e0"/>
    <path id="Path_48" data-name="Path 48" d="M31.008,13.359a6.29,6.29,0,0,1-.477-1.216,6.57,6.57,0,0,1-.1-1.352,5,5,0,0,0-.343-2.159A5.029,5.029,0,0,0,28.592,7a6.406,6.406,0,0,1-.975-.906,6.442,6.442,0,0,1-.672-1.159A5.031,5.031,0,0,0,25.69,3.128a5.023,5.023,0,0,0-2.035-.82,6.5,6.5,0,0,1-1.286-.4,6.362,6.362,0,0,1-1.09-.743A5.035,5.035,0,0,0,19.345.07a4.99,4.99,0,0,0-2.162.147,6.6,6.6,0,0,1-1.359.2,6.6,6.6,0,0,1-1.359-.2A4.988,4.988,0,0,0,12.3.07a5.033,5.033,0,0,0-1.935,1.1,6.356,6.356,0,0,1-1.09.743,6.5,6.5,0,0,1-1.286.4,5.022,5.022,0,0,0-2.035.82A5.031,5.031,0,0,0,4.7,4.936,6.447,6.447,0,0,1,4.031,6.1,6.405,6.405,0,0,1,3.055,7,5.03,5.03,0,0,0,1.564,8.633a5,5,0,0,0-.343,2.159,6.566,6.566,0,0,1-.1,1.352,6.282,6.282,0,0,1-.477,1.216A5.061,5.061,0,0,0,0,15.5a5.059,5.059,0,0,0,.639,2.14,6.282,6.282,0,0,1,.477,1.216,6.566,6.566,0,0,1,.1,1.352,5,5,0,0,0,.343,2.159A5.031,5.031,0,0,0,3.055,24a6.41,6.41,0,0,1,.975.905l.034.043a.463.463,0,1,0,.734-.565l-.044-.056A7.173,7.173,0,0,0,3.64,23.28,4.3,4.3,0,0,1,2.4,21.965,4.278,4.278,0,0,1,2.147,20.2a7.345,7.345,0,0,0-.128-1.546,7.047,7.047,0,0,0-.542-1.405A4.32,4.32,0,0,1,.926,15.5a4.32,4.32,0,0,1,.551-1.747,7.045,7.045,0,0,0,.542-1.405A7.345,7.345,0,0,0,2.147,10.8,4.278,4.278,0,0,1,2.4,9.035,4.3,4.3,0,0,1,3.64,7.72,7.178,7.178,0,0,0,4.755,6.674a7.217,7.217,0,0,0,.779-1.326,4.3,4.3,0,0,1,1-1.5,4.294,4.294,0,0,1,1.674-.643A7.28,7.28,0,0,0,9.68,2.742a7.132,7.132,0,0,0,1.258-.847A4.3,4.3,0,0,1,12.508.973a4.264,4.264,0,0,1,1.761.149,7.382,7.382,0,0,0,1.555.222,7.382,7.382,0,0,0,1.555-.222A4.265,4.265,0,0,1,19.139.973a4.3,4.3,0,0,1,1.569.922,7.128,7.128,0,0,0,1.258.847,7.272,7.272,0,0,0,1.471.467,4.292,4.292,0,0,1,1.674.643,4.3,4.3,0,0,1,1,1.5,7.224,7.224,0,0,0,.779,1.326A7.176,7.176,0,0,0,28.007,7.72a4.3,4.3,0,0,1,1.241,1.315A4.279,4.279,0,0,1,29.5,10.8a7.342,7.342,0,0,0,.128,1.546,7.044,7.044,0,0,0,.542,1.405,4.32,4.32,0,0,1,.551,1.747,4.32,4.32,0,0,1-.551,1.747,7.043,7.043,0,0,0-.542,1.405A7.343,7.343,0,0,0,29.5,20.2a4.279,4.279,0,0,1-.252,1.767,4.3,4.3,0,0,1-1.241,1.315,7.183,7.183,0,0,0-1.115,1.047,7.221,7.221,0,0,0-.779,1.326,4.3,4.3,0,0,1-1,1.5,4.3,4.3,0,0,1-1.674.643,7.284,7.284,0,0,0-1.471.467,7.127,7.127,0,0,0-1.258.847,4.3,4.3,0,0,1-1.569.922,4.266,4.266,0,0,1-1.761-.149,7.386,7.386,0,0,0-1.555-.222,7.385,7.385,0,0,0-1.555.222,4.263,4.263,0,0,1-1.761.149,4.3,4.3,0,0,1-1.569-.922,7.131,7.131,0,0,0-1.258-.847,7.281,7.281,0,0,0-1.471-.467,4.294,4.294,0,0,1-1.674-.643,2.769,2.769,0,0,1-.648-.814.463.463,0,0,0-.8.461,3.647,3.647,0,0,0,.873,1.077,5.024,5.024,0,0,0,2.035.82,6.5,6.5,0,0,1,1.286.4,6.36,6.36,0,0,1,1.089.743,5.034,5.034,0,0,0,1.935,1.1,4.987,4.987,0,0,0,2.163-.147,6.6,6.6,0,0,1,1.359-.2,6.6,6.6,0,0,1,1.359.2A7.214,7.214,0,0,0,18.691,31a2.933,2.933,0,0,0,.654-.07,5.032,5.032,0,0,0,1.935-1.1,6.36,6.36,0,0,1,1.089-.743,6.5,6.5,0,0,1,1.285-.4,5.022,5.022,0,0,0,2.035-.82,5.03,5.03,0,0,0,1.254-1.808,6.454,6.454,0,0,1,.672-1.159A6.407,6.407,0,0,1,28.591,24a5.03,5.03,0,0,0,1.491-1.631,5,5,0,0,0,.343-2.159,6.557,6.557,0,0,1,.1-1.352,6.284,6.284,0,0,1,.477-1.216,5.058,5.058,0,0,0,.639-2.141A5.06,5.06,0,0,0,31.008,13.359Z" transform="translate(966 10706)" fill="#e765e0"/>
    <path id="Path_49" data-name="Path 49" d="M17.123,27.557A10.842,10.842,0,0,0,27.6,13.84a.482.482,0,0,0-.93.255,9.888,9.888,0,1,1-.788-1.982.482.482,0,0,0,.852-.45,10.856,10.856,0,1,0-9.609,15.894Z" transform="translate(964.701 10704.778)" fill="#e765e0"/>
    <path id="Path_50" data-name="Path 50" d="M20.331,10.2a1.512,1.512,0,0,0-2.131.14l-1.353,1.543-.1-.106a1.51,1.51,0,1,0-2.163,2.108l1.243,1.276a1.518,1.518,0,0,0,1.081.456h.04a1.514,1.514,0,0,0,1.1-.514l2.43-2.77A1.512,1.512,0,0,0,20.331,10.2Zm-.5,1.569-2.43,2.77a.659.659,0,0,1-.476.224h-.019a.662.662,0,0,1-.471-.2l-1.243-1.275a.658.658,0,0,1,.942-.918l.425.436a.426.426,0,0,0,.626-.016l1.657-1.889a.658.658,0,0,1,.989.867Z" transform="translate(964.324 10704.807)" fill="#e765e0"/>
    <path id="Path_51" data-name="Path 51" d="M16.446,18.555a.5.5,0,0,0-.469-.314h0a.505.505,0,0,0-.469.315l0,.01-1.335,3.5a.426.426,0,1,0,.8.3l.228-.6H16.75l.225.6a.426.426,0,0,0,.8-.3l-1.322-3.5Zm-.927,2.367.457-1.2.453,1.2Z" transform="translate(964.175 10703.695)" fill="#e765e0"/>
    <path id="Path_52" data-name="Path 52" d="M19.992,18.667v3.554a.426.426,0,1,0,.852,0V18.667a.426.426,0,1,0-.852,0Z" transform="translate(963.265 10703.695)" fill="#e765e0"/>
    <path id="Path_53" data-name="Path 53" d="M22.432,22.213a.437.437,0,0,0,.437.435h0c.03,0,.744,0,1.029-.008a1.99,1.99,0,0,0,1.827-2.2,1.944,1.944,0,0,0-1.863-2.2h-1a.437.437,0,0,0-.437.437s0,1.359,0,1.762C22.427,20.932,22.432,22.213,22.432,22.213Zm1.43-3.1c.73,0,.99.687.99,1.33,0,.9-.486,1.314-.969,1.322-.133,0-.369,0-.58.006,0-.418,0-1.027,0-1.332,0-.255,0-.892,0-1.326Z" transform="translate(963.082 10703.695)" fill="#e765e0"/>
    <path id="Path_54" data-name="Path 54" d="M10.638,18.241a.435.435,0,0,0-.124.018.422.422,0,0,0-.273.251.428.428,0,0,0-.029.156v3.554a.426.426,0,1,0,.852,0V21.1l.563,0a1.429,1.429,0,1,0,0-2.858Zm1.586,1.429a.6.6,0,0,1-.6.577l-.559,0c0-.21,0-.446,0-.579,0-.113,0-.357,0-.577h.562A.6.6,0,0,1,12.224,19.67Z" transform="translate(964.658 10703.695)" fill="#e765e0"/>
  </g>
</svg>
