<svg id="Paid" xmlns="http://www.w3.org/2000/svg" width="48.566" height="47.573" viewBox="0 0 48.566 47.573">
  <path id="Path_30" data-name="Path 30" d="M19.259,4.795V3.579a.711.711,0,1,0-1.421,0V4.795a.711.711,0,1,0,1.421,0Z" transform="translate(5.734 0.922)" fill="#4e5868"/>
  <path id="Path_31" data-name="Path 31" d="M17.838,31.846v1.216a.711.711,0,1,0,1.421,0V31.846a.711.711,0,1,0-1.421,0Z" transform="translate(5.734 10.009)" fill="#4e5868"/>
  <path id="Path_32" data-name="Path 32" d="M13.973,6.313a.711.711,0,0,0,.668-.954l-.416-1.143A.711.711,0,0,0,12.89,4.7l.416,1.143A.711.711,0,0,0,13.973,6.313Z" transform="translate(4.13 1.205)" fill="#4e5868"/>
  <path id="Path_33" data-name="Path 33" d="M22.982,30.354a.711.711,0,0,0-.425.911l.416,1.143a.711.711,0,1,0,1.336-.486l-.416-1.143A.711.711,0,0,0,22.982,30.354Z" transform="translate(7.237 9.744)" fill="#4e5868"/>
  <path id="Path_34" data-name="Path 34" d="M9.95,8.635a.711.711,0,0,0,.544-1.167l-.782-.931a.711.711,0,1,0-1.089.914l.782.931A.709.709,0,0,0,9.95,8.635Z" transform="translate(2.719 2.02)" fill="#4e5868"/>
  <path id="Path_35" data-name="Path 35" d="M26.881,28.1a.71.71,0,0,0-.087,1l.782.931a.711.711,0,1,0,1.089-.914l-.782-.932A.711.711,0,0,0,26.881,28.1Z" transform="translate(8.56 8.98)" fill="#4e5868"/>
  <path id="Path_36" data-name="Path 36" d="M7.318,10.868,6.265,10.26a.711.711,0,1,0-.711,1.231l1.053.608a.711.711,0,1,0,.711-1.231Z" transform="translate(1.671 3.268)" fill="#4e5868"/>
  <path id="Path_37" data-name="Path 37" d="M31.8,25l-1.053-.608a.711.711,0,1,0-.711,1.231l1.053.608A.711.711,0,0,0,31.8,25Z" transform="translate(9.541 7.811)" fill="#4e5868"/>
  <path id="Path_38" data-name="Path 38" d="M4.3,14.939a.711.711,0,1,0-.247,1.4l1.2.211a.711.711,0,1,0,.247-1.4Z" transform="translate(1.114 4.799)" fill="#4e5868"/>
  <path id="Path_39" data-name="Path 39" d="M33.089,21.458a.711.711,0,1,0,.247-1.4l-1.2-.211a.711.711,0,1,0-.247,1.4Z" transform="translate(10.063 6.377)" fill="#4e5868"/>
  <path id="Path_40" data-name="Path 40" d="M3.477,20.882a.71.71,0,0,0,.823.576l1.2-.211a.711.711,0,1,0-.247-1.4l-1.2.211A.711.711,0,0,0,3.477,20.882Z" transform="translate(1.114 6.377)" fill="#4e5868"/>
  <path id="Path_41" data-name="Path 41" d="M33.912,15.515a.71.71,0,0,0-.823-.576l-1.2.211a.711.711,0,1,0,.247,1.4l1.2-.211A.71.71,0,0,0,33.912,15.515Z" transform="translate(10.063 4.799)" fill="#4e5868"/>
  <path id="Path_42" data-name="Path 42" d="M5.911,26.328a.707.707,0,0,0,.355-.1l1.053-.608a.711.711,0,0,0-.711-1.231L5.555,25a.711.711,0,0,0,.356,1.326Z" transform="translate(1.671 7.811)" fill="#4e5868"/>
  <path id="Path_43" data-name="Path 43" d="M31.088,10.26l-1.053.608a.711.711,0,1,0,.711,1.231l1.053-.608a.711.711,0,0,0-.711-1.231Z" transform="translate(9.541 3.268)" fill="#4e5868"/>
  <path id="Path_44" data-name="Path 44" d="M9.405,28.19l-.782.931a.711.711,0,0,0,1.089.914l.782-.931a.711.711,0,1,0-1.089-.914Z" transform="translate(2.719 8.98)" fill="#4e5868"/>
  <path id="Path_45" data-name="Path 45" d="M27.337,8.636a.709.709,0,0,0,.545-.254l.782-.931a.711.711,0,1,0-1.089-.914l-.782.931a.711.711,0,0,0,.544,1.167Z" transform="translate(8.56 2.02)" fill="#4e5868"/>
  <path id="Path_46" data-name="Path 46" d="M13.305,30.779l-.416,1.143a.711.711,0,1,0,1.336.486l.416-1.143a.711.711,0,1,0-1.336-.486Z" transform="translate(4.13 9.744)" fill="#4e5868"/>
  <path id="Path_47" data-name="Path 47" d="M23.225,6.313a.711.711,0,0,0,.668-.468L24.309,4.7a.711.711,0,0,0-1.336-.486l-.416,1.143a.711.711,0,0,0,.668.954Z" transform="translate(7.237 1.205)" fill="#4e5868"/>
  <path id="Path_48" data-name="Path 48" d="M47.585,20.5a9.652,9.652,0,0,1-.732-1.867,10.082,10.082,0,0,1-.161-2.074,7.677,7.677,0,0,0-.527-3.313,7.718,7.718,0,0,0-2.289-2.5,9.831,9.831,0,0,1-1.5-1.39,9.886,9.886,0,0,1-1.032-1.779A7.72,7.72,0,0,0,39.424,4.8,7.707,7.707,0,0,0,36.3,3.543a9.977,9.977,0,0,1-1.973-.615,9.764,9.764,0,0,1-1.672-1.14A7.726,7.726,0,0,0,29.686.107a7.657,7.657,0,0,0-3.318.225A10.128,10.128,0,0,1,24.283.64,10.129,10.129,0,0,1,22.2.332,7.655,7.655,0,0,0,18.879.107,7.724,7.724,0,0,0,15.91,1.788a9.754,9.754,0,0,1-1.672,1.14,9.978,9.978,0,0,1-1.973.615A7.707,7.707,0,0,0,9.142,4.8,7.72,7.72,0,0,0,7.217,7.576,9.894,9.894,0,0,1,6.186,9.355a9.83,9.83,0,0,1-1.5,1.39,7.72,7.72,0,0,0-2.289,2.5,7.678,7.678,0,0,0-.527,3.313,10.076,10.076,0,0,1-.161,2.074A9.64,9.64,0,0,1,.981,20.5,7.767,7.767,0,0,0,0,23.786a7.764,7.764,0,0,0,.981,3.285,9.64,9.64,0,0,1,.732,1.867,10.076,10.076,0,0,1,.161,2.074A7.678,7.678,0,0,0,2.4,34.325a7.72,7.72,0,0,0,2.289,2.5,9.836,9.836,0,0,1,1.5,1.389l.052.066a.711.711,0,1,0,1.127-.866L7.3,37.331a11.008,11.008,0,0,0-1.711-1.606A6.6,6.6,0,0,1,3.68,33.707,6.565,6.565,0,0,1,3.294,31a11.271,11.271,0,0,0-.2-2.373,10.814,10.814,0,0,0-.831-2.156,6.629,6.629,0,0,1-.846-2.68,6.629,6.629,0,0,1,.846-2.681A10.811,10.811,0,0,0,3.1,18.949a11.272,11.272,0,0,0,.2-2.373,6.565,6.565,0,0,1,.386-2.712,6.6,6.6,0,0,1,1.905-2.018A11.015,11.015,0,0,0,7.3,10.241,11.075,11.075,0,0,0,8.491,8.206a6.6,6.6,0,0,1,1.537-2.295A6.59,6.59,0,0,1,12.6,4.924a11.172,11.172,0,0,0,2.258-.717,10.944,10.944,0,0,0,1.93-1.3,6.6,6.6,0,0,1,2.408-1.414,6.544,6.544,0,0,1,2.7.229,11.329,11.329,0,0,0,2.386.34,11.328,11.328,0,0,0,2.386-.34,6.546,6.546,0,0,1,2.7-.229,6.6,6.6,0,0,1,2.408,1.414,10.939,10.939,0,0,0,1.93,1.3,11.159,11.159,0,0,0,2.258.717,6.587,6.587,0,0,1,2.569.987,6.6,6.6,0,0,1,1.537,2.295,11.086,11.086,0,0,0,1.195,2.035,11.013,11.013,0,0,0,1.711,1.606,6.594,6.594,0,0,1,1.905,2.018,6.566,6.566,0,0,1,.386,2.712,11.267,11.267,0,0,0,.2,2.373,10.81,10.81,0,0,0,.831,2.156,6.629,6.629,0,0,1,.846,2.68,6.63,6.63,0,0,1-.846,2.68,10.809,10.809,0,0,0-.831,2.156,11.269,11.269,0,0,0-.2,2.373,6.567,6.567,0,0,1-.386,2.712,6.6,6.6,0,0,1-1.905,2.017,11.023,11.023,0,0,0-1.711,1.606,11.081,11.081,0,0,0-1.195,2.035,6.6,6.6,0,0,1-1.537,2.295,6.591,6.591,0,0,1-2.57.987,11.179,11.179,0,0,0-2.257.717,10.938,10.938,0,0,0-1.93,1.3,6.6,6.6,0,0,1-2.408,1.414,6.546,6.546,0,0,1-2.7-.229,11.335,11.335,0,0,0-2.386-.34,11.333,11.333,0,0,0-2.386.34,6.542,6.542,0,0,1-2.7.229,6.6,6.6,0,0,1-2.408-1.414,10.943,10.943,0,0,0-1.93-1.3,11.173,11.173,0,0,0-2.258-.717,6.589,6.589,0,0,1-2.569-.987,4.25,4.25,0,0,1-.994-1.249A.711.711,0,0,0,7.8,41.12a5.6,5.6,0,0,0,1.34,1.652,7.71,7.71,0,0,0,3.123,1.258,9.974,9.974,0,0,1,1.973.615,9.76,9.76,0,0,1,1.672,1.139,7.725,7.725,0,0,0,2.969,1.681A7.653,7.653,0,0,0,22.2,47.24a10.134,10.134,0,0,1,2.085-.308,10.123,10.123,0,0,1,2.085.308,11.071,11.071,0,0,0,2.315.332,4.5,4.5,0,0,0,1-.107,7.722,7.722,0,0,0,2.969-1.681,9.76,9.76,0,0,1,1.672-1.139A9.978,9.978,0,0,1,36.3,44.03a7.706,7.706,0,0,0,3.124-1.258A7.719,7.719,0,0,0,41.348,40a9.9,9.9,0,0,1,1.032-1.779,9.833,9.833,0,0,1,1.5-1.39,7.719,7.719,0,0,0,2.289-2.5,7.679,7.679,0,0,0,.527-3.313,10.063,10.063,0,0,1,.161-2.074,9.643,9.643,0,0,1,.731-1.867,7.762,7.762,0,0,0,.981-3.285A7.765,7.765,0,0,0,47.585,20.5Z" transform="translate(0 0)" fill="#4e5868"/>
  <path id="Path_49" data-name="Path 49" d="M22.27,37.9A16.023,16.023,0,0,0,37.708,17.638a.711.711,0,0,0-1.37.377,14.592,14.592,0,1,1-1.161-2.929.711.711,0,1,0,1.256-.664A16.011,16.011,0,1,0,22.27,37.9Z" transform="translate(2.013 1.892)" fill="#4e5868"/>
  <path id="Path_50" data-name="Path 50" d="M24.455,10.455a2.521,2.521,0,0,0-3.553.233L18.646,13.26l-.172-.177A2.518,2.518,0,1,0,14.868,16.6l2.073,2.127a2.532,2.532,0,0,0,1.8.76h.066a2.524,2.524,0,0,0,1.827-.857l4.051-4.62A2.521,2.521,0,0,0,24.455,10.455Zm-.836,2.616L19.568,17.69a1.1,1.1,0,0,1-.794.373h-.031a1.1,1.1,0,0,1-.785-.331l-2.073-2.127a1.1,1.1,0,0,1,1.571-1.531l.709.727a.711.711,0,0,0,1.043-.027l2.763-3.15a1.1,1.1,0,0,1,1.649,1.446Z" transform="translate(4.55 3.16)" fill="#4e5868"/>
  <path id="Path_51" data-name="Path 51" d="M17.984,18.765a.842.842,0,0,0-.782-.524h0a.842.842,0,0,0-.781.525l-.006.016-2.225,5.843a.711.711,0,1,0,1.328.506l.38-1h2.595l.376,1a.711.711,0,0,0,1.33-.5l-2.205-5.843Zm-1.546,3.948.762-2,.755,2Z" transform="translate(4.546 5.864)" fill="#4e5868"/>
  <path id="Path_52" data-name="Path 52" d="M19.992,18.952v5.927a.711.711,0,1,0,1.421,0V18.952a.711.711,0,1,0-1.421,0Z" transform="translate(6.427 5.864)" fill="#4e5868"/>
  <path id="Path_53" data-name="Path 53" d="M22.436,24.864a.728.728,0,0,0,.728.725h0c.05,0,1.24,0,1.716-.013,1.765-.031,3.046-1.57,3.046-3.661,0-2.2-1.249-3.674-3.107-3.674H23.153a.728.728,0,0,0-.728.729s0,2.266,0,2.938C22.429,22.728,22.436,24.864,22.436,24.864ZM24.821,19.7c1.218,0,1.651,1.146,1.651,2.218,0,1.5-.811,2.191-1.615,2.205-.222,0-.615.007-.967.009,0-.7-.005-1.712-.005-2.221,0-.425,0-1.487,0-2.212Z" transform="translate(7.209 5.864)" fill="#4e5868"/>
  <path id="Path_54" data-name="Path 54" d="M10.922,18.241a.725.725,0,0,0-.207.031.7.7,0,0,0-.455.419.715.715,0,0,0-.048.261v5.927a.711.711,0,0,0,1.421,0V23.011l.94,0a2.383,2.383,0,1,0,0-4.767Zm2.645,2.383a.992.992,0,0,1-.995.962l-.932,0c0-.35,0-.743,0-.965,0-.188,0-.6,0-.962h.938A.992.992,0,0,1,13.567,20.624Z" transform="translate(3.283 5.864)" fill="#4e5868"/>
</svg>
