<svg id="Pending" xmlns="http://www.w3.org/2000/svg" width="50" height="50" viewBox="0 0 50 50">
  <path id="Path_57" data-name="Path 57" d="M25,50A25,25,0,1,1,50,25a27.2,27.2,0,0,1-.594,5.5,1.6,1.6,0,1,1-3.125-.687A22.5,22.5,0,0,0,46.875,25a21.875,21.875,0,1,0-11.75,19.406,1.562,1.562,0,1,1,1.438,2.75A24.72,24.72,0,0,1,25,50Z" transform="translate(0 0)" fill="#43b0ef"/>
  <path id="Path_58" data-name="Path 58" d="M30.938,37.125a1.687,1.687,0,0,1-1.688-1.687v-13.5a1.687,1.687,0,1,1,3.375,0v13.5a1.687,1.687,0,0,1-1.687,1.687Z" transform="translate(10.625 6.125)" fill="#43b0ef"/>
  <path id="Path_59" data-name="Path 59" d="M30.938,37.125a1.687,1.687,0,1,0-1.688-1.687A1.688,1.688,0,0,0,30.938,37.125Z" transform="translate(10.625 12.875)" fill="#43b0ef"/>
  <path id="Path_60" data-name="Path 60" d="M11.523,33.007A1.721,1.721,0,0,1,12,30.645L21.378,24.4V8.437a1.687,1.687,0,1,1,3.375,0V25.312a1.721,1.721,0,0,1-.742,1.417L13.886,33.48a1.856,1.856,0,0,1-2.362-.472Z" transform="translate(3.956 1.877)" fill="#43b0ef"/>
</svg>
