<svg id="Pending" xmlns="http://www.w3.org/2000/svg" width="54" height="54" viewBox="0 0 54 54">
  <path id="Path_57" data-name="Path 57" d="M27,54A27,27,0,1,1,54,27a29.37,29.37,0,0,1-.641,5.94,1.728,1.728,0,1,1-3.375-.742,24.3,24.3,0,0,0,.641-5.2,23.625,23.625,0,1,0-12.69,20.959,1.687,1.687,0,1,1,1.553,2.97A26.7,26.7,0,0,1,27,54Z" transform="translate(0 0)" fill="#43b0ef"/>
  <path id="Path_58" data-name="Path 58" d="M30.938,37.125a1.687,1.687,0,0,1-1.688-1.687v-13.5a1.687,1.687,0,1,1,3.375,0v13.5a1.687,1.687,0,0,1-1.687,1.687Z" transform="translate(14.625 10.125)" fill="#43b0ef"/>
  <path id="Path_59" data-name="Path 59" d="M30.938,37.125a1.687,1.687,0,1,0-1.688-1.687A1.688,1.688,0,0,0,30.938,37.125Z" transform="translate(14.625 16.875)" fill="#43b0ef"/>
  <path id="Path_60" data-name="Path 60" d="M11.523,33.007A1.721,1.721,0,0,1,12,30.645L21.378,24.4V8.437a1.687,1.687,0,1,1,3.375,0V25.312a1.721,1.721,0,0,1-.742,1.417L13.886,33.48a1.856,1.856,0,0,1-2.362-.472Z" transform="translate(5.622 3.375)" fill="#43b0ef"/>
</svg>
