<svg xmlns="http://www.w3.org/2000/svg" xmlns:xlink="http://www.w3.org/1999/xlink" width="23.472" height="28.689" viewBox="0 0 23.472 28.689">
  <defs>
    <clipPath id="clip-path">
      <rect id="Rectangle_12856" data-name="Rectangle 12856" width="23.472" height="28.689" fill="#4e5868"/>
    </clipPath>
  </defs>
  <g id="Policy_Details" data-name="Policy Details" clip-path="url(#clip-path)">
    <path id="Path_17801" data-name="Path 17801" d="M13.69,21.519H5.868a.651.651,0,0,0,0,1.3H13.69a.651.651,0,0,0,0-1.3ZM5.868,7.17H9.132a.651.651,0,1,0,0-1.3H5.868a.651.651,0,1,0,0,1.3ZM17.6,16.3H5.868a.651.651,0,1,0,0,1.3H17.6a.651.651,0,1,0,0-1.3ZM5.217,11.736a.652.652,0,0,0,.651.651H17.6a.651.651,0,1,0,0-1.3H5.868A.652.652,0,0,0,5.217,11.736ZM16.953,0H2.6A2.607,2.607,0,0,0,0,2.6V26.077a2.6,2.6,0,0,0,2.6,2.6H20.86a2.607,2.607,0,0,0,2.6-2.6V7.17ZM22.17,26.077a1.3,1.3,0,0,1-1.3,1.3H2.6a1.3,1.3,0,0,1-1.3-1.3V2.6A1.3,1.3,0,0,1,2.6,1.3H14.341V7.822a1.3,1.3,0,0,0,1.3,1.3h6.519V26.077ZM15.651,7.822V1.3H16.3L22.17,7.822Z" fill="#4e5868" fill-rule="evenodd"/>
  </g>
</svg>
