<svg xmlns="http://www.w3.org/2000/svg" width="31" height="31" viewBox="0 0 31 31">
  <g id="Group_31953" data-name="Group 31953" transform="translate(-546 -10432)">
    <g id="Group_31950" data-name="Group 31950" transform="translate(546 10432)">
      <path id="Path_17004" data-name="Path 17004" d="M31,27H43.395v1.771H31Z" transform="translate(-18.331 -22.786)" fill="#68d2c0"/>
      <path id="Path_17651" data-name="Path 17651" d="M31,27H41.194v1.771H31Z" transform="translate(-16.336 -20.218)" fill="#68d2c0"/>
      <path id="Path_17006" data-name="Path 17006" d="M32,13.621a2.563,2.563,0,0,0-3-2.584V2a1,1,0,0,0-1-1H9.293L4,6.293v7L2.489,14.8A5.052,5.052,0,0,0,1,18.4a5.1,5.1,0,0,0,.171,1.311l1.815,6.806L1.89,32h8.22l-.4-2H22.359l-.5,2H29.14l-1.131-4.524.959-6.236a2.68,2.68,0,0,0,.031-.4,3.693,3.693,0,0,0-.811-2.317l3.043-3.043A2.6,2.6,0,0,0,32,13.621ZM28,11.4a2.637,2.637,0,0,0-.475.368L23.293,16H20.5a1.5,1.5,0,0,0-.9,2.7l.568.426-2.521,2.521-.068.068-.747,1.742-1.221-4.15a1.128,1.128,0,0,0-1.077-.806,1.117,1.117,0,0,0-1.109.952l-.84,5.462a.106.106,0,0,1-.2.007l-.773-3.477a1.2,1.2,0,0,0-2.233-.306L7.715,17.813a4.512,4.512,0,0,0,.4.286L10.5,19.59,12.885,18.1A4.475,4.475,0,0,0,15,14.283V9.806l-1.758.586a2.125,2.125,0,0,1-2.15-.508L10.5,9.293l-.593.592a2.121,2.121,0,0,1-2.15.508L6,9.806v4.477a4.5,4.5,0,0,0,.35,1.739A.981.981,0,0,0,6.191,16,2.177,2.177,0,0,0,5,16.357V6.86L5.5,6.7a3.826,3.826,0,0,1,3.311.443l1.193.8V2H28Zm-3.028,8.922A1.6,1.6,0,0,0,23.4,19h0a1.6,1.6,0,0,0-1.566,1.284l-.775,3.875c-.006.03-.008.059-.013.089L21,24.293,18.707,22,25,15.707,27.293,18ZM17.026,25.54l.242-.565.756.756-.563.242a.338.338,0,0,1-.461-.3A.335.335,0,0,1,17.026,25.54Zm1.988-.233-1.322-1.321.476-1.11,1.956,1.955ZM20.2,17.9a.5.5,0,0,1,.3-.9h1.793l-1.411,1.411ZM25.707,15l.793-.793L28.793,16.5,28,17.293ZM7,14.283V11.193l.441.147A3.133,3.133,0,0,0,10.5,10.7a3.129,3.129,0,0,0,3.058.639L14,11.194v3.09a3.481,3.481,0,0,1-1.645,2.968L10.5,18.41,8.645,17.251A3.481,3.481,0,0,1,7,14.283ZM6.175,5.532,9,2.707V6.088A4.835,4.835,0,0,0,6.175,5.532ZM3.11,31l.8-4H8.09l.8,4Zm5.5-5.829L8.191,26H3.884L2.138,19.451A4.083,4.083,0,0,1,3.2,15.511l.8-.8V18.5h.025a2.4,2.4,0,0,0,.1.451L4.872,21.2A2.5,2.5,0,0,1,5,21.987V23H6V21.987a3.5,3.5,0,0,0-.18-1.107l-.748-2.245A1.4,1.4,0,0,1,5,18.191,1.192,1.192,0,0,1,6.191,17l2.415,4.829a3.736,3.736,0,0,1,0,3.342ZM9.51,29,9.024,26.57l.476-.952a4.713,4.713,0,0,0,.366-3.231l.387-.774a.213.213,0,0,1,.382.047l.772,3.477a1.1,1.1,0,0,0,2.165-.071l.84-5.462a.127.127,0,0,1,.239-.016L16.213,24.9l-.106.247a1.318,1.318,0,0,0-.107.524,1.33,1.33,0,0,0,1.853,1.222L21.1,25.5a3.019,3.019,0,0,0,1.1,1.65l.733.55L22.609,29ZM23.14,31l.75-3h3.219l.75,3ZM28,20.835a1.641,1.641,0,0,1-.019.252L27.071,27h-3.4l-.865-.648a2,2,0,0,1-.762-2l.775-3.875A.6.6,0,0,1,23.4,20h0a.6.6,0,0,1,.6.6V24h1V21.707l2.471-2.471A2.7,2.7,0,0,1,28,20.835Zm2.525-6.068L29.5,15.793,27.207,13.5l1.025-1.025a1.621,1.621,0,1,1,2.293,2.293Z" transform="translate(-1 -1)" fill="#68d2c0"/>
    </g>
  </g>
</svg>
