<svg id="Registerd" xmlns="http://www.w3.org/2000/svg" width="31.676" height="31.679" viewBox="0 0 31.676 31.679">
  <path id="Path_94" data-name="Path 94" d="M26.352,25.438a.663.663,0,0,1-.467-.193l-2.8-2.8a.66.66,0,0,0-.933.933.66.66,0,1,1-.933.933,1.98,1.98,0,0,1,2.8-2.8l2.8,2.8a.659.659,0,0,1-.467,1.126Z" transform="translate(-2.477 -2.513)" fill="#4e5868"/>
  <path id="Path_95" data-name="Path 95" d="M24.866,23.447a.663.663,0,0,1-.467-.193,1.986,1.986,0,0,1,0-2.8,2.031,2.031,0,0,1,2.8,0l1.867,1.867a.66.66,0,0,1-.933.933l-1.867-1.867a.66.66,0,1,0-.935.933.659.659,0,0,1-.466,1.126Z" transform="translate(-2.859 -2.388)" fill="#4e5868"/>
  <path id="Path_96" data-name="Path 96" d="M25.961,33.939a5.873,5.873,0,0,1-1.455-.182l-4.6-1.174a.654.654,0,0,1-.407-.306,2.37,2.37,0,0,1,.386-2.85,2.536,2.536,0,0,1,1.662-.672l-5.63-5.63a1.981,1.981,0,0,1,0-2.8,2.031,2.031,0,0,1,2.8,0l5.6,5.6a.66.66,0,1,1-.933.933l-5.6-5.6a.678.678,0,0,0-.933,0,.66.66,0,0,0,0,.933l7,7a.66.66,0,0,1-.674,1.093c-.562-.183-1.876-.409-2.359.074a1,1,0,0,0-.271,1.024l4.288,1.093a4.638,4.638,0,0,0,4.408-1.21l1.609-1.608a4.627,4.627,0,0,0,0-6.534l-2.8-2.8a.675.675,0,0,0-.933,0,.657.657,0,0,0,0,.933.66.66,0,0,1-.933.933,1.977,1.977,0,0,1,0-2.8,2.024,2.024,0,0,1,2.8,0l2.8,2.8a5.948,5.948,0,0,1,0,8.4L30.171,32.2A5.951,5.951,0,0,1,25.961,33.939Z" transform="translate(-1.841 -2.26)" fill="#4e5868"/>
  <path id="Path_97" data-name="Path 97" d="M13.861,28.262H3.3a3.3,3.3,0,0,1-3.3-3.3V7.8A3.3,3.3,0,0,1,3.3,4.5H5.94a.66.66,0,0,1,0,1.32H3.3A1.983,1.983,0,0,0,1.32,7.8V24.961a1.983,1.983,0,0,0,1.98,1.98H13.861a.66.66,0,1,1,0,1.32Z" transform="translate(0 -0.54)" fill="#4e5868"/>
  <path id="Path_98" data-name="Path 98" d="M15.9,7.92H7.981A1.983,1.983,0,0,1,6,5.94V3.3a.66.66,0,0,1,.66-.66H8.707a3.3,3.3,0,0,1,6.468,0h2.046a.66.66,0,0,1,.66.66V5.94A1.983,1.983,0,0,1,15.9,7.92ZM7.321,3.96V5.94a.661.661,0,0,0,.66.66H15.9a.661.661,0,0,0,.66-.66V3.96h-1.98a.66.66,0,0,1-.66-.66,1.98,1.98,0,0,0-3.96,0,.66.66,0,0,1-.66.66Z" transform="translate(-0.72)" fill="#4e5868"/>
  <path id="Path_99" data-name="Path 99" d="M23.942,16.381a.66.66,0,0,1-.66-.66V7.8A1.983,1.983,0,0,0,21.3,5.82h-2.64a.66.66,0,0,1,0-1.32H21.3a3.3,3.3,0,0,1,3.3,3.3v7.92A.66.66,0,0,1,23.942,16.381Z" transform="translate(-2.161 -0.54)" fill="#4e5868"/>
  <path id="Path_100" data-name="Path 100" d="M18.361,13.321H5.16a.66.66,0,1,1,0-1.32h13.2a.66.66,0,0,1,0,1.32Z" transform="translate(-0.54 -1.44)" fill="#4e5868"/>
  <path id="Path_101" data-name="Path 101" d="M18.361,17.821H5.16a.66.66,0,1,1,0-1.32h13.2a.66.66,0,0,1,0,1.32Z" transform="translate(-0.54 -1.981)" fill="#4e5868"/>
  <path id="Path_102" data-name="Path 102" d="M11.761,22.322H5.16a.66.66,0,1,1,0-1.32h6.6a.66.66,0,1,1,0,1.32Z" transform="translate(-0.54 -2.521)" fill="#4e5868"/>
</svg>
