<svg xmlns="http://www.w3.org/2000/svg" width="31" height="31" viewBox="0 0 31 31">
  <g id="Group_31954" data-name="Group 31954" transform="translate(-1253 -675)">
    <g id="Group_31949" data-name="Group 31949" transform="translate(1253 675)">
      <path id="Path_57" data-name="Path 57" d="M15.5,31A15.5,15.5,0,1,1,31,15.5a16.861,16.861,0,0,1-.368,3.41.992.992,0,1,1-1.937-.426,13.952,13.952,0,0,0,.368-2.984,13.562,13.562,0,1,0-7.285,12.032.969.969,0,1,1,.891,1.7A15.326,15.326,0,0,1,15.5,31Z" transform="translate(0 0)" fill="#43b0ef"/>
      <path id="Path_58" data-name="Path 58" d="M30.3,30.712a1.046,1.046,0,0,1-1.046-1.046V21.3a1.046,1.046,0,1,1,2.092,0v8.37A1.046,1.046,0,0,1,30.3,30.712Z" transform="translate(-4.528 -3.898)" fill="#43b0ef"/>
      <path id="Path_59" data-name="Path 59" d="M30.3,35.842A1.046,1.046,0,1,0,29.25,34.8,1.046,1.046,0,0,0,30.3,35.842Z" transform="translate(-4.528 -4.843)" fill="#43b0ef"/>
      <path id="Path_60" data-name="Path 60" d="M11.417,23.03a1.067,1.067,0,0,1,.293-1.465l5.817-3.871V7.8a1.046,1.046,0,1,1,2.092,0V18.259a1.067,1.067,0,0,1-.46.879l-6.277,4.185a1.151,1.151,0,0,1-1.465-.293Z" transform="translate(-1.82 -1.401)" fill="#43b0ef"/>
    </g>
  </g>
</svg>
