<svg xmlns="http://www.w3.org/2000/svg" width="22.567" height="28.722" viewBox="0 0 22.567 28.722">
  <g id="upload" transform="translate(-5 -2)">
    <path id="Path_17025" data-name="Path 17025" d="M12.3,14.828a1.026,1.026,0,0,1,0-1.451L15.378,10.3a1.026,1.026,0,0,1,1.451,0l3.077,3.077a1.026,1.026,0,0,1-1.451,1.451L17.129,13.5v4.7a1.026,1.026,0,0,1-2.052,0V13.5l-1.326,1.326A1.026,1.026,0,0,1,12.3,14.828Z" transform="translate(0.18 0.206)" fill="#4e5868"/>
    <path id="Path_17026" data-name="Path 17026" d="M21.283,22.052a1.026,1.026,0,1,0,0-2.052H11.026a1.026,1.026,0,0,0,0,2.052Z" transform="translate(0.129 0.464)" fill="#4e5868"/>
    <path id="Path_17027" data-name="Path 17027" d="M8.712,3.155A3.077,3.077,0,0,1,11.115,2H24.49a3.077,3.077,0,0,1,3.077,3.077V27.644a3.077,3.077,0,0,1-3.077,3.077H8.077A3.077,3.077,0,0,1,5,27.644V8.874a3.077,3.077,0,0,1,.674-1.922Zm2.4.9a1.026,1.026,0,0,0-.8.385l-3.038,3.8a1.026,1.026,0,0,0-.225.641v18.77A1.026,1.026,0,0,0,8.077,28.67H24.49a1.026,1.026,0,0,0,1.026-1.026V5.077A1.026,1.026,0,0,0,24.49,4.052Z" transform="translate(0 0)" fill="#4e5868" fill-rule="evenodd"/>
  </g>
</svg>
