<svg id="writing" xmlns="http://www.w3.org/2000/svg" width="20.725" height="23.125" viewBox="0 0 20.725 23.125">
  <g id="Group_31722" data-name="Group 31722" transform="translate(0)">
    <g id="Group_31721" data-name="Group 31721">
      <path id="Path_17888" data-name="Path 17888" d="M117.115,200.866a.866.866,0,0,0-.866-.866h-8.923a.866.866,0,0,0,0,1.733h8.923A.866.866,0,0,0,117.115,200.866Z" transform="translate(-102.68 -190.935)" fill="#fff"/>
      <path id="Path_17889" data-name="Path 17889" d="M107.325,280a.866.866,0,1,0,0,1.733h5.42a.866.866,0,1,0,0-1.733Z" transform="translate(-102.768 -267.31)" fill="#fff"/>
      <path id="Path_17890" data-name="Path 17890" d="M33.24,21.318H30.2a1.814,1.814,0,0,1-1.816-1.807V3.613A1.814,1.814,0,0,1,30.2,1.807H41.368a1.814,1.814,0,0,1,1.816,1.807V9.169a.908.908,0,0,0,1.816,0V3.613A3.627,3.627,0,0,0,41.368,0H30.2A3.627,3.627,0,0,0,26.57,3.613v15.9A3.627,3.627,0,0,0,30.2,23.125H33.24a.9.9,0,1,0,0-1.807Z" transform="translate(-26.57)" fill="#fff"/>
      <path id="Path_17891" data-name="Path 17891" d="M253.179,272.784a2.6,2.6,0,0,0-3.675,0l-4.756,4.746a.867.867,0,0,0-.217.361l-1.036,3.41a.866.866,0,0,0,1.06,1.087l3.5-.969a.866.866,0,0,0,.381-.222l4.746-4.738A2.6,2.6,0,0,0,253.179,272.784Zm-5.809,7.026-1.759.487.515-1.695,3.209-3.2,1.225,1.225Zm4.585-4.576-.168.168-1.225-1.225.167-.167a.866.866,0,0,1,1.226,1.225Z" transform="translate(-233.214 -259.294)" fill="#fff"/>
      <path id="Path_17892" data-name="Path 17892" d="M116.249,120h-8.923a.866.866,0,1,0,0,1.733h8.923a.866.866,0,0,0,0-1.733Z" transform="translate(-102.68 -114.561)" fill="#fff"/>
    </g>
  </g>
</svg>
