<svg id="g6504" xmlns="http://www.w3.org/2000/svg" width="75.144" height="20.434" viewBox="0 0 75.144 20.434">
  <path id="path6506" d="M6.686,2.543H1.217a7.371,7.371,0,0,0-7.4,7.657,7.719,7.719,0,0,0,7.817,7.883A7.757,7.757,0,0,0,9.425,10.07v-4.5H6.686v4.5c0,2.431-1.765,5.4-5.043,5.4A5.181,5.181,0,0,1-3.409,10.2,5.037,5.037,0,0,1,1.9,5.12H6.516L9.425,2.543V-2.35H6.686Zm14.251-.537c-2.537,0-4.922,1.428-5.683,2.855V2.545H12.621V17.711H15.54V8.318c0-2.686,2.911-4.027,4.75-4.027,3.166,0,3.814,2.093,3.814,4.568v8.851h2.79V8.541c0-5.267-2.935-6.535-5.957-6.535M50.414,15.529c-1.346,0-1.729-1.064-1.729-2.15V5.03h4.63V2.542h-4.63V-2.35H45.931V13.939a3.856,3.856,0,0,0,4.09,4.145,9.087,9.087,0,0,0,3.458-.641L52.7,14.988a6.332,6.332,0,0,1-2.287.541M68.964,7.142c0-2.218-1.861-4.908-7.074-4.908h-.01a13.7,13.7,0,0,0-6.054,1.693L57,5.939a9.559,9.559,0,0,1,4.863-1.3c4.052,0,4.407,1.853,4.415,2.722v.23s-3.08.267-4.9.437a8.513,8.513,0,0,0-5.306,2.024,4.4,4.4,0,0,0-1.39,3.184v.034c0,3.183,3.067,4.809,6.479,4.809a12.686,12.686,0,0,0,5.209-1.355v.992h2.592Zm-7.952,8.641c-1.034,0-3.472-.413-3.472-2.86,0-1.826,2.2-2.568,4.022-2.728,1.28-.112,4.739-.4,4.739-.4s0,3.677,0,4c-.935,1.3-3.112,2-5.29,2M43.244,7.142c0-2.6-2.284-4.908-7.084-4.908a14.243,14.243,0,0,0-6.054,1.693l1.177,2.013a9.555,9.555,0,0,1,4.863-1.3c4.051,0,4.407,1.853,4.415,2.722v.23s-3.079.273-4.9.437c-2.924.262-6.695,1.605-6.695,5.242,0,3.169,3.067,4.809,6.478,4.809a12.692,12.692,0,0,0,5.21-1.355v.992h2.592Zm-7.953,8.641c-1.034,0-3.472-.413-3.472-2.86,0-1.826,2.2-2.568,4.022-2.728,1.28-.112,4.739-.4,4.739-.4s0,3.677,0,4c-.935,1.3-3.113,2-5.291,2" transform="translate(6.178 2.35)" fill="#0090cb"/>
</svg>
