<svg xmlns="http://www.w3.org/2000/svg" xmlns:xlink="http://www.w3.org/1999/xlink" width="35" height="35" viewBox="0 0 35 35">
  <defs>
    <clipPath id="clip-path">
      <rect id="Rectangle_13303" data-name="Rectangle 13303" width="35" height="35" transform="translate(0 0.438)" fill="#00ae8d"/>
    </clipPath>
  </defs>
  <g id="agreement_1" data-name="agreement 1" transform="translate(0 -0.438)" clip-path="url(#clip-path)">
    <path id="Path_18110" data-name="Path 18110" d="M21.505,7.739a.539.539,0,0,0,0,1.077h2.426a.946.946,0,0,0,.945-.944V6.006a.946.946,0,0,0-.945-.945H12.79a.946.946,0,0,0-.945.945V7.872a.946.946,0,0,0,.945.945h6.183a.539.539,0,1,0,0-1.077h-6.05v-1.6H23.8v1.6Z" transform="translate(-4.849 -2.072)" fill="#00ae8d"/>
    <path id="Path_18111" data-name="Path 18111" d="M7.77,15.729a.539.539,0,0,0,.539.539H25.19a.539.539,0,0,0,0-1.077H8.308A.539.539,0,0,0,7.77,15.729Z" transform="translate(-3.181 -6.218)" fill="#00ae8d"/>
    <path id="Path_18112" data-name="Path 18112" d="M8.308,22.005H25.19a.539.539,0,0,0,0-1.077H8.308a.539.539,0,1,0,0,1.077Z" transform="translate(-3.181 -8.567)" fill="#00ae8d"/>
    <path id="Path_18113" data-name="Path 18113" d="M21.86,27.205a.539.539,0,0,0-.539-.539H8.308a.539.539,0,1,0,0,1.077H21.321A.539.539,0,0,0,21.86,27.205Z" transform="translate(-3.181 -10.917)" fill="#00ae8d"/>
    <path id="Path_18114" data-name="Path 18114" d="M15.036,33.482a.539.539,0,0,0,0-1.077H8.308a.539.539,0,1,0,0,1.077Z" transform="translate(-3.181 -13.266)" fill="#00ae8d"/>
    <path id="Path_18115" data-name="Path 18115" d="M7.311,50.129a.538.538,0,0,0,.666-.37,1.771,1.771,0,0,1,1.732-1.2,2.009,2.009,0,0,1,1.447.636,3.375,3.375,0,0,0,2.383.952,3.03,3.03,0,0,0,2.4-1.694.539.539,0,0,0-.964-.482c-.006.011-.567,1.1-1.434,1.1a2.309,2.309,0,0,1-1.7-.7,3.041,3.041,0,0,0-2.134-.883A2.844,2.844,0,0,0,6.94,49.463.539.539,0,0,0,7.311,50.129Z" transform="translate(-2.833 -19.439)" fill="#00ae8d"/>
    <path id="Path_18116" data-name="Path 18116" d="M35.324,5.531a.539.539,0,0,0-.289-.3L33.783,4.7A.548.548,0,0,0,33.5,4.01l-.25-.108.4-.938a2.124,2.124,0,0,0-3.9-1.684l-.417.966a1.066,1.066,0,0,0-1.152.623l-1.122,2.6V2.71A2.713,2.713,0,0,0,24.351,0H3.124A2.713,2.713,0,0,0,.414,2.709V32.728a2.713,2.713,0,0,0,2.709,2.709H24.352a2.712,2.712,0,0,0,2.709-2.709V25.187a.539.539,0,1,0-1.077,0v7.541a1.634,1.634,0,0,1-1.632,1.632H3.124a1.634,1.634,0,0,1-1.632-1.632V2.709A1.634,1.634,0,0,1,3.124,1.077H24.351A1.635,1.635,0,0,1,25.984,2.71V7.962L17.728,27.084a.545.545,0,0,0-.045.214l.006,4.537a1.193,1.193,0,0,0,1.994.861l3.306-3.107a.535.535,0,0,0,.112-.151l.009-.017.005-.011L33.357,5.692l.759.323-4.006,9.316a.539.539,0,1,0,.99.426l4.22-9.813A.539.539,0,0,0,35.324,5.531ZM31.763,1.079a1.057,1.057,0,0,1,.9,1.459l-.4.937-1.921-.829.405-.938A1.051,1.051,0,0,1,31.763,1.079Zm-2.6,2.234,3.409,1.472L28.243,14.819l-3.41-1.472ZM22.34,28.489l-3.409-1.472,5.475-12.681,3.41,1.472Zm-3.394,3.422a.107.107,0,0,1-.179-.077l-.005-3.717,2.892,1.249Z" transform="translate(-0.17)" fill="#00ae8d"/>
  </g>
</svg>
