<svg xmlns="http://www.w3.org/2000/svg" width="803.943" height="253" viewBox="0 0 803.943 253">
  <g id="Group_32695" data-name="Group 32695" transform="translate(0.538)">
    <rect id="Rectangle_12169" data-name="Rectangle 12169" width="800" height="253" fill="#D8DDE3"/>
    <path id="Path_17974" data-name="Path 17974" d="M4835.669,3900.215s106.368,99.729,208.021,59.906c97.892-38.35,139.732-85.855,219.441-64.756s127.582,82.59,200.055,81.273c80.75-1.466,173.446-59.583,175.048-56.424" transform="translate(-4835.5 -3750.215)" fill="none" stroke="#707070" stroke-linecap="round" stroke-width="1" stroke-dasharray="2 4"/>
    <g id="Group_32612" data-name="Group 32612" transform="translate(-14349 5586.641)">
      <path id="Path_21684" data-name="Path 21684" d="M163.213,451.226l3.813,8.28,2.074,1.483v7.019l-5.987-2.871L156.423,455s-2.907-5.674-4.138-8.452c-1.493-3.366-3.01-7.812-2.561-7.894a6.529,6.529,0,0,1,4.435.586c5.1,2.984,9.054,11.982,9.054,11.982" transform="translate(14651.979 -5879.323)" fill="#e98050" fill-rule="evenodd"/>
      <path id="Path_21685" data-name="Path 21685" d="M221.476,524.135a5.53,5.53,0,1,1-6.665-4.093,5.532,5.532,0,0,1,6.665,4.093m-8.159-10.351a4.208,4.208,0,0,1-4.651-2.023,15.352,15.352,0,0,0-3.24,2.356,4.215,4.215,0,0,1,.494,5.01l-.023.036-.031.038,0,.01c-.1.158-.194.324-.287.48.072-.127.15-.271.231-.405a4.181,4.181,0,0,1-4.619,1.733,15.208,15.208,0,0,0-.637,3.949,4.218,4.218,0,0,1,1.883,7.881,15.488,15.488,0,0,0,2.355,3.242,4.18,4.18,0,0,1,4.951-.523l-.393-.255c.158.095.318.2.476.3l.086.048a4.22,4.22,0,0,1,1.774,4.665,15.358,15.358,0,0,0,3.956.636,4.211,4.211,0,0,1,7.873-1.88,15.333,15.333,0,0,0,3.243-2.356,4.221,4.221,0,0,1-.5-5l.034-.036.012-.034a4.2,4.2,0,0,1,4.69-1.823,15.465,15.465,0,0,0,.635-3.956,4.239,4.239,0,0,1-3.865-3.079l-.074-.312a4.233,4.233,0,0,1,2.057-4.49,15.223,15.223,0,0,0-2.353-3.235,4.221,4.221,0,0,1-4.974.507l-.012-.008-.109-.067a4.21,4.21,0,0,1-1.8-4.675,15.642,15.642,0,0,0-3.958-.636,4.2,4.2,0,0,1-3.223,3.9" transform="translate(14612.44 -5934.747)" fill="#00ae8d" fill-rule="evenodd"/>
      <path id="Path_21686" data-name="Path 21686" d="M566.852,460.37a7.2,7.2,0,1,1-8.667-5.325,7.19,7.19,0,0,1,8.667,5.325m-16.179,3.865a9.444,9.444,0,1,0,6.989-11.378,9.432,9.432,0,0,0-6.989,11.378" transform="translate(14346.23 -5890.366)" fill="#68d2c0" fill-rule="evenodd"/>
      <path id="Path_21687" data-name="Path 21687" d="M227.3,568.058l.083.039-.086-.048Zm-.085-.054-.393-.255c.158.1.318.2.476.3Zm18.017-12.77-.03-.157-.045-.155Zm-21.95-3.512c-.08.134-.159.278-.23.405.093-.156.19-.322.287-.48Z" transform="translate(14594.967 -5967.183)" fill="#bac1c2" fill-rule="evenodd"/>
      <path id="Path_21688" data-name="Path 21688" d="M237.041,535.816a8.761,8.761,0,1,1-10.553-6.488,8.755,8.755,0,0,1,10.553,6.488m-18.694-4.258-.017.032-.032.042a11.967,11.967,0,0,0,20.392,12.528l.021-.043.019-.031a11.957,11.957,0,0,0-3.886-16.391l-.014-.006-.05-.029-.046-.032-.008-.009a11.974,11.974,0,0,0-16.378,3.938" transform="translate(14600.012 -5947.178)" fill="#68d2c0" fill-rule="evenodd"/>
      <path id="Path_21689" data-name="Path 21689" d="M293.132,350.136l-2.783,1.561a1.962,1.962,0,0,0-.75,2.662l.592,1.057c.7,1.246.377,1.8.151,2-.622.54-1.2,1.127-1.782,1.712-.17.172-.713.76-2.1-.077l-.953-.574a1.961,1.961,0,0,0-2.685.665l-1.648,2.733a1.962,1.962,0,0,0,.665,2.686l.944.568c1.3.785,1.263,1.177,1.088,1.732-.241.761-.5,1.524-.679,2.313-.16.7-.1,1.209-1.89,1.18l-1.1-.018a1.96,1.96,0,0,0-1.987,1.925l-.051,3.191a1.959,1.959,0,0,0,1.924,1.987l1.1.017c1.789.029,1.714.532,1.851,1.239.155.795.388,1.565.6,2.334.158.561.185.953-1.142,1.7l-.961.538a1.962,1.962,0,0,0-.75,2.663l1.56,2.784a1.962,1.962,0,0,0,2.663.75l.971-.543c1.415-.793,1.939-.189,2.1-.011.562.6,1.122,1.209,1.726,1.768.22.2.524.767-.213,1.991l-.625,1.037a1.961,1.961,0,0,0,.665,2.685l2.733,1.648a1.963,1.963,0,0,0,2.686-.665l.624-1.034c.749-1.242,1.466-1.181,1.767-1.08.875.294,1.685.489,2.589.739.33.091.894.341.87,1.835l-.018,1.12a1.96,1.96,0,0,0,1.925,1.987l3.191.051a1.96,1.96,0,0,0,1.987-1.925l.018-1.12c.024-1.494.6-1.726.928-1.807.912-.222,1.727-.39,2.611-.656.3-.092,1.023-.13,1.732,1.135l.591,1.054a1.961,1.961,0,0,0,2.663.75l2.784-1.561a1.961,1.961,0,0,0,.75-2.662l-.592-1.057c-.7-1.246-.377-1.8-.15-2,.622-.54,1.2-1.127,1.781-1.712.17-.172.713-.76,2.1.077l.953.574a1.962,1.962,0,0,0,2.685-.665l1.648-2.733a1.961,1.961,0,0,0-.665-2.685l-.944-.569c-1.3-.785-1.263-1.177-1.087-1.732.241-.762.5-1.523.679-2.313.16-.7.1-1.209,1.89-1.18l1.1.017a1.96,1.96,0,0,0,1.987-1.925l.05-3.191a1.959,1.959,0,0,0-1.925-1.987l-1.1-.018c-1.789-.029-1.714-.531-1.851-1.239-.155-.795-.388-1.565-.6-2.334-.158-.561-.185-.953,1.142-1.7l.962-.538a1.962,1.962,0,0,0,.75-2.663l-1.56-2.784a1.961,1.961,0,0,0-2.663-.75l-.971.543c-1.415.793-1.939.188-2.1.011-.562-.6-1.121-1.209-1.726-1.768-.22-.2-.524-.767.214-1.991l.626-1.037a1.961,1.961,0,0,0-.665-2.685l-2.733-1.648a1.961,1.961,0,0,0-2.685.665l-.624,1.034c-.749,1.242-1.465,1.181-1.767,1.08-.876-.294-1.685-.488-2.589-.739-.33-.091-.894-.341-.87-1.835l.018-1.12a1.96,1.96,0,0,0-1.925-1.987l-3.19-.051a1.96,1.96,0,0,0-1.987,1.925l-.018,1.119c-.023,1.494-.6,1.726-.928,1.807-.912.222-1.727.39-2.611.656-.3.091-1.023.13-1.732-1.136l-.591-1.054a1.962,1.962,0,0,0-2.663-.75M304.9,370.063a4.214,4.214,0,1,1-4.28,4.147,4.214,4.214,0,0,1,4.28-4.147m-13.275,4a.9.9,0,1,1,1.8.029,11.406,11.406,0,0,0,11.223,11.586.9.9,0,1,1-.029,1.8,13.209,13.209,0,0,1-13-13.417m26.275-1.711a.9.9,0,0,1-1.779.254,11.415,11.415,0,0,0-9.152-9.541.9.9,0,1,1,.331-1.77,13.218,13.218,0,0,1,10.6,11.057m-12.819-13.73a15.652,15.652,0,1,1-15.9,15.4,15.652,15.652,0,0,1,15.9-15.4" transform="translate(14553.834 -5810.166)" fill="#43b0ef" fill-rule="evenodd"/>
      <path id="Path_21690" data-name="Path 21690" d="M502.963,395.028l-2.324,1.351a1.653,1.653,0,0,0-.6,2.252l.513.882c.605,1.04.341,1.511.154,1.679-.517.463-1,.965-1.478,1.465-.141.148-.59.65-1.771-.037l-.81-.47a1.653,1.653,0,0,0-2.253.6l-1.351,2.324a1.651,1.651,0,0,0,.6,2.252l.8.466c1.108.644,1.079.974.939,1.444-.192.645-.4,1.29-.541,1.957-.125.594-.069,1.019-1.576,1.019h-.923a1.651,1.651,0,0,0-1.648,1.648v2.688a1.651,1.651,0,0,0,1.648,1.647h.923c1.507,0,1.45.425,1.576,1.019.141.667.348,1.313.541,1.957.14.47.169.8-.939,1.444l-.8.466a1.652,1.652,0,0,0-.6,2.253l1.351,2.324a1.652,1.652,0,0,0,2.253.6l.81-.47c1.181-.687,1.63-.184,1.771-.037.481.5.961,1,1.478,1.466.188.168.452.639-.154,1.679l-.513.882a1.652,1.652,0,0,0,.6,2.252l2.324,1.352a1.652,1.652,0,0,0,2.252-.6l.512-.88c.614-1.057,1.218-1.015,1.474-.933.741.236,1.425.389,2.19.588.279.073.757.276.757,1.534v.943a1.651,1.651,0,0,0,1.647,1.648h2.688a1.651,1.651,0,0,0,1.647-1.648v-.943c0-1.258.479-1.462.757-1.534.764-.2,1.449-.352,2.19-.588.256-.081.86-.123,1.474.933l.512.88a1.651,1.651,0,0,0,2.252.6l2.324-1.352a1.651,1.651,0,0,0,.6-2.252l-.513-.882c-.605-1.041-.341-1.511-.154-1.679.518-.462,1-.965,1.477-1.466.142-.147.59-.649,1.772.037l.81.47a1.652,1.652,0,0,0,2.253-.6l1.351-2.324a1.652,1.652,0,0,0-.6-2.253l-.8-.466c-1.107-.644-1.079-.974-.939-1.444.192-.645.4-1.29.541-1.957.125-.595.069-1.019,1.576-1.019h.923a1.65,1.65,0,0,0,1.648-1.647v-2.688a1.651,1.651,0,0,0-1.648-1.648h-.923c-1.507,0-1.45-.425-1.576-1.019-.141-.668-.348-1.313-.541-1.957-.14-.47-.169-.8.939-1.444l.8-.466a1.652,1.652,0,0,0,.6-2.252l-1.351-2.324a1.653,1.653,0,0,0-2.253-.6l-.81.47c-1.181.687-1.63.185-1.772.037-.481-.5-.96-1-1.477-1.465-.188-.168-.452-.639.154-1.679l.513-.882a1.652,1.652,0,0,0-.6-2.252l-2.324-1.351a1.652,1.652,0,0,0-2.252.6l-.512.88c-.614,1.056-1.218,1.015-1.474.933-.741-.235-1.426-.388-2.19-.587-.279-.073-.757-.276-.757-1.534v-.943a1.651,1.651,0,0,0-1.647-1.648H511.8a1.65,1.65,0,0,0-1.647,1.648v.943c0,1.258-.479,1.461-.757,1.534-.765.2-1.449.352-2.19.587-.256.082-.86.123-1.474-.933l-.512-.88a1.652,1.652,0,0,0-2.252-.6m10.177,6.99A13.182,13.182,0,1,1,499.957,415.2a13.182,13.182,0,0,1,13.182-13.182" transform="translate(14392.948 -5843.525)" fill="#68d2c0" fill-rule="evenodd"/>
      <rect id="Rectangle_13271" data-name="Rectangle 13271" width="20.301" height="7.013" transform="translate(14919.187 -5460.441)" fill="#e98050"/>
      <path id="Path_21691" data-name="Path 21691" d="M623.606,162.012a3.343,3.343,0,0,0,2.032-3.212V158.3c.239-13.736,12.31-17.586,13.286-32.781a23.015,23.015,0,0,0-.025-3.338c-1.891-11.525-12.844-19.263-25.151-19.263-14.024,0-26.291,10.047-25.393,24.3.929,14.742,12.429,18.477,12.656,31.8,0,1.442,1.542,3.106,2.856,2.99Z" transform="translate(14315.696 -5626.355)" fill="#e98050" fill-rule="evenodd"/>
      <path id="Path_21692" data-name="Path 21692" d="M628.677,165.9l-5.248,4.57-9.687-2.338-4.483-2.232-.062.006c-.463-.013-1.147-.984-1.154-1.449a23.75,23.75,0,0,0-3.984-12.671c-1.781-2.891-3.871-5.576-5.515-8.555a24.5,24.5,0,0,1-3.162-10.652,19.727,19.727,0,0,1,3.693-12.993c4.589-6.349,12.427-9.634,20.133-9.634,10.873,0,21.711,6.645,23.59,17.883a21.5,21.5,0,0,1,.017,3.047,25.007,25.007,0,0,1-3.367,11.079c-1.751,3.1-3.968,5.887-5.843,8.906a24.121,24.121,0,0,0-4.078,12.9v.495a1.76,1.76,0,0,1-.851,1.641" transform="translate(14310.233 -5631.818)" fill="#e98050" fill-rule="evenodd"/>
      <path id="Path_21693" data-name="Path 21693" d="M621.855,167.8l-1.927,1.831-6.187-1.493-4.482-2.233-.062.006c-.463-.014-1.147-.985-1.154-1.449a23.738,23.738,0,0,0-3.983-12.671c-1.781-2.892-3.87-5.576-5.514-8.556a24.5,24.5,0,0,1-3.162-10.652,19.726,19.726,0,0,1,3.693-12.993c4.588-6.35,12.427-9.634,20.132-9.634a27.139,27.139,0,0,1,6.8.87,22.289,22.289,0,0,1,9.973,15.456,25.535,25.535,0,0,1,.017,3.324,29.09,29.09,0,0,1-3.367,12.085c-1.751,3.381-3.968,6.42-5.843,9.713a27.984,27.984,0,0,0-4.078,14.066v.54a1.974,1.974,0,0,1-.851,1.79" transform="translate(14310.233 -5631.816)" fill="#ff8a54" fill-rule="evenodd"/>
      <path id="Path_21694" data-name="Path 21694" d="M652.953,379.994A3.069,3.069,0,0,0,656,382.751h2.341l.911,1.489c.523.855.831.913,1.835.913h5.5c1,0,1.31-.054,1.835-.913l.911-1.489h2.342a3.068,3.068,0,0,0,3.035-2.7v-1.07a.8.8,0,0,0-.772-.61H653.731a.8.8,0,0,0-.773.617c-.007.032.013.1,0,.112Zm20.7-7.03H654.016a1.081,1.081,0,0,0-1.078,1.078v1.673a1.081,1.081,0,0,0,1.078,1.079h19.635a1.081,1.081,0,0,0,1.078-1.079v-1.673a1.081,1.081,0,0,0-1.078-1.078m-.044-5.506H654.06a1.126,1.126,0,0,0-1.122,1.122v1.741a1.126,1.126,0,0,0,1.122,1.122h19.547a1.126,1.126,0,0,0,1.122-1.122v-1.741a1.126,1.126,0,0,0-1.122-1.122" transform="translate(14265.502 -5831.801)" fill="#ff8a54" fill-rule="evenodd"/>
      <path id="Path_21695" data-name="Path 21695" d="M524.585,0h0a1.137,1.137,0,0,1,1.134,1.134V15.443a1.134,1.134,0,1,1-2.268,0V1.134A1.137,1.137,0,0,1,524.585,0M482.425,74.372h0a1.137,1.137,0,0,0,1.531.474l12.659-6.674a1.137,1.137,0,0,0,.474-1.532h0a1.136,1.136,0,0,0-1.531-.474L482.9,72.841a1.136,1.136,0,0,0-.474,1.531m-7.746-23.821h0a1.138,1.138,0,0,0,1.206,1.057l14.279-.939a1.136,1.136,0,0,0,1.057-1.205h0a1.138,1.138,0,0,0-1.206-1.057l-14.279.938a1.138,1.138,0,0,0-1.057,1.206m4.644-24.157h0a1.137,1.137,0,0,0,.671,1.456l13.423,4.96a1.137,1.137,0,0,0,1.456-.671h0a1.137,1.137,0,0,0-.671-1.457l-13.423-4.96a1.136,1.136,0,0,0-1.456.67m17.552-19.24h0a1.137,1.137,0,0,0-.233,1.586l8.542,11.481a1.137,1.137,0,0,0,1.586.232h0A1.136,1.136,0,0,0,507,18.868L498.46,7.387a1.137,1.137,0,0,0-1.586-.233m69.872,67.217h0a1.137,1.137,0,0,1-1.532.474l-12.659-6.674a1.137,1.137,0,0,1-.474-1.532h0a1.137,1.137,0,0,1,1.532-.474l12.659,6.674a1.137,1.137,0,0,1,.474,1.531m7.746-23.821h0a1.137,1.137,0,0,1-1.206,1.057l-14.279-.939a1.136,1.136,0,0,1-1.057-1.205h0a1.137,1.137,0,0,1,1.206-1.057l14.28.938a1.137,1.137,0,0,1,1.057,1.206m-4.643-24.157h0a1.137,1.137,0,0,1-.671,1.456l-13.423,4.96a1.137,1.137,0,0,1-1.457-.671h0a1.137,1.137,0,0,1,.671-1.457l13.423-4.96a1.137,1.137,0,0,1,1.457.67M552.3,7.155h0a1.137,1.137,0,0,1,.233,1.586l-8.543,11.481a1.137,1.137,0,0,1-1.586.232h0a1.136,1.136,0,0,1-.233-1.586L550.71,7.387a1.138,1.138,0,0,1,1.586-.233" transform="translate(14403.946 -5546.423)" fill="#ff8a54" fill-rule="evenodd"/>
      <path id="Path_21696" data-name="Path 21696" d="M9.388,856.988s-1.425,1.388-1.46,1.9-.124,5.969.456,6.479,2.292.878,1.743,1.449c-.414.429-3.612.337-5.732.224C3.78,867,3,862.079,2.757,861.355c-.353-1.051-1.636-3.346-1.314-4.07a9.871,9.871,0,0,1,2.392-1.857A9.815,9.815,0,0,0,6.022,853.1Z" transform="translate(14767.115 -6201.301)" fill="#ffb17d" fill-rule="evenodd"/>
      <path id="Path_21697" data-name="Path 21697" d="M116.522,885.511l-1.279,3.612c-.1.571-.468,1.979-.468,2.5,0,1.949,8.8-1.652,6.826-2.52a2.081,2.081,0,0,1-.8-1.367,4.5,4.5,0,0,1,.738-2.3Z" transform="translate(14679.059 -6226.416)" fill="#ffb17d" fill-rule="evenodd"/>
      <path id="Path_21698" data-name="Path 21698" d="M132.262,579.911l3.186,8.121s2.078,19.385.87,30.987c-.508,4.856-11.461,30.832-11.461,30.832l-5.443-.765,7.288-30.762-2.681-11.764-3.8-23.262Z" transform="translate(14675.456 -5989.134)" fill="#3d3d3d" fill-rule="evenodd"/>
      <path id="Path_21699" data-name="Path 21699" d="M36.963,581.784l-2.733,9.039-4.154,27.3L16.023,643.664s2.111,3.2,4.381,3.7l19.948-25.813,10.811-32.312-.379-7.183Z" transform="translate(14755.753 -5990.589)" fill="#4d4d4d" fill-rule="evenodd"/>
      <path id="Path_21700" data-name="Path 21700" d="M2.824,863.333s3,9.06,4.288,9.509c.345.113,2.264.592,2.573,1.316l.022.072a.755.755,0,0,1-.768.877h-6.1s-.866-4.071-1.211-5.856c0,0-1.811-4.377-1.61-4.765s2.808-1.153,2.808-1.153" transform="translate(14768.196 -6209.248)" fill="#3d3d3d" fill-rule="evenodd"/>
      <path id="Path_21701" data-name="Path 21701" d="M112.536,904.93l1.008-3.183a8.656,8.656,0,0,0,3.171.745,30.444,30.444,0,0,0,3.125-.745c4.222,1.388,7.681,2.061,7.053,3.183Z" transform="translate(14680.798 -6239.081)" fill="#3d3d3d" fill-rule="evenodd"/>
      <path id="Path_21702" data-name="Path 21702" d="M85.5,432.612c-8.173,1.117-9.573,7.849-7.23,14.978,2.191,6.666,4.776,15.122,4.6,17.415-.305,3.938-1.166,9.775-1.166,9.775s15.34.959,21.107-1.286c0,0-1.929-8.938-1.929-11.274s-1.023-25.762-1.75-26.987-2.2-1.918-4.98-2.519-8.652-.1-8.652-.1" transform="translate(14708.199 -5874.586)" fill="#ff8a54" fill-rule="evenodd"/>
      <path id="Path_21703" data-name="Path 21703" d="M125.734,403.691l-1.421,6.4s3.09,7.949,5.29,7.429c1.844-.443,1.19-7.327,1.19-7.327s-.74-3.734-.322-5.547-4.738-.956-4.738-.956" transform="translate(14671.651 -5852.123)" fill="#ffb17d" fill-rule="evenodd"/>
      <path id="Path_21704" data-name="Path 21704" d="M135.008,404.647c.421-1.8-4.738-.956-4.738-.956l-.116.529a2.877,2.877,0,0,0,.491.944,6.7,6.7,0,0,0,4.3,2.293,10.04,10.04,0,0,1,.062-2.809" transform="translate(14667.115 -5852.123)" fill="#ef8161" fill-rule="evenodd"/>
      <path id="Path_21705" data-name="Path 21705" d="M127.175,357.066c-.139-.06-1.644,7.286.126,9.46s5.448,3.089,6.893,1.567a5.832,5.832,0,0,0,1.424-5.468c-.768-2.612-.63-5.219-2.195-6.495-2.826-2.295-6.248.936-6.248.936" transform="translate(14669.995 -5814.7)" fill="#3d3d3d" fill-rule="evenodd"/>
      <path id="Path_21706" data-name="Path 21706" d="M131,383.034c-.046.908-.511,1.625-1.035,1.59s-.919-.781-.872-1.688.508-1.615,1.036-1.59.916.78.87,1.688" transform="translate(14667.942 -5834.924)" fill="#ffb17d" fill-rule="evenodd"/>
      <path id="Path_21707" data-name="Path 21707" d="M118.276,357.851q-7.5,2.161-9.435-.12-2.075-.632-2.5-3.922c-1.232-3.4.366-8.579,2.235-5.833,1.982-4.212,8.6-1.247,12.587-3.39,2.22,1.673,1.085,5.366-.669,6.522-.224,4.32-.617,6.608-2.222,6.743" transform="translate(14685.942 -5806.375)" fill="#3d3d3d" fill-rule="evenodd"/>
      <path id="Path_21708" data-name="Path 21708" d="M106.833,355.5a1.1,1.1,0,0,0,.6-1.3,2.2,2.2,0,0,0-2.309-.2q.663.084,1.709,1.5" transform="translate(14686.555 -5813.496)" fill="#3d3d3d" fill-rule="evenodd"/>
      <path id="Path_21709" data-name="Path 21709" d="M113.8,350.3q-.605.593-1.052.209a2.46,2.46,0,0,1,.482-2.065,3.16,3.16,0,0,0,.57,1.857" transform="translate(14680.674 -5809.372)" fill="#3d3d3d" fill-rule="evenodd"/>
      <path id="Path_21710" data-name="Path 21710" d="M121.285,364.688a1.638,1.638,0,0,0-2.113.224c-.056,1.382.474,4.2,1.531,4.886a42.832,42.832,0,0,0,.582-5.11" transform="translate(14675.647 -5821.775)" fill="#3d3d3d" fill-rule="evenodd"/>
      <path id="Path_21711" data-name="Path 21711" d="M124.166,359.767q-2.409.976-1.677,1.939a12.891,12.891,0,0,0,6.794-.307,11.1,11.1,0,0,1-5.117-1.632" transform="translate(14673.2 -5818.164)" fill="#3d3d3d" fill-rule="evenodd"/>
      <path id="Path_21712" data-name="Path 21712" d="M127.671,344.334c-1.641-1.9-4.949-2.335-9.642-.97-2.849-.914-3.409-2.3-2.04-4.392,1.936-2.961,5.515-.277,10.294-2.864-.326,2.238,6.368,4.625,1.387,8.226" transform="translate(14678.67 -5799.79)" fill="#3d3d3d" fill-rule="evenodd"/>
      <path id="Path_21713" data-name="Path 21713" d="M118.389,376.361c1.232-.178.95,2.31.775,3.54-.344,2.42-2.716-3.263-.775-3.54" transform="translate(14676.84 -5831.044)" fill="#ffb17d" fill-rule="evenodd"/>
      <path id="Path_21714" data-name="Path 21714" d="M118.776,379.2c-.226-.736.121-3.876.107-4.932q-.169-.611-.337-1.536-3.712-2.9-.8-3.981a5.063,5.063,0,0,1,1.282,2.062,1.162,1.162,0,0,0,1.068-.621,34.169,34.169,0,0,1-.741-4.587c1.405-1.813,4.412-1.883,8.333-1.1q.169,1.6.227,3.377c.462.486,1.385,8.171-3.5,8.153a6.1,6.1,0,0,0-.034,1.317c.048.124-.739,1.364-.468,1.481-.2-.662-1.12,13.445-5.14.372" transform="translate(14677.745 -5821.479)" fill="#ffb17d" fill-rule="evenodd"/>
      <path id="Path_21715" data-name="Path 21715" d="M118.141,349.367c-3.922-.779-6.928-.709-8.333,1.1a34.2,34.2,0,0,0,.741,4.588,1.164,1.164,0,0,1-1.069.62,5.054,5.054,0,0,0-1.281-2.062q-2.911,1.077.8,3.981.167.925.337,1.536a7.183,7.183,0,0,1-4.322-3.818c-2.36-5.546.826-7.607,2.506-8.323,1.074-5.263,8.47-.05,12.507-2.35,1.393,2.225-.684,4.758-1.885,4.725" transform="translate(14687.292 -5806.34)" fill="#3d3d3d" fill-rule="evenodd"/>
      <path id="Path_21716" data-name="Path 21716" d="M140.59,414.533a6.664,6.664,0,0,0,2.563.72,8.024,8.024,0,0,0-.054,1.069,4.106,4.106,0,0,1-2.509-1.789" transform="translate(14659.01 -5860.697)" fill="#ef8161" fill-rule="evenodd"/>
      <path id="Path_21717" data-name="Path 21717" d="M157.132,360.118a1.248,1.248,0,0,1,.475,1.546,2.48,2.48,0,0,1-2.616-.126q.756.007,2.141-1.42" transform="translate(14647.826 -5818.437)" fill="#3d3d3d" fill-rule="evenodd"/>
      <path id="Path_21718" data-name="Path 21718" d="M122.047,431.714a28.675,28.675,0,0,0,2.936,5.913q1.45,2.069,2.857,2.079l.042,0c.82-.09,1.281-1.072,1.522-2.345a23.326,23.326,0,0,0,.3-5.271l-.682-.1a24.33,24.33,0,0,1-.328,5.242c-.182.957-.459,1.691-.873,1.761q-1.028-.025-2.255-1.771a25.881,25.881,0,0,1-2.948-5.621Z" transform="translate(14673.412 -5873.949)" fill="#e98050" fill-rule="evenodd"/>
      <path id="Path_21730" data-name="Path 21730" d="M261.106,568.508a2.589,2.589,0,1,1-2.589,2.589,2.589,2.589,0,0,1,2.589-2.589" transform="translate(14567.425 -5980.278)" fill="#00ae8d" fill-rule="evenodd"/>
      <path id="Path_21731" data-name="Path 21731" d="M584.727,484.409a2.522,2.522,0,1,1-2.522,2.522,2.522,2.522,0,0,1,2.522-2.522" transform="translate(14321.356 -5915.255)" fill="#68d2c0" fill-rule="evenodd"/>
      <path id="Path_21732" data-name="Path 21732" d="M128.4,522.155a5.108,5.108,0,0,0-2.464.371,46.574,46.574,0,0,1-4.2-2.512s-11.415-7.319-12.019-7.735l-7.634-11.5-6.927,1.911s8.644,12.3,9.215,12.871,17.151,8.758,18.592,9.525c0,0,1.382,1.517,2.28,2.441a11.222,11.222,0,0,0,2.452,1.646,11.918,11.918,0,0,0,2.554,1.263c1.28.458.27-.54.27-.54s-2.217-1.258-2.091-1.406c.1-.119,1.278.64,2.686,1.164.355.131.721.263,1.049.381.871.316,1.3-.108.445-.57a9.263,9.263,0,0,0-1.2-.562,8.024,8.024,0,0,1-1.093-.586,10.155,10.155,0,0,1-1.123-.615c.037-.021-.047-.182.344-.049.472.158,1.395.706,2.1.884.4.1,1.226.369,1.226.369a8.2,8.2,0,0,0,1.353.1c.2-.378-.681-.745-1.242-.818a6.388,6.388,0,0,0-1.211-.472s-1.656-.891-1.538-1.123a22.675,22.675,0,0,1,2.267.606c1.048.244,2.144.33,2.215.134.135-.32-1-.713-1-.713s-.8-.231-1.069-.329c-.306-.113-1.2-.521-1.2-.521s-3.059-1.563-2.922-1.768a1.618,1.618,0,0,1,.929-.548c.221.032.6.3.823.335a.556.556,0,0,0,.6-.365c.062-.26-.96-.822-.96-.822a3.91,3.91,0,0,0-1.491-.449" transform="translate(14694.292 -5927.677)" fill="#ffb17d" fill-rule="evenodd"/>
      <path id="Path_21733" data-name="Path 21733" d="M90.377,477.4l12.893,6.228c3.028,1.53,5.221,3.329,6.189,2.393,1.6-1.545,2.931-2.408,1.934-4.007-.7-1.122-11.63-6.748-12.489-8.123-3.648-5.837-8.217-13.12-9.358-14.811-4.985-10.93-10.562-9.525-11.3-5.037-1.042,3.6,12.129,23.357,12.129,23.357" transform="translate(14707.473 -5888.786)" fill="#e98050" fill-rule="evenodd"/>
    </g>
  </g>
</svg>
