<svg xmlns="http://www.w3.org/2000/svg" xmlns:xlink="http://www.w3.org/1999/xlink" width="803.943" height="253.001" viewBox="0 0 803.943 253.001">
  <defs>
    <clipPath id="clip-path">
      <path id="Path_21751" data-name="Path 21751" d="M61.743,768.244a1.69,1.69,0,0,0-1.522,1.811v71.311h3.946V770.055a1.69,1.69,0,0,0-1.522-1.811Z" transform="translate(-60.221 -768.244)" fill="#00ae8d"/>
    </clipPath>
    <clipPath id="clip-path-2">
      <path id="Path_21752" data-name="Path 21752" d="M355.957,768.244a1.69,1.69,0,0,0-1.522,1.811v71.311h3.946V770.055a1.69,1.69,0,0,0-1.523-1.811Z" transform="translate(-354.435 -768.244)" fill="#00ae8d"/>
    </clipPath>
    <clipPath id="clip-path-3">
      <path id="Path_21753" data-name="Path 21753" d="M523.661,768.244a1.69,1.69,0,0,0-1.522,1.811v71.311h3.946V770.055a1.69,1.69,0,0,0-1.522-1.811Z" transform="translate(-522.139 -768.244)" fill="#00ae8d"/>
    </clipPath>
    <clipPath id="clip-path-4">
      <path id="Path_21754" data-name="Path 21754" d="M817.875,768.244a1.69,1.69,0,0,0-1.522,1.811v71.311H820.3V770.055a1.69,1.69,0,0,0-1.522-1.811Z" transform="translate(-816.353 -768.244)" fill="#00ae8d"/>
    </clipPath>
    <clipPath id="clip-path-5">
      <rect id="Rectangle_13291" data-name="Rectangle 13291" width="44.235" height="36.384" rx="18.192" fill="#68d2c0"/>
    </clipPath>
    <clipPath id="clip-path-6">
      <path id="Rectangle_13293" data-name="Rectangle 13293" d="M18.192,0h7.852A18.192,18.192,0,0,1,44.235,18.192v0A18.192,18.192,0,0,1,26.044,36.384H18.192A18.192,18.192,0,0,1,0,18.192v0A18.192,18.192,0,0,1,18.192,0Z" fill="#68d2c0"/>
    </clipPath>
    <clipPath id="clip-path-7">
      <path id="Rectangle_13295" data-name="Rectangle 13295" d="M1.611,0H86.689A1.611,1.611,0,0,1,88.3,1.611v0a1.611,1.611,0,0,1-1.611,1.611H1.611A1.611,1.611,0,0,1,0,1.611v0A1.611,1.611,0,0,1,1.611,0Z" fill="#00ae8d"/>
    </clipPath>
    <clipPath id="clip-path-8">
      <path id="Rectangle_13297" data-name="Rectangle 13297" d="M5.69,0H38.545a5.69,5.69,0,0,1,5.69,5.69v0a5.69,5.69,0,0,1-5.69,5.69H5.69A5.69,5.69,0,0,1,0,5.69v0A5.69,5.69,0,0,1,5.69,0Z" fill="#68d2c0"/>
    </clipPath>
    <clipPath id="clip-path-10">
      <path id="Path_21755" data-name="Path 21755" d="M995.041,768.244a1.69,1.69,0,0,0-1.522,1.811v71.311h3.946V770.055a1.69,1.69,0,0,0-1.522-1.811Z" transform="translate(-993.519 -768.244)" fill="#00ae8d"/>
    </clipPath>
    <clipPath id="clip-path-11">
      <path id="Path_21756" data-name="Path 21756" d="M1289.256,768.244a1.691,1.691,0,0,0-1.522,1.811v71.311h3.946V770.055a1.69,1.69,0,0,0-1.522-1.811Z" transform="translate(-1287.734 -768.244)" fill="#00ae8d"/>
    </clipPath>
    <clipPath id="clip-path-12">
      <path id="Path_21757" data-name="Path 21757" d="M1456.959,768.244a1.69,1.69,0,0,0-1.522,1.811v71.311h3.946V770.055a1.69,1.69,0,0,0-1.522-1.811Z" transform="translate(-1455.437 -768.244)" fill="#00ae8d"/>
    </clipPath>
    <clipPath id="clip-path-13">
      <path id="Path_21758" data-name="Path 21758" d="M1751.174,768.244a1.691,1.691,0,0,0-1.522,1.811v71.311h3.946V770.055a1.69,1.69,0,0,0-1.522-1.811Z" transform="translate(-1749.652 -768.244)" fill="#00ae8d"/>
    </clipPath>
    <clipPath id="clip-path-15">
      <path id="Rectangle_13307" data-name="Rectangle 13307" d="M18.191,0h7.852A18.192,18.192,0,0,1,44.235,18.192v0A18.192,18.192,0,0,1,26.043,36.384H18.192A18.192,18.192,0,0,1,0,18.192v0A18.191,18.191,0,0,1,18.191,0Z" fill="#68d2c0"/>
    </clipPath>
    <clipPath id="clip-path-17">
      <rect id="Rectangle_13311" data-name="Rectangle 13311" width="44.235" height="11.381" rx="5.69" fill="#68d2c0"/>
    </clipPath>
  </defs>
  <g id="Group_32701" data-name="Group 32701" transform="translate(0.538)">
    <rect id="Rectangle_12169" data-name="Rectangle 12169" width="800" height="253" fill="#D8DDE3"/>
    <path id="Path_17974" data-name="Path 17974" d="M4835.669,3900.215s106.368,99.729,208.021,59.906c97.892-38.35,139.732-85.855,219.441-64.756s127.582,82.59,200.055,81.273c80.75-1.466,173.446-59.583,175.048-56.424" transform="translate(-4835.5 -3750.215)" fill="none" stroke="#707070" stroke-linecap="round" stroke-width="1" stroke-dasharray="2 4"/>
    <g id="Group_32648" data-name="Group 32648" transform="translate(12667.598 14024.209)">
      <g id="Group_32644" data-name="Group 32644" transform="translate(-12222.597 -13876.474)">
        <g id="Group_32476" data-name="Group 32476" transform="translate(5.935)">
          <g id="Group_32475" data-name="Group 32475" clip-path="url(#clip-path)">
            <rect id="Rectangle_13286" data-name="Rectangle 13286" width="71.697" height="22.524" transform="translate(-18.087 68.334) rotate(-75.175)" fill="#00ae8d"/>
          </g>
        </g>
        <g id="Group_32478" data-name="Group 32478" transform="translate(34.934)">
          <g id="Group_32477" data-name="Group 32477" clip-path="url(#clip-path-2)">
            <rect id="Rectangle_13287" data-name="Rectangle 13287" width="71.697" height="22.525" transform="translate(-18.087 68.334) rotate(-75.175)" fill="#00ae8d"/>
          </g>
        </g>
        <g id="Group_32480" data-name="Group 32480" transform="translate(51.463)">
          <g id="Group_32479" data-name="Group 32479" clip-path="url(#clip-path-3)">
            <rect id="Rectangle_13288" data-name="Rectangle 13288" width="71.697" height="22.524" transform="translate(-18.087 68.334) rotate(-75.175)" fill="#00ae8d"/>
          </g>
        </g>
        <g id="Group_32482" data-name="Group 32482" transform="translate(80.461)">
          <g id="Group_32481" data-name="Group 32481" clip-path="url(#clip-path-4)">
            <rect id="Rectangle_13289" data-name="Rectangle 13289" width="71.697" height="22.524" transform="translate(-18.087 68.334) rotate(-75.174)" fill="#00ae8d"/>
          </g>
        </g>
        <g id="Group_32484" data-name="Group 32484" transform="translate(0 3.739)">
          <g id="Group_32483" data-name="Group 32483" clip-path="url(#clip-path-5)">
            <rect id="Rectangle_13290" data-name="Rectangle 13290" width="46.491" height="52.072" transform="translate(-9 34.001) rotate(-75.175)" fill="#68d2c0"/>
          </g>
        </g>
        <g id="Group_32486" data-name="Group 32486" transform="translate(45.963 3.739)">
          <g id="Group_32485" data-name="Group 32485" clip-path="url(#clip-path-6)">
            <rect id="Rectangle_13292" data-name="Rectangle 13292" width="46.491" height="52.072" transform="translate(-9 34.001) rotate(-75.174)" fill="#68d2c0"/>
          </g>
        </g>
        <g id="Group_32488" data-name="Group 32488" transform="translate(0.469 53.281)">
          <g id="Group_32487" data-name="Group 32487" clip-path="url(#clip-path-7)">
            <rect id="Rectangle_13294" data-name="Rectangle 13294" width="25.709" height="86.185" transform="translate(-0.797 3.011) rotate(-75.174)" fill="#00ae8d"/>
          </g>
        </g>
        <g id="Group_32490" data-name="Group 32490" transform="translate(0 42.364)">
          <g id="Group_32489" data-name="Group 32489" clip-path="url(#clip-path-8)">
            <rect id="Rectangle_13296" data-name="Rectangle 13296" width="22.321" height="45.675" transform="translate(-2.815 10.635) rotate(-75.174)" fill="#68d2c0"/>
          </g>
        </g>
        <g id="Group_32492" data-name="Group 32492" transform="translate(45.963 42.364)">
          <g id="Group_32491" data-name="Group 32491" clip-path="url(#clip-path-8)">
            <rect id="Rectangle_13298" data-name="Rectangle 13298" width="22.32" height="45.675" transform="matrix(0.256, -0.967, 0.967, 0.256, -2.815, 10.635)" fill="#68d2c0"/>
          </g>
        </g>
        <g id="Group_32494" data-name="Group 32494" transform="translate(97.924)">
          <g id="Group_32493" data-name="Group 32493" clip-path="url(#clip-path-10)">
            <rect id="Rectangle_13300" data-name="Rectangle 13300" width="71.697" height="22.525" transform="translate(-18.087 68.334) rotate(-75.175)" fill="#00ae8d"/>
          </g>
        </g>
        <g id="Group_32496" data-name="Group 32496" transform="translate(126.921)">
          <g id="Group_32495" data-name="Group 32495" clip-path="url(#clip-path-11)">
            <rect id="Rectangle_13301" data-name="Rectangle 13301" width="71.697" height="22.525" transform="translate(-18.087 68.334) rotate(-75.174)" fill="#00ae8d"/>
          </g>
        </g>
        <g id="Group_32498" data-name="Group 32498" transform="translate(143.452)">
          <g id="Group_32497" data-name="Group 32497" clip-path="url(#clip-path-12)">
            <rect id="Rectangle_13302" data-name="Rectangle 13302" width="71.697" height="22.524" transform="translate(-18.087 68.334) rotate(-75.174)" fill="#00ae8d"/>
          </g>
        </g>
        <g id="Group_32500" data-name="Group 32500" transform="translate(172.449)">
          <g id="Group_32499" data-name="Group 32499" clip-path="url(#clip-path-13)">
            <rect id="Rectangle_13303" data-name="Rectangle 13303" width="71.697" height="22.524" transform="matrix(0.256, -0.967, 0.967, 0.256, -18.087, 68.334)" fill="#00ae8d"/>
          </g>
        </g>
        <g id="Group_32502" data-name="Group 32502" transform="translate(91.988 3.739)">
          <g id="Group_32501" data-name="Group 32501" clip-path="url(#clip-path-5)">
            <rect id="Rectangle_13304" data-name="Rectangle 13304" width="46.491" height="52.072" transform="matrix(0.256, -0.967, 0.967, 0.256, -9, 34.001)" fill="#68d2c0"/>
          </g>
        </g>
        <g id="Group_32504" data-name="Group 32504" transform="translate(137.951 3.739)">
          <g id="Group_32503" data-name="Group 32503" clip-path="url(#clip-path-15)">
            <rect id="Rectangle_13306" data-name="Rectangle 13306" width="46.491" height="52.072" transform="translate(-9 34.001) rotate(-75.174)" fill="#68d2c0"/>
          </g>
        </g>
        <g id="Group_32506" data-name="Group 32506" transform="translate(92.457 53.281)">
          <g id="Group_32505" data-name="Group 32505" clip-path="url(#clip-path-7)">
            <rect id="Rectangle_13308" data-name="Rectangle 13308" width="25.709" height="86.185" transform="matrix(0.256, -0.967, 0.967, 0.256, -0.797, 3.011)" fill="#00ae8d"/>
          </g>
        </g>
        <g id="Group_32508" data-name="Group 32508" transform="translate(91.988 42.364)">
          <g id="Group_32507" data-name="Group 32507" clip-path="url(#clip-path-17)">
            <rect id="Rectangle_13310" data-name="Rectangle 13310" width="22.321" height="45.675" transform="matrix(0.256, -0.967, 0.967, 0.256, -2.815, 10.635)" fill="#68d2c0"/>
          </g>
        </g>
        <g id="Group_32510" data-name="Group 32510" transform="translate(137.951 42.364)">
          <g id="Group_32509" data-name="Group 32509" clip-path="url(#clip-path-17)">
            <rect id="Rectangle_13312" data-name="Rectangle 13312" width="22.32" height="45.675" transform="translate(-2.815 10.635) rotate(-75.175)" fill="#68d2c0"/>
          </g>
        </g>
      </g>
      <g id="Group_32645" data-name="Group 32645" transform="translate(-12213.554 -13946.668)">
        <path id="Path_21759" data-name="Path 21759" d="M873.982,1656.464c.013.14.032.277.055.413a1.4,1.4,0,0,0,.471.952,1.534,1.534,0,0,0,.886.184c1.873,0,3.727-.219,5.6-.16,3.871.123,7.716.144,11.585.143.441,0,.884-.082,1.312-.088a8.265,8.265,0,0,0,1.477.035,1.173,1.173,0,0,0,.625-.3,1.133,1.133,0,0,0,.234-1.2,4.418,4.418,0,0,0-1.684-2.017,7.809,7.809,0,0,0-3.02-.956,14.226,14.226,0,0,1-4.244-.915,5.359,5.359,0,0,1-2.277-2.129c-.588-1.014-.348-2.176-.884-3.187a3.968,3.968,0,0,0-2.682-1.568c-1.565-.41-4.721-1.549-6.147-.388-.92.75-.538,2.272-.6,3.421q-.077,1.47-.255,2.93c-.075.627-.167,1.251-.271,1.873a11.4,11.4,0,0,0-.184,2.956" transform="translate(-796.853 -1482.664)" fill="#3d3d3d"/>
        <path id="Path_21778" data-name="Path 21778" d="M874.3,1763.178c.013.139.032.277.054.413a1.4,1.4,0,0,0,.471.952,1.533,1.533,0,0,0,.886.184c1.873,0,3.726-.219,5.6-.16,3.871.123,7.716.144,11.585.143.441,0,.884-.082,1.312-.088a8.276,8.276,0,0,0,1.477.035,1.173,1.173,0,0,0,.625-.3,1.133,1.133,0,0,0,.234-1.2,5.677,5.677,0,0,1-1.737.3q-8.541.134-17.083.064a12.917,12.917,0,0,1-3.389-.332l-.035-.01" transform="translate(-797.167 -1589.377)" fill="#3d3d3d"/>
        <path id="Path_21765" data-name="Path 21765" d="M795.595,810.953c-.351-5.326.4-10.37.409-15.871a255.452,255.452,0,0,0-2.7-37.474,165.112,165.112,0,0,0-3.16-17.442,66.429,66.429,0,0,1-2.556-18.637,7.155,7.155,0,0,1,.649-3.179c1.38-2.542,4.9-2.711,7.789-2.549l7.941.446c.735.041.28,1.693.225.959q-.05-.671-.1-1.342c.32,4.317,1.778,8.747,2.48,13.043,2.536,15.535,5.622,31.125,5.9,46.911.22,12.545-.111,24.55-2.7,36.885-.69,3.288-11.538,4.734-13.543,2.4a1.3,1.3,0,0,1-.237-.654c-.2-1.185-.325-2.349-.4-3.5" transform="translate(-718.987 -645.21)" fill="#4d4d4d"/>
        <path id="Path_21760" data-name="Path 21760" d="M605.807,687.6c.438-.472.952-.865,1.42-1.306,3.277-3.092,4.37-8.079,6.752-11.81-.04.063,2.769,2.307,3.053,2.625,1.073,1.2.406,2.709-.289,3.972-1.323,2.4-2.785,4.779-4.021,7.224-1.038,2.054-1.089,4.577-2.165,6.728a3.509,3.509,0,0,1-.459.7,3.26,3.26,0,0,1-.751.567,21.8,21.8,0,0,1-1.983,1.058,1.011,1.011,0,0,1-.917.1.681.681,0,0,1-.265-.716,1.772,1.772,0,0,1,.379-.712c.57-.74,2.551-1.867,2.237-2.951-.621-2.141-3.157,2.922-3.484,3.467-.061.1-.138.216-.257.232-.185.025-.3-.195-.351-.374a14.91,14.91,0,0,1-.731-3.866,7.151,7.151,0,0,1,1.83-4.94" transform="translate(-553.49 -608.009)" fill="#f2bc97"/>
        <path id="Path_21761" data-name="Path 21761" d="M557.857,288.174c-5.166,5.818-9.525,12.511-10.758,19.921s1.141,15.625,7.482,20.372c1.563,1.17,3.7,2.14,5.542,1.384,2.245-.921,2.558-3.666,2.581-5.917a193.839,193.839,0,0,1,1.527-22.346c.532-4.2,1.83-8.694,2.756-13.106a3.716,3.716,0,0,0-6.257-3.4c-1.027,1.029-1.984,2.092-2.874,3.1" transform="translate(-501.935 -255.989)" fill="#43b0ef"/>
        <path id="Path_21762" data-name="Path 21762" d="M804.941,159.309a.8.8,0,0,0,.111-.5.77.77,0,0,0-.349-.407,24.357,24.357,0,0,0-6.215-3.193.851.851,0,0,0-.545-.058c-.253.088-.363.378-.447.633a16.983,16.983,0,0,1-4.585,7.109,1.043,1.043,0,0,0-.35.47.968.968,0,0,0,.256.766,12.088,12.088,0,0,0,4.635,3.633c1.257.606,4.075,2.166,5.486,1.894,1.566-.3.937-2.714.863-3.83a13.435,13.435,0,0,1,1.139-6.515" transform="translate(-723.473 -139.834)" fill="#f2bc97"/>
        <path id="Path_21763" data-name="Path 21763" d="M397.625,1568.783c.527,1.473,2.347,2.8,3.464,3.844,3.313,3.09,6.471,6.321,10.359,8.631.442.261.989.514,1.428.268a1.225,1.225,0,0,0,.441-.5.123.123,0,0,0,.011-.019c1.1-2.03.077-3.872-1.431-5.3a11.042,11.042,0,0,1-2.541-3.2,4.6,4.6,0,0,1-.133-3.962,7.674,7.674,0,0,0,.848-1.62,3.822,3.822,0,0,0-.949-2.833c-.873-1.288-2.437-4.111-4.206-4.173-1.139-.04-1.828,1.3-2.6,2.1q-.985,1.017-2.04,1.961-.678.608-1.381,1.182a5.122,5.122,0,0,0-1.009.985,2.418,2.418,0,0,0-.228.412,3.089,3.089,0,0,0-.037,2.229" transform="translate(-367.307 -1406.166)" fill="#3d3d3d"/>
        <path id="Path_21764" data-name="Path 21764" d="M446.124,732.716c-.294,1.589-.658,3.183-1.106,4.789a15.693,15.693,0,0,1-1.73,3.639q-4.409,7.521-8.928,14.975c-1.347,2.224-13.528,17.866-12.3,19.37a33.846,33.846,0,0,0,8.637,7.533,2.042,2.042,0,0,0,1.376.421,2.077,2.077,0,0,0,1.024-.685c10.975-11.168,18.823-25.108,26.494-38.614a28.346,28.346,0,0,0,2.35-4.824A32.551,32.551,0,0,0,463,734.554c2.848-15.991,9.235-31.4,9.933-47.624-.066,1.523-15.133,1.806-16.626,1.952-2.459.24-4.526-.761-6.913-1.368-.214,3.264-1.938,5.981-2.3,9.2a63.22,63.22,0,0,0-.177,10.455c.439,8.532.78,17.093-.785,25.545" transform="translate(-389.422 -619.224)" fill="#3d3d3d"/>
        <path id="Path_21766" data-name="Path 21766" d="M703.7,229.544a5.913,5.913,0,0,0-1.989.632c-2.174,1.139-3.4,3.471-4.5,5.666-2.744,5.488-2.967,10.933-3.024,16.989q-.118,12.54-.236,25.08a1.425,1.425,0,0,0,.164.833,1.378,1.378,0,0,0,.775.452c4.253,1.3,8.8,1.069,13.24.829l6.689-.362c1.143-.062,2.287-.126,3.43-.186,1.248-.065,2.282.678,2.3-1.121.048-5.936.119-11.842,0-17.772-.087-4.455.039-8.938-.152-13.388a31.858,31.858,0,0,0-1.342-6.149,20.788,20.788,0,0,0-2.392-5.4,13.182,13.182,0,0,0-1.794-2.721,7.075,7.075,0,0,0-3.248-1.49c-2.546-.807-5.242-2.247-7.922-1.894" transform="translate(-634.597 -206.87)" fill="#ff8a54"/>
        <path id="Path_21767" data-name="Path 21767" d="M865.085,42.272a5.251,5.251,0,0,1,1.778,1.425,5.874,5.874,0,0,1,1.051,4.3,13,13,0,0,1-1.224,3.6c-.52,1.316.205,2.842.513,4.13.339,1.417-.526,1.125-1.439,1.515-.575.247-.569.823-.811,1.3a15.748,15.748,0,0,1-.96,1.5,4.141,4.141,0,0,1-.763.936c-1.62,1.338-5.318.073-6.992-.665a8.086,8.086,0,0,1-3.993-3.564c-.985-1.921-.59-3.583.07-5.493.872-2.523,1.577-4.971,3.226-7.136a5.875,5.875,0,0,1,4.121-2.586,31.5,31.5,0,0,1,3.938.33,4.078,4.078,0,0,1,1.485.411" transform="translate(-776.753 -37.426)" fill="#f2bc97"/>
        <path id="Path_21768" data-name="Path 21768" d="M689.587,255.559q.017-.1.034-.2a13.316,13.316,0,0,1,.682-2.71,15.524,15.524,0,0,1,.8-1.686c.766-1.436,1.717-2.8,3.432-3.1,3.159-.553,5.757,1.905,7.033,4.568a14.6,14.6,0,0,1,1.122,8.269,28.621,28.621,0,0,1-3.3,9.141,70.883,70.883,0,0,1-9.5,13.821,22.474,22.474,0,0,0-3.244,4.233,6.266,6.266,0,0,0-.528,5.153,103.656,103.656,0,0,0,11.556-12.09,40.087,40.087,0,0,0,5.1-8.521,37.358,37.358,0,0,0,2.962-9.758,19.652,19.652,0,0,0-.315-6.873,13.194,13.194,0,0,0-4.006-7.21,8.025,8.025,0,0,0-7.823-1.662c-4.907,1.852-6.284,7.819-6.688,12.436-.121,1.381-.264,2.762-.363,4.145-.126,1.752.408,1.63.735.03a42.1,42.1,0,0,1,1.679-5.763,12.843,12.843,0,0,0,.625-2.224" transform="translate(-627.232 -222.217)" fill="#43b0ef"/>
        <path id="Path_21769" data-name="Path 21769" d="M1180.684,372.486l6.963-7.125a.3.3,0,0,0,0-.418l-.261-.261a.3.3,0,0,0-.425,0l-6.909,7.231a.3.3,0,0,0,.036.443l.207.155a.3.3,0,0,0,.391-.03" transform="translate(-1072.71 -328.659)" fill="#3d3d3d"/>
        <path id="Path_21770" data-name="Path 21770" d="M1085.417,428.411c1.4-.823,3.22-.763,4.556-1.694a7.226,7.226,0,0,0,1.626-1.789l1.014-1.4a4.648,4.648,0,0,0,.557-.911,3.26,3.26,0,0,1,.442-.968c.167-.188.4-.3.576-.485a1.077,1.077,0,0,0,.269-.961,5.033,5.033,0,0,1-.178-.624c-.058-.648.719-1.185.58-1.82-.157-.719-1.2-.694-1.887-.434-1.359.512-2.891,1.254-4.173.57a7.841,7.841,0,0,0-.866-.5,2.266,2.266,0,0,0-1.036-.083,6.274,6.274,0,0,0-5.242,4.361,20.014,20.014,0,0,1-1,2.18.887.887,0,0,0-.089.325.913.913,0,0,0,.15.431,16.715,16.715,0,0,1,1.47,3.668.67.67,0,0,0,.271.458.653.653,0,0,0,.46-.008c.819-.219,1.768.121,2.5-.307" transform="translate(-983.107 -376.037)" fill="#f2bc97"/>
        <path id="Path_21771" data-name="Path 21771" d="M737.6,263.335a30.811,30.811,0,0,1,3.6,8.5c.617,2.413.938,4.891,1.491,7.319.566,2.487,1.41,5.471,3.22,7.368.771.809,2.1.5,3.157.127q6.967-2.483,13.708-5.548a28,28,0,0,1,3.6,5.308,2.171,2.171,0,0,1,.324,1.019c-.014.681-.615,1.185-1.173,1.574-5.01,3.487-10.894,5.491-16.793,7.063-2.191.583-4.513,1.113-6.7.51-2.949-.815-4.962-3.483-6.585-6.077-3.669-5.864-6.566-12.323-7.544-19.171a16.059,16.059,0,0,1,.326-7.294c.923-2.679,3.886-5.4,6.771-3.628a8.314,8.314,0,0,1,2.537,2.831l.06.1" transform="translate(-664.972 -234.229)" fill="#ff8a54"/>
        <path id="Path_21772" data-name="Path 21772" d="M843.637,4.88a1.455,1.455,0,0,1,1.022.464,1.707,1.707,0,0,1-.04,1.836c-1.514,2.873-4.969,2.663-7.3,1.073a2.968,2.968,0,0,0-1.647-.736,2.188,2.188,0,0,0-.946.3,19.581,19.581,0,0,0-3.167,2.451c-.262.221-1.4,1.6-1.709.862-1-2.363-3.376-.665-3.588,1.177-.076.66.334.842.581,1.356.33.683.078,1.029-.4,1.628a5.243,5.243,0,0,1-3.776,1.97,1.462,1.462,0,0,1-.682-.091,1.675,1.675,0,0,1-.736-1.325c-.827-4.618-.292-9.55,3.136-13.018a9.51,9.51,0,0,1,2.382-1.794c4.3-2.213,9.544-.644,12.941,2.434A4.21,4.21,0,0,0,843,4.874a4.059,4.059,0,0,1,.634.006" transform="translate(-749.045 0.001)" fill="#3d3d3d"/>
        <path id="Path_21773" data-name="Path 21773" d="M515.792,881.186l-.316.645c-.466.95-1.118,2.037-1.791,1.866-.651-.165-.812-1.524-.486-2.541.444-1.386,1.5-2.884,2.1-4.249,1.073-2.434,2.243-4.8,3.361-7.189,1.849-3.955,3.937-7.669,5.72-11.68a5.6,5.6,0,0,1,1.241-2.032.774.774,0,0,1,1.3.65,3.454,3.454,0,0,1-.3,1.33c-3.089,8.253-7.088,15.557-10.834,23.2" transform="translate(-471.514 -771.447)" fill="#3d3d3d"/>
        <path id="Path_21774" data-name="Path 21774" d="M143.728,1104.911c-1.779,2.956-3.6,5.867-5.164,9.029-4.142,8.362-7.977,16.936-13.278,24.653a4.674,4.674,0,0,1-2.326,2.091,4.3,4.3,0,0,1-2.066-.068c-4.715-1.016-8.911-3.616-13-6.171-1.949-1.218-4.085-2.854-3.74-5.407a10.856,10.856,0,0,1,1.267-3.386l19.718-38.83c1.465-2.885,2.989-5.847,5.436-7.966a12.676,12.676,0,0,1,8.811-3.044c4.594.222,11.856,4.4,12.4,9.468a10.209,10.209,0,0,1-1.061,4.827,100.2,100.2,0,0,1-5.948,13.044q-.519.885-1.048,1.76" transform="translate(-102.896 -969.764)" fill="#ff8a54"/>
        <path id="Path_21775" data-name="Path 21775" d="M222.806,1710.719a2.4,2.4,0,0,1-1.218-3.068,3.215,3.215,0,0,1,1.867-2.031,2.315,2.315,0,0,1,.859-.176,2.128,2.128,0,0,1,1.826,1.231c.787,1.638-.1,4.284-2.2,4.269a2.9,2.9,0,0,1-1.136-.225" transform="translate(-208.664 -1537.352)" fill="#ff8a54"/>
        <path id="Path_21776" data-name="Path 21776" d="M93.029,1641.615a2.644,2.644,0,0,1-1.141-3.224,3.216,3.216,0,0,1,1.867-2.031,2.3,2.3,0,0,1,.859-.176,2.126,2.126,0,0,1,1.826,1.231c.9,1.877-.464,4.855-2.825,4.393a2.386,2.386,0,0,1-.587-.193" transform="translate(-91.746 -1474.918)" fill="#ff8a54"/>
        <path id="Path_21777" data-name="Path 21777" d="M586,288.065c-2.462,2.483-3.986,6.209-2.91,9.536a1.01,1.01,0,0,0,.343.558c.359.239.832-.017,1.178-.274a32.643,32.643,0,0,0,10.846-14.167,1.208,1.208,0,0,0,.115-.782c-.446-1.439-8.727,4.277-9.572,5.129" transform="translate(-534.349 -254.841)" fill="#43b0ef"/>
        <path id="Path_21779" data-name="Path 21779" d="M397.625,1629.512c.527,1.472,2.347,2.8,3.464,3.844,3.313,3.091,6.471,6.32,10.359,8.631.442.261.989.514,1.428.267a1.221,1.221,0,0,0,.441-.5c-.243-.179-.521-.351-.817-.542a56.742,56.742,0,0,1-8.261-6.836c-1.442-1.376-2.85-2.789-4.257-4.2a11.822,11.822,0,0,1-2.32-2.889,3.089,3.089,0,0,0-.037,2.229" transform="translate(-367.307 -1466.895)" fill="#3d3d3d"/>
        <path id="Path_21780" data-name="Path 21780" d="M884.078,105.737a1.326,1.326,0,0,0-.25-.141c.043.018-.011,0-.025-.008l-.069-.021a1.305,1.305,0,0,0-.129-.028l-.036-.005h.007l-.072,0a1.271,1.271,0,0,0-.132,0l-.072.007c.049-.006-.026,0-.029.006a1.216,1.216,0,0,0-.139.037l-.069.025c.04-.016-.02.01-.028.014a1.232,1.232,0,0,0-.117.066l-.061.041c-.023.016.02-.019-.015.011s-.073.065-.107.1a1.148,1.148,0,0,0-.1.111c.033-.044-.013.021-.015.024q-.02.031-.038.063a1.336,1.336,0,0,0-.065.131c.015-.035,0,0-.005.015s-.018.054-.025.082a.258.258,0,0,1-.5-.123,1.561,1.561,0,0,1,.981-1.051,1.53,1.53,0,0,1,1.361.2.265.265,0,0,1,.1.352.261.261,0,0,1-.352.1" transform="translate(-804.093 -94.661)" fill="#2f2e6a"/>
        <path id="Path_21781" data-name="Path 21781" d="M671.43,351.217c1.5-9.8,1.17-19.78.836-29.69.032.954-1.189,2.746-1.54,3.669q-.73,1.918-1.327,3.882a62.919,62.919,0,0,0-1.887,8.114,67.768,67.768,0,0,0-.629,16.665c.227,2.693.239,6.39,1.39,8.847,1.3-.41,1.6-3.77,1.878-4.95q.776-3.24,1.28-6.537" transform="translate(-609.973 -289.837)" fill="#43b0ef"/>
      </g>
      <g id="Group_32647" data-name="Group 32647" transform="translate(-12093.395 -13950)">
        <circle id="Ellipse_2" data-name="Ellipse 2" cx="24.141" cy="24.141" r="24.141" transform="translate(3.146 0)" fill="#f77d48"/>
        <path id="Path_21784" data-name="Path 21784" d="M21711.711-5895.981c.3,2.222-1.715,5.353-5.553,7.575s11.613.4,11.613.4S21711.406-5898.2,21711.711-5895.981Z" transform="translate(-21705.547 5930.644)" fill="#f77d48"/>
      </g>
      <g id="Group_32646" data-name="Group 32646" transform="translate(-12080.15 -13939.737)">
        <g id="Group_32517" data-name="Group 32517" transform="translate(0 0)">
          <path id="Path_21782" data-name="Path 21782" d="M23.289,26.218c.786,1.771,4.807,1.6,5.842.173C35.291,17.893,41.893,9.6,50.139,3.013,53.081.665,47.395-.915,45.512.588c-8.61,6.873-24,21.617-22.223,25.629" transform="translate(-21.656 0)" fill="#fff"/>
          <path id="Path_21783" data-name="Path 21783" d="M1.121,21.575c-1.72.892-1.3,4.9.184,5.842,8.858,5.63,17.542,11.713,24.616,19.543,2.523,2.793,3.753-2.979,2.138-4.767C20.673,34.019,5.017,19.554,1.121,21.575" transform="translate(0 -20.007)" fill="#fff"/>
        </g>
      </g>
    </g>
  </g>
</svg>
