<svg xmlns="http://www.w3.org/2000/svg" width="803.943" height="253" viewBox="0 0 803.943 253">
  <g id="Group_32710" data-name="Group 32710" transform="translate(0.538)">
    <g id="Group_32709" data-name="Group 32709">
      <rect id="Rectangle_12169" data-name="Rectangle 12169" width="800" height="253" fill="#D8DDE3"/>
      <path id="Path_17974" data-name="Path 17974" d="M4835.669,3900.215s106.368,99.729,208.021,59.906c97.892-38.35,139.732-85.855,219.441-64.756s127.582,82.59,200.055,81.273c80.75-1.466,173.446-59.583,175.048-56.424" transform="translate(-4835.5 -3750.215)" fill="none" stroke="#707070" stroke-linecap="round" stroke-width="1" stroke-dasharray="2 4"/>
      <g id="Group_32685" data-name="Group 32685" transform="translate(-550.132 -108.333)">
        <path id="Path_21964" data-name="Path 21964" d="M15.15,126.565H121.889a15.2,15.2,0,0,1,15.15,15.15V288.437a15.2,15.2,0,0,1-15.15,15.15H15.15A15.2,15.2,0,0,1,0,288.437V141.715a15.2,15.2,0,0,1,15.15-15.15" transform="translate(959.006 42.94)" fill="#00ae8d" fill-rule="evenodd"/>
        <path id="Path_21965" data-name="Path 21965" d="M40.353,156.052H147.092A10.9,10.9,0,0,1,157.96,166.92V313.641a10.9,10.9,0,0,1-10.868,10.868H40.353a10.9,10.9,0,0,1-10.869-10.868V166.92a10.9,10.9,0,0,1,10.869-10.868" transform="translate(933.805 17.736)" fill="#68d2c0" fill-rule="evenodd"/>
        <rect id="Rectangle_13333" data-name="Rectangle 13333" width="113.063" height="147.254" transform="translate(965.554 185.766) rotate(-4.378)" fill="#fff"/>
        <path id="Path_21966" data-name="Path 21966" d="M91.429,289.6l101.49-7.77.244,3.184-101.49,7.77Zm5.65,73.793,101.49-7.77.244,3.184-101.49,7.77Zm.677,8.837,73.709-5.643.244,3.185L98,375.419Zm-3.5-45.734,101.49-7.77.244,3.184L94.5,329.685Zm2.03,26.512.244,3.184,73.71-5.643-.244-3.184Zm-.676-8.838,73.709-5.642.244,3.184L95.851,347.36Zm-.677-8.837,73.709-5.643.244,3.184-73.709,5.643Zm-1.472-19.221L93.7,319.3l73.71-5.643-.245-3.184Zm-.676-8.838,73.71-5.643.243,3.184-73.709,5.643Zm-.677-8.837,73.709-5.643.244,3.184-73.709,5.643Z" transform="translate(880.855 -89.78)" fill="#43b0ef" fill-rule="evenodd"/>
        <path id="Path_21967" data-name="Path 21967" d="M261.7,11.694h18.772V7.739a7.742,7.742,0,0,1,15.485,0v3.955h18.772a4.692,4.692,0,0,1,4.679,4.679v8.912a4.692,4.692,0,0,1-4.679,4.679H261.7a4.692,4.692,0,0,1-4.678-4.679V16.373a4.692,4.692,0,0,1,4.678-4.679M288.214,4.62a3.426,3.426,0,1,0,3.426,3.426,3.425,3.425,0,0,0-3.426-3.426" transform="translate(739.31 151.127)" fill="#00ae8d" fill-rule="evenodd"/>
        <path id="Path_21968" data-name="Path 21968" d="M597.427,927.8a15.9,15.9,0,1,1-15.9,15.9,15.9,15.9,0,0,1,15.9-15.9" transform="translate(461.936 -641.931)" fill="#d5dff0" fill-rule="evenodd"/>
        <path id="Path_21969" data-name="Path 21969" d="M613.621,945.858c-.26-.011-.514-.021-.775-.022v.754c.248,0,.487.01.732.021Zm-2.725.12c-.254.037-.512.081-.763.135l.155.737c.24-.049.479-.091.722-.127Zm-2.99.806c-.238.091-.481.2-.713.311l.323.681c.218-.1.446-.206.67-.291Zm-2.722,1.483c-.213.151-.414.306-.621.467l.473.588c.189-.153.386-.3.584-.44Zm-2.305,2.07c-.171.194-.336.394-.5.6l.6.462c.145-.191.309-.383.467-.563Zm-1.765,2.546c-.122.229-.234.459-.344.694l.686.315c.1-.222.21-.44.326-.657Zm-1.126,2.887c-.064.254-.117.5-.173.757l.741.141c.049-.239.1-.475.164-.712Zm-.423,3.067c0,.261,0,.516.007.776l.754-.029c-.009-.245-.009-.487-.006-.732Zm.295,3.085c.054.254.117.5.184.753l.727-.2c-.064-.236-.123-.472-.174-.711Zm1,2.933c.112.234.231.462.357.69l.659-.368c-.12-.208-.232-.433-.336-.65Zm1.658,2.619c.164.2.333.393.506.589l.555-.511c-.164-.169-.33-.373-.477-.555Zm2.215,2.164c.206.16.416.309.629.458l.422-.625c-.2-.137-.4-.282-.591-.43Zm2.657,1.6c.237.106.474.2.716.3l.268-.705c-.228-.089-.453-.181-.676-.282Zm2.956.933c.255.048.507.088.765.122l.1-.748c-.244-.031-.484-.07-.724-.116Zm3.088.222c.249-.008.53-.026.776-.057l-.08-.75c-.241.024-.487.044-.729.053Zm3.06-.5c.249-.071.495-.148.739-.234l-.25-.711q-.347.121-.7.221Zm2.859-1.193c.224-.125.45-.26.665-.4l-.41-.633c-.2.131-.416.259-.627.377Zm2.5-1.825q.286-.263.556-.544l-.547-.52c-.163.175-.346.349-.523.512Zm2.016-2.351c.144-.217.282-.433.414-.656l-.651-.382c-.125.211-.255.414-.391.619Zm1.417-2.755c.09-.242.176-.488.251-.736l-.722-.219c-.073.234-.151.462-.236.692Zm.737-3.01c.031-.258.055-.514.073-.772l-.753-.049c-.017.244-.039.486-.068.73Zm.021-3.1c-.028-.257-.063-.514-.107-.769l-.743.128c.041.24.073.484.1.726Zm-.695-3.019c-.078-.237-.183-.494-.283-.723l-.693.3c.094.216.193.458.267.68Zm-1.379-2.776c-.14-.217-.29-.43-.444-.637l-.6.451c.144.2.285.4.418.6Zm-1.983-2.38c-.191-.18-.385-.344-.579-.518l-.483.578c.187.159.367.32.545.489Zm-2.479-1.858c-.224-.13-.451-.252-.681-.37l-.34.673c.219.112.432.227.644.351Zm-2.843-1.233c-.252-.075-.5-.135-.751-.2l-.17.735c.238.056.471.12.706.189Z" transform="translate(446.515 -657.349)" fill="#fff" fill-rule="evenodd"/>
        <path id="Path_21970" data-name="Path 21970" d="M627.414,931.767a1.839,1.839,0,1,1,1.759-3.229,31.268,31.268,0,0,1,8.635,7.119q2.283-4.471,4.931-8.627a94.919,94.919,0,0,1,7.336-10.022,1.842,1.842,0,0,1,2.826,2.364,91.248,91.248,0,0,0-7.062,9.633,101.833,101.833,0,0,0-5.992,10.852l0,0a1.84,1.84,0,0,1-3.139.3,29.154,29.154,0,0,0-9.291-8.393" transform="translate(423.529 -632.144)" fill="#43b0ef" fill-rule="evenodd"/>
        <g id="Group_32559" data-name="Group 32559" transform="translate(1075.267 210.402)">
          <path id="Path_21971" data-name="Path 21971" d="M1061.213,614.146c-.815.059-1.6-.908-1.827-1.2a10.334,10.334,0,0,1-1.642-3.116q.253-.722.531-1.825,4.707-3.2,1.287-4.732a6.1,6.1,0,0,0-1.713,2.382,1.4,1.4,0,0,1-1.237-.835,41.428,41.428,0,0,0,1.266-5.47c-1.548-2.3-5.165-2.627-9.955-2.007q-.333,1.913-.547,4.052c-.847.78-.736,3.672.043,7.006q-.584,2.844,3.511,3.1c.026.457-.015.984-.024,1.3-.007.29-.017.859-.321.947l-.506.125c.051,6.777,3.52,8.081,11.133.26" transform="translate(-1012.365 -590.551)" fill="#f9af79" fill-rule="evenodd"/>
          <path id="Path_21972" data-name="Path 21972" d="M1041.622,566.3c4.79-.621,8.408-.293,9.955,2.006a41.405,41.405,0,0,1-1.266,5.469,1.406,1.406,0,0,0,1.238.834,6.117,6.117,0,0,1,1.713-2.381q3.421,1.534-1.288,4.733-.276,1.1-.53,1.824c2.824-.633,5.187-3.158,5.519-4.252,3.295-6.493-.379-9.234-2.345-10.235-.869-6.431-10.242-.87-12.707-4.8-5.16,2.944-1.737,6.738-.287,6.8" transform="translate(-1006.067 -559.499)" fill="#4d4d4d" fill-rule="evenodd"/>
          <path id="Path_21973" data-name="Path 21973" d="M1073.712,676.455a8.068,8.068,0,0,1-3.148.661,9.676,9.676,0,0,1-.022,1.292,4.96,4.96,0,0,0,3.17-1.953" transform="translate(-1031.999 -656.158)" fill="#ed7d57" fill-rule="evenodd"/>
          <path id="Path_21974" data-name="Path 21974" d="M1139.215,1394.146c2.975-1.047,3.214-2.581,4.818-3.329s1.8-2.1.221-3.556c-1.166.931-2.612,2.076-3.379,1.471-.511-.4-2.246-.378-2.59.212-1.511,3.513-3.613,2.4-4.027,4-.049,2.128,3.593,1.685,4.958,1.2" transform="translate(-1084.658 -1243.613)" fill="#3d3d3d" fill-rule="evenodd"/>
          <path id="Path_21975" data-name="Path 21975" d="M1002.546,1384.986c5.24-.085,9.156-.147,10.965-.719,1.952-.617,1.548-1.807.427-3.711-4.938,2.271-3.623-.467-5.932-.12a14.672,14.672,0,0,1-7.21,2.627c-1.347.993-.8,1.878,1.75,1.922" transform="translate(-973.77 -1237.948)" fill="#3d3d3d" fill-rule="evenodd"/>
          <path id="Path_21976" data-name="Path 21976" d="M975.36,692.736a35.4,35.4,0,0,1,7.044-1.381q.565,8.619,8.992-.12c5.411.454,6.47.524,9.472,1.5,6.5,6.205,7.094,13.367,10.489,21.55a23.111,23.111,0,0,0-8,1.533q-.823-2.942-1.378-4.736.155,16.188.119,22.182c-12.434,4.926-22.676,3.239-26.858-.6q-.088-14.388-.239-22.781a27.368,27.368,0,0,1-4.137,4.077c-3.048-3.5-5.114-4.9-6.842-6.962a91.037,91.037,0,0,1,11.339-14.26" transform="translate(-943.964 -668.373)" fill="#ff8a54" fill-rule="evenodd"/>
          <path id="Path_21977" data-name="Path 21977" d="M854.776,734.384q9.8,4.071,13.72,6.728l1.16-1.719c1.081,1.082,2.314,2.143,3.818,3.683a20.634,20.634,0,0,1-4.623,3.665q-6.809-.727-15.049-10.311a6.672,6.672,0,0,1-3.773-1.857,3.256,3.256,0,0,1,1.245-2.476q-3.417-2.226-2.72-3.187,5.353,3.31,6.222,5.474" transform="translate(-848.436 -699.512)" fill="#f9af79" fill-rule="evenodd"/>
          <path id="Path_21978" data-name="Path 21978" d="M1020.556,929.959c.246.934-.772,6.413-.939,9.271-1.653,10.2-.237,23.485.653,40.563,1.593,6.018,3.942,14.038,3.789,25.326,2.774.848,3.779.935,6.283.3,1.75-11.78.557-21.214-1.025-25.57,1.013-6.735,2.524-14.273,4.725-25.145,2.48,11.848,5.8,20.641,7.234,26.378.284,6.4,1.578,15.029,2.255,25.9a11.592,11.592,0,0,0,5.477.539c2.774-9.991,2.308-20.863,1.133-32.614-1.25-14.127.811-30.08-1.252-35.611a40.846,40.846,0,0,1-1.475-8.736q-15.56,5.178-26.857-.6" transform="translate(-989.279 -865.671)" fill="#ff8a54" fill-rule="evenodd"/>
          <path id="Path_21979" data-name="Path 21979" d="M1027.638,780.622c.666.1,1.3.186,1.888.266q.048,7.139.025,10.7c-.587.262-1.9-7.741-1.913-10.962m-30.4-9.536a22.133,22.133,0,0,0,5.228-7.427,28.889,28.889,0,0,0-.222,4.791,26.736,26.736,0,0,1-3.929,3.831q-.558-.641-1.077-1.195m29.881-9.282q1.21,3.893,2.312,7.6.029,3.128.053,5.876c-.533-.05-1.158-.084-1.9-.1q-.114-7.6-.467-13.372" transform="translate(-971.417 -726.697)" fill="#ef7b45" fill-rule="evenodd"/>
          <path id="Path_21980" data-name="Path 21980" d="M1005.033,783.317H991.346a.951.951,0,0,0-.96,1.141l3.072,19.391a1.391,1.391,0,0,0,1.32,1.141h13.688a.952.952,0,0,0,.96-1.141l-3.071-19.391a1.393,1.393,0,0,0-1.321-1.141" transform="translate(-965.742 -744.475)" fill="#4d4d4d" fill-rule="evenodd"/>
          <path id="Path_21981" data-name="Path 21981" d="M1088.532,824.453a17.306,17.306,0,0,1,.354,7.508c-1.478,2.146-7.438.946-22.788-1.62a4.228,4.228,0,0,1-3.417.78c-1.6-.4-1.682-.82-3.482-2.518a2.952,2.952,0,0,1,.269-3.028c2.027,1.193,3.094,1.828,5.378,1.9q-.911-2.346-.275-3.03a4.523,4.523,0,0,1,1.522,2.818c12.1-.526,15.293-.456,16.9.39q-.262-1.14-.465-2a21.368,21.368,0,0,1,6-1.2" transform="translate(-1022.398 -778.472)" fill="#f9af79" fill-rule="evenodd"/>
          <path id="Path_21982" data-name="Path 21982" d="M1053.463,1364.652a12.368,12.368,0,0,0-.052,2.765c-4.132,1.8-3.43-.277-5.082-.328a7.245,7.245,0,0,0,.808-2.8,8.386,8.386,0,0,0,4.326.361m19.255,1.893a7.81,7.81,0,0,0,.218,1.972c-1.1.874-2.375,1.785-3.076,1.23a2.664,2.664,0,0,0-1.852-.2,20.228,20.228,0,0,0,.635-3.392,10.778,10.778,0,0,0,4.075.391" transform="translate(-1013.64 -1224.63)" fill="#f9af79" fill-rule="evenodd"/>
          <path id="Path_21983" data-name="Path 21983" d="M1019.616,983.382q10.943,10.2,29.272.064c2.064,5.531,0,21.484,1.253,35.611,1.174,11.751,1.64,22.622-1.134,32.614-.225.027-.442.05-.651.067a10.759,10.759,0,0,1-4.075-.392c-.241-.064-.49-.136-.751-.214-.677-10.87-1.97-19.5-2.255-25.9-1.436-5.738-4.754-14.53-7.234-26.378-2.2,10.872-3.713,18.41-4.726,25.145,1.582,4.356,2.776,13.79,1.026,25.57-.456.116-.862.207-1.24.275a8.387,8.387,0,0,1-4.326-.361c-.226-.065-.464-.135-.717-.213.153-11.288-2.2-19.308-3.79-25.326-.89-17.078-2.306-30.359-.653-40.563" transform="translate(-989.284 -909.823)" fill="#4d4d4d" fill-rule="evenodd"/>
        </g>
      </g>
    </g>
  </g>
</svg>
