<svg xmlns="http://www.w3.org/2000/svg" xmlns:xlink="http://www.w3.org/1999/xlink" width="803.943" height="253" viewBox="0 0 803.943 253">
  <defs>
    <clipPath id="clip-path">
      <rect id="Rectangle_13402" data-name="Rectangle 13402" width="98.357" height="139.026" fill="none"/>
    </clipPath>
    <clipPath id="clip-path-2">
      <rect id="Rectangle_13204" data-name="Rectangle 13204" width="135.051" height="135.056" fill="#43b0ef"/>
    </clipPath>
  </defs>
  <g id="Group_32737" data-name="Group 32737" transform="translate(0.538)">
    <g id="Group_32692" data-name="Group 32692">
      <rect id="Rectangle_12169" data-name="Rectangle 12169" width="800" height="253" fill="#D8DDE3"/>
      <path id="Path_17974" data-name="Path 17974" d="M4835.669,3900.215s106.368,99.729,208.021,59.906c97.892-38.35,139.732-85.855,219.441-64.756s127.582,82.59,200.055,81.273c80.75-1.466,173.446-59.583,175.048-56.424" transform="translate(-4835.5 -3750.215)" fill="none" stroke="#707070" stroke-linecap="round" stroke-width="1" stroke-dasharray="2 4"/>
    </g>
    <g id="Group_32726" data-name="Group 32726" transform="translate(402.308 66.581)">
      <path id="Path_22047" data-name="Path 22047" d="M348.455,192.232,243.441,192.1a5.479,5.479,0,0,1-5.472-5.485L238.145,38.2a5.478,5.478,0,0,1,5.485-5.472l105.014.132a5.478,5.478,0,0,1,5.472,5.485L353.94,186.76a5.479,5.479,0,0,1-5.486,5.472" transform="translate(-150.316 -20.675)" fill="#68d2c0"/>
      <g id="Group_32721" data-name="Group 32721" transform="translate(99.404 25.24)" opacity="0.36">
        <g id="Group_32720" data-name="Group 32720">
          <g id="Group_32719" data-name="Group 32719" clip-path="url(#clip-path)">
            <rect id="Rectangle_13401" data-name="Rectangle 13401" width="138.903" height="98.193" transform="translate(-0.005 138.903) rotate(-89.928)" fill="#45272a"/>
          </g>
        </g>
      </g>
      <rect id="Rectangle_13403" data-name="Rectangle 13403" width="138.903" height="98.193" transform="translate(96.543 161.196) rotate(-89.928)" fill="#fff"/>
      <rect id="Rectangle_13404" data-name="Rectangle 13404" width="17.842" height="17.842" transform="translate(114.886 57.589)" fill="#68d2c0"/>
      <rect id="Rectangle_13405" data-name="Rectangle 13405" width="17.842" height="17.842" transform="translate(114.886 85.308)" fill="#68d2c0"/>
      <rect id="Rectangle_13406" data-name="Rectangle 13406" width="17.842" height="17.842" transform="translate(114.886 113.027)" fill="#68d2c0"/>
      <path id="Path_22050" data-name="Path 22050" d="M351.948,174.5h-5.39v-.624h4.766v-17.53h.624Z" transform="translate(-218.908 -98.758)" fill="#5b322c"/>
      <path id="Path_22051" data-name="Path 22051" d="M344.162,249.756h-9.93v-.624h9.306V231.6h.624Z" transform="translate(-211.121 -146.294)" fill="#5b322c"/>
      <path id="Path_22052" data-name="Path 22052" d="M330.059,325.01H311.9v-.624h17.53v-17.53h.624Z" transform="translate(-197.018 -193.829)" fill="#5b322c"/>
      <rect id="Rectangle_13407" data-name="Rectangle 13407" width="20.553" height="0.624" transform="translate(136.552 63.078)" fill="#5b322c"/>
      <rect id="Rectangle_13408" data-name="Rectangle 13408" width="30.748" height="0.624" transform="translate(136.552 69.317)" fill="#5b322c"/>
      <rect id="Rectangle_13409" data-name="Rectangle 13409" width="25.25" height="0.624" transform="translate(136.552 90.798)" fill="#5b322c"/>
      <rect id="Rectangle_13410" data-name="Rectangle 13410" width="44.435" height="0.624" transform="translate(136.552 97.037)" fill="#5b322c"/>
      <rect id="Rectangle_13411" data-name="Rectangle 13411" width="25.25" height="0.624" transform="translate(136.552 118.516)" fill="#5b322c"/>
      <rect id="Rectangle_13412" data-name="Rectangle 13412" width="44.435" height="0.624" transform="translate(136.552 124.756)" fill="#5b322c"/>
      <path id="Path_22053" data-name="Path 22053" d="M363.907,10.1V10a9.133,9.133,0,0,0-18.265.047v.021l-11.981-.015a2.691,2.691,0,0,0-2.714,2.666l-.015,11.856a2.691,2.691,0,0,0,2.707,2.673l42.227.053a2.691,2.691,0,0,0,2.714-2.667l.015-11.856a2.691,2.691,0,0,0-2.707-2.673Zm-8.527.976a2.591,2.591,0,1,1,1.957-1.926,2.584,2.584,0,0,1-1.957,1.926" transform="translate(-209.037 -0.627)" fill="#4d4d4d"/>
      <path id="Path_22054" data-name="Path 22054" d="M340.318,27,333.005,27a3.077,3.077,0,0,1-2.174-.891,3,3,0,0,1-.9-2.151l.015-11.856h.737l-.015,11.856a2.268,2.268,0,0,0,.682,1.627,2.347,2.347,0,0,0,1.657.678l7.313.009Zm13.83-16.126A3.014,3.014,0,0,1,352,9.993a2.941,2.941,0,0,1,1.457-4.948,3.035,3.035,0,0,1,2.822.811,2.939,2.939,0,0,1-1.455,4.948,3.184,3.184,0,0,1-.678.074m-.01-5.17a2.426,2.426,0,0,0-.519.057,2.23,2.23,0,0,0-1.677,1.654,2.182,2.182,0,0,0,.584,2.055,2.306,2.306,0,0,0,2.143.611,2.225,2.225,0,0,0,1.676-1.646,2.186,2.186,0,0,0-.586-2.062,2.277,2.277,0,0,0-1.622-.668m21.117,4.143-12.349-.015V9.377a8.567,8.567,0,0,0-3.142-6.635A8.926,8.926,0,0,0,352.336.91a8.674,8.674,0,0,0-6.959,8.515v.368l-.368.021L333.027,9.8V9.062l11.619.015A9.414,9.414,0,0,1,352.195.187a9.664,9.664,0,0,1,8.039,1.987A9.3,9.3,0,0,1,363.639,9.1l11.616.014Z" transform="translate(-208.404 0.001)" fill="#453028"/>
      <rect id="Rectangle_13413" data-name="Rectangle 13413" width="18.715" height="0.737" transform="translate(137.481 26.312)" fill="#453028"/>
      <text id="Claim" transform="translate(114.63 47.93)" fill="#3d3d3d" stroke="rgba(0,0,0,0)" stroke-width="1" font-size="19" font-family="Mulish-Bold, Mulish" font-weight="700"><tspan x="0" y="0">Claim</tspan></text>
    </g>
    <ellipse id="Ellipse_5" data-name="Ellipse 5" cx="39" cy="40" rx="39" ry="40" transform="translate(407 130)" fill="#fff"/>
    <g id="Group_32309" data-name="Group 32309" transform="matrix(0.995, -0.105, 0.105, 0.995, 377.839, 130.154)">
      <g id="Group_32308" data-name="Group 32308" transform="translate(-2.273 -26.715)" clip-path="url(#clip-path-2)">
        <path id="Path_21246" data-name="Path 21246" d="M566.878.024,554.816,0a3.628,3.628,0,0,0-3.378,2.287L546.3,15.207a3.627,3.627,0,0,0,3.358,4.967l22.281.074a3.627,3.627,0,0,0,3.389-4.95l-5.083-12.97a3.627,3.627,0,0,0-3.369-2.3" transform="translate(-494.723 0.001)" fill="#43b0ef"/>
        <path id="Path_21247" data-name="Path 21247" d="M364.587,79.093,356.041,87.6a3.627,3.627,0,0,0-.771,4.006l5.5,12.769a3.627,3.627,0,0,0,5.887,1.137l15.808-15.7a3.627,3.627,0,0,0-1.1-5.9L368.6,78.339a3.627,3.627,0,0,0-4.011.754" transform="translate(-341.518 -62.571)" fill="#43b0ef"/>
        <path id="Path_21248" data-name="Path 21248" d="M287.1,282.153l-.025,12.062a3.627,3.627,0,0,0,2.287,3.378l12.921,5.136a3.627,3.627,0,0,0,4.967-3.358l.074-22.281a3.627,3.627,0,0,0-4.95-3.389l-12.97,5.083a3.627,3.627,0,0,0-2.3,3.369" transform="translate(-287.078 -219.258)" fill="#43b0ef"/>
        <path id="Path_21249" data-name="Path 21249" d="M366.172,488.389l8.511,8.547a3.627,3.627,0,0,0,4.006.771l12.769-5.5a3.627,3.627,0,0,0,1.137-5.886l-15.7-15.807a3.627,3.627,0,0,0-5.9,1.1l-5.577,12.765a3.627,3.627,0,0,0,.754,4.012" transform="translate(-349.65 -376.407)" fill="#43b0ef"/>
        <path id="Path_21250" data-name="Path 21250" d="M566.764,599.523l17,.035,6.047-15.213a3.627,3.627,0,0,0-3.359-4.967l-22.281-.074a3.627,3.627,0,0,0-3.389,4.95Z" transform="translate(-506.337 -464.502)" fill="#43b0ef"/>
        <path id="Path_21251" data-name="Path 21251" d="M775.468,486.936l8.547-8.511a3.627,3.627,0,0,0,.771-4.006l-5.5-12.769a3.627,3.627,0,0,0-5.887-1.137l-15.807,15.7a3.627,3.627,0,0,0,1.1,5.9l12.765,5.577a3.627,3.627,0,0,0,4.011-.754" transform="translate(-663.486 -368.407)" fill="#43b0ef"/>
        <path id="Path_21252" data-name="Path 21252" d="M886.608,279.8l.025-12.062a3.628,3.628,0,0,0-2.287-3.378l-12.921-5.136a3.627,3.627,0,0,0-4.966,3.358l-.074,22.281a3.627,3.627,0,0,0,4.95,3.389l12.97-5.083a3.627,3.627,0,0,0,2.3-3.369" transform="translate(-751.582 -207.644)" fill="#43b0ef"/>
        <path id="Path_21253" data-name="Path 21253" d="M774.015,77.509,765.5,68.962a3.626,3.626,0,0,0-4.005-.771L748.73,73.7a3.627,3.627,0,0,0-1.137,5.886L763.3,95.39a3.627,3.627,0,0,0,5.9-1.1l5.577-12.766a3.627,3.627,0,0,0-.754-4.011" transform="translate(-655.486 -54.44)" fill="#43b0ef"/>
        <path id="Path_21254" data-name="Path 21254" d="M457.321,106.507a55.294,55.294,0,0,0-6.087-17.963q-.552-1.017-1.143-2a56.07,56.07,0,0,0-15.017-16.452,55.435,55.435,0,0,0-17-8.4c-.736-.216-1.479-.422-2.229-.609a56.081,56.081,0,0,0-22.25-1.013,55.56,55.56,0,0,0-17.963,6.084q-1.017.552-2.005,1.147a55.974,55.974,0,0,0-16.452,15.016,54.51,54.51,0,0,0-4.515,7.314,55.076,55.076,0,0,0-3.891,9.686c-.216.736-.422,1.482-.609,2.232a56.269,56.269,0,0,0-1.013,22.251,55.295,55.295,0,0,0,6.087,17.963c.368.674.75,1.345,1.143,2a55.952,55.952,0,0,0,15.02,16.455,55,55,0,0,0,7.306,4.512h0a54.726,54.726,0,0,0,9.69,3.891c.736.216,1.479.422,2.229.609a56.095,56.095,0,0,0,22.254,1.013,55.335,55.335,0,0,0,17.959-6.084q1.017-.552,2.005-1.143a56.028,56.028,0,0,0,16.452-15.02,55.573,55.573,0,0,0,8.406-17c.216-.736.422-1.479.609-2.229a56.3,56.3,0,0,0,1.013-22.254M436.863,117.47a35.08,35.08,0,0,1-36.9,32.316A34.71,34.71,0,0,1,367.6,112.829a35.08,35.08,0,0,1,36.9-32.315,34.707,34.707,0,0,1,32.359,36.957" transform="translate(-334.706 -47.624)" fill="#43b0ef"/>
      </g>
    </g>
    <path id="Icon_awesome-tools" data-name="Icon awesome-tools" d="M35.234,27.823,27,19.589a5.221,5.221,0,0,0-6-.977l-7.5-7.5V6.75L4.5,0,0,4.5l6.75,9h4.366l7.5,7.5a5.232,5.232,0,0,0,.977,6l8.234,8.234a2.614,2.614,0,0,0,3.705,0l3.705-3.705a2.627,2.627,0,0,0,0-3.705Zm-11.911-12A7.4,7.4,0,0,1,28.589,18l1.364,1.364a9.953,9.953,0,0,0,3.08-2.074A10.112,10.112,0,0,0,35.7,7.678a.842.842,0,0,0-1.413-.387l-5.231,5.231-4.774-.795-.795-4.774,5.231-5.231a.849.849,0,0,0-.4-1.42,10.129,10.129,0,0,0-9.6,2.665,9.964,9.964,0,0,0-2.9,7.284l5.773,5.773a7.66,7.66,0,0,1,1.737-.2Zm-7.305,5.766L12.03,17.6,1.315,28.322a4.5,4.5,0,0,0,6.363,6.363l8.691-8.691a7.551,7.551,0,0,1-.352-4.409ZM4.5,33.188A1.688,1.688,0,1,1,6.188,31.5,1.692,1.692,0,0,1,4.5,33.188Z" transform="translate(429.003 145.92)" fill="#ff5100"/>
  </g>
</svg>
