<svg xmlns="http://www.w3.org/2000/svg" xmlns:xlink="http://www.w3.org/1999/xlink" width="803.943" height="255.368" viewBox="0 0 803.943 255.368">
  <defs>
    <clipPath id="clip-path">
      <rect id="Rectangle_13327" data-name="Rectangle 13327" width="17.994" height="12.968" fill="#ff8a54"/>
    </clipPath>
    <clipPath id="clip-path-2">
      <rect id="Rectangle_13328" data-name="Rectangle 13328" width="5.285" height="5.417" fill="none"/>
    </clipPath>
  </defs>
  <g id="Group_32708" data-name="Group 32708" transform="translate(0.538)">
    <rect id="Rectangle_12169" data-name="Rectangle 12169" width="800" height="253" fill="#D8DDE3"/>
    <path id="Path_17974" data-name="Path 17974" d="M4835.669,3900.215s106.368,99.729,208.021,59.906c97.892-38.35,139.732-85.855,219.441-64.756s127.582,82.59,200.055,81.273c80.75-1.466,173.446-59.583,175.048-56.424" transform="translate(-4835.5 -3750.215)" fill="none" stroke="#707070" stroke-linecap="round" stroke-width="1" stroke-dasharray="2 4"/>
    <g id="Group_32673" data-name="Group 32673" transform="translate(18297.43 10965.656)">
      <path id="Path_21905" data-name="Path 21905" d="M2683.6,563.592a15.1,15.1,0,0,1,3.907-.938l1.38-3.461,6.088.963.246,3.717a15.084,15.084,0,0,1,3.427,2.1l3.422-1.47,3.624,4.986-2.454,2.8a15.072,15.072,0,0,1,.938,3.908l3.46,1.38-.962,6.088-3.717.246a15.1,15.1,0,0,1-2.1,3.427l1.47,3.422-4.985,3.624-2.8-2.454a15.1,15.1,0,0,1-3.907.938l-1.381,3.461-6.088-.963-.246-3.718a15.093,15.093,0,0,1-3.427-2.1l-3.422,1.47-3.624-4.986,2.453-2.8a15.077,15.077,0,0,1-.938-3.907l-3.46-1.38.962-6.088,3.718-.246a15.1,15.1,0,0,1,2.1-3.427l-1.47-3.422,4.985-3.624Zm1.811,8.655a6.612,6.612,0,1,0,9.236,1.46,6.612,6.612,0,0,0-9.236-1.46" transform="translate(-20392.678 -11420.583)" fill="#43b0ef"/>
      <path id="Path_21907" data-name="Path 21907" d="M1476.242,571.822a10.231,10.231,0,0,1,2.647-.635l.935-2.345,4.125.652.167,2.519a10.231,10.231,0,0,1,2.322,1.421l2.318-1,2.455,3.378-1.662,1.9a10.224,10.224,0,0,1,.635,2.648l2.344.935-.652,4.125-2.519.167a10.235,10.235,0,0,1-1.421,2.322l1,2.318-3.378,2.456-1.9-1.663a10.231,10.231,0,0,1-2.648.635l-.935,2.345-4.125-.652-.167-2.519a10.239,10.239,0,0,1-2.322-1.421l-2.318,1-2.456-3.378,1.663-1.9a10.221,10.221,0,0,1-.635-2.648l-2.345-.935.652-4.125,2.519-.167a10.239,10.239,0,0,1,1.421-2.322l-1-2.318,3.378-2.456Zm1.227,5.864a4.48,4.48,0,1,0,6.258.989,4.48,4.48,0,0,0-6.258-.989" transform="translate(-19282.283 -11429.488)" fill="#43b0ef"/>
      <path id="Path_21908" data-name="Path 21908" d="M1830.922,525a25.973,25.973,0,0,1,6.719-1.613l2.374-5.952,10.47,1.656.423,6.393a25.96,25.96,0,0,1,5.895,3.607l5.885-2.529,6.233,8.575-4.22,4.817a25.951,25.951,0,0,1,1.613,6.721l5.951,2.374-1.655,10.47-6.393.423a25.973,25.973,0,0,1-3.607,5.894l2.528,5.885-8.574,6.233-4.817-4.22a25.968,25.968,0,0,1-6.72,1.613l-2.374,5.952-10.47-1.656-.423-6.394a25.978,25.978,0,0,1-5.894-3.607l-5.885,2.529-6.233-8.575,4.22-4.817a25.953,25.953,0,0,1-1.613-6.72l-5.951-2.374,1.656-10.47,6.394-.423a26,26,0,0,1,3.607-5.894l-2.528-5.885,8.574-6.233Zm3.115,14.885a11.372,11.372,0,1,0,15.885,2.511,11.371,11.371,0,0,0-15.885-2.511" transform="translate(-19597.025 -11382.041)" fill="#43b0ef"/>
      <g id="Group_32556" data-name="Group 32556" transform="translate(-17857.436 -10800.314)">
        <path id="Path_21909" data-name="Path 21909" d="M954.734,1371.216a19.046,19.046,0,0,0-19.1-19.674,20.261,20.261,0,0,0-19.915,19.871,19.189,19.189,0,0,0,10.828,17.833c-.048,2.343-.1,4.988-.1,4.988l17.1-.087s.161-2.8.251-5.3a20.422,20.422,0,0,0,10.943-17.632" transform="translate(-915.714 -1351.542)" fill="#ef7b45"/>
        <path id="Path_21910" data-name="Path 21910" d="M1065.528,1568.3c.032-6.414.489-12.832.4-19.244-.017-1.3-.054-2.593-.178-3.88-.156-1.615-.49-3.409-1.959-4.3a2.469,2.469,0,0,0-2.165-.252,3.179,3.179,0,0,0-1.572,1.55,8.185,8.185,0,0,0-.732,4.74,8.52,8.52,0,0,0,5.428,7.049,8.878,8.878,0,0,0,8.978-1.805c2.361-2.214,3.681-6.043,2.612-9.142-.462-1.338-1.583-2.832-3.163-2.65-1.534.177-2.3,1.719-2.657,3.072a29.727,29.727,0,0,0-.661,4.835c-.172,1.868-.29,3.739-.39,5.61-.206,3.854-.32,7.709-.527,11.563q-.069,1.277-.156,2.553c-.02.287.421.267.441-.019.474-6.819.461-13.658,1.144-20.468a20.217,20.217,0,0,1,.744-4.535,3.52,3.52,0,0,1,1.257-1.862,1.91,1.91,0,0,1,2.138.037c1.351.906,1.753,2.755,1.732,4.313a9.062,9.062,0,0,1-1.362,4.59,8.371,8.371,0,0,1-8.062,3.928,7.9,7.9,0,0,1-6.671-5.424,8.675,8.675,0,0,1-.278-4.507c.317-1.5,1.289-3.607,3.145-3.038,1.779.545,2.149,2.618,2.3,4.253.107,1.134.145,2.276.165,3.417.106,5.94-.261,11.89-.375,17.833q-.017.9-.023,1.8c0,.287.44.269.441-.019" transform="translate(-1048.185 -1525.799)" fill="#fff"/>
        <path id="Path_21911" data-name="Path 21911" d="M1114.085,2034.954a5.148,5.148,0,0,1,1.1,1,1.109,1.109,0,0,0,.9.433l3.441-.02a1.189,1.189,0,0,0,.974-.521,2.235,2.235,0,0,1,1.195-.934Z" transform="translate(-1098.794 -1982.234)" fill="#ef7b45"/>
        <path id="Path_21912" data-name="Path 21912" d="M1068.256,1908.753c0,.07.689,5.513.953,7.594a2.478,2.478,0,0,0,1.383,1.965,2.281,2.281,0,0,0,.975.212l7.526-.044s1.967-.012,2.444-1.6c.5-1.667,1.52-8.218,1.52-8.218Z" transform="translate(-1056.498 -1865.722)" fill="#ff8a54"/>
        <path id="Path_21919" data-name="Path 21919" d="M1078.793,1929.373l-14.59.137a.364.364,0,0,1-.367-.375v-.041a.387.387,0,0,1,.379-.381l14.59-.137a.364.364,0,0,1,.367.374v.041a.387.387,0,0,1-.379.382" transform="translate(-1052.419 -1884.097)" fill="#68d2c0"/>
        <path id="Path_21920" data-name="Path 21920" d="M1078.031,1929.063a.415.415,0,0,0,.275-.143.426.426,0,0,0,.078-.36.345.345,0,0,0-.37-.269l-3.387.052-11.173.124a.321.321,0,0,0-.278.172.4.4,0,0,0,0,.336.3.3,0,0,0,.272.161l.4,0,1.569-.014,2.967-.024,5.023-.033,3.386-.011.92,0,.239,0a.367.367,0,0,1,.082.006.4.4,0,0,1-.082.007l-.239.009-.921.021-3.387.052-5.023.061-2.966.032-1.569.016-.4,0a.426.426,0,0,1-.382-.227.455.455,0,0,1-.049-.228.472.472,0,0,1,.053-.229.453.453,0,0,1,.392-.242l11.172-.087,3.386-.011a.387.387,0,0,1,.406.311.454.454,0,0,1-.1.385.381.381,0,0,1-.212.122.234.234,0,0,1-.082,0" transform="translate(-1051.657 -1883.786)" fill="#68d2c0"/>
        <path id="Path_21921" data-name="Path 21921" d="M1044.86,1847.6c0,.141.241,3.476.367,5.188a2,2,0,0,0,.891,1.532l.758.5,14.551-.085.767-.5a2.137,2.137,0,0,0,.954-1.565l.535-5.178Z" transform="translate(-1034.905 -1809.26)" fill="#ff8a54"/>
        <path id="Path_21922" data-name="Path 21922" d="M1083.194,2005.764a18.626,18.626,0,0,0,4.331.316c1.242-.013,2.459.015,3.809-.021.988-.027,1.9-.082,2.885-.131a2.736,2.736,0,0,0,1.15-.258Z" transform="translate(-1070.284 -1955.248)" fill="#ef7b45"/>
        <path id="Path_21923" data-name="Path 21923" d="M1076.9,1983.4a21.586,21.586,0,0,0,4.669.314c1.339-.013,2.652.013,4.106-.023,1.066-.027,2.047-.083,3.109-.132a3.125,3.125,0,0,0,1.239-.259Z" transform="translate(-1064.479 -1934.6)" fill="#ef7b45"/>
        <path id="Path_21924" data-name="Path 21924" d="M1077.341,1961.3a21.581,21.581,0,0,0,4.669.314c1.339-.013,2.651.014,4.106-.023,1.066-.027,2.047-.083,3.11-.132a3.12,3.12,0,0,0,1.239-.259Z" transform="translate(-1064.882 -1914.208)" fill="#ef7b45"/>
        <path id="Path_21925" data-name="Path 21925" d="M1077.779,1939.2a21.6,21.6,0,0,0,4.669.314c1.339-.014,2.651.014,4.106-.023,1.066-.027,2.047-.083,3.11-.132a3.12,3.12,0,0,0,1.239-.259Z" transform="translate(-1065.287 -1893.814)" fill="#ef7b45"/>
        <path id="Path_21926" data-name="Path 21926" d="M1069.156,1923.531c0,.036-3.893.087-8.693.115s-8.693.022-8.692-.013,3.893-.087,8.694-.115,8.692-.022,8.691.013" transform="translate(-1041.283 -1879.413)" fill="#ef7b45"/>
        <g id="Group_32538" data-name="Group 32538" transform="translate(15.885 2.035)" opacity="0.2">
          <g id="Group_32537" data-name="Group 32537">
            <g id="Group_32536" data-name="Group 32536" clip-path="url(#clip-path)">
              <path id="Path_21927" data-name="Path 21927" d="M1121.8,1381.729a3.4,3.4,0,0,1,1.358-2.408,5.8,5.8,0,0,1,4.154-1.368,13.342,13.342,0,0,1,10.389,5.111c1.01,1.183,2.187,3.361,2.086,5.019a3.1,3.1,0,0,1-1.035,2.185c-1.658,1.415-3.942.259-5.275-1.232-1.242-1.39-2.225-3.152-3.93-3.9-1.4-.614-3.03-.41-4.552-.636s-3.179-1.209-3.2-2.773" transform="translate(-1121.802 -1377.942)" fill="#ff8a54"/>
            </g>
          </g>
        </g>
      </g>
      <g id="Group_32541" data-name="Group 32541" transform="translate(-17825.943 -10783.738)" opacity="0.2">
        <g id="Group_32540" data-name="Group 32540">
          <g id="Group_32539" data-name="Group 32539" clip-path="url(#clip-path-2)">
            <path id="Path_21928" data-name="Path 21928" d="M1324.352,1568.521a2.972,2.972,0,0,1,3.066-1.893,2.872,2.872,0,0,1,1.948,1.679,2.819,2.819,0,0,1-.677,3.017,2.559,2.559,0,0,1-3,.343,3.131,3.131,0,0,1-1.335-3.147" transform="translate(-1324.263 -1566.589)" fill="#ff9388"/>
          </g>
        </g>
      </g>
      <path id="Path_21932" data-name="Path 21932" d="M918.509,898.24,939.937,925.9a1.631,1.631,0,0,0,2.525.067l22.422-25.983a1.631,1.631,0,0,0-1.172-2.7l-43.849-1.682a1.631,1.631,0,0,0-1.352,2.629" transform="translate(-18775.41 -11731.067)" fill="#68d2c0"/>
      <path id="Path_21933" data-name="Path 21933" d="M1548.858,1521.729a63.482,63.482,0,0,1-52.048,27.159h-55.459v17.433h55.459a80.877,80.877,0,0,0,65.03-32.8Z" transform="translate(-19258.27 -12308.925)" fill="#68d2c0"/>
      <path id="Path_21934" data-name="Path 21934" d="M1252,27.036a80.906,80.906,0,0,0-141.271,53.906h17.432A63.483,63.483,0,0,1,1238.81,38.427Z" transform="translate(-18953.127 -10905.219)" fill="#68d2c0"/>
      <path id="Path_21935" data-name="Path 21935" d="M2848.213,435.2l-13.641,10.878a63.387,63.387,0,0,1,4.186,66.234l13.584,11.394a80.769,80.769,0,0,0-4.129-88.505" transform="translate(-20544.1 -11306.876)" fill="#68d2c0"/>
      <rect id="Rectangle_13332" data-name="Rectangle 13332" width="142.485" height="17.432" transform="translate(-17819.055 -10760.037)" fill="#68d2c0"/>
      <path id="Path_21938" data-name="Path 21938" d="M3213.467,1782.576l19.292-16.8a1.192,1.192,0,0,0-.057-1.845l-19.9-15.275a1.192,1.192,0,0,0-1.918.969l.608,32.071a1.193,1.193,0,0,0,1.976.877" transform="translate(-20891.402 -12518.135)" fill="#68d2c0"/>
      <path id="Path_21939" data-name="Path 21939" d="M1894.04,994.781a3.481,3.481,0,0,0,1.1-.166c1.648-.676-.018-5.239-.207-6.5a16.28,16.28,0,0,1-.108-5.516q.042-.215.091-.429c.565-2.482,1.755-5.43,4.375-6.258a7.855,7.855,0,0,1,1.931-.346,9,9,0,0,1,5.671,1.626,10.711,10.711,0,0,1,3.877,6.626,20.257,20.257,0,0,1-.035,3.735,21.459,21.459,0,0,0,.168,3.729,4.5,4.5,0,0,0,.344,1.361,2.438,2.438,0,0,0,1.629,1.308.254.254,0,0,1,.1.044c.1.087.016.253-.076.352a7.915,7.915,0,0,1-.881.815c-.189.15-.385.291-.581.432a15.8,15.8,0,0,1-7.509,2.39c-3.219.317-8.119.108-10.146-2.914a.239.239,0,0,1-.034-.064c-.039-.136.151-.214.292-.224" transform="translate(-19675.789 -11804.85)" fill="#2b2419"/>
      <path id="Path_21940" data-name="Path 21940" d="M1831.58,2332.624a23.78,23.78,0,0,0,.736,3.722c.419,1.139,2.7,3.769,1.736,6.3-1.044,2.74-5.6.1-7.458-.737s-1.435-2.352-1.633-4.209-1.1-1.908-.77-3.214a15.827,15.827,0,0,1,2.367-3.806Z" transform="translate(-19611.531 -13055.517)" fill="#3d3d3d"/>
      <path id="Path_21941" data-name="Path 21941" d="M1853.574,2313.139s-1.167,1.632-1.134,1.677,5,3.067,5.342,2.087a10.081,10.081,0,0,0,.39-1.907Z" transform="translate(-19637.668 -13039.333)" fill="#ffcab0"/>
      <path id="Path_21942" data-name="Path 21942" d="M1553.058,2378.665a18.771,18.771,0,0,0-2.874,3.367c-1.36,2.04-4.969,2.148-5.124,4.932s4.908,2.87,7.566,1.964,3.06-3.626,4.667-4.306,2.442-1.23,2.318-2.558a16.17,16.17,0,0,0-1.013-3.482,10.934,10.934,0,0,1-1.586.383,13.132,13.132,0,0,1-3.953-.3" transform="translate(-19353.98 -13099.73)" fill="#3d3d3d"/>
      <path id="Path_21943" data-name="Path 21943" d="M1660.138,1303.715s-1.019,6.058-1.84,10.059h0a23.943,23.943,0,0,1-.82,3.312,46.53,46.53,0,0,1-4.487,4.971c-4.106,4.227-9.531,9.55-9.531,9.55l-2.121-4.026s4.818-5.649,8.085-9.419c1.512-1.744,2.691-3.085,2.907-3.279.683-.611,1.476-6.631,2.59-11.591a19.977,19.977,0,0,1,3.347-7.7Z" transform="translate(-19442.842 -12100.219)" fill="#ef7b45"/>
      <path id="Path_21944" data-name="Path 21944" d="M1652.992,1592.311c-4.106,4.227-9.531,9.55-9.531,9.55l-2.121-4.026s4.818-5.649,8.085-9.418a6.851,6.851,0,0,1,3.567,3.894" transform="translate(-19442.842 -12370.474)" fill="#ffcab0"/>
      <path id="Path_21945" data-name="Path 21945" d="M1649.1,2355.592l-.238,1.855a9.143,9.143,0,0,0,5.539-.083l.059-1.649Z" transform="translate(-19449.787 -13078.513)" fill="#ffcab0"/>
      <path id="Path_21946" data-name="Path 21946" d="M1803.084,1289.474c.151.539-27.915,0-27.915,0s7.764-5.651,8.267-7.161-1.977-10.567-2.3-13.515c-.259-2.358-.907-12.909.647-14.521,1.625-1.685,7.476-3.451,7.476-3.451l8.53.317a13.391,13.391,0,0,1,2.414.762c1.006.467,6.762,2.517,7.7,5.393s-5.743,12.12-5.743,12.12-.013.416-.033,1.1h0c-.026.908-.064,2.288-.1,3.785-.045,1.938-.084,4.073-.084,5.632a55.691,55.691,0,0,0,1.142,9.542" transform="translate(-19566.355 -12058.905)" fill="#ff8a54"/>
      <path id="Path_21947" data-name="Path 21947" d="M1566.525,1734.813s3.817,5.607,3.871,9.435-6.774,16.648-7.808,18.483c-3.107,5.514-11.626,17.407-11.626,17.407s-1.469-.037-6.051-1.816c0,0,5.668-15.71,6.386-17.341,3.047-6.917,4.747-11.823,3.723-13.009s-3.817-2.375-4.625-3.076-14.9,2.662-16.373,3.045c-3.823.991-2.08,7.642-1.235,10.624,1.415,4.988,2.651,23,2.651,23s-2.723,1.16-7.283.18c0,0-8.955-32.529-9.242-35.764s-.429-8.569,21.639-12.623Z" transform="translate(-19329.797 -12504.243)" fill="#4d4d4d"/>
      <path id="Path_21948" data-name="Path 21948" d="M1962.9,1141.28s3.28,3.477,8.463.317c0,0-1.159-7.535-.549-11.2s-6.762,5.687-6.762,5.687c.1.051.161.4.176.9a10.084,10.084,0,0,1-.077,1.494c-.152,1.22-.532,2.509-1.25,2.808" transform="translate(-19739.621 -11946.966)" fill="#ffcab0"/>
      <path id="Path_21949" data-name="Path 21949" d="M1941.27,1245.934s-3.916,7.8-10.242,7.292-1.078-8.338-.791-8.411c.316-.08,6.488-1.617,11.033,1.119" transform="translate(-19707.334 -12052.893)" fill="#ffcab0"/>
      <path id="Path_21950" data-name="Path 21950" d="M1733.52,1718.246s19.383,2.389,31.125.395l-22.438-2.8s-.132.572-8.687,2.409" transform="translate(-19527.918 -12488.07)" fill="#ffd670"/>
      <path id="Path_21951" data-name="Path 21951" d="M1904.3,1704.385l-1.444.731s.329,2.294,1.12,2.989l1.62-.413s-.338-2.516-1.3-3.307" transform="translate(-19684.203 -12477.502)" fill="#ffcab0"/>
      <path id="Path_21952" data-name="Path 21952" d="M1944.016,1349.731c-.289.334-4.1,1.867-8.4,3.525h0c-5.881,2.265-12.514,4.408-12.514,4.408l-1.51-3.237s6.947-3.775,11.641-6.422c2.218-1.25,3.932-2.249,4.174-2.48.755-.719.95-1.872.4-3.882s-1.833-11.25-1.977-12.329.359-3.954,3.055-4.1a8.091,8.091,0,0,1,4.068.617s.677.281,1.18,6.823.575,16.282-.108,17.073" transform="translate(-19701.486 -12127.544)" fill="#ef7b45"/>
      <path id="Path_21953" data-name="Path 21953" d="M1935.612,1626.321h0c-5.881,2.266-12.728,4.478-12.728,4.478l-1.3-3.307s6.947-3.775,11.641-6.422c0,0,1.708.832,2.384,5.25" transform="translate(-19701.486 -12400.609)" fill="#ffcab0"/>
      <path id="Path_21954" data-name="Path 21954" d="M1586.31,1744.919l-27.549-.405,13.91,7.063Z" transform="translate(-19366.627 -12514.537)" fill="#3d9fd8"/>
      <path id="Path_21955" data-name="Path 21955" d="M1726.3,1756.429l13.64-5.284v-1.374l-14.718,5.309Z" transform="translate(-19520.26 -12519.39)" fill="#43b0ef"/>
      <path id="Path_21956" data-name="Path 21956" d="M1791.94,1707.167s-1.721-.268-2.91-.545c-.92-.214-3.209.081-3.792.672s-2.437,4.706-2.788,4.958.18.833.8.541c0,0,.565,1.8,1.96,1.127s2.343-2.147,3.073-2.406,4.985-1.567,4.985-1.567-.229-3.217-1.325-2.779" transform="translate(-19572.971 -12479.502)" fill="#ffcab0"/>
      <path id="Path_21957" data-name="Path 21957" d="M1787.147,1712.669a12.01,12.01,0,0,0-1.394.772c-.289.238-1.458,1.114-1.741,1.32s.427.792,2.519-.114.617-1.978.617-1.978" transform="translate(-19574.461 -12485.146)" fill="#ffcab0"/>
      <path id="Path_21958" data-name="Path 21958" d="M1324.8,1568.251l-8.195-22.374-26.417.432,7.81,20.618Z" transform="translate(-19118.756 -12331.213)" fill="#43b0ef"/>
      <path id="Path_21959" data-name="Path 21959" d="M1469.574,1649.335c.806,1.611.563,3.367-.544,3.92s-2.657-.3-3.463-1.916-.562-3.366.544-3.92,2.657.3,3.463,1.916" transform="translate(-19280.178 -12424.771)" fill="#3d9fd8"/>
      <path id="Path_21960" data-name="Path 21960" d="M1976.676,1176.728c0,.943.144,3.158,1.485,3.158s3.37-5.586,3.37-6.529-1.087,1.663-2.427,1.663-2.427.765-2.427,1.707" transform="translate(-19752.33 -11987.217)" fill="#dfb19a"/>
      <path id="Path_21961" data-name="Path 21961" d="M1900.343,1007.208s-.786,12.042-2.2,10.154-2.129-6.153-1.138-8.206a3.694,3.694,0,0,1,3.343-1.947" transform="translate(-19678.371 -11834.064)" fill="#2b2419"/>
      <path id="Path_21962" data-name="Path 21962" d="M1912.046,1026.763c1.717-.674,7.3-1.974,9.812,3.694,0,0-.1.845-.276,2.009.321-.183.691-.2.912.447.456,1.324-.277,3.1-1.142,3.267a1.252,1.252,0,0,1-.506.008,7.28,7.28,0,0,1-1.127,2.742c-1.35,1.464-3.758,3.287-4.7,3.325s-3.854-2.374-4.533-4.225a33.984,33.984,0,0,1-1.145-5.053c-.411-1.862.983-5.542,2.7-6.215" transform="translate(-19690.123 -11851.537)" fill="#ffcab0"/>
      <path id="Path_21963" data-name="Path 21963" d="M1922.89,999.586a2.55,2.55,0,0,1,1.027-.722,5.925,5.925,0,0,1,1.447-.26,9.134,9.134,0,0,1,5.225,1.414,8.119,8.119,0,0,1,3.438,2.973c1.025,2.105.013,3.622-.73,4.041a2.69,2.69,0,0,0-.987,1.6s-.377-3.021-2.681-3.246a12.191,12.191,0,0,1-5.5-1.85c1.516,2,4.695,1.916,4.695,1.916-2.939.5-5.311-1.827-5.311-1.827a5.411,5.411,0,0,0,1.386,1.606,4.778,4.778,0,0,1-2.824-2.678,3.256,3.256,0,0,1,.818-2.965" transform="translate(-19701.838 -11826.102)" fill="#2b2419"/>
    </g>
  </g>
</svg>
