<svg xmlns="http://www.w3.org/2000/svg" xmlns:xlink="http://www.w3.org/1999/xlink" width="803.943" height="253" viewBox="0 0 803.943 253">
  <defs>
    <clipPath id="clip-path">
      <rect id="Rectangle_13402" data-name="Rectangle 13402" width="90.097" height="127.351" fill="none"/>
    </clipPath>
    <clipPath id="clip-path-2">
      <path id="Path_21561" data-name="Path 21561" d="M28.368,171.807c-3.078,3.658-9.22,24.081-9.22,24.081l9.568,3.443,1.916-3.891s8.3,18.891-4.007,35.382c-11.424,15.3,19.75,12.472,24.3,11.985,4.551.487,35.724,3.318,24.3-11.985-12.31-16.492-4.007-35.382-4.007-35.382l1.916,3.891,9-3.484s-5.973-20.787-8.652-24.04c-2.98-3.619-17.613-4.2-17.613-4.2s-1.471,3.871-5.187,3.871-4.9-3.91-4.9-3.91-14.708,1.015-17.421,4.239" transform="translate(-19.148 -167.568)" fill="#ff8a54"/>
    </clipPath>
  </defs>
  <g id="Group_32727" data-name="Group 32727" transform="translate(0.538)">
    <g id="Group_32692" data-name="Group 32692">
      <rect id="Rectangle_12169" data-name="Rectangle 12169" width="800" height="253" fill="#D8DDE3"/>
      <path id="Path_17974" data-name="Path 17974" d="M4835.669,3900.215s106.368,99.729,208.021,59.906c97.892-38.35,139.732-85.855,219.441-64.756s127.582,82.59,200.055,81.273c80.75-1.466,173.446-59.583,175.048-56.424" transform="translate(-4835.5 -3750.215)" fill="none" stroke="#707070" stroke-linecap="round" stroke-width="1" stroke-dasharray="2 4"/>
    </g>
    <g id="Group_32726" data-name="Group 32726" transform="translate(408.997 74.5)">
      <path id="Path_22047" data-name="Path 22047" d="M339.176,178.837l-96.2-.121a5.019,5.019,0,0,1-5.012-5.025l.161-135.948a5.018,5.018,0,0,1,5.025-5.012l96.2.121a5.018,5.018,0,0,1,5.012,5.024L344.2,173.824a5.019,5.019,0,0,1-5.025,5.012" transform="translate(-157.678 -21.687)" fill="#68d2c0"/>
      <g id="Group_32721" data-name="Group 32721" transform="translate(91.056 23.121)" opacity="0.36">
        <g id="Group_32720" data-name="Group 32720">
          <g id="Group_32719" data-name="Group 32719" clip-path="url(#clip-path)">
            <rect id="Rectangle_13401" data-name="Rectangle 13401" width="127.238" height="89.946" transform="translate(-0.004 127.238) rotate(-89.928)" fill="#45272a"/>
          </g>
        </g>
      </g>
      <rect id="Rectangle_13403" data-name="Rectangle 13403" width="127.238" height="89.946" transform="translate(88.435 147.659) rotate(-89.928)" fill="#fff"/>
      <rect id="Rectangle_13404" data-name="Rectangle 13404" width="16.344" height="16.344" transform="translate(105.238 52.753)" fill="#68d2c0"/>
      <rect id="Rectangle_13405" data-name="Rectangle 13405" width="16.344" height="16.344" transform="translate(105.238 78.144)" fill="#68d2c0"/>
      <rect id="Rectangle_13406" data-name="Rectangle 13406" width="16.344" height="16.344" transform="translate(105.238 103.535)" fill="#68d2c0"/>
      <path id="Path_22050" data-name="Path 22050" d="M351.5,172.977h-4.937v-.572h4.366V156.347h.572Z" transform="translate(-229.629 -103.595)" fill="#5b322c"/>
      <path id="Path_22051" data-name="Path 22051" d="M343.329,248.231h-9.1v-.572h8.525V231.6h.572Z" transform="translate(-221.461 -153.458)" fill="#5b322c"/>
      <path id="Path_22052" data-name="Path 22052" d="M328.534,323.485H311.9v-.572h16.058V306.856h.572Z" transform="translate(-206.667 -203.321)" fill="#5b322c"/>
      <rect id="Rectangle_13407" data-name="Rectangle 13407" width="18.827" height="0.572" transform="translate(125.084 57.781)" fill="#5b322c"/>
      <rect id="Rectangle_13408" data-name="Rectangle 13408" width="28.166" height="0.572" transform="translate(125.084 63.496)" fill="#5b322c"/>
      <rect id="Rectangle_13409" data-name="Rectangle 13409" width="23.13" height="0.572" transform="translate(125.084 83.172)" fill="#5b322c"/>
      <rect id="Rectangle_13410" data-name="Rectangle 13410" width="40.703" height="0.572" transform="translate(125.084 88.888)" fill="#5b322c"/>
      <rect id="Rectangle_13411" data-name="Rectangle 13411" width="23.13" height="0.572" transform="translate(125.084 108.564)" fill="#5b322c"/>
      <rect id="Rectangle_13412" data-name="Rectangle 13412" width="40.703" height="0.572" transform="translate(125.084 114.279)" fill="#5b322c"/>
      <path id="Path_22053" data-name="Path 22053" d="M361.138,9.331V9.248a8.366,8.366,0,0,0-16.732.043v.02L333.431,9.3a2.465,2.465,0,0,0-2.486,2.442L330.931,22.6a2.465,2.465,0,0,0,2.48,2.449l38.681.048a2.465,2.465,0,0,0,2.486-2.443l.014-10.86a2.465,2.465,0,0,0-2.48-2.449Zm-7.811.894a2.374,2.374,0,1,1,1.792-1.764,2.367,2.367,0,0,1-1.792,1.764" transform="translate(-219.274 -0.657)" fill="#4d4d4d"/>
      <path id="Path_22054" data-name="Path 22054" d="M339.446,24.736l-6.7-.008a2.819,2.819,0,0,1-1.991-.816,2.746,2.746,0,0,1-.826-1.971l.014-10.861h.675l-.014,10.86a2.077,2.077,0,0,0,.625,1.49,2.15,2.15,0,0,0,1.518.621l6.7.008ZM352.114,9.964a2.761,2.761,0,0,1-1.964-.81,2.694,2.694,0,0,1,1.334-4.532,2.78,2.78,0,0,1,2.585.743A2.692,2.692,0,0,1,352.736,9.9a2.917,2.917,0,0,1-.622.068M352.1,5.229a2.222,2.222,0,0,0-.475.052A2.043,2.043,0,0,0,350.093,6.8a2,2,0,0,0,.535,1.882,2.112,2.112,0,0,0,1.963.559,2.038,2.038,0,0,0,1.535-1.508,2,2,0,0,0-.536-1.888,2.086,2.086,0,0,0-1.486-.612m19.344,3.8L360.137,9.01V8.59a7.848,7.848,0,0,0-2.878-6.078,8.177,8.177,0,0,0-6.8-1.678,7.946,7.946,0,0,0-6.375,7.8V8.97l-.337.019-10.975-.014V8.3l10.643.013A8.623,8.623,0,0,1,350.325.171a8.852,8.852,0,0,1,7.364,1.82,8.521,8.521,0,0,1,3.12,6.345l10.641.013Z" transform="translate(-218.61 0.001)" fill="#453028"/>
      <rect id="Rectangle_13413" data-name="Rectangle 13413" width="17.143" height="0.675" transform="translate(125.935 24.103)" fill="#453028"/>
      <path id="Path_22064" data-name="Path 22064" d="M95.209,162.822c-.011.049-.023.1-.037.141-5.038,20.31-14.957,43.316-34.428,57.82a69.685,69.685,0,0,1-10.293,6.362c-.447-.225-.888-.453-1.327-.689C-1.518,199.571.7,120.587.7,120.587c8.471-.845,17.933-4.407,27.809-9.1a51.1,51.1,0,0,1,43.858-.037c9.947,4.71,19.488,8.286,27.982,9.134a176.713,176.713,0,0,1-5.142,42.235" transform="translate(-0.457 -70.584)" fill="#43b0ef"/>
      <path id="Path_22065" data-name="Path 22065" d="M190.327,162.828c-.011.049-.023.1-.037.141-5.16,20.249-15.141,43.039-34.428,57.82a69.686,69.686,0,0,1-10.293,6.362c-.447-.225-.888-.453-1.327-.689,5.627-11.5,39.6-85.358,1.9-119.926a51.032,51.032,0,0,1,21.345,4.923c9.947,4.71,19.488,8.286,27.982,9.134a176.714,176.714,0,0,1-5.142,42.235" transform="translate(-95.574 -70.59)" fill="#71cbff"/>
      <path id="Path_22066" data-name="Path 22066" d="M67.06,237.222l-.339-.171c-9.8-4.935-18.046-12.625-24.524-22.856a100.582,100.582,0,0,1-12.049-29.081,146.154,146.154,0,0,1-4.4-35.635l.019-.663.66-.066c6.009-.6,13.135-2.936,22.424-7.349a42.327,42.327,0,0,1,36.406-.031c9.359,4.431,16.529,6.775,22.566,7.38l.662.066.017.665a146.367,146.367,0,0,1-4.465,35.635A100.825,100.825,0,0,1,91.943,214.2c-6.49,10.231-14.748,17.921-24.543,22.855ZM27.245,150.178a146.46,146.46,0,0,0,4.374,34.6c4.356,17.124,14.04,39.785,35.441,50.753,21.4-10.968,31.119-33.629,35.5-50.754a146.631,146.631,0,0,0,4.435-34.6c-6.069-.722-13.211-3.1-22.39-7.444a40.822,40.822,0,0,0-35.112.03c-9.112,4.328-16.209,6.694-22.251,7.413" transform="translate(-17.053 -90.955)" fill="#fff"/>
      <path id="Path_22070" data-name="Path 22070" d="M108.593,250.131,87.887,223.977l6.556-5.191,14.064,17.766,21.437-27.789,6.62,5.107Z" transform="translate(-58.234 -138.325)" fill="#fff"/>
      <path id="Path_22071" data-name="Path 22071" d="M450.664,374.258a8.554,8.554,0,1,1-8.554-8.554,8.554,8.554,0,0,1,8.554,8.554" transform="translate(-287.272 -242.313)" fill="#68d2c0"/>
      <path id="Path_22072" data-name="Path 22072" d="M448.112,386.519l-4.714-5.954,1.493-1.182,3.2,4.045,4.881-6.327,1.507,1.163Z" transform="translate(-293.793 -249.865)" fill="#4d4d4d"/>
      <path id="Path_22073" data-name="Path 22073" d="M436.431,380.025a11.446,11.446,0,1,1,4.227-22.086l-.249.627a10.773,10.773,0,1,0,6.749,10.988l.672.06a11.382,11.382,0,0,1-11.4,10.411" transform="translate(-281.593 -236.634)" fill="#5b322c"/>
      <path id="Path_22074" data-name="Path 22074" d="M484.943,372.476a10.73,10.73,0,0,0-1.937-3.228l.509-.443a11.406,11.406,0,0,1,2.059,3.43Z" transform="translate(-320.038 -244.368)" fill="#5b322c"/>
      <rect id="Rectangle_13417" data-name="Rectangle 13417" width="214.804" height="157.278" transform="translate(0 0)" fill="none"/>
      <text id="Claim" transform="translate(105.003 44.5)" fill="#3d3d3d" stroke="rgba(0,0,0,0)" stroke-width="1" font-size="18" font-family="Mulish-Bold, Mulish" font-weight="700"><tspan x="0" y="0">Claim</tspan></text>
    </g>
    <g id="Group_32394" data-name="Group 32394" transform="translate(357.366 115.248)">
      <path id="Path_21554" data-name="Path 21554" d="M52.139,243.615s-25.791,1.566-26.421-1.1,3.722-14.136,7.654-24.238.628-19.735-3.3-27.135-4-14.577.719-18.923,21.142-3.984,21.142-3.984,16.67-.94,21.388,3.407,4.4,12.1.472,19.5-7.234,17.033-3.3,27.135,8.282,21.575,7.654,24.238-26.421,1.1-26.421,1.1Z" transform="translate(-5.529 -135.986)" fill="#f2bc97"/>
      <path id="Path_21555" data-name="Path 21555" d="M82.63,170.859a4.6,4.6,0,0,1,3.742,2.845c2.915,6.826,12.305,29.846,7.357,32.089-5.817,2.638-12.914-18.215-14.191-24.473-1.065-5.216-.949-10.779,3.092-10.46" transform="translate(-17.016 -136.566)" fill="#f2bc97"/>
      <path id="Path_21556" data-name="Path 21556" d="M95.433,203.391s1.684,4.645,1.393,6.562-7.2,19.336-7.2,19.336l-5.806-2.071s4.9-16.22,4.859-16.665-1.375-4.065-1.375-4.065Z" transform="translate(-18.061 -143.578)" fill="#f2bc97"/>
      <path id="Path_21557" data-name="Path 21557" d="M19.971,203.391s-1.684,4.645-1.393,6.562,7.2,19.336,7.2,19.336l5.807-2.071s-4.9-16.22-4.859-16.665,1.375-4.065,1.375-4.065Z" transform="translate(-3.996 -143.578)" fill="#f2bc97"/>
      <path id="Path_21558" data-name="Path 21558" d="M23.644,207.338a4.533,4.533,0,0,1,3.228,3.035c2.416,6.918,10.83,31.642,8.5,33.788-2.713,2.5-15.891-32.3-15.425-34.369a3.053,3.053,0,0,1,3.7-2.454" transform="translate(-4.295 -144.412)" fill="#f2bc97"/>
      <path id="Path_21559" data-name="Path 21559" d="M44.244,156.248s9.348,4.32,23.275,0c0,0,3.546-12.425,1.354-20.936s-8.833-8.769-11.67-7.737c0,0-7.866-1.354-11.09,2.579-3.085,3.763-6.319,12.039-1.87,26.094" transform="translate(-9.063 -127.151)" fill="#3d3d3d"/>
      <rect id="Rectangle_13248" data-name="Rectangle 13248" width="10.056" height="10.526" transform="translate(41.67 26.113)" fill="#f2bc97"/>
      <path id="Path_21560" data-name="Path 21560" d="M66.139,145.054c0,7.05-4.132,12.765-9.228,12.765s-9.228-5.715-9.228-12.765,4.131-12.765,9.228-12.765,9.228,5.715,9.228,12.765" transform="translate(-10.274 -128.258)" fill="#f2bc97"/>
      <g id="Group_32380" data-name="Group 32380" transform="translate(15.023 31.709)" clip-path="url(#clip-path-2)">
        <rect id="Rectangle_13250" data-name="Rectangle 13250" width="71.449" height="78.557" transform="translate(-3.946 0)" fill="#ff8a54"/>
      </g>
      <path id="Path_21562" data-name="Path 21562" d="M30.979,247.37c-2.673,1.8.951,6.061,2.241,7.468,2.1,2.292,6.293,3.384,7.217,2.566s-4.169-5.753-4.115-6.116,2.763,1.8,3.552.942-2.427-4.181-4.22-5-3-.988-4.674.14" transform="translate(-6.468 -152.882)" fill="#f2bc97"/>
      <path id="Path_21563" data-name="Path 21563" d="M90.991,207.338a4.533,4.533,0,0,0-3.228,3.035c-2.416,6.918-10.83,31.642-8.5,33.788,2.713,2.5,15.891-32.3,15.425-34.369a3.053,3.053,0,0,0-3.7-2.454" transform="translate(-16.992 -144.412)" fill="#f2bc97"/>
      <path id="Path_21564" data-name="Path 21564" d="M79.247,239l.056.169C66.7,244.115,53.33,252.227,52.2,252.905A273.253,273.253,0,0,0,25.123,240.19l.056-1.19V220.374H79.247V239Z" transform="translate(-5.414 -147.238)" fill="#f8fafb"/>
      <path id="Path_21565" data-name="Path 21565" d="M67.594,273.879S7.251,268.532,1.141,255.395c-4.5-9.681,5.041-17.415,16.041-13.6s50.565,23.22,50.565,23.22Z" transform="translate(0 -151.639)" fill="#3d3d3d"/>
      <path id="Path_21566" data-name="Path 21566" d="M91.077,273.211v7.822s10.322.685,10.988-.469,1.465-5.328-1.155-7.326-9.011-2.1-9.833-.027" transform="translate(-19.625 -158.297)" fill="#3d3d3d"/>
      <path id="Path_21567" data-name="Path 21567" d="M85.972,271.669l4.048,1.489v7.791l-4.2-.42Z" transform="translate(-18.491 -158.29)" fill="#dec6a0"/>
      <path id="Path_21568" data-name="Path 21568" d="M31.308,273.879s60.342-5.347,66.453-18.484c4.5-9.681-5.041-17.415-16.041-13.6s-50.565,23.22-50.565,23.22Z" transform="translate(-6.713 -151.639)" fill="#4d4d4d"/>
      <path id="Path_21569" data-name="Path 21569" d="M30.232,271.669l-4.048,1.489v7.791l4.2-.42Z" transform="translate(-5.642 -158.29)" fill="#dec6a0"/>
      <path id="Path_21570" data-name="Path 21570" d="M23.082,273.211v7.822s-10.322.685-10.988-.469-1.465-5.328,1.155-7.326,9.011-2.1,9.833-.027" transform="translate(-2.464 -158.297)" fill="#3d3d3d"/>
      <path id="Path_21571" data-name="Path 21571" d="M44.671,144.06s8.468.592,13.879-3.107c1.225-.838,2.278-3.606,2.278-3.606s.29,2.192,1.258,3a12.863,12.863,0,0,1-.388-3.321s1.548,4.546,2.644,4.642,4.449,0,4.449,0l-4.648-10.4-14.812-1.553Z" transform="translate(-9.625 -127.703)" fill="#3d3d3d"/>
    </g>
  </g>
</svg>
