<svg xmlns="http://www.w3.org/2000/svg" xmlns:xlink="http://www.w3.org/1999/xlink" width="803.943" height="253.313" viewBox="0 0 803.943 253.313">
  <defs>
    <clipPath id="clip-path">
      <path id="Path_21735" data-name="Path 21735" d="M435.74,1030.728q.87-.026,1.746-.027c18.023,0,35.515,10.163,46.169,23.041,2.951-6.207,9.066-10.29,11.943-16.6l2.909-3.267c-14.583-13.831-39.259-25.8-60.9-25.826Z" transform="translate(-435.74 -1008.051)" fill="#00ae8d"/>
    </clipPath>
    <clipPath id="clip-path-2">
      <path id="Path_21736" data-name="Path 21736" d="M45.766,891.128l4.983,3.726H82.387l1.5-19.812-3.081-.94Z" transform="translate(-45.766 -874.102)" fill="#00ae8d"/>
    </clipPath>
    <clipPath id="clip-path-3">
      <path id="Path_21737" data-name="Path 21737" d="M.217,892.3a.384.384,0,0,0-.061.654l34.43,25.464L37.946,874.1Z" transform="translate(0 -874.102)" fill="#68d2c0"/>
    </clipPath>
    <clipPath id="clip-path-4">
      <path id="Path_21738" data-name="Path 21738" d="M384.375,1052.13q.87-.026,1.746-.027c19.012,0,44.012,13.6,47.328,33.15,3.26-7.4,9.311-22.318,14.518-28.374-14.819-15.745-38.4-27.394-61.73-27.427Z" transform="translate(-384.375 -1029.453)" fill="#68d2c0"/>
    </clipPath>
    <clipPath id="clip-path-5">
      <path id="Path_21742" data-name="Path 21742" d="M1123.743,2.907,1104.959,35.34h33.667L1146,37.506l3.215-1.795L1126.854,1.326,1122.78.918Z" transform="translate(-1104.959 -0.918)" fill="#00ae8d"/>
    </clipPath>
    <clipPath id="clip-path-6">
      <path id="Path_21743" data-name="Path 21743" d="M1277.116,496.686V538.4c3.676,3,4.129,14.779,7.474,18.442,3.713-3.617,10.781-11.259,15.437-14.032V496.686Z" transform="translate(-1277.116 -496.686)" fill="#00ae8d"/>
    </clipPath>
    <clipPath id="clip-path-7">
      <path id="Path_21744" data-name="Path 21744" d="M1077.192.059l-20.855,36a.418.418,0,0,0,.362.627h43.716L1077.392.056a.117.117,0,0,0-.2,0" transform="translate(-1056.281 -0.001)" fill="#68d2c0"/>
    </clipPath>
    <clipPath id="clip-path-8">
      <path id="Path_21745" data-name="Path 21745" d="M1211.518,531.414v49.262c4.165,3,7.328,7.3,10.673,10.963,3.713-3.617,8.072-11.035,12.6-13.9V531.414Z" transform="translate(-1211.518 -531.414)" fill="#68d2c0"/>
    </clipPath>
    <clipPath id="clip-path-9">
      <path id="Path_21747" data-name="Path 21747" d="M1218.68,1068.019h0s0,.008,0,.009c-.011.026-.023.055-.034.082l.015,0c-6.527,14.339-2.613,38.608-2.1,63.492h23.33a1.788,1.788,0,0,0,1.785-1.885c-1.017-18.863-1.892-37.841.779-53.687a28.59,28.59,0,0,1,6.322-13.642,58.392,58.392,0,0,1,44.818-20.751c.584,0,1.166-.006,1.746.01l-1.862-22.281c-33.6.046-62.361,18.878-74.8,48.65" transform="translate(-1214.929 -1019.369)" fill="#00ae8d"/>
    </clipPath>
    <clipPath id="clip-path-10">
      <path id="Path_21748" data-name="Path 21748" d="M1217.429,986.655c-33.376.238-61.914,19.274-74.289,49.56h0l-.034.079h.015c-6.426,14.379-2.732,38.562-2.125,63.5a1.2,1.2,0,0,0,1.2,1.177h23.638a.551.551,0,0,0,.549-.58c-1.072-20.615-2.306-38.746.505-55.88a29.7,29.7,0,0,1,6.436-14.15,57.965,57.965,0,0,1,44.728-21.029c.382,0,.763,0,1.143,0a.549.549,0,0,0,.553-.594l-1.77-21.578a.551.551,0,0,0-.548-.506h0" transform="translate(-1139.389 -986.655)" fill="#68d2c0"/>
    </clipPath>
    <clipPath id="clip-path-11">
      <path id="Path_21749" data-name="Path 21749" d="M2248.752,896.348l-.59.271-2.734,11.063,3.482,2.8.866-.64v.015l31.4-23.222.03-.023h0l.086-.064-.83-4.586-.079-.038-.015-.084-.082.037-33.87-16.335Z" transform="translate(-2245.427 -865.542)" fill="#00ae8d"/>
    </clipPath>
    <clipPath id="clip-path-12">
      <path id="Path_21750" data-name="Path 21750" d="M2195.867,875.612l34.94-25.842-38.3-18.472Z" transform="translate(-2192.506 -831.298)" fill="#68d2c0"/>
    </clipPath>
  </defs>
  <g id="Group_32698" data-name="Group 32698" transform="translate(0.538)">
    <rect id="Rectangle_12169" data-name="Rectangle 12169" width="800" height="253" fill="#D8DDE3"/>
    <path id="Path_17974" data-name="Path 17974" d="M4835.669,3900.215s106.368,99.729,208.021,59.906c97.892-38.35,139.732-85.855,219.441-64.756s127.582,82.59,200.055,81.273c80.75-1.466,173.446-59.583,175.048-56.424" transform="translate(-4835.5 -3750.215)" fill="none" stroke="#707070" stroke-linecap="round" stroke-width="1" stroke-dasharray="2 4"/>
    <g id="Group_32628" data-name="Group 32628" transform="translate(15466.707 13797.242)">
      <g id="Group_32617" data-name="Group 32617" transform="translate(-14966.489 -13671.795)">
        <g id="Group_32429" data-name="Group 32429" clip-path="url(#clip-path)">
          <rect id="Rectangle_13272" data-name="Rectangle 13272" width="64.793" height="74.8" transform="translate(-14.999 40.077) rotate(-69.481)" fill="#00ae8d"/>
        </g>
      </g>
      <g id="Group_32623" data-name="Group 32623" transform="translate(-14991.254 -13680.3)">
        <g id="Group_32431" data-name="Group 32431" clip-path="url(#clip-path-2)">
          <rect id="Rectangle_13273" data-name="Rectangle 13273" width="32.797" height="42.976" transform="translate(-6.812 18.202) rotate(-69.481)" fill="#00ae8d"/>
        </g>
      </g>
      <g id="Group_32624" data-name="Group 32624" transform="translate(-14994.16 -13680.3)">
        <g id="Group_32433" data-name="Group 32433" clip-path="url(#clip-path-3)">
          <rect id="Rectangle_13274" data-name="Rectangle 13274" width="57.688" height="55.647" transform="translate(-19.901 32.052) rotate(-58.262)" fill="#68d2c0"/>
        </g>
      </g>
      <g id="Group_32618" data-name="Group 32618" transform="translate(-14969.752 -13670.435)">
        <g id="Group_32435" data-name="Group 32435" clip-path="url(#clip-path-4)">
          <rect id="Rectangle_13275" data-name="Rectangle 13275" width="80.908" height="83.436" transform="translate(-24.964 40.36) rotate(-58.262)" fill="#68d2c0"/>
        </g>
      </g>
      <g id="Group_32626" data-name="Group 32626" transform="translate(-14923.993 -13735.749)">
        <g id="Group_32439" data-name="Group 32439" clip-path="url(#clip-path-5)">
          <rect id="Rectangle_13277" data-name="Rectangle 13277" width="44.86" height="37.319" transform="translate(-0.608 0.01) rotate(-0.952)" fill="#00ae8d"/>
        </g>
      </g>
      <g id="Group_32621" data-name="Group 32621" transform="translate(-14913.062 -13704.267)">
        <g id="Group_32441" data-name="Group 32441" clip-path="url(#clip-path-6)">
          <rect id="Rectangle_13278" data-name="Rectangle 13278" width="23.907" height="60.528" transform="translate(-1 0.017) rotate(-0.952)" fill="#00ae8d"/>
        </g>
      </g>
      <g id="Group_32627" data-name="Group 32627" transform="translate(-14927.085 -13735.807)">
        <g id="Group_32443" data-name="Group 32443" transform="translate(0 0)" clip-path="url(#clip-path-7)">
          <rect id="Rectangle_13279" data-name="Rectangle 13279" width="37.825" height="45.179" transform="matrix(0.026, -1, 1, 0.026, -1.059, 36.661)" fill="#68d2c0"/>
        </g>
      </g>
      <g id="Group_32622" data-name="Group 32622" transform="translate(-14917.227 -13702.062)">
        <g id="Group_32445" data-name="Group 32445" clip-path="url(#clip-path-8)">
          <rect id="Rectangle_13280" data-name="Rectangle 13280" width="60.81" height="24.838" transform="translate(-1.567 60.183) rotate(-88.508)" fill="#68d2c0"/>
        </g>
      </g>
      <g id="Group_32615" data-name="Group 32615" transform="translate(-14917.011 -13671.075)">
        <g id="Group_32449" data-name="Group 32449" clip-path="url(#clip-path-9)">
          <rect id="Rectangle_13282" data-name="Rectangle 13282" width="139.502" height="135.726" transform="translate(-57.965 66.396) rotate(-50.277)" fill="#00ae8d"/>
        </g>
      </g>
      <g id="Group_32616" data-name="Group 32616" transform="translate(-14921.808 -13673.153)">
        <g id="Group_32451" data-name="Group 32451" clip-path="url(#clip-path-10)">
          <rect id="Rectangle_13283" data-name="Rectangle 13283" width="139.677" height="139.484" transform="translate(-59.85 57.657) rotate(-45.251)" fill="#68d2c0"/>
        </g>
      </g>
      <g id="Group_32619" data-name="Group 32619" transform="translate(-14851.571 -13680.844)">
        <g id="Group_32453" data-name="Group 32453" clip-path="url(#clip-path-11)">
          <rect id="Rectangle_13284" data-name="Rectangle 13284" width="57.483" height="55.777" transform="translate(-21.676 28.388) rotate(-52.636)" fill="#00ae8d"/>
        </g>
      </g>
      <g id="Group_32620" data-name="Group 32620" transform="translate(-14854.933 -13683.019)">
        <g id="Group_32455" data-name="Group 32455" clip-path="url(#clip-path-12)">
          <rect id="Rectangle_13285" data-name="Rectangle 13285" width="58.436" height="58.399" transform="translate(-22.156 22.351) rotate(-45.251)" fill="#68d2c0"/>
        </g>
      </g>
      <g id="Group_32625" data-name="Group 32625" transform="translate(-15024.172 -13651.101)">
        <path id="Path_21648" data-name="Path 21648" d="M60.024,935.473H37.04a1.494,1.494,0,0,0,0,2.988H60.024a1.494,1.494,0,0,0,0-2.988" transform="translate(-30.907 -868.298)" fill="#a0795f" fill-rule="evenodd"/>
        <path id="Path_21649" data-name="Path 21649" d="M42.517,1140.351a6.05,6.05,0,0,1,4.286-1.781H58.473a6.08,6.08,0,0,1,6.067,6.067v1.223h.467v1.515H61.564v-1.515h.467v-1.223a3.571,3.571,0,0,0-3.558-3.558H46.8a3.571,3.571,0,0,0-3.558,3.558v1.223h.467v1.515H40.269v-1.515h.467v-1.223a6.053,6.053,0,0,1,1.781-4.286" transform="translate(-35.014 -1044.89)" fill="#d1a586" fill-rule="evenodd"/>
        <rect id="Rectangle_13270" data-name="Rectangle 13270" width="2.509" height="23.517" transform="translate(16.369 70.163)" fill="#d1a586"/>
        <path id="Path_21650" data-name="Path 21650" d="M260.189,898.279q-6.19-22.45-4.428-31.54a36.428,36.428,0,0,1-7.066.315c.36-1.619.722-3.242,1.09-4.885-.042-2.233-3.567-4.865-7.611-6.054,5.882.451,20.047-1.208,21.857,5.653.452,5.872-.768,12.559.271,36.556a19.032,19.032,0,0,1-4.112-.045" transform="translate(-210.568 -799.296)" fill="#3d3d3d" fill-rule="evenodd"/>
        <path id="Path_21651" data-name="Path 21651" d="M59.358,838.781c-4.841-1.738-5.5-6.56-3.369-13.845q2.624,2.146,13.267,1.8l-.166.631a.489.489,0,0,0-.014.086h-7.9c.023,1.205-.023,2.455,1.759,2.53,5.658-.846,26.274-3.773,26.622,5.077-2.56,11.44-4.838,21.931-7.941,36.428q-1.569.879-4.294-.136-2.184-21.087,1.2-30.671a118.134,118.134,0,0,1-19.159-1.9" transform="translate(-47.68 -772.186)" fill="#4d4d4d" fill-rule="evenodd"/>
        <path id="Path_21652" data-name="Path 21652" d="M59.357,838.781c-4.841-1.738-5.5-6.56-3.37-13.845a5.219,5.219,0,0,0,1.479.8c-1.764,7.486.154,11.589,5.842,11.982a110.014,110.014,0,0,0,16.507,1.42q-2.887,18.722-.99,32.647a9.343,9.343,0,0,1-1.507-.433q-2.183-21.087,1.2-30.671a118.14,118.14,0,0,1-19.159-1.9" transform="translate(-47.68 -772.186)" fill="#3d3d3d" fill-rule="evenodd"/>
        <path id="Path_21653" data-name="Path 21653" d="M116.486,447.755q-7.406,2.683-9.5.517-2.131-.495-2.777-3.778c-1.47-3.333-.212-8.658,1.854-6.022,1.71-4.373,8.569-1.837,12.438-4.264,2.348,1.534,1.455,5.327-.232,6.609.067,4.363-.173,6.692-1.78,6.936" transform="translate(-90.052 -432.451)" fill="#3d3d3d" fill-rule="evenodd"/>
        <path id="Path_21654" data-name="Path 21654" d="M101.983,459.179a1.113,1.113,0,0,0,.516-1.349,2.214,2.214,0,0,0-2.337-.044q.674.039,1.822,1.393" transform="translate(-87.09 -452.679)" fill="#3d3d3d" fill-rule="evenodd"/>
        <path id="Path_21655" data-name="Path 21655" d="M114.343,449.544q-.569.637-1.046.282a2.483,2.483,0,0,1,.346-2.111,3.184,3.184,0,0,0,.7,1.83" transform="translate(-98.432 -444.193)" fill="#3d3d3d" fill-rule="evenodd"/>
        <path id="Path_21656" data-name="Path 21656" d="M127.859,474.367a1.654,1.654,0,0,0-2.112.368c.038,1.394.761,4.2,1.872,4.813.193-.136.148-3.087.241-5.182" transform="translate(-109.337 -467.188)" fill="#3d3d3d" fill-rule="evenodd"/>
        <path id="Path_21657" data-name="Path 21657" d="M132.871,465.416q-2.359,1.145-1.557,2.064a13,13,0,0,0,6.817-.769,11.2,11.2,0,0,1-5.26-1.3" transform="translate(-114 -459.584)" fill="#284191" fill-rule="evenodd"/>
        <path id="Path_21658" data-name="Path 21658" d="M130.637,428.913c-1.781-1.8-5.139-2.015-9.769-.323-2.929-.727-3.587-2.08-2.35-4.282,1.748-3.111,5.531-.651,10.166-3.579-.177,2.275,6.721,4.223,1.953,8.185" transform="translate(-102.534 -420.729)" fill="#3d3d3d" fill-rule="evenodd"/>
        <path id="Path_21659" data-name="Path 21659" d="M125.481,495.038c1.228-.262,1.112,2.26,1.02,3.51-.183,2.459-2.954-3.1-1.02-3.51" transform="translate(-108.511 -485.325)" fill="#ffb27d" fill-rule="evenodd"/>
        <path id="Path_21661" data-name="Path 21661" d="M189.465,462.083a1.259,1.259,0,0,1,.583,1.524,2.5,2.5,0,0,1-2.642.051q.76-.044,2.058-1.575" transform="translate(-162.951 -456.687)" fill="#284191" fill-rule="evenodd"/>
        <path id="Path_21662" data-name="Path 21662" d="M120.8,476.757c.693.052,1.361-.81,1.553-1.068a9.417,9.417,0,0,0,1.4-2.78q-.215-.644-.451-1.628-4-2.853-1.094-4.222a5.44,5.44,0,0,1,1.455,2.125,1.194,1.194,0,0,0,1.052-.745,38.479,38.479,0,0,1-1.076-4.88c1.315-2.051,4.39-2.343,8.462-1.79q.283,1.706.464,3.614c.507.49,1.982,8.687-3.021,9.02-.023.408.013.878.02,1.164.006.259.015.766.273.845l.43.112c-.042,6.046-2.992,7.209-9.463.232" transform="translate(-105.039 -456.201)" fill="#ffb27d" fill-rule="evenodd"/>
        <path id="Path_21664" data-name="Path 21664" d="M167.279,555.7a6.584,6.584,0,0,0,2.675.589,9.1,9.1,0,0,0,.019,1.153,4.192,4.192,0,0,1-2.694-1.742" transform="translate(-145.449 -538.088)" fill="#f08261" fill-rule="evenodd"/>
        <path id="Path_21665" data-name="Path 21665" d="M30.6,574.572a28.922,28.922,0,0,0-5.988-1.232q-.481,7.689-7.645-.107c-4.6.4-5.5.467-8.051,1.336C3.394,580.105,2.885,586.5,0,593.8a18.851,18.851,0,0,1,6.8,1.367q.7-2.624,1.172-4.225-.133,14.441-.1,19.789c4.316,1.179,2.4,1.821,7.987.68,6.554-1.339,10.661-.17,13.387-1.417.049-8.558,1.573-15.13,1.659-20.121a23.776,23.776,0,0,0,3.517,3.637c2.591-3.117,4.347-4.374,5.816-6.212A80.763,80.763,0,0,0,30.6,574.572" transform="translate(0 -553.331)" fill="#ff8a54" fill-rule="evenodd"/>
        <path id="Path_21666" data-name="Path 21666" d="M291.785,622.808a71.4,71.4,0,0,0-11.662,6l-.987-1.534c-.918.965-1.967,1.912-3.245,3.287a17.751,17.751,0,0,0,3.929,3.269q5.787-.648,12.793-9.2a5.571,5.571,0,0,0,3.206-1.657,2.959,2.959,0,0,0-1.057-2.208q2.9-1.986,2.312-2.844-4.551,2.953-5.288,4.884" transform="translate(-239.886 -592.19)" fill="#ffb27d" fill-rule="evenodd"/>
        <path id="Path_21667" data-name="Path 21667" d="M57.31,673.737q-.849.132-1.605.238c-.026,4.246-.728,7.207-.716,9.321a12.72,12.72,0,0,0,2.444.793c0-.272-.085-.9-.087-1.172q-.052-4.871-.036-9.181m25.84-8.508a19.758,19.758,0,0,1-4.444-6.625,27.125,27.125,0,0,1,.19,4.273,23.135,23.135,0,0,0,3.339,3.418c.317-.381.621-.736.915-1.066m-25.4-8.281q-1.028,3.473-1.965,6.778-.026,2.792-.045,5.242c.453-.045.984-.075,1.613-.091q.1-6.777.4-11.93" transform="translate(-47.813 -626.121)" fill="#e98050" fill-rule="evenodd"/>
        <path id="Path_21668" data-name="Path 21668" d="M4.752,731.277a16.177,16.177,0,0,0-.3,6.7c1.256,1.914,6.323.845,19.371-1.445a3.474,3.474,0,0,0,2.9.7c1.365-.357,1.43-.732,2.961-2.246a2.744,2.744,0,0,0-.229-2.7c-1.723,1.064-2.63,1.631-4.571,1.7q.775-2.091.233-2.7a4.09,4.09,0,0,0-1.293,2.513c-10.287-.469-13-.407-14.368.348q.223-1.017.4-1.789a17.454,17.454,0,0,0-5.1-1.07" transform="translate(-3.681 -690.748)" fill="#ffb27d" fill-rule="evenodd"/>
        <path id="Path_21669" data-name="Path 21669" d="M183.448,450.133a1.773,1.773,0,0,1,.822,2.149,3.529,3.529,0,0,1-3.723.071q1.073-.063,2.9-2.22" transform="translate(-156.985 -446.296)" fill="#3d3d3d" fill-rule="evenodd"/>
        <path id="Path_21670" data-name="Path 21670" d="M137.614,461.048a1.774,1.774,0,0,0-2.279.31,3.529,3.529,0,0,0,1.725,3.3q-.46-.971.554-3.611" transform="translate(-117.673 -455.56)" fill="#3d3d3d" fill-rule="evenodd"/>
        <path id="Path_21671" data-name="Path 21671" d="M134.57,571.9c-.25,2.818-1.36,4.19-2.873,4.169-1.386-.019-3.546-1.585-5.942-4.286l.76-.274c2.244,2.53,4.031,3.773,5.191,3.789,1.035.015,2.021-1.177,2.228-3.518Z" transform="translate(-109.344 -551.835)" fill="#e98050" fill-rule="evenodd"/>
        <path id="Path_21674" data-name="Path 21674" d="M382.054,1193.473c-4.49-.073-7.847-.125-9.4-.615-1.673-.529-1.327-1.549-.366-3.181,4.232,1.946,3.1-.4,5.084-.1a12.555,12.555,0,0,0,6.179,2.252c1.154.851.685,1.609-1.5,1.647" transform="translate(-323.007 -1089.214)" fill="#3d3d3d" fill-rule="evenodd"/>
        <path id="Path_21675" data-name="Path 21675" d="M347.182,863.6h.18c3.382.029,6.864.852,7.973,4.676.452,5.872-.769,12.559.271,36.556a17.632,17.632,0,0,1-2.4.081c-2.133-8.341-7.2-28.8-1.49-37.621a22.347,22.347,0,0,0-4.534-3.692" transform="translate(-301.874 -805.808)" fill="#4d4d4d" fill-rule="evenodd"/>
        <path id="Path_21676" data-name="Path 21676" d="M383.705,1179.453a4.129,4.129,0,0,0,.587,1.273c-1.3.122-.8,1.79-4.3.26a5.5,5.5,0,0,0,.251-1.593,19.23,19.23,0,0,0,3.457.06" transform="translate(-330.406 -1080.385)" fill="#ffb27d" fill-rule="evenodd"/>
        <path id="Path_21677" data-name="Path 21677" d="M225.78,1199.086c-2.384-.983-2.741-2.584-4.052-3.2s-1.472-1.715-.181-2.908c.953.762,2.136,1.7,2.763,1.2.418-.332,1.837-.31,2.118.172,1.236,2.873,2.955,1.963,3.294,3.27.039,1.74-2.441,2.078-3.942,1.459" transform="translate(-191.86 -1092.201)" fill="#3d3d3d" fill-rule="evenodd"/>
        <path id="Path_21678" data-name="Path 21678" d="M232.743,1182.212a7.293,7.293,0,0,0,.314,2.3,2.091,2.091,0,0,0-1.377.191c-.581.459-1.639-.312-2.549-1.033a6.3,6.3,0,0,0,.3-1.593,5.142,5.142,0,0,0,3.314.135" transform="translate(-199.228 -1082.719)" fill="#ffb27d" fill-rule="evenodd"/>
        <path id="Path_21679" data-name="Path 21679" d="M197.624,719.8H172.151a1.273,1.273,0,0,0-1.152.912l-4.532,17.259a.682.682,0,0,0,.673.912h25.473a1.272,1.272,0,0,0,1.152-.912l4.532-17.259a.682.682,0,0,0-.673-.912" transform="translate(-144.715 -680.773)" fill="#68d2c0" fill-rule="evenodd"/>
        <path id="Path_21680" data-name="Path 21680" d="M163.86,729.254l3.076-11.717a1.273,1.273,0,0,1,1.152-.912h25.473c.5,0,1.4.647,1.247,1.145a.667.667,0,0,0-.7-.73H168.634a1.273,1.273,0,0,0-1.152.913l-4.532,17.259a.719.719,0,0,0,.181.735c-.419-.271-.82-.794-.726-1.15Z" transform="translate(-141.198 -678.009)" fill="#00ae8d" fill-rule="evenodd"/>
        <path id="Path_21681" data-name="Path 21681" d="M115.287,857.72H140.76a1.013,1.013,0,0,0,.28-.041c-.507,1.313-1.884,1.119-2.422,1.115h-30.2c-1.637-.069-1.594-1.217-1.616-2.323h7.256a1.489,1.489,0,0,0,.739,1.071.715.715,0,0,0,.492.177" transform="translate(-92.862 -799.607)" fill="#00ae8d" fill-rule="evenodd"/>
        <path id="Path_21682" data-name="Path 21682" d="M180.425,774.183a23.2,23.2,0,0,0,9.283,1.976,2.652,2.652,0,0,0-.085.366,2.181,2.181,0,0,0,2.191,2.592,2.884,2.884,0,0,0,2.77-2.386,2.459,2.459,0,0,0,.031-.423c3.448.093,6.78.281,9.535,1.36l-1.894,7.215H177.616Z" transform="translate(-154.437 -728.056)" fill="#00ae8d" fill-rule="evenodd"/>
        <path id="Path_21683" data-name="Path 21683" d="M277.733,780.252a2.013,2.013,0,0,0-1.915,1.653,1.376,1.376,0,0,0,1.392,1.653,2.012,2.012,0,0,0,1.915-1.653,1.376,1.376,0,0,0-1.392-1.653" transform="translate(-239.805 -733.334)" fill="#68d2c0" fill-rule="evenodd"/>
      </g>
    </g>
  </g>
</svg>
