<svg xmlns="http://www.w3.org/2000/svg" xmlns:xlink="http://www.w3.org/1999/xlink" width="803.943" height="253" viewBox="0 0 803.943 253">
  <defs>
    <clipPath id="clip-path">
      <path id="Path_21549" data-name="Path 21549" d="M99.8,5.989a5.8,5.8,0,0,0-5.785,5.785V183.6a5.775,5.775,0,0,0,5.775,5.775h82.372a5.792,5.792,0,0,0,5.775-5.775V11.765a5.776,5.776,0,0,0-5.775-5.776Z" transform="translate(-94.017 -5.989)" fill="#68d2c0"/>
    </clipPath>
    <clipPath id="clip-path-2">
      <path id="Path_21561" data-name="Path 21561" d="M27.062,171.206c-2.642,3.14-7.914,20.67-7.914,20.67l8.213,2.955,1.644-3.339s7.127,16.215-3.439,30.37C15.761,235,42.518,232.568,46.425,232.15c3.906.418,30.663,2.848,20.859-10.288-10.566-14.156-3.439-30.37-3.439-30.37l1.644,3.339,7.725-2.991S68.087,174,65.788,171.206c-2.558-3.106-15.119-3.6-15.119-3.6s-1.263,3.323-4.453,3.323-4.2-3.356-4.2-3.356-12.625.871-14.953,3.638" transform="translate(-19.148 -167.568)" fill="#ff8a54"/>
    </clipPath>
    <clipPath id="clip-path-3">
      <path id="Path_21574" data-name="Path 21574" d="M289.981,1.878l-39.9,14.069.006,1.066c.019,2.449.888,60.069,39.6,76.379l.31.208h.764l.275-.115c38.9-16.113,39.781-74.014,39.8-76.471l.01-1.068L290.467,1.717Z" transform="translate(-250.076 -1.717)" fill="#43b0ef"/>
    </clipPath>
    <clipPath id="clip-path-4">
      <rect id="Rectangle_13253" data-name="Rectangle 13253" width="38.756" height="88.714" fill="none"/>
    </clipPath>
  </defs>
  <g id="Group_32696" data-name="Group 32696" transform="translate(0.538)">
    <rect id="Rectangle_12169" data-name="Rectangle 12169" width="800" height="253" fill="#D8DDE3"/>
    <path id="Path_17974" data-name="Path 17974" d="M4835.669,3900.215s106.368,99.729,208.021,59.906c97.892-38.35,139.732-85.855,219.441-64.756s127.582,82.59,200.055,81.273c80.75-1.466,173.446-59.583,175.048-56.424" transform="translate(-4835.5 -3750.215)" fill="none" stroke="#707070" stroke-linecap="round" stroke-width="1" stroke-dasharray="2 4"/>
    <g id="Group_32613" data-name="Group 32613" transform="translate(-10379 5977.611)">
      <path id="Path_21548" data-name="Path 21548" d="M180.953,0H97.418A8.934,8.934,0,0,0,88.51,8.908V181.628a10.936,10.936,0,0,0,10.936,10.936h79.465a10.976,10.976,0,0,0,10.943-10.943V8.9a8.9,8.9,0,0,0-8.9-8.9" transform="translate(10781.093 -5917.175)" fill="#00ae8d"/>
      <g id="Group_32376" data-name="Group 32376" transform="translate(10873.311 -5913.142)" clip-path="url(#clip-path)">
        <rect id="Rectangle_13234" data-name="Rectangle 13234" width="93.922" height="183.383" transform="translate(0 0)" fill="#68d2c0"/>
      </g>
      <path id="Path_21550" data-name="Path 21550" d="M162.755,11.372h-9.839a.764.764,0,1,0,0,1.527h9.839a.764.764,0,0,0,0-1.527m4.165-.1a.865.865,0,1,0,.863.867.864.864,0,0,0-.863-.867" transform="translate(10760.308 -5920.855)" fill="#f9fbfc"/>
      <path id="Path_21554" data-name="Path 21554" d="M48.388,232.925s-22.138,1.344-22.678-.941,3.195-12.133,6.57-20.8.539-16.939-2.835-23.292-3.433-12.512.617-16.242,18.147-3.42,18.147-3.42,14.308-.807,18.358,2.925,3.78,10.385.4,16.737-6.209,14.62-2.834,23.292,7.109,18.519,6.57,20.8-22.679.941-22.679.941Z" transform="translate(10801.62 -5972.094)" fill="#f2bc97"/>
      <path id="Path_21555" data-name="Path 21555" d="M82.112,170.858a3.944,3.944,0,0,1,3.212,2.442c2.5,5.859,10.562,25.618,6.314,27.543-4.993,2.264-11.085-15.635-12.18-21.007-.914-4.477-.815-9.252,2.654-8.978" transform="translate(10784.209 -5972.974)" fill="#f2bc97"/>
      <path id="Path_21556" data-name="Path 21556" d="M93.788,203.391s1.445,3.987,1.2,5.632-6.18,16.6-6.18,16.6l-4.984-1.778s4.2-13.923,4.17-14.3-1.18-3.489-1.18-3.489Z" transform="translate(10782.624 -5983.603)" fill="#f2bc97"/>
      <path id="Path_21557" data-name="Path 21557" d="M19.769,203.391s-1.445,3.987-1.2,5.632,6.18,16.6,6.18,16.6l4.985-1.778s-4.2-13.923-4.17-14.3,1.18-3.489,1.18-3.489Z" transform="translate(10803.943 -5983.603)" fill="#f2bc97"/>
      <path id="Path_21558" data-name="Path 21558" d="M23.119,207.327a3.891,3.891,0,0,1,2.771,2.6c2.073,5.938,9.3,27.16,7.295,29-2.329,2.143-13.64-27.725-13.24-29.5a2.621,2.621,0,0,1,3.174-2.106" transform="translate(10803.489 -5984.866)" fill="#f2bc97"/>
      <path id="Path_21559" data-name="Path 21559" d="M43.935,152.126s8.024,3.708,19.978,0c0,0,3.044-10.665,1.162-17.97s-7.582-7.527-10.017-6.641c0,0-6.752-1.162-9.519,2.213-2.648,3.23-5.424,10.333-1.6,22.4" transform="translate(10796.263 -5958.703)" fill="#3d3d3d"/>
      <rect id="Rectangle_13248" data-name="Rectangle 13248" width="8.632" height="9.035" transform="translate(10845.768 -5809.137)" fill="#f2bc97"/>
      <path id="Path_21560" data-name="Path 21560" d="M63.524,143.246c0,6.051-3.547,10.957-7.921,10.957s-7.921-4.906-7.921-10.957,3.546-10.957,7.921-10.957,7.921,4.906,7.921,10.957" transform="translate(10794.427 -5960.381)" fill="#f2bc97"/>
      <g id="Group_32380" data-name="Group 32380" transform="translate(10822.895 -5804.334)" clip-path="url(#clip-path-2)">
        <rect id="Rectangle_13250" data-name="Rectangle 13250" width="61.328" height="67.43" transform="translate(-3.387 0)" fill="#ff8a54"/>
      </g>
      <path id="Path_21562" data-name="Path 21562" d="M30.844,247.257c-2.294,1.543.816,5.2,1.923,6.41,1.8,1.968,5.4,2.9,6.195,2.2s-3.578-4.938-3.532-5.25,2.372,1.545,3.048.809-2.084-3.589-3.622-4.292-2.574-.848-4.012.12" transform="translate(10800.196 -5997.705)" fill="#f2bc97"/>
      <path id="Path_21563" data-name="Path 21563" d="M89.273,207.327a3.891,3.891,0,0,0-2.771,2.6c-2.073,5.938-9.3,27.16-7.295,29,2.329,2.143,13.64-27.725,13.24-29.5a2.621,2.621,0,0,0-3.174-2.106" transform="translate(10784.244 -5984.866)" fill="#f2bc97"/>
      <path id="Path_21564" data-name="Path 21564" d="M71.58,236.361l.048.145A174.4,174.4,0,0,0,48.364,248.3a234.553,234.553,0,0,0-23.241-10.914l.048-1.022V220.374H71.58v15.987Z" transform="translate(10801.795 -5989.149)" fill="#f8fafb"/>
      <path id="Path_21565" data-name="Path 21565" d="M58.019,269.194S6.224,264.6.979,253.328c-3.865-8.31,4.327-14.948,13.768-11.67s43.4,19.931,43.4,19.931Z" transform="translate(10810 -5995.821)" fill="#3d3d3d"/>
      <path id="Path_21566" data-name="Path 21566" d="M91.077,273v6.714s8.86.588,9.432-.4,1.257-4.573-.991-6.288-7.735-1.8-8.44-.023" transform="translate(10780.254 -6005.912)" fill="#3d3d3d"/>
      <path id="Path_21567" data-name="Path 21567" d="M85.951,271.669l3.475,1.278v6.688l-3.606-.36Z" transform="translate(10781.972 -6005.902)" fill="#dec6a0"/>
      <path id="Path_21568" data-name="Path 21568" d="M31.286,269.194s51.795-4.589,57.04-15.866c3.865-8.31-4.327-14.948-13.768-11.67s-43.4,19.931-43.4,19.931Z" transform="translate(10799.825 -5995.821)" fill="#4d4d4d"/>
      <path id="Path_21569" data-name="Path 21569" d="M29.659,271.669l-3.475,1.278v6.688l3.606-.36Z" transform="translate(10801.448 -6005.902)" fill="#dec6a0"/>
      <path id="Path_21570" data-name="Path 21570" d="M21.433,273v6.714s-8.86.588-9.432-.4-1.257-4.573.991-6.288,7.735-1.8,8.44-.023" transform="translate(10806.265 -6005.912)" fill="#3d3d3d"/>
      <path id="Path_21571" data-name="Path 21571" d="M44.671,142.028s7.269.508,11.913-2.667c1.052-.719,1.956-3.095,1.956-3.095a4.974,4.974,0,0,0,1.079,2.574,11.041,11.041,0,0,1-.333-2.85s1.329,3.9,2.269,3.985,3.819,0,3.819,0l-3.989-8.925-12.714-1.333Z" transform="translate(10795.411 -5959.54)" fill="#3d3d3d"/>
      <g id="Group_32393" data-name="Group 32393" transform="translate(10925.351 -5889.14)">
        <g id="Group_32384" data-name="Group 32384" transform="translate(1.502 1.58)" clip-path="url(#clip-path-3)">
          <rect id="Rectangle_13252" data-name="Rectangle 13252" width="80.76" height="91.884" transform="translate(0 0)" fill="#43b0ef"/>
        </g>
        <path id="Path_21575" data-name="Path 21575" d="M290.953,3.823l38.876,13.7s-.45,59.183-38.876,75.1h-.013a.388.388,0,0,0-.106-.052c-38.32-15.973-38.757-75.05-38.757-75.05L290.834,3.861ZM290.978.66l-.973.326-.12.04-38.8,13.68-2.013.71.016,2.132A130.8,130.8,0,0,0,254.215,49.9c6.645,22.745,18.841,38.423,35.274,45.354l.552.365h1.494l.562-.227c16.578-6.868,28.879-22.582,35.574-45.443a130.9,130.9,0,0,0,5.148-32.4l.016-2.134-2.013-.71L291.947,1Z" transform="translate(-249.07 -0.66)" fill="#dae3ef"/>
        <g id="Group_32386" data-name="Group 32386" transform="translate(3.006 3.201)" clip-path="url(#clip-path-4)" style="mix-blend-mode: soft-light;isolation: isolate">
          <path id="Path_21577" data-name="Path 21577" d="M289.837,2.8V91.515c-38.32-15.971-38.756-75.048-38.756-75.048Z" transform="translate(-251.081 -2.801)" fill="#d1d3d4"/>
        </g>
        <path id="Path_21576" data-name="Path 21576" d="M281.084,47.712,266.792,35.838a2.709,2.709,0,0,1,3.462-4.169L280.8,40.43l18.889-18.364a2.71,2.71,0,0,1,3.779,3.886Z" transform="translate(-240.778 9.562)" fill="#fefefe"/>
      </g>
    </g>
  </g>
</svg>
