<svg xmlns="http://www.w3.org/2000/svg" xmlns:xlink="http://www.w3.org/1999/xlink" width="800.001" height="253.088" viewBox="0 0 800.001 253.088">
  <defs>
    <clipPath id="clip-path">
      <rect id="Rectangle_13334" data-name="Rectangle 13334" width="85.604" height="28.734" fill="#dbe8ff"/>
    </clipPath>
    <linearGradient id="linear-gradient" x1="0.489" y1="0.423" x2="0.5" y2="1" gradientUnits="objectBoundingBox">
      <stop offset="0" stop-color="#76e5d2"/>
      <stop offset="1" stop-color="#44b8a4"/>
    </linearGradient>
  </defs>
  <g id="Group_32677" data-name="Group 32677" transform="translate(0.001)">
    <rect id="Rectangle_12169" data-name="Rectangle 12169" width="800" height="253" fill="#D8DDE3"/>
    <g id="Group_32565" data-name="Group 32565" transform="translate(355.198 158.895)">
      <g id="Group_32564" data-name="Group 32564" transform="translate(0 0)" clip-path="url(#clip-path)">
        <path id="Path_22018" data-name="Path 22018" d="M85.6,16.575a3.413,3.413,0,0,1-.476,1.713c-1.182,2.066-4.447,3.552-8.293,3.552a14.21,14.21,0,0,1-2.414-.207,5.866,5.866,0,0,1-2.388.483,6.4,6.4,0,0,1-1.466-.168c-.025,1.922-2.631,3.478-5.842,3.478a8.8,8.8,0,0,1-3.232-.588c-1.007,2.245-4.406,3.9-8.46,3.9a11.367,11.367,0,0,1-7.1-2.182,11.366,11.366,0,0,1-7.1,2.182c-4.385,0-8.005-1.934-8.657-4.455a21.981,21.981,0,0,1-5.124.593c-4.894,0-9.187-1.533-11.634-3.842a13.237,13.237,0,0,1-4.652.808A11.532,11.532,0,0,1,1.82,19.786,4.153,4.153,0,0,1,0,16.575c0-2.907,3.925-5.265,8.769-5.265a13.232,13.232,0,0,1,4.689.822,15.722,15.722,0,0,1,8.477-3.591,6.964,6.964,0,0,1,3.17-2.375,13.131,13.131,0,0,1,4.96-.924c.025-2.9,3.942-5.24,8.77-5.24C43.679,0,47.6,2.36,47.6,5.267a3.682,3.682,0,0,1-.948,2.375c.33.119.648.248.948.389A12.808,12.808,0,0,1,53.033,6.9,12.314,12.314,0,0,1,59.15,8.392a4.448,4.448,0,0,1,3.7-1.52c2.192,0,3.967,1.065,3.967,2.38A1.759,1.759,0,0,1,66.22,10.5,11.694,11.694,0,0,1,72,12.185a13.171,13.171,0,0,1,4.832-.875c4.844,0,8.769,2.358,8.769,5.265" transform="translate(0 -0.001)" fill="#dbe8ff"/>
        <path id="Path_22019" data-name="Path 22019" d="M55.312,17.968a3.227,3.227,0,0,1,.1-.74,11.3,11.3,0,0,0-4.805,1.566,13.224,13.224,0,0,1,4.7-.826h0" transform="translate(-26.914 -11.901)" fill="#dbe8ff"/>
        <path id="Path_22020" data-name="Path 22020" d="M92.956,89.073c.319-.122.625-.256.914-.4-.057-.044-.116-.088-.171-.134a7.263,7.263,0,0,1-.743.535" transform="translate(-49.435 -61.159)" fill="#dbe8ff"/>
        <path id="Path_22021" data-name="Path 22021" d="M74.052.828c4.843,0,8.769,2.358,8.769,5.265a3.675,3.675,0,0,1-.949,2.375c.331.118.649.248.949.391A12.806,12.806,0,0,1,88.25,7.723a12.3,12.3,0,0,1,6.117,1.5,3.01,3.01,0,0,1,1.295-1.028A12.551,12.551,0,0,0,89.92,6.9,12.8,12.8,0,0,0,84.491,8.03c-.3-.143-.619-.272-.95-.391a3.672,3.672,0,0,0,.95-2.374C84.491,2.358,80.565,0,75.722,0a12.067,12.067,0,0,0-6.361,1.649A13.251,13.251,0,0,1,74.052.828" transform="translate(-36.887 0)" fill="#dbe8ff"/>
        <path id="Path_22022" data-name="Path 22022" d="M33.079,30.162a19.172,19.172,0,0,1,4.777-1.281,4.934,4.934,0,0,1,.513-.632,17.188,17.188,0,0,0-5.29,1.914" transform="translate(-17.592 -19.513)" fill="#dbe8ff"/>
        <path id="Path_22023" data-name="Path 22023" d="M125.388,83a5.387,5.387,0,0,1-2.1,2.248,7.765,7.765,0,0,0,3.02-1.95,7.7,7.7,0,0,1-.92-.3" transform="translate(-65.567 -57.332)" fill="#dbe8ff"/>
        <path id="Path_22024" data-name="Path 22024" d="M9.83,37.4a13.254,13.254,0,0,1,4.69.822,10.5,10.5,0,0,1,1.234-.982,13.456,13.456,0,0,0-4.254-.668,12.076,12.076,0,0,0-6.365,1.651A13.257,13.257,0,0,1,9.83,37.4" transform="translate(-2.731 -25.26)" fill="#dbe8ff"/>
        <path id="Path_22025" data-name="Path 22025" d="M144.53,26.654a13.192,13.192,0,0,0-4.833.874,11.7,11.7,0,0,0-5.782-1.681,1.752,1.752,0,0,0,.593-1.249c0-1.315-1.776-2.382-3.967-2.382a5.052,5.052,0,0,0-3.25,1.031,6.219,6.219,0,0,1,1.58-.2c2.191,0,3.967,1.067,3.967,2.382a1.75,1.75,0,0,1-.593,1.249,11.7,11.7,0,0,1,5.782,1.681,13.189,13.189,0,0,1,4.833-.874c4.843,0,8.77,2.357,8.77,5.265a4.47,4.47,0,0,1-2.4,3.615c2.447-.934,4.075-2.573,4.075-4.442,0-2.908-3.926-5.265-8.769-5.265" transform="translate(-67.695 -15.346)" fill="#dbe8ff"/>
        <path id="Path_22026" data-name="Path 22026" d="M145.624,73.642a2.859,2.859,0,0,1-1.352,2.215,4.652,4.652,0,0,0,2.766-2.047,6.317,6.317,0,0,1-1.413-.168" transform="translate(-76.726 -50.869)" fill="#dbe8ff"/>
        <path id="Path_22027" data-name="Path 22027" d="M87.2,58.735c-1.182,2.066-4.447,3.552-8.293,3.552a14.21,14.21,0,0,1-2.414-.207,5.868,5.868,0,0,1-2.388.483,6.38,6.38,0,0,1-1.466-.168c-.025,1.922-2.631,3.478-5.842,3.478a8.8,8.8,0,0,1-3.232-.588c-1.007,2.245-4.406,3.9-8.46,3.9A11.367,11.367,0,0,1,48,67a11.366,11.366,0,0,1-7.1,2.182c-4.385,0-8.005-1.934-8.657-4.454a21.981,21.981,0,0,1-5.124.593c-4.894,0-9.187-1.533-11.634-3.842a13.237,13.237,0,0,1-4.652.808,11.532,11.532,0,0,1-6.949-2.055A10.362,10.362,0,0,0,6.7,60.9a10.581,10.581,0,0,0,6.581-1.448,12.355,12.355,0,0,0,8.251,2.038c3.274,2.43,9.617,2.659,13.267.477a12.519,12.519,0,0,0,7.274,3.919c3.128.477,6.895-.543,7.855-2.568,3.424,1.4,8.519.452,10.343-1.914a10.153,10.153,0,0,0,6.636.866c2.246-.469,4.067-1.729,4.673-3.23a22.284,22.284,0,0,0,15.467-.488c.054.06.1.118.15.179" transform="translate(-2.068 -40.449)" fill="#d5dff0"/>
        <path id="Path_22028" data-name="Path 22028" d="M112.057,14.613c-.113.025-.229.045-.345.06a5.137,5.137,0,0,1-.615.042h0a3.228,3.228,0,0,1-.984-.137c-.491-.157-.873-.493-.847-.853.021-.305.279-.5.644-.614A3.934,3.934,0,0,1,111.339,13a3.754,3.754,0,0,1,.838.156c.565.188.97.656.7,1.035a1.373,1.373,0,0,1-.821.421" transform="translate(-58.106 -8.967)" fill="#dbe8ff"/>
        <path id="Path_22029" data-name="Path 22029" d="M114.417,14.655a.374.374,0,0,1,.031-.118,1.046,1.046,0,0,0-.216-1.077,1.88,1.88,0,0,0-.532-.418,3.754,3.754,0,0,1,.838.156c.565.188.97.656.7,1.035a1.373,1.373,0,0,1-.821.421" transform="translate(-60.466 -9.009)" fill="#dbe8ff"/>
        <path id="Path_22030" data-name="Path 22030" d="M111.093,15.006a3.228,3.228,0,0,1-.984-.138c-.491-.157-.873-.493-.847-.852.021-.305.279-.5.644-.614a.824.824,0,0,0-.126.618,1.555,1.555,0,0,0,1.313.986" transform="translate(-58.106 -9.258)" fill="#dbe8ff"/>
        <path id="Path_22031" data-name="Path 22031" d="M150.888,29.972c-.143.031-.288.057-.435.076a6.514,6.514,0,0,1-.775.053h-.006a4.071,4.071,0,0,1-1.241-.173c-.619-.2-1.1-.621-1.068-1.075.027-.385.352-.631.812-.774a4.964,4.964,0,0,1,1.807-.141,4.73,4.73,0,0,1,1.057.2c.712.237,1.224.827.884,1.306a1.73,1.73,0,0,1-1.036.532" transform="translate(-78.369 -19.282)" fill="#dbe8ff"/>
        <path id="Path_22032" data-name="Path 22032" d="M153.865,30.024a.464.464,0,0,1,.039-.149,1.32,1.32,0,0,0-.273-1.358,2.36,2.36,0,0,0-.671-.528,4.729,4.729,0,0,1,1.057.2c.712.237,1.224.827.884,1.306a1.73,1.73,0,0,1-1.036.532" transform="translate(-81.346 -19.335)" fill="#dbe8ff"/>
        <path id="Path_22033" data-name="Path 22033" d="M149.672,30.468a4.071,4.071,0,0,1-1.241-.173c-.62-.2-1.1-.621-1.068-1.075.027-.385.352-.631.812-.774a1.037,1.037,0,0,0-.159.779,1.961,1.961,0,0,0,1.656,1.244" transform="translate(-78.369 -19.649)" fill="#dbe8ff"/>
      </g>
    </g>
    <g id="Group_32563" data-name="Group 32563" transform="translate(71.962 74.722)">
      <path id="Path_21989" data-name="Path 21989" d="M117.489,22.369c0,1.239-2.921,2.244-6.519,2.244a15.915,15.915,0,0,1-3.9-.447,5.8,5.8,0,0,1-4.52-.023,2.863,2.863,0,0,1-.24.493A5.163,5.163,0,0,1,97.8,26.917a5.1,5.1,0,0,1-4.6-2.447,7.681,7.681,0,0,1-1.47.143,7.806,7.806,0,0,1-2.027-.267A9.416,9.416,0,0,1,81.648,28.3,10.251,10.251,0,0,1,75.23,26.17a6.606,6.606,0,0,1-5.492,2.589A7.064,7.064,0,0,1,65.19,27.2a12.115,12.115,0,0,1-9.266,3.912,12.765,12.765,0,0,1-7.782-2.5,10.558,10.558,0,0,1-5.584,1.534c-3.75,0-6.957-1.806-8.3-4.372a6.956,6.956,0,0,1-1.921-.8,6.678,6.678,0,0,1-5.358,2.41,6.3,6.3,0,0,1-5.851-3.253,7.515,7.515,0,0,1-2.7.488,6.879,6.879,0,0,1-4.994-1.977,5.357,5.357,0,0,1-3.276,1.055,5.635,5.635,0,0,1-2.354-.5c-.419.028-.848.041-1.29.041a15.712,15.712,0,0,1-4.082-.493C.949,22.323,0,21.692,0,20.987c0-1.152,2.534-2.1,5.792-2.225a4.753,4.753,0,0,1,4.372-2.4,5.478,5.478,0,0,1,2.963.834,6.684,6.684,0,0,1,5.206-2.341c0-.046-.009-.088-.009-.129,0-2.152,2.221-3.893,4.958-3.893a5.716,5.716,0,0,1,3.437,1.087,7.51,7.51,0,0,1,3.317-.756,7.378,7.378,0,0,1,3.654.935c1.8-2.912,5.6-4.925,10-4.925.134,0,.267,0,.4.009C45.014,3.105,49.553,0,55.022,0c5.552,0,10.15,3.2,10.97,7.381a11.541,11.541,0,0,1,6.856,3.654,11.142,11.142,0,0,1,3.3-.5,10.313,10.313,0,0,1,6.317,2.046,7.135,7.135,0,0,1,4.372-1.414c2.949,0,5.409,1.613,6.05,3.773a7.28,7.28,0,0,1,2.341.76,5.253,5.253,0,0,1,4.4-2.1c2.654,0,4.815,1.64,4.948,3.7.088,0,.17-.009.258-.009,2.248,0,4.124,1.249,4.566,2.907.5-.041,1.023-.065,1.567-.065,3.6,0,6.519,1,6.519,2.239" transform="translate(357 25)" fill="#dbe8ff"/>
      <path id="Path_21990" data-name="Path 21990" d="M109.951.925c5.552,0,10.152,3.2,10.972,7.378a11.552,11.552,0,0,1,6.855,3.657,11.107,11.107,0,0,1,3.3-.5,10.3,10.3,0,0,1,6.315,2.044,6.585,6.585,0,0,1,2.094-1.07,10.359,10.359,0,0,0-6.1-1.9,11.107,11.107,0,0,0-3.3.5,11.552,11.552,0,0,0-6.855-3.657C122.406,3.2,117.806,0,112.254,0a13.273,13.273,0,0,0-6.12,1.453,13.816,13.816,0,0,1,3.817-.531" transform="translate(299.767 24.998)" fill="#dbe8ff"/>
      <path id="Path_21991" data-name="Path 21991" d="M31.55,33.772a7.781,7.781,0,0,1,1.492-.166c0-.042-.008-.084-.008-.127a3.1,3.1,0,0,1,.03-.421,6.685,6.685,0,0,0-1.514.713" transform="translate(339.986 7.172)" fill="#dbe8ff"/>
      <path id="Path_21992" data-name="Path 21992" d="M1.33,42.191A15.75,15.75,0,0,1,4.2,41.83a3.443,3.443,0,0,1,.508-.76A7.963,7.963,0,0,0,1.33,42.191" transform="translate(356.283 2.852)" fill="#dbe8ff"/>
      <path id="Path_21993" data-name="Path 21993" d="M85.987,15.8A12.942,12.942,0,0,0,81.5,17.157a13.8,13.8,0,0,1,3.836-.536c.134,0,.267,0,.4.008a7.154,7.154,0,0,1,.246-.832" transform="translate(313.049 16.482)" fill="#dbe8ff"/>
      <path id="Path_21994" data-name="Path 21994" d="M181.591,25.159c2.948,0,5.411,1.613,6.05,3.774a7.189,7.189,0,0,1,2.341.762,4.351,4.351,0,0,1,1.42-1.309,7.412,7.412,0,0,0-1.457-.374c-.639-2.162-3.1-3.774-6.05-3.774a7.3,7.3,0,0,0-3.919,1.094,7.813,7.813,0,0,1,1.615-.172" transform="translate(259.946 11.929)" fill="#dbe8ff"/>
      <path id="Path_21995" data-name="Path 21995" d="M223.7,36.047c-.54,0-1.062.025-1.565.068-.443-1.661-2.319-2.909-4.566-2.909-.087,0-.171.007-.257.01-.132-2.058-2.293-3.7-4.947-3.7a5.731,5.731,0,0,0-3.317,1.013,6.23,6.23,0,0,1,1.014-.091c2.654,0,4.815,1.638,4.947,3.7.086,0,.17-.01.257-.01,2.247,0,4.123,1.248,4.566,2.909.5-.043,1.024-.068,1.565-.068,3.6,0,6.522,1,6.522,2.243a1.25,1.25,0,0,1-.618.948c1.76-.4,2.922-1.089,2.922-1.87,0-1.238-2.92-2.243-6.522-2.243" transform="translate(244.271 9.081)" fill="#dbe8ff"/>
      <path id="Path_21996" data-name="Path 21996" d="M16.027,36.441a5.474,5.474,0,0,1,2.963.834,5.559,5.559,0,0,1,1.518-1.329,5.678,5.678,0,0,0-2.178-.427,5.374,5.374,0,0,0-3.185.994,5.863,5.863,0,0,1,.881-.073" transform="translate(348.833 5.845)" fill="#dbe8ff"/>
      <path id="Path_21997" data-name="Path 21997" d="M24.106,51.172c-.015-.016-.033-.029-.048-.045-.031.024-.066.046-.1.07.05-.007.1-.016.147-.025" transform="translate(344.08 -2.57)" fill="#dbe8ff"/>
      <path id="Path_21998" data-name="Path 21998" d="M44.352,24.441a5.716,5.716,0,0,1,3.435,1.089,7.464,7.464,0,0,1,3.319-.758,7.365,7.365,0,0,1,3.654.939,8.659,8.659,0,0,1,1.132-1.449,7.6,7.6,0,0,0-2.482-.411,7.465,7.465,0,0,0-3.319.758,5.97,5.97,0,0,0-6.749-.087,6.305,6.305,0,0,1,1.01-.081" transform="translate(333.628 12.316)" fill="#dbe8ff"/>
      <path id="Path_21999" data-name="Path 21999" d="M105.165,47.506a5.163,5.163,0,0,1-4.511,2.281,5.1,5.1,0,0,1-4.6-2.447,7.682,7.682,0,0,1-1.47.143,7.806,7.806,0,0,1-2.027-.267A9.416,9.416,0,0,1,84.5,51.169a10.25,10.25,0,0,1-6.418-2.129,6.606,6.606,0,0,1-5.492,2.589,7.064,7.064,0,0,1-4.548-1.562,12.115,12.115,0,0,1-9.266,3.912A12.765,12.765,0,0,1,51,51.477a10.558,10.558,0,0,1-5.584,1.534c-3.75,0-6.957-1.806-8.3-4.372a6.956,6.956,0,0,1-1.921-.8,6.678,6.678,0,0,1-5.358,2.41,6.3,6.3,0,0,1-5.851-3.253,7.515,7.515,0,0,1-2.7.488,6.879,6.879,0,0,1-4.994-1.977,5.357,5.357,0,0,1-3.276,1.055,5.635,5.635,0,0,1-2.354-.5c-.419.028-.848.041-1.29.041a15.712,15.712,0,0,1-4.082-.493,8.24,8.24,0,0,0,7.376-3.2,9.994,9.994,0,0,0,11.058.521,9.244,9.244,0,0,0,11.468,1.226,15.206,15.206,0,0,0,9.4,2.428,15.663,15.663,0,0,0,19.181-.521,8.884,8.884,0,0,0,11.251-.548A6.607,6.607,0,0,0,84,45.23,8.983,8.983,0,0,0,94.2,44.119a5.806,5.806,0,0,0,7.971,1.069,5.815,5.815,0,0,0,2.99,2.318" transform="translate(354.148 2.13)" fill="#d5dff0"/>
      <path id="Path_22003" data-name="Path 22003" d="M10.45,55.9c0,.4-.4.76-1.032,1.009a6.065,6.065,0,0,1-2.193.373,1.041,1.041,0,0,1-.12,0C5.378,57.257,4,56.649,4,55.9a.723.723,0,0,1,.2-.479,2.643,2.643,0,0,1,1.3-.687,6.524,6.524,0,0,1,1.723-.217c1.783,0,3.225.617,3.225,1.382" transform="translate(354.843 -4.401)" fill="#dbe8ff"/>
      <path id="Path_22004" data-name="Path 22004" d="M12.208,55.9c0,.4-.4.76-1.032,1.009a3.369,3.369,0,0,0-1.184-1.461,3.438,3.438,0,0,0-2.723-.511l-.009-.2a6.524,6.524,0,0,1,1.723-.217c1.783,0,3.225.617,3.225,1.382" transform="translate(353.085 -4.401)" fill="#dbe8ff"/>
      <path id="Path_22005" data-name="Path 22005" d="M7.105,58.337C5.378,58.314,4,57.706,4,56.959a.723.723,0,0,1,.2-.479,1.143,1.143,0,0,0,.332.871,2.618,2.618,0,0,0,1.069.59,10.072,10.072,0,0,0,1.507.4" transform="translate(354.843 -5.457)" fill="#d5dff0"/>
      <path id="Path_22006" data-name="Path 22006" d="M28.372,26.632c0,.338-.453.64-1.179.85a9.182,9.182,0,0,1-2.506.314c-.047,0-.089,0-.137,0C22.574,27.773,21,27.26,21,26.632a.539.539,0,0,1,.226-.4,3.46,3.46,0,0,1,1.49-.578,10.009,10.009,0,0,1,1.969-.182c2.038,0,3.686.52,3.686,1.164" transform="translate(345.675 11.267)" fill="#dbe8ff"/>
      <path id="Path_22007" data-name="Path 22007" d="M30.381,26.632c0,.338-.453.64-1.179.85a3.217,3.217,0,0,0-1.353-1.23,5.11,5.11,0,0,0-3.112-.431l-.011-.171a10.009,10.009,0,0,1,1.969-.182c2.038,0,3.686.52,3.686,1.164" transform="translate(343.666 11.267)" fill="#dbe8ff"/>
      <path id="Path_22008" data-name="Path 22008" d="M24.549,28.682C22.574,28.662,21,28.15,21,27.522a.54.54,0,0,1,.226-.4.841.841,0,0,0,.379.734,3.412,3.412,0,0,0,1.222.5,14.934,14.934,0,0,0,1.722.334" transform="translate(345.675 10.377)" fill="#d5dff0"/>
      <path id="Path_22009" data-name="Path 22009" d="M86.08,11.4c0,.271-.363.513-.946.681a7.361,7.361,0,0,1-2.011.252c-.038,0-.071,0-.11,0-1.584-.016-2.846-.427-2.846-.931a.431.431,0,0,1,.182-.323,2.771,2.771,0,0,1,1.2-.464,8.032,8.032,0,0,1,1.579-.146c1.635,0,2.957.417,2.957.933" transform="translate(313.769 19.355)" fill="#dbe8ff"/>
      <path id="Path_22010" data-name="Path 22010" d="M87.691,11.4c0,.271-.363.513-.946.681A2.58,2.58,0,0,0,85.66,11.1a4.1,4.1,0,0,0-2.5-.346l-.008-.137a8.032,8.032,0,0,1,1.579-.146c1.635,0,2.957.417,2.957.933" transform="translate(312.158 19.355)" fill="#dbe8ff"/>
      <path id="Path_22011" data-name="Path 22011" d="M83.013,13.045c-1.584-.016-2.846-.426-2.846-.931a.431.431,0,0,1,.182-.323.675.675,0,0,0,.3.588,2.735,2.735,0,0,0,.98.4,11.925,11.925,0,0,0,1.381.268" transform="translate(313.769 18.641)" fill="#d5dff0"/>
      <path id="Path_22012" data-name="Path 22012" d="M216.878,19.831a1.5,1.5,0,0,1-.465.226,4.063,4.063,0,0,1-2.258-.235,2.112,2.112,0,0,1-2.811,1.055c-.534-.272-.986-.8-1.585-.8a3.432,3.432,0,0,0-1.276.484,2.381,2.381,0,0,1-3.2-2.912,2.034,2.034,0,0,1,.226-.525c.553-.917,1.677-1.129,2.6-1.52h0l.032-.014a3.865,3.865,0,0,1,3.221-.2,3.493,3.493,0,0,1,2,2.589,3.8,3.8,0,0,1,2.976-.456,1.62,1.62,0,0,1,1.115.792c.018.046.032.088.046.134a1.339,1.339,0,0,1-.622,1.387" transform="translate(246.355 16.848)" fill="#dbe8ff"/>
      <path id="Path_22013" data-name="Path 22013" d="M220.93,18.444h0a4.224,4.224,0,0,1-.779-.207,4.456,4.456,0,0,0-3.142.217.415.415,0,0,1-.318.055c-.134-.055-.161-.226-.184-.373a2.985,2.985,0,0,0-1.484-2.041,4.836,4.836,0,0,0-2.511-.576,7.474,7.474,0,0,0-.968.083l.032-.014a3.865,3.865,0,0,1,3.221-.2,3.493,3.493,0,0,1,2,2.589,3.8,3.8,0,0,1,2.976-.456,1.62,1.62,0,0,1,1.115.792c.018.046.032.088.046.134" transform="translate(242.925 16.848)" fill="#dbe8ff"/>
      <path id="Path_22014" data-name="Path 22014" d="M216.878,22.794a1.5,1.5,0,0,1-.465.226,4.063,4.063,0,0,1-2.258-.235,2.112,2.112,0,0,1-2.811,1.055c-.534-.272-.986-.8-1.585-.8a3.432,3.432,0,0,0-1.276.484,2.381,2.381,0,0,1-3.2-2.912.983.983,0,0,1,.447.286c.3.341.364.866.733,1.124a1.055,1.055,0,0,0,1.032,0,5.8,5.8,0,0,0,.875-.622,1.666,1.666,0,0,1,.981-.4,1.753,1.753,0,0,1,1.295.889,3.752,3.752,0,0,0,1.05,1.235,1.465,1.465,0,0,0,2.216-1.249,4.147,4.147,0,0,0,2.967.917" transform="translate(246.355 13.886)" fill="#d5dff0"/>
      <path id="Path_22015" data-name="Path 22015" d="M32.4,61.095c-.075.059-.153.111-.232.164a2.6,2.6,0,0,1-2.651-.006,2.14,2.14,0,0,1-3.5,1.046c-.5-.45-.8-1.15-1.431-1.384-.735-.278-1.546.206-2.328.13a1.629,1.629,0,0,1-1.27-.869,1.427,1.427,0,0,1-.083-.194,1.517,1.517,0,0,1,.481-1.638c1.084-.847,2.81.137,4.009-.452a1.325,1.325,0,0,0,.2-.114c.5-.342.891-1.015,1.493-.937s.962.869,1.544.767c.473-.08.687-.664,1.063-.918a2.052,2.052,0,0,1,1.4-.324,3.359,3.359,0,0,1,2.142,1.969,2.337,2.337,0,0,1,.115.712,2.572,2.572,0,0,1-.954,2.05" transform="translate(345.77 -5.381)" fill="#dbe8ff"/>
      <path id="Path_22016" data-name="Path 22016" d="M38.693,59.045a.8.8,0,0,0-.049-.115,3.063,3.063,0,0,0-1.238-1.255,1.911,1.911,0,0,0-1.253-.308,3.181,3.181,0,0,0-1.226.706,1.54,1.54,0,0,1-1.326.38c-.553-.184-.88-.9-1.465-.886-.393,0-.716.36-1.109.378a.662.662,0,0,1-.295-.054,1.365,1.365,0,0,0,.2-.114c.5-.342.891-1.015,1.492-.938s.963.869,1.544.767c.472-.08.687-.664,1.062-.918a2.051,2.051,0,0,1,1.4-.324,3.359,3.359,0,0,1,2.142,1.968,2.342,2.342,0,0,1,.115.712" transform="translate(340.428 -5.381)" fill="#dbe8ff"/>
      <path id="Path_22017" data-name="Path 22017" d="M32.348,65.468a2.6,2.6,0,0,1-2.651-.006,2.14,2.14,0,0,1-3.5,1.046c-.5-.45-.8-1.15-1.431-1.384-.735-.278-1.546.206-2.328.13a1.63,1.63,0,0,1-1.27-.869,2.557,2.557,0,0,0,.777.033c.61-.063,1.2-.267,1.812-.273A2.855,2.855,0,0,1,25.6,64.8c.348.293.621.668.976.953a1.364,1.364,0,0,0,1.267.33c.4-.144.641-.547.892-.9a1.261,1.261,0,0,1,1.028-.666,1.938,1.938,0,0,1,.835.438,2.452,2.452,0,0,0,1.2.4,1.191,1.191,0,0,1,.544.1" transform="translate(345.586 -9.592)" fill="#d5dff0"/>
    </g>
    <circle id="Ellipse_4" data-name="Ellipse 4" cx="50.5" cy="50.5" r="50.5" transform="translate(605 78)" fill="#fbea8a"/>
    <path id="Path_21984" data-name="Path 21984" d="M5637.974,3870.387v173.344h-800s22.266-52.708,75.144-58.825,90.292,46.051,149.252,39.729c41.6-4.46,69.728-45.21,109.524-60.131,38.863-14.57,39.363,30.542,94.661,33.146s69.546-58.414,97.464-25.127,65.921,38.006,95.942,25.127c51.781-28.62,78.37-85.782,124.257-114.752S5637.974,3870.387,5637.974,3870.387Z" transform="translate(-4837.975 -3790.643)" fill="url(#linear-gradient)"/>
    <g id="Group_32562" data-name="Group 32562" transform="translate(-4020.629 -5818.752) rotate(17)">
      <path id="Path_17914" data-name="Path 17914" d="M1209.22,5.388l.035-.035a.188.188,0,0,1,.112-.045l-1.421-.418c.02.154-.09.347-.337.585L1192.373,19.87a.381.381,0,0,1-.177.1l-.015.015.632,1.536c1.619-1.887,8.28-8.451,16.406-16.137" transform="translate(4910.159 4286.735)" fill="#d5dff0"/>
      <path id="Path_17915" data-name="Path 17915" d="M1213.107,19.208c1.249-1.236,2.478-2.487,3.672-3.77l-.756-.709a.181.181,0,0,1-.019.225l-.039.035c-8.239,7.791-15.253,14.153-17.114,15.549l.627,1.522c1.449-1.4,2.921-2.78,4.405-4.156Z" transform="translate(4904.239 4278)" fill="#d5dff0"/>
      <path id="Path_17916" data-name="Path 17916" d="M1203.011,1.131c.251-.238.362-.431.337-.585-.023-.182-.233-.306-.644-.365-9.292-1.393-17.566,5.471-15.327,15.227.043.183.12.253.225.225a.382.382,0,0,0,.177-.1Z" transform="translate(4914.752 4291.075)" fill="#43b0ef"/>
      <path id="Path_17917" data-name="Path 17917" d="M1211.976,9.561h0a.181.181,0,0,0,.019-.225c-.008-.012,0-.028-.016-.038l-.562-.6a.182.182,0,0,0-.15-.053.188.188,0,0,0-.112.045l-.035.035c-8.133,7.68-14.795,14.244-16.413,16.134-.273.318-.42.519-.389.553l.018.018c.031.03.2-.075.486-.288,1.861-1.4,8.874-7.758,17.114-15.549Z" transform="translate(4908.267 4283.399)" fill="#43b0ef"/>
      <path id="Path_17918" data-name="Path 17918" d="M1212.879,27.5c.011-.011.024-.02.036-.031,3.832-3.453,7.492-6.524,7.507-6.536q1.473-.435.793-1.932a.3.3,0,0,0-.064-.089.286.286,0,0,0-.4.008h0c-.048.053-.1.1-.148.156-1.194,1.283-2.423,2.535-3.672,3.77-3,2.965-6.128,5.824-9.225,8.7-1.482,1.376-2.957,2.757-4.406,4.156a.449.449,0,0,0-.075.562q.271.449.719.017a8.635,8.635,0,0,1,.964-.823,75.25,75.25,0,0,1,7.977-7.958" transform="translate(4900.42 4274.36)" fill="#43b0ef"/>
      <path id="Path_17919" data-name="Path 17919" d="M1180.137,71.4c-5.616-4.28-13.466-9.435-19.156-15.753a.66.66,0,0,1-.127-.758q.186-.449.521-.449a.7.7,0,0,1,.473.276,75.215,75.215,0,0,0,10.579,9.388c5.739,4.156,10.685,7.092,13.944,12.405,1.172-.013,2.359.006,3.541.037.593.016,1.187.035,1.782.054,1.189.038,2.379.075,3.564.092s2.367.01,3.538-.04a24.82,24.82,0,0,0,10.092-2.267,18.317,18.317,0,0,0,4.537-3.177c1.46-2.359-6.383-11.875-8.209-13.733a56.651,56.651,0,0,1-39.71-13.463.266.266,0,0,1-.062-.337l1.538-2.835c.056-.1.127-.112.211-.035,9.112,8.906,20.364,12.642,32.863,13.742q.771.071.166-.411-4.539-3.589-9.435-7.382a.161.161,0,0,0-.044-.017c-.075-.029-.1-.129-.074-.3-4.692-.245-9.584.7-13.053-3.3a11.972,11.972,0,0,1-2.37-12.161.3.3,0,0,0-.124-.372,13.769,13.769,0,0,0-5.26,2.378c-.128.1-.194.064-.2-.1q-.112-4.051-3.162-5.274c-4.8-1.916-6.686,5.79-7.261,9.311a4.067,4.067,0,0,1-.051,1.669l.172,3.664.337,10.61c0,.166-.07.225-.224.166a20.876,20.876,0,0,1-6.066-3.474,2.953,2.953,0,0,1-1.1,1.52c-1.592,6.191-4.577,12.374-7.147,18.141a10.6,10.6,0,0,1-1.581,2.518c-2.7,2.949-14.36,14.969-14.185,17.523a2.6,2.6,0,0,0,.663,1.6l5.005,5.515,1.31.883a1.244,1.244,0,0,0,1.279.061c11.289-6.08,19.9-18.135,26.581-28.868a.686.686,0,0,1,1.065-.254q4.444,2.724,9.142,6.045c4.635,3.272-1.091,7.044,1.284,10.2,3.321-2.73,5.822-5.861,9.505-7.71a24.582,24.582,0,0,0-5.093-5.331" transform="translate(4965.894 4266.837)" fill="#43b0ef"/>
      <path id="Path_17920" data-name="Path 17920" d="M1391.9,128.514a4.082,4.082,0,0,0,.4,2.921l-.172-3.664a5.029,5.029,0,0,1-.225.732Z" transform="translate(4732.963 4177.658)" fill="#1d3656"/>
      <path id="Path_17921" data-name="Path 17921" d="M1289.626,46.548c.236.3.476.576.724.839.183.2.375.374.561.554a4.933,4.933,0,0,1,.816-4.332,1.839,1.839,0,0,1,.968-1,5.109,5.109,0,0,1,7.918,2.014,1.63,1.63,0,0,0,.042-.43c-.056-1.218-3.083-5.322-3.994-6.636l-7.629,8.163c.194.29.392.569.6.826" transform="translate(4824.188 4257.734)" fill="#4d4d4d"/>
      <path id="Path_17922" data-name="Path 17922" d="M1532.082,55.681a11.975,11.975,0,0,0,2.37,12.161c3.47,4,8.362,3.058,13.053,3.3l1.376.172a57.655,57.655,0,0,1,7.342-.18c2.72.1,7.434,4.086,9.444,5.91a3.266,3.266,0,0,0,1.026.63.437.437,0,0,0,.3,0l2.68-.933,5.87-4.459a.4.4,0,0,1,.29-.079.785.785,0,0,1,.127.027,1.363,1.363,0,0,0-.171-1.258c-4.237-7.526-10.873-13.7-19.525-14.868a153.794,153.794,0,0,0-23.629-.88,3.606,3.606,0,0,0-.674.079.3.3,0,0,1,.118.376" transform="translate(4609.06 4242.127)" fill="#43b0ef"/>
      <path id="Path_17923" data-name="Path 17923" d="M1348.792,134.283v-.013a5.124,5.124,0,0,1-4.642,3.331c.9,3.007-.766,6.485-.766,6.485-.043.151-.093.284-.143.418a20.881,20.881,0,0,0,6.066,3.474c.157.055.233,0,.225-.166l-.337-10.61a4.061,4.061,0,0,1-.4-2.917" transform="translate(4776.068 4171.888)" fill="#ffb27d"/>
      <path id="Path_17924" data-name="Path 17924" d="M1475.367,152.978a.158.158,0,0,1,.044.017q4.9,3.794,9.436,7.382.6.482-.166.411c-12.5-1.1-23.754-4.836-32.863-13.742-.084-.079-.155-.066-.211.035l-1.541,2.835a.266.266,0,0,0,.062.337,56.66,56.66,0,0,0,39.71,13.466l1.384-.4a.417.417,0,0,0,.193-.121.412.412,0,0,0-.029-.582l0,0c-4.512-4.065-9.449-6.916-14.715-9.759l-1.376-.172c-.025.17,0,.27.075.3" transform="translate(4681.274 4160.593)" fill="#d5dff0"/>
      <path id="Path_17925" data-name="Path 17925" d="M1420.51,278.515a75.137,75.137,0,0,1-10.579-9.388.7.7,0,0,0-.473-.276q-.337,0-.521.449a.659.659,0,0,0,.127.758c5.691,6.317,13.54,11.473,19.156,15.753a24.573,24.573,0,0,1,5.1,5.331l1.135-.219c-3.26-5.319-8.206-8.25-13.944-12.408" transform="translate(4717.81 4052.425)" fill="#d5dff0"/>
      <path id="Path_17926" data-name="Path 17926" d="M1856.51,728.03a.771.771,0,0,0-.112.1.693.693,0,0,0-.1.186.525.525,0,0,0,.023.38.845.845,0,0,0,.112.192.269.269,0,0,0,.314.083l6.979-2.958-.267-.609q-3.281,1.219-6.515,2.359a1.283,1.283,0,0,0-.437.262" transform="translate(4320.661 3647.149)" fill="#ff613b"/>
      <path id="Path_17928" data-name="Path 17928" d="M1862.675,749.83v.012l.011.028a.528.528,0,0,0,.112.18.537.537,0,0,0,.583.121l6.366-2.533a.539.539,0,0,0,.3-.7l-.008-.02-.008-.02a.539.539,0,0,0-.7-.3l-6.366,2.533a.538.538,0,0,0-.337.489.567.567,0,0,0,.038.211Z" transform="translate(4315.02 3628.375)" fill="#ff613b"/>
      <path id="Path_17930" data-name="Path 17930" d="M1539.672,964.681a3.335,3.335,0,0,0,1.139-.392,7.958,7.958,0,0,0,3.461-3.37l-2.172-4.959-7.4,1.485-1.485.3,2.831,5.384a6.514,6.514,0,0,0,1.856,1.292,3.275,3.275,0,0,0,1.775.263" transform="translate(4607.436 3442.496)" fill="#4d4d4d"/>
      <path id="Path_17931" data-name="Path 17931" d="M1925.178,967.7a5.253,5.253,0,0,0,1.159.577,4.069,4.069,0,0,0,1.111.225,3.859,3.859,0,0,0,1.052-.09,5.391,5.391,0,0,0,2.339-1.269,10.56,10.56,0,0,0,1.838-2.172,5.615,5.615,0,0,1-.98-2.8l-7.975,2.523Z" transform="translate(4260.792 3436.984)" fill="#4d4d4d"/>
      <path id="Path_17956" data-name="Path 17956" d="M1466.072,997.341s-2.022-5.1-3.782-6.909a.66.66,0,0,0-.943-.3l-2.283,1.039a7.933,7.933,0,0,1-3.461,3.37,3.33,3.33,0,0,1-1.139.392,3.278,3.278,0,0,1-1.775-.266,6.463,6.463,0,0,1-1.856-1.292c-.947-.9-.981-.769-2.571.875a.865.865,0,0,0-.175.174c-.009.014-.016.028-.025.042a11.286,11.286,0,0,0-1.236,1.732l-8.687,9.574a5.9,5.9,0,0,0-.786.864.672.672,0,0,0-.127.442c.008.1.019.206.034.306-.1,1.394.044,4.23,3.041,4.006.311-.029,25.25-13.852,25.25-13.852Z" transform="translate(4692.639 3412.24)" fill="#ff8a54"/>
      <path id="Path_17957" data-name="Path 17957" d="M1833.412,982.285a3.867,3.867,0,0,1-1.053.09,4.065,4.065,0,0,1-1.111-.225,5.262,5.262,0,0,1-1.159-.577l-2.568-.991a.272.272,0,0,0-.08-.019.318.318,0,0,0-.352.279v0l-9.66,12.983c-.046.058-.089.112-.13.174,0,0-2.3,2.682,1.435,4.344l25.917-13.743.246-.13-3-4.352-1.175-2.142a.337.337,0,0,0-.408-.154l-2.72,1.011a10.562,10.562,0,0,1-1.838,2.172,5.377,5.377,0,0,1-2.344,1.277" transform="translate(4355.879 3423.104)" fill="#ff8a54"/>
      <path id="Path_17958" data-name="Path 17958" d="M1022.819,627.133c-3.246,5.514,6.546,7.473,6.546,7.473a4.484,4.484,0,0,0,3.174-.241L1025.545,624a7.537,7.537,0,0,0-2.726,3.133" transform="translate(5061.083 3737.168)" fill="#4d4d4d"/>
      <path id="Path_17959" data-name="Path 17959" d="M1082,591.73a26.926,26.926,0,0,0-6.6,2.088l6.507,10.559a25.331,25.331,0,0,0,5.233-6.982l-5.005-5.515Z" transform="translate(5013.822 3765.813)" fill="#4d4d4d"/>
      <path id="Path_17960" data-name="Path 17960" d="M883.808,356.981a4.33,4.33,0,1,0-3.3,2.484l14.887,22.068,6.992,10.364,33.9,50.262-31.8-51.6L897.988,380Z" transform="translate(5191.235 3979.635)" fill="#00ae8d"/>
      <path id="Path_17961" data-name="Path 17961" d="M1878.171,207.147l-5.87,4.459,3.553,8.332a.356.356,0,0,0,.364.233,3.375,3.375,0,0,1,1.375.243,4.4,4.4,0,0,0,.952.547l.019.008c1.573.653,4.592.844,5.794-6.432.016-.053.031-.107.044-.163a.633.633,0,0,0,.013-.2.1.1,0,0,0,0-.017h-.006a.618.618,0,0,0-.04-.166c-1.021-2.584-3.351-4.493-5.786-6.895a.787.787,0,0,0-.127-.027.4.4,0,0,0-.284.078" transform="translate(4306.436 4107.268)" fill="#4d4d4d"/>
      <path id="Path_17962" data-name="Path 17962" d="M1406.313,478.566l2.628-.692.042-.015a.264.264,0,0,0,.129-.349l-9.8-21.005a.262.262,0,0,1,.074-.315l18.526-15.012q.211-.172.311.083a141.158,141.158,0,0,0,7.127,16.19q5.835,10.615,13.865,24.733a.247.247,0,0,0,.314.124l1.757-.527,7.975-2.523,2.834-.846a.209.209,0,0,0,.177-.236.212.212,0,0,0-.023-.07c-3.037-8.552-12.6-28.484-12.95-30.1q-2.193-9.817-4.614-19.6c3.092-2.555,1.421-10.25,1.421-10.25a18.313,18.313,0,0,1-4.537,3.177,24.822,24.822,0,0,1-10.092,2.267c-1.172.051-2.352.056-3.538.04s-2.376-.054-3.564-.092c-.6-.019-1.189-.038-1.782-.054-1.186-.031-2.369-.051-3.541-.037l-1.136.219c-3.683,1.849-6.185,4.981-9.505,7.71q-8.053,7.731-12.5,11.836a18.486,18.486,0,0,0-5.142,7.876c-1.49,4.525.438,8.954,2.725,12.97q4.83,8.477,9.589,16.87a.479.479,0,0,0,.569.254l3.784-.846,1.485-.3Z" transform="translate(4743.223 3919.886)" fill="#ff8a54"/>
      <path id="Path_17963" data-name="Path 17963" d="M1264.513,123.181c.049-.134.1-.267.143-.418,0,0,1.659-3.482.766-6.485-.055,0-.106.017-.161.017a5.13,5.13,0,0,1-4.953-3.827c-.191-.18-.383-.358-.562-.554-.247-.263-.488-.541-.723-.839-.2-.256-.4-.536-.6-.826l-.829.887c-.064.1-.125.206-.188.308-.142.234-.283.466-.414.7-.083.144-.158.285-.237.429-.12.218-.241.437-.353.655-.077.149-.144.3-.216.449-.1.208-.2.417-.293.625-.069.16-.129.322-.193.483-.081.2-.164.4-.236.6-.062.173-.112.352-.168.527-.062.2-.127.389-.181.589s-.1.4-.143.607-.091.367-.127.562c-.046.24-.079.494-.112.745-.024.163-.054.32-.073.488-.05.426-.087.864-.112,1.321a4.236,4.236,0,0,1,1.959.832c.583.358,1.259,1.795,2.155,2.321s.781-.446,1.175-.226c1.176.664,2.5,2.252,3.575,1.559a3.014,3.014,0,0,0,1.1-1.527" transform="translate(4854.795 4193.21)" fill="#ffb27d"/>
      <path id="Path_17964" data-name="Path 17964" d="M1309.254,72.49a5.2,5.2,0,0,0-5.143,5.143,5.233,5.233,0,0,0,5.143,5.143c.055,0,.106-.015.161-.017a4.929,4.929,0,0,0,4.917-5.732,5.027,5.027,0,0,0-5.082-4.537Zm0,8.442a3.3,3.3,0,1,1,3.3-3.3h0a3.3,3.3,0,0,1-3.3,3.3Z" transform="translate(4810.802 4226.729)" fill="#43b0ef"/>
      <path id="Path_17965" data-name="Path 17965" d="M1323.821,88.92a3.3,3.3,0,1,0,3.3,3.3v0a3.3,3.3,0,0,0-3.3-3.3" transform="translate(4796.236 4212.144)" fill="#4d4d4d"/>
      <path id="Path_17966" data-name="Path 17966" d="M1222.951,53.847c.036-.25.068-.5.112-.745.036-.191.084-.372.127-.562s.089-.409.143-.607.119-.393.181-.589c.056-.175.107-.354.168-.527.072-.2.155-.4.236-.6.064-.161.125-.324.193-.483.092-.208.193-.417.293-.625.072-.149.139-.3.216-.449.112-.218.233-.437.353-.655.078-.144.154-.285.237-.429.132-.225.273-.462.415-.7.061-.1.112-.2.177-.3l.01-.012.829-.887,7.626-8.163c-.015.012-3.675,3.083-7.507,6.536l-.034.03a73.393,73.393,0,0,0-7.975,7.962c.245,1.533,1.178,4,2.777,4.622a.424.424,0,0,0,.394-.044,2.343,2.343,0,0,0,.85-.977c.021-.457.058-.9.112-1.321.012-.162.043-.319.066-.482" transform="translate(4886.575 4257.771)" fill="#43b0ef"/>
      <path id="Path_21986" data-name="Path 21986" d="M6161.2,4360.856l16.687-12.556-14.212,18.56Z" fill="#f37f49"/>
      <path id="Path_21987" data-name="Path 21987" d="M6149.32,4312.935l15.722,7.172-8.573-6.852s-1.285-.025-3.062-.083S6149.32,4312.935,6149.32,4312.935Z" fill="#2f96d1"/>
    </g>
    <path id="Path_21988" data-name="Path 21988" d="M-15255.442-19142.234a3.966,3.966,0,0,1,2.41,1.3,4.256,4.256,0,0,1,.153,2.8s2.9,5.232,1.616,6.363-5.915-4.428-5.915-4.428Z" transform="translate(15780 19275)" fill="#4d4d4d"/>
  </g>
</svg>
