<svg xmlns="http://www.w3.org/2000/svg" xmlns:xlink="http://www.w3.org/1999/xlink" width="35" height="35" viewBox="0 0 35 35">
  <defs>
    <clipPath id="clip-path">
      <rect id="Rectangle_13487" data-name="Rectangle 13487" width="35" height="35" transform="translate(0 0)" fill="#00ae8d"/>
    </clipPath>
  </defs>
  <g id="Group_32008" data-name="Group 32008" transform="translate(0 0)">
    <g id="Group_32007" data-name="Group 32007" transform="translate(0 0)" clip-path="url(#clip-path)">
      <path id="Path_18257" data-name="Path 18257" d="M31.788.576A.8.8,0,0,0,30.667.083,33.457,33.457,0,0,1,17.5,3.181,33.559,33.559,0,0,1,4.332.083a.8.8,0,0,0-1.12.493A70.97,70.97,0,0,0,0,19.886c0,10.088,16.643,14.964,17.351,15.1A.928.928,0,0,0,17.5,35a.913.913,0,0,0,.15-.013C18.357,34.85,35,29.974,35,19.886A71.027,71.027,0,0,0,31.788.576M17.5,33.393C15.873,33.05,1.591,28.214,1.591,19.886c0-7.774,2.172-15.153,2.91-17.974a34.437,34.437,0,0,0,13,2.86,34.454,34.454,0,0,0,13-2.86c.737,2.82,2.909,10.195,2.909,17.974,0,8.319-14.284,13.165-15.91,13.507m2.687-19.1-2.71-7.182-2.713,7.182H7.533l5.875,4.57L10.7,26.995l6.78-4.971,6.78,4.971L21.543,18.86l5.875-4.57Zm-.152,5.073,1.131,3.393-2.75-2.015-.94-.689-.94.689-2.751,2.015,1.131-3.393.356-1.068-.889-.691L12.17,15.881h3.693l.389-1.028,1.224-3.24,1.224,3.24.387,1.028H22.78L20.566,17.6l-.889.691Z" transform="translate(0 0)" fill="#00ae8d" fill-rule="evenodd"/>
    </g>
  </g>
</svg>
