<svg xmlns="http://www.w3.org/2000/svg" xmlns:xlink="http://www.w3.org/1999/xlink" width="35" height="35" viewBox="0 0 35 35">
  <defs>
    <clipPath id="clip-path">
      <rect id="Rectangle_13492" data-name="Rectangle 13492" width="35" height="35" transform="translate(0 0)" fill="#00ae8d"/>
    </clipPath>
  </defs>
  <g id="Group_32018" data-name="Group 32018" transform="translate(0 -0.001)">
    <g id="Group_32017" data-name="Group 32017" transform="translate(0 0)" clip-path="url(#clip-path)">
      <path id="Path_18262" data-name="Path 18262" d="M28.712,28.712a12.666,12.666,0,0,1-4.922,3.555c-.82.273-1.914.547-2.735.82A23.275,23.275,0,0,0,25.7,26.25h5.2a9.419,9.419,0,0,1-2.187,2.461m-15.586.82a2.072,2.072,0,0,1-1.094-.546l-1.094-.273-.547.547L8.477,31.172,3.829,26.524,5.742,24.61l.547-.547-.273-1.093a2.073,2.073,0,0,1-.547-1.094l-.547-1.094H1.367V14.219H4.922l.547-1.094a2.074,2.074,0,0,1,.547-1.093l.273-1.094-.547-.547L3.829,8.476,8.477,3.828l1.914,1.914.547.547,1.094-.273a2.073,2.073,0,0,1,1.094-.547l1.094-.547V1.367H16.68v8.75A7.631,7.631,0,0,0,10.117,17.5a7.631,7.631,0,0,0,6.563,7.383v8.751H14.22V30.078ZM28.712,6.289A9.416,9.416,0,0,1,30.9,8.75H25.7a23.272,23.272,0,0,0-4.648-6.836c.82.273,1.914.546,2.735.82a12.661,12.661,0,0,1,4.922,3.555M33.634,16.68H27.344a27.448,27.448,0,0,0-1.094-6.563h5.469c.273.547.547.82.547,1.094a20.05,20.05,0,0,1,1.367,5.469m-15.313,8.2V18.321h7.656a28.1,28.1,0,0,1-1.367,6.562Zm-1.641-1.64A5.4,5.4,0,0,1,13.4,21.6a5.565,5.565,0,0,1-1.641-4.1A5.566,5.566,0,0,1,13.4,13.4a5.4,5.4,0,0,1,3.281-1.64Zm7.93-13.126a28.107,28.107,0,0,1,1.367,6.563H18.321V10.117Zm-6.016-8.75c.273.547.82.82,1.094,1.093A23.752,23.752,0,0,1,24.063,8.75H18.321V1.367Zm0,32.266h-.273V26.25h5.742a23.741,23.741,0,0,1-4.375,6.289c-.273.273-.82.547-1.094,1.094m13.125-8.751H26.25a27.442,27.442,0,0,0,1.094-6.562h6.289a20.051,20.051,0,0,1-1.367,5.468c0,.273-.273.547-.547,1.094M17.5,0H12.852V4.1a3.887,3.887,0,0,0-1.641.547L8.477,1.641,1.641,8.476l3.008,2.735A3.887,3.887,0,0,0,4.1,12.852H0v9.3H4.1a3.881,3.881,0,0,0,.547,1.64L1.641,26.524,8.477,33.36l2.734-3.008a3.887,3.887,0,0,0,1.641.547V35H17.5A17.623,17.623,0,0,0,35,17.5,17.623,17.623,0,0,0,17.5,0" transform="translate(0 0)" fill="#00ae8d" fill-rule="evenodd"/>
    </g>
  </g>
</svg>
