<svg xmlns="http://www.w3.org/2000/svg" width="36.46" height="36.592" viewBox="0 0 36.46 36.592">
  <g id="Group" transform="translate(0.6 0.602)">
    <path id="Path_18120" data-name="Path 18120" d="M44.14,21.936h3.32l-2.653,6.058" transform="translate(-18.024 -9.262)" fill="none" stroke="#00ae8d" stroke-linecap="round" stroke-linejoin="round" stroke-width="1.2"/>
    <path id="Path_18121" data-name="Path 18121" d="M31.393,26.206H27.6s2.007-3.651,2.338-4.058.652-.155.682.209-.015,5.638-.015,5.638" transform="translate(-11.498 -9.262)" fill="none" stroke="#00ae8d" stroke-linecap="round" stroke-linejoin="round" stroke-width="1.2"/>
    <path id="Path_18122" data-name="Path 18122" d="M23.822,28s-2.936.037-3.075-.01.223-.292,2.148-3.053a3.905,3.905,0,0,0,.642-1.315l.03-.234a1.544,1.544,0,0,0-3.06-.3" transform="translate(-8.698 -9.224)" fill="none" stroke="#00ae8d" stroke-linecap="round" stroke-linejoin="round" stroke-width="1.2"/>
    <path id="Path_18123" data-name="Path 18123" d="M39.147,21.936l-2.424,6.117" transform="translate(-15.097 -9.262)" fill="none" stroke="#00ae8d" stroke-linecap="round" stroke-linejoin="round" stroke-width="1.2"/>
    <path id="Path_18124" data-name="Path 18124" d="M2.2,26.361a11.6,11.6,0,0,1-1.162-5.656A1.985,1.985,0,0,1,1.612,19.5l2.673-2.683a1.769,1.769,0,0,1,2.677.2l3.02,4.029a1.071,1.071,0,0,1-.11,1.41l-1.956,1.9a.714.714,0,0,0-.109.888h0A32.208,32.208,0,0,0,18.125,35.593a.708.708,0,0,0,.885-.109L20.9,33.52a1.061,1.061,0,0,1,1.4-.111l4.014,3.031a1.784,1.784,0,0,1,.195,2.687L23.842,41.81a2.017,2.017,0,0,1-1.252.585c-6.442.569-14.285-7.3-14.285-7.3a36.2,36.2,0,0,1-4.993-6.555" transform="translate(-1 -7.035)" fill="none" stroke="#00ae8d" stroke-linecap="round" stroke-linejoin="round" stroke-width="1.2"/>
    <path id="Path_18125" data-name="Path 18125" d="M18.788,8.34A13.29,13.29,0,0,1,37.012,27.675a13.2,13.2,0,0,1-4.942,3.136" transform="translate(-8.019 -2.559)" fill="none" stroke="#00ae8d" stroke-linecap="round" stroke-linejoin="round" stroke-width="1.2"/>
    <path id="Path_18126" data-name="Path 18126" d="M12.719,17.171A13.235,13.235,0,0,1,14.8,13.356" transform="translate(-5.624 -5.877)" fill="none" stroke="#00ae8d" stroke-linecap="round" stroke-linejoin="round" stroke-width="1.2"/>
    <path id="Path_18127" data-name="Path 18127" d="M49.343,9.856a15.73,15.73,0,0,1-5.376,24.676" transform="translate(-17.956 -4.495)" fill="none" stroke="#00ae8d" stroke-linecap="round" stroke-linejoin="round" stroke-width="1.2"/>
    <path id="Path_18128" data-name="Path 18128" d="M9.825,10.258A15.641,15.641,0,0,1,34.187,4.7" transform="translate(-4.482 -1.001)" fill="none" stroke="#00ae8d" stroke-linecap="round" stroke-linejoin="round" stroke-width="1.2"/>
  </g>
</svg>
