<svg xmlns="http://www.w3.org/2000/svg" width="803.943" height="253.001" viewBox="0 0 803.943 253.001">
  <g id="Group_32694" data-name="Group 32694" transform="translate(0.538)">
    <rect id="Rectangle_12169" data-name="Rectangle 12169" width="800" height="253" fill="#D8DDE3"/>
    <path id="Path_17974" data-name="Path 17974" d="M4835.669,3900.215s106.368,99.729,208.021,59.906c97.892-38.35,139.732-85.855,219.441-64.756s127.582,82.59,200.055,81.273c80.75-1.466,173.446-59.583,175.048-56.424" transform="translate(-4835.5 -3750.215)" fill="none" stroke="#707070" stroke-linecap="round" stroke-width="1" stroke-dasharray="2 4"/>
    <g id="Group_32424" data-name="Group 32424" transform="translate(-11502.238 6575.165)">
      <path id="Path_21603" data-name="Path 21603" d="M202.095,18.75a10.566,10.566,0,0,0-.531,2.433c-.056.46-.108,1.1-.168,1.858-.249,3.134-.661,8.309-2.2,9.672-.561.5-1.451.257-2.842-1.309a36.643,36.643,0,0,1-4.224-6.67,60.547,60.547,0,0,0-3.554-5.985h-1.534V17.236h17.527V18.75Z" transform="translate(11753.91 -6529.293)" fill="#d5dff0" fill-rule="evenodd"/>
      <path id="Path_21604" data-name="Path 21604" d="M359.66,159.666H472.383V15.842a9.847,9.847,0,0,0-9.819-9.819H352.178V7.069a12.508,12.508,0,0,1,7.482,11.419Z" transform="translate(11614.383 -6519.818)" fill="#d5dff0" fill-rule="evenodd"/>
      <path id="Path_21605" data-name="Path 21605" d="M342.07,155.326H455.464V10.831A10.522,10.522,0,0,0,444.974.341H334.588L331.36.093l2.557.919v1.48a11.977,11.977,0,0,1,5.563,4.552,11.717,11.717,0,0,1,1.92,6.432V155.326Zm112.052-1.343H342.741V13.477A13.063,13.063,0,0,0,340.6,6.313a13.286,13.286,0,0,0-5.232-4.629H444.974a9.175,9.175,0,0,1,9.148,9.148Z" transform="translate(11631.973 -6514.808)" fill="#43b0ef" fill-rule="evenodd"/>
      <path id="Path_21606" data-name="Path 21606" d="M207.612,2.293a.761.761,0,0,0,.882-1.24A6.808,6.808,0,0,0,204.571,0a7.892,7.892,0,0,0-4.1,1.1,6.442,6.442,0,0,0-2.338,2.424,8.816,8.816,0,0,0-.828,3.1c-.056.46-.108,1.1-.168,1.858-.249,3.134-.661,8.309-2.2,9.672-.561.5-1.451.257-2.842-1.309a36.643,36.643,0,0,1-4.224-6.67A48.482,48.482,0,0,0,183.36,2.9a.761.761,0,1,0-1.186.954,47.329,47.329,0,0,1,4.366,7.04,37.694,37.694,0,0,0,4.421,6.956c2.13,2.4,3.749,2.54,4.993,1.433,1.992-1.77,2.435-7.327,2.7-10.691.057-.729.108-1.35.162-1.792a7.5,7.5,0,0,1,.661-2.583,5.017,5.017,0,0,1,1.825-1.851,6.325,6.325,0,0,1,3.278-.852,5.294,5.294,0,0,1,3.028.775" transform="translate(11758.168 -6514.728)" fill="#43b0ef" fill-rule="evenodd"/>
      <path id="Path_21607" data-name="Path 21607" d="M272.344,16.877c.057-.729.108-1.35.162-1.792a7.506,7.506,0,0,1,.661-2.583,3.914,3.914,0,0,1,.414-.631,5.946,5.946,0,0,1,1.411-1.22A6.325,6.325,0,0,1,278.27,9.8a5.294,5.294,0,0,1,3.028.775.635.635,0,0,0,.109.065l.08.045.323.187a11.911,11.911,0,0,1,5.159,4.374,11.721,11.721,0,0,1,1.919,6.433v5.669q-8.545.136-19.674.54a3.113,3.113,0,0,0,.427-.32c1.992-1.77,2.435-7.327,2.7-10.691" transform="translate(11684.482 -6523.009)" fill="#dfedfa" fill-rule="evenodd"/>
      <path id="Path_21610" data-name="Path 21610" d="M497.887,300.807h58.768c.574,0,1.043,1.111,1.043,2.46v.006c0,1.349-.469,2.46-1.043,2.46H497.887c-.573,0-1.043-1.11-1.043-2.46v-.006c0-1.355.469-2.46,1.043-2.46" transform="translate(11492.146 -6768.896)" fill="#43b0ef" fill-rule="evenodd"/>
      <path id="Path_21611" data-name="Path 21611" d="M497.883,448.886h40.953c.574,0,1.043,1.122,1.043,2.466v.006c0,1.337-.471,2.459-1.043,2.459H497.883c-.572,0-1.043-1.111-1.043-2.459v-.006c0-1.355.469-2.466,1.043-2.466" transform="translate(11492.15 -6894.015)" fill="#43b0ef" fill-rule="evenodd"/>
      <path id="Path_21612" data-name="Path 21612" d="M497.883,597.006h25.569c.574,0,1.043,1.117,1.043,2.46v.011c0,1.349-.471,2.46-1.043,2.46H497.883c-.573,0-1.043-1.111-1.043-2.46v-.011c0-1.349.469-2.46,1.043-2.46" transform="translate(11492.15 -7019.169)" fill="#43b0ef" fill-rule="evenodd"/>
      <path id="Path_21613" data-name="Path 21613" d="M699.605,597.006h27.526c.573,0,1.043,1.122,1.043,2.46v.011c0,1.337-.471,2.46-1.043,2.46H699.605c-.572,0-1.043-1.111-1.043-2.46v-.011c0-1.349.469-2.46,1.043-2.46" transform="translate(11321.705 -7019.169)" fill="#43b0ef" fill-rule="evenodd"/>
      <path id="Path_21614" data-name="Path 21614" d="M800.976,448.886h11.872c.573,0,1.043,1.122,1.043,2.466v.006c0,1.337-.472,2.459-1.043,2.459H800.976c-.57,0-1.043-1.111-1.043-2.459v-.006c0-1.355.47-2.466,1.043-2.466" transform="translate(11236.052 -6894.015)" fill="#43b0ef" fill-rule="evenodd"/>
      <path id="Path_21615" data-name="Path 21615" d="M497.846,735.807h83.731c.553,0,1.005.891,1.005,1.949s-.454,1.94-1.005,1.94H497.846c-.55,0-1-.873-1-1.94s.452-1.949,1-1.949" transform="translate(11492.149 -7136.449)" fill="#43b0ef" fill-rule="evenodd"/>
      <path id="Path_21616" data-name="Path 21616" d="M497.85,852.739h39.469c.553,0,1,.882,1,1.94s-.454,1.945-1,1.945H497.85c-.551,0-1.005-.873-1.005-1.945s.452-1.94,1.005-1.94" transform="translate(11492.146 -7235.251)" fill="#43b0ef" fill-rule="evenodd"/>
      <path id="Path_21619" data-name="Path 21619" d="M781.589,852.739h39.736c.554,0,1.006.891,1.006,1.94s-.458,1.945-1.006,1.945H781.589c-.548,0-1.005-.877-1.005-1.945s.453-1.94,1.005-1.94" transform="translate(11252.401 -7235.251)" fill="#43b0ef" fill-rule="evenodd"/>
      <path id="Path_21620" data-name="Path 21620" d="M1275.887,355.943a6.789,6.789,0,0,1-1.079-2.12q.232-.706.478-1.787,4.515-3.21,1.154-4.631a5.939,5.939,0,0,0-1.615,2.353c-.53-.01-.031-1.392-.315-1.906.584-2.2.048-2.862.21-4.229-1.554-2.2-5.321-2.8-9.969-2.093-.4,4.285-1.718,14.391,3.463,14.065l.037.564a46.021,46.021,0,0,0,.721,5.131l.205.386a33.99,33.99,0,0,0,6.709-5.733" transform="translate(10843.679 -6803.069)" fill="#ffb27d" fill-rule="evenodd"/>
      <path id="Path_21621" data-name="Path 21621" d="M1254.594,314.509c4.648-.7,8.175-.46,9.729,1.745-.162,1.367.218,2.2-.365,4.4.284.514-.06,1.726.47,1.735a5.937,5.937,0,0,1,1.615-2.353q3.361,1.421-1.154,4.631-.246,1.08-.477,1.787c5.287-3.107,7.6-10.632,2.784-14.162-.977-6.239-9.944-.513-14.562-3.432-1.755,2.539.549,5.624,1.96,5.65" transform="translate(10854.077 -6775.7)" fill="#4d4d4d" fill-rule="evenodd"/>
      <path id="Path_21622" data-name="Path 21622" d="M1292.828,430.955a14.921,14.921,0,0,1-3.514.436l-.036.619c.053.339.038.781.115,1.118.011,0,.178-.163.187-.167a7.021,7.021,0,0,0,3.248-2.007" transform="translate(10822.579 -6878.865)" fill="#f08261" fill-rule="evenodd"/>
      <path id="Path_21623" data-name="Path 21623" d="M1351.284,335.443a1.275,1.275,0,0,1-.1-1.647,2.53,2.53,0,0,1,2.564.752q-.749-.188-2.463.894" transform="translate(10770.489 -6796.705)" fill="#4d4d4d" fill-rule="evenodd"/>
      <path id="Path_21624" data-name="Path 21624" d="M1346.216,320.853q.651.728,1.2.322a2.836,2.836,0,0,0-.4-2.413,3.626,3.626,0,0,1-.8,2.091" transform="translate(10774.47 -6784.067)" fill="#4d4d4d" fill-rule="evenodd"/>
      <path id="Path_21625" data-name="Path 21625" d="M1265.829,329.932q-.058-2.025-1.577-2.426a4.442,4.442,0,0,0-2.828,3.736q.856-1.045,4.405-1.31" transform="translate(10846.115 -6791.455)" fill="#4d4d4d" fill-rule="evenodd"/>
      <path id="Path_21626" data-name="Path 21626" d="M1292.426,310.926c-.205.574.064,1.325-.749,1.5-.537,2.475-2.491-.864-2.451-1.789q.517.391,3.2.288" transform="translate(10822.624 -6777.203)" fill="#4d4d4d" fill-rule="evenodd"/>
      <path id="Path_21627" data-name="Path 21627" d="M1008.738,554.082c-.363-.123-1.579-.408-3-.885q-2.187.89-5.758-.526a4.212,4.212,0,0,1-.248-4.389,8.77,8.77,0,0,0,4.946,1.035q-2.645-1.744-.82-2.07a1.4,1.4,0,0,0,.757.677,3.379,3.379,0,0,1,2.634,2.49c.654.176,1.329.337,1.678.447a5.637,5.637,0,0,0-.19,3.221" transform="translate(11067.654 -6977.126)" fill="#ffb27d" fill-rule="evenodd"/>
      <path id="Path_21628" data-name="Path 21628" d="M1327.192,462.146a52.878,52.878,0,0,1-7.179,7.423q2.645-9.39,5.664-20.222a10.28,10.28,0,0,1,1.708,1.779q.238,4.392.117,6.7a9.159,9.159,0,0,1-2.521,1.553,10.185,10.185,0,0,1,2.212,2.764" transform="translate(10796.609 -6894.405)" fill="#00ae8d" fill-rule="evenodd"/>
      <path id="Path_21629" data-name="Path 21629" d="M1251.1,461.39a53.481,53.481,0,0,0,4.673,8.369q-.764-11.474-.774-19.336a7.262,7.262,0,0,0-1.781,1.3c-.083.1-.161.192-.237.289a58.761,58.761,0,0,0-1.59,6.873q1.147.526,1.94.909-1.078.725-2.231,1.591" transform="translate(10854.834 -6895.314)" fill="#00ae8d" fill-rule="evenodd"/>
      <path id="Path_21630" data-name="Path 21630" d="M1325.883,460.824q6.6,3.825,10.789,6.779a99.058,99.058,0,0,1,3.065,23.29c-.257,9.586-1.212,16.521-2.343,20.259-1.65.072-3.406-.091-4.058-.719q-.536-12.646-.272-20.525a42.248,42.248,0,0,0-3.18-6.21c-.4,2.854-.95,5.328-1.081,7.876.466,5.224.693,11.46,2.089,18.709q-2.607,2.5-11.539,2.982a246.169,246.169,0,0,1-.843-34,52.888,52.888,0,0,0,7.179-7.423,10.185,10.185,0,0,0-2.212-2.764,9.159,9.159,0,0,0,2.521-1.553q.121-2.311-.117-6.7" transform="translate(10798.112 -6904.103)" fill="#68d2c0" fill-rule="evenodd"/>
      <path id="Path_21631" data-name="Path 21631" d="M1227.822,478.442c-1.7,18.2-2.418,30.038-3.422,34.141a10.791,10.791,0,0,1-6.381-2.972c.357-10.356,1.568-16.971,2.077-23.024-.921-9.941-2.809-19.081-.774-23.328a14.487,14.487,0,0,1,5.708-2.56,58.756,58.756,0,0,0-1.59,6.874q1.147.525,1.94.909-1.078.725-2.231,1.591a53.52,53.52,0,0,0,4.673,8.369" transform="translate(10882.79 -6903.997)" fill="#68d2c0" fill-rule="evenodd"/>
      <path id="Path_21632" data-name="Path 21632" d="M1073.752,480.165q1.224-1.5,2.581-2.957c-1.411,2.944-.937,8.238-.207,14.519a46.783,46.783,0,0,1-7.1,6.869c-5.375.31-11.136-.936-20.015-3.624a6.682,6.682,0,0,1,.115-3.737c8.647.5,13.931.415,17.4,1.308,2.248-5.6,5.1-8.915,7.227-12.378" transform="translate(11025.779 -6917.946)" fill="#68d2c0" fill-rule="evenodd"/>
      <path id="Path_21633" data-name="Path 21633" d="M1307.089,439.711a31.794,31.794,0,0,1,4.294-5.1,14.949,14.949,0,0,0-.428-1.568c-.081-.224-.565-.487-1.212-.608.059.1.189.539.082.607a.915.915,0,0,0-.075.06,24.634,24.634,0,0,1-5.077,3.211c.938,1.092,1.587,2.239,2.416,3.394" transform="translate(10809.571 -6880.119)" fill="#00ae8d" fill-rule="evenodd"/>
      <path id="Path_21634" data-name="Path 21634" d="M1280.516,439.622a22.366,22.366,0,0,0,.1,3.287,4.7,4.7,0,0,1,1.781-2.406,23.289,23.289,0,0,1-.452-2.786c-.943.355-.937.734-1.425,1.9" transform="translate(10829.997 -6884.579)" fill="#00ae8d" fill-rule="evenodd"/>
      <path id="Path_21635" data-name="Path 21635" d="M1268.517,488.971c.517-5.747,1.123-13.252,1.974-22.348q-.75-11.274-.774-19.061.31-.116.671-.212a22.154,22.154,0,0,0,.1,3.158,4.7,4.7,0,0,1,1.781-2.406,11.7,11.7,0,0,0,.784,1.715c.464-.483.9-.945,1.192-1.3.873,1.049,1.5,2.145,2.293,3.25a32.544,32.544,0,0,1,4.248-5.059c.48.246.913.483,1.294.71q-2.971,10.663-5.578,19.921a201.371,201.371,0,0,0,.042,21.868,20.267,20.267,0,0,1-2.143.212v-.072a.318.318,0,0,0-.31-.312l-3.007-.084a.3.3,0,0,0-.31.293v.055q-1.106-.115-2.257-.331" transform="translate(10840.122 -6892.178)" fill="#fff" fill-rule="evenodd"/>
      <path id="Path_21636" data-name="Path 21636" d="M1283.69,468.272a3.06,3.06,0,0,1,1.853-1.525,1.647,1.647,0,0,1,.2,3.287q1.476,9.307,1.366,25.913a12.749,12.749,0,0,1-2.2,3.572,9.622,9.622,0,0,1-1.611-3.952q1.026-17.432,1.22-25.437a3.76,3.76,0,0,1-.829-1.858" transform="translate(10827.632 -6909.107)" fill="#4d4d4d" fill-rule="evenodd"/>
      <path id="Path_21637" data-name="Path 21637" d="M1288.229,458.346c.345.463.659.935.975,1.41q-.435.289-1.109.673a5.417,5.417,0,0,0-1.149-1.183q.656-.487,1.284-.9m-2.844-.747a6.778,6.778,0,0,0,.677,1.59,3.119,3.119,0,0,0-1.1.963,4.469,4.469,0,0,1-.474-1.517,4.723,4.723,0,0,1,.9-1.035" transform="translate(10826.628 -6901.377)" fill="#4d4d4d" fill-rule="evenodd"/>
      <path id="Path_21638" data-name="Path 21638" d="M1223.752,778.669q-.061-13.973.94-32.9a16.156,16.156,0,0,0,4.911,1.764c.5-1.305.946-4.4,1.611-10.06a16.538,16.538,0,0,0,1.733.369v.321a.319.319,0,0,0,.31.313l3.007.084a.3.3,0,0,0,.31-.294v-.228q.817-.038,1.654-.143c.31,4.76.433,7.945.677,10.273,4.939-.617,7.908-1.153,10.292-2.15a260.437,260.437,0,0,1,2.029,30.362q3.031,6.5,1.659,31.773a15.073,15.073,0,0,1-5.856,0,260.949,260.949,0,0,1-4.49-29.913,232.689,232.689,0,0,1-5.563-24.96,194.316,194.316,0,0,1-3.123,24.674q.858,10.168-2.976,29.866a26.265,26.265,0,0,1-6.344-.571,232.357,232.357,0,0,0-.781-28.58" transform="translate(10877.949 -7137.86)" fill="#4d4d4d" fill-rule="evenodd"/>
      <path id="Path_21639" data-name="Path 21639" d="M1244.047,746.947c-.244-2.328-.366-5.513-.677-10.273.214-.026.428-.058.644-.091q.254,4.414.646,9.217,6.431-.347,9.583-1.741c.032.245.065.492.1.738-2.385,1-5.354,1.534-10.293,2.15m-9.3-.634a16.158,16.158,0,0,1-4.911-1.764q.022-.422.046-.844a11.021,11.021,0,0,0,4.5,1.517,77.931,77.931,0,0,0,1.209-9.194c.254.081.507.155.763.225-.665,5.66-1.115,8.755-1.611,10.06" transform="translate(10872.807 -7136.636)" fill="#00ae8d" fill-rule="evenodd"/>
      <path id="Path_21640" data-name="Path 21640" d="M1208.668,1196.672c-.277.266-.368.19-.562.06-.319-1.741-3.6-1.944-4.416-.167a.906.906,0,0,1-.512-.453c-.572,1.127-1.869,2.231-1.524,4.192.873,1.255,5.364,1.877,7.491-.691.6-.976-.142-2.213-.476-2.941m-22.646-1.911c.549,1.488.672,2.712.024,3.19-1.65.332-5.035.293-10.247.977-3.679-.264-5.274-1.312-4.344-2.477a12.975,12.975,0,0,0,8.662-2.5q.72,2.921,5.9.81" transform="translate(10922.354 -7523.558)" fill="#4d4d4d" fill-rule="evenodd"/>
      <path id="Path_21641" data-name="Path 21641" d="M1257.459,1188.965q.132,1.561.262,2.856c-.221.183-.31.111-.488-.007-.318-1.741-3.6-1.944-4.416-.167h0l-.006,0,0,0-.006,0,0,0,0,0h0l0,0-.006,0,0,0,0,0h0l0,0,0,0h-.005l-.006,0h0l0,0h0l0,0,0,0h-.006l0,0h0l0,0,0,0h0l0,0,0,0h0l0,0h-.005l0,0,0,0h0l0,0-.005,0,0,0,0,0-.014-.01,0,0h0l0,0,0,0h0l-.005,0h0l0,0,0,0v0h0l0,0h0l0,0,0,0h0l-.007,0h0l0,0h0l0,0,0,0,0,0h0l0,0,0,0-.007,0,0,0h0l0,0,0,0h0l0,0,0,0h0l0,0,0,0h0q.214-1.049.367-2.37a14.288,14.288,0,0,0,4.577-.135m-27.616-.835a4.683,4.683,0,0,1-.5,1.208c.019.052.038.1.06.149a2.074,2.074,0,0,0,.358.565h0a1.935,1.935,0,0,0,.151.149l0,0,.05.042.009.006a1.971,1.971,0,0,0,.644.339h0l.067.021.012,0c.022.007.046.013.069.019h.007l.073.018h0c.025,0,.051.011.075.014l.012,0,.072.012h.007a3.934,3.934,0,0,0,.82.034h.012l.089-.006h.014l.089-.007.019,0,.089-.008h.014l.1-.012h0l.1-.013.024,0c.245-.036.5-.089.777-.156l.03-.007.107-.026.012,0,.106-.028.031-.009.1-.027.034-.01.1-.028.041-.013.1-.03.026-.01.111-.034.029-.009.108-.036.024-.008.114-.038.029-.011.113-.038.141-.052c.09-.032.18-.066.272-.1l.022-.007.142-.055a10.217,10.217,0,0,1,.065-1.286,28.68,28.68,0,0,1-5.173-.506" transform="translate(10873.226 -7518.64)" fill="#ffb27d" fill-rule="evenodd"/>
      <path id="Path_21642" data-name="Path 21642" d="M1076.636,506.073a69.932,69.932,0,0,0,.683,10.044,46.758,46.758,0,0,1-7.1,6.869c-5.375.31-11.136-.936-20.015-3.624a109.3,109.3,0,0,0,19.794,2.6,47.722,47.722,0,0,0,6.294-6.216,87.573,87.573,0,0,1,.346-9.667" transform="translate(11024.587 -6942.335)" fill="#00ae8d" fill-rule="evenodd"/>
      <path id="Path_21643" data-name="Path 21643" d="M1381.9,603.232q.465-5.813.877-10a10.3,10.3,0,0,0,.9,2.345c-.4,2.854-.949,5.328-1.081,7.876.466,5.224.693,11.46,2.089,18.709a5.04,5.04,0,0,1-.529.44q-1.706-6.7-2.257-19.367" transform="translate(10744.319 -7015.979)" fill="#00ae8d" fill-rule="evenodd"/>
      <path id="Path_21644" data-name="Path 21644" d="M1275.4,722.42a18.054,18.054,0,0,1-8.422-.554c.078-.821.157-1.689.239-2.6a23.967,23.967,0,0,0,8.028.239q.07,1.435.155,2.914" transform="translate(10841.426 -7122.474)" fill="#a0795f" fill-rule="evenodd"/>
      <path id="Path_21645" data-name="Path 21645" d="M1286.392,719.234l-3.007-.084a.3.3,0,0,0-.31.3v3.224a.323.323,0,0,0,.31.32l3.007.084a.3.3,0,0,0,.31-.3v-3.224a.321.321,0,0,0-.31-.319" transform="translate(10827.821 -7122.375)" fill="#fff" fill-rule="evenodd"/>
      <path id="Path_21646" data-name="Path 21646" d="M1289.368,723.034v2.677l-2.432-.07v-2.676Z" transform="translate(10824.559 -7125.599)" fill="#a0795f" fill-rule="evenodd"/>
      <path id="Path_21647" data-name="Path 21647" d="M1407.286,783.789c-.017.687-.263,1.725.175,2.22,1.149,1.3,3.964,1.387,5.173.554.521-.36.58-1.529.594-2.28a13.563,13.563,0,0,1-1.008-4.41,4.171,4.171,0,0,0-3.712-.472Z" transform="translate(10722.94 -7173.069)" fill="#ffb27d" fill-rule="evenodd"/>
      <path id="Path_21648" data-name="Path 21648" d="M64.628,935.473H37.321a1.775,1.775,0,0,0,0,3.55H64.628a1.775,1.775,0,0,0,0-3.55" transform="translate(11881.92 -7305.157)" fill="#a0795f" fill-rule="evenodd"/>
      <path id="Path_21649" data-name="Path 21649" d="M42.94,1140.686a7.188,7.188,0,0,1,5.092-2.116H61.9a7.224,7.224,0,0,1,7.208,7.208v1.453h.555v1.8H65.569v-1.8h.555v-1.453a4.243,4.243,0,0,0-4.227-4.227H48.033a4.243,4.243,0,0,0-4.227,4.227v1.453h.555v1.8H40.269v-1.8h.555v-1.453a7.192,7.192,0,0,1,2.116-5.093" transform="translate(11877.93 -7476.764)" fill="#d1a586" fill-rule="evenodd"/>
      <rect id="Rectangle_13270" data-name="Rectangle 13270" width="2.981" height="27.941" transform="translate(11931.404 -6366.134)" fill="#d1a586"/>
      <path id="Path_21650" data-name="Path 21650" d="M263.578,906.21q-7.354-26.673-5.261-37.473a43.285,43.285,0,0,1-8.4.374c.428-1.923.858-3.852,1.294-5.8-.049-2.653-4.238-5.78-9.042-7.193,6.989.536,23.818-1.435,25.968,6.717.537,6.976-.913,14.921.322,43.432a22.611,22.611,0,0,1-4.885-.053" transform="translate(11707.331 -7238.104)" fill="#3d3d3d" fill-rule="evenodd"/>
      <path id="Path_21651" data-name="Path 21651" d="M60.208,841.385c-5.751-2.065-6.534-7.794-4-16.449q3.117,2.549,15.763,2.137l-.2.75a.58.58,0,0,0-.016.1h-9.39c.028,1.432-.027,2.917,2.09,3.006,6.722-1,31.216-4.482,31.629,6.031-3.042,13.592-5.748,26.056-9.434,43.28q-1.864,1.044-5.1-.161-2.594-25.054,1.423-36.44a140.347,140.347,0,0,1-22.763-2.257" transform="translate(11865.621 -7211.759)" fill="#4d4d4d" fill-rule="evenodd"/>
      <path id="Path_21652" data-name="Path 21652" d="M60.207,841.385c-5.751-2.065-6.534-7.794-4-16.449a6.2,6.2,0,0,0,1.757.95c-2.1,8.894.183,13.768,6.941,14.236a130.709,130.709,0,0,0,19.612,1.688q-3.43,22.243-1.176,38.787a11.1,11.1,0,0,1-1.79-.514q-2.593-25.054,1.423-36.44a140.354,140.354,0,0,1-22.763-2.257" transform="translate(11865.622 -7211.759)" fill="#3d3d3d" fill-rule="evenodd"/>
      <path id="Path_21653" data-name="Path 21653" d="M118.916,450.3q-8.8,3.188-11.29.615-2.531-.588-3.3-4.488c-1.746-3.96-.252-10.287,2.2-7.154,2.031-5.2,10.181-2.182,14.777-5.066,2.79,1.823,1.729,6.329-.276,7.852.079,5.184-.206,7.95-2.114,8.241" transform="translate(11824.445 -6881.615)" fill="#3d3d3d" fill-rule="evenodd"/>
      <path id="Path_21654" data-name="Path 21654" d="M102.325,459.5a1.323,1.323,0,0,0,.613-1.6,2.63,2.63,0,0,0-2.777-.053q.8.046,2.164,1.655" transform="translate(11827.324 -6901.271)" fill="#3d3d3d" fill-rule="evenodd"/>
      <path id="Path_21655" data-name="Path 21655" d="M114.557,449.888q-.676.757-1.242.335a2.95,2.95,0,0,1,.411-2.509,3.782,3.782,0,0,0,.831,2.174" transform="translate(11816.303 -6893.025)" fill="#3d3d3d" fill-rule="evenodd"/>
      <path id="Path_21656" data-name="Path 21656" d="M128.257,474.406a1.965,1.965,0,0,0-2.51.438c.045,1.656.9,4.989,2.224,5.719.23-.161.176-3.667.286-6.156" transform="translate(11805.705 -6915.371)" fill="#3d3d3d" fill-rule="evenodd"/>
      <path id="Path_21657" data-name="Path 21657" d="M133.2,465.416q-2.8,1.361-1.85,2.453a15.443,15.443,0,0,0,8.1-.913q-2.331.22-6.249-1.539" transform="translate(11801.174 -6907.982)" fill="#284191" fill-rule="evenodd"/>
      <path id="Path_21658" data-name="Path 21658" d="M133.028,430.453c-2.116-2.136-6.106-2.394-11.606-.384-3.479-.864-4.261-2.471-2.792-5.088,2.077-3.7,6.572-.773,12.079-4.252-.21,2.7,7.985,5.018,2.32,9.724" transform="translate(11812.314 -6870.224)" fill="#3d3d3d" fill-rule="evenodd"/>
      <path id="Path_21659" data-name="Path 21659" d="M125.61,495.042c1.459-.312,1.321,2.685,1.212,4.17-.217,2.921-3.51-3.683-1.212-4.17" transform="translate(11806.507 -6932.996)" fill="#ffb27d" fill-rule="evenodd"/>
      <path id="Path_21661" data-name="Path 21661" d="M189.852,462.083a1.5,1.5,0,0,1,.693,1.811,2.974,2.974,0,0,1-3.138.06q.9-.052,2.445-1.871" transform="translate(11753.605 -6905.167)" fill="#284191" fill-rule="evenodd"/>
      <path id="Path_21662" data-name="Path 21662" d="M120.8,479.623c.823.062,1.617-.963,1.846-1.268a11.188,11.188,0,0,0,1.657-3.3q-.255-.765-.535-1.934-4.756-3.39-1.3-5.016a6.464,6.464,0,0,1,1.729,2.525,1.418,1.418,0,0,0,1.25-.885,45.717,45.717,0,0,1-1.278-5.8c1.562-2.437,5.216-2.784,10.054-2.127q.336,2.027.552,4.294c.6.583,2.355,10.321-3.589,10.716-.027.485.015,1.043.024,1.383.007.308.017.91.324,1l.511.133c-.05,7.183-3.555,8.565-11.243.276" transform="translate(11809.881 -6904.694)" fill="#ffb27d" fill-rule="evenodd"/>
      <path id="Path_21664" data-name="Path 21664" d="M167.279,555.7a7.822,7.822,0,0,0,3.179.7,10.812,10.812,0,0,0,.022,1.37,4.98,4.98,0,0,1-3.2-2.07" transform="translate(11770.612 -6984.27)" fill="#f08261" fill-rule="evenodd"/>
      <path id="Path_21665" data-name="Path 21665" d="M36.355,574.824a34.358,34.358,0,0,0-7.114-1.464q-.572,9.136-9.083-.127c-5.464.481-6.534.555-9.565,1.588C4.032,581.4,3.428,588.99,0,597.663a22.4,22.4,0,0,1,8.081,1.624q.831-3.117,1.392-5.019-.158,17.157-.121,23.512c5.128,1.4,2.85,2.164,9.49.808,7.787-1.59,12.666-.2,15.905-1.684.058-10.168,1.869-17.976,1.971-23.906a28.25,28.25,0,0,0,4.179,4.321c3.078-3.7,5.164-5.2,6.91-7.38a95.952,95.952,0,0,0-11.451-15.114" transform="translate(11911.955 -6999.083)" fill="#ff8a54" fill-rule="evenodd"/>
      <path id="Path_21666" data-name="Path 21666" d="M294.775,623.727q-9.895,4.315-13.856,7.13l-1.173-1.822c-1.091,1.147-2.337,2.272-3.855,3.905a21.091,21.091,0,0,0,4.668,3.884q6.876-.77,15.2-10.928a6.618,6.618,0,0,0,3.81-1.969,3.515,3.515,0,0,0-1.256-2.624q3.45-2.36,2.747-3.379-5.407,3.508-6.283,5.8" transform="translate(11678.841 -7036.844)" fill="#ffb27d" fill-rule="evenodd"/>
      <path id="Path_21667" data-name="Path 21667" d="M57.747,676.895q-1.009.157-1.907.283c-.031,5.045-.864,8.563-.85,11.075a15.119,15.119,0,0,0,2.9.943c0-.323-.1-1.072-.1-1.392q-.062-5.787-.043-10.908m30.7-10.109a23.474,23.474,0,0,1-5.279-7.871,32.226,32.226,0,0,1,.225,5.077,27.486,27.486,0,0,0,3.967,4.061c.376-.453.738-.874,1.087-1.267M58.27,656.948q-1.221,4.127-2.334,8.053-.031,3.317-.053,6.229c.538-.053,1.169-.089,1.916-.108q.115-8.052.471-14.174" transform="translate(11865.492 -7069.817)" fill="#e98050" fill-rule="evenodd"/>
      <path id="Path_21668" data-name="Path 21668" d="M4.85,731.277a19.22,19.22,0,0,0-.358,7.958c1.492,2.274,7.513,1,23.014-1.716a4.127,4.127,0,0,0,3.45.826c1.622-.424,1.7-.869,3.518-2.668a3.26,3.26,0,0,0-.272-3.209c-2.048,1.264-3.125,1.937-5.431,2.017q.92-2.484.277-3.209a4.859,4.859,0,0,0-1.537,2.986c-12.222-.558-15.445-.483-17.071.413q.265-1.208.469-2.125a20.735,20.735,0,0,0-6.06-1.272" transform="translate(11908.378 -7132.62)" fill="#ffb27d" fill-rule="evenodd"/>
      <path id="Path_21669" data-name="Path 21669" d="M183.994,450.133a2.107,2.107,0,0,1,.977,2.553,4.193,4.193,0,0,1-4.424.085q1.275-.075,3.447-2.638" transform="translate(11759.402 -6895.069)" fill="#3d3d3d" fill-rule="evenodd"/>
      <path id="Path_21670" data-name="Path 21670" d="M138.043,461.1a2.107,2.107,0,0,0-2.708.368,4.193,4.193,0,0,0,2.049,3.922q-.546-1.154.659-4.29" transform="translate(11797.604 -6904.071)" fill="#3d3d3d" fill-rule="evenodd"/>
      <path id="Path_21671" data-name="Path 21671" d="M136.228,571.977c-.3,3.348-1.616,4.978-3.414,4.953-1.647-.023-4.213-1.883-7.059-5.092l.9-.325c2.666,3.005,4.79,4.483,6.167,4.5,1.23.018,2.4-1.4,2.647-4.179Z" transform="translate(11805.698 -6997.628)" fill="#e98050" fill-rule="evenodd"/>
      <path id="Path_21674" data-name="Path 21674" d="M384.042,1194.211c-5.334-.087-9.323-.149-11.165-.731-1.987-.629-1.577-1.84-.435-3.779,5.028,2.313,3.688-.476,6.04-.123a14.915,14.915,0,0,0,7.341,2.676c1.371,1.011.814,1.911-1.782,1.957" transform="translate(11598.067 -7519.837)" fill="#3d3d3d" fill-rule="evenodd"/>
      <path id="Path_21675" data-name="Path 21675" d="M347.182,863.6h.213c4.018.035,8.155,1.012,9.473,5.555.537,6.976-.913,14.921.322,43.432a20.956,20.956,0,0,1-2.85.1c-2.534-9.91-8.559-34.22-1.771-44.7a26.551,26.551,0,0,0-5.387-4.386" transform="translate(11618.604 -7244.431)" fill="#4d4d4d" fill-rule="evenodd"/>
      <path id="Path_21676" data-name="Path 21676" d="M384.4,1179.464a4.9,4.9,0,0,0,.7,1.512c-1.539.146-.946,2.126-5.1.309a6.536,6.536,0,0,0,.3-1.892,22.832,22.832,0,0,0,4.107.071" transform="translate(11590.877 -7511.257)" fill="#ffb27d" fill-rule="evenodd"/>
      <path id="Path_21677" data-name="Path 21677" d="M226.744,1200.234c-2.832-1.168-3.257-3.07-4.814-3.8s-1.748-2.037-.215-3.455c1.132.905,2.537,2.018,3.283,1.429.5-.394,2.182-.368,2.516.2,1.468,3.413,3.51,2.332,3.913,3.885.047,2.067-2.9,2.469-4.683,1.733" transform="translate(11725.513 -7522.739)" fill="#3d3d3d" fill-rule="evenodd"/>
      <path id="Path_21678" data-name="Path 21678" d="M233.423,1182.238a8.663,8.663,0,0,0,.373,2.732,2.484,2.484,0,0,0-1.636.227c-.69.546-1.947-.37-3.029-1.227a7.484,7.484,0,0,0,.355-1.893,6.109,6.109,0,0,0,3.938.161" transform="translate(11718.352 -7513.525)" fill="#ffb27d" fill-rule="evenodd"/>
      <path id="Path_21679" data-name="Path 21679" d="M203.49,719.8H173.226a1.512,1.512,0,0,0-1.369,1.084l-5.385,20.506a.81.81,0,0,0,.8,1.084h30.264a1.511,1.511,0,0,0,1.369-1.084l5.385-20.506a.81.81,0,0,0-.8-1.084" transform="translate(11771.325 -7122.926)" fill="#68d2c0" fill-rule="evenodd"/>
      <path id="Path_21680" data-name="Path 21680" d="M164.136,731.629l3.655-13.921a1.512,1.512,0,0,1,1.369-1.084h30.265c.6,0,1.659.769,1.482,1.361a.793.793,0,0,0-.835-.868H169.808a1.512,1.512,0,0,0-1.369,1.084l-5.385,20.506a.854.854,0,0,0,.215.874c-.5-.322-.974-.943-.862-1.366Z" transform="translate(11774.743 -7120.241)" fill="#00ae8d" fill-rule="evenodd"/>
      <path id="Path_21681" data-name="Path 21681" d="M116.884,857.955h30.264a1.2,1.2,0,0,0,.332-.048c-.6,1.56-2.239,1.329-2.878,1.324H108.721c-1.945-.082-1.894-1.446-1.92-2.76h8.62a1.769,1.769,0,0,0,.878,1.273.85.85,0,0,0,.585.21" transform="translate(11821.714 -7238.405)" fill="#00ae8d" fill-rule="evenodd"/>
      <path id="Path_21682" data-name="Path 21682" d="M180.954,774.183c3.245,1.641,7.083,2.145,11.029,2.347a3.15,3.15,0,0,0-.1.435,2.592,2.592,0,0,0,2.6,3.08,3.427,3.427,0,0,0,3.291-2.834,2.923,2.923,0,0,0,.037-.5c4.1.111,8.055.334,11.329,1.615l-2.251,8.572H177.616Z" transform="translate(11761.879 -7168.875)" fill="#00ae8d" fill-rule="evenodd"/>
      <path id="Path_21683" data-name="Path 21683" d="M278.1,780.252a2.391,2.391,0,0,0-2.275,1.964,1.635,1.635,0,0,0,1.654,1.964,2.39,2.39,0,0,0,2.275-1.964,1.635,1.635,0,0,0-1.653-1.964" transform="translate(11678.92 -7174.003)" fill="#68d2c0" fill-rule="evenodd"/>
      <text id="Coverage" transform="translate(11987.069 -6487.943)" fill="#43b0ef" font-size="19" font-family="Mulish-BoldItalic, Mulish" font-weight="700" font-style="italic" letter-spacing="0.003em"><tspan x="0" y="0">Coverage</tspan></text>
    </g>
  </g>
</svg>
