<svg xmlns="http://www.w3.org/2000/svg" width="803.943" height="253" viewBox="0 0 803.943 253">
  <g id="Group_32707" data-name="Group 32707" transform="translate(0.538)">
    <rect id="Rectangle_12169" data-name="Rectangle 12169" width="800" height="253" fill="#D8DDE3"/>
    <path id="Path_17974" data-name="Path 17974" d="M4835.669,3900.215s106.368,99.729,208.021,59.906c97.892-38.35,139.732-85.855,219.441-64.756s127.582,82.59,200.055,81.273c80.75-1.466,173.446-59.583,175.048-56.424" transform="translate(-4835.5 -3750.215)" fill="none" stroke="#707070" stroke-linecap="round" stroke-width="1" stroke-dasharray="2 4"/>
    <g id="Group_32660" data-name="Group 32660" transform="translate(17095 10822.574)">
      <g id="Group_32659" data-name="Group 32659" transform="translate(-16661.375 -10656.927)">
        <path id="Path_21291" data-name="Path 21291" d="M231.822,1363.763a9.941,9.941,0,0,1,.524-2.154c.125-.344.268-.689.431-1.03a15.646,15.646,0,0,1,3.432-4.57c.114-.109.229-.214.343-.317-.456-2.037-.921-4-1.345-5.73-.929-3.8-1.662-6.505-1.674-6.551l1.071-.29c.012.043.659,2.438,1.51,5.883.431,1.744.913,3.758,1.392,5.872a21.355,21.355,0,0,1,2.079-1.485c.22-.136.352-.212.372-.222l.542.968c-.009.005-.125.07-.323.195a20.731,20.731,0,0,0-2.4,1.764q.238,1.076.468,2.167c.665,3.156,1.137,5.729,1.453,7.826,1.084,7.174.372,8.8-.47,9.308a1.211,1.211,0,0,1-.631.176,2.849,2.849,0,0,1-1.806-.959c-2.955-2.795-4.619-5.652-4.97-8.525a9.473,9.473,0,0,1,0-2.326m5.049,9.373q.327.335.682.672c.078.074.152.139.221.2,0,0,0,0,0,0,.522.444.8.487.885.439.133-.079.772-.7.318-5.218q-.14-1.4-.405-3.138c-.33-2.162-.8-4.7-1.41-7.593q-.164-.774-.331-1.541a14.48,14.48,0,0,0-3.065,4.12,9.424,9.424,0,0,0-.427,1.045,8.808,8.808,0,0,0-.416,1.781,8.279,8.279,0,0,0,.019,2.188,12.887,12.887,0,0,0,3.929,7.048" transform="translate(-209 -1320.563)" fill="#00ae8d"/>
        <path id="Path_21292" data-name="Path 21292" d="M253.36,1487.889c1.263-3.873,1.159-7.151-.308-9.744a10.034,10.034,0,0,0-6.012-4.516l-.248,1.081.124-.54-.125.54a9.064,9.064,0,0,1,5.3,3.993c1.3,2.309,1.373,5.284.212,8.842Z" transform="translate(-224.692 -1434.114)" fill="#00ae8d"/>
        <path id="Path_21293" data-name="Path 21293" d="M311.094,1414.473l-.442-1.241a.427.427,0,0,1,.051-.386c.583-.836,2.765-4.529-2.35-6.719a.428.428,0,0,0-.573.536l1.147,3.22a.427.427,0,0,1-.375.57l-.57.036a.427.427,0,0,1-.43-.283l-1.623-4.557a.425.425,0,0,0-.315-.275,14.764,14.764,0,0,0-5.185-.2.428.428,0,0,0-.25.689l2.658,3.277a.427.427,0,0,1-.6.6l-4.887-4a.43.43,0,0,0-.357-.088c-1.132.232-6.447,1.631-2.541,6.841a.429.429,0,0,0,.42.165l4.592-.844a.427.427,0,0,1,.484.289l.013.04a.427.427,0,0,1-.288.542l-3.876,1.124a.427.427,0,0,0-.241.64,6.238,6.238,0,0,0,5.385,2.98.424.424,0,0,0,.253-.092l4.545-3.593a.427.427,0,0,1,.5-.021l.126.083a.427.427,0,0,1,.055.669l-3.2,2.984a.427.427,0,0,0,.165.721c1.044.319,3.326.43,6.434-2.755a.434.434,0,0,1,.162-.1l.859-.306a.427.427,0,0,0,.259-.546" transform="translate(-288.131 -1374.418)" fill="#00ae8d"/>
        <path id="Path_21294" data-name="Path 21294" d="M232.334,1198.342l.064-1.692a.572.572,0,0,1,.349-.506c2.183-.922,13.952-6.531,2.485-15.951a.575.575,0,0,0-.93.335l-1.523,8a.574.574,0,0,1-.671.456l-.52-.1a.574.574,0,0,1-.456-.671l1.9-9.977a.572.572,0,0,0-.134-.488,24.339,24.339,0,0,0-10.519-6.528.575.575,0,0,0-.733.677l2,8.6a.574.574,0,0,1-1.082.365l-4.681-10.391a.571.571,0,0,0-.345-.31c-1.75-.566-12.362-3.455-12.3,9.753a.576.576,0,0,0,.416.553l9.195,2.631a.573.573,0,0,1,.387.372l.111.336a.574.574,0,0,1-.634.747l-8.432-1.337a.573.573,0,0,0-.663.552c-.04,1.592.339,5.809,4.952,9.213a.576.576,0,0,0,.348.111l12.659-.148a.574.574,0,0,1,.565.443l.09.385a.574.574,0,0,1-.519.7l-9.666.673a.573.573,0,0,0-.431.9c1.2,1.709,4.922,5.255,14.264,3.02a.547.547,0,0,1,.106-.015l3.8-.168a.574.574,0,0,0,.548-.552" transform="translate(-205.234 -1169.51)" fill="#00ae8d"/>
        <path id="Path_21295" data-name="Path 21295" d="M79.1,1335.011l.307-1.59a.522.522,0,0,0-.133-.459c-.864-.909-4.2-4.992,1.608-8.6a.526.526,0,0,1,.8.545l-.8,4.128a.525.525,0,0,0,.562.623l.7-.061a.526.526,0,0,0,.47-.424l1.126-5.84a.524.524,0,0,1,.332-.393,18.158,18.158,0,0,1,6.266-1.2.526.526,0,0,1,.432.792L88.145,1327a.525.525,0,0,0,.844.617l5.2-5.768a.526.526,0,0,1,.418-.173c1.419.072,8.139.785,4.359,7.844a.528.528,0,0,1-.48.279l-5.739-.173a.526.526,0,0,0-.534.441l-.008.051a.525.525,0,0,0,.45.605l4.92.646a.525.525,0,0,1,.412.734,7.671,7.671,0,0,1-5.993,4.623.523.523,0,0,1-.324-.065l-6.192-3.523a.526.526,0,0,0-.613.068l-.137.125a.525.525,0,0,0,.057.823l4.448,3.033a.525.525,0,0,1-.067.907c-1.21.582-3.963,1.14-8.332-2.155a.527.527,0,0,0-.216-.1l-1.1-.212a.526.526,0,0,1-.416-.615" transform="translate(-48.568 -1301.902)" fill="#00ae8d"/>
        <path id="Path_21296" data-name="Path 21296" d="M174.593,1521.728l.923,6.873a8.3,8.3,0,0,0,8.227,7.2h5.338a8.294,8.294,0,0,0,8.226-7.2l.924-6.873a1.624,1.624,0,0,0-1.61-1.838H176.2a1.622,1.622,0,0,0-1.609,1.838" transform="translate(-159.319 -1474.364)" fill="#ff8a54"/>
      </g>
      <g id="Group_32658" data-name="Group 32658" transform="translate(-16617.619 -10773.686)">
        <path id="Path_21868" data-name="Path 21868" d="M110.8,225.859c2.074-17.822,3.295-38.814,3.951-55.918.56-14.579,1.5-31.8-4.057-46.366,0,0-10.213,3.476-20.381,2.357l-10.169-1.119c-4.144,13.49-4.86,28.933-4.613,50.82,0,0,2.167,32.25,4.878,50.151l10.826.074c1.122-28.191.258-29.75.808-43.375.535-13.28.573-22.776,1.922-39.361l.9,3.535c1.256,10.12,2.083,19.65,2.616,29.814.972,18.54,3.1,34.038,2.84,49.26Z" transform="translate(-20.854 -34.137)" fill="#43b0ef"/>
        <path id="Path_21869" data-name="Path 21869" d="M80.976,264.621a48.49,48.49,0,0,0-2.721,4.7,3.407,3.407,0,0,0-.7,2.244.986.986,0,0,0,.289.588,1.268,1.268,0,0,0,.559.241,16.761,16.761,0,0,0,6.973-.277q2.575-.493,5.13-1.091a2.469,2.469,0,0,0,1.516-.769,2.849,2.849,0,0,0,.24-1.331,27.152,27.152,0,0,0-.35-4.763c-3.816.29-7.12.166-10.936.455" transform="translate(-21.417 -72.974)" fill="#3d3d3d"/>
        <path id="Path_21870" data-name="Path 21870" d="M102.575,150.654a19.794,19.794,0,0,1-5.659.017.2.2,0,0,1,.02-.4c.941-.06,1.875-.04,2.81-.049.935.017,1.869.007,2.81.067a.186.186,0,0,1,.019.368" transform="translate(-26.725 -41.498)" fill="#3c3c3b"/>
        <path id="Path_21871" data-name="Path 21871" d="M120.249,264.544a58.927,58.927,0,0,1,3.654,4.767,3.407,3.407,0,0,1,.7,2.244.982.982,0,0,1-.289.588,1.268,1.268,0,0,1-.559.241,16.758,16.758,0,0,1-6.972-.277q-2.576-.493-5.131-1.091a2.469,2.469,0,0,1-1.516-.769,2.376,2.376,0,0,1-.342-1.193,29.058,29.058,0,0,1-.047-4.937" transform="translate(-30.293 -72.961)" fill="#3d3d3d"/>
        <path id="Path_21872" data-name="Path 21872" d="M87.783,54.537a12.258,12.258,0,0,0-6.519,2.58A11.155,11.155,0,0,0,78.138,63.8c-.386,2.478-.356,5.008-.769,7.482l.766,7.188C79.1,90.327,79.459,107.6,79.459,107.6c9.342,2.079,32.793-.345,32.793-.345-.785-5.453-.8-3.859-1.769-10.647l.014-.817a14.947,14.947,0,0,0,6.578-1.864,2.423,2.423,0,0,0,.9-.738,2.659,2.659,0,0,0,.32-1.22,102.4,102.4,0,0,0-.958-26.413,17.676,17.676,0,0,0-1.906-5.89c-2.239-3.928-8.531-4.747-12.813-5.59Z" transform="translate(-21.373 -14.939)" fill="#68d2c0"/>
        <path id="Path_21873" data-name="Path 21873" d="M120.522,95.867A14.972,14.972,0,0,0,127.1,94a2.435,2.435,0,0,0,.9-.738,2.659,2.659,0,0,0,.32-1.221,102.4,102.4,0,0,0-.958-26.413,15.231,15.231,0,0,0-1.906-5.89c-2.381-3.657-7.515-4.553-11.8-5.4" transform="translate(-31.397 -15.013)" fill="#68d2c0"/>
        <path id="Path_21874" data-name="Path 21874" d="M83.535,123.925c10.417,1.322,30.42-.745,30.42-.745-.785-5.453-.8-3.859-1.769-10.648l.014-.816s-.779,10.578-12.441,10.578-16.224,1.631-16.224,1.631" transform="translate(-23.076 -30.861)" fill="#68d2c0"/>
        <rect id="Rectangle_13317" data-name="Rectangle 13317" width="30.42" height="12.651" transform="translate(60.459 80.854)" fill="none"/>
        <path id="Path_21875" data-name="Path 21875" d="M106.7,52.5l-3.321-.926-.583-3.208L95.7,49.3l-.538,2.658-3.04.793s-.234,3.5,7.379,3.506S106.7,52.5,106.7,52.5" transform="translate(-25.448 -13.361)" fill="#f7c5b4"/>
        <path id="Path_21876" data-name="Path 21876" d="M86.048,16.806c-.892,4.394-.213,11.073.671,14.6a10.946,10.946,0,0,0,1.644,4.084,9.489,9.489,0,0,0,12.517,2.823,9.257,9.257,0,0,0,3.592-4.09,29.748,29.748,0,0,0,2.42-13.935s1.373-9.968-11.283-10.192c0,0-8.07-.622-9.56,6.714" transform="translate(-23.654 -2.784)" fill="#f7c5b4"/>
        <path id="Path_21877" data-name="Path 21877" d="M96,9.452c-2.494-1.055-5.875.177-7.238.981a9.629,9.629,0,0,0-3.254,3.39,10.642,10.642,0,0,0-.214,11.2c.02-.868-.442-2.717.225-3.85A4.348,4.348,0,0,1,86.628,20c1.631-1.272,3.622-1.99,5.36-3.11s3.313-2.878,3.289-4.946a8.184,8.184,0,0,0,2.48,7.885c1.466,1.355,3.385,2.1,5.022,3.241s3.082,2.978,2.777,4.951a.672.672,0,0,0,.947-.05,1.862,1.862,0,0,0,.415-.965S113.259,9.319,96,9.452" transform="translate(-23.15 -2.499)" fill="#3d3d3d"/>
        <path id="Path_21878" data-name="Path 21878" d="M113.357,37.281a1.333,1.333,0,0,0,1.385.609,2.152,2.152,0,0,0,1.047-.667,3.739,3.739,0,0,0,1.2-2.974,1.349,1.349,0,0,0-.305-.751,1.221,1.221,0,0,0-1.276-.238,7.475,7.475,0,0,0-1.627,1.186Z" transform="translate(-31.314 -9.166)" fill="#f7c5b4"/>
        <path id="Path_21879" data-name="Path 21879" d="M102.261,155.467l1.239,10.872.808,9.824,2.274,29.594s1.51,21.933,1.142,28.348l2.8.114s-5.339-60.3-8.259-78.751" transform="translate(-28.249 -42.947)" fill="#8f9ebc"/>
        <path id="Path_21880" data-name="Path 21880" d="M94.357,4.58A4.69,4.69,0,1,0,99.157,0a4.69,4.69,0,0,0-4.8,4.578" transform="translate(-26.066 0)" fill="#3d3d3d"/>
        <path id="Path_21881" data-name="Path 21881" d="M21.956,150.2a98.065,98.065,0,0,0,.418,29.77c1.158,6.886,1.416,13.958,4.073,20.415,0,0,4.635,28.116,8.363,35.523H43.1l3.622-62.953v62.953h8.1c3.728-7.406,8.325-34.97,8.325-34.97,2.657-6.457,2.914-13.529,4.073-20.415a103.617,103.617,0,0,0,.418-30.6" transform="translate(-5.805 -41.415)" fill="#3d3d3d"/>
        <path id="Path_21882" data-name="Path 21882" d="M60.74,235.906H65.8c3.728-7.406,8.325-34.97,8.325-34.97,2.657-6.457,2.914-13.528,4.073-20.414a103.621,103.621,0,0,0,.418-30.6" transform="translate(-16.779 -41.415)" fill="#3d3d3d"/>
        <path id="Path_21886" data-name="Path 21886" d="M29.652,70.694A9.436,9.436,0,0,0,23.2,73.047,21.344,21.344,0,0,0,18.8,78.5a59.355,59.355,0,0,0-8.47,25.887c-4.5,5.257-6.26,8.649-8.6,15.5l9.377,1.733C13.3,118.4,18.894,110.36,20.4,106.766c-1.721,5.679-2.809,15.873-4.141,21.543,0,0,9.479,4.07,23.45,3.9s23.181-3.9,23.181-3.9c-1.332-5.67-2.42-15.865-4.141-21.543,1.505,3.593,6.609,11.634,8.8,14.857l9.87-1.733c-2.341-6.855-4.1-10.247-8.6-15.5A59.355,59.355,0,0,0,60.347,78.5a21.344,21.344,0,0,0-4.4-5.451A9.436,9.436,0,0,0,49.5,70.694" transform="translate(-0.477 -19.525)" fill="#ff8a54"/>
        <rect id="Rectangle_13321" data-name="Rectangle 13321" width="46.631" height="21.737" transform="translate(15.781 90.955)" fill="none"/>
        <rect id="Rectangle_13323" data-name="Rectangle 13323" width="62.713" height="4.451" transform="translate(7.672 125.406)" fill="#bdcacf"/>
        <rect id="Rectangle_13324" data-name="Rectangle 13324" width="62.713" height="4.451" transform="translate(7.74 149.413)" fill="#bdcacf"/>
        <path id="Path_21889" data-name="Path 21889" d="M6.129,242.766h1.18a1.615,1.615,0,0,0,1.61-1.61V142.677a1.615,1.615,0,0,0-1.61-1.61H6.129a1.615,1.615,0,0,0-1.61,1.61v98.479a1.615,1.615,0,0,0,1.61,1.61" transform="translate(-1.247 -38.969)" fill="#bdcacf"/>
        <path id="Path_21890" data-name="Path 21890" d="M98.858,242.766h1.18a1.615,1.615,0,0,0,1.61-1.61V142.677a1.615,1.615,0,0,0-1.61-1.61h-1.18a1.615,1.615,0,0,0-1.61,1.61v98.478a1.615,1.615,0,0,0,1.61,1.61" transform="translate(-26.865 -38.969)" fill="#bdcacf"/>
        <path id="Path_21891" data-name="Path 21891" d="M10.978,142.237a12.971,12.971,0,0,1-1.758,1.951,1.282,1.282,0,0,1-.406.276c-.533.189-1.055-.387-1.146-.945s.064-1.136-.033-1.693a1.954,1.954,0,0,0-1.518-1.544,1.954,1.954,0,0,0-1.981.876c-.517.845-.308,1.923-.424,2.907-.045.375-.206.812-.576.889a.9.9,0,0,1-.526-.094c-2.07-.88-2.96-3.505-2.484-5.7a6.277,6.277,0,0,1,5.528-4.925,5.528,5.528,0,0,1,5.81,5.292,4.471,4.471,0,0,1-.486,2.714" transform="translate(0 -37.079)" fill="#f7c5b4"/>
        <path id="Path_21892" data-name="Path 21892" d="M92.866,142.812a12.97,12.97,0,0,0,1.758,1.951,1.282,1.282,0,0,0,.406.276c.533.189,1.055-.387,1.146-.945s-.064-1.136.033-1.693a1.9,1.9,0,0,1,3.5-.669c.517.845.308,1.923.424,2.907.045.375.206.812.576.889a.9.9,0,0,0,.526-.094c2.07-.88,2.96-3.505,2.484-5.7a6.277,6.277,0,0,0-5.528-4.924,5.528,5.528,0,0,0-5.81,5.292,4.471,4.471,0,0,0,.486,2.714" transform="translate(-25.51 -37.237)" fill="#f7c5b4"/>
        <path id="Path_21893" data-name="Path 21893" d="M37.894,268.7a19.689,19.689,0,0,0-4.93,4.012c-.493.528-.985,1.289-.629,1.917a1.516,1.516,0,0,0,.87.609,7.733,7.733,0,0,0,3.409.207,21.223,21.223,0,0,0,8.38-2.831A2.322,2.322,0,0,0,46,271.683a2.447,2.447,0,0,0,.152-.972q.018-1,.038-2.007Z" transform="translate(-8.899 -74.229)" fill="#3d3d3d"/>
        <path id="Path_21894" data-name="Path 21894" d="M64.621,268.72a20.374,20.374,0,0,1,5.085,4c.494.528.986,1.289.63,1.917a1.518,1.518,0,0,1-.871.609,7.743,7.743,0,0,1-3.409.208,21.228,21.228,0,0,1-8.38-2.831,2.318,2.318,0,0,1-1.006-.936,2.434,2.434,0,0,1-.151-.972q-.02-1-.038-2.007Z" transform="translate(-15.603 -74.228)" fill="#3d3d3d"/>
        <path id="Path_21895" data-name="Path 21895" d="M59.081,69.729s-.263,5.127-8.922,4.818c0,0-7.678.125-8.663-4.818l3.952-.245.4-2.385h9.37l.4,2.592Z" transform="translate(-11.463 -18.536)" fill="#f7c5b4"/>
        <path id="Path_21896" data-name="Path 21896" d="M61.442,36.931A33.509,33.509,0,0,1,59.8,50.584a11.5,11.5,0,0,1-2.065,4.133A9.959,9.959,0,0,1,44.4,56.612a9.714,9.714,0,0,1-3.412-4.583c-1.631-4.723-2.057-6.583-1.682-11.168,0,0-1.105-12.32,12.154-11.485,0,0,9.041-.248,9.979,7.554" transform="translate(-10.823 -8.104)" fill="#f7c5b4"/>
        <path id="Path_21897" data-name="Path 21897" d="M39.152,45.595c1.873-3,1.689-6.776,2.139-10.282,9.528,4.876,15.653,1.057,16.965.513,0,0,1.328,9.3,3.162,9.087,0,0,3.621-11.995-4.653-15.339s-14.185.654-14.185.654-5.38,3.134-3.77,14.545Z" transform="translate(-10.638 -7.801)" fill="#e9f0f3"/>
        <path id="Path_21898" data-name="Path 21898" d="M39,53.959a1.4,1.4,0,0,1-1.5.52,2.258,2.258,0,0,1-1.039-.786,3.924,3.924,0,0,1-1-3.212,1.416,1.416,0,0,1,.383-.76,1.282,1.282,0,0,1,1.356-.141A10.189,10.189,0,0,1,39,51.161Z" transform="translate(-9.78 -13.661)" fill="#f7c5b4"/>
        <path id="Path_21899" data-name="Path 21899" d="M68.487,54.029a1.4,1.4,0,0,0,1.5.52,2.253,2.253,0,0,0,1.039-.786,3.924,3.924,0,0,0,1-3.212,1.412,1.412,0,0,0-.384-.76,1.28,1.28,0,0,0-1.355-.141,9.789,9.789,0,0,0-1.8,1.531Z" transform="translate(-18.919 -13.68)" fill="#f7c5b4"/>
        <path id="Path_21900" data-name="Path 21900" d="M22.287,150.5a60.8,60.8,0,0,0,24.4,3.735c14.3-.609,21.314-3.653,21.314-3.653s-4.809,5.5-23.953,5.155C25.123,155.4,22.287,150.5,22.287,150.5" transform="translate(-6.156 -41.576)" fill="#da806c"/>
        <rect id="Rectangle_13325" data-name="Rectangle 13325" width="45.71" height="5.254" transform="translate(16.131 108.925)" fill="none"/>
        <path id="Path_21901" data-name="Path 21901" d="M88.565,98.454a11.83,11.83,0,0,0-3-3.578c-.2-.14-.483-.271-.682-.124a.569.569,0,0,0-.172.449,2.868,2.868,0,0,0,.595,1.855,12.2,12.2,0,0,0-3.134-1.94c-.4-.194-.893-.382-1.255-.128a.85.85,0,0,0-.206,1.019,2.3,2.3,0,0,0,.742.832,21.489,21.489,0,0,0,2.023,1.424,5.009,5.009,0,0,0-2.343-1.146c-.387-.075-.9-.027-1.015.351s.279.685.621.867a15.64,15.64,0,0,0,2.42,1.034,3.578,3.578,0,0,0-1.7-.24,1.505,1.505,0,0,0-.849.31.714.714,0,0,0-.213.825,1.036,1.036,0,0,0,.6.428,7.728,7.728,0,0,0,2.737.489q-.892.024-1.78.118a1.046,1.046,0,0,0-.58.184.734.734,0,0,0,.107,1.066,2,2,0,0,0,1.149.349c1.941.156,3.8-.419,5.744-.684" transform="translate(-22.126 -26.157)" fill="#f7c5b4"/>
        <path id="Path_21902" data-name="Path 21902" d="M113.4,80.543a75.217,75.217,0,0,1,.147,12.174l-.05.78c-7.031.186-14.437.354-21.467.54l-.23,5a59.361,59.361,0,0,0,17.81,4.075,16.435,16.435,0,0,0,3.224.06,20.626,20.626,0,0,0,6.86-1.252" transform="translate(-25.358 -22.25)" fill="#68d2c0"/>
        <rect id="Rectangle_13326" data-name="Rectangle 13326" width="97.369" height="203.797" transform="translate(0 0)" fill="none"/>
      </g>
    </g>
  </g>
</svg>
