<svg xmlns="http://www.w3.org/2000/svg" xmlns:xlink="http://www.w3.org/1999/xlink" width="800.538" height="253" viewBox="0 0 800.538 253">
  <defs>
    <clipPath id="clip-path">
      <rect id="Rectangle_13420" data-name="Rectangle 13420" width="78.156" height="6.095" fill="none"/>
    </clipPath>
    <clipPath id="clip-path-2">
      <rect id="Rectangle_13421" data-name="Rectangle 13421" width="13.141" height="1.499" fill="#fff"/>
    </clipPath>
    <clipPath id="clip-path-3">
      <rect id="Rectangle_13424" data-name="Rectangle 13424" width="22.235" height="31.253" fill="none"/>
    </clipPath>
  </defs>
  <g id="Group_32788" data-name="Group 32788" transform="translate(0.538)">
    <g id="Group_32787" data-name="Group 32787">
      <g id="Group_32786" data-name="Group 32786">
        <rect id="Rectangle_12169" data-name="Rectangle 12169" width="800" height="253" fill="#D8DDE3"/>
        <path id="Path_17974" data-name="Path 17974" d="M4835.669,3900.215s105.7,99.729,206.706,59.906c97.273-38.35,138.849-85.855,218.053-64.756s126.775,82.59,198.79,81.273c80.239-1.466,172.35-59.583,173.941-56.424" transform="translate(-4835.5 -3750.215)" fill="none" stroke="#707070" stroke-linecap="round" stroke-width="1" stroke-dasharray="2 4"/>
        <g id="Group_32785" data-name="Group 32785" transform="translate(-9907 197)">
          <path id="Path_22087" data-name="Path 22087" d="M120.405,177.064H19.733a7.063,7.063,0,0,1-7.122-7.711L24.943,7.711A8.493,8.493,0,0,1,33.243,0H133.915a7.064,7.064,0,0,1,7.123,7.711L128.7,169.353a8.492,8.492,0,0,1-8.3,7.711" transform="translate(10325.215 -136.419)" fill="#00ae8d"/>
          <path id="Path_22091" data-name="Path 22091" d="M19.091,177.383a4.7,4.7,0,0,1-4.748-5.141l12.17-159.5A5.651,5.651,0,0,1,32.046,7.6H132.718a4.7,4.7,0,0,1,4.748,5.141l-12.17,159.5a5.651,5.651,0,0,1-5.533,5.141Z" transform="translate(10324.554 -139.309)" fill="#68d2c0"/>
          <g id="Group_32779" data-name="Group 32779" transform="translate(10368.741 -110.971)" opacity="0.2">
            <g id="Group_32778" data-name="Group 32778">
              <g id="Group_32777" data-name="Group 32777" clip-path="url(#clip-path)">
                <path id="Path_22092" data-name="Path 22092" d="M137.367,47.149H65.323A2.791,2.791,0,0,1,62.509,44.1a3.356,3.356,0,0,1,3.28-3.047h72.044a2.791,2.791,0,0,1,2.815,3.047,3.356,3.356,0,0,1-3.28,3.047" transform="translate(-62.499 -41.054)"/>
              </g>
            </g>
          </g>
          <g id="Group_32782" data-name="Group 32782" transform="translate(10400.542 -134.777)" opacity="0.3">
            <g id="Group_32781" data-name="Group 32781">
              <g id="Group_32780" data-name="Group 32780" clip-path="url(#clip-path-2)">
                <path id="Path_22093" data-name="Path 22093" d="M126.132,4.148H114.494A.686.686,0,0,1,113.8,3.4a.826.826,0,0,1,.807-.75h11.638a.687.687,0,0,1,.692.75.826.826,0,0,1-.807.749" transform="translate(-113.8 -2.649)" fill="#fff"/>
              </g>
            </g>
          </g>
          <path id="Path_22094" data-name="Path 22094" d="M61.769,40.8a7.7,7.7,0,0,0-7.789-8.432h73.14A7.7,7.7,0,0,1,134.91,40.8Z" transform="translate(10309.48 -148.723)" fill="#f0f0f0"/>
          <path id="Path_22095" data-name="Path 22095" d="M38.252,32.367A9.258,9.258,0,0,0,29.176,40.8l-7.5,98.23a9.258,9.258,0,0,1-9.076,8.433H85.746a9.258,9.258,0,0,0,9.076-8.433l7.495-98.23a9.259,9.259,0,0,1,9.076-8.432Z" transform="translate(10325.209 -148.723)" fill="#fff"/>
          <path id="Path_22096" data-name="Path 22096" d="M73.166,204.438a7.7,7.7,0,0,0,7.789,8.432H7.814a7.7,7.7,0,0,1-7.789-8.432Z" transform="translate(10330 -214.131)" fill="#f0f0f0"/>
          <path id="Path_22097" data-name="Path 22097" d="M46.248,197.328c.274-3.59-.853-6.493-4.436-6.493H98.135c3.583,0,6.279,3.279,4.436,6.493Z" transform="translate(10314.106 -208.96)" fill="#e0e0e0"/>
          <path id="Path_22098" data-name="Path 22098" d="M73.181,199.267a9.258,9.258,0,0,1,9.076-8.432H9.116A9.258,9.258,0,0,0,.04,199.267Z" transform="translate(10329.984 -208.96)" fill="#f0f0f0"/>
          <path id="Path_22099" data-name="Path 22099" d="M121.077,241.013H37.112a2.027,2.027,0,0,1-2.044-2.214,2.437,2.437,0,0,1,2.382-2.213h83.965a2.027,2.027,0,0,1,2.044,2.213,2.438,2.438,0,0,1-2.382,2.214" transform="translate(10316.672 -226.351)" fill="#fff"/>
          <path id="Path_22100" data-name="Path 22100" d="M78.179,258.174H35.8a2.027,2.027,0,0,1-2.044-2.214,2.437,2.437,0,0,1,2.382-2.213H78.516a2.027,2.027,0,0,1,2.044,2.213,2.438,2.438,0,0,1-2.382,2.214" transform="translate(10317.17 -232.875)" fill="#fff"/>
          <path id="Path_22101" data-name="Path 22101" d="M140.967,258.174H123.8a2.028,2.028,0,0,1-2.044-2.214,2.437,2.437,0,0,1,2.382-2.213H141.3a2.027,2.027,0,0,1,2.044,2.213,2.438,2.438,0,0,1-2.382,2.214" transform="translate(10283.719 -232.875)" fill="#fff"/>
          <path id="Path_22103" data-name="Path 22103" d="M46.923,76.479h2.085l-.514,6.731H46.41Z" transform="translate(10312.358 -165.491)" fill="#43b0ef"/>
          <path id="Path_22104" data-name="Path 22104" d="M52.716,76.479h1.942l2.25,3.724.285-3.724h1.96l-.513,6.731H56.679l-2.238-3.7-.282,3.7H52.2Z" transform="translate(10310.156 -165.491)" fill="#43b0ef"/>
          <path id="Path_22105" data-name="Path 22105" d="M64.578,76.479h2.174L67.9,81.323l1.865-4.844h2.111l-3.013,6.731H66.606Z" transform="translate(10305.452 -165.491)" fill="#43b0ef"/>
          <path id="Path_22106" data-name="Path 22106" d="M76.078,79.779a3.481,3.481,0,0,1,3.742-3.485,3.28,3.28,0,0,1,2.52.9,3.189,3.189,0,0,1,.717,2.527,4.37,4.37,0,0,1-.545,1.935,3.158,3.158,0,0,1-1.238,1.175,3.975,3.975,0,0,1-1.9.42,4.121,4.121,0,0,1-1.857-.363,2.537,2.537,0,0,1-1.123-1.148,3.648,3.648,0,0,1-.314-1.965m2.079.009a2.146,2.146,0,0,0,.267,1.465,1.185,1.185,0,0,0,1,.445,1.384,1.384,0,0,0,1.071-.436,2.65,2.65,0,0,0,.487-1.566,1.973,1.973,0,0,0-.278-1.389,1.212,1.212,0,0,0-1.006-.438,1.367,1.367,0,0,0-1.044.445,2.412,2.412,0,0,0-.493,1.474" transform="translate(10301.087 -165.42)" fill="#43b0ef"/>
          <path id="Path_22107" data-name="Path 22107" d="M89.38,76.479h2.085l-.514,6.731H88.867Z" transform="translate(10296.22 -165.491)" fill="#43b0ef"/>
          <path id="Path_22108" data-name="Path 22108" d="M99.326,80.385l1.781.551a3.682,3.682,0,0,1-.676,1.281,2.8,2.8,0,0,1-1.04.776,3.809,3.809,0,0,1-1.51.262,4.154,4.154,0,0,1-1.769-.319A2.542,2.542,0,0,1,95,81.814a3.632,3.632,0,0,1-.348-2.056,3.759,3.759,0,0,1,1.084-2.567,3.622,3.622,0,0,1,2.582-.9,3.23,3.23,0,0,1,1.961.514,2.732,2.732,0,0,1,.961,1.579l-1.868.409a1.456,1.456,0,0,0-.168-.45,1.066,1.066,0,0,0-.4-.367,1.166,1.166,0,0,0-.555-.129,1.331,1.331,0,0,0-1.127.569,2.557,2.557,0,0,0-.386,1.325,2.411,2.411,0,0,0,.223,1.534,1.075,1.075,0,0,0,.924.415,1.243,1.243,0,0,0,.927-.335,2.269,2.269,0,0,0,.518-.973" transform="translate(10294.027 -165.42)" fill="#43b0ef"/>
          <path id="Path_22109" data-name="Path 22109" d="M106.941,76.479h5.574l-.11,1.437h-3.489l-.082,1.07h3.237l-.1,1.373H108.73l-.1,1.327h3.59l-.117,1.525h-5.675Z" transform="translate(10289.544 -165.491)" fill="#43b0ef"/>
          <path id="Path_22110" data-name="Path 22110" d="M105.8,100.332H45.34l.128-1.678h60.46Z" transform="translate(10312.766 -173.92)" fill="#43b0ef"/>
          <path id="Path_22111" data-name="Path 22111" d="M105.56,101.361H45.1l-.392,5.134h60.46Z" transform="translate(10313.006 -174.949)" fill="#f0f0f0"/>
          <path id="Path_22112" data-name="Path 22112" d="M104.3,117.926H43.836l-.392,5.134H103.9Z" transform="translate(10313.485 -181.246)" fill="#f0f0f0"/>
          <path id="Path_22113" data-name="Path 22113" d="M103.032,134.491H42.572l-.392,5.134h60.46Z" transform="translate(10313.966 -187.542)" fill="#f0f0f0"/>
          <path id="Path_22114" data-name="Path 22114" d="M101.768,151.055H41.308l-.392,5.134h60.46Z" transform="translate(10314.446 -193.839)" fill="#f0f0f0"/>
          <path id="Path_22115" data-name="Path 22115" d="M100.538,169.3H40.078l.128-1.678h60.46Z" transform="translate(10314.766 -200.136)" fill="#43b0ef"/>
          <path id="Path_22116" data-name="Path 22116" d="M126.1,50.886h12.566l-.572,7.5H125.533Z" transform="translate(10282.282 -155.762)" fill="#f0f0f0"/>
          <rect id="Rectangle_13422" data-name="Rectangle 13422" width="136.276" height="177.064" transform="translate(10330 -136.419)" fill="none"/>
          <rect id="Rectangle_13423" data-name="Rectangle 13423" width="136.276" height="177.064" transform="translate(10330 -136.419)" fill="none"/>
          <g id="Group_32559" data-name="Group 32559" transform="translate(10455.135 -94.931)">
            <path id="Path_21971" data-name="Path 21971" d="M1061.213,614.146c-.815.059-1.6-.908-1.827-1.2a10.334,10.334,0,0,1-1.642-3.116q.253-.722.531-1.825,4.707-3.2,1.287-4.732a6.1,6.1,0,0,0-1.713,2.382,1.4,1.4,0,0,1-1.237-.835,41.428,41.428,0,0,0,1.266-5.47c-1.548-2.3-5.165-2.627-9.955-2.007q-.333,1.913-.547,4.052c-.847.78-.736,3.672.043,7.006q-.584,2.844,3.511,3.1c.026.457-.015.984-.024,1.3-.007.29-.017.859-.321.947l-.506.125c.051,6.777,3.52,8.081,11.133.26" transform="translate(-1012.365 -590.551)" fill="#f9af79" fill-rule="evenodd"/>
            <path id="Path_21972" data-name="Path 21972" d="M1041.622,566.3c4.79-.621,8.408-.293,9.955,2.006a41.405,41.405,0,0,1-1.266,5.469,1.406,1.406,0,0,0,1.238.834,6.117,6.117,0,0,1,1.713-2.381q3.421,1.534-1.288,4.733-.276,1.1-.53,1.824c2.824-.633,5.187-3.158,5.519-4.252,3.295-6.493-.379-9.234-2.345-10.235-.869-6.431-10.242-.87-12.707-4.8-5.16,2.944-1.737,6.738-.287,6.8" transform="translate(-1006.067 -559.499)" fill="#4d4d4d" fill-rule="evenodd"/>
            <path id="Path_21973" data-name="Path 21973" d="M1073.712,676.455a8.068,8.068,0,0,1-3.148.661,9.676,9.676,0,0,1-.022,1.292,4.96,4.96,0,0,0,3.17-1.953" transform="translate(-1031.999 -656.158)" fill="#ed7d57" fill-rule="evenodd"/>
            <path id="Path_21974" data-name="Path 21974" d="M1139.215,1394.146c2.975-1.047,3.214-2.581,4.818-3.329s1.8-2.1.221-3.556c-1.166.931-2.612,2.076-3.379,1.471-.511-.4-2.246-.378-2.59.212-1.511,3.513-3.613,2.4-4.027,4-.049,2.128,3.593,1.685,4.958,1.2" transform="translate(-1084.658 -1243.613)" fill="#3d3d3d" fill-rule="evenodd"/>
            <path id="Path_21975" data-name="Path 21975" d="M1002.546,1384.986c5.24-.085,9.156-.147,10.965-.719,1.952-.617,1.548-1.807.427-3.711-4.938,2.271-3.623-.467-5.932-.12a14.672,14.672,0,0,1-7.21,2.627c-1.347.993-.8,1.878,1.75,1.922" transform="translate(-973.77 -1237.948)" fill="#3d3d3d" fill-rule="evenodd"/>
            <path id="Path_21976" data-name="Path 21976" d="M975.36,692.736a35.4,35.4,0,0,1,7.044-1.381q.565,8.619,8.992-.12c5.411.454,6.47.524,9.472,1.5,6.5,6.205,7.094,13.367,10.489,21.55a23.111,23.111,0,0,0-8,1.533q-.823-2.942-1.378-4.736.155,16.188.119,22.182c-12.434,4.926-22.676,3.239-26.858-.6q-.088-14.388-.239-22.781a27.368,27.368,0,0,1-4.137,4.077c-3.048-3.5-5.114-4.9-6.842-6.962a91.037,91.037,0,0,1,11.339-14.26" transform="translate(-943.964 -668.373)" fill="#ff8a54" fill-rule="evenodd"/>
            <path id="Path_21977" data-name="Path 21977" d="M854.776,734.384q9.8,4.071,13.72,6.728l1.16-1.719c1.081,1.082,2.314,2.143,3.818,3.683a20.634,20.634,0,0,1-4.623,3.665q-6.809-.727-15.049-10.311a6.672,6.672,0,0,1-3.773-1.857,3.256,3.256,0,0,1,1.245-2.476q-3.417-2.226-2.72-3.187,5.353,3.31,6.222,5.474" transform="translate(-848.436 -699.512)" fill="#f9af79" fill-rule="evenodd"/>
            <path id="Path_21978" data-name="Path 21978" d="M1020.556,929.959c.246.934-.772,6.413-.939,9.271-1.653,10.2-.237,23.485.653,40.563,1.593,6.018,3.942,14.038,3.789,25.326,2.774.848,3.779.935,6.283.3,1.75-11.78.557-21.214-1.025-25.57,1.013-6.735,2.524-14.273,4.725-25.145,2.48,11.848,5.8,20.641,7.234,26.378.284,6.4,1.578,15.029,2.255,25.9a11.592,11.592,0,0,0,5.477.539c2.774-9.991,2.308-20.863,1.133-32.614-1.25-14.127.811-30.08-1.252-35.611a40.846,40.846,0,0,1-1.475-8.736q-15.56,5.178-26.857-.6" transform="translate(-989.279 -865.671)" fill="#ff8a54" fill-rule="evenodd"/>
            <path id="Path_21979" data-name="Path 21979" d="M1027.638,780.622c.666.1,1.3.186,1.888.266q.048,7.139.025,10.7c-.587.262-1.9-7.741-1.913-10.962m-30.4-9.536a22.133,22.133,0,0,0,5.228-7.427,28.889,28.889,0,0,0-.222,4.791,26.736,26.736,0,0,1-3.929,3.831q-.558-.641-1.077-1.195m29.881-9.282q1.21,3.893,2.312,7.6.029,3.128.053,5.876c-.533-.05-1.158-.084-1.9-.1q-.114-7.6-.467-13.372" transform="translate(-971.417 -726.697)" fill="#ef7b45" fill-rule="evenodd"/>
            <path id="Path_21980" data-name="Path 21980" d="M1005.033,783.317H991.346a.951.951,0,0,0-.96,1.141l3.072,19.391a1.391,1.391,0,0,0,1.32,1.141h13.688a.952.952,0,0,0,.96-1.141l-3.071-19.391a1.393,1.393,0,0,0-1.321-1.141" transform="translate(-965.742 -744.475)" fill="#4d4d4d" fill-rule="evenodd"/>
            <path id="Path_21981" data-name="Path 21981" d="M1088.532,824.453a17.306,17.306,0,0,1,.354,7.508c-1.478,2.146-7.438.946-22.788-1.62a4.228,4.228,0,0,1-3.417.78c-1.6-.4-1.682-.82-3.482-2.518a2.952,2.952,0,0,1,.269-3.028c2.027,1.193,3.094,1.828,5.378,1.9q-.911-2.346-.275-3.03a4.523,4.523,0,0,1,1.522,2.818c12.1-.526,15.293-.456,16.9.39q-.262-1.14-.465-2a21.368,21.368,0,0,1,6-1.2" transform="translate(-1022.398 -778.472)" fill="#f9af79" fill-rule="evenodd"/>
            <path id="Path_21982" data-name="Path 21982" d="M1053.463,1364.652a12.368,12.368,0,0,0-.052,2.765c-4.132,1.8-3.43-.277-5.082-.328a7.245,7.245,0,0,0,.808-2.8,8.386,8.386,0,0,0,4.326.361m19.255,1.893a7.81,7.81,0,0,0,.218,1.972c-1.1.874-2.375,1.785-3.076,1.23a2.664,2.664,0,0,0-1.852-.2,20.228,20.228,0,0,0,.635-3.392,10.778,10.778,0,0,0,4.075.391" transform="translate(-1013.64 -1224.63)" fill="#f9af79" fill-rule="evenodd"/>
            <path id="Path_21983" data-name="Path 21983" d="M1019.616,983.382q10.943,10.2,29.272.064c2.064,5.531,0,21.484,1.253,35.611,1.174,11.751,1.64,22.622-1.134,32.614-.225.027-.442.05-.651.067a10.759,10.759,0,0,1-4.075-.392c-.241-.064-.49-.136-.751-.214-.677-10.87-1.97-19.5-2.255-25.9-1.436-5.738-4.754-14.53-7.234-26.378-2.2,10.872-3.713,18.41-4.726,25.145,1.582,4.356,2.776,13.79,1.026,25.57-.456.116-.862.207-1.24.275a8.387,8.387,0,0,1-4.326-.361c-.226-.065-.464-.135-.717-.213.153-11.288-2.2-19.308-3.79-25.326-.89-17.078-2.306-30.359-.653-40.563" transform="translate(-989.284 -909.823)" fill="#4d4d4d" fill-rule="evenodd"/>
          </g>
          <path id="_-_Outline" data-name="` - Outline" d="M1.617-31.847h20.7v.69l-.081.124a18.777,18.777,0,0,1-2.118,3.054l-.138.113H15.389a7.758,7.758,0,0,1,.922,2.17h5.407l.049.01a.591.591,0,0,1,.507.574v.151l-.084.126c-.642.963-1.134,1.7-1.462,2.177-.166.243-.294.428-.381.551-.161.227-.278.392-.547.392H16.5a9.89,9.89,0,0,1-1.44,3.354l-.017.027-.02.025a9.314,9.314,0,0,1-3.483,2.893,14.231,14.231,0,0,1-4.885,1.408C7.73-12.684,10.766-9.073,18.248-.325L18.953.5H12.284l-.15-.174C8.205-4.251,5.217-7.738,3.252-10.037c-.983-1.15-1.73-2.027-2.222-2.608-.246-.291-.434-.514-.558-.663-.243-.292-.3-.361-.3-.55v-2.889L.4-17.3l.388.054a17.545,17.545,0,0,0,2.387.142c4.231,0,6.777-1.3,7.783-3.98l0-.01a3.022,3.022,0,0,0,.174-.616H-.336A.571.571,0,0,1-.92-22.3v-.155l.088-.128c.663-.963,1.17-1.7,1.509-2.177.171-.243.3-.428.393-.551.164-.224.282-.386.547-.386h8.646A5.858,5.858,0,0,0,7.81-27.349a9.433,9.433,0,0,0-2.854-.517H-.878v-.757l.085-.126c.642-.956,1.136-1.684,1.469-2.164.171-.246.3-.426.39-.551C1.218-31.67,1.348-31.847,1.617-31.847Zm19.3,1H1.853c-.16.219-.526.742-1.363,1.981H4.955a10.434,10.434,0,0,1,3.178.57l.028.01A6.09,6.09,0,0,1,11.6-25.459l.052.1v.659H1.859c-.169.233-.549.771-1.385,1.981h11.7v.5a3.988,3.988,0,0,1-.286,1.482C10.733-17.664,7.8-16.108,3.17-16.108c-.732,0-1.4-.03-2-.089v2.167c.492.6,3.029,3.579,11.572,13.53h4.039c-3.688-4.314-6.516-7.639-8.414-9.891-1.01-1.2-1.778-2.119-2.284-2.736-.255-.311-.449-.553-.578-.719-.2-.253-.295-.38-.295-.578v-.542h.5a12.6,12.6,0,0,0,5.411-1.358l.03-.013a8.308,8.308,0,0,0,3.074-2.577,8.1,8.1,0,0,0,1.338-3.342l.039-.458h3.95c.166-.236.536-.776,1.342-1.981H15.511l-.084-.4a6.588,6.588,0,0,0-1.4-2.95l-.705-.825h6.254C19.732-29.075,20.095-29.589,20.919-30.847Z" transform="translate(10427)" fill="rgba(0,0,0,0)"/>
          <g id="Group_32784" data-name="Group 32784" transform="matrix(0.999, 0.035, -0.035, 0.999, 10428.165, -32.515)">
            <g id="Group_32783" data-name="Group 32783" transform="translate(0 0)" clip-path="url(#clip-path-3)">
              <path id="Path_22117" data-name="Path 22117" d="M2.037,0h20.2V.043a31.81,31.81,0,0,1-2.015,2.93h-5.4a7.025,7.025,0,0,1,1.511,3.16h5.753q.105.021.105.084Q20.261,9.106,20.22,9.106H16.482a8.547,8.547,0,0,1-1.427,3.58,8.774,8.774,0,0,1-3.3,2.742,13.076,13.076,0,0,1-5.627,1.4v.043q0,.208,12.157,14.38H12.934Q1.092,17.5,1.092,17.437V14.653l.042-.1a18.171,18.171,0,0,0,2.457.147q6.634,0,8.251-4.291a3.455,3.455,0,0,0,.252-1.3H.084A.075.075,0,0,1,0,9.023Q2,6.133,2.037,6.133h9.532V6.092A5.6,5.6,0,0,0,8.4,3.516a9.951,9.951,0,0,0-3.024-.543H.042v-.1Q1.974,0,2.037,0" transform="translate(0 0)" fill="#fff"/>
            </g>
          </g>
        </g>
      </g>
      <path id="Path_1" data-name="Path 1" d="M.842,153.267A2.884,2.884,0,0,1,0,151.14,2.85,2.85,0,0,1,.881,149a3.007,3.007,0,0,1,2.159-.842,3.243,3.243,0,0,1,2.338.966l-.709.748a2.179,2.179,0,0,0-1.629-.686,1.922,1.922,0,0,0-1.395.553,2.036,2.036,0,0,0-.008,2.782,1.867,1.867,0,0,0,1.387.561,2.305,2.305,0,0,0,1.613-.662v-.873H2.969v-.935h2.65v2.33A3.5,3.5,0,0,1,2.992,154.1a2.963,2.963,0,0,1-2.151-.834" transform="translate(639.195 -88.684)" fill="#ff5100"/>
      <rect id="Rectangle_1" data-name="Rectangle 1" width="1.013" height="5.923" transform="translate(645.701 59.409)" fill="#ff5100"/>
      <path id="Path_2" data-name="Path 2" d="M31.864,154.506a2.2,2.2,0,0,1,1.629-.647,2.173,2.173,0,0,1,1.621.647,2.278,2.278,0,0,1,0,3.164,2.165,2.165,0,0,1-1.621.639,2.173,2.173,0,0,1-2.26-2.229,2.158,2.158,0,0,1,.631-1.575m2.509.67a1.224,1.224,0,0,0-1.761,0,1.328,1.328,0,0,0,0,1.816,1.223,1.223,0,0,0,1.761,0,1.328,1.328,0,0,0,0-1.816" transform="translate(616.283 -92.868)" fill="#ff5100"/>
      <path id="Path_3" data-name="Path 3" d="M55.035,150.15a2.363,2.363,0,0,1,0,3.164,1.989,1.989,0,0,1-1.5.631,1.667,1.667,0,0,1-1.356-.662v.561h-1v-5.923h1.013v2.237a1.693,1.693,0,0,1,1.348-.647,1.952,1.952,0,0,1,1.5.639m-.772.67a1.126,1.126,0,0,0-.881-.374,1.142,1.142,0,0,0-.888.374,1.28,1.28,0,0,0-.343.9,1.318,1.318,0,0,0,.343.919,1.163,1.163,0,0,0,.888.366,1.146,1.146,0,0,0,.881-.366,1.318,1.318,0,0,0,.343-.919,1.28,1.28,0,0,0-.343-.9" transform="translate(601.652 -88.512)" fill="#ff5100"/>
      <path id="Path_4" data-name="Path 4" d="M73.575,153.989h.966v4.232h-.966V157.7a1.769,1.769,0,0,1-1.38.623,1.956,1.956,0,0,1-1.5-.639,2.266,2.266,0,0,1-.592-1.6,2.185,2.185,0,0,1,.592-1.574,2.011,2.011,0,0,1,1.5-.623,1.781,1.781,0,0,1,1.38.639Zm-.327,1.2a1.261,1.261,0,0,0-1.792,0,1.394,1.394,0,0,0,0,1.831,1.261,1.261,0,0,0,1.792,0,1.371,1.371,0,0,0,0-1.831" transform="translate(587.772 -92.889)" fill="#ff5100"/>
      <rect id="Rectangle_2" data-name="Rectangle 2" width="1.013" height="5.923" transform="translate(663.348 59.409)" fill="#ff5100"/>
      <path id="Path_5" data-name="Path 5" d="M107.208,154.294l-.476-1.309H104.69l-.476,1.309h-1.13l2.229-5.759h.818l2.205,5.759Zm-1.488-4.24L105,152.026h1.426Z" transform="translate(563.574 -88.963)" fill="#ff5100"/>
      <path id="Path_6" data-name="Path 6" d="M123.645,157.381l.577-.623a1.477,1.477,0,0,0,1.138.6c.366,0,.623-.195.623-.444a.468.468,0,0,0-.319-.4,4.864,4.864,0,0,0-.514-.21c-.265-.1-.444-.179-.538-.226a1.175,1.175,0,0,1-.288-1.979,1.69,1.69,0,0,1,1.114-.351,1.846,1.846,0,0,1,1.45.624l-.53.647a1.279,1.279,0,0,0-.951-.436c-.319,0-.514.171-.514.4,0,.187.125.327.366.413.608.242.951.382,1.021.421a1.189,1.189,0,0,1,.717,1.075,1.2,1.2,0,0,1-.452.959,1.782,1.782,0,0,1-1.192.382,2.051,2.051,0,0,1-1.706-.842" transform="translate(548.491 -92.782)" fill="#ff5100"/>
      <path id="Path_7" data-name="Path 7" d="M137.681,157.381l.577-.623a1.477,1.477,0,0,0,1.138.6c.366,0,.623-.195.623-.444a.468.468,0,0,0-.319-.4,4.894,4.894,0,0,0-.514-.21c-.265-.1-.444-.179-.538-.226a1.175,1.175,0,0,1-.288-1.979,1.69,1.69,0,0,1,1.114-.351,1.846,1.846,0,0,1,1.449.624l-.53.647a1.279,1.279,0,0,0-.951-.436c-.319,0-.514.171-.514.4,0,.187.125.327.366.413.608.242.951.382,1.021.421a1.189,1.189,0,0,1,.717,1.075,1.2,1.2,0,0,1-.452.959,1.782,1.782,0,0,1-1.192.382,2.052,2.052,0,0,1-1.707-.842" transform="translate(538.195 -92.782)" fill="#ff5100"/>
      <path id="Path_8" data-name="Path 8" d="M152.742,148.208a.636.636,0,0,1,.655-.639.639.639,0,1,1-.655.639m1.153,5.377h-1.021v-4.232H153.9Z" transform="translate(527.146 -88.254)" fill="#ff5100"/>
      <path id="Path_9" data-name="Path 9" d="M159.585,157.381l.577-.623a1.477,1.477,0,0,0,1.138.6c.366,0,.623-.195.623-.444a.467.467,0,0,0-.319-.4,4.891,4.891,0,0,0-.514-.21c-.265-.1-.444-.179-.538-.226a1.174,1.174,0,0,1-.288-1.979,1.689,1.689,0,0,1,1.114-.351,1.846,1.846,0,0,1,1.449.624l-.53.647a1.279,1.279,0,0,0-.951-.436c-.319,0-.514.171-.514.4,0,.187.125.327.366.413.608.242.951.382,1.021.421a1.189,1.189,0,0,1,.717,1.075,1.2,1.2,0,0,1-.452.959,1.782,1.782,0,0,1-1.192.382,2.051,2.051,0,0,1-1.706-.842" transform="translate(522.127 -92.782)" fill="#ff5100"/>
      <path id="Path_10" data-name="Path 10" d="M176.791,154.13a2.1,2.1,0,0,1-1.223.351c-.959,0-1.45-.569-1.45-1.652v-1.823h-.7v-.857h.717v-1.5h1.006v1.5h1.418v.857h-1.418v1.785c0,.506.2.764.615.764a1.368,1.368,0,0,0,.717-.218Z" transform="translate(511.98 -89.048)" fill="#ff5100"/>
      <path id="Path_11" data-name="Path 11" d="M190.492,153.989h.966v4.232h-.966V157.7a1.769,1.769,0,0,1-1.38.623,1.956,1.956,0,0,1-1.5-.639,2.266,2.266,0,0,1-.592-1.6,2.185,2.185,0,0,1,.592-1.574,2.011,2.011,0,0,1,1.5-.623,1.78,1.78,0,0,1,1.38.639Zm-.327,1.2a1.261,1.261,0,0,0-1.792,0,1.394,1.394,0,0,0,0,1.831,1.261,1.261,0,0,0,1.792,0,1.371,1.371,0,0,0,0-1.831" transform="translate(502.004 -92.889)" fill="#ff5100"/>
      <path id="Path_12" data-name="Path 12" d="M207.575,158.2v-4.232h1v.593a1.447,1.447,0,0,1,1.333-.7,1.655,1.655,0,0,1,1.177.46,1.706,1.706,0,0,1,.483,1.3V158.2h-1.021v-2.3c0-.709-.366-1.114-.927-1.114a1.041,1.041,0,0,0-1.029,1.13V158.2Z" transform="translate(486.922 -92.868)" fill="#ff5100"/>
      <path id="Path_13" data-name="Path 13" d="M225.978,157.691a2.155,2.155,0,0,1-.624-1.59,2.132,2.132,0,0,1,.631-1.59,2.241,2.241,0,0,1,1.637-.623,2.09,2.09,0,0,1,1.964,1.161l-.826.444a1.309,1.309,0,0,0-1.122-.67,1.239,1.239,0,0,0-1.27,1.278,1.257,1.257,0,0,0,.351.912,1.186,1.186,0,0,0,.888.366,1.31,1.31,0,0,0,1.138-.662l.826.483a2.349,2.349,0,0,1-3.593.491" transform="translate(473.879 -92.889)" fill="#ff5100"/>
      <path id="Path_14" data-name="Path 14" d="M247.164,156.468h-3.226a1.213,1.213,0,0,0,1.293.974,2.388,2.388,0,0,0,1.4-.437l.405.725a3,3,0,0,1-1.839.584A2.119,2.119,0,0,1,242.9,156.1a2.17,2.17,0,0,1,.608-1.582,2.132,2.132,0,0,1,1.59-.631,2.006,2.006,0,0,1,2.1,2.127,3.585,3.585,0,0,1-.031.452m-3.226-.772h2.26a1.061,1.061,0,0,0-1.1-.959,1.148,1.148,0,0,0-1.161.959" transform="translate(461.008 -92.889)" fill="#ff5100"/>
      <path id="Path_15" data-name="Path 15" d="M269.835,163.265a1.194,1.194,0,0,1,1.231-1.184,1.164,1.164,0,0,1,1.184,1.184,1.181,1.181,0,0,1-1.184,1.215,1.211,1.211,0,0,1-1.231-1.215" transform="translate(441.25 -98.9)" fill="#ff5100"/>
      <path id="Path_16" data-name="Path 16" d="M289.86,149.564H288.2v-1.028h4.4v1.028h-1.66v4.731H289.86Z" transform="translate(427.777 -88.963)" fill="#ff5100"/>
      <path id="Path_17" data-name="Path 17" d="M305.543,158.2v-4.232h.974v.585a1.272,1.272,0,0,1,1.177-.694,1.535,1.535,0,0,1,.506.086l-.086.974a1.617,1.617,0,0,0-.49-.086c-.632,0-1.068.421-1.068,1.3V158.2Z" transform="translate(415.055 -92.868)" fill="#ff5100"/>
      <path id="Path_18" data-name="Path 18" d="M319.663,153.989h.966v4.232h-.966V157.7a1.769,1.769,0,0,1-1.379.623,1.955,1.955,0,0,1-1.5-.639,2.265,2.265,0,0,1-.592-1.6,2.184,2.184,0,0,1,.592-1.574,2.01,2.01,0,0,1,1.5-.623,1.78,1.78,0,0,1,1.379.639Zm-.327,1.2a1.261,1.261,0,0,0-1.793,0,1.394,1.394,0,0,0,0,1.831,1.261,1.261,0,0,0,1.793,0,1.371,1.371,0,0,0,0-1.831" transform="translate(407.247 -92.889)" fill="#ff5100"/>
      <path id="Path_19" data-name="Path 19" d="M338.415,154.268h1.114l-1.847,4.224h-.764l-1.839-4.224H336.2l1.114,2.837Z" transform="translate(393.388 -93.168)" fill="#ff5100"/>
      <path id="Path_20" data-name="Path 20" d="M356.6,156.468H353.37a1.214,1.214,0,0,0,1.293.974,2.388,2.388,0,0,0,1.4-.437l.405.725a2.993,2.993,0,0,1-1.839.584,2.119,2.119,0,0,1-2.291-2.213,2.169,2.169,0,0,1,.608-1.582,2.13,2.13,0,0,1,1.589-.631,2.006,2.006,0,0,1,2.1,2.127,3.7,3.7,0,0,1-.031.452m-3.226-.772h2.26a1.06,1.06,0,0,0-1.1-.959,1.149,1.149,0,0,0-1.161.959" transform="translate(380.73 -92.889)" fill="#ff5100"/>
      <rect id="Rectangle_3" data-name="Rectangle 3" width="1.013" height="5.923" transform="translate(738.144 59.409)" fill="#ff5100"/>
      <rect id="Rectangle_4" data-name="Rectangle 4" width="1.068" height="5.759" transform="translate(742.266 59.572)" fill="#ff5100"/>
      <path id="Path_21" data-name="Path 21" d="M395.206,158.2v-4.232h1v.593a1.447,1.447,0,0,1,1.333-.7,1.655,1.655,0,0,1,1.177.46,1.706,1.706,0,0,1,.483,1.3V158.2h-1.021v-2.3c0-.709-.366-1.114-.927-1.114a1.041,1.041,0,0,0-1.029,1.13V158.2Z" transform="translate(349.28 -92.868)" fill="#ff5100"/>
      <path id="Path_22" data-name="Path 22" d="M412.547,157.381l.577-.623a1.477,1.477,0,0,0,1.138.6c.366,0,.623-.195.623-.444a.468.468,0,0,0-.319-.4,4.9,4.9,0,0,0-.514-.21c-.265-.1-.444-.179-.538-.226a1.175,1.175,0,0,1-.288-1.979,1.69,1.69,0,0,1,1.114-.351,1.846,1.846,0,0,1,1.449.624l-.53.647a1.28,1.28,0,0,0-.951-.436c-.319,0-.514.171-.514.4,0,.187.125.327.366.413.608.242.951.382,1.021.421a1.189,1.189,0,0,1,.717,1.075,1.2,1.2,0,0,1-.452.959,1.784,1.784,0,0,1-1.193.382,2.052,2.052,0,0,1-1.707-.842" transform="translate(336.559 -92.782)" fill="#ff5100"/>
      <path id="Path_23" data-name="Path 23" d="M427.842,156.731v-2.463h1.021v2.463a.894.894,0,1,0,1.784,0v-2.463h1.021v2.463a1.914,1.914,0,0,1-3.826,0" transform="translate(325.339 -93.168)" fill="#ff5100"/>
      <path id="Path_24" data-name="Path 24" d="M445.857,158.2v-4.232h.974v.585a1.272,1.272,0,0,1,1.177-.694,1.535,1.535,0,0,1,.507.086l-.086.974a1.619,1.619,0,0,0-.491-.086c-.631,0-1.068.421-1.068,1.3V158.2Z" transform="translate(312.123 -92.868)" fill="#ff5100"/>
      <path id="Path_25" data-name="Path 25" d="M459.978,153.989h.966v4.232h-.966V157.7a1.769,1.769,0,0,1-1.379.623,1.955,1.955,0,0,1-1.5-.639,2.265,2.265,0,0,1-.592-1.6,2.184,2.184,0,0,1,.592-1.574,2.01,2.01,0,0,1,1.5-.623,1.78,1.78,0,0,1,1.379.639Zm-.327,1.2a1.261,1.261,0,0,0-1.793,0,1.394,1.394,0,0,0,0,1.831,1.261,1.261,0,0,0,1.793,0,1.371,1.371,0,0,0,0-1.831" transform="translate(304.314 -92.889)" fill="#ff5100"/>
      <path id="Path_26" data-name="Path 26" d="M477.061,158.2v-4.232h1v.593a1.447,1.447,0,0,1,1.333-.7,1.654,1.654,0,0,1,1.177.46,1.705,1.705,0,0,1,.483,1.3V158.2H480.03v-2.3c0-.709-.366-1.114-.927-1.114a1.041,1.041,0,0,0-1.029,1.13V158.2Z" transform="translate(289.232 -92.868)" fill="#ff5100"/>
      <path id="Path_27" data-name="Path 27" d="M495.465,157.691a2.154,2.154,0,0,1-.624-1.59,2.132,2.132,0,0,1,.631-1.59,2.242,2.242,0,0,1,1.637-.623,2.09,2.09,0,0,1,1.964,1.161l-.826.444a1.308,1.308,0,0,0-1.122-.67,1.239,1.239,0,0,0-1.27,1.278,1.257,1.257,0,0,0,.351.912,1.187,1.187,0,0,0,.888.366,1.31,1.31,0,0,0,1.138-.662l.826.483a2.349,2.349,0,0,1-3.592.491" transform="translate(276.189 -92.889)" fill="#ff5100"/>
      <path id="Path_28" data-name="Path 28" d="M516.65,156.468h-3.226a1.214,1.214,0,0,0,1.294.974,2.388,2.388,0,0,0,1.4-.437l.405.725a2.994,2.994,0,0,1-1.839.584,2.119,2.119,0,0,1-2.291-2.213,2.169,2.169,0,0,1,.608-1.582,2.131,2.131,0,0,1,1.59-.631,2.006,2.006,0,0,1,2.1,2.127,3.7,3.7,0,0,1-.031.452m-3.226-.772h2.26a1.06,1.06,0,0,0-1.1-.959,1.149,1.149,0,0,0-1.161.959" transform="translate(263.318 -92.889)" fill="#ff5100"/>
      <path id="Path_29" data-name="Path 29" d="M416.927,57.905l.19-.488,2.088-5.375.464-1.2h0l-1.2.464L413.1,53.4l-.529.206-.206.53-2.088,5.375-.464,1.2h0l1.2-.464,5.375-2.088.433-.168.1-.038Zm1.021-5.337h0l-1.676,4.005-1.165-1.165-1.165-1.165Zm-6.416,6.416,1.675-4.005,1.165,1.165,1.165,1.165-4.005,1.676Z" transform="translate(338.566 -17.301)" fill="#ff5100"/>
      <path id="Path_30" data-name="Path 30" d="M138.213,43.049l2.517-2.42a6.651,6.651,0,0,0,5.906,3.647c2.453,0,4.066-1.452,4.066-3.26,0-1.194-.775-2.226-2.356-3.065q-.581-.291-2.42-1.065c-1.194-.549-2.13-1-2.743-1.356-2.42-1.452-3.615-3.389-3.615-5.777a6.1,6.1,0,0,1,2.065-4.712,7.77,7.77,0,0,1,5.422-1.9,8.845,8.845,0,0,1,7.261,3.421l-2.292,2.55a6.081,6.081,0,0,0-4.938-2.453c-2.065,0-3.55,1.13-3.55,2.9a3.3,3.3,0,0,0,2,2.84c.419.226,1.291.678,2.679,1.323,1.388.613,2.356,1.1,2.937,1.42a6.226,6.226,0,0,1,3.647,5.68,6.4,6.4,0,0,1-2.291,5.035,8.766,8.766,0,0,1-5.874,1.937,9.457,9.457,0,0,1-8.423-4.744" transform="translate(537.805 3.027)" fill="#00ae8d"/>
      <path id="Path_31" data-name="Path 31" d="M216.221,48.56V24.711h15.232v3.518H219.932v6.487h10.682v3.518H219.932v6.809h11.554V48.56Z" transform="translate(480.58 1.872)" fill="#00ae8d"/>
      <path id="Path_32" data-name="Path 32" d="M287.419,44.307a11.943,11.943,0,0,1-3.485-8.81,11.7,11.7,0,0,1,3.614-8.842,12.171,12.171,0,0,1,8.843-3.518,13.067,13.067,0,0,1,9.843,4.228l-2.549,2.517a9.363,9.363,0,0,0-7.261-3.13,8.419,8.419,0,0,0-6.2,2.485,8.515,8.515,0,0,0-2.485,6.261,8.465,8.465,0,0,0,2.453,6.229,8.3,8.3,0,0,0,6.132,2.453,10.2,10.2,0,0,0,7.261-3.1V36.82h-7.519V33.463h10.973v9.359A14.046,14.046,0,0,1,296.23,47.76a12.043,12.043,0,0,1-8.811-3.453" transform="translate(430.907 3.028)" fill="#00ae8d"/>
      <path id="Path_33" data-name="Path 33" d="M385.567,44.275a11.806,11.806,0,0,1-3.518-8.682,12.377,12.377,0,1,1,24.753-.1,11.764,11.764,0,0,1-3.615,8.713,12.119,12.119,0,0,1-8.874,3.583,11.9,11.9,0,0,1-8.746-3.518m14.878-2.582a8.394,8.394,0,0,0,2.485-6.164,8.491,8.491,0,0,0-2.485-6.229,8.532,8.532,0,0,0-12.07.032,8.391,8.391,0,0,0-2.452,6.2,8.446,8.446,0,0,0,2.42,6.132,8.65,8.65,0,0,0,12.1.032" transform="translate(358.932 3.028)" fill="#00ae8d"/>
      <path id="Path_34" data-name="Path 34" d="M72.325,41.535l-1.508-3.423L65.925,27l-1.7-3.863h0L62.522,27l-4.893,11.11-1.507,3.423-2.756,6.259H57.4l2.566-6.259h8.516l2.566,6.259h4.034Zm-8.1-3.423H61.369l2.854-6.961h0l2.855,6.961Z" transform="translate(600.048 3.026)" fill="#00ae8d"/>
      <path id="Path_35" data-name="Path 35" d="M407.226,3.155V0h11.236V3.123Z" transform="translate(340.462 20)" fill="#00ae8d"/>
    </g>
    <text id="Your_Invoice_has_been_generated" data-name="Your Invoice has 
been generated" transform="translate(40 70)" fill="#ff5100" font-size="40" font-family="Mulish-Light, Mulish" font-weight="300"><tspan x="0" y="0">Your </tspan><tspan y="0" font-family="Mulish-ExtraBold, Mulish" font-weight="800">Invoice Has </tspan><tspan font-family="Mulish-ExtraBold, Mulish" font-weight="800"><tspan x="0" y="50">Been Generated</tspan></tspan></text>
  </g>
</svg>
