<svg xmlns="http://www.w3.org/2000/svg" width="35.503" height="25.822" viewBox="0 0 35.503 25.822">
  <path id="Path_21282" data-name="Path 21282" d="M32.272,1.076H3.227A3.228,3.228,0,0,0,0,4.3V23.67A3.228,3.228,0,0,0,3.227,26.9H32.272A3.229,3.229,0,0,0,35.5,23.67V4.3a3.229,3.229,0,0,0-3.231-3.227M3.227,2.692H32.272a1.625,1.625,0,0,1,.541.1L18.843,16.76a1.549,1.549,0,0,1-2.187,0L2.69,2.79a1.6,1.6,0,0,1,.537-.1M1.611,23.67V4.3a1.49,1.49,0,0,1,.03-.277L11.6,13.989,1.641,23.952a1.577,1.577,0,0,1-.03-.281m30.66,1.616H3.227a1.6,1.6,0,0,1-.537-.1L12.747,15.127,15.513,17.9a3.155,3.155,0,0,0,4.472,0l2.771-2.771L32.813,25.188a1.625,1.625,0,0,1-.541.1m1.616-1.616a1.577,1.577,0,0,1-.03.281l-9.963-9.963,9.963-9.963a1.49,1.49,0,0,1,.03.277Z" transform="translate(0 -1.076)" fill="#4d4d4d" fill-rule="evenodd"/>
</svg>
