<svg xmlns="http://www.w3.org/2000/svg" width="35.002" height="35.01" viewBox="0 0 35.002 35.01">
  <g id="Page-1" transform="translate(-0.017 0)">
    <g id="_033---Insurance" data-name="033---Insurance" transform="translate(0.017 0.001)">
      <path id="Shape" d="M32.322,3.88,23.569.049a.584.584,0,0,0-.467,0L14.35,3.88a.583.583,0,0,0-.35.534v9.161a6.427,6.427,0,0,0,2.661,5.2l6.049,4.363a1.068,1.068,0,0,0,1.252,0l6.049-4.362a6.427,6.427,0,0,0,2.661-5.2V4.415A.583.583,0,0,0,32.322,3.88Zm-.817,9.7a5.257,5.257,0,0,1-2.176,4.251L23.336,22.15l-5.993-4.322a5.257,5.257,0,0,1-2.176-4.251V4.8l8.169-3.576L31.505,4.8Z" transform="translate(-5.841 -0.001)" fill="#00ae8d"/>
      <path id="Shape-2" data-name="Shape" d="M24.769,4.415,18.35,7.225A.583.583,0,0,0,18,7.76v7.635a4.084,4.084,0,0,0,1.692,3.3l4.969,3.584a.583.583,0,0,0,.683,0L30.312,18.7A4.085,4.085,0,0,0,32,15.395V7.76a.583.583,0,0,0-.35-.534l-6.419-2.81A.584.584,0,0,0,24.769,4.415Zm6.068,3.726v7.254a2.918,2.918,0,0,1-1.208,2.359L25,21.091l-4.627-3.338a2.918,2.918,0,0,1-1.208-2.359V8.141L25,5.587Z" transform="translate(-7.507 -1.819)" fill="#00ae8d"/>
      <path id="Shape-3" data-name="Shape" d="M4.842,30.3,3.579,27.354a1.86,1.86,0,0,0-3.4,1.5l2.287,5.03a6.2,6.2,0,0,0,1.267,1.829l3.6,3.6a1.16,1.16,0,0,0-.316.794v4.668a1.167,1.167,0,0,0,1.167,1.167h6.419a1.167,1.167,0,0,0,1.167-1.167V40.106a1.167,1.167,0,0,0-1.167-1.167V37.853a6.114,6.114,0,0,0-1.279-3.822,4.2,4.2,0,0,0-1.945-1.418A11.542,11.542,0,0,1,8.03,30.469,2.684,2.684,0,0,0,4.842,30.3Zm9.753,14.471H8.176V40.106h6.419ZM12.4,34.76a4.951,4.951,0,0,1,1.023,3.093v1.086H8.6L4.554,34.891A5.047,5.047,0,0,1,3.525,33.4l-2.287-5.03a.693.693,0,1,1,1.269-.56l1.305,3.044a6.886,6.886,0,0,0,1.472,2.174L7.949,35.7a.584.584,0,1,0,.825-.825L6.108,32.207a5.755,5.755,0,0,1-.719-.875,1.517,1.517,0,0,1,1.89.032A12.44,12.44,0,0,0,11,33.72,3.065,3.065,0,0,1,12.4,34.76Z" transform="translate(-0.017 -10.931)" fill="#00ae8d"/>
      <path id="Shape-4" data-name="Shape" d="M21.167,53h-.584a.583.583,0,1,0,0,1.167h.584a.583.583,0,1,0,0-1.167Z" transform="translate(-8.34 -22.075)" fill="#00ae8d"/>
      <path id="Shape-5" data-name="Shape" d="M46.3,33.868l2.287-5.03a1.86,1.86,0,1,0-3.4-1.5l-1.259,2.938a2.691,2.691,0,0,0-3.192.175,11.542,11.542,0,0,1-3.341,2.144,4.2,4.2,0,0,0-1.945,1.418,6.114,6.114,0,0,0-1.279,3.824V38.92A1.167,1.167,0,0,0,33,40.087v4.668a1.167,1.167,0,0,0,1.167,1.167h6.419a1.167,1.167,0,0,0,1.167-1.167V40.087a1.16,1.16,0,0,0-.316-.794l3.6-3.6A6.2,6.2,0,0,0,46.3,33.868ZM40.586,44.755H34.167V40.087h6.419Zm-.427-5.835H35.334V37.834a4.951,4.951,0,0,1,1.023-3.093,3.067,3.067,0,0,1,1.4-1.04,12.435,12.435,0,0,0,3.723-2.357,1.517,1.517,0,0,1,1.893-.037,5.721,5.721,0,0,1-.723.881l-2.665,2.666a.584.584,0,0,0,.825.825l2.665-2.666a6.885,6.885,0,0,0,1.472-2.174l1.305-3.045a.694.694,0,1,1,1.269.561l-2.287,5.03a5.046,5.046,0,0,1-1.03,1.486Z" transform="translate(-13.755 -10.912)" fill="#00ae8d"/>
      <path id="Shape-6" data-name="Shape" d="M38.167,53h-.583a.583.583,0,1,0,0,1.167h.583a.583.583,0,1,0,0-1.167Z" transform="translate(-15.421 -22.075)" fill="#00ae8d"/>
      <path id="Shape-7" data-name="Shape" d="M23.934,17.368a.584.584,0,0,0-.7.934l2.334,1.751a.584.584,0,0,0,.35.117.628.628,0,0,0,.1-.008.584.584,0,0,0,.387-.251l4.668-7a.584.584,0,0,0-.971-.648l-4.326,6.489Z" transform="translate(-9.59 -4.998)" fill="#00ae8d"/>
    </g>
  </g>
</svg>
