<svg xmlns="http://www.w3.org/2000/svg" xmlns:xlink="http://www.w3.org/1999/xlink" width="803.943" height="253" viewBox="0 0 803.943 253">
  <defs>
    <clipPath id="clip-path">
      <rect id="Rectangle_13315" data-name="Rectangle 13315" width="149.122" height="192.564" fill="none"/>
    </clipPath>
  </defs>
  <g id="Group_32729" data-name="Group 32729" transform="translate(0.538)">
    <g id="Group_32692" data-name="Group 32692">
      <rect id="Rectangle_12169" data-name="Rectangle 12169" width="800" height="253" fill="#D8DDE3"/>
      <path id="Path_17974" data-name="Path 17974" d="M4835.669,3900.215s106.368,99.729,208.021,59.906c97.892-38.35,139.732-85.855,219.441-64.756s127.582,82.59,200.055,81.273c80.75-1.466,173.446-59.583,175.048-56.424" transform="translate(-4835.5 -3750.215)" fill="none" stroke="#707070" stroke-linecap="round" stroke-width="1" stroke-dasharray="2 4"/>
    </g>
    <g id="Group_32654" data-name="Group 32654" transform="translate(16493.035 12870.79)">
      <g id="Group_32525" data-name="Group 32525" transform="translate(-16071.633 -12828)">
        <g id="Group_32524" data-name="Group 32524" transform="translate(0 0)" clip-path="url(#clip-path)">
          <path id="Path_21804" data-name="Path 21804" d="M366.7,191.657l-63.5.04a18.134,18.134,0,0,1-18.145-18.123l-.1-155.386A18.134,18.134,0,0,1,303.078.043l63.5-.04A18.134,18.134,0,0,1,384.72,18.126l.1,155.386A18.134,18.134,0,0,1,366.7,191.657" transform="translate(-238.971 -0.003)" fill="#00ae8d"/>
          <path id="Path_21805" data-name="Path 21805" d="M391.909,210.662l-64.81.041a12.752,12.752,0,0,1-12.76-12.744l-.1-158.79a12.752,12.752,0,0,1,12.744-12.76l64.81-.041a12.752,12.752,0,0,1,12.76,12.744l.1,158.79a12.752,12.752,0,0,1-12.744,12.76" transform="translate(-263.53 -22.113)" fill="#68d2c0"/>
          <path id="Path_21806" data-name="Path 21806" d="M266.612,209.443h0a2.829,2.829,0,0,1-2.829-2.829v-14.67a2.829,2.829,0,0,1,5.659,0v14.67a2.829,2.829,0,0,1-2.829,2.829" transform="translate(-221.216 -158.597)" fill="#00ae8d"/>
          <path id="Path_21807" data-name="Path 21807" d="M891.853,209.443h0a2.829,2.829,0,0,1-2.829-2.829v-14.67a2.829,2.829,0,0,1,5.659,0v14.67a2.829,2.829,0,0,1-2.829,2.829" transform="translate(-745.561 -158.597)" fill="#00ae8d"/>
          <path id="Path_21808" data-name="Path 21808" d="M56.931,1124.667c-2.133,8.959-9.759,4.031-8.165,9.694a1.014,1.014,0,0,0,.948.713l4.478.171a2.015,2.015,0,0,0,1.215-.351c2.362-1.617,3.965-3.9,9.068-4.172-.039-2.178.06-5.289-.66-6.4Z" transform="translate(-40.714 -942.888)" fill="#3d3d3d"/>
          <path id="Path_21809" data-name="Path 21809" d="M94.041,736.88S81.017,756.743,79.22,762.921s1.963,16.647,1.283,37.746c4.07,1.057,9.5.148,9.5.148s3.266-26.464-.576-32.713c5.757-8.784,20.216-27.962,20.216-27.962Z" transform="translate(-66.023 -617.969)" fill="#3d3d3d"/>
          <path id="Path_21810" data-name="Path 21810" d="M159.843,1144.363c-3.314,4.51-11.585,1.843-11.253,7.9,12.537-.2,17.748-.172,17.748-.172a42.993,42.993,0,0,0-.612-5.98Z" transform="translate(-124.603 -959.696)" fill="#3d3d3d"/>
          <path id="Path_21811" data-name="Path 21811" d="M176.957,712s-4.153,32.405-3.194,38.768,3.929,11.343,4.033,32.452c4.107.9,10.383,1.718,10.383,1.718s2.646-25.46-2.8-32.47c1.543-10.389,8.894-36.519,8.894-36.519Z" transform="translate(-145.602 -597.101)" fill="#4d4d4d"/>
          <path id="Path_21812" data-name="Path 21812" d="M10.08,592.941l-5.063-5.677a.593.593,0,0,0-.431-.2l-4.169-.025c-.119,0-.486.657-.407.745l3.571,3.173a.134.134,0,0,0,.061.039l6.124,2.272c.132.04.4-.229.313-.331" transform="translate(0 -492.311)" fill="#43b0ef"/>
          <path id="Path_21813" data-name="Path 21813" d="M9.712,596.716l-4.823-5.352a.594.594,0,0,0-.431-.2l-4.3-.077a.135.135,0,0,0-.1.226l3.4,3.744a.135.135,0,0,0,.061.039l6.058,1.837a.136.136,0,0,0,.14-.221" transform="translate(-0.019 -495.705)" fill="#d5dff0"/>
          <path id="Path_21814" data-name="Path 21814" d="M35.353,614.4l-3.488-1.71s-3.441-3.482-3.952-4.26c-.766-.387-2.214-1.363-2.539-1.4a5.372,5.372,0,0,0-.993.063L26,608.928a2.581,2.581,0,0,1-1.746-.469c-.979-.622-2.707-2.289-3.554-1.965l-.3.265s-.534-.571-1.039-.359.5,2.726,3.343,5.39a8.44,8.44,0,0,0,1.126,1.958l5.751,2.02Z" transform="translate(-16.13 -508.505)" fill="#f2bc97"/>
          <path id="Path_21815" data-name="Path 21815" d="M24.37,593.873a.418.418,0,1,0-.084-.656.476.476,0,0,0,.084.656" transform="translate(-20.285 -497.407)" fill="#fff"/>
          <path id="Path_21816" data-name="Path 21816" d="M219.307,442.985c-1.035,1.342,7.072,2.8,8.158.013s-.779-10.456-.779-10.456l-7.391,1.569s1.359,7.128.012,8.874" transform="translate(-183.84 -362.742)" fill="#f2bc97"/>
          <path id="Path_21817" data-name="Path 21817" d="M187.575,342.36c.622,5.93-2.649,11.134-7.307,11.622a8.072,8.072,0,0,1-4.333-.7c-.088-.037-1.228-.8-1.228-.8s-2.823-3.751-3.153-6.894c-.622-5.93,1.8-12.6,6.46-13.085s8.938,3.922,9.56,9.853" transform="translate(-143.114 -278.82)" fill="#f2bc97"/>
          <path id="Path_21823" data-name="Path 21823" d="M153.335,330.988a7.023,7.023,0,0,1-2.221-6.493c-1.488.1-1.9.734-1.9.734a3.248,3.248,0,0,1-.905-2.668c-3.225-.351-4.169,1.93-6.63,3.276-3.371,1.843-4.832,1.6-6.435-2.684-.232-.621,1.934-3.064,4.288-4.2,1.567-.753,4.632-4.414,7.125-4.532a6.007,6.007,0,0,1,5.293,3.3,6.26,6.26,0,0,1,6.736,4.292c1.843,4.987-5.066,12.692-5.066,12.692s.53-2.927-.281-3.716" transform="translate(-110.604 -263.681)" fill="#3d3d3d"/>
          <path id="Path_21827" data-name="Path 21827" d="M163.949,519.862c5.782,1.18,16.177,3.217,21.675,1.073,2.081-2.987,2.608-19.878,2.608-19.878.6-17.386-1.483-19.966-6.185-25.791a31.417,31.417,0,0,1-9.083,1.7s-4.92,6.831-5.88,11.791c-.973,5.03-1.083,13.972-1.174,19.094-.1,5.688-1.224,8.431-1.96,12.015" transform="translate(-137.492 -398.572)" fill="#ff8a54"/>
          <path id="Path_21828" data-name="Path 21828" d="M200.025,498.64c3.382,6.584,2.616,13.875-7.218,28.228a8.932,8.932,0,0,1-8.237-6.341s1.892-7.126,4.35-16.091,9.625-8.678,11.1-5.8" transform="translate(-154.786 -416.668)" fill="#ef7b45"/>
          <path id="Path_21829" data-name="Path 21829" d="M84.221,635.09l14.745,1.177s6.324-1.153,8.1,6.538c-3.165,2.464-11.335,3.388-24.735-1.587,1.418-1.93,1.888-6.128,1.888-6.128" transform="translate(-69.047 -532.605)" fill="#ef7b45"/>
          <path id="Path_21830" data-name="Path 21830" d="M219.356,464.955l-.14,3.966,9.976-4.183-1.208-3.208Z" transform="translate(-183.841 -387.053)" fill="#fff"/>
        </g>
      </g>
      <text id="_" data-name="₹" transform="translate(-15986.523 -12680.949)" fill="#fff" stroke="rgba(0,0,0,0)" stroke-width="1" font-size="74" font-family="Mulish-Bold, Mulish" font-weight="700"><tspan x="0" y="0">₹</tspan></text>
      <g id="Group_32526" data-name="Group 32526" transform="translate(-16010.007 -12695.066)">
        <circle id="Ellipse_3" data-name="Ellipse 3" cx="22.309" cy="22.309" r="22.309" transform="translate(0 0)" fill="#43b0ef"/>
        <path id="Path_21831" data-name="Path 21831" d="M277.864,42.143l-11.278-9.37a2.138,2.138,0,0,1,2.732-3.29L277.64,36.4,292.546,21.9a2.139,2.139,0,0,1,2.982,3.067Z" transform="translate(-258.738 -9.75)" fill="#fefefe"/>
      </g>
    </g>
    <g id="_034-insurance_policy" data-name="034-insurance policy" transform="translate(473.963 49.412)">
      <path id="Path_22075" data-name="Path 22075" d="M408.033,138.826l1.688,5.906a.844.844,0,0,0,1.623,0l1.688-5.906a.837.837,0,0,0,.032-.232h0V107.52a2.535,2.535,0,0,1,1.688,2.386v8.438a.843.843,0,0,0,.089.377l.844,1.687a.844.844,0,1,0,1.509-.755l-.755-1.509v-8.238a4.224,4.224,0,0,0-4.219-4.219h-.844v-.844a.844.844,0,1,0-1.687,0v.844h-.844a.844.844,0,0,0-.844.844v32.063h0A.836.836,0,0,0,408.033,138.826Zm2.5,2.6-.569-1.991H411.1Zm-.844-34.054h1.688v1.688h-1.687Zm0,3.375h1.688v27h-1.687Z" transform="translate(-345.278 -73.047)" fill="#D8DDE3"/>
      <path id="Path_22076" data-name="Path 22076" d="M16.958,68.544h3.833v2.815a.948.948,0,0,0,.958.938H60.077a.948.948,0,0,0,.958-.938V20.691a.948.948,0,0,0-.958-.938H56.244V16.938A.948.948,0,0,0,55.286,16H16.958a.948.948,0,0,0-.958.938V67.606A.948.948,0,0,0,16.958,68.544ZM59.118,21.63V70.421H22.707V21.63Zm-41.2-3.753H54.327v1.877H21.749a.948.948,0,0,0-.958.938V66.668H17.916Z" transform="translate(0 0)" fill="#D8DDE3"/>
      <path id="Path_22077" data-name="Path 22077" d="M100.63,91.694a.844.844,0,0,0,.873-.005,10.24,10.24,0,0,0,4.622-8.313.844.844,0,0,0-.41-.724L101.5,80.12a.844.844,0,0,0-.868,0l-4.219,2.531a.844.844,0,0,0-.41.719C96,83.6,96.023,88.947,100.63,91.694Zm.432-9.866,3.361,2.017a8.486,8.486,0,0,1-3.381,6.108,8.53,8.53,0,0,1-3.327-6.117Z" transform="translate(-70.442 -57.25)" fill="#D8DDE3"/>
      <path id="Path_22078" data-name="Path 22078" d="M208.844,121.688h11.813a.844.844,0,0,0,0-1.688H208.844a.844.844,0,1,0,0,1.688Z" transform="translate(-168.816 -91.76)" fill="#D8DDE3"/>
      <path id="Path_22079" data-name="Path 22079" d="M208.844,153.688h11.813a.844.844,0,0,0,0-1.688H208.844a.844.844,0,1,0,0,1.688Z" transform="translate(-168.816 -119.994)" fill="#D8DDE3"/>
      <path id="Path_22080" data-name="Path 22080" d="M88.844,217.688h27a.844.844,0,1,0,0-1.688h-27a.844.844,0,1,0,0,1.688Z" transform="translate(-64.406 -176.461)" fill="#D8DDE3"/>
      <path id="Path_22081" data-name="Path 22081" d="M88.844,249.688h27a.844.844,0,1,0,0-1.688h-27a.844.844,0,0,0,0,1.688Z" transform="translate(-64.406 -204.695)" fill="#D8DDE3"/>
      <path id="Path_22082" data-name="Path 22082" d="M88.844,281.688h27a.844.844,0,1,0,0-1.688h-27a.844.844,0,1,0,0,1.688Z" transform="translate(-64.406 -232.929)" fill="#D8DDE3"/>
      <path id="Path_22083" data-name="Path 22083" d="M88.844,313.688h27a.844.844,0,1,0,0-1.688h-27a.844.844,0,1,0,0,1.688Z" transform="translate(-64.406 -261.163)" fill="#D8DDE3"/>
      <path id="Path_22084" data-name="Path 22084" d="M88.844,345.688h27a.844.844,0,0,0,0-1.688h-27a.844.844,0,0,0,0,1.688Z" transform="translate(-64.406 -289.396)" fill="#D8DDE3"/>
      <path id="Path_22085" data-name="Path 22085" d="M88.844,377.688h27a.844.844,0,1,0,0-1.688h-27a.844.844,0,1,0,0,1.688Z" transform="translate(-64.406 -317.63)" fill="#D8DDE3"/>
      <path id="Path_22086" data-name="Path 22086" d="M201.719,410.531h-6.986l-.651-1.954a.844.844,0,0,0-1.4-.33l-1.7,1.7-.32-.641a.844.844,0,0,0-1.223-.325l-2.319,1.545h-2.276a.844.844,0,1,0,0,1.688h2.531a.843.843,0,0,0,.468-.142l1.736-1.157.416.833a.843.843,0,0,0,1.351.219l1.565-1.566.412,1.236a.844.844,0,0,0,.8.577h7.594a.844.844,0,1,0,0-1.688Z" transform="translate(-147.309 -344.984)" fill="#D8DDE3"/>
    </g>
  </g>
</svg>
