<svg xmlns="http://www.w3.org/2000/svg" width="35.013" height="35" viewBox="0 0 35.013 35">
  <path id="Path_21281" data-name="Path 21281" d="M130.669,1.59a14.319,14.319,0,0,1,14.315,14.32.8.8,0,0,0,1.594,0A15.911,15.911,0,0,0,130.669,0a.8.8,0,1,0,0,1.59m0,7.955a6.362,6.362,0,0,1,6.361,6.365.8.8,0,0,0,1.594,0,7.955,7.955,0,0,0-7.955-7.955.8.8,0,1,0,0,1.59m0,7.955a1.59,1.59,0,1,0-1.594-1.59,1.593,1.593,0,0,0,1.594,1.59m15.884,10.329a2.388,2.388,0,0,0-.7-1.688,2.117,2.117,0,0,0-.422-.328L138.7,20.574a2.388,2.388,0,0,0-1.688-.7,2.351,2.351,0,0,0-1.428.49l-1.88,1.893,0,0a1.584,1.584,0,0,1-2.481-.141l-.034.047a30.484,30.484,0,0,1-6.787-6.761l.055-.038a1.59,1.59,0,0,1-.124-2.528h0l1.872-1.859a2.338,2.338,0,0,0,.486-1.428,2.378,2.378,0,0,0-.7-1.688l-5.235-6.736A2.635,2.635,0,0,0,120.412.7a2.381,2.381,0,0,0-1.688-.7c-3.18,0-7.158,3.739-7.158,8.351a8.268,8.268,0,0,0,.81,3.568l-.03.026A50.552,50.552,0,0,0,134.621,34.22l.026-.026a8.326,8.326,0,0,0,3.568.806c4.613,0,8.351-3.977,8.351-7.158v-.013Zm-8.339,5.58a6.69,6.69,0,0,1-2.886-.657,1.947,1.947,0,0,0-.264-.094,48.769,48.769,0,0,1-21.149-21.145,2.163,2.163,0,0,0-.1-.277,6.69,6.69,0,0,1-.657-2.886c0-3.858,3.381-6.761,5.568-6.761a.772.772,0,0,1,.563.234.865.865,0,0,1,.111.145.9.9,0,0,0,.09.132l5.235,6.736c.043.051.085.1.132.145a.79.79,0,0,1,.234.563.739.739,0,0,1-.115.4L123.2,11.7l-.026.021a3.185,3.185,0,0,0-.132,4.515l.064.094a31.944,31.944,0,0,0,7.141,7.115l.064.043a3.166,3.166,0,0,0,4.429-.026l.09-.085,1.782-1.795a.708.708,0,0,1,.4-.119.773.773,0,0,1,.563.234,1.5,1.5,0,0,0,.149.132l6.736,5.235a1.478,1.478,0,0,0,.132.094.876.876,0,0,1,.141.107.79.79,0,0,1,.234.563c0,.051,0,.107.009.162-.124,2.187-2.984,5.418-6.757,5.418" transform="translate(-111.566)" fill="#4d4d4d" fill-rule="evenodd"/>
</svg>
