<svg xmlns="http://www.w3.org/2000/svg" width="35.002" height="35.002" viewBox="0 0 35.002 35.002">
  <path id="product-management" d="M17.5,12.832a.547.547,0,0,1,.547.547v3.616a.547.547,0,0,1-1.094,0V13.379A.547.547,0,0,1,17.5,12.832Zm-5.01-4.555V3.124a.547.547,0,0,1,.273-.474L17.228.073a.547.547,0,0,1,.547,0L22.237,2.65a.547.547,0,0,1,.273.474V8.277a.547.547,0,0,1-.273.474l-4.463,2.577a.546.546,0,0,1-.547,0L12.765,8.751a.547.547,0,0,1-.273-.474Zm1.094-.316,3.369,1.945V6.016L13.585,4.071Zm7.832,0V4.071L18.048,6.016v3.89ZM14.132,3.124,17.5,5.069,20.87,3.124,17.5,1.179Zm15.86,17.467a.547.547,0,0,0-.547.547v1.783l-2.691,2.691a.547.547,0,1,0,.773.773l2.851-2.851a.547.547,0,0,0,.16-.387v-2.01a.547.547,0,0,0-.547-.547ZM35,10.673v5.153a.547.547,0,0,1-.273.474l-4.463,2.577a.547.547,0,0,1-.547,0L25.256,16.3a.547.547,0,0,1-.273-.474V10.673a.547.547,0,0,1,.273-.474l4.463-2.577a.547.547,0,0,1,.547,0L34.729,10.2A.547.547,0,0,1,35,10.673Zm-8.379,0,3.369,1.945,3.369-1.945L29.992,8.728Zm-.547,4.837,3.369,1.945v-3.89L26.076,11.62Zm7.832,0V11.62l-3.369,1.945v3.89ZM5.557,22.921V21.138a.547.547,0,1,0-1.094,0v2.01a.547.547,0,0,0,.16.387l2.851,2.851a.547.547,0,1,0,.773-.773Zm-.82-4.044L.273,16.3A.547.547,0,0,1,0,15.826V10.673A.547.547,0,0,1,.273,10.2L4.736,7.623a.547.547,0,0,1,.547,0L9.746,10.2a.547.547,0,0,1,.273.474v5.153a.547.547,0,0,1-.273.474L5.283,18.876a.547.547,0,0,1-.547,0Zm4.189-3.366V11.62L5.557,13.565v3.89ZM1.641,10.673,5.01,12.618l3.369-1.945L5.01,8.728Zm-.547,4.837,3.369,1.945v-3.89L1.094,11.62ZM25.383,26.387v1.466a.547.547,0,0,1-.35.51l-.955.367a6.693,6.693,0,0,1-.788,1.9v0l.414.933a.547.547,0,0,1-.113.608l-1.037,1.037a.547.547,0,0,1-.608.113l-.935-.415a6.694,6.694,0,0,1-1.9.788v0l-.367.952a.547.547,0,0,1-.511.35H16.768a.547.547,0,0,1-.51-.35L15.89,33.7a6.694,6.694,0,0,1-1.9-.788h0l-.932.414a.547.547,0,0,1-.608-.113l-1.037-1.037a.547.547,0,0,1-.113-.608l.415-.935a6.691,6.691,0,0,1-.788-1.9h0l-.952-.366a.547.547,0,0,1-.35-.51V26.387a.547.547,0,0,1,.35-.51l.954-.367a6.689,6.689,0,0,1,.788-1.9l-.416-.935a.547.547,0,0,1,.113-.608l1.037-1.037a.547.547,0,0,1,.608-.113l.936.416a6.691,6.691,0,0,1,1.9-.788v0l.367-.952a.547.547,0,0,1,.51-.35h1.466a.547.547,0,0,1,.51.35l.367.955a6.691,6.691,0,0,1,1.9.788l.936-.416a.547.547,0,0,1,.608.113l1.037,1.037a.547.547,0,0,1,.113.608l-.415.935a6.693,6.693,0,0,1,.788,1.9h0l.952.367a.547.547,0,0,1,.35.511Zm-1.094.376-.878-.338a.547.547,0,0,1-.34-.4,5.617,5.617,0,0,0-.854-2.059.547.547,0,0,1-.046-.527l.382-.861-.506-.506-.861.382a.547.547,0,0,1-.527-.046A5.619,5.619,0,0,0,18.6,21.55a.547.547,0,0,1-.4-.34l-.338-.878h-.715l-.338.878a.547.547,0,0,1-.405.34,5.619,5.619,0,0,0-2.059.854.547.547,0,0,1-.527.046l-.861-.382-.506.506.382.861a.547.547,0,0,1-.046.527,5.616,5.616,0,0,0-.853,2.059.547.547,0,0,1-.34.4l-.878.338v.715l.878.338a.547.547,0,0,1,.34.4,5.618,5.618,0,0,0,.854,2.059.547.547,0,0,1,.046.527l-.382.861.506.506.861-.382a.547.547,0,0,1,.526.046,5.618,5.618,0,0,0,2.059.853.547.547,0,0,1,.405.34l.338.878h.715l.338-.878a.547.547,0,0,1,.4-.34,5.618,5.618,0,0,0,2.059-.854.547.547,0,0,1,.527-.046l.861.382.506-.506-.382-.861a.547.547,0,0,1,.046-.527,5.618,5.618,0,0,0,.853-2.058.547.547,0,0,1,.34-.405l.878-.338ZM21.5,27.12A3.994,3.994,0,1,1,17.5,23.125,3.994,3.994,0,0,1,21.5,27.12Zm-1.094,0a2.9,2.9,0,1,0-2.9,2.9,2.9,2.9,0,0,0,2.9-2.9Z" transform="translate(0 0)" fill="#00ae8d"/>
</svg>
