<svg xmlns="http://www.w3.org/2000/svg" xmlns:xlink="http://www.w3.org/1999/xlink" width="803.943" height="253" viewBox="0 0 803.943 253">
  <defs>
    <clipPath id="clip-path">
      <rect id="Rectangle_13402" data-name="Rectangle 13402" width="99.561" height="140.727" fill="none"/>
    </clipPath>
  </defs>
  <g id="Group_32735" data-name="Group 32735" transform="translate(0.538)">
    <g id="Group_32692" data-name="Group 32692">
      <rect id="Rectangle_12169" data-name="Rectangle 12169" width="800" height="253" fill="#D8DDE3"/>
      <path id="Path_17974" data-name="Path 17974" d="M4835.669,3900.215s106.368,99.729,208.021,59.906c97.892-38.35,139.732-85.855,219.441-64.756s127.582,82.59,200.055,81.273c80.75-1.466,173.446-59.583,175.048-56.424" transform="translate(-4835.5 -3750.215)" fill="none" stroke="#707070" stroke-linecap="round" stroke-width="1" stroke-dasharray="2 4"/>
    </g>
    <g id="Group_32732" data-name="Group 32732" transform="translate(419 68.344)">
      <path id="Path_22047" data-name="Path 22047" d="M349.807,194.183l-106.3-.133a5.546,5.546,0,0,1-5.539-5.552l.178-150.228a5.545,5.545,0,0,1,5.552-5.539l106.3.133a5.545,5.545,0,0,1,5.539,5.552l-.178,150.228a5.546,5.546,0,0,1-5.553,5.539" transform="translate(-237.969 -20.527)" fill="#68d2c0"/>
      <g id="Group_32721" data-name="Group 32721" transform="translate(11.895 25.549)" opacity="0.36">
        <g id="Group_32720" data-name="Group 32720">
          <g id="Group_32719" data-name="Group 32719" clip-path="url(#clip-path)">
            <rect id="Rectangle_13401" data-name="Rectangle 13401" width="140.603" height="99.394" transform="translate(-0.005 140.602) rotate(-89.928)" fill="#45272a"/>
          </g>
        </g>
      </g>
      <rect id="Rectangle_13403" data-name="Rectangle 13403" width="140.603" height="99.394" transform="translate(8.999 163.169) rotate(-89.928)" fill="#fff"/>
      <rect id="Rectangle_13404" data-name="Rectangle 13404" width="18.061" height="18.061" transform="translate(27.567 58.294)" fill="#68d2c0"/>
      <rect id="Rectangle_13405" data-name="Rectangle 13405" width="18.061" height="18.061" transform="translate(27.567 86.352)" fill="#68d2c0"/>
      <rect id="Rectangle_13406" data-name="Rectangle 13406" width="18.061" height="18.061" transform="translate(27.567 114.41)" fill="#68d2c0"/>
      <path id="Path_22050" data-name="Path 22050" d="M352.014,174.723h-5.456v-.632h4.824V156.347h.632Z" transform="translate(-306.072 -98.054)" fill="#5b322c"/>
      <path id="Path_22051" data-name="Path 22051" d="M344.284,249.978H334.232v-.632h9.42V231.6h.632Z" transform="translate(-298.34 -145.25)" fill="#5b322c"/>
      <path id="Path_22052" data-name="Path 22052" d="M330.281,325.232H311.9V324.6h17.745V306.856h.632Z" transform="translate(-284.338 -192.446)" fill="#5b322c"/>
      <rect id="Rectangle_13407" data-name="Rectangle 13407" width="20.804" height="0.632" transform="translate(49.498 63.85)" fill="#5b322c"/>
      <rect id="Rectangle_13408" data-name="Rectangle 13408" width="31.124" height="0.632" transform="translate(49.498 70.166)" fill="#5b322c"/>
      <rect id="Rectangle_13409" data-name="Rectangle 13409" width="25.559" height="0.632" transform="translate(49.498 91.909)" fill="#5b322c"/>
      <rect id="Rectangle_13410" data-name="Rectangle 13410" width="44.978" height="0.632" transform="translate(49.498 98.224)" fill="#5b322c"/>
      <rect id="Rectangle_13411" data-name="Rectangle 13411" width="25.559" height="0.632" transform="translate(49.498 119.967)" fill="#5b322c"/>
      <rect id="Rectangle_13412" data-name="Rectangle 13412" width="44.978" height="0.632" transform="translate(49.498 126.282)" fill="#5b322c"/>
      <path id="Path_22053" data-name="Path 22053" d="M364.31,10.207v-.092a9.245,9.245,0,0,0-18.489.047v.022l-12.128-.015a2.724,2.724,0,0,0-2.748,2.7l-.015,12a2.723,2.723,0,0,0,2.74,2.706l42.744.053a2.724,2.724,0,0,0,2.747-2.7l.016-12a2.724,2.724,0,0,0-2.74-2.706Zm-8.631.988a2.623,2.623,0,1,1,1.981-1.949,2.616,2.616,0,0,1-1.981,1.949" transform="translate(-296.27 -0.622)" fill="#4d4d4d"/>
      <path id="Path_22054" data-name="Path 22054" d="M340.445,27.335l-7.4-.009a3.115,3.115,0,0,1-2.2-.9,3.034,3.034,0,0,1-.912-2.178l.016-12h.746l-.016,12a2.3,2.3,0,0,0,.691,1.646,2.376,2.376,0,0,0,1.677.686l7.4.009Zm14-16.324a3.051,3.051,0,0,1-2.171-.9,2.977,2.977,0,0,1,1.475-5.008,3.072,3.072,0,0,1,2.856.821,2.975,2.975,0,0,1-1.473,5.008,3.224,3.224,0,0,1-.687.075m-.01-5.233a2.456,2.456,0,0,0-.525.057,2.258,2.258,0,0,0-1.7,1.674,2.209,2.209,0,0,0,.591,2.08,2.334,2.334,0,0,0,2.17.618,2.252,2.252,0,0,0,1.7-1.667,2.213,2.213,0,0,0-.593-2.087,2.3,2.3,0,0,0-1.642-.676m21.376,4.194-12.5-.016V9.492a8.672,8.672,0,0,0-3.18-6.716A9.036,9.036,0,0,0,352.611.921a8.78,8.78,0,0,0-7.044,8.619v.373l-.373.021-12.128-.015V9.173l11.761.015a9.529,9.529,0,0,1,7.64-9A9.782,9.782,0,0,1,360.6,2.2a9.416,9.416,0,0,1,3.447,7.011l11.758.015Z" transform="translate(-295.641 0.001)" fill="#453028"/>
      <rect id="Rectangle_13413" data-name="Rectangle 13413" width="18.944" height="0.746" transform="translate(50.439 26.634)" fill="#453028"/>
      <path id="Path_22071" data-name="Path 22071" d="M452.461,375.157a9.453,9.453,0,1,1-9.453-9.453,9.453,9.453,0,0,1,9.453,9.453" transform="translate(-360.632 -229.353)" fill="#68d2c0"/>
      <path id="Path_22072" data-name="Path 22072" d="M448.607,387.508l-5.209-6.58,1.65-1.306,3.538,4.47,5.393-6.991,1.665,1.285Z" transform="translate(-366.803 -236.5)" fill="#4d4d4d"/>
      <path id="Path_22073" data-name="Path 22073" d="M437.633,382.429a12.648,12.648,0,1,1,4.671-24.406l-.275.693a11.9,11.9,0,1,0,7.458,12.142l.743.066a12.577,12.577,0,0,1-12.6,11.5" transform="translate(-355.256 -223.977)" fill="#5b322c"/>
      <path id="Path_22074" data-name="Path 22074" d="M485.147,372.862a11.857,11.857,0,0,0-2.141-3.567l.563-.49a12.6,12.6,0,0,1,2.275,3.791Z" transform="translate(-391.645 -231.297)" fill="#5b322c"/>
      <text id="Claim" transform="translate(27.308 48.284)" fill="#3d3d3d" stroke="rgba(0,0,0,0)" stroke-width="1" font-size="19" font-family="Mulish-Bold, Mulish" font-weight="700"><tspan x="0" y="0">Claim</tspan></text>
    </g>
    <g id="Group_32733" data-name="Group 32733" transform="translate(523.209 97.363)">
      <path id="Path_21971" data-name="Path 21971" d="M1060.611,613.434c-.781.057-1.534-.87-1.751-1.147a9.9,9.9,0,0,1-1.573-2.986q.242-.692.509-1.749,4.511-3.064,1.233-4.535a5.851,5.851,0,0,0-1.641,2.283,1.345,1.345,0,0,1-1.186-.8,39.7,39.7,0,0,0,1.213-5.241c-1.483-2.2-4.95-2.517-9.54-1.924q-.319,1.833-.524,3.883c-.812.747-.706,3.519.041,6.714q-.56,2.725,3.365,2.974c.025.438-.014.943-.023,1.25-.007.278-.016.823-.307.908l-.485.12c.048,6.495,3.373,7.744,10.669.249" transform="translate(-1013.8 -590.823)" fill="#f9af79" fill-rule="evenodd"/>
      <path id="Path_21972" data-name="Path 21972" d="M1041.519,566.012c4.59-.595,8.058-.281,9.54,1.923a39.648,39.648,0,0,1-1.214,5.241,1.347,1.347,0,0,0,1.186.8,5.862,5.862,0,0,1,1.641-2.282q3.278,1.47-1.234,4.536-.264,1.056-.508,1.748c2.706-.606,4.971-3.026,5.289-4.074,3.157-6.222-.363-8.849-2.247-9.808-.833-6.162-9.815-.834-12.177-4.6-4.944,2.821-1.664,6.457-.275,6.513" transform="translate(-1007.447 -559.499)" fill="#4d4d4d" fill-rule="evenodd"/>
      <path id="Path_21973" data-name="Path 21973" d="M1073.58,676.455a7.733,7.733,0,0,1-3.017.634,9.277,9.277,0,0,1-.021,1.238,4.753,4.753,0,0,0,3.038-1.871" transform="translate(-1033.606 -657.005)" fill="#ed7d57" fill-rule="evenodd"/>
      <path id="Path_21974" data-name="Path 21974" d="M1139.008,1393.858c2.851-1,3.08-2.473,4.617-3.191s1.725-2.01.212-3.407c-1.118.892-2.5,1.99-3.238,1.409-.49-.388-2.152-.362-2.482.2-1.448,3.366-3.463,2.3-3.859,3.831-.047,2.039,3.443,1.615,4.751,1.154" transform="translate(-1086.726 -1249.603)" fill="#3d3d3d" fill-rule="evenodd"/>
      <path id="Path_21975" data-name="Path 21975" d="M1002.443,1384.8c5.022-.082,8.774-.141,10.508-.689,1.871-.591,1.484-1.732.409-3.557-4.732,2.176-3.472-.448-5.685-.115a14.061,14.061,0,0,1-6.91,2.517c-1.291.951-.766,1.8,1.677,1.842" transform="translate(-974.867 -1243.888)" fill="#3d3d3d" fill-rule="evenodd"/>
      <path id="Path_21976" data-name="Path 21976" d="M974.887,692.674a33.931,33.931,0,0,1,6.751-1.323q.542,8.259,8.617-.115c5.186.435,6.2.5,9.077,1.436,6.226,5.947,6.8,12.809,10.051,20.651a22.146,22.146,0,0,0-7.668,1.469q-.789-2.819-1.32-4.539.148,15.513.114,21.257c-11.916,4.72-21.73,3.1-25.738-.574q-.084-13.788-.229-21.831a26.222,26.222,0,0,1-3.964,3.907c-2.921-3.35-4.9-4.7-6.557-6.672a87.25,87.25,0,0,1,10.866-13.665" transform="translate(-944.8 -669.327)" fill="#ff8a54" fill-rule="evenodd"/>
      <path id="Path_21977" data-name="Path 21977" d="M854.512,734.156q9.388,3.9,13.148,6.447l1.112-1.648c1.035,1.037,2.218,2.053,3.659,3.53A19.775,19.775,0,0,1,868,746q-6.525-.7-14.422-9.881a6.394,6.394,0,0,1-3.616-1.78,3.121,3.121,0,0,1,1.193-2.373q-3.274-2.134-2.607-3.054,5.13,3.172,5.962,5.246" transform="translate(-848.436 -700.738)" fill="#f9af79" fill-rule="evenodd"/>
      <path id="Path_21978" data-name="Path 21978" d="M1020.485,929.959c.236.895-.74,6.146-.9,8.884-1.584,9.778-.227,22.506.626,38.872,1.526,5.767,3.778,13.452,3.631,24.27,2.659.812,3.621.9,6.021.287,1.677-11.289.534-20.33-.983-24.5.97-6.454,2.419-13.677,4.528-24.1,2.377,11.354,5.556,19.78,6.932,25.278.273,6.129,1.512,14.4,2.161,24.819a11.109,11.109,0,0,0,5.249.516c2.658-9.574,2.212-19.993,1.086-31.254-1.2-13.538.778-28.825-1.2-34.126a39.15,39.15,0,0,1-1.414-8.372q-14.911,4.962-25.737-.574" transform="translate(-990.512 -868.351)" fill="#ff8a54" fill-rule="evenodd"/>
      <path id="Path_21979" data-name="Path 21979" d="M1026.37,779.837c.638.1,1.242.179,1.809.255q.046,6.842.024,10.25c-.563.251-1.82-7.418-1.833-10.505M997.239,770.7a21.21,21.21,0,0,0,5.01-7.118,27.7,27.7,0,0,0-.213,4.592,25.618,25.618,0,0,1-3.765,3.671q-.535-.614-1.032-1.145m28.635-8.895q1.159,3.731,2.215,7.281.028,3,.051,5.631c-.51-.048-1.109-.081-1.818-.1q-.109-7.282-.448-12.815" transform="translate(-972.494 -728.161)" fill="#ef7b45" fill-rule="evenodd"/>
      <path id="Path_21980" data-name="Path 21980" d="M1004.422,783.317H991.305a.912.912,0,0,0-.92,1.093l2.944,18.582a1.333,1.333,0,0,0,1.265,1.093h13.117a.912.912,0,0,0,.92-1.093l-2.943-18.582a1.335,1.335,0,0,0-1.266-1.093" transform="translate(-966.769 -746.095)" fill="#4d4d4d" fill-rule="evenodd"/>
      <path id="Path_21981" data-name="Path 21981" d="M1087.3,824.453a16.587,16.587,0,0,1,.339,7.2c-1.416,2.056-7.128.907-21.838-1.552a4.051,4.051,0,0,1-3.274.747c-1.538-.384-1.612-.786-3.337-2.413a2.828,2.828,0,0,1,.258-2.9c1.942,1.143,2.965,1.751,5.154,1.824q-.873-2.248-.264-2.9a4.336,4.336,0,0,1,1.458,2.7c11.6-.5,14.655-.437,16.2.373q-.251-1.092-.446-1.92a20.477,20.477,0,0,1,5.75-1.151" transform="translate(-1023.921 -780.389)" fill="#f9af79" fill-rule="evenodd"/>
      <path id="Path_21982" data-name="Path 21982" d="M1053.248,1364.637a11.86,11.86,0,0,0-.05,2.65c-3.96,1.721-3.287-.265-4.87-.314a6.941,6.941,0,0,0,.774-2.681,8.038,8.038,0,0,0,4.146.346m18.452,1.814a7.484,7.484,0,0,0,.209,1.89c-1.059.837-2.276,1.71-2.948,1.179a2.551,2.551,0,0,0-1.774-.193,19.375,19.375,0,0,0,.608-3.251,10.328,10.328,0,0,0,3.9.375" transform="translate(-1015.087 -1230.454)" fill="#f9af79" fill-rule="evenodd"/>
      <path id="Path_21983" data-name="Path 21983" d="M1019.585,983.382q10.487,9.777,28.052.062c1.978,5.3,0,20.588,1.2,34.126,1.125,11.261,1.572,21.679-1.086,31.254-.216.026-.423.048-.624.064a10.305,10.305,0,0,1-3.9-.375c-.231-.062-.469-.13-.72-.205-.648-10.416-1.888-18.69-2.161-24.819-1.376-5.5-4.556-13.924-6.932-25.279-2.109,10.419-3.558,17.643-4.529,24.1,1.516,4.174,2.661,13.215.983,24.5-.437.112-.826.2-1.188.264a8.037,8.037,0,0,1-4.146-.346c-.217-.063-.445-.13-.687-.2.147-10.818-2.105-18.5-3.631-24.27-.853-16.366-2.21-29.093-.626-38.872" transform="translate(-990.516 -912.89)" fill="#4d4d4d" fill-rule="evenodd"/>
    </g>
  </g>
</svg>
