<svg xmlns="http://www.w3.org/2000/svg" xmlns:xlink="http://www.w3.org/1999/xlink" width="803.943" height="253" viewBox="0 0 803.943 253">
  <defs>
    <clipPath id="clip-path">
      <rect id="Rectangle_13316" data-name="Rectangle 13316" width="44.778" height="56.707" fill="#43b0ef"/>
    </clipPath>
  </defs>
  <g id="Group_32706" data-name="Group 32706" transform="translate(0.538)">
    <rect id="Rectangle_12169" data-name="Rectangle 12169" width="800" height="253" fill="#D8DDE3"/>
    <path id="Path_17974" data-name="Path 17974" d="M4835.669,3900.215s106.368,99.729,208.021,59.906c97.892-38.35,139.732-85.855,219.441-64.756s127.582,82.59,200.055,81.273c80.75-1.466,173.446-59.583,175.048-56.424" transform="translate(-4835.5 -3750.215)" fill="none" stroke="#707070" stroke-linecap="round" stroke-width="1" stroke-dasharray="2 4"/>
    <g id="Group_32657" data-name="Group 32657" transform="translate(17971 10497.804)">
      <g id="Group_32655" data-name="Group 32655" transform="translate(-17507.752 -10437.368)">
        <g id="Group_32529" data-name="Group 32529" transform="translate(-0.001 0)">
          <path id="Path_21804" data-name="Path 21804" d="M367.035,192.452l-63.761.04a18.209,18.209,0,0,1-18.221-18.2l-.1-156.03A18.209,18.209,0,0,1,303.153.043L366.914,0a18.209,18.209,0,0,1,18.221,18.2l.1,156.031a18.209,18.209,0,0,1-18.2,18.221" transform="translate(-281.524 -0.003)" fill="#00ae8d"/>
          <path id="Path_21805" data-name="Path 21805" d="M392.231,211.426l-65.079.041a12.8,12.8,0,0,1-12.813-12.8l-.1-159.448a12.8,12.8,0,0,1,12.8-12.813l65.078-.041a12.805,12.805,0,0,1,12.813,12.8l.1,159.448a12.8,12.8,0,0,1-12.8,12.813" transform="translate(-306.063 -22.096)" fill="#68d2c0"/>
          <path id="Path_21806" data-name="Path 21806" d="M266.624,209.527h0a2.841,2.841,0,0,1-2.841-2.841V191.955a2.841,2.841,0,0,1,5.682,0v14.731a2.841,2.841,0,0,1-2.841,2.841" transform="translate(-263.783 -158.47)" fill="#00ae8d"/>
          <path id="Path_21807" data-name="Path 21807" d="M891.865,209.527h0a2.841,2.841,0,0,1-2.841-2.841V191.955a2.841,2.841,0,0,1,5.682,0v14.731a2.841,2.841,0,0,1-2.841,2.841" transform="translate(-787.709 -158.47)" fill="#00ae8d"/>
        </g>
        <text id="_" data-name="₹" transform="translate(31.436 157.451)" fill="#fff" stroke="rgba(0,0,0,0)" stroke-width="1" font-size="74" font-family="Mulish-Bold, Mulish" font-weight="700"><tspan x="0" y="0">₹</tspan></text>
        <g id="Group_32531" data-name="Group 32531" transform="translate(31.436 29.135)">
          <g id="Group_32530" data-name="Group 32530" clip-path="url(#clip-path)">
            <path id="Path_21832" data-name="Path 21832" d="M22.389,131.068a22.389,22.389,0,1,1,22.389-22.389,22.415,22.415,0,0,1-22.389,22.389m0-43.672a21.283,21.283,0,1,0,21.283,21.283A21.307,21.307,0,0,0,22.389,87.4" transform="translate(0 -74.362)" fill="#43b0ef"/>
            <path id="Path_21833" data-name="Path 21833" d="M143.435,47.024a2.972,2.972,0,0,1-2.972-2.972V2.972a2.972,2.972,0,0,1,5.944,0v41.08a2.972,2.972,0,0,1-2.972,2.972" transform="translate(-121.046)" fill="#43b0ef"/>
            <path id="Path_21834" data-name="Path 21834" d="M67.967,222.184l-.116,0a2.972,2.972,0,0,1-2.287-1.22L53.222,205.148a2.972,2.972,0,0,1,4.805-3.5l10.126,12.77,9.489-12.951a2.972,2.972,0,1,1,4.519,3.861L70.226,221.143a2.973,2.973,0,0,1-2.26,1.041" transform="translate(-45.373 -172.72)" fill="#43b0ef"/>
          </g>
        </g>
      </g>
      <g id="Group_32656" data-name="Group 32656" transform="translate(-17558.803 -10404.177)">
        <path id="Path_21835" data-name="Path 21835" d="M13.654,16.526c-1.616-5.058-1.22-9.964,2.329-13.267,3.6-3.348,9.363-2.3,9.363-2.3s4.035-2.63,9.092.814S37.4,9.822,39.81,12.641c1.426,1.67,6.446.878,6.663,7.38.062,1.876-1.8,3.595-3.59,4.152-3.148.979-6.635.34-7.423,2.006-2.708,5.726-13.116,5.9-15.337,2.494-.688-1.057-8.668,3.226-9.71-4.849-.528-4.092,4.684-2.778,3.24-7.3" transform="translate(-0.033 -0.001)" fill="#4d4d4d"/>
        <path id="Path_21836" data-name="Path 21836" d="M93.683,32.829c.655,6.226-2.778,11.691-7.668,12.2s-9.385-4.115-10.04-10.342,2.778-11.69,7.668-12.2,9.385,4.116,10.04,10.342" transform="translate(-59.453 -18.292)" fill="#f2bc97"/>
        <path id="Path_21843" data-name="Path 21843" d="M93,26.177c-5.636,1.182-15.1-1.639-16.716-4.234-.154-3.748,4.791-7.407,8.476-6.948S93.781,21.118,93,26.177" transform="translate(-58.843 -12.187)" fill="#4d4d4d"/>
        <path id="Path_21844" data-name="Path 21844" d="M182.931,166.45c-5.8,1.448-15.714,15-16.643,25.162,3.183.659,6.819-1.878,6.819-1.878l7.88-11.334Z" transform="translate(-165.359 -135.63)" fill="#43b0ef"/>
        <path id="Path_21845" data-name="Path 21845" d="M171.263,735.83l-3.107-12.236,7.708-1.061c.264,5.787.7,11.484.659,13.027Z" transform="translate(-159.3 -588.746)" fill="#f2bc97"/>
        <path id="Path_21846" data-name="Path 21846" d="M53.786,722.155h8.048c-.265,1.929-1.32,12.372-1.32,12.372-.68,1.543-6.677,1.191-6.677.323.453-1.881-.013-12.454-.051-12.695" transform="translate(-23.43 -588.438)" fill="#f2bc97"/>
        <path id="Path_21847" data-name="Path 21847" d="M120.28,436.42l-7.937,1.172-5.5-32.911c1.134-12.49,12.129-39.061,12.129-39.061l12.393,4.34.3,11.718-14.925,25.269c1.946,4.887,3.276,20.687,3.541,29.473" transform="translate(-103.084 -297.921)" fill="#f68957"/>
        <path id="Path_21848" data-name="Path 21848" d="M44.14,349.365c.113-.772.151-1.013.793-1.4l11.9-3.376,2.834,2.8c2.683,9.741,1.02,23.292-1.1,34.045,3.1,9.307,1.886,28.494.639,37.512H50.75c-.491-6.028-.337-17.21-.375-22.61-1.1-4.34-2.154-8.97-3.1-13.84-1.209-6.221-2.721-12.249-3.136-17.891a88.926,88.926,0,0,1,0-15.238" transform="translate(-20.809 -280.785)" fill="#ff8a54"/>
        <path id="Path_21849" data-name="Path 21849" d="M3.558,158.431c2.8,1.836,14.591,17.179,8.092,29.816-.3.167-5.506-8.653-5.506-8.653L0,167.431Z" transform="translate(34.786 -129.096)" fill="#43b0ef"/>
        <path id="Path_21850" data-name="Path 21850" d="M94.57,115.323l-7.389,4.2s-.655,2.992-.983,3.962c-.675,2,1.912,2.878,4.1,1.631a14.885,14.885,0,0,0,3.6-2.915Z" transform="translate(-61.937 -93.565)" fill="#f2bc97"/>
        <path id="Path_21851" data-name="Path 21851" d="M37.4,192.463a46.934,46.934,0,0,0,3.564,3.88l2.731-2.982.019.051.648,1.706.757,1.993c.633,0,19.674-4.265,19.674-4.265-.039-1.717-1.653-7.277-4.265-13.2.634-5.013.025-10.225.223-13.114-1.538-7.752-.441-10.729.947-14.381l-4.831-1.426-8.7,3.067-.646-2.1a54.45,54.45,0,0,0-6.6,1.941l-2.06,8.6.446,18.264A92.224,92.224,0,0,1,37.4,192.463" transform="translate(-23.351 -122.82)" fill="#43b0ef"/>
        <path id="Path_21852" data-name="Path 21852" d="M77.888,145.505l3.407,1.447c-.359,4.091-9.514,6.536-9.514,6.536l-.909-3.949Z" transform="translate(-46.055 -118.563)" fill="#3995c9"/>
        <path id="Path_21853" data-name="Path 21853" d="M131.528,152.328l-2.7,2.995s-2.331-2.411-1.487-3.9,3.933-2.495,3.933-2.495Z" transform="translate(-106.71 -121.351)" fill="#3995c9"/>
        <path id="Path_21854" data-name="Path 21854" d="M179.363,782.929a3.472,3.472,0,0,0-2.529-2.352c-3.349,4.467-11.575,1.726-11.3,7.769,12.509-.078,17.707,0,17.707,0a42.935,42.935,0,0,0-.552-5.972l-.652.116Z" transform="translate(-165.524 -636.042)" fill="#4d4d4d"/>
        <path id="Path_21855" data-name="Path 21855" d="M166.254,823.415h16.253a.731.731,0,0,0,.731-.73v-1.049H165.524v1.049a.73.73,0,0,0,.73.73" transform="translate(-165.524 -669.499)" fill="#4d4d4d"/>
        <path id="Path_21857" data-name="Path 21857" d="M53.164,787.876s1-3.746,1.093-4.227c.1-.548.4-1.841.456-2.5a5.425,5.425,0,0,1,3.056-1.216,5.346,5.346,0,0,1,3.441,1.231,39.462,39.462,0,0,0,.558,3.937c.253.906.943,3.016.943,3.016Z" transform="translate(-24.192 -635.514)" fill="#4d4d4d"/>
        <path id="Path_21858" data-name="Path 21858" d="M52.374,820.778c.234.744,3.121-.114,5.228-.114,1.769,0,4.058.686,4.318.419a4.419,4.419,0,0,1,.078,2.4s-1.843.1-4.054,0-4.766.046-5.728-.24a2.915,2.915,0,0,1,.159-2.465" transform="translate(-23.401 -668.706)" fill="#4d4d4d"/>
        <path id="Path_21859" data-name="Path 21859" d="M7.713,244.081S22.951,259.357,28.872,256.7c1.952-2.639-2.193-7.934-6.075-9.708-3.866-1.767-10.356-4.552-10.356-4.552Z" transform="translate(17.565 -197.551)" fill="#f2bc97"/>
        <path id="Path_21860" data-name="Path 21860" d="M151.523,201.208l-6.332-4.886a.626.626,0,0,0-.484-.12l-4.313.782c-.123.021-.375.773-.276.849l4.305,2.587a.14.14,0,0,0,.071.028l6.769,1.161c.144.016.374-.315.259-.4" transform="translate(-129.132 -159.866)" fill="#00ae8d"/>
        <path id="Path_21861" data-name="Path 21861" d="M152.8,205.007l-6.021-4.6a.625.625,0,0,0-.484-.12l-4.456.753a.143.143,0,0,0-.062.254l4.235,3.211a.139.139,0,0,0,.071.028l6.616.724a.143.143,0,0,0,.1-.255" transform="translate(-130.733 -163.198)" fill="#68d2c0"/>
        <path id="Path_21862" data-name="Path 21862" d="M114.525,216.644l-3.558-1.782s-2.255-2.455-2.962-3.189c-.9-.262-2.654-1.019-3.012-.993a5.006,5.006,0,0,0-.961.237l2.059,1.611a2.7,2.7,0,0,1-2.016-.083c-1.178-.471-3.372-1.915-4.217-1.4l-.27.346s-.742-.574-1.189-.176c-1.381,1.231,7.524,6.537,7.524,6.537l3.709.445Z" transform="translate(-84.356 -171.67)" fill="#f2bc97"/>
        <path id="Path_21863" data-name="Path 21863" d="M174.284,202.7a.439.439,0,1,0-.214-.661.5.5,0,0,0,.214.661" transform="translate(-158.895 -164.498)" fill="#00ae8d"/>
        <path id="Path_21864" data-name="Path 21864" d="M180.423,290.217s7.9,9.033,13.4,10.309c.327-1.81.628-3.2.628-3.2l-7.5-9.868Z" transform="translate(-179.493 -234.235)" fill="#f2bc97"/>
        <path id="Path_21865" data-name="Path 21865" d="M171.761,336.761a.769.769,0,0,0-.113-.21l.04-.011c.78-.259,1.262-.923,1.076-1.483a.784.784,0,0,0-.139-.248,1.1,1.1,0,0,0,.489-1.172.829.829,0,0,0-.29-.395,1.1,1.1,0,0,0,.508-1.231,1.29,1.29,0,0,0-2.412.8.919.919,0,0,0,.23.367,1.254,1.254,0,0,0-.861,1.4.785.785,0,0,0,.139.248,1.1,1.1,0,0,0-.489,1.172.817.817,0,0,0,.261.372.94.94,0,0,0-.475,1.07,1.09,1.09,0,0,0,2.037-.676" transform="translate(-156.434 -269.973)" fill="#f2bc97"/>
        <path id="Path_21866" data-name="Path 21866" d="M60.873,73.662a2.569,2.569,0,1,0,4.241,2.717,2.569,2.569,0,1,0-4.241-2.717" transform="translate(-28.49 -58.745)" fill="#f2bc97"/>
        <path id="Path_21867" data-name="Path 21867" d="M71.442,83.019a.371.371,0,0,1-.16-.059,1.68,1.68,0,0,1-.809-1.9A1.79,1.79,0,0,1,72.1,79.772a.372.372,0,0,1,.015.743,1.06,1.06,0,0,0-.927.753.951.951,0,0,0,.506,1.072.372.372,0,0,1-.251.679" transform="translate(-37.152 -65.001)" fill="#f2bc97"/>
      </g>
    </g>
  </g>
</svg>
