<svg xmlns="http://www.w3.org/2000/svg" xmlns:xlink="http://www.w3.org/1999/xlink" width="803.943" height="253" viewBox="0 0 803.943 253">
  <defs>
    <clipPath id="clip-path">
      <rect id="Rectangle_13203" data-name="Rectangle 13203" width="92.289" height="92.293" fill="#68d2c0"/>
    </clipPath>
    <clipPath id="clip-path-2">
      <rect id="Rectangle_13204" data-name="Rectangle 13204" width="64.194" height="64.197" fill="#68d2c0"/>
    </clipPath>
    <clipPath id="clip-path-3">
      <rect id="Rectangle_13205" data-name="Rectangle 13205" width="25.232" height="25.233" fill="#68d2c0"/>
    </clipPath>
    <clipPath id="clip-path-4">
      <rect id="Rectangle_13206" data-name="Rectangle 13206" width="49.744" height="49.746" fill="#68d2c0"/>
    </clipPath>
    <clipPath id="clip-path-5">
      <rect id="Rectangle_13208" data-name="Rectangle 13208" width="38.242" height="38.245" fill="#68d2c0"/>
    </clipPath>
    <clipPath id="clip-path-6">
      <rect id="Rectangle_13210" data-name="Rectangle 13210" width="69.942" height="12.948" fill="#d5dff0"/>
    </clipPath>
    <clipPath id="clip-path-7">
      <rect id="Rectangle_13211" data-name="Rectangle 13211" width="12.418" height="12.948" fill="#68d2c0"/>
    </clipPath>
    <clipPath id="clip-path-10">
      <rect id="Rectangle_13215" data-name="Rectangle 13215" width="1.799" height="19.943" fill="none"/>
    </clipPath>
  </defs>
  <g id="Group_32689" data-name="Group 32689" transform="translate(0.538)">
    <rect id="Rectangle_12169" data-name="Rectangle 12169" width="800" height="253" fill="#D8DDE3"/>
    <path id="Path_17974" data-name="Path 17974" d="M4835.669,3900.215s106.368,99.729,208.021,59.906c97.892-38.35,139.732-85.855,219.441-64.756s127.582,82.59,200.055,81.273c80.75-1.466,173.446-59.583,175.048-56.424" transform="translate(-4835.5 -3750.215)" fill="none" stroke="#707070" stroke-linecap="round" stroke-width="1" stroke-dasharray="2 4"/>
    <g id="Group_32560" data-name="Group 32560" transform="translate(-60.919 -107.275)">
      <g id="Group_32343" data-name="Group 32343" transform="translate(597.484 173.276)" style="mix-blend-mode: normal;isolation: isolate">
        <g id="Group_32306" data-name="Group 32306">
          <g id="Group_32305" data-name="Group 32305" clip-path="url(#clip-path)">
            <path id="Path_21237" data-name="Path 21237" d="M564.346,507.56l-8.242-.017a2.478,2.478,0,0,0-2.308,1.563l-3.51,8.83a2.478,2.478,0,0,0,2.295,3.394l15.226.051A2.478,2.478,0,0,0,570.122,518l-3.473-8.863a2.479,2.479,0,0,0-2.3-1.574" transform="translate(-515.038 -507.543)" fill="#68d2c0"/>
            <path id="Path_21238" data-name="Path 21238" d="M255.554,631.251l-5.841,5.816a2.478,2.478,0,0,0-.527,2.737l3.762,8.726a2.479,2.479,0,0,0,4.023.777l10.8-10.731a2.479,2.479,0,0,0-.754-4.03l-8.723-3.811a2.478,2.478,0,0,0-2.741.515" transform="translate(-239.789 -619.96)" fill="#68d2c0"/>
            <path id="Path_21239" data-name="Path 21239" d="M142,944.447l-.017,8.242A2.479,2.479,0,0,0,143.544,955l8.83,3.51a2.479,2.479,0,0,0,3.394-2.3l.051-15.226a2.478,2.478,0,0,0-3.383-2.316l-8.863,3.474a2.478,2.478,0,0,0-1.574,2.3" transform="translate(-141.981 -901.466)" fill="#68d2c0"/>
            <path id="Path_21240" data-name="Path 21240" d="M265.689,1260.326l5.816,5.841a2.478,2.478,0,0,0,2.737.527l8.726-3.762a2.479,2.479,0,0,0,.777-4.023l-10.731-10.8a2.479,2.479,0,0,0-4.03.754l-3.811,8.724a2.478,2.478,0,0,0,.515,2.741" transform="translate(-254.399 -1183.802)" fill="#68d2c0"/>
            <path id="Path_21241" data-name="Path 21241" d="M577.2,1434.344l11.615.024,4.133-10.4a2.479,2.479,0,0,0-2.295-3.394l-15.226-.05a2.479,2.479,0,0,0-2.316,3.383Z" transform="translate(-535.904 -1342.076)" fill="#68d2c0"/>
            <path id="Path_21242" data-name="Path 21242" d="M894.764,1250.427l5.841-5.816a2.479,2.479,0,0,0,.527-2.737l-3.762-8.726a2.479,2.479,0,0,0-4.023-.777l-10.8,10.731a2.479,2.479,0,0,0,.754,4.03l8.723,3.811a2.479,2.479,0,0,0,2.741-.515" transform="translate(-818.24 -1169.428)" fill="#68d2c0"/>
            <path id="Path_21243" data-name="Path 21243" d="M1068.786,929.908l.017-8.243a2.478,2.478,0,0,0-1.563-2.308l-8.83-3.51a2.478,2.478,0,0,0-3.394,2.295l-.051,15.226a2.479,2.479,0,0,0,3.383,2.316l8.863-3.473a2.479,2.479,0,0,0,1.574-2.3" transform="translate(-976.514 -880.6)" fill="#68d2c0"/>
            <path id="Path_21244" data-name="Path 21244" d="M884.864,621.116l-5.816-5.841a2.479,2.479,0,0,0-2.738-.527l-8.725,3.762a2.478,2.478,0,0,0-.777,4.023l10.731,10.8a2.479,2.479,0,0,0,4.03-.754l3.811-8.723a2.478,2.478,0,0,0-.515-2.741" transform="translate(-803.866 -605.351)" fill="#68d2c0"/>
            <path id="Path_21245" data-name="Path 21245" d="M311.341,633.346a37.789,37.789,0,0,0-4.16-12.275q-.377-.695-.781-1.37a38.314,38.314,0,0,0-10.262-11.243,37.888,37.888,0,0,0-11.619-5.742c-.5-.148-1.01-.288-1.523-.417a38.328,38.328,0,0,0-15.205-.693,37.969,37.969,0,0,0-12.275,4.157q-.695.377-1.37.784A38.247,38.247,0,0,0,242.9,616.81a37.241,37.241,0,0,0-3.085,5,37.648,37.648,0,0,0-2.659,6.619c-.148.5-.288,1.013-.416,1.526a38.448,38.448,0,0,0-.693,15.2,37.791,37.791,0,0,0,4.16,12.275c.251.461.513.919.781,1.368a38.233,38.233,0,0,0,10.264,11.245,37.563,37.563,0,0,0,4.993,3.083h0a37.382,37.382,0,0,0,6.622,2.659c.5.148,1.01.288,1.523.417a38.331,38.331,0,0,0,15.208.693,37.813,37.813,0,0,0,12.273-4.157q.7-.377,1.37-.781a38.288,38.288,0,0,0,11.242-10.264,37.982,37.982,0,0,0,5.744-11.617c.148-.5.288-1.01.416-1.523a38.464,38.464,0,0,0,.693-15.207m-13.98,7.492a23.972,23.972,0,0,1-25.218,22.083,23.719,23.719,0,0,1-22.113-25.255,23.972,23.972,0,0,1,25.218-22.083,23.718,23.718,0,0,1,22.113,25.255" transform="translate(-227.551 -593.107)" fill="#68d2c0"/>
          </g>
        </g>
      </g>
      <g id="Group_32344" data-name="Group 32344" transform="matrix(0.995, -0.105, 0.105, 0.995, 686.055, 202.255)" style="mix-blend-mode: normal;isolation: isolate">
        <g id="Group_32309" data-name="Group 32309">
          <g id="Group_32308" data-name="Group 32308" clip-path="url(#clip-path-2)">
            <path id="Path_21246" data-name="Path 21246" d="M555.946.011,550.213,0a1.724,1.724,0,0,0-1.606,1.087l-2.441,6.142a1.724,1.724,0,0,0,1.6,2.361l10.591.035a1.724,1.724,0,0,0,1.611-2.353l-2.416-6.165a1.724,1.724,0,0,0-1.6-1.095" transform="translate(-521.648 0.001)" fill="#68d2c0"/>
            <path id="Path_21247" data-name="Path 21247" d="M359.543,78.538l-4.063,4.046a1.724,1.724,0,0,0-.367,1.9l2.617,6.069a1.724,1.724,0,0,0,2.8.541l7.514-7.464a1.724,1.724,0,0,0-.525-2.8L361.45,78.18a1.724,1.724,0,0,0-1.907.358" transform="translate(-348.577 -70.685)" fill="#68d2c0"/>
            <path id="Path_21248" data-name="Path 21248" d="M287.09,277.586l-.012,5.733a1.724,1.724,0,0,0,1.087,1.606l6.142,2.441a1.724,1.724,0,0,0,2.361-1.6l.035-10.591a1.724,1.724,0,0,0-2.353-1.611l-6.165,2.416a1.724,1.724,0,0,0-1.1,1.6" transform="translate(-287.078 -247.689)" fill="#68d2c0"/>
            <path id="Path_21249" data-name="Path 21249" d="M365.617,478.445l4.046,4.063a1.724,1.724,0,0,0,1.9.367l6.069-2.617a1.724,1.724,0,0,0,.541-2.8l-7.464-7.514a1.724,1.724,0,0,0-2.8.525l-2.651,6.068a1.724,1.724,0,0,0,.358,1.907" transform="translate(-357.764 -425.217)" fill="#68d2c0"/>
            <path id="Path_21250" data-name="Path 21250" d="M563.491,588.914l8.079.017,2.875-7.231a1.724,1.724,0,0,0-1.6-2.361l-10.591-.035a1.724,1.724,0,0,0-1.611,2.353Z" transform="translate(-534.768 -524.735)" fill="#68d2c0"/>
            <path id="Path_21251" data-name="Path 21251" d="M765.524,472.52l4.063-4.046a1.724,1.724,0,0,0,.367-1.9l-2.616-6.069a1.724,1.724,0,0,0-2.8-.54l-7.514,7.464a1.724,1.724,0,0,0,.525,2.8l6.068,2.651a1.724,1.724,0,0,0,1.907-.358" transform="translate(-712.295 -416.179)" fill="#68d2c0"/>
            <path id="Path_21252" data-name="Path 21252" d="M876,268.868l.012-5.733a1.724,1.724,0,0,0-1.087-1.606l-6.142-2.441a1.724,1.724,0,0,0-2.361,1.6l-.035,10.591a1.724,1.724,0,0,0,2.353,1.611l6.165-2.416a1.724,1.724,0,0,0,1.1-1.6" transform="translate(-811.815 -234.57)" fill="#68d2c0"/>
            <path id="Path_21253" data-name="Path 21253" d="M759.6,72.465,755.553,68.4a1.724,1.724,0,0,0-1.9-.367l-6.069,2.617a1.724,1.724,0,0,0-.541,2.8l7.464,7.514a1.724,1.724,0,0,0,2.8-.525l2.651-6.068a1.724,1.724,0,0,0-.358-1.907" transform="translate(-703.258 -61.499)" fill="#68d2c0"/>
            <path id="Path_21254" data-name="Path 21254" d="M399.165,81.789a26.284,26.284,0,0,0-2.894-8.538q-.262-.483-.543-.953a26.652,26.652,0,0,0-7.138-7.82,26.351,26.351,0,0,0-8.082-3.994c-.35-.1-.7-.2-1.059-.29a26.657,26.657,0,0,0-10.576-.482,26.409,26.409,0,0,0-8.538,2.892q-.483.262-.953.545a26.606,26.606,0,0,0-7.82,7.138,25.91,25.91,0,0,0-2.146,3.476,26.18,26.18,0,0,0-1.85,4.6c-.1.35-.2.7-.29,1.061A26.748,26.748,0,0,0,346.794,90a26.282,26.282,0,0,0,2.894,8.538c.175.321.356.639.543.951a26.6,26.6,0,0,0,7.14,7.822,26.139,26.139,0,0,0,3.473,2.145h0a26.014,26.014,0,0,0,4.606,1.85c.35.1.7.2,1.059.29a26.664,26.664,0,0,0,10.578.482,26.3,26.3,0,0,0,8.537-2.892q.484-.262.953-.543a26.632,26.632,0,0,0,7.82-7.14,26.416,26.416,0,0,0,4-8.081c.1-.35.2-.7.29-1.059a26.759,26.759,0,0,0,.482-10.578M389.441,87A16.675,16.675,0,0,1,371.9,102.36a16.5,16.5,0,0,1-15.381-17.567A16.675,16.675,0,0,1,374.06,69.433,16.5,16.5,0,0,1,389.441,87" transform="translate(-340.882 -53.8)" fill="#68d2c0"/>
          </g>
        </g>
      </g>
      <g id="Group_32345" data-name="Group 32345" transform="translate(478.422 184.846)" style="mix-blend-mode: multiply;isolation: isolate">
        <g id="Group_32312" data-name="Group 32312">
          <g id="Group_32311" data-name="Group 32311" clip-path="url(#clip-path-3)">
            <path id="Path_21255" data-name="Path 21255" d="M106.881,548.195l-2.253,0a.678.678,0,0,0-.631.427l-.96,2.414a.678.678,0,0,0,.627.928l4.163.014a.678.678,0,0,0,.633-.925l-.95-2.423a.678.678,0,0,0-.63-.43" transform="translate(-93.401 -548.19)" fill="#68d2c0"/>
            <path id="Path_21256" data-name="Path 21256" d="M39.652,574.989l-1.6,1.59a.678.678,0,0,0-.144.748l1.028,2.386a.678.678,0,0,0,1.1.212l2.953-2.934a.678.678,0,0,0-.206-1.1L40.4,574.849a.678.678,0,0,0-.749.141" transform="translate(-35.342 -571.903)" fill="#68d2c0"/>
            <path id="Path_21257" data-name="Path 21257" d="M14.715,643.032l0,2.254a.678.678,0,0,0,.427.631l2.414.96a.678.678,0,0,0,.928-.627l.014-4.163a.678.678,0,0,0-.925-.633l-2.423.95a.677.677,0,0,0-.43.629" transform="translate(-14.71 -631.281)" fill="#68d2c0"/>
            <path id="Path_21258" data-name="Path 21258" d="M41.509,711.758l1.59,1.6a.678.678,0,0,0,.748.144l2.386-1.028a.678.678,0,0,0,.212-1.1l-2.934-2.953a.678.678,0,0,0-1.1.206l-1.042,2.385a.678.678,0,0,0,.141.749" transform="translate(-38.423 -690.836)" fill="#68d2c0"/>
            <path id="Path_21259" data-name="Path 21259" d="M109.091,749.446l3.176.007,1.13-2.842a.678.678,0,0,0-.627-.928l-4.163-.014a.678.678,0,0,0-.633.925Z" transform="translate(-97.801 -724.22)" fill="#68d2c0"/>
            <path id="Path_21260" data-name="Path 21260" d="M178.277,709.949l1.6-1.59a.678.678,0,0,0,.144-.748l-1.028-2.386a.678.678,0,0,0-1.1-.212l-2.953,2.934a.678.678,0,0,0,.206,1.1l2.385,1.042a.677.677,0,0,0,.749-.141" transform="translate(-157.355 -687.804)" fill="#68d2c0"/>
            <path id="Path_21261" data-name="Path 21261" d="M215.967,640.361l0-2.254a.677.677,0,0,0-.427-.631l-2.414-.96a.677.677,0,0,0-.928.627l-.014,4.163a.678.678,0,0,0,.925.633l2.423-.95a.678.678,0,0,0,.43-.63" transform="translate(-190.74 -626.88)" fill="#68d2c0"/>
            <path id="Path_21262" data-name="Path 21262" d="M176.469,573.13l-1.59-1.6a.678.678,0,0,0-.748-.144l-2.386,1.029a.678.678,0,0,0-.212,1.1l2.934,2.953a.678.678,0,0,0,1.1-.206l1.042-2.385a.678.678,0,0,0-.141-.75" transform="translate(-154.324 -568.82)" fill="#68d2c0"/>
            <path id="Path_21263" data-name="Path 21263" d="M55.667,577.239a10.333,10.333,0,0,0-1.137-3.356c-.069-.127-.14-.251-.214-.375a10.478,10.478,0,0,0-2.806-3.074,10.351,10.351,0,0,0-3.177-1.57c-.137-.04-.276-.079-.416-.114a10.425,10.425,0,0,0-5.72.181,10.311,10.311,0,0,0-1.794.767q-.19.1-.375.214a10.456,10.456,0,0,0-3.074,2.805,10.41,10.41,0,0,0-1.571,3.176c-.04.138-.079.277-.114.417a10.51,10.51,0,0,0-.189,4.157,10.331,10.331,0,0,0,1.137,3.356c.069.126.14.251.214.374a10.456,10.456,0,0,0,2.806,3.074,10.293,10.293,0,0,0,1.365.843h0a10.23,10.23,0,0,0,1.81.727c.137.04.276.079.416.114a10.483,10.483,0,0,0,4.158.189,10.347,10.347,0,0,0,3.355-1.137c.127-.069.251-.14.375-.214a10.468,10.468,0,0,0,3.074-2.806,10.385,10.385,0,0,0,1.571-3.176c.04-.137.079-.276.114-.416a10.52,10.52,0,0,0,.189-4.158m-3.822,2.048a6.554,6.554,0,0,1-6.895,6.037,6.485,6.485,0,0,1-6.046-6.9,6.554,6.554,0,0,1,6.895-6.038,6.484,6.484,0,0,1,6.046,6.9" transform="translate(-32.759 -566.238)" fill="#68d2c0"/>
          </g>
        </g>
      </g>
      <g id="Group_32346" data-name="Group 32346" transform="translate(659.168 255.108)" style="mix-blend-mode: normal;isolation: isolate">
        <g id="Group_32315" data-name="Group 32315">
          <g id="Group_32314" data-name="Group 32314" clip-path="url(#clip-path-4)">
            <path id="Path_21264" data-name="Path 21264" d="M1408.375,639.074l4.443-.009a1.336,1.336,0,0,1,1.244.842l1.892,4.759a1.336,1.336,0,0,1-1.237,1.829l-8.207.027a1.336,1.336,0,0,1-1.248-1.823l1.872-4.777a1.336,1.336,0,0,1,1.241-.849" transform="translate(-1385.208 -639.064)" fill="#68d2c0"/>
            <path id="Path_21265" data-name="Path 21265" d="M1549.329,694.075l3.148,3.135a1.336,1.336,0,0,1,.284,1.475l-2.027,4.7a1.336,1.336,0,0,1-2.169.419l-5.822-5.784a1.336,1.336,0,0,1,.406-2.172l4.7-2.054a1.336,1.336,0,0,1,1.477.278" transform="translate(-1508.082 -687.989)" fill="#68d2c0"/>
            <path id="Path_21266" data-name="Path 21266" d="M1626.7,833.669l.009,4.443a1.336,1.336,0,0,1-.842,1.244l-4.759,1.892a1.336,1.336,0,0,1-1.829-1.237l-.027-8.207a1.336,1.336,0,0,1,1.823-1.248l4.777,1.872a1.335,1.335,0,0,1,.848,1.241" transform="translate(-1576.964 -810.502)" fill="#68d2c0"/>
            <path id="Path_21267" data-name="Path 21267" d="M1545.485,974.623l-3.135,3.148a1.336,1.336,0,0,1-1.476.284l-4.7-2.028a1.336,1.336,0,0,1-.419-2.168l5.784-5.822a1.336,1.336,0,0,1,2.172.407l2.054,4.7a1.336,1.336,0,0,1-.278,1.478" transform="translate(-1501.826 -933.376)" fill="#68d2c0"/>
            <path id="Path_21268" data-name="Path 21268" d="M1403.614,1051.991l-6.26.013-2.227-5.6a1.335,1.335,0,0,1,1.237-1.829l8.207-.027a1.336,1.336,0,0,1,1.248,1.823Z" transform="translate(-1376.128 -1002.258)" fill="#68d2c0"/>
            <path id="Path_21269" data-name="Path 21269" d="M1264.835,970.779l-3.148-3.135a1.336,1.336,0,0,1-.284-1.476l2.027-4.7a1.336,1.336,0,0,1,2.168-.419l5.822,5.784a1.336,1.336,0,0,1-.406,2.172l-4.7,2.054a1.336,1.336,0,0,1-1.478-.278" transform="translate(-1256.338 -927.121)" fill="#68d2c0"/>
            <path id="Path_21270" data-name="Path 21270" d="M1213.78,828l-.009-4.443a1.335,1.335,0,0,1,.842-1.244l4.759-1.892a1.336,1.336,0,0,1,1.829,1.237l.027,8.207a1.336,1.336,0,0,1-1.823,1.248l-4.777-1.872a1.336,1.336,0,0,1-.849-1.241" transform="translate(-1213.771 -801.421)" fill="#68d2c0"/>
            <path id="Path_21271" data-name="Path 21271" d="M1268.781,690.129l3.135-3.148a1.335,1.335,0,0,1,1.475-.284l4.7,2.027a1.336,1.336,0,0,1,.419,2.168l-5.784,5.822a1.336,1.336,0,0,1-2.172-.407l-2.054-4.7a1.336,1.336,0,0,1,.277-1.478" transform="translate(-1262.695 -681.631)" fill="#68d2c0"/>
            <path id="Path_21272" data-name="Path 21272" d="M1255.394,702.533a20.579,20.579,0,0,0,.573,3.656c.069.276.145.55.224.821a20.466,20.466,0,0,0,3.1,6.262,20.635,20.635,0,0,0,6.059,5.532q.365.217.739.421a20.388,20.388,0,0,0,6.615,2.241,20.67,20.67,0,0,0,8.2-.373c.276-.069.55-.145.821-.225a20.159,20.159,0,0,0,3.569-1.433h0a20.272,20.272,0,0,0,2.691-1.662,20.61,20.61,0,0,0,5.532-6.061c.145-.242.286-.489.421-.737a20.6,20.6,0,0,0,1.869-14.812c-.069-.276-.145-.552-.224-.822a20.514,20.514,0,0,0-3.1-6.262,20.614,20.614,0,0,0-6.06-5.531q-.364-.219-.738-.422a20.469,20.469,0,0,0-6.616-2.241,20.657,20.657,0,0,0-8.2.373c-.276.069-.55.145-.821.224a20.421,20.421,0,0,0-6.263,3.095,20.651,20.651,0,0,0-5.531,6.06q-.217.365-.421.739a20.456,20.456,0,0,0-2.442,11.158m19.654-14.116a12.921,12.921,0,0,1,13.592,11.9,12.785,12.785,0,0,1-11.919,13.612,12.921,12.921,0,0,1-13.593-11.9,12.784,12.784,0,0,1,11.919-13.612" transform="translate(-1251.012 -676.302)" fill="#68d2c0"/>
          </g>
        </g>
      </g>
      <g id="Group_32348" data-name="Group 32348" transform="translate(478.422 210.079)" style="mix-blend-mode: multiply;isolation: isolate">
        <g id="Group_32321" data-name="Group 32321">
          <g id="Group_32320" data-name="Group 32320" clip-path="url(#clip-path-5)">
            <path id="Path_21282" data-name="Path 21282" d="M1737.418,615.517l3.416-.007a1.028,1.028,0,0,1,.957.647l1.454,3.659a1.027,1.027,0,0,1-.951,1.406l-6.31.021a1.027,1.027,0,0,1-.96-1.4l1.439-3.673a1.028,1.028,0,0,1,.954-.652" transform="translate(-1719.608 -615.51)" fill="#68d2c0"/>
            <path id="Path_21283" data-name="Path 21283" d="M1785.758,633.9l2.42,2.41a1.027,1.027,0,0,1,.219,1.134l-1.559,3.616a1.027,1.027,0,0,1-1.667.322l-4.476-4.447a1.027,1.027,0,0,1,.313-1.67l3.615-1.579a1.028,1.028,0,0,1,1.136.213" transform="translate(-1754.048 -629.222)" fill="#68d2c0"/>
            <path id="Path_21284" data-name="Path 21284" d="M1811.589,681.37l.007,3.416a1.028,1.028,0,0,1-.648.957l-3.658,1.454a1.027,1.027,0,0,1-1.407-.951l-.021-6.309a1.027,1.027,0,0,1,1.4-.96l3.673,1.439a1.027,1.027,0,0,1,.652.954" transform="translate(-1773.353 -663.56)" fill="#68d2c0"/>
            <path id="Path_21285" data-name="Path 21285" d="M1785.858,729.71l-2.41,2.42a1.027,1.027,0,0,1-1.134.218l-3.616-1.559a1.027,1.027,0,0,1-.322-1.667l4.447-4.476a1.027,1.027,0,0,1,1.67.313l1.579,3.615a1.027,1.027,0,0,1-.213,1.136" transform="translate(-1752.294 -697.999)" fill="#68d2c0"/>
            <path id="Path_21286" data-name="Path 21286" d="M1738.194,755.54l-4.813.01-1.712-4.308a1.027,1.027,0,0,1,.951-1.406l6.31-.021a1.027,1.027,0,0,1,.959,1.4Z" transform="translate(-1717.063 -717.306)" fill="#68d2c0"/>
            <path id="Path_21287" data-name="Path 21287" d="M1690.021,729.811l-2.42-2.41a1.027,1.027,0,0,1-.219-1.134l1.559-3.616a1.027,1.027,0,0,1,1.667-.322l4.476,4.447a1.027,1.027,0,0,1-.312,1.67l-3.615,1.579a1.028,1.028,0,0,1-1.136-.213" transform="translate(-1683.488 -696.247)" fill="#68d2c0"/>
            <path id="Path_21288" data-name="Path 21288" d="M1671.565,681.448l-.007-3.416a1.028,1.028,0,0,1,.647-.957l3.659-1.454a1.027,1.027,0,0,1,1.406.951l.021,6.31a1.027,1.027,0,0,1-1.4.959l-3.672-1.439a1.027,1.027,0,0,1-.652-.954" transform="translate(-1671.558 -661.015)" fill="#68d2c0"/>
            <path id="Path_21289" data-name="Path 21289" d="M1689.949,633.974l2.41-2.42a1.027,1.027,0,0,1,1.134-.218l3.616,1.559a1.027,1.027,0,0,1,.322,1.667l-4.447,4.476a1.027,1.027,0,0,1-1.67-.312l-1.58-3.615a1.027,1.027,0,0,1,.214-1.136" transform="translate(-1685.27 -627.441)" fill="#68d2c0"/>
            <path id="Path_21290" data-name="Path 21290" d="M1685.364,646.113a15.825,15.825,0,0,0,.44,2.81c.053.213.112.423.172.631a15.747,15.747,0,0,0,2.381,4.814,15.868,15.868,0,0,0,4.659,4.253q.28.167.568.324a15.679,15.679,0,0,0,5.085,1.723,15.881,15.881,0,0,0,6.3-.287c.213-.053.423-.111.631-.172a15.483,15.483,0,0,0,2.744-1.1h0a15.562,15.562,0,0,0,2.069-1.278,15.841,15.841,0,0,0,4.253-4.66c.111-.186.22-.376.324-.567a15.834,15.834,0,0,0,1.436-11.388c-.053-.212-.111-.424-.172-.632a15.592,15.592,0,0,0-1.1-2.743,15.436,15.436,0,0,0-1.279-2.071,15.844,15.844,0,0,0-4.658-4.252c-.187-.112-.375-.221-.568-.325a15.726,15.726,0,0,0-5.087-1.723,15.891,15.891,0,0,0-6.3.287c-.212.053-.423.111-.631.173a15.708,15.708,0,0,0-4.815,2.379,15.878,15.878,0,0,0-4.252,4.659q-.167.28-.324.568a15.722,15.722,0,0,0-1.877,8.578m15.11-10.852a9.934,9.934,0,0,1,10.45,9.151,9.829,9.829,0,0,1-9.163,10.465,9.934,9.934,0,0,1-10.45-9.151,9.828,9.828,0,0,1,9.163-10.465" transform="translate(-1681.995 -625.947)" fill="#68d2c0"/>
          </g>
        </g>
      </g>
      <g id="Group_32350" data-name="Group 32350" transform="translate(440.546 267.545)">
        <path id="Path_21291" data-name="Path 21291" d="M231.856,1373.462a14.6,14.6,0,0,1,.77-3.167c.183-.506.393-1.012.634-1.515a23,23,0,0,1,5.044-6.717c.168-.16.336-.315.5-.466-.67-2.994-1.354-5.876-1.977-8.422-1.366-5.582-2.443-9.563-2.46-9.629l1.574-.426c.017.063.968,3.583,2.219,8.648.634,2.563,1.343,5.523,2.045,8.631a31.323,31.323,0,0,1,3.056-2.183c.323-.2.518-.312.546-.326l.8,1.423c-.013.007-.183.1-.475.286a30.483,30.483,0,0,0-3.522,2.594q.35,1.582.688,3.186c.978,4.639,1.671,8.421,2.135,11.5,1.593,10.545.546,12.941-.691,13.682a1.782,1.782,0,0,1-.928.258,4.189,4.189,0,0,1-2.655-1.409c-4.343-4.108-6.79-8.308-7.305-12.531a13.925,13.925,0,0,1,0-3.418m7.422,13.778c.321.328.655.659,1,.987.115.109.223.2.325.289,0,0,0,0,0,0,.768.653,1.182.716,1.3.645.195-.116,1.134-1.035.468-7.67q-.206-2.062-.6-4.612c-.485-3.178-1.176-6.912-2.072-11.161q-.241-1.137-.487-2.265a21.283,21.283,0,0,0-4.505,6.056,13.835,13.835,0,0,0-.628,1.536,12.944,12.944,0,0,0-.611,2.618,12.17,12.17,0,0,0,.029,3.216c.479,3.446,2.412,6.916,5.776,10.36" transform="translate(-198.311 -1309.963)" fill="#00ae8d"/>
        <path id="Path_21292" data-name="Path 21292" d="M256.447,1494.59c1.856-5.693,1.7-10.511-.453-14.323a14.75,14.75,0,0,0-8.837-6.638l-.365,1.589.182-.794-.184.794a13.324,13.324,0,0,1,7.793,5.869c1.913,3.394,2.018,7.767.312,13Z" transform="translate(-214.309 -1415.546)" fill="#00ae8d"/>
        <path id="Path_21293" data-name="Path 21293" d="M319.579,1418.917l-.65-1.823a.627.627,0,0,1,.075-.568c.857-1.229,4.065-6.657-3.454-9.876a.629.629,0,0,0-.842.787l1.686,4.733a.628.628,0,0,1-.551.838l-.837.053a.628.628,0,0,1-.632-.416l-2.385-6.7a.626.626,0,0,0-.464-.4,21.706,21.706,0,0,0-7.622-.292.629.629,0,0,0-.368,1.013l3.907,4.818a.628.628,0,0,1-.885.882l-7.184-5.878a.631.631,0,0,0-.525-.129c-1.663.342-9.476,2.4-3.735,10.055a.63.63,0,0,0,.618.243l6.75-1.241a.628.628,0,0,1,.711.425l.019.059a.628.628,0,0,1-.423.8l-5.7,1.652a.627.627,0,0,0-.355.941,9.169,9.169,0,0,0,7.916,4.381.622.622,0,0,0,.372-.136l6.681-5.281a.628.628,0,0,1,.737-.031l.185.123a.628.628,0,0,1,.081.983L308,1423.312a.628.628,0,0,0,.242,1.06c1.535.469,4.889.632,9.457-4.05a.634.634,0,0,1,.238-.154l1.263-.449a.628.628,0,0,0,.381-.8" transform="translate(-285.826 -1360.039)" fill="#00ae8d"/>
        <path id="Path_21294" data-name="Path 21294" d="M245.067,1211.89l.094-2.486a.84.84,0,0,1,.512-.744c3.208-1.356,20.507-9.6,3.653-23.446a.845.845,0,0,0-1.366.493l-2.238,11.763a.843.843,0,0,1-.986.67l-.765-.146a.843.843,0,0,1-.671-.986l2.79-14.665a.841.841,0,0,0-.2-.718,35.781,35.781,0,0,0-15.462-9.6.845.845,0,0,0-1.078,1l2.943,12.642a.843.843,0,0,1-1.59.537l-6.881-15.273a.84.84,0,0,0-.507-.456c-2.572-.832-18.17-5.078-18.083,14.336a.847.847,0,0,0,.612.813l13.515,3.867a.842.842,0,0,1,.569.546l.163.494a.843.843,0,0,1-.933,1.1l-12.394-1.965a.842.842,0,0,0-.975.811c-.058,2.341.5,8.538,7.279,13.542a.85.85,0,0,0,.511.164l18.608-.217a.844.844,0,0,1,.831.651l.133.566a.844.844,0,0,1-.762,1.034l-14.208.989a.843.843,0,0,0-.633,1.324c1.766,2.512,7.235,7.724,20.966,4.439a.821.821,0,0,1,.156-.022l5.591-.247a.843.843,0,0,0,.805-.81" transform="translate(-205.234 -1169.509)" fill="#00ae8d"/>
        <path id="Path_21295" data-name="Path 21295" d="M79.833,1341.278l.451-2.337a.768.768,0,0,0-.2-.675c-1.27-1.336-6.177-7.338,2.364-12.647a.773.773,0,0,1,1.169.8l-1.17,6.067a.772.772,0,0,0,.826.915l1.028-.09a.772.772,0,0,0,.691-.623l1.655-8.584a.77.77,0,0,1,.489-.578,26.683,26.683,0,0,1,9.211-1.77.773.773,0,0,1,.636,1.163l-3.854,6.582a.772.772,0,0,0,1.24.907l7.641-8.479a.772.772,0,0,1,.615-.254c2.085.106,11.964,1.154,6.407,11.529a.775.775,0,0,1-.706.41l-8.435-.255a.772.772,0,0,0-.786.648l-.012.075a.772.772,0,0,0,.662.89l7.232.95A.771.771,0,0,1,107.6,1337a11.275,11.275,0,0,1-8.809,6.8.769.769,0,0,1-.477-.1l-9.1-5.179a.773.773,0,0,0-.9.1l-.2.183a.772.772,0,0,0,.084,1.21l6.538,4.458a.772.772,0,0,1-.1,1.334c-1.779.855-5.825,1.676-12.248-3.167a.774.774,0,0,0-.318-.143l-1.618-.312a.773.773,0,0,1-.612-.9" transform="translate(-34.958 -1292.612)" fill="#00ae8d"/>
        <path id="Path_21296" data-name="Path 21296" d="M174.6,1522.592l1.356,10.1a12.2,12.2,0,0,0,12.093,10.579h7.846a12.193,12.193,0,0,0,12.091-10.579l1.358-10.1a2.387,2.387,0,0,0-2.366-2.7H176.964a2.384,2.384,0,0,0-2.364,2.7" transform="translate(-152.149 -1452.972)" fill="#ff8a54"/>
      </g>
      <g id="Group_32349" data-name="Group 32349" transform="translate(512.401 170.863)">
        <g id="Group_32341" data-name="Group 32341" transform="translate(0 0)">
          <path id="Path_21298" data-name="Path 21298" d="M612.6,121.01H541.41a13.448,13.448,0,0,0-13.448,13.448V293.482a13.449,13.449,0,0,0,13.448,13.448H612.6a13.448,13.448,0,0,0,13.448-13.448V134.458A13.448,13.448,0,0,0,612.6,121.01" transform="translate(-527.27 -121.01)" fill="#43b0ef"/>
          <path id="Path_21299" data-name="Path 21299" d="M523.545,293.361h-.272a.94.94,0,0,0-.94.94v8.974a.94.94,0,0,0,.94.94h.272Z" transform="translate(-522.333 -272.192)" fill="#43b0ef"/>
          <path id="Path_21300" data-name="Path 21300" d="M523.545,561.9h-.066a1.146,1.146,0,0,0-1.146,1.146v13.831a1.146,1.146,0,0,0,1.146,1.146h.066Z" transform="translate(-522.333 -507.749)" fill="#43b0ef"/>
          <path id="Path_21301" data-name="Path 21301" d="M523.545,702.2h-.066a1.146,1.146,0,0,0-1.146,1.146v13.832a1.146,1.146,0,0,0,1.146,1.146h.066Z" transform="translate(-522.333 -630.817)" fill="#43b0ef"/>
          <path id="Rectangle_13209" data-name="Rectangle 13209" d="M46.9,0h0a46.9,46.9,0,0,1,46.9,46.9v87.83a46.9,46.9,0,0,1-46.9,46.9h0A46.9,46.9,0,0,1,0,134.733V46.9A46.9,46.9,0,0,1,46.9,0Z" transform="translate(2.775 2.142)" fill="#3ca2dc"/>
          <path id="Path_21302" data-name="Path 21302" d="M568.228,329.225V170.2a8.444,8.444,0,0,1,8.444-8.444h71.194a8.444,8.444,0,0,1,8.444,8.444V329.225a8.443,8.443,0,0,1-8.444,8.444H576.671a8.443,8.443,0,0,1-8.443-8.444" transform="translate(-562.591 -156.752)" fill="#fff"/>
          <g id="Group_32325" data-name="Group 32325" transform="translate(12.979 93)" opacity="0.15">
            <g id="Group_32324" data-name="Group 32324">
              <g id="Group_32323" data-name="Group 32323" clip-path="url(#clip-path-6)">
                <path id="Path_21303" data-name="Path 21303" d="M697.949,880.1v9.117a1.916,1.916,0,0,1-1.916,1.916h-66.11a1.916,1.916,0,0,1-1.916-1.916V880.1a1.916,1.916,0,0,1,1.916-1.916h66.11a1.916,1.916,0,0,1,1.916,1.916" transform="translate(-628.008 -878.185)" fill="#d5dff0"/>
              </g>
            </g>
          </g>
          <g id="Group_32328" data-name="Group 32328" transform="translate(12.979 93)">
            <g id="Group_32327" data-name="Group 32327">
              <g id="Group_32326" data-name="Group 32326" clip-path="url(#clip-path-7)">
                <path id="Path_21304" data-name="Path 21304" d="M640.425,878.185v12.948h-10.5a1.915,1.915,0,0,1-1.916-1.916V880.1a1.916,1.916,0,0,1,1.916-1.916Z" transform="translate(-628.008 -878.185)" fill="#68d2c0"/>
              </g>
            </g>
          </g>
          <path id="Path_21305" data-name="Path 21305" d="M806.43,914.02v-2.454h1.256v2.6c0,.847.219,1.154.716,1.154s.73-.307.73-1.154v-2.6h1.213v2.454c0,1.622-.614,2.381-1.943,2.381s-1.972-.76-1.972-2.381" transform="translate(-771.536 -814.466)" fill="#4d4d4d"/>
          <path id="Path_21306" data-name="Path 21306" d="M843.658,915.1l.716-.862a1.928,1.928,0,0,0,1.11.46c.38,0,.541-.124.541-.336s-.241-.3-.643-.46l-.592-.248a1.4,1.4,0,0,1-.957-1.322,1.607,1.607,0,0,1,1.768-1.476,2.283,2.283,0,0,1,1.578.636l-.628.789a1.565,1.565,0,0,0-.95-.344c-.307,0-.5.11-.5.322s.27.307.7.475l.577.226a1.3,1.3,0,0,1,.927,1.3c0,.8-.672,1.519-1.855,1.519a2.75,2.75,0,0,1-1.8-.679" transform="translate(-804.191 -813.84)" fill="#4d4d4d"/>
          <path id="Path_21307" data-name="Path 21307" d="M879.577,911.566h3.068v1.052h-1.812v.745h1.549v1.052h-1.549v.847h1.885v1.052h-3.141Z" transform="translate(-835.698 -814.466)" fill="#4d4d4d"/>
          <path id="Path_21308" data-name="Path 21308" d="M912.642,911.566h1.8c1.023,0,1.9.351,1.9,1.534,0,1.147-.876,1.622-1.9,1.622H913.9v1.592h-1.256Zm1.709,2.162c.5,0,.76-.219.76-.628s-.263-.541-.76-.541H913.9v1.169Zm-.139.665.847-.833,1.541,2.754h-1.4Z" transform="translate(-864.702 -814.466)" fill="#4d4d4d"/>
          <path id="Path_21309" data-name="Path 21309" d="M950.106,911.566h1.286l1.052,2.118.453,1.067h.029a17.078,17.078,0,0,1-.161-1.812v-1.373h1.2v4.748h-1.286l-1.052-2.126-.453-1.059h-.029a17.8,17.8,0,0,1,.161,1.812v1.373h-1.2Z" transform="translate(-897.565 -814.466)" fill="#4d4d4d"/>
          <path id="Path_21310" data-name="Path 21310" d="M986.638,911.566h1.52l1.446,4.748h-1.33l-.541-2.308c-.117-.453-.234-1.03-.351-1.5h-.029c-.1.482-.219,1.052-.336,1.5l-.541,2.308h-1.286Zm-.409,2.769h2.323v.971h-2.323Z" transform="translate(-928.341 -814.466)" fill="#4d4d4d"/>
          <path id="Path_21311" data-name="Path 21311" d="M1024.2,911.566h1.344l.716,1.943c.087.263.161.555.249.833h.029c.088-.277.161-.57.249-.833l.687-1.943h1.344v4.748h-1.14v-1.4a16.447,16.447,0,0,1,.161-1.695h-.029l-.395,1.14-.584,1.57h-.672l-.584-1.57-.38-1.14h-.029a16.447,16.447,0,0,1,.161,1.695v1.4H1024.2Z" transform="translate(-962.562 -814.466)" fill="#4d4d4d"/>
          <path id="Path_21312" data-name="Path 21312" d="M1070.35,911.566h3.068v1.052h-1.812v.745h1.549v1.052h-1.549v.847h1.885v1.052h-3.141Z" transform="translate(-1003.04 -814.466)" fill="#4d4d4d"/>
          <path id="Path_21313" data-name="Path 21313" d="M669.611,910.378a1.26,1.26,0,1,1-1.034-1.239,1.277,1.277,0,0,1,1.034,1.239" transform="translate(-649.317 -812.318)" fill="#fff"/>
          <path id="Path_21314" data-name="Path 21314" d="M660.858,934.218c-.01.144-.022.288-.033.43s.013.224-.125.286a3.327,3.327,0,0,1-.882.233q.012-.484.024-.972a.114.114,0,0,0-.227,0c-.008.331-.014.662-.022.992a.09.09,0,0,0-.031.009l-.013.005c-.119.013-.235.025-.348.035a10.494,10.494,0,0,1-1.848.013c-.17-.013-.34-.031-.51-.056a.187.187,0,0,0-.029-.007l-.024-.992a.113.113,0,0,0-.226,0c.006.32.014.639.022.96l-.192-.037c-.17-.034-.749-.106-.8-.3-.017-.212-.033-.425-.05-.638a.878.878,0,0,1,.845-1.165q.461-.084.93-.126a10.11,10.11,0,0,1,1.688-.006q.467.037.93.118a1.214,1.214,0,0,1,.744.3,1.109,1.109,0,0,1,.178.917" transform="translate(-639.168 -833.136)" fill="#fff"/>
          <path id="Path_21315" data-name="Path 21315" d="M758.758,322.443a25.477,25.477,0,0,1-6.075,16.544q-.17.2-.343.4a25.619,25.619,0,0,1-23.976,8.17q-1.02-.2-2.007-.471a25.4,25.4,0,0,1-4.734-1.837l-.166-.086a25.7,25.7,0,0,1-7.449-5.82q-.287-.325-.563-.66a25.568,25.568,0,0,1,6.563-38.14q.3-.178.6-.349.522-.3,1.06-.568a25.387,25.387,0,0,1,7.01-2.343c.073-.014.145-.026.218-.038q.3-.052.607-.1l.1-.015a25.829,25.829,0,0,1,3.59-.251q.856,0,1.7.057h0q1.111.071,2.2.238h0a25.474,25.474,0,0,1,5.167,1.359h0a25.47,25.47,0,0,1,4.345,2.141q.353.219.7.447a25.541,25.541,0,0,1,11.457,21.322" transform="translate(-684.871 -275.279)" fill="#ff8953"/>
          <path id="Path_21316" data-name="Path 21316" d="M867.718,365.99a7.788,7.788,0,0,1-13.75,5.017c-4.623-5.454.35-13.967,7.357-12.682a7.891,7.891,0,0,1,6.394,7.665" transform="translate(-811.66 -329.062)" fill="#fff"/>
          <path id="Path_21317" data-name="Path 21317" d="M813.577,513.448c-.065.89-.138,1.779-.2,2.661-.065.817.081,1.383-.776,1.771a20.57,20.57,0,0,1-5.451,1.44q.073-3,.146-6.009a.7.7,0,0,0-1.407,0c-.049,2.046-.089,4.093-.138,6.139a.539.539,0,0,0-.194.057.343.343,0,0,0-.081.032c-.736.081-1.456.154-2.151.219a65,65,0,0,1-11.428.081c-1.051-.081-2.1-.194-3.154-.348a1.154,1.154,0,0,0-.178-.04q-.073-3.069-.146-6.139a.7.7,0,0,0-1.4,0c.041,1.982.089,3.955.138,5.936-.4-.073-.793-.146-1.189-.226-1.051-.21-4.635-.655-4.95-1.86-.105-1.31-.2-2.629-.307-3.947-.146-1.933-.34-3.793,1.068-5.378,1.116-1.254,2.588-1.537,4.157-1.828q2.851-.522,5.751-.776a62.511,62.511,0,0,1,10.442-.04q2.887.23,5.75.728c1.7.3,3.365.534,4.6,1.86,1.5,1.634,1.254,3.656,1.1,5.67" transform="translate(-748.884 -457.829)" fill="#fff"/>
          <g id="Group_32331" data-name="Group 32331" transform="translate(12.979 109.663)" opacity="0.15">
            <g id="Group_32330" data-name="Group 32330">
              <g id="Group_32329" data-name="Group 32329" clip-path="url(#clip-path-6)">
                <path id="Path_21318" data-name="Path 21318" d="M697.949,1015.764v9.117a1.916,1.916,0,0,1-1.916,1.916h-66.11a1.916,1.916,0,0,1-1.916-1.916v-9.117a1.916,1.916,0,0,1,1.916-1.916h66.11a1.916,1.916,0,0,1,1.916,1.916" transform="translate(-628.008 -1013.848)" fill="#d5dff0"/>
              </g>
            </g>
          </g>
          <g id="Group_32334" data-name="Group 32334" transform="translate(12.979 109.663)">
            <g id="Group_32333" data-name="Group 32333">
              <g id="Group_32332" data-name="Group 32332" clip-path="url(#clip-path-7)">
                <path id="Path_21319" data-name="Path 21319" d="M640.425,1013.848V1026.8h-10.5a1.916,1.916,0,0,1-1.916-1.916v-9.117a1.916,1.916,0,0,1,1.916-1.916Z" transform="translate(-628.008 -1013.848)" fill="#68d2c0"/>
              </g>
            </g>
          </g>
          <path id="Path_21320" data-name="Path 21320" d="M806.906,1055.12l.549-.978-1.024-.475.247-.759,1.106.219.128-1.115h.8l.128,1.124,1.106-.229.247.759-1.033.475.557.978-.64.466-.768-.832-.768.832Z" transform="translate(-771.536 -937.662)" fill="#4d4d4d"/>
          <path id="Path_21321" data-name="Path 21321" d="M842.017,1055.12l.548-.978-1.024-.475.247-.759,1.106.219.128-1.115h.8l.128,1.124,1.106-.229.247.759-1.032.475.557.978-.64.466-.768-.832-.768.832Z" transform="translate(-802.335 -937.662)" fill="#4d4d4d"/>
          <path id="Path_21322" data-name="Path 21322" d="M877.129,1055.12l.548-.978-1.024-.475.247-.759,1.105.219.128-1.115h.8l.128,1.124,1.106-.229.247.759-1.032.475.557.978-.64.466-.768-.832-.767.832Z" transform="translate(-833.135 -937.662)" fill="#4d4d4d"/>
          <path id="Path_21323" data-name="Path 21323" d="M912.243,1055.12l.548-.978-1.024-.475.247-.759,1.106.219.128-1.115h.8l.128,1.124,1.106-.229.247.759-1.032.475.557.978-.64.466-.768-.832-.768.832Z" transform="translate(-863.935 -937.662)" fill="#4d4d4d"/>
          <path id="Path_21324" data-name="Path 21324" d="M947.354,1055.12l.548-.978-1.023-.475.247-.759,1.105.219.128-1.115h.8l.128,1.124,1.106-.229.247.759-1.033.475.557.978-.64.466-.768-.832-.768.832Z" transform="translate(-894.734 -937.662)" fill="#4d4d4d"/>
          <path id="Path_21325" data-name="Path 21325" d="M982.466,1055.12l.548-.978-1.024-.475.247-.759,1.106.219.128-1.115h.8l.128,1.124,1.106-.229.247.759-1.033.475.557.978-.64.466-.768-.832-.767.832Z" transform="translate(-925.533 -937.662)" fill="#4d4d4d"/>
          <path id="Path_21326" data-name="Path 21326" d="M1017.578,1055.12l.548-.978-1.023-.475.247-.759,1.106.219.128-1.115h.8l.128,1.124,1.106-.229.247.759-1.033.475.557.978-.64.466-.768-.832-.768.832Z" transform="translate(-956.333 -937.662)" fill="#4d4d4d"/>
          <path id="Path_21327" data-name="Path 21327" d="M1052.69,1055.12l.548-.978-1.024-.475.247-.759,1.106.219.128-1.115h.8l.128,1.124,1.106-.229.247.759-1.033.475.558.978-.64.466-.768-.832-.768.832Z" transform="translate(-987.132 -937.662)" fill="#4d4d4d"/>
          <path id="Path_21328" data-name="Path 21328" d="M663.418,1046.14h-.167v-.634a1.332,1.332,0,0,0-1.33-1.33h-.089a1.332,1.332,0,0,0-1.33,1.33v.634h-.167a.619.619,0,0,0-.619.619v2.3a.619.619,0,0,0,.619.619h3.083a.619.619,0,0,0,.619-.619v-2.3a.619.619,0,0,0-.619-.619m-2.261-.634a.676.676,0,0,1,.675-.676h.089a.676.676,0,0,1,.675.676v.634h-1.44Z" transform="translate(-642.843 -930.788)" fill="#fff"/>
          <path id="Path_21329" data-name="Path 21329" d="M755.962,1272.443v8.462a1.623,1.623,0,0,1-1.4,1.778H706.31a1.623,1.623,0,0,1-1.4-1.778v-8.462a1.622,1.622,0,0,1,1.4-1.778h48.253a1.623,1.623,0,0,1,1.4,1.778" transform="translate(-682.487 -1129.458)" fill="#ff8953"/>
          <path id="Path_21330" data-name="Path 21330" d="M833.277,1300.258h1.256v3.7h1.8v1.052h-3.053Z" transform="translate(-795.085 -1155.417)" fill="#fff"/>
          <path id="Path_21331" data-name="Path 21331" d="M860.751,1301.985a2.217,2.217,0,1,1,4.412,0,2.221,2.221,0,1,1-4.412,0m3.126,0c0-.862-.35-1.359-.92-1.359s-.92.5-.92,1.359.351,1.4.92,1.4.92-.541.92-1.4" transform="translate(-819.185 -1154.792)" fill="#fff"/>
          <path id="Path_21332" data-name="Path 21332" d="M901.9,1302.043a2.33,2.33,0,0,1,2.367-2.5,2.141,2.141,0,0,1,1.549.628l-.657.8a1.187,1.187,0,0,0-.847-.351c-.643,0-1.125.511-1.125,1.373,0,.891.395,1.388,1.242,1.388a.713.713,0,0,0,.365-.088v-.657h-.7v-1.022h1.812v2.264a2.4,2.4,0,0,1-1.607.584,2.246,2.246,0,0,1-2.4-2.425" transform="translate(-855.282 -1154.792)" fill="#fff"/>
          <rect id="Rectangle_13214" data-name="Rectangle 13214" width="1.256" height="4.748" transform="translate(51.544 144.841)" fill="#fff"/>
          <path id="Path_21333" data-name="Path 21333" d="M960.776,1300.258h1.286l1.052,2.118.453,1.066h.029a17.068,17.068,0,0,1-.161-1.812v-1.373h1.2v4.748h-1.286l-1.052-2.126-.453-1.059h-.029a17.713,17.713,0,0,1,.161,1.811v1.374h-1.2Z" transform="translate(-906.924 -1155.417)" fill="#fff"/>
          <path id="Path_21334" data-name="Path 21334" d="M1506.594,1544.3s1.421,4.975,2.132,7.819l4.976-.711-1.422-9.951Z" transform="translate(-1385.702 -1366.987)" fill="#ffc4b1"/>
          <path id="Path_21335" data-name="Path 21335" d="M1381.78,1442.635l-4.74,8.1-3.551-3.5,5.687-9.951Z" transform="translate(-1268.945 -1275.613)" fill="#ffc4b1"/>
          <path id="Path_21336" data-name="Path 21336" d="M1446.285,516.758a3.989,3.989,0,0,0,4.685.383,1.062,1.062,0,0,0,.56-1.077l-.98-7.835-6.227,4.5Z" transform="translate(-1331.079 -460.668)" fill="#4d4d4d"/>
          <path id="Path_21337" data-name="Path 21337" d="M1606.253,562.12l3.058-10.411a.591.591,0,0,1,.708-.408l5.4,1.324a.591.591,0,0,1,.423.751l-3.2,10.253a.591.591,0,0,1-.693.4l-5.249-1.167a.591.591,0,0,1-.439-.744" transform="translate(-1473.099 -498.436)" fill="#43b0ef"/>
          <path id="Path_21338" data-name="Path 21338" d="M1415.3,887.5a20.849,20.849,0,0,0,2.843,12.084c3.554,5.687,14.9,27.011,14.556,30.565-.309,3.232-21.105,27.618-24.875,32.015a.808.808,0,0,1-1.2.031l-3.741-3.927a1.33,1.33,0,0,1-.364-1.013c.177-2.487,1.965-12.339,18.466-26.4l-12.794-22.035-2.038-20.512Z" transform="translate(-1294.409 -793.358)" fill="#ff8a54"/>
          <path id="Path_21339" data-name="Path 21339" d="M1314.333,894s-7.108,7.045,2.132,26.979,10.662,26.331,10.662,26.331,2.664,21.975,7.346,29.186a1.229,1.229,0,0,0,1.233.541l6.811-1.135a1.073,1.073,0,0,0,.9-1.137,165.108,165.108,0,0,0-6.335-33.142c-5.687-19.192-8.53-48.335-8.53-48.335Z" transform="translate(-1214.765 -798.435)" fill="#ff8a54"/>
          <path id="Path_21340" data-name="Path 21340" d="M1275.3,926.557l3.121,3.9s0,6.242,7.023,4.682v-.78l-2.341-3.9h1.561s-.78-2.036-4.292-3.359l-2.731-3.664Z" transform="translate(-1182.816 -824.878)" fill="#f4a78d"/>
          <path id="Path_21341" data-name="Path 21341" d="M1617.491,605.055a14.464,14.464,0,0,0,.711-3.554c0-1.422-4.976-1.422-2.133-4.265s5.687,1.422,5.687,4.265a11.216,11.216,0,0,1-2.132,5.687Z" transform="translate(-1480.961 -537.921)" fill="#f4a78d"/>
          <path id="Path_21342" data-name="Path 21342" d="M1184.826,583.375c3.441-1.595,14.154-5.648,22.973.819,0,0,4.265,3.554,3.554,18.481,0,0,7.819-7.108,7.819-7.819,0-.649,1.185-2.482,2.472-3.878a.853.853,0,0,1,.881-.24,11.028,11.028,0,0,1,3.375,1.648.724.724,0,0,1,.231.8c-.9,2.682-5.888,16.386-15.49,20.867,0,0-1.422.711-2.843-1.422,0,0,2.132,7.819,0,9.241h-23.457s-2.636,0-.729-7.978a26.289,26.289,0,0,0,.729-6.115v-11.5s-6.4,9.6-9.951,11.373c0,0,9.951,14.216,7.819,16.349l-3.109,2.487a.948.948,0,0,1-1.037.1c-1.647-.875-6.581-4.543-12.913-18.935,0,0,3.64-9.356,17.79-22.985a6.906,6.906,0,0,1,1.886-1.291" transform="translate(-1086.196 -524.195)" fill="#baece4"/>
          <path id="Path_21343" data-name="Path 21343" d="M1375.62,455.145l-2.132-13.861s6.4-8.53,15.993-2.132c0,0,2.132,12.795-4.265,12.795v4.265s-3.2,7.464-9.6-1.066" transform="translate(-1268.945 -397.989)" fill="#ffc4b1"/>
          <path id="Path_21344" data-name="Path 21344" d="M1339.715,392.381s-.289,2.063,0,2.132a13.212,13.212,0,0,0,6.95-.571c.144-.051.373-1.5.513-1.562s.2,1.28.341,1.214c.682-.319,2.361-.718,2.857-1.214.754-.754-1.066-6.4-6.4-8.53,0,0-12.794-3.2-14.927,8.53-1.98,10.891.636,10.749-2.395,14.942a.945.945,0,0,0,.52,1.469c1.851.49,5.318,1.059,8.272-.418v-7.463s-3.789-2.4-1.22-4.165a.894.894,0,0,1,.744-.135c.513.144,1.222.807,1.542,3.234l.619-3.286a6.346,6.346,0,0,1,1.594-3.153c.314-.337.655-.694.985-1.024" transform="translate(-1227.708 -351.219)" fill="#4d4d4d"/>
          <path id="Path_21346" data-name="Path 21346" d="M1343.983,1505.917a8.589,8.589,0,0,0-3.968,3.681.978.978,0,0,0,.307,1.291l12.057,8.14a.788.788,0,0,0,1.228-.6c.052-.916-.376-2.488-2.431-5.036-2.1-2.6-2.386-3.6-2.334-3.988a.186.186,0,0,0-.184-.215,4.5,4.5,0,0,1-4.431-3.158.184.184,0,0,0-.245-.111" transform="translate(-1239.472 -1335.803)" fill="#4d4d4d"/>
          <g id="Group_32337" data-name="Group 32337" transform="translate(120.353 68.492)" style="mix-blend-mode: multiply;isolation: isolate">
            <g id="Group_32336" data-name="Group 32336">
              <g id="Group_32335" data-name="Group 32335" clip-path="url(#clip-path-10)">
                <path id="Path_21347" data-name="Path 21347" d="M1503.437,698.591a46.8,46.8,0,0,1-1.06-6.244,21.18,21.18,0,0,1-.132-3.54,10.781,10.781,0,0,1,.828-2.814,12.348,12.348,0,0,0,.542-4.822c-.028-.812-.12-1.7-.178-2.513l.052-.011c.14.728.33,1.767.4,2.492a11.477,11.477,0,0,1-.345,5.009,14.631,14.631,0,0,0-.74,2.4,9.058,9.058,0,0,0-.074,1.25c.007,1.25.1,2.529.208,3.773q.224,2.512.548,5.014Z" transform="translate(-1502.214 -678.648)" fill="#e7e7e7"/>
              </g>
            </g>
          </g>
        </g>
        <path id="Path_21345" data-name="Path 21345" d="M1503.974,1614.262a9.6,9.6,0,0,0-.981,5.217,1.254,1.254,0,0,0,1.284,1.145l15.927-.427a.856.856,0,0,0,.795-1.121c-.334-.981-1.556-2.379-5.606-3.141-2.454-.462-3.519-1.379-3.961-1.958a.611.611,0,0,0-.811-.152,5.413,5.413,0,0,1-5.786.194.614.614,0,0,0-.86.243" transform="translate(-1382.51 -1431.214)" fill="#4d4d4d"/>
      </g>
    </g>
  </g>
</svg>
