<svg xmlns="http://www.w3.org/2000/svg" xmlns:xlink="http://www.w3.org/1999/xlink" width="803.943" height="253" viewBox="0 0 803.943 253">
  <defs>
    <clipPath id="clip-path">
      <rect id="Rectangle_13232" data-name="Rectangle 13232" width="36.368" height="36.368" fill="#ff8a54"/>
    </clipPath>
  </defs>
  <g id="Group_32697" data-name="Group 32697" transform="translate(0.538)">
    <rect id="Rectangle_12169" data-name="Rectangle 12169" width="800" height="253" fill="#D8DDE3"/>
    <path id="Path_17974" data-name="Path 17974" d="M4835.669,3900.215s106.368,99.729,208.021,59.906c97.892-38.35,139.732-85.855,219.441-64.756s127.582,82.59,200.055,81.273c80.75-1.466,173.446-59.583,175.048-56.424" transform="translate(-4835.5 -3750.215)" fill="none" stroke="#707070" stroke-linecap="round" stroke-width="1" stroke-dasharray="2 4"/>
    <g id="Group_32614" data-name="Group 32614" transform="translate(-6229.902 6397.582)">
      <path id="Path_21491" data-name="Path 21491" d="M589.3,821.488l-6.573,78.16s-.689,4.738,2.836,4.746c5.794.014,28.841,0,28.841,0s-4.361-.986-4.308-3.205c.062-2.616,7.683-80.44,7.683-80.44Z" transform="translate(6176.368 -7049.498)" fill="#3a98cf"/>
      <path id="Path_21493" data-name="Path 21493" d="M109.2,504.312l16.012,64.315,2.192,8.808,7.457,29.956H273.409l-27.487-103.08Z" transform="translate(6587.312 -6774.854)" fill="#43b0ef"/>
      <path id="Path_21494" data-name="Path 21494" d="M94.615,504.311l-2.219.74,24.931,104.578,2.95-2.237Z" transform="translate(6601.896 -6774.853)" fill="#53c0ff"/>
      <path id="Path_21495" data-name="Path 21495" d="M281.165,1287.049H418.86l3.8-2.237H284.115Z" transform="translate(6438.058 -7452.272)" fill="#378bbc"/>
      <rect id="Rectangle_13230" data-name="Rectangle 13230" width="29.813" height="1.417" transform="translate(6767.577 -6146.491)" fill="#43b0ef"/>
      <path id="Path_21498" data-name="Path 21498" d="M109.2,504.311H245.921L268.1,587.155H129.822Z" transform="translate(6587.313 -6774.853)" fill="#71cbff"/>
      <path id="Path_21499" data-name="Path 21499" d="M298.871,612.73H170.857l-4.574-18.223-1.77-7.051-.722-2.876-4.7-18.727-.244-.975-2.485-9.9-1.112-4.429-.949-3.779-2.224-8.857H278.245l2.442,8.857,1.041,3.779,1.221,4.429,8.044,29.18h0l.682,2.472.317,1.148,5.554,20.146Z" transform="translate(6550.097 -6804.018)" fill="#739af0"/>
      <path id="Path_21500" data-name="Path 21500" d="M280.691,546.769H154.3l-2.223-8.858H278.25Z" transform="translate(6550.093 -6804.016)" fill="#3a98cf"/>
      <path id="Path_21501" data-name="Path 21501" d="M191.377,560.944a.837.837,0,0,1,.831-1.107,1.512,1.512,0,0,1,1.383,1.107.836.836,0,0,1-.831,1.107,1.512,1.512,0,0,1-1.383-1.107" transform="translate(6516.017 -6823.045)" fill="#e9f3fe"/>
      <path id="Path_21502" data-name="Path 21502" d="M219.235,560.944a.836.836,0,0,1,.831-1.107,1.512,1.512,0,0,1,1.383,1.107.836.836,0,0,1-.831,1.107,1.512,1.512,0,0,1-1.383-1.107" transform="translate(6491.838 -6823.045)" fill="#e9f3fe"/>
      <path id="Path_21503" data-name="Path 21503" d="M249.232,560.944a.837.837,0,0,1,.831-1.107,1.512,1.512,0,0,1,1.383,1.107.836.836,0,0,1-.831,1.107,1.513,1.513,0,0,1-1.383-1.107" transform="translate(6465.803 -6823.045)" fill="#e9f3fe"/>
      <path id="Path_21504" data-name="Path 21504" d="M1041.016,49.8c5.174-6.075,13.153-18.278,18.524-24.527A1.981,1.981,0,0,0,1058.031,22h-9.775l9.22-20.848a.817.817,0,0,0-1.4-.82l-22.293,29.838a1.234,1.234,0,0,0,1.139,1.963l11.066-1.363L1039.4,48.86a.949.949,0,0,0,1.614.943" transform="translate(5785.055 -6337.148)" fill="#ff5454"/>
      <path id="Path_21505" data-name="Path 21505" d="M495.485,340.143l-111.234,9.372a11.134,11.134,0,0,1-11.1-15.637L420.277,228.41a11.134,11.134,0,0,1,19.428-1.637l64.108,96.1a11.135,11.135,0,0,1-8.328,17.274" transform="translate(6359.075 -6529.667)" fill="#e6efff"/>
      <path id="Path_21506" data-name="Path 21506" d="M468.069,316.589l-111.234,9.372a15.357,15.357,0,0,1-15.31-21.567l47.126-105.467a15.357,15.357,0,0,1,26.8-2.258l64.108,96.1a15.356,15.356,0,0,1-11.486,23.825M402.091,198.3a6.825,6.825,0,0,0-5.73,4.068L349.235,307.839a6.912,6.912,0,0,0,6.891,9.707l111.234-9.372a6.912,6.912,0,0,0,5.17-10.723l-64.108-96.1a6.825,6.825,0,0,0-6.33-3.052" transform="translate(6386.846 -6501.907)" fill="#ff5454"/>
      <path id="Path_21507" data-name="Path 21507" d="M751.783,502.3a10.176,10.176,0,0,1,.433-4.04,9.325,9.325,0,0,1,1.9-3.343,9.994,9.994,0,0,1,3.2-2.369,12.464,12.464,0,0,1,4.376-1.123,12.75,12.75,0,0,1,4.536.373,9.938,9.938,0,0,1,3.581,1.8,9.339,9.339,0,0,1,2.436,2.978,10.2,10.2,0,0,1,1.1,3.91,9.956,9.956,0,0,1-.436,4.007,9.4,9.4,0,0,1-1.906,3.311,9.91,9.91,0,0,1-3.229,2.372,12.749,12.749,0,0,1-4.41,1.126,12.468,12.468,0,0,1-4.5-.375,9.964,9.964,0,0,1-3.547-1.8,9.387,9.387,0,0,1-2.433-2.945,9.934,9.934,0,0,1-1.1-3.878m17.2-20.123-16.022,1.35-6.882-54.555,20.562-1.732Z" transform="translate(6034.548 -6707.961)" fill="#f77d48"/>
      <path id="Path_21508" data-name="Path 21508" d="M266.3,852.736s.349-.784.575-1.156,1.191-1.46,1.355-1.213.821,1.9.472,2.369.023,1.272-1.713,1.761Z" transform="translate(6450.962 -7075.174)" fill="#ffb27d"/>
      <path id="Path_21509" data-name="Path 21509" d="M120.224,831.038s8.887,7.418,12.352,6.731c2.71-.537,6.993-1.9,6.993-1.9a2.734,2.734,0,0,1,.811,2.364s-5.458,5.135-9.346,5.168c-6.078.052-8.944-3.012-8.944-3.012Z" transform="translate(6577.743 -7058.429)" fill="#68d2c0"/>
      <path id="Path_21510" data-name="Path 21510" d="M2.216,1414.686s.258,4.162,1.063,4.221c.107.008,4.083.008,4.083.008l5.076-.029a1.647,1.647,0,0,0-1.517-1.482c-1.484-.259-3.967-1.3-4.866-3.263-.946-2.063-3.84.545-3.84.545" transform="translate(6680.166 -7563.832)" fill="#3d3d3d"/>
      <path id="Path_21511" data-name="Path 21511" d="M0,1088.035a10.584,10.584,0,0,0,2.748.516,10.087,10.087,0,0,0,2.565-.366,70.278,70.278,0,0,1,1.889-9c.838-3.244,2.035-7.416,3.738-12.6,4.708-14.327,6.14-22.708,6.271-23.5.007-.042.01-.062.01-.062l-.015-.007-14.475-6.356s1.789,19.746-.493,27.325a31.934,31.934,0,0,0-.829,3.631C-.033,1075.846,0,1088.035,0,1088.035" transform="translate(6682.089 -7236.893)" fill="#4d4d4d"/>
      <path id="Path_21512" data-name="Path 21512" d="M21.811,1079.185c.838-3.244,2.035-7.416,3.738-12.6,4.708-14.327,6.14-22.708,6.271-23.5,0-.024,0-.046-.006-.07l-14.476-6.356s1.789,19.746-.493,27.325c-.32,1.059,4.966,15.2,4.966,15.2" transform="translate(6667.481 -7236.893)" fill="#3d3d3d"/>
      <path id="Path_21513" data-name="Path 21513" d="M87.823,1414.686s.258,4.162,1.063,4.221c.107.008,4.083.008,4.083.008l5.076-.029a1.647,1.647,0,0,0-1.517-1.482c-1.484-.259-3.967-1.3-4.866-3.263-.946-2.063-3.84.545-3.84.545" transform="translate(6605.865 -7563.832)" fill="#3d3d3d"/>
      <path id="Path_21514" data-name="Path 21514" d="M48.821,1040.182a206.071,206.071,0,0,1-2.026,28.506c-2.214,15.71-1.463,22.379-1.463,22.379a15.037,15.037,0,0,1-2.135.543,9.684,9.684,0,0,1-3.167-.366s-3.169-15.716-2.26-23.58-4.339-26.983-4.339-26.983Z" transform="translate(6653.074 -7239.951)" fill="#4d4d4d"/>
      <path id="Path_21515" data-name="Path 21515" d="M72.247,771.894l2.826,1.853,2.574-.728a6.148,6.148,0,0,0,.6-3.086,19.2,19.2,0,0,0-.1-2.055L74.335,766.2l-1.423-.627c0,.022.111,1.168.126,1.335a9.731,9.731,0,0,1-.792,4.99" transform="translate(6619.384 -7001.606)" fill="#ffb27d"/>
      <path id="Path_21516" data-name="Path 21516" d="M33.22,839.908c-3.517,3.4-16.828,2.825-17.648-.917s.895-31.849,6.9-33.615c1.247-.366,7.912,1.788,7.912,1.788a42.257,42.257,0,0,1,1.732,6.219c.133.678.522,7.861.813,14.581.136,3.143.25,6.185.309,8.413a24.259,24.259,0,0,1-.02,3.531" transform="translate(6668.741 -7036.12)" fill="#68d2c0"/>
      <path id="Path_21517" data-name="Path 21517" d="M79.685,771.073c.773,1.308,3.487,2.452,4.925,2.977a19.211,19.211,0,0,0-.1-2.055L80.7,770.312c-.843-.011-1.356.177-1.012.761" transform="translate(6613.023 -7005.723)" fill="#fca56b"/>
      <path id="Path_21518" data-name="Path 21518" d="M71.516,714.86s-6.142,1.916-7.277-1.927-2.691-6.185,1.183-7.571,5.072-.145,5.763,1.046,1.9,7.855.331,8.453" transform="translate(6627.454 -6948.82)" fill="#ffb27d"/>
      <path id="Path_21519" data-name="Path 21519" d="M53.381,692.245s-.392,4.473-1.317,4.279-1.943-.61-1.808.739-.9,3.659-2.233,3.654c-2.861-.012-5.969-7.352-5.186-8.744,2.26-4.016,13.809-4.827,10.543.073" transform="translate(6645.015 -6935.028)" fill="#163560"/>
      <path id="Path_21520" data-name="Path 21520" d="M75.371,793.991c-.079-.033-4.573-2.049-5.1-1.876s-1.181,1.779-1.181,1.779L77,795.683a3.93,3.93,0,0,0-1.634-1.692" transform="translate(6622.123 -7024.638)" fill="#00ae8d"/>
      <path id="Path_21521" data-name="Path 21521" d="M147.434,955.38,122.245,979.1c-.494.465-1.116.613-1.383.329l-.85-.9c-.267-.284-.082-.9.412-1.361l25.189-23.715c.494-.465,1.116-.613,1.383-.329l.85.9c.267.284.082.9-.412,1.361" transform="translate(6578.034 -7164.259)" fill="#ff8a54"/>
      <path id="Path_21522" data-name="Path 21522" d="M133.3,1059.261l-11.053,10.407c-.494.465-1.116.613-1.383.329l-.85-.9c-.267-.284-.082-.9.412-1.361l11.053-10.407Z" transform="translate(6578.034 -7254.831)" fill="#e58638"/>
      <path id="Path_21523" data-name="Path 21523" d="M278.988,735.811a19.743,19.743,0,1,0,32.723-19.84q-.152-.152-.31-.3a19.744,19.744,0,0,0-32.413,20.139m5.643-18.221a18.185,18.185,0,1,1,.783,25.7,18.164,18.164,0,0,1-.783-25.7" transform="translate(6440.69 -6953.644)" fill="#e58638"/>
      <g id="Group_32372" data-name="Group 32372" transform="translate(6720.38 -6241.777)" clip-path="url(#clip-path)">
        <path id="Path_21524" data-name="Path 21524" d="M321.357,752.753a18.185,18.185,0,1,1-.784-25.7,18.11,18.11,0,0,1,.784,25.7" transform="translate(-289.929 -722.11)" fill="#ff8a54"/>
      </g>
      <path id="Path_21525" data-name="Path 21525" d="M66.825,888.654C52.946,878.764,54.1,865.567,54.1,865.567c5.073,2.861,10.106,9.187,12.416,14.675.136,3.143.251,6.185.309,8.413" transform="translate(6635.155 -7088.398)" fill="#00ae8d"/>
      <path id="Path_21526" data-name="Path 21526" d="M243.4,999.079a3.786,3.786,0,0,0,1.773-1.1s.417.029-.068.919c-.041.075-.131.266-.2.4a.086.086,0,0,0,.073.124,9.231,9.231,0,0,1,2.221.046c.15.031.194.391.188.544a1.389,1.389,0,0,1-.293.948,4.853,4.853,0,0,1-1.754.918,5.3,5.3,0,0,1-2.714-.341l-.889-.411.275-1.651.223.047c.354.074.794-.359,1.163-.449" transform="translate(6472.275 -7203.327)" fill="#ffb27d"/>
      <path id="Path_21527" data-name="Path 21527" d="M56.66,819.2s-12.471,2.374,3.669,20.434c2.581,2.888,16.527,6.649,16.527,6.649s1.414-1.2.7-2.178c0,0-9.6-6.973-11.715-8.081-.951-.5-3.689-11.129-5.238-13.69A6.985,6.985,0,0,0,56.66,819.2" transform="translate(6636.902 -7048.151)" fill="#68d2c0"/>
      <path id="Path_21528" data-name="Path 21528" d="M268.857,850.226a6.351,6.351,0,0,0,.488-1.191,6.576,6.576,0,0,1,.8-1.822c.085-.084.364.025.4.388a2.114,2.114,0,0,1-.2.789,8.9,8.9,0,0,0-.264,1.567c-.193.628-1.225.268-1.225.268" transform="translate(6448.74 -7072.445)" fill="#ffb27d"/>
      <path id="Path_21529" data-name="Path 21529" d="M1047.992,731.272a4.162,4.162,0,0,0-3.3.17c-5.622.231-5.831,5.994-5.171,8.139.927,3.012-2.353,5.387,1.285,6.607,4.221,1.414,7.763-.264,7.521.465,13.348,1.052,4.112-13.906-.329-15.38" transform="translate(5780.276 -6971.622)" fill="#163560"/>
      <path id="Path_21530" data-name="Path 21530" d="M1008.084,866.634a14.745,14.745,0,0,1-1.5,2.274c-1.168,1.463-7.3-2.01-6.77-2.274s3.609-9.139,4.342-10.254,3.234-1.694,3.234-1.694Z" transform="translate(5814.352 -7078.954)" fill="#68d2c0"/>
      <path id="Path_21531" data-name="Path 21531" d="M1179.022,1393.554s1.692,1.544,1.362,2.641-1.857,1.829-2.063,3.17-1.032,2.072-1.774,2.072H1173s-.547-.943.774-1.228,1.818-1.86,1.736-3.323a25.823,25.823,0,0,1,.124-3.413l2.806-.65Z" transform="translate(5664.101 -7546.019)" fill="#3d3d3d"/>
      <path id="Path_21532" data-name="Path 21532" d="M1047.516,1403.325s.609,6.541-.134,6.907l-9.507-.02s0-1.1,1.527-1.341,4.209-1.138,4.663-3.129,3.45-2.418,3.45-2.418" transform="translate(5781.287 -7555.134)" fill="#3d3d3d"/>
      <path id="Path_21533" data-name="Path 21533" d="M1053.369,858.821a37.813,37.813,0,0,1,0,4.394c-.094,1.589-1.7,3.717-1.929,4.243-.572,1.32-1.217,1.535-1.217,1.535l-4.991,1.223-1.755.43-5.534-1.653s-2.521-7.036-1.509-11a30.45,30.45,0,0,1,2.559-6.711,39.5,39.5,0,0,1,10.4-.375Z" transform="translate(5782.746 -7075.553)" fill="#68d2c0"/>
      <path id="Path_21534" data-name="Path 21534" d="M1107.315,917.158c-.094,1.589-2.176,3.661-2.4,4.187-.572,1.32-1.217,1.535-1.217,1.535L1098.7,924.1l-.9-2.583s7.293-1.916,6.12-8.666Z" transform="translate(5729.276 -7129.44)" fill="#00ae8d"/>
      <path id="Path_21535" data-name="Path 21535" d="M1032.9,996.851s-2.741,8.531-2.917,11.436,5.239,41.261,5.457,42.6c.206,1.261,1.772,2.066,1.772,2.066a2.37,2.37,0,0,0,1.749.135,4.325,4.325,0,0,0,1.878-.885s2.133-27.356.813-37.128a154.769,154.769,0,0,1-1.336-18.223Z" transform="translate(5788.14 -7202.343)" fill="#3d3d3d"/>
      <path id="Path_21536" data-name="Path 21536" d="M1069.637,994.925s4.181,5.61,4.57,9.4.611,17.111,1.442,20.808,3.881,10.811,3.881,22.341a2.3,2.3,0,0,1-1.3,1.013,10.662,10.662,0,0,1-1.14.315,1.792,1.792,0,0,1-2-.951c-2.062-4.153-8.633-17.547-8.969-20.327-.238-1.968-2.313-14.99-6.838-22.631-1.086-1.834.667-9.13.667-9.13Z" transform="translate(5763.015 -7200.671)" fill="#4d4d4d"/>
      <path id="Path_21537" data-name="Path 21537" d="M1047.759,986.879a5.747,5.747,0,0,0,3.286.914c2.611.053,9.08-.666,9.08-.666a5.342,5.342,0,0,1,.276,1.651s-7.9,1.993-12.48.291a2.9,2.9,0,0,1-.162-2.191" transform="translate(5772.843 -7193.688)" fill="#3d3d3d"/>
      <path id="Path_21538" data-name="Path 21538" d="M1061.09,993.116a1.359,1.359,0,1,1,1.192-1.348,1.279,1.279,0,0,1-1.192,1.348m0-2.3a.969.969,0,1,0,.8.954.887.887,0,0,0-.8-.954" transform="translate(5762.172 -7196.761)" fill="#fff"/>
      <path id="Path_21539" data-name="Path 21539" d="M995.693,939.159l-11.876.111-5.844-13.734,11.876-.111Z" transform="translate(5833.277 -7140.351)" fill="#43b0ef"/>
      <path id="Path_21540" data-name="Path 21540" d="M1060.344,968.135l-.871-1.07a3.057,3.057,0,0,0-1.016-.615c-.428-.09-1.33-.61-1.418-.464s.694,1.193.694,1.193l.04.006c-.9.674-3.16.079-3.44.354-.339.333.466,1.054.9,1.459a3.17,3.17,0,0,0,2.629.78c.7-.219,1.811-.442,1.811-.442Z" transform="translate(5767.073 -7175.533)" fill="#ffb27d"/>
      <path id="Path_21541" data-name="Path 21541" d="M984.236,940.933s.746-.848,1.221-.441-.124,2.409-.577,2.205-.9-1.515-.645-1.764" transform="translate(5827.908 -7153.332)" fill="#ffb27d"/>
      <path id="Path_21542" data-name="Path 21542" d="M1096.477,851.847s3.4.375,5.839,4.808c1.924,3.5,5.213,9.94,3.972,11.76-.545.8-5.767,3.643-15.841,2.018a3.048,3.048,0,0,1,.971-1.862s8.477-2.721,8.463-3.263c-.028-1.024-1.146-1.909-5.881-6.646-1.287-1.288,2.476-6.814,2.476-6.814" transform="translate(5735.658 -7076.49)" fill="#68d2c0"/>
      <path id="Path_21543" data-name="Path 21543" d="M1082.549,819.047c.117-.157-.033-.656-.22-1.586a17.384,17.384,0,0,1-.45-3.612l-.25.042-4.213.709s.1,1.126.1,2.188c0,.009,0,.018,0,.027.005.922-.249,2.314.062,2.5,1.6.935,4.524.339,4.973-.264" transform="translate(5746.969 -7043.51)" fill="#ffb27d"/>
      <path id="Path_21544" data-name="Path 21544" d="M1077.415,814.876s.084,1.589.086,2.65c2.358-.056,3.617-2.346,4.127-3.359Z" transform="translate(5746.969 -7043.786)" fill="#e8945b"/>
      <path id="Path_21545" data-name="Path 21545" d="M1056.481,769.857s5.524-.787,4.98-4.219-.2-5.846-3.745-5.488-4.026,1.775-4.123,2.965,1.437,6.859,2.888,6.743" transform="translate(5767.648 -6996.873)" fill="#ffb27d"/>
      <path id="Path_21546" data-name="Path 21546" d="M1065.744,756.518s2.15,3.786,4.559,4.012,3.315-.554,3.315-.554a6.638,6.638,0,0,1-2.761-3.531s-4.281-2.025-5.113.073" transform="translate(5757.098 -6992.925)" fill="#163560"/>
      <path id="Path_21547" data-name="Path 21547" d="M1052.427,761.427a3.46,3.46,0,0,0-1.382,1.485,5.615,5.615,0,0,0-.243,3.269s-1.572-2.555-.542-4.307c1.092-1.857,2.167-.448,2.167-.448" transform="translate(5770.841 -6997.566)" fill="#163560"/>
    </g>
  </g>
</svg>
