<svg xmlns="http://www.w3.org/2000/svg" xmlns:xlink="http://www.w3.org/1999/xlink" width="803.943" height="253" viewBox="0 0 803.943 253">
  <defs>
    <clipPath id="clip-path">
      <rect id="Rectangle_13229" data-name="Rectangle 13229" width="15.835" height="15.835" fill="#00ae8d"/>
    </clipPath>
    <clipPath id="clip-path-2">
      <rect id="Rectangle_13222" data-name="Rectangle 13222" width="49.013" height="49.013" fill="#00ae8d"/>
    </clipPath>
  </defs>
  <g id="Group_32690" data-name="Group 32690" transform="translate(0.538)">
    <rect id="Rectangle_12169" data-name="Rectangle 12169" width="800" height="253" fill="#D8DDE3"/>
    <path id="Path_17974" data-name="Path 17974" d="M4835.669,3900.215s106.368,99.729,208.021,59.906c97.892-38.35,139.732-85.855,219.441-64.756s127.582,82.59,200.055,81.273c80.75-1.466,173.446-59.583,175.048-56.424" transform="translate(-4835.5 -3750.215)" fill="none" stroke="#707070" stroke-linecap="round" stroke-width="1" stroke-dasharray="2 4"/>
    <g id="Group_32367" data-name="Group 32367" transform="translate(-4764.881 5099.537)">
      <g id="Group_32365" data-name="Group 32365" transform="translate(5228.027 -5069.537)">
        <path id="Path_21451" data-name="Path 21451" d="M169.232,10.619S178.805,0,179.08,0s.88.5,0,1.705-2.2,3.6-2.2,3.6,1.43,1.789,1.1,2.614-5.391,4.9-5.391,4.9l-3.357-1.76" transform="translate(-112.703 -0.001)" fill="#ffb27d"/>
        <path id="Path_21452" data-name="Path 21452" d="M157.04,163.01a26,26,0,0,0,.583,4.036c.238.154,4.211.918,5.392-.244l-.176-3.928-5.794.052" transform="translate(-108.56 -55.342)" fill="#e58638"/>
        <path id="Path_21453" data-name="Path 21453" d="M157.12,167.546a1.2,1.2,0,0,0-1.077,1.206c.026.844.335,3.533.467,4.635.034.3.056.477.056.477s8.6-.032,10.333-.124a14.736,14.736,0,0,0,5.241-.891c1.4-.683,4.136-2.292,4.136-2.292a3.136,3.136,0,0,0-4-1.666,21.657,21.657,0,0,1-3.49.912l-5.675-2.914s-.318-.618-1.26.257a4.735,4.735,0,0,1-4.732.4" transform="translate(-108.221 -56.634)" fill="#4d4d4d"/>
        <path id="Path_21454" data-name="Path 21454" d="M156.94,177.169l-.169-1.85s10.731-.04,13.185-.505a28.4,28.4,0,0,0,6.417-2.735s.415-.184.543.007-.044.527-.044.527a27.616,27.616,0,0,1-5.688,2.64,44.771,44.771,0,0,1-7.49.552l-.143,1.273Z" transform="translate(-108.469 -58.443)" fill="#4d4d4d"/>
        <path id="Path_21455" data-name="Path 21455" d="M116.979,106.769s26.946-1.144,28.829,1.177,2.533,36.482,2.533,36.482l-6.539.721-3.734-27.374s-21.39,5.465-24.159,3.19,2.609-13.9,2.609-13.9" transform="translate(-93.635 -36.183)" fill="#ff8a54"/>
        <path id="Path_21456" data-name="Path 21456" d="M108.12,213.99l5.194.121.07,5.837c-1.212,1.131-4.965-1.51-5.2-1.672s-.065-4.287-.065-4.287" transform="translate(-91.918 -72.71)" fill="#e58638"/>
        <path id="Path_21457" data-name="Path 21457" d="M107.264,220.541a1.2,1.2,0,0,0-1.307.949c-.156.828-.426,3.522-.532,4.628-.027.3-.046.48-.046.48s8.41,1.793,10.122,2.072a14.731,14.731,0,0,0,5.311.247c1.511-.374,4.527-1.363,4.527-1.363a3.134,3.134,0,0,0-3.55-2.477,21.476,21.476,0,0,1-3.607.149l-4.923-4.052s-.178-.671-1.287-.018a4.734,4.734,0,0,1-4.709-.615" transform="translate(-91.007 -74.935)" fill="#4d4d4d"/>
        <path id="Path_21458" data-name="Path 21458" d="M105.085,231.021l.228-1.845s10.495,2.241,12.992,2.31a28.457,28.457,0,0,0,6.85-1.308s.446-.093.529.12-.153.508-.153.508a27.587,27.587,0,0,1-6.12,1.369,44.768,44.768,0,0,1-7.437-1.052l-.411,1.213Z" transform="translate(-90.907 -77.87)" fill="#4d4d4d"/>
        <path id="Path_21459" data-name="Path 21459" d="M101.115,113.594l3.337,30.072.317,34.607h7.593s2.338-18.418,2.918-35.466a317.708,317.708,0,0,0-1.3-36.972c-.573-4.619-12.86,7.758-12.86,7.758" transform="translate(-89.558 -35.61)" fill="#ff8a54"/>
        <path id="Path_21460" data-name="Path 21460" d="M116.088,52.844s-4.806,2.84-6.622,1.257l-.187-2.737-.108-1.565-.114-1.7,5.049-.181.255.638.311.779Z" transform="translate(-92.257 -16.281)" fill="#ffb27d"/>
        <path id="Path_21461" data-name="Path 21461" d="M116.706,82.916C115.526,98.007,99.9,93.608,99.9,93.608s.662-6.045.654-8.792c-.02-6.773-5.754-11.046-6.075-18.55-.275-6.437,7.638-8.4,9.265-9.459a13.141,13.141,0,0,0,7.8-1.6,5.353,5.353,0,0,1,2.15-.389,5.039,5.039,0,0,1,1.835,1.752c5.447,7.478,1.6,20.925,1.178,26.343" transform="translate(-87.301 -18.619)" fill="#43b0ef"/>
        <path id="Path_21462" data-name="Path 21462" d="M116.311,55.42a36.908,36.908,0,0,1,2.408,11.858,26.8,26.8,0,0,1-.769,7.913,22.4,22.4,0,0,0-2.34-6.466l0,0a105.363,105.363,0,0,0-7.092-11.7,37.972,37.972,0,0,0,5.529-.878l.01,0a12.994,12.994,0,0,0,2.257-.723" transform="translate(-92.072 -18.831)" fill="#f3f3f3"/>
        <path id="Path_21463" data-name="Path 21463" d="M118.524,57.245l-.207,2.54,2.64,7.864a26.8,26.8,0,0,1-.769,7.913,22.4,22.4,0,0,0-2.34-6.466l0-.005-.574-9.2L115.1,58.237l.516-.264.664-1.463.01,0Z" transform="translate(-94.311 -19.201)" fill="#ff8a54"/>
        <path id="Path_21464" data-name="Path 21464" d="M108.264,56.746l.427-2.146a13.917,13.917,0,0,0,5.269,1.262l-.57,3.046a7.948,7.948,0,0,1-5.125-2.162" transform="translate(-91.987 -18.552)" fill="#f7f7f7"/>
        <path id="Path_21465" data-name="Path 21465" d="M119.39,56.992l-2.5-1.564s1.482-1.089,1.6-2.105l1.124,1.165a4.169,4.169,0,0,1-.226,2.5" transform="translate(-94.918 -18.118)" fill="#f7f7f7"/>
        <path id="Path_21466" data-name="Path 21466" d="M102.558,89.487l2.762-7.98a96.548,96.548,0,0,1,.156,13,72.105,72.105,0,0,1-1.4,8.626L102.759,103a45.913,45.913,0,0,0-.2-13.513" transform="translate(-90.049 -27.695)" fill="#3a98cf"/>
        <path id="Path_21467" data-name="Path 21467" d="M114.6,48.765l.136.856.007.018s.216,1.318-1.665,2.119a6.1,6.1,0,0,1-3.736-.1l-.108-1.566c.726.542,4.346-.9,5.191-1.246.116-.049.176-.077.176-.077" transform="translate(-92.315 -16.57)" fill="#ed975d"/>
        <path id="Path_21468" data-name="Path 21468" d="M114.759,40.237c-.173,1.546-6.33,3.536-7.855,3.292a2.789,2.789,0,0,1-1.446-1.274c-.159-.232-.357-.548-.588-.924-1.267-2.12-3.327-6.015-3.327-6.015-.257-.257-.514-2.819.516-5.064a62.249,62.249,0,0,1,7.242-3.664,2.963,2.963,0,0,1,1.744.924,20.193,20.193,0,0,1,.581,2.007c.449,3.129,3.277,9.442,3.135,10.717" transform="translate(-89.625 -9.035)" fill="#ffb27d"/>
        <path id="Path_21469" data-name="Path 21469" d="M117.887,36.451A25.059,25.059,0,0,1,120.4,39.1c0,.536-2.2,1.284-2.2,1.284Z" transform="translate(-95.257 -12.386)" fill="#ffb27d"/>
        <path id="Path_21470" data-name="Path 21470" d="M93.789,71.734,92.442,86.191,96.518,114.4l5.738-1.458s-.612-18.723-1.48-21.86,4.546-14.172,3.437-16.459-8.718-5.19-10.425-2.891" transform="translate(-86.611 -24.089)" fill="#43b0ef"/>
        <path id="Path_21472" data-name="Path 21472" d="M117.543,92.834s-2.059,18.167-6.311,22.893l-9.761,1.425,4.188-16.415Z" transform="translate(-89.679 -31.544)" fill="#43b0ef"/>
        <path id="Path_21473" data-name="Path 21473" d="M126.936,86.208l1.411,13.433s-4.113.42-6.046,2.778,0-.36,0-.36Z" transform="translate(-96.465 -29.292)" fill="#43b0ef"/>
        <path id="Path_21474" data-name="Path 21474" d="M125.776,52.1s15.252-13.694,17.058-16.25S157.82,17.422,157.82,17.422l-4.04-3.431-31.82,27.36Z" transform="translate(-96.641 -4.754)" fill="#43b0ef"/>
        <path id="Path_21475" data-name="Path 21475" d="M110.994,30.159s-1.009.407-2.068.818c-1.163.451-4.538,1.952-4.538,1.952l.805,4.113-.5.231-.869-1.2a1.39,1.39,0,0,0-1.587-.1c-.786.471.574,2.7,1.063,2.846a1.508,1.508,0,0,0,.878,0l-.092,2.317-.007.007c-.073.026-.31.277-.482.277a59.471,59.471,0,0,1-4.456-7.012c-.125-.627-.356-2.449.3-3.162a12.279,12.279,0,0,1,1.822-1.182,62.268,62.268,0,0,1,7.243-3.664c.218-.079.556-.213.633-.236.953-.289,1.264-.125,1.542.777a7.678,7.678,0,0,1,.3,3.219" transform="translate(-88.84 -8.846)" fill="#4d4d4d"/>
        <path id="Path_21476" data-name="Path 21476" d="M95.292,143.422l.347-2.17a2.8,2.8,0,0,1,2.278-2.2l5.89-.743a2.7,2.7,0,0,1,2.7,1.592l1.08,2.7" transform="translate(-87.58 -46.988)" fill="none" stroke="#4d4d4d" stroke-width="3"/>
        <path id="Path_21477" data-name="Path 21477" d="M112.6,143.507l1.4,16.675a1.936,1.936,0,0,1-1.785,2.1l-25.074,1.888a2,2,0,0,1-1.95-1.145,1.907,1.907,0,0,1-.18-.659L84.48,156.4l-.861-9.76a2.01,2.01,0,0,1,1.772-2.162l25.1-2.713a1.316,1.316,0,0,1,.329-.005,1.9,1.9,0,0,1,1.78,1.743" transform="translate(-83.611 -48.167)" fill="#4d4d4d"/>
        <path id="Path_21478" data-name="Path 21478" d="M98.572,135.669a25.192,25.192,0,0,0,.069,2.793c.106.153,1.194,2.1,1.856,2.273s4.394-1.1,4.506-1.582a20,20,0,0,0-.266-3.044l1.063-.2s-.757-1.447-1.419-1.388-5.809,1.145-5.809,1.145" transform="translate(-88.692 -45.708)" fill="#ffd5a8"/>
        <path id="Path_21480" data-name="Path 21480" d="M84.9,156.54l26.948-1.62s-.893-12.534,0-12.245c0,0,.083,9.872.908,13.122l-27.8,1.334Z" transform="translate(-84.05 -48.477)" fill="#232323"/>
        <path id="Path_21481" data-name="Path 21481" d="M103.246,161.445s.182,2.364,1.018,2.642,1.287-1.62,1.163-2.727a3.12,3.12,0,0,0-2.181.085" transform="translate(-90.282 -54.779)" fill="#fff"/>
      </g>
      <g id="Group_32366" data-name="Group 32366" transform="translate(5180.278 -5024.187)">
        <path id="Path_21411" data-name="Path 21411" d="M211.93,166.626a1.631,1.631,0,0,0-1.6-1.324H201.02a1.631,1.631,0,0,0-1.6,1.324l-1.74,9.094H213.67Z" transform="translate(-67.168 -101.517)" fill="#68d2c0"/>
        <path id="Path_21412" data-name="Path 21412" d="M168.044,178.584a1.631,1.631,0,0,0-2.069.2l-3.083,3.083-.417.417-3.083,3.083a1.629,1.629,0,0,0-.2,2.068l5.2,7.661,5.445-5.445.416-.417,5.446-5.445Z" transform="translate(-53.997 -105.935)" fill="#68d2c0"/>
        <path id="Path_21413" data-name="Path 21413" d="M147.239,218.805a1.631,1.631,0,0,0-1.324,1.6v9.308a1.631,1.631,0,0,0,1.324,1.6l9.094,1.74V217.065Z" transform="translate(-49.579 -119.106)" fill="#68d2c0"/>
        <path id="Path_21414" data-name="Path 21414" d="M159.2,262.281a1.631,1.631,0,0,0,.2,2.069l3.083,3.082.417.417,3.083,3.083a1.63,1.63,0,0,0,2.068.2l7.661-5.2-5.445-5.446-.417-.417L164.4,254.62Z" transform="translate(-53.997 -131.866)" fill="#68d2c0"/>
        <path id="Path_21415" data-name="Path 21415" d="M199.419,286.364a1.631,1.631,0,0,0,1.6,1.324h9.308a1.63,1.63,0,0,0,1.6-1.324l1.74-9.094H197.679Z" transform="translate(-67.168 -139.562)" fill="#68d2c0"/>
        <path id="Path_21416" data-name="Path 21416" d="M242.893,271.127a1.631,1.631,0,0,0,2.069-.2l3.083-3.083.417-.417,3.082-3.082a1.631,1.631,0,0,0,.2-2.068l-5.2-7.661-5.445,5.445-.417.417-5.445,5.445Z" transform="translate(-79.927 -131.866)" fill="#68d2c0"/>
        <path id="Path_21417" data-name="Path 21417" d="M266.978,231.317a1.631,1.631,0,0,0,1.324-1.6v-9.308a1.63,1.63,0,0,0-1.324-1.6l-9.094-1.74v15.991Z" transform="translate(-87.624 -119.106)" fill="#68d2c0"/>
        <path id="Path_21418" data-name="Path 21418" d="M251.741,187.431a1.631,1.631,0,0,0-.2-2.069l-3.082-3.083-.417-.417-3.083-3.083a1.631,1.631,0,0,0-2.068-.2l-7.661,5.2,5.445,5.445.417.417,5.445,5.446Z" transform="translate(-79.927 -105.935)" fill="#68d2c0"/>
        <path id="Path_21419" data-name="Path 21419" d="M191.347,174.908a35.829,35.829,0,1,0,35.833,35.826,35.827,35.827,0,0,0-35.833-35.826m0,55.443a19.614,19.614,0,1,1,19.618-19.612,19.634,19.634,0,0,1-19.618,19.612" transform="translate(-52.843 -104.781)" fill="#68d2c0"/>
        <path id="Path_21421" data-name="Path 21421" d="M117.227,235.56a1.3,1.3,0,0,0-1.276-1.055h-7.414a1.3,1.3,0,0,0-1.276,1.054l-1.386,7.244h12.736Z" transform="translate(-35.975 -125.031)" fill="#68d2c0"/>
        <path id="Path_21422" data-name="Path 21422" d="M82.274,245.083a1.3,1.3,0,0,0-1.648.156l-2.455,2.455-.332.332-2.455,2.455a1.3,1.3,0,0,0-.156,1.648l4.142,6.1,4.337-4.336.332-.332,4.337-4.337Z" transform="translate(-25.485 -128.549)" fill="#68d2c0"/>
        <path id="Path_21423" data-name="Path 21423" d="M65.7,277.118a1.3,1.3,0,0,0-1.055,1.276v7.413a1.3,1.3,0,0,0,1.055,1.276l7.243,1.385V275.732Z" transform="translate(-21.966 -139.039)" fill="#68d2c0"/>
        <path id="Path_21424" data-name="Path 21424" d="M75.228,311.745a1.3,1.3,0,0,0,.156,1.648l2.455,2.455.332.332,2.455,2.455a1.3,1.3,0,0,0,1.648.156l6.1-4.142-4.337-4.337-.332-.332-4.337-4.337Z" transform="translate(-25.485 -149.203)" fill="#68d2c0"/>
        <path id="Path_21425" data-name="Path 21425" d="M107.263,330.926a1.3,1.3,0,0,0,1.276,1.055h7.414a1.3,1.3,0,0,0,1.276-1.055l1.386-7.243H105.877Z" transform="translate(-35.975 -155.332)" fill="#68d2c0"/>
        <path id="Path_21426" data-name="Path 21426" d="M141.89,318.792a1.3,1.3,0,0,0,1.648-.156l2.455-2.455.332-.332,2.455-2.455a1.3,1.3,0,0,0,.156-1.647l-4.142-6.1-4.337,4.337-.332.332-4.337,4.337Z" transform="translate(-46.138 -149.203)" fill="#68d2c0"/>
        <path id="Path_21427" data-name="Path 21427" d="M161.07,287.083a1.3,1.3,0,0,0,1.055-1.276v-7.413a1.3,1.3,0,0,0-1.054-1.276l-7.244-1.386v12.736Z" transform="translate(-52.268 -139.04)" fill="#68d2c0"/>
        <path id="Path_21428" data-name="Path 21428" d="M148.937,252.129a1.3,1.3,0,0,0-.156-1.648l-2.455-2.455-.332-.332-2.455-2.455a1.3,1.3,0,0,0-1.648-.156l-6.1,4.142,4.336,4.337.332.332,4.338,4.336Z" transform="translate(-46.138 -128.549)" fill="#68d2c0"/>
        <path id="Path_21429" data-name="Path 21429" d="M100.834,242.155a28.537,28.537,0,1,0,28.538,28.535,28.535,28.535,0,0,0-28.538-28.535m0,44.159a15.622,15.622,0,1,1,15.623-15.62,15.638,15.638,0,0,1-15.623,15.62" transform="translate(-24.566 -127.63)" fill="#68d2c0"/>
        <path id="Path_21431" data-name="Path 21431" d="M236.938,69.746a1.3,1.3,0,0,0-1.276-1.055h-7.414a1.3,1.3,0,0,0-1.276,1.055l-1.386,7.243h12.736Z" transform="translate(-76.65 -68.691)" fill="#68d2c0"/>
        <path id="Path_21432" data-name="Path 21432" d="M201.984,79.27a1.3,1.3,0,0,0-1.648.156l-2.455,2.455-.333.332-2.455,2.455a1.3,1.3,0,0,0-.156,1.648l4.142,6.1,4.337-4.337.332-.333,4.337-4.336Z" transform="translate(-66.16 -72.209)" fill="#68d2c0"/>
        <path id="Path_21433" data-name="Path 21433" d="M185.415,111.306a1.3,1.3,0,0,0-1.056,1.276v7.414a1.3,1.3,0,0,0,1.056,1.276l7.243,1.386V109.92Z" transform="translate(-62.641 -82.699)" fill="#68d2c0"/>
        <path id="Path_21434" data-name="Path 21434" d="M194.938,145.932a1.3,1.3,0,0,0,.156,1.648l2.455,2.455.332.333,2.455,2.455a1.3,1.3,0,0,0,1.648.156l6.1-4.142-4.337-4.337-.332-.333-4.338-4.337Z" transform="translate(-66.16 -92.863)" fill="#68d2c0"/>
        <path id="Path_21435" data-name="Path 21435" d="M226.973,165.114a1.3,1.3,0,0,0,1.276,1.055h7.414a1.3,1.3,0,0,0,1.276-1.054l1.385-7.243H225.587Z" transform="translate(-76.65 -98.993)" fill="#68d2c0"/>
        <path id="Path_21436" data-name="Path 21436" d="M261.6,152.978a1.3,1.3,0,0,0,1.648-.156l2.455-2.455.333-.332,2.454-2.455a1.3,1.3,0,0,0,.157-1.648l-4.143-6.1-4.336,4.337-.332.333-4.337,4.337Z" transform="translate(-86.814 -92.863)" fill="#68d2c0"/>
        <path id="Path_21437" data-name="Path 21437" d="M280.781,121.27a1.3,1.3,0,0,0,1.055-1.276v-7.414a1.3,1.3,0,0,0-1.055-1.276l-7.243-1.386v12.736Z" transform="translate(-92.943 -82.699)" fill="#68d2c0"/>
        <path id="Path_21438" data-name="Path 21438" d="M268.647,86.316a1.3,1.3,0,0,0-.157-1.648l-2.455-2.455-.333-.333-2.454-2.455a1.3,1.3,0,0,0-1.648-.156l-6.1,4.142,4.337,4.337.331.332,4.337,4.337Z" transform="translate(-86.814 -72.209)" fill="#68d2c0"/>
        <path id="Path_21439" data-name="Path 21439" d="M220.545,76.342a28.537,28.537,0,1,0,28.539,28.535,28.535,28.535,0,0,0-28.539-28.535m0,44.159a15.622,15.622,0,1,1,15.625-15.62,15.637,15.637,0,0,1-15.625,15.62" transform="translate(-65.241 -71.291)" fill="#68d2c0"/>
        <path id="Path_21441" data-name="Path 21441" d="M41.877,194.825a1.035,1.035,0,0,0-1.016-.84h-5.9a1.035,1.035,0,0,0-1.016.84l-1.1,5.768H42.981Z" transform="translate(-11.157 -111.263)" fill="#68d2c0"/>
        <path id="Path_21442" data-name="Path 21442" d="M14.038,202.411a1.034,1.034,0,0,0-1.313.124L10.77,204.49l-.265.265L8.55,206.71a1.034,1.034,0,0,0-.124,1.313l3.3,4.859,3.454-3.454.264-.265,3.454-3.454Z" transform="translate(-2.802 -114.065)" fill="#68d2c0"/>
        <path id="Path_21443" data-name="Path 21443" d="M.84,227.926A1.034,1.034,0,0,0,0,228.942v5.9a1.034,1.034,0,0,0,.84,1.016l5.769,1.1V226.822Z" transform="translate(0 -122.42)" fill="#68d2c0"/>
        <path id="Path_21444" data-name="Path 21444" d="M8.426,255.505a1.035,1.035,0,0,0,.124,1.313l1.956,1.956.265.265,1.955,1.956a1.035,1.035,0,0,0,1.313.124l4.86-3.3-3.454-3.454-.264-.265-3.454-3.454Z" transform="translate(-2.802 -130.516)" fill="#68d2c0"/>
        <path id="Path_21445" data-name="Path 21445" d="M33.941,270.782a1.034,1.034,0,0,0,1.016.84h5.9a1.034,1.034,0,0,0,1.016-.84l1.1-5.768H32.838Z" transform="translate(-11.158 -135.398)" fill="#68d2c0"/>
        <path id="Path_21446" data-name="Path 21446" d="M61.52,261.118a1.034,1.034,0,0,0,1.313-.125l1.956-1.955.264-.265,1.956-1.956a1.035,1.035,0,0,0,.125-1.313l-3.3-4.859L60.379,254.1l-.265.265-3.454,3.454Z" transform="translate(-19.252 -130.516)" fill="#68d2c0"/>
        <path id="Path_21447" data-name="Path 21447" d="M76.8,235.863a1.035,1.035,0,0,0,.84-1.016v-5.9a1.034,1.034,0,0,0-.84-1.016l-5.769-1.1v10.144Z" transform="translate(-24.134 -122.421)" fill="#68d2c0"/>
        <path id="Path_21448" data-name="Path 21448" d="M67.132,208.023a1.035,1.035,0,0,0-.124-1.313l-1.956-1.955-.265-.265-1.956-1.954a1.033,1.033,0,0,0-1.313-.125l-4.859,3.3,3.454,3.455.264.264,3.454,3.454Z" transform="translate(-19.252 -114.065)" fill="#68d2c0"/>
        <path id="Path_21449" data-name="Path 21449" d="M28.82,200.079a22.729,22.729,0,1,0,22.731,22.727A22.728,22.728,0,0,0,28.82,200.079m0,35.171a12.443,12.443,0,1,1,12.444-12.441A12.455,12.455,0,0,1,28.82,235.25" transform="translate(-2.07 -113.334)" fill="#68d2c0"/>
        <path id="Path_21482" data-name="Path 21482" d="M38.733,230.471a3.226,3.226,0,1,0-2.28-.945,3.118,3.118,0,0,0,2.28.945" transform="translate(-12.065 -121.469)" fill="#00ae8d"/>
        <path id="Path_21483" data-name="Path 21483" d="M43.2,237.645a8.166,8.166,0,0,0-.109-.846,6.858,6.858,0,0,0-.208-.851,4.231,4.231,0,0,0-.35-.793,2.99,2.99,0,0,0-.528-.687,2.332,2.332,0,0,0-.757-.476,2.627,2.627,0,0,0-.967-.175.982.982,0,0,0-.524.222c-.157.1-.341.221-.546.352a3.148,3.148,0,0,1-.706.312,2.748,2.748,0,0,1-1.728,0,3.111,3.111,0,0,1-.706-.312c-.2-.129-.388-.248-.547-.352a.98.98,0,0,0-.524-.222,2.613,2.613,0,0,0-.966.176,2.316,2.316,0,0,0-.758.475,3,3,0,0,0-.528.687,4.213,4.213,0,0,0-.349.794,6.592,6.592,0,0,0-.208.85,7.77,7.77,0,0,0-.108.846c-.018.256-.027.522-.027.791a2.222,2.222,0,0,0,.66,1.682,2.376,2.376,0,0,0,1.7.621h6.446a2.377,2.377,0,0,0,1.7-.621,2.22,2.22,0,0,0,.66-1.682c0-.27-.009-.536-.026-.791" transform="translate(-10.893 -124.797)" fill="#00ae8d"/>
        <path id="Path_21484" data-name="Path 21484" d="M230.176,122.056a.367.367,0,0,1-.27-.118l-7.29-7.885a.368.368,0,0,1,.27-.618H226.4a.37.37,0,0,1,.278.126l2.436,2.8a13.978,13.978,0,0,1,1.668-2.642,24.8,24.8,0,0,1,7.989-6.412.368.368,0,0,1,.4.615,24.035,24.035,0,0,0-3.506,3.631,27.076,27.076,0,0,0-5.127,10.22A.368.368,0,0,1,230.176,122.056Z" transform="translate(-75.608 -81.798)" fill="#00ae8d"/>
        <path id="Path_21485" data-name="Path 21485" d="M213.1,220.218a.4.4,0,0,0-.3-.117H210.59a4.493,4.493,0,0,0-.829-1.866h3.019a.4.4,0,0,0,.415-.414V216.5a.4.4,0,0,0-.415-.415H202a.4.4,0,0,0-.415.415v1.723a.422.422,0,0,0,.415.415h1.879q2.733,0,3.472,1.464H202a.4.4,0,0,0-.415.415v1.322a.4.4,0,0,0,.415.415h5.533a2.53,2.53,0,0,1-1.328,1.619,5.848,5.848,0,0,1-2.754.557H202a.42.42,0,0,0-.415.415v1.646a.386.386,0,0,0,.117.285q2.488,2.643,6.452,7.4a.381.381,0,0,0,.324.156h2.527a.375.375,0,0,0,.376-.233.354.354,0,0,0-.052-.441q-3.783-4.639-5.947-6.945a6.564,6.564,0,0,0,3.576-1.425,4.841,4.841,0,0,0,1.672-3.032h2.177a.4.4,0,0,0,.415-.415v-1.321a.4.4,0,0,0-.117-.3" transform="translate(-68.495 -118.772)" fill="#00ae8d"/>
        <g id="Group_32364" data-name="Group 32364" transform="translate(68.076 134.616)">
          <rect id="Rectangle_13225" data-name="Rectangle 13225" width="1.855" height="4.443" transform="translate(12.261 8.299)" fill="#00ae8d"/>
          <rect id="Rectangle_13226" data-name="Rectangle 13226" width="1.855" height="4.443" transform="translate(8.746 8.299)" fill="#00ae8d"/>
          <rect id="Rectangle_13227" data-name="Rectangle 13227" width="1.855" height="4.443" transform="translate(5.233 8.299)" fill="#00ae8d"/>
          <rect id="Rectangle_13228" data-name="Rectangle 13228" width="1.855" height="4.443" transform="translate(1.719 8.299)" fill="#00ae8d"/>
          <g id="Group_32363" data-name="Group 32363" transform="translate(0 0)">
            <g id="Group_32362" data-name="Group 32362" clip-path="url(#clip-path)">
              <path id="Path_21486" data-name="Path 21486" d="M15.409,10.859V10.4H1.775v.464a.464.464,0,0,0,.464.464H14.946a.464.464,0,0,0,.464-.464" transform="translate(-0.675 -3.951)" fill="#00ae8d"/>
              <path id="Path_21487" data-name="Path 21487" d="M15.371,22.051H.465A.464.464,0,0,0,0,22.515v1.237a.464.464,0,0,0,.464.464H15.371a.464.464,0,0,0,.464-.464V22.515a.464.464,0,0,0-.464-.464" transform="translate(0 -8.381)" fill="#00ae8d"/>
              <path id="Path_21488" data-name="Path 21488" d="M.464,5.516H15.371a.464.464,0,0,0,.243-.859L8.16.069a.465.465,0,0,0-.487,0L.221,4.657a.464.464,0,0,0,.243.859M7.6,2.729h.63a.464.464,0,1,1,0,.928H7.6a.464.464,0,0,1,0-.928" transform="translate(0 0)" fill="#00ae8d"/>
            </g>
          </g>
        </g>
        <path id="Path_21430" data-name="Path 21430" d="M105.475,255.813A19.519,19.519,0,1,0,125,275.335a19.542,19.542,0,0,0-19.521-19.522m0,35.142a15.622,15.622,0,1,1,15.623-15.62,15.638,15.638,0,0,1-15.623,15.62" transform="translate(-29.207 -132.271)" fill="#00ae8d"/>
        <path id="Path_21440" data-name="Path 21440" d="M225.186,90a19.519,19.519,0,1,0,19.521,19.521A19.541,19.541,0,0,0,225.186,90m0,35.142a15.622,15.622,0,1,1,15.625-15.62,15.638,15.638,0,0,1-15.625,15.62" transform="translate(-69.882 -75.931)" fill="#00ae8d"/>
        <path id="Path_21450" data-name="Path 21450" d="M32.517,210.957a15.547,15.547,0,1,0,15.548,15.548,15.565,15.565,0,0,0-15.548-15.548m0,27.989a12.442,12.442,0,1,1,12.444-12.441,12.455,12.455,0,0,1-12.444,12.441" transform="translate(-5.767 -117.03)" fill="#00ae8d"/>
        <g id="Group_32357" data-name="Group 32357" transform="translate(114 81.449)" style="mix-blend-mode: normal;isolation: isolate">
          <g id="Group_32356" data-name="Group 32356">
            <g id="Group_32355" data-name="Group 32355" clip-path="url(#clip-path-2)">
              <path id="Path_21420" data-name="Path 21420" d="M197.174,192.057a24.507,24.507,0,1,0,24.509,24.509,24.534,24.534,0,0,0-24.509-24.509m0,44.121a19.614,19.614,0,1,1,19.618-19.612,19.634,19.634,0,0,1-19.618,19.612" transform="translate(-172.67 -192.057)" fill="#00ae8d"/>
            </g>
          </g>
        </g>
      </g>
    </g>
  </g>
</svg>
