<svg xmlns="http://www.w3.org/2000/svg" xmlns:xlink="http://www.w3.org/1999/xlink" width="803.943" height="253" viewBox="0 0 803.943 253">
  <defs>
    <clipPath id="clip-path">
      <rect id="Rectangle_13255" data-name="Rectangle 13255" width="225.627" height="192.564" fill="none"/>
    </clipPath>
    <clipPath id="clip-path-2">
      <rect id="Rectangle_13233" data-name="Rectangle 13233" width="225.627" height="192.564" fill="#00ae8d"/>
    </clipPath>
    <clipPath id="clip-path-3">
      <path id="Path_21549" data-name="Path 21549" d="M99.8,5.989a5.8,5.8,0,0,0-5.785,5.785V183.6a5.775,5.775,0,0,0,5.775,5.775h82.372a5.792,5.792,0,0,0,5.775-5.775V11.765a5.776,5.776,0,0,0-5.775-5.776Z" transform="translate(-94.017 -5.989)" fill="#68d2c0"/>
    </clipPath>
    <clipPath id="clip-path-5">
      <path id="Path_21561" data-name="Path 21561" d="M27.062,171.206c-2.642,3.14-7.914,20.67-7.914,20.67l8.213,2.955,1.644-3.339s7.127,16.215-3.439,30.37C15.761,235,42.518,232.568,46.425,232.15c3.906.418,30.663,2.848,20.859-10.288-10.566-14.156-3.439-30.37-3.439-30.37l1.644,3.339,7.725-2.991S68.087,174,65.788,171.206c-2.558-3.106-15.118-3.6-15.118-3.6s-1.263,3.323-4.453,3.323-4.2-3.356-4.2-3.356-12.625.871-14.953,3.638" transform="translate(-19.148 -167.568)" fill="#ff8a54"/>
    </clipPath>
    <clipPath id="clip-path-6">
      <rect id="Rectangle_13251" data-name="Rectangle 13251" width="225.627" height="192.564" fill="#fff"/>
    </clipPath>
    <clipPath id="clip-path-7">
      <path id="Path_21574" data-name="Path 21574" d="M268.047,1.79,250.076,8.126l0,.48c.009,1.1.4,27.052,17.832,34.4l.139.094h.344l.124-.052c17.516-7.257,17.915-33.332,17.923-34.438l0-.481-18.18-6.409Z" transform="translate(-250.076 -1.717)" fill="#43b0ef"/>
    </clipPath>
    <clipPath id="clip-path-9">
      <rect id="Rectangle_13253" data-name="Rectangle 13253" width="17.454" height="39.952" fill="none"/>
    </clipPath>
  </defs>
  <g id="Group_32764" data-name="Group 32764" transform="translate(0.538)">
    <g id="Group_32692" data-name="Group 32692">
      <rect id="Rectangle_12169" data-name="Rectangle 12169" width="800" height="253" fill="#D8DDE3"/>
      <path id="Path_17974" data-name="Path 17974" d="M4835.669,3900.215s106.368,99.729,208.021,59.906c97.892-38.35,139.732-85.855,219.441-64.756s127.582,82.59,200.055,81.273c80.75-1.466,173.446-59.583,175.048-56.424" transform="translate(-4835.5 -3750.215)" fill="none" stroke="#707070" stroke-linecap="round" stroke-width="1" stroke-dasharray="2 4"/>
      <g id="Group_32392" data-name="Group 32392" transform="translate(394.344 60.436)">
        <g id="Group_32391" data-name="Group 32391" clip-path="url(#clip-path)">
          <g id="Group_32375" data-name="Group 32375">
            <g id="Group_32374" data-name="Group 32374" clip-path="url(#clip-path-2)">
              <path id="Path_21548" data-name="Path 21548" d="M180.953,0H97.418A8.934,8.934,0,0,0,88.51,8.908v172.72a10.936,10.936,0,0,0,10.936,10.936h79.465a10.976,10.976,0,0,0,10.943-10.943V8.9a8.9,8.9,0,0,0-8.9-8.9" transform="translate(-28.907)" fill="#00ae8d"/>
            </g>
          </g>
          <g id="Group_32377" data-name="Group 32377" transform="translate(63.311 4.033)">
            <g id="Group_32376" data-name="Group 32376" clip-path="url(#clip-path-3)">
              <rect id="Rectangle_13234" data-name="Rectangle 13234" width="93.922" height="183.382" transform="translate(0 0)" fill="#68d2c0"/>
            </g>
          </g>
          <g id="Group_32379" data-name="Group 32379">
            <g id="Group_32378" data-name="Group 32378" clip-path="url(#clip-path)">
              <path id="Path_21550" data-name="Path 21550" d="M162.755,11.372h-9.839a.764.764,0,1,0,0,1.527h9.839a.764.764,0,0,0,0-1.527m4.165-.1a.865.865,0,1,0,.863.867.864.864,0,0,0-.863-.867" transform="translate(-49.693 -3.68)" fill="#f9fbfc"/>
              <rect id="Rectangle_13235" data-name="Rectangle 13235" width="136.881" height="60.541" rx="8.652" transform="translate(87.399 52.324)" fill="#fff"/>
              <path id="Path_21551" data-name="Path 21551" d="M260.189,78.4a4.479,4.479,0,0,1,4.479,4.479v48.889a4.479,4.479,0,0,1-4.479,4.479H134.96a4.479,4.479,0,0,1-4.479-4.479V82.875A4.479,4.479,0,0,1,134.96,78.4Zm0-2.694H134.96a7.181,7.181,0,0,0-7.173,7.173v48.889a7.181,7.181,0,0,0,7.173,7.173H260.189a7.181,7.181,0,0,0,7.173-7.173V82.875a7.181,7.181,0,0,0-7.173-7.173" transform="translate(-41.735 -24.724)" fill="#43b0ef"/>
              <rect id="Rectangle_13236" data-name="Rectangle 13236" width="16.057" height="19.057" transform="translate(95.846 73.067)" fill="#fff"/>
              <rect id="Rectangle_13237" data-name="Rectangle 13237" width="16.057" height="19.057" transform="translate(95.846 73.067)" fill="none" stroke="#43b0ef" stroke-linecap="round" stroke-linejoin="round" stroke-width="1"/>
              <rect id="Rectangle_13238" data-name="Rectangle 13238" width="16.057" height="19.057" transform="translate(116.632 73.067)" fill="#fff"/>
              <rect id="Rectangle_13239" data-name="Rectangle 13239" width="16.057" height="19.057" transform="translate(116.632 73.067)" fill="none" stroke="#43b0ef" stroke-linecap="round" stroke-linejoin="round" stroke-width="1"/>
              <rect id="Rectangle_13240" data-name="Rectangle 13240" width="16.057" height="19.057" transform="translate(137.418 73.067)" fill="#fff"/>
              <rect id="Rectangle_13241" data-name="Rectangle 13241" width="16.057" height="19.057" transform="translate(137.418 73.067)" fill="none" stroke="#43b0ef" stroke-linecap="round" stroke-linejoin="round" stroke-width="1"/>
              <rect id="Rectangle_13242" data-name="Rectangle 13242" width="16.057" height="19.057" transform="translate(158.204 73.067)" fill="#fff"/>
              <rect id="Rectangle_13243" data-name="Rectangle 13243" width="16.057" height="19.057" transform="translate(158.204 73.067)" fill="none" stroke="#43b0ef" stroke-linecap="round" stroke-linejoin="round" stroke-width="1"/>
              <rect id="Rectangle_13244" data-name="Rectangle 13244" width="16.057" height="19.057" transform="translate(178.99 73.067)" fill="#fff"/>
              <rect id="Rectangle_13245" data-name="Rectangle 13245" width="16.057" height="19.057" transform="translate(178.99 73.067)" fill="none" stroke="#43b0ef" stroke-linecap="round" stroke-linejoin="round" stroke-width="1"/>
              <rect id="Rectangle_13246" data-name="Rectangle 13246" width="16.057" height="19.057" transform="translate(199.775 73.067)" fill="#fff"/>
              <rect id="Rectangle_13247" data-name="Rectangle 13247" width="16.057" height="19.057" transform="translate(199.775 73.067)" fill="none" stroke="#43b0ef" stroke-linecap="round" stroke-linejoin="round" stroke-width="1"/>
              <path id="Path_21552" data-name="Path 21552" d="M152.788,119.822l2.729-1.969.8,1.455-3.108,1.3,3.131,1.275-.85,1.5-2.706-1.968.358,3.376h-1.677l.335-3.376L149.1,123.4l-.873-1.522,3.11-1.3-3.11-1.253.828-1.5,2.774,1.991-.358-3.4h1.7Z" transform="translate(-48.41 -38.023)" fill="#43b0ef"/>
              <path id="Path_21553" data-name="Path 21553" d="M183.655,119.822l2.729-1.969.8,1.455-3.108,1.3,3.131,1.275-.85,1.5-2.706-1.968.358,3.376h-1.677l.335-3.376-2.706,1.991-.873-1.522,3.11-1.3-3.11-1.253.828-1.5,2.774,1.991-.358-3.4h1.7Z" transform="translate(-58.491 -38.023)" fill="#43b0ef"/>
              <line id="Line_283" data-name="Line 283" x2="3.889" transform="translate(143.502 82.595)" fill="none" stroke="#b4aff3" stroke-linecap="round" stroke-linejoin="round" stroke-width="1"/>
              <line id="Line_284" data-name="Line 284" x2="3.889" transform="translate(164.288 82.595)" fill="none" stroke="#b4aff3" stroke-linecap="round" stroke-linejoin="round" stroke-width="1"/>
              <line id="Line_285" data-name="Line 285" x2="3.889" transform="translate(185.074 82.595)" fill="none" stroke="#b4aff3" stroke-linecap="round" stroke-linejoin="round" stroke-width="1"/>
              <line id="Line_286" data-name="Line 286" x2="3.889" transform="translate(205.859 82.595)" fill="none" stroke="#b4aff3" stroke-linecap="round" stroke-linejoin="round" stroke-width="1"/>
              <path id="Path_21554" data-name="Path 21554" d="M48.388,232.925s-22.138,1.344-22.678-.941,3.195-12.133,6.57-20.8.539-16.939-2.835-23.292-3.433-12.512.617-16.242,18.147-3.42,18.147-3.42,14.308-.807,18.358,2.925,3.78,10.385.4,16.737-6.209,14.62-2.834,23.292,7.109,18.519,6.57,20.8-22.679.941-22.679.941Z" transform="translate(-8.38 -54.919)" fill="#f2bc97"/>
              <path id="Path_21555" data-name="Path 21555" d="M82.112,170.858a3.944,3.944,0,0,1,3.212,2.442c2.5,5.859,10.562,25.618,6.314,27.543-4.993,2.264-11.085-15.635-12.18-21.007-.914-4.477-.815-9.252,2.654-8.978" transform="translate(-25.791 -55.799)" fill="#f2bc97"/>
              <path id="Path_21556" data-name="Path 21556" d="M93.788,203.391s1.445,3.987,1.2,5.632-6.18,16.6-6.18,16.6l-4.984-1.778s4.2-13.923,4.17-14.3-1.18-3.489-1.18-3.489Z" transform="translate(-27.376 -66.428)" fill="#f2bc97"/>
              <path id="Path_21557" data-name="Path 21557" d="M19.769,203.391s-1.445,3.987-1.2,5.632,6.18,16.6,6.18,16.6l4.985-1.778s-4.2-13.923-4.17-14.3,1.18-3.489,1.18-3.489Z" transform="translate(-6.057 -66.428)" fill="#f2bc97"/>
              <path id="Path_21558" data-name="Path 21558" d="M23.119,207.327a3.891,3.891,0,0,1,2.771,2.6c2.073,5.938,9.3,27.16,7.295,29-2.329,2.143-13.64-27.725-13.24-29.5a2.621,2.621,0,0,1,3.174-2.106" transform="translate(-6.511 -67.691)" fill="#f2bc97"/>
              <path id="Path_21559" data-name="Path 21559" d="M43.935,152.126s8.024,3.708,19.978,0c0,0,3.044-10.665,1.162-17.97s-7.582-7.527-10.017-6.641c0,0-6.752-1.162-9.519,2.213-2.648,3.23-5.424,10.333-1.6,22.4" transform="translate(-13.737 -41.528)" fill="#3d3d3d"/>
              <rect id="Rectangle_13248" data-name="Rectangle 13248" width="8.632" height="9.035" transform="translate(35.767 108.038)" fill="#f2bc97"/>
              <path id="Path_21560" data-name="Path 21560" d="M63.524,143.246c0,6.051-3.547,10.957-7.921,10.957s-7.921-4.906-7.921-10.957,3.546-10.957,7.921-10.957,7.921,4.906,7.921,10.957" transform="translate(-15.573 -43.206)" fill="#f2bc97"/>
            </g>
          </g>
          <g id="Group_32381" data-name="Group 32381" transform="translate(12.894 112.84)">
            <g id="Group_32380" data-name="Group 32380" clip-path="url(#clip-path-5)">
              <rect id="Rectangle_13250" data-name="Rectangle 13250" width="61.328" height="67.43" transform="translate(-3.387 0)" fill="#ff8a54"/>
            </g>
          </g>
          <g id="Group_32383" data-name="Group 32383">
            <g id="Group_32382" data-name="Group 32382" clip-path="url(#clip-path-6)">
              <path id="Path_21562" data-name="Path 21562" d="M30.844,247.257c-2.294,1.543.816,5.2,1.923,6.41,1.8,1.968,5.4,2.9,6.195,2.2s-3.578-4.938-3.532-5.25,2.372,1.545,3.048.809-2.083-3.589-3.622-4.292-2.574-.848-4.012.12" transform="translate(-9.804 -80.53)" fill="#f2bc97"/>
              <path id="Path_21563" data-name="Path 21563" d="M89.273,207.327a3.891,3.891,0,0,0-2.771,2.6c-2.073,5.938-9.3,27.16-7.295,29,2.329,2.143,13.64-27.725,13.24-29.5a2.621,2.621,0,0,0-3.174-2.106" transform="translate(-25.756 -67.691)" fill="#f2bc97"/>
              <path id="Path_21564" data-name="Path 21564" d="M71.58,236.361l.048.145A174.4,174.4,0,0,0,48.364,248.3a234.546,234.546,0,0,0-23.241-10.914l.048-1.022V220.374H71.58v15.987Z" transform="translate(-8.205 -71.974)" fill="#f8fafb"/>
              <path id="Path_21565" data-name="Path 21565" d="M58.019,269.194S6.224,264.6.979,253.328c-3.865-8.31,4.327-14.948,13.768-11.67s43.4,19.931,43.4,19.931Z" transform="translate(0 -78.646)" fill="#3d3d3d"/>
              <path id="Path_21566" data-name="Path 21566" d="M91.077,273v6.714s8.86.588,9.432-.4,1.257-4.573-.991-6.288-7.735-1.8-8.44-.023" transform="translate(-29.746 -88.737)" fill="#3d3d3d"/>
              <path id="Path_21567" data-name="Path 21567" d="M85.951,271.669l3.475,1.278v6.688l-3.606-.36Z" transform="translate(-28.029 -88.727)" fill="#dec6a0"/>
              <path id="Path_21568" data-name="Path 21568" d="M31.286,269.194s51.795-4.589,57.04-15.866c3.865-8.31-4.327-14.948-13.768-11.67s-43.4,19.931-43.4,19.931Z" transform="translate(-10.175 -78.646)" fill="#4d4d4d"/>
              <path id="Path_21569" data-name="Path 21569" d="M29.659,271.669l-3.475,1.278v6.688l3.606-.36Z" transform="translate(-8.552 -88.727)" fill="#dec6a0"/>
              <path id="Path_21570" data-name="Path 21570" d="M21.433,273v6.714s-8.86.588-9.432-.4-1.257-4.573.991-6.288,7.735-1.8,8.44-.023" transform="translate(-3.735 -88.737)" fill="#3d3d3d"/>
              <path id="Path_21571" data-name="Path 21571" d="M44.671,142.028s7.269.508,11.913-2.667c1.052-.719,1.956-3.095,1.956-3.095a4.974,4.974,0,0,0,1.079,2.574,11.041,11.041,0,0,1-.333-2.85s1.329,3.9,2.269,3.985,3.819,0,3.819,0l-3.989-8.925-12.714-1.333Z" transform="translate(-14.59 -42.365)" fill="#3d3d3d"/>
              <path id="Path_21572" data-name="Path 21572" d="M166.455,207.629H143.667v-11.97a11.394,11.394,0,0,1,22.788,0Zm-18.99-3.8h15.192v-8.172a7.6,7.6,0,1,0-15.192,0Z" transform="translate(-46.922 -60.181)" fill="#fff"/>
              <path id="Path_21573" data-name="Path 21573" d="M167.287,205.9H137.932a1.78,1.78,0,0,0-1.78,1.78v23.026a1.78,1.78,0,0,0,1.78,1.78h29.355a1.785,1.785,0,0,0,1.78-1.78V207.679a1.785,1.785,0,0,0-1.78-1.78m-16.024,13.069V217a1.343,1.343,0,0,1,2.686,0v1.968a2.716,2.716,0,1,1-2.686,0" transform="translate(-44.467 -67.247)" fill="#fff"/>
            </g>
          </g>
          <g id="Group_32385" data-name="Group 32385" transform="translate(168.401 1.156)">
            <g id="Group_32384" data-name="Group 32384" clip-path="url(#clip-path-7)">
              <rect id="Rectangle_13252" data-name="Rectangle 13252" width="36.37" height="41.38" transform="translate(0 0)" fill="#43b0ef"/>
            </g>
          </g>
          <g id="Group_32390" data-name="Group 32390">
            <g id="Group_32389" data-name="Group 32389" clip-path="url(#clip-path)">
              <path id="Path_21575" data-name="Path 21575" d="M267.932,2.084,285.44,8.256s-.2,26.653-17.508,33.822h-.006a.175.175,0,0,0-.048-.024c-17.257-7.193-17.454-33.8-17.454-33.8L267.878,2.1ZM267.943.66l-.438.147-.054.018L249.976,6.986l-.906.32.007.96a58.907,58.907,0,0,0,2.31,14.57c2.993,10.243,8.485,17.3,15.886,20.425l.248.164h.673l.253-.1c7.466-3.093,13.005-10.17,16.021-20.465a58.947,58.947,0,0,0,2.318-14.591l.007-.961-.906-.32L268.38.814Z" transform="translate(-81.346 -0.216)" fill="#dae3ef"/>
              <path id="Path_21576" data-name="Path 21576" d="M272.691,33.194l-6.436-5.347a1.22,1.22,0,0,1,1.559-1.877l4.749,3.945,8.506-8.27a1.221,1.221,0,0,1,1.7,1.75Z" transform="translate(-86.815 -6.956)" fill="#fefefe"/>
              <g id="Group_32388" data-name="Group 32388" transform="translate(169.078 1.886)" opacity="0.5" style="mix-blend-mode: multiply;isolation: isolate">
                <g id="Group_32387" data-name="Group 32387">
                  <g id="Group_32386" data-name="Group 32386" clip-path="url(#clip-path-9)">
                    <path id="Path_21577" data-name="Path 21577" d="M268.535,2.8V42.753c-17.257-7.193-17.454-33.8-17.454-33.8Z" transform="translate(-251.081 -2.801)" fill="#d1d3d4"/>
                  </g>
                </g>
              </g>
            </g>
          </g>
        </g>
      </g>
    </g>
    <text id="Reset_Password" data-name="Reset
Password" transform="translate(40 70)" fill="#ff5100" font-size="40" font-family="Mulish-Light, Mulish" font-weight="300"><tspan x="0" y="0">Reset</tspan><tspan font-family="Mulish-ExtraBold, Mulish" font-weight="800"><tspan x="0" y="50">Password</tspan></tspan></text>
    <g id="Group_1" data-name="Group 1" transform="translate(-1248.805 -56)">
      <path id="Path_1" data-name="Path 1" d="M.842,153.267A2.884,2.884,0,0,1,0,151.14,2.85,2.85,0,0,1,.881,149a3.007,3.007,0,0,1,2.159-.842,3.243,3.243,0,0,1,2.338.966l-.709.748a2.179,2.179,0,0,0-1.629-.686,1.922,1.922,0,0,0-1.395.553,2.036,2.036,0,0,0-.008,2.782,1.867,1.867,0,0,0,1.387.561,2.305,2.305,0,0,0,1.613-.662v-.873H2.969v-.935h2.65v2.33A3.5,3.5,0,0,1,2.992,154.1a2.963,2.963,0,0,1-2.151-.834" transform="translate(1888 -32.684)" fill="#ff5100"/>
      <rect id="Rectangle_1" data-name="Rectangle 1" width="1.013" height="5.923" transform="translate(1894.506 115.409)" fill="#ff5100"/>
      <path id="Path_2" data-name="Path 2" d="M31.864,154.506a2.2,2.2,0,0,1,1.629-.647,2.173,2.173,0,0,1,1.621.647,2.278,2.278,0,0,1,0,3.164,2.165,2.165,0,0,1-1.621.639,2.173,2.173,0,0,1-2.26-2.229,2.158,2.158,0,0,1,.631-1.575m2.509.67a1.224,1.224,0,0,0-1.761,0,1.328,1.328,0,0,0,0,1.816,1.223,1.223,0,0,0,1.761,0,1.328,1.328,0,0,0,0-1.816" transform="translate(1865.088 -36.868)" fill="#ff5100"/>
      <path id="Path_3" data-name="Path 3" d="M55.035,150.15a2.363,2.363,0,0,1,0,3.164,1.989,1.989,0,0,1-1.5.631,1.667,1.667,0,0,1-1.356-.662v.561h-1v-5.923h1.013v2.237a1.693,1.693,0,0,1,1.348-.647,1.952,1.952,0,0,1,1.5.639m-.772.67a1.126,1.126,0,0,0-.881-.374,1.142,1.142,0,0,0-.888.374,1.28,1.28,0,0,0-.343.9,1.318,1.318,0,0,0,.343.919,1.163,1.163,0,0,0,.888.366,1.146,1.146,0,0,0,.881-.366,1.318,1.318,0,0,0,.343-.919,1.28,1.28,0,0,0-.343-.9" transform="translate(1850.457 -32.512)" fill="#ff5100"/>
      <path id="Path_4" data-name="Path 4" d="M73.575,153.989h.966v4.232h-.966V157.7a1.769,1.769,0,0,1-1.38.623,1.956,1.956,0,0,1-1.5-.639,2.266,2.266,0,0,1-.592-1.6,2.185,2.185,0,0,1,.592-1.574,2.011,2.011,0,0,1,1.5-.623,1.781,1.781,0,0,1,1.38.639Zm-.327,1.2a1.261,1.261,0,0,0-1.792,0,1.394,1.394,0,0,0,0,1.831,1.261,1.261,0,0,0,1.792,0,1.371,1.371,0,0,0,0-1.831" transform="translate(1836.577 -36.889)" fill="#ff5100"/>
      <rect id="Rectangle_2" data-name="Rectangle 2" width="1.013" height="5.923" transform="translate(1912.153 115.409)" fill="#ff5100"/>
      <path id="Path_5" data-name="Path 5" d="M107.208,154.294l-.476-1.309H104.69l-.476,1.309h-1.13l2.229-5.759h.818l2.205,5.759Zm-1.488-4.24L105,152.026h1.426Z" transform="translate(1812.379 -32.963)" fill="#ff5100"/>
      <path id="Path_6" data-name="Path 6" d="M123.645,157.381l.577-.623a1.477,1.477,0,0,0,1.138.6c.366,0,.623-.195.623-.444a.468.468,0,0,0-.319-.4,4.864,4.864,0,0,0-.514-.21c-.265-.1-.444-.179-.538-.226a1.175,1.175,0,0,1-.288-1.979,1.69,1.69,0,0,1,1.114-.351,1.846,1.846,0,0,1,1.45.624l-.53.647a1.279,1.279,0,0,0-.951-.436c-.319,0-.514.171-.514.4,0,.187.125.327.366.413.608.242.951.382,1.021.421a1.189,1.189,0,0,1,.717,1.075,1.2,1.2,0,0,1-.452.959,1.782,1.782,0,0,1-1.192.382,2.051,2.051,0,0,1-1.706-.842" transform="translate(1797.296 -36.782)" fill="#ff5100"/>
      <path id="Path_7" data-name="Path 7" d="M137.681,157.381l.577-.623a1.477,1.477,0,0,0,1.138.6c.366,0,.623-.195.623-.444a.468.468,0,0,0-.319-.4,4.894,4.894,0,0,0-.514-.21c-.265-.1-.444-.179-.538-.226a1.175,1.175,0,0,1-.288-1.979,1.69,1.69,0,0,1,1.114-.351,1.846,1.846,0,0,1,1.449.624l-.53.647a1.279,1.279,0,0,0-.951-.436c-.319,0-.514.171-.514.4,0,.187.125.327.366.413.608.242.951.382,1.021.421a1.189,1.189,0,0,1,.717,1.075,1.2,1.2,0,0,1-.452.959,1.782,1.782,0,0,1-1.192.382,2.052,2.052,0,0,1-1.707-.842" transform="translate(1787 -36.782)" fill="#ff5100"/>
      <path id="Path_8" data-name="Path 8" d="M152.742,148.208a.636.636,0,0,1,.655-.639.639.639,0,1,1-.655.639m1.153,5.377h-1.021v-4.232H153.9Z" transform="translate(1775.952 -32.254)" fill="#ff5100"/>
      <path id="Path_9" data-name="Path 9" d="M159.585,157.381l.577-.623a1.477,1.477,0,0,0,1.138.6c.366,0,.623-.195.623-.444a.467.467,0,0,0-.319-.4,4.891,4.891,0,0,0-.514-.21c-.265-.1-.444-.179-.538-.226a1.174,1.174,0,0,1-.288-1.979,1.689,1.689,0,0,1,1.114-.351,1.846,1.846,0,0,1,1.449.624l-.53.647a1.279,1.279,0,0,0-.951-.436c-.319,0-.514.171-.514.4,0,.187.125.327.366.413.608.242.951.382,1.021.421a1.189,1.189,0,0,1,.717,1.075,1.2,1.2,0,0,1-.452.959,1.782,1.782,0,0,1-1.192.382,2.051,2.051,0,0,1-1.706-.842" transform="translate(1770.932 -36.782)" fill="#ff5100"/>
      <path id="Path_10" data-name="Path 10" d="M176.791,154.13a2.1,2.1,0,0,1-1.223.351c-.959,0-1.45-.569-1.45-1.652v-1.823h-.7v-.857h.717v-1.5h1.006v1.5h1.418v.857h-1.418v1.785c0,.506.2.764.615.764a1.368,1.368,0,0,0,.717-.218Z" transform="translate(1760.785 -33.048)" fill="#ff5100"/>
      <path id="Path_11" data-name="Path 11" d="M190.492,153.989h.966v4.232h-.966V157.7a1.769,1.769,0,0,1-1.38.623,1.956,1.956,0,0,1-1.5-.639,2.266,2.266,0,0,1-.592-1.6,2.185,2.185,0,0,1,.592-1.574,2.011,2.011,0,0,1,1.5-.623,1.78,1.78,0,0,1,1.38.639Zm-.327,1.2a1.261,1.261,0,0,0-1.792,0,1.394,1.394,0,0,0,0,1.831,1.261,1.261,0,0,0,1.792,0,1.371,1.371,0,0,0,0-1.831" transform="translate(1750.809 -36.889)" fill="#ff5100"/>
      <path id="Path_12" data-name="Path 12" d="M207.575,158.2v-4.232h1v.593a1.447,1.447,0,0,1,1.333-.7,1.655,1.655,0,0,1,1.177.46,1.706,1.706,0,0,1,.483,1.3V158.2h-1.021v-2.3c0-.709-.366-1.114-.927-1.114a1.041,1.041,0,0,0-1.029,1.13V158.2Z" transform="translate(1735.727 -36.868)" fill="#ff5100"/>
      <path id="Path_13" data-name="Path 13" d="M225.978,157.691a2.155,2.155,0,0,1-.624-1.59,2.132,2.132,0,0,1,.631-1.59,2.241,2.241,0,0,1,1.637-.623,2.09,2.09,0,0,1,1.964,1.161l-.826.444a1.309,1.309,0,0,0-1.122-.67,1.239,1.239,0,0,0-1.27,1.278,1.257,1.257,0,0,0,.351.912,1.186,1.186,0,0,0,.888.366,1.31,1.31,0,0,0,1.138-.662l.826.483a2.349,2.349,0,0,1-3.593.491" transform="translate(1722.684 -36.889)" fill="#ff5100"/>
      <path id="Path_14" data-name="Path 14" d="M247.164,156.468h-3.226a1.213,1.213,0,0,0,1.293.974,2.388,2.388,0,0,0,1.4-.437l.405.725a3,3,0,0,1-1.839.584A2.119,2.119,0,0,1,242.9,156.1a2.17,2.17,0,0,1,.608-1.582,2.132,2.132,0,0,1,1.59-.631,2.006,2.006,0,0,1,2.1,2.127,3.585,3.585,0,0,1-.031.452m-3.226-.772h2.26a1.061,1.061,0,0,0-1.1-.959,1.148,1.148,0,0,0-1.161.959" transform="translate(1709.813 -36.889)" fill="#ff5100"/>
      <path id="Path_15" data-name="Path 15" d="M269.835,163.265a1.194,1.194,0,0,1,1.231-1.184,1.164,1.164,0,0,1,1.184,1.184,1.181,1.181,0,0,1-1.184,1.215,1.211,1.211,0,0,1-1.231-1.215" transform="translate(1690.054 -42.9)" fill="#ff5100"/>
      <path id="Path_16" data-name="Path 16" d="M289.86,149.564H288.2v-1.028h4.4v1.028h-1.66v4.731H289.86Z" transform="translate(1676.582 -32.963)" fill="#ff5100"/>
      <path id="Path_17" data-name="Path 17" d="M305.543,158.2v-4.232h.974v.585a1.272,1.272,0,0,1,1.177-.694,1.535,1.535,0,0,1,.506.086l-.086.974a1.617,1.617,0,0,0-.49-.086c-.632,0-1.068.421-1.068,1.3V158.2Z" transform="translate(1663.86 -36.868)" fill="#ff5100"/>
      <path id="Path_18" data-name="Path 18" d="M319.663,153.989h.966v4.232h-.966V157.7a1.769,1.769,0,0,1-1.379.623,1.955,1.955,0,0,1-1.5-.639,2.265,2.265,0,0,1-.592-1.6,2.184,2.184,0,0,1,.592-1.574,2.01,2.01,0,0,1,1.5-.623,1.78,1.78,0,0,1,1.379.639Zm-.327,1.2a1.261,1.261,0,0,0-1.793,0,1.394,1.394,0,0,0,0,1.831,1.261,1.261,0,0,0,1.793,0,1.371,1.371,0,0,0,0-1.831" transform="translate(1656.052 -36.889)" fill="#ff5100"/>
      <path id="Path_19" data-name="Path 19" d="M338.415,154.268h1.114l-1.847,4.224h-.764l-1.839-4.224H336.2l1.114,2.837Z" transform="translate(1642.193 -37.168)" fill="#ff5100"/>
      <path id="Path_20" data-name="Path 20" d="M356.6,156.468H353.37a1.214,1.214,0,0,0,1.293.974,2.388,2.388,0,0,0,1.4-.437l.405.725a2.993,2.993,0,0,1-1.839.584,2.119,2.119,0,0,1-2.291-2.213,2.169,2.169,0,0,1,.608-1.582,2.13,2.13,0,0,1,1.589-.631,2.006,2.006,0,0,1,2.1,2.127,3.7,3.7,0,0,1-.031.452m-3.226-.772h2.26a1.06,1.06,0,0,0-1.1-.959,1.149,1.149,0,0,0-1.161.959" transform="translate(1629.535 -36.889)" fill="#ff5100"/>
      <rect id="Rectangle_3" data-name="Rectangle 3" width="1.013" height="5.923" transform="translate(1986.948 115.409)" fill="#ff5100"/>
      <rect id="Rectangle_4" data-name="Rectangle 4" width="1.068" height="5.759" transform="translate(1991.07 115.572)" fill="#ff5100"/>
      <path id="Path_21" data-name="Path 21" d="M395.206,158.2v-4.232h1v.593a1.447,1.447,0,0,1,1.333-.7,1.655,1.655,0,0,1,1.177.46,1.706,1.706,0,0,1,.483,1.3V158.2h-1.021v-2.3c0-.709-.366-1.114-.927-1.114a1.041,1.041,0,0,0-1.029,1.13V158.2Z" transform="translate(1598.085 -36.868)" fill="#ff5100"/>
      <path id="Path_22" data-name="Path 22" d="M412.547,157.381l.577-.623a1.477,1.477,0,0,0,1.138.6c.366,0,.623-.195.623-.444a.468.468,0,0,0-.319-.4,4.9,4.9,0,0,0-.514-.21c-.265-.1-.444-.179-.538-.226a1.175,1.175,0,0,1-.288-1.979,1.69,1.69,0,0,1,1.114-.351,1.846,1.846,0,0,1,1.449.624l-.53.647a1.28,1.28,0,0,0-.951-.436c-.319,0-.514.171-.514.4,0,.187.125.327.366.413.608.242.951.382,1.021.421a1.189,1.189,0,0,1,.717,1.075,1.2,1.2,0,0,1-.452.959,1.784,1.784,0,0,1-1.193.382,2.052,2.052,0,0,1-1.707-.842" transform="translate(1585.364 -36.782)" fill="#ff5100"/>
      <path id="Path_23" data-name="Path 23" d="M427.842,156.731v-2.463h1.021v2.463a.894.894,0,1,0,1.784,0v-2.463h1.021v2.463a1.914,1.914,0,0,1-3.826,0" transform="translate(1574.144 -37.168)" fill="#ff5100"/>
      <path id="Path_24" data-name="Path 24" d="M445.857,158.2v-4.232h.974v.585a1.272,1.272,0,0,1,1.177-.694,1.535,1.535,0,0,1,.507.086l-.086.974a1.619,1.619,0,0,0-.491-.086c-.631,0-1.068.421-1.068,1.3V158.2Z" transform="translate(1560.928 -36.868)" fill="#ff5100"/>
      <path id="Path_25" data-name="Path 25" d="M459.978,153.989h.966v4.232h-.966V157.7a1.769,1.769,0,0,1-1.379.623,1.955,1.955,0,0,1-1.5-.639,2.265,2.265,0,0,1-.592-1.6,2.184,2.184,0,0,1,.592-1.574,2.01,2.01,0,0,1,1.5-.623,1.78,1.78,0,0,1,1.379.639Zm-.327,1.2a1.261,1.261,0,0,0-1.793,0,1.394,1.394,0,0,0,0,1.831,1.261,1.261,0,0,0,1.793,0,1.371,1.371,0,0,0,0-1.831" transform="translate(1553.119 -36.889)" fill="#ff5100"/>
      <path id="Path_26" data-name="Path 26" d="M477.061,158.2v-4.232h1v.593a1.447,1.447,0,0,1,1.333-.7,1.654,1.654,0,0,1,1.177.46,1.705,1.705,0,0,1,.483,1.3V158.2H480.03v-2.3c0-.709-.366-1.114-.927-1.114a1.041,1.041,0,0,0-1.029,1.13V158.2Z" transform="translate(1538.037 -36.868)" fill="#ff5100"/>
      <path id="Path_27" data-name="Path 27" d="M495.465,157.691a2.154,2.154,0,0,1-.624-1.59,2.132,2.132,0,0,1,.631-1.59,2.242,2.242,0,0,1,1.637-.623,2.09,2.09,0,0,1,1.964,1.161l-.826.444a1.308,1.308,0,0,0-1.122-.67,1.239,1.239,0,0,0-1.27,1.278,1.257,1.257,0,0,0,.351.912,1.187,1.187,0,0,0,.888.366,1.31,1.31,0,0,0,1.138-.662l.826.483a2.349,2.349,0,0,1-3.592.491" transform="translate(1524.994 -36.889)" fill="#ff5100"/>
      <path id="Path_28" data-name="Path 28" d="M516.65,156.468h-3.226a1.214,1.214,0,0,0,1.294.974,2.388,2.388,0,0,0,1.4-.437l.405.725a2.994,2.994,0,0,1-1.839.584,2.119,2.119,0,0,1-2.291-2.213,2.169,2.169,0,0,1,.608-1.582,2.131,2.131,0,0,1,1.59-.631,2.006,2.006,0,0,1,2.1,2.127,3.7,3.7,0,0,1-.031.452m-3.226-.772h2.26a1.06,1.06,0,0,0-1.1-.959,1.149,1.149,0,0,0-1.161.959" transform="translate(1512.123 -36.889)" fill="#ff5100"/>
      <path id="Path_29" data-name="Path 29" d="M416.927,57.905l.19-.488,2.088-5.375.464-1.2h0l-1.2.464L413.1,53.4l-.529.206-.206.53-2.088,5.375-.464,1.2h0l1.2-.464,5.375-2.088.433-.168.1-.038Zm1.021-5.337h0l-1.676,4.005-1.165-1.165-1.165-1.165Zm-6.416,6.416,1.675-4.005,1.165,1.165,1.165,1.165-4.005,1.676Z" transform="translate(1587.371 38.699)" fill="#ff5100"/>
      <path id="Path_30" data-name="Path 30" d="M138.213,43.049l2.517-2.42a6.651,6.651,0,0,0,5.906,3.647c2.453,0,4.066-1.452,4.066-3.26,0-1.194-.775-2.226-2.356-3.065q-.581-.291-2.42-1.065c-1.194-.549-2.13-1-2.743-1.356-2.42-1.452-3.615-3.389-3.615-5.777a6.1,6.1,0,0,1,2.065-4.712,7.77,7.77,0,0,1,5.422-1.9,8.845,8.845,0,0,1,7.261,3.421l-2.292,2.55a6.081,6.081,0,0,0-4.938-2.453c-2.065,0-3.55,1.13-3.55,2.9a3.3,3.3,0,0,0,2,2.84c.419.226,1.291.678,2.679,1.323,1.388.613,2.356,1.1,2.937,1.42a6.226,6.226,0,0,1,3.647,5.68,6.4,6.4,0,0,1-2.291,5.035,8.766,8.766,0,0,1-5.874,1.937,9.457,9.457,0,0,1-8.423-4.744" transform="translate(1786.61 59.027)" fill="#00ae8d"/>
      <path id="Path_31" data-name="Path 31" d="M216.221,48.56V24.711h15.232v3.518H219.932v6.487h10.682v3.518H219.932v6.809h11.554V48.56Z" transform="translate(1729.385 57.872)" fill="#00ae8d"/>
      <path id="Path_32" data-name="Path 32" d="M287.419,44.307a11.943,11.943,0,0,1-3.485-8.81,11.7,11.7,0,0,1,3.614-8.842,12.171,12.171,0,0,1,8.843-3.518,13.067,13.067,0,0,1,9.843,4.228l-2.549,2.517a9.363,9.363,0,0,0-7.261-3.13,8.419,8.419,0,0,0-6.2,2.485,8.515,8.515,0,0,0-2.485,6.261,8.465,8.465,0,0,0,2.453,6.229,8.3,8.3,0,0,0,6.132,2.453,10.2,10.2,0,0,0,7.261-3.1V36.82h-7.519V33.463h10.973v9.359A14.046,14.046,0,0,1,296.23,47.76a12.043,12.043,0,0,1-8.811-3.453" transform="translate(1679.712 59.028)" fill="#00ae8d"/>
      <path id="Path_33" data-name="Path 33" d="M385.567,44.275a11.806,11.806,0,0,1-3.518-8.682,12.377,12.377,0,1,1,24.753-.1,11.764,11.764,0,0,1-3.615,8.713,12.119,12.119,0,0,1-8.874,3.583,11.9,11.9,0,0,1-8.746-3.518m14.878-2.582a8.394,8.394,0,0,0,2.485-6.164,8.491,8.491,0,0,0-2.485-6.229,8.532,8.532,0,0,0-12.07.032,8.391,8.391,0,0,0-2.452,6.2,8.446,8.446,0,0,0,2.42,6.132,8.65,8.65,0,0,0,12.1.032" transform="translate(1607.736 59.028)" fill="#00ae8d"/>
      <path id="Path_34" data-name="Path 34" d="M72.325,41.535l-1.508-3.423L65.925,27l-1.7-3.863h0L62.522,27l-4.893,11.11-1.507,3.423-2.756,6.259H57.4l2.566-6.259h8.516l2.566,6.259h4.034Zm-8.1-3.423H61.369l2.854-6.961h0l2.855,6.961Z" transform="translate(1848.853 59.026)" fill="#00ae8d"/>
      <path id="Path_35" data-name="Path 35" d="M407.226,3.155V0h11.236V3.123Z" transform="translate(1589.267 76)" fill="#00ae8d"/>
    </g>
  </g>
</svg>
