<svg xmlns="http://www.w3.org/2000/svg" xmlns:xlink="http://www.w3.org/1999/xlink" width="803.943" height="253" viewBox="0 0 803.943 253">
  <defs>
    <clipPath id="clip-path">
      <rect id="Rectangle_13255" data-name="Rectangle 13255" width="225.627" height="192.564" fill="none"/>
    </clipPath>
    <clipPath id="clip-path-2">
      <rect id="Rectangle_13233" data-name="Rectangle 13233" width="225.627" height="192.564" fill="#00ae8d"/>
    </clipPath>
    <clipPath id="clip-path-3">
      <path id="Path_21549" data-name="Path 21549" d="M99.8,5.989a5.8,5.8,0,0,0-5.785,5.785V183.6a5.775,5.775,0,0,0,5.775,5.775h82.372a5.792,5.792,0,0,0,5.775-5.775V11.765a5.776,5.776,0,0,0-5.775-5.776Z" transform="translate(-94.017 -5.989)" fill="#68d2c0"/>
    </clipPath>
    <clipPath id="clip-path-5">
      <path id="Path_21561" data-name="Path 21561" d="M27.062,171.206c-2.642,3.14-7.914,20.67-7.914,20.67l8.213,2.955,1.644-3.339s7.127,16.215-3.439,30.37C15.761,235,42.518,232.568,46.425,232.15c3.906.418,30.663,2.848,20.859-10.288-10.566-14.156-3.439-30.37-3.439-30.37l1.644,3.339,7.725-2.991S68.087,174,65.788,171.206c-2.558-3.106-15.118-3.6-15.118-3.6s-1.263,3.323-4.453,3.323-4.2-3.356-4.2-3.356-12.625.871-14.953,3.638" transform="translate(-19.148 -167.568)" fill="#ff8a54"/>
    </clipPath>
    <clipPath id="clip-path-6">
      <rect id="Rectangle_13251" data-name="Rectangle 13251" width="225.627" height="192.564" fill="#fff"/>
    </clipPath>
    <clipPath id="clip-path-7">
      <path id="Path_21574" data-name="Path 21574" d="M268.047,1.79,250.076,8.126l0,.48c.009,1.1.4,27.052,17.832,34.4l.139.094h.344l.124-.052c17.516-7.257,17.915-33.332,17.923-34.438l0-.481-18.18-6.409Z" transform="translate(-250.076 -1.717)" fill="#43b0ef"/>
    </clipPath>
    <clipPath id="clip-path-9">
      <rect id="Rectangle_13253" data-name="Rectangle 13253" width="17.454" height="39.952" fill="none"/>
    </clipPath>
  </defs>
  <g id="Group_32692" data-name="Group 32692" transform="translate(0.538)">
    <rect id="Rectangle_12169" data-name="Rectangle 12169" width="800" height="253" fill="#D8DDE3"/>
    <path id="Path_17974" data-name="Path 17974" d="M4835.669,3900.215s106.368,99.729,208.021,59.906c97.892-38.35,139.732-85.855,219.441-64.756s127.582,82.59,200.055,81.273c80.75-1.466,173.446-59.583,175.048-56.424" transform="translate(-4835.5 -3750.215)" fill="none" stroke="#707070" stroke-linecap="round" stroke-width="1" stroke-dasharray="2 4"/>
    <g id="Group_32392" data-name="Group 32392" transform="translate(394.344 60.436)">
      <g id="Group_32391" data-name="Group 32391" clip-path="url(#clip-path)">
        <g id="Group_32375" data-name="Group 32375">
          <g id="Group_32374" data-name="Group 32374" clip-path="url(#clip-path-2)">
            <path id="Path_21548" data-name="Path 21548" d="M180.953,0H97.418A8.934,8.934,0,0,0,88.51,8.908v172.72a10.936,10.936,0,0,0,10.936,10.936h79.465a10.976,10.976,0,0,0,10.943-10.943V8.9a8.9,8.9,0,0,0-8.9-8.9" transform="translate(-28.907)" fill="#00ae8d"/>
          </g>
        </g>
        <g id="Group_32377" data-name="Group 32377" transform="translate(63.311 4.033)">
          <g id="Group_32376" data-name="Group 32376" clip-path="url(#clip-path-3)">
            <rect id="Rectangle_13234" data-name="Rectangle 13234" width="93.922" height="183.382" transform="translate(0 0)" fill="#68d2c0"/>
          </g>
        </g>
        <g id="Group_32379" data-name="Group 32379">
          <g id="Group_32378" data-name="Group 32378" clip-path="url(#clip-path)">
            <path id="Path_21550" data-name="Path 21550" d="M162.755,11.372h-9.839a.764.764,0,1,0,0,1.527h9.839a.764.764,0,0,0,0-1.527m4.165-.1a.865.865,0,1,0,.863.867.864.864,0,0,0-.863-.867" transform="translate(-49.693 -3.68)" fill="#f9fbfc"/>
            <rect id="Rectangle_13235" data-name="Rectangle 13235" width="136.881" height="60.541" rx="8.652" transform="translate(87.399 52.324)" fill="#fff"/>
            <path id="Path_21551" data-name="Path 21551" d="M260.189,78.4a4.479,4.479,0,0,1,4.479,4.479v48.889a4.479,4.479,0,0,1-4.479,4.479H134.96a4.479,4.479,0,0,1-4.479-4.479V82.875A4.479,4.479,0,0,1,134.96,78.4Zm0-2.694H134.96a7.181,7.181,0,0,0-7.173,7.173v48.889a7.181,7.181,0,0,0,7.173,7.173H260.189a7.181,7.181,0,0,0,7.173-7.173V82.875a7.181,7.181,0,0,0-7.173-7.173" transform="translate(-41.735 -24.724)" fill="#43b0ef"/>
            <rect id="Rectangle_13236" data-name="Rectangle 13236" width="16.057" height="19.057" transform="translate(95.846 73.067)" fill="#fff"/>
            <rect id="Rectangle_13237" data-name="Rectangle 13237" width="16.057" height="19.057" transform="translate(95.846 73.067)" fill="none" stroke="#43b0ef" stroke-linecap="round" stroke-linejoin="round" stroke-width="1"/>
            <rect id="Rectangle_13238" data-name="Rectangle 13238" width="16.057" height="19.057" transform="translate(116.632 73.067)" fill="#fff"/>
            <rect id="Rectangle_13239" data-name="Rectangle 13239" width="16.057" height="19.057" transform="translate(116.632 73.067)" fill="none" stroke="#43b0ef" stroke-linecap="round" stroke-linejoin="round" stroke-width="1"/>
            <rect id="Rectangle_13240" data-name="Rectangle 13240" width="16.057" height="19.057" transform="translate(137.418 73.067)" fill="#fff"/>
            <rect id="Rectangle_13241" data-name="Rectangle 13241" width="16.057" height="19.057" transform="translate(137.418 73.067)" fill="none" stroke="#43b0ef" stroke-linecap="round" stroke-linejoin="round" stroke-width="1"/>
            <rect id="Rectangle_13242" data-name="Rectangle 13242" width="16.057" height="19.057" transform="translate(158.204 73.067)" fill="#fff"/>
            <rect id="Rectangle_13243" data-name="Rectangle 13243" width="16.057" height="19.057" transform="translate(158.204 73.067)" fill="none" stroke="#43b0ef" stroke-linecap="round" stroke-linejoin="round" stroke-width="1"/>
            <rect id="Rectangle_13244" data-name="Rectangle 13244" width="16.057" height="19.057" transform="translate(178.99 73.067)" fill="#fff"/>
            <rect id="Rectangle_13245" data-name="Rectangle 13245" width="16.057" height="19.057" transform="translate(178.99 73.067)" fill="none" stroke="#43b0ef" stroke-linecap="round" stroke-linejoin="round" stroke-width="1"/>
            <rect id="Rectangle_13246" data-name="Rectangle 13246" width="16.057" height="19.057" transform="translate(199.775 73.067)" fill="#fff"/>
            <rect id="Rectangle_13247" data-name="Rectangle 13247" width="16.057" height="19.057" transform="translate(199.775 73.067)" fill="none" stroke="#43b0ef" stroke-linecap="round" stroke-linejoin="round" stroke-width="1"/>
            <path id="Path_21552" data-name="Path 21552" d="M152.788,119.822l2.729-1.969.8,1.455-3.108,1.3,3.131,1.275-.85,1.5-2.706-1.968.358,3.376h-1.677l.335-3.376L149.1,123.4l-.873-1.522,3.11-1.3-3.11-1.253.828-1.5,2.774,1.991-.358-3.4h1.7Z" transform="translate(-48.41 -38.023)" fill="#43b0ef"/>
            <path id="Path_21553" data-name="Path 21553" d="M183.655,119.822l2.729-1.969.8,1.455-3.108,1.3,3.131,1.275-.85,1.5-2.706-1.968.358,3.376h-1.677l.335-3.376-2.706,1.991-.873-1.522,3.11-1.3-3.11-1.253.828-1.5,2.774,1.991-.358-3.4h1.7Z" transform="translate(-58.491 -38.023)" fill="#43b0ef"/>
            <line id="Line_283" data-name="Line 283" x2="3.889" transform="translate(143.502 82.595)" fill="none" stroke="#b4aff3" stroke-linecap="round" stroke-linejoin="round" stroke-width="1"/>
            <line id="Line_284" data-name="Line 284" x2="3.889" transform="translate(164.288 82.595)" fill="none" stroke="#b4aff3" stroke-linecap="round" stroke-linejoin="round" stroke-width="1"/>
            <line id="Line_285" data-name="Line 285" x2="3.889" transform="translate(185.074 82.595)" fill="none" stroke="#b4aff3" stroke-linecap="round" stroke-linejoin="round" stroke-width="1"/>
            <line id="Line_286" data-name="Line 286" x2="3.889" transform="translate(205.859 82.595)" fill="none" stroke="#b4aff3" stroke-linecap="round" stroke-linejoin="round" stroke-width="1"/>
            <path id="Path_21554" data-name="Path 21554" d="M48.388,232.925s-22.138,1.344-22.678-.941,3.195-12.133,6.57-20.8.539-16.939-2.835-23.292-3.433-12.512.617-16.242,18.147-3.42,18.147-3.42,14.308-.807,18.358,2.925,3.78,10.385.4,16.737-6.209,14.62-2.834,23.292,7.109,18.519,6.57,20.8-22.679.941-22.679.941Z" transform="translate(-8.38 -54.919)" fill="#f2bc97"/>
            <path id="Path_21555" data-name="Path 21555" d="M82.112,170.858a3.944,3.944,0,0,1,3.212,2.442c2.5,5.859,10.562,25.618,6.314,27.543-4.993,2.264-11.085-15.635-12.18-21.007-.914-4.477-.815-9.252,2.654-8.978" transform="translate(-25.791 -55.799)" fill="#f2bc97"/>
            <path id="Path_21556" data-name="Path 21556" d="M93.788,203.391s1.445,3.987,1.2,5.632-6.18,16.6-6.18,16.6l-4.984-1.778s4.2-13.923,4.17-14.3-1.18-3.489-1.18-3.489Z" transform="translate(-27.376 -66.428)" fill="#f2bc97"/>
            <path id="Path_21557" data-name="Path 21557" d="M19.769,203.391s-1.445,3.987-1.2,5.632,6.18,16.6,6.18,16.6l4.985-1.778s-4.2-13.923-4.17-14.3,1.18-3.489,1.18-3.489Z" transform="translate(-6.057 -66.428)" fill="#f2bc97"/>
            <path id="Path_21558" data-name="Path 21558" d="M23.119,207.327a3.891,3.891,0,0,1,2.771,2.6c2.073,5.938,9.3,27.16,7.295,29-2.329,2.143-13.64-27.725-13.24-29.5a2.621,2.621,0,0,1,3.174-2.106" transform="translate(-6.511 -67.691)" fill="#f2bc97"/>
            <path id="Path_21559" data-name="Path 21559" d="M43.935,152.126s8.024,3.708,19.978,0c0,0,3.044-10.665,1.162-17.97s-7.582-7.527-10.017-6.641c0,0-6.752-1.162-9.519,2.213-2.648,3.23-5.424,10.333-1.6,22.4" transform="translate(-13.737 -41.528)" fill="#3d3d3d"/>
            <rect id="Rectangle_13248" data-name="Rectangle 13248" width="8.632" height="9.035" transform="translate(35.767 108.038)" fill="#f2bc97"/>
            <path id="Path_21560" data-name="Path 21560" d="M63.524,143.246c0,6.051-3.547,10.957-7.921,10.957s-7.921-4.906-7.921-10.957,3.546-10.957,7.921-10.957,7.921,4.906,7.921,10.957" transform="translate(-15.573 -43.206)" fill="#f2bc97"/>
          </g>
        </g>
        <g id="Group_32381" data-name="Group 32381" transform="translate(12.894 112.84)">
          <g id="Group_32380" data-name="Group 32380" clip-path="url(#clip-path-5)">
            <rect id="Rectangle_13250" data-name="Rectangle 13250" width="61.328" height="67.43" transform="translate(-3.387 0)" fill="#ff8a54"/>
          </g>
        </g>
        <g id="Group_32383" data-name="Group 32383">
          <g id="Group_32382" data-name="Group 32382" clip-path="url(#clip-path-6)">
            <path id="Path_21562" data-name="Path 21562" d="M30.844,247.257c-2.294,1.543.816,5.2,1.923,6.41,1.8,1.968,5.4,2.9,6.195,2.2s-3.578-4.938-3.532-5.25,2.372,1.545,3.048.809-2.083-3.589-3.622-4.292-2.574-.848-4.012.12" transform="translate(-9.804 -80.53)" fill="#f2bc97"/>
            <path id="Path_21563" data-name="Path 21563" d="M89.273,207.327a3.891,3.891,0,0,0-2.771,2.6c-2.073,5.938-9.3,27.16-7.295,29,2.329,2.143,13.64-27.725,13.24-29.5a2.621,2.621,0,0,0-3.174-2.106" transform="translate(-25.756 -67.691)" fill="#f2bc97"/>
            <path id="Path_21564" data-name="Path 21564" d="M71.58,236.361l.048.145A174.4,174.4,0,0,0,48.364,248.3a234.546,234.546,0,0,0-23.241-10.914l.048-1.022V220.374H71.58v15.987Z" transform="translate(-8.205 -71.974)" fill="#f8fafb"/>
            <path id="Path_21565" data-name="Path 21565" d="M58.019,269.194S6.224,264.6.979,253.328c-3.865-8.31,4.327-14.948,13.768-11.67s43.4,19.931,43.4,19.931Z" transform="translate(0 -78.646)" fill="#3d3d3d"/>
            <path id="Path_21566" data-name="Path 21566" d="M91.077,273v6.714s8.86.588,9.432-.4,1.257-4.573-.991-6.288-7.735-1.8-8.44-.023" transform="translate(-29.746 -88.737)" fill="#3d3d3d"/>
            <path id="Path_21567" data-name="Path 21567" d="M85.951,271.669l3.475,1.278v6.688l-3.606-.36Z" transform="translate(-28.029 -88.727)" fill="#dec6a0"/>
            <path id="Path_21568" data-name="Path 21568" d="M31.286,269.194s51.795-4.589,57.04-15.866c3.865-8.31-4.327-14.948-13.768-11.67s-43.4,19.931-43.4,19.931Z" transform="translate(-10.175 -78.646)" fill="#4d4d4d"/>
            <path id="Path_21569" data-name="Path 21569" d="M29.659,271.669l-3.475,1.278v6.688l3.606-.36Z" transform="translate(-8.552 -88.727)" fill="#dec6a0"/>
            <path id="Path_21570" data-name="Path 21570" d="M21.433,273v6.714s-8.86.588-9.432-.4-1.257-4.573.991-6.288,7.735-1.8,8.44-.023" transform="translate(-3.735 -88.737)" fill="#3d3d3d"/>
            <path id="Path_21571" data-name="Path 21571" d="M44.671,142.028s7.269.508,11.913-2.667c1.052-.719,1.956-3.095,1.956-3.095a4.974,4.974,0,0,0,1.079,2.574,11.041,11.041,0,0,1-.333-2.85s1.329,3.9,2.269,3.985,3.819,0,3.819,0l-3.989-8.925-12.714-1.333Z" transform="translate(-14.59 -42.365)" fill="#3d3d3d"/>
            <path id="Path_21572" data-name="Path 21572" d="M166.455,207.629H143.667v-11.97a11.394,11.394,0,0,1,22.788,0Zm-18.99-3.8h15.192v-8.172a7.6,7.6,0,1,0-15.192,0Z" transform="translate(-46.922 -60.181)" fill="#fff"/>
            <path id="Path_21573" data-name="Path 21573" d="M167.287,205.9H137.932a1.78,1.78,0,0,0-1.78,1.78v23.026a1.78,1.78,0,0,0,1.78,1.78h29.355a1.785,1.785,0,0,0,1.78-1.78V207.679a1.785,1.785,0,0,0-1.78-1.78m-16.024,13.069V217a1.343,1.343,0,0,1,2.686,0v1.968a2.716,2.716,0,1,1-2.686,0" transform="translate(-44.467 -67.247)" fill="#fff"/>
          </g>
        </g>
        <g id="Group_32385" data-name="Group 32385" transform="translate(168.401 1.156)">
          <g id="Group_32384" data-name="Group 32384" clip-path="url(#clip-path-7)">
            <rect id="Rectangle_13252" data-name="Rectangle 13252" width="36.37" height="41.38" transform="translate(0 0)" fill="#43b0ef"/>
          </g>
        </g>
        <g id="Group_32390" data-name="Group 32390">
          <g id="Group_32389" data-name="Group 32389" clip-path="url(#clip-path)">
            <path id="Path_21575" data-name="Path 21575" d="M267.932,2.084,285.44,8.256s-.2,26.653-17.508,33.822h-.006a.175.175,0,0,0-.048-.024c-17.257-7.193-17.454-33.8-17.454-33.8L267.878,2.1ZM267.943.66l-.438.147-.054.018L249.976,6.986l-.906.32.007.96a58.907,58.907,0,0,0,2.31,14.57c2.993,10.243,8.485,17.3,15.886,20.425l.248.164h.673l.253-.1c7.466-3.093,13.005-10.17,16.021-20.465a58.947,58.947,0,0,0,2.318-14.591l.007-.961-.906-.32L268.38.814Z" transform="translate(-81.346 -0.216)" fill="#dae3ef"/>
            <path id="Path_21576" data-name="Path 21576" d="M272.691,33.194l-6.436-5.347a1.22,1.22,0,0,1,1.559-1.877l4.749,3.945,8.506-8.27a1.221,1.221,0,0,1,1.7,1.75Z" transform="translate(-86.815 -6.956)" fill="#fefefe"/>
            <g id="Group_32388" data-name="Group 32388" transform="translate(169.078 1.886)" opacity="0.5" style="mix-blend-mode: multiply;isolation: isolate">
              <g id="Group_32387" data-name="Group 32387">
                <g id="Group_32386" data-name="Group 32386" clip-path="url(#clip-path-9)">
                  <path id="Path_21577" data-name="Path 21577" d="M268.535,2.8V42.753c-17.257-7.193-17.454-33.8-17.454-33.8Z" transform="translate(-251.081 -2.801)" fill="#d1d3d4"/>
                </g>
              </g>
            </g>
          </g>
        </g>
      </g>
    </g>
  </g>
</svg>
