<svg id="telephone" xmlns="http://www.w3.org/2000/svg" width="24.295" height="24.295" viewBox="0 0 24.295 24.295">
  <g id="Group_2" data-name="Group 2">
    <path id="Path_2" data-name="Path 2" d="M12.148,0A12.148,12.148,0,1,0,24.3,12.148,12.148,12.148,0,0,0,12.148,0Zm6.074,18.981A12.921,12.921,0,0,1,5.315,6.074a.759.759,0,0,1,.759-.759h2.8a.759.759,0,0,1,.759.759,8.373,8.373,0,0,0,.849,3.713.761.761,0,0,1-.352,1.017L9,11.35a10.669,10.669,0,0,0,3.943,3.943l.547-1.131a.761.761,0,0,1,1.017-.352,8.387,8.387,0,0,0,3.713.849.759.759,0,0,1,.759.759v2.8h0A.759.759,0,0,1,18.221,18.981Z" fill="#ff5100"/>
  </g>
</svg>
