<svg xmlns="http://www.w3.org/2000/svg" xmlns:xlink="http://www.w3.org/1999/xlink" width="803.943" height="253" viewBox="0 0 803.943 253">
  <defs>
    <clipPath id="clip-path">
      <path id="Path_21574" data-name="Path 21574" d="M282.548,1.848,250.076,13.3l0,.868c.016,1.993.723,48.88,32.221,62.152l.252.169h.622l.224-.094c31.65-13.112,32.371-60.227,32.385-62.226l.008-.869-32.85-11.58Z" transform="translate(-250.076 -1.717)" fill="#00ae8d"/>
    </clipPath>
    <clipPath id="clip-path-2">
      <rect id="Rectangle_13253" data-name="Rectangle 13253" width="31.537" height="72.189" fill="#68d2c0"/>
    </clipPath>
  </defs>
  <g id="Group_32704" data-name="Group 32704" transform="translate(0.538)">
    <rect id="Rectangle_12169" data-name="Rectangle 12169" width="800" height="253" fill="#D8DDE3"/>
    <path id="Path_17974" data-name="Path 17974" d="M4835.669,3900.215s106.368,99.729,208.021,59.906c97.892-38.35,139.732-85.855,219.441-64.756s127.582,82.59,200.055,81.273c80.75-1.466,173.446-59.583,175.048-56.424" transform="translate(-4835.5 -3750.215)" fill="none" stroke="#707070" stroke-linecap="round" stroke-width="1" stroke-dasharray="2 4"/>
    <g id="Group_32653" data-name="Group 32653" transform="translate(10303 13995.436)">
      <g id="Group_32651" data-name="Group 32651" transform="translate(-9891 -13935)">
        <path id="Path_21785" data-name="Path 21785" d="M659.914,378.574l-2.106,6.631,2.66,1.37s7.5,7.483,11.6-.5a3.765,3.765,0,0,0-4.783-5.2l-.137.058a.107.107,0,0,1-.116-.176l2.135-1.967a.915.915,0,0,0-1.11-1.446l-2.586,1.641a2.621,2.621,0,0,1-1.946.352Z" transform="translate(-551.651 -316.326)" fill="#f3be99"/>
        <path id="Path_21786" data-name="Path 21786" d="M47.156,500.141l-6.546-2.359-1.47,2.606S31.375,507.594,39.2,512a3.765,3.765,0,0,0,5.382-4.58c-.018-.045-.035-.092-.053-.139a.107.107,0,0,1,.181-.11l1.885,2.209a.915.915,0,0,0,1.486-1.054l-1.54-2.647a2.63,2.63,0,0,1-.278-1.959Z" transform="translate(-29.942 -417.451)" fill="#f3be99"/>
        <path id="Path_21787" data-name="Path 21787" d="M73.353,275.122,55.879,312.764l8.214,3.107,15.239-24.552Z" transform="translate(-46.86 -230.722)" fill="#ff8a54"/>
        <path id="Path_21788" data-name="Path 21788" d="M145.4,218.366l12.55-2.926s1.932-27.777,10.041-41.679l18.15,13.709,26.649,8.5L215.3,186.7l-22.4-8.882-21.914-22a22.343,22.343,0,0,0-18.131-6.612,23,23,0,0,0-14.6,7.559c-9.654,12.25-12.793,29.37-13.517,52.494.634,8.206,9.638,9.491,20.661,9.105" transform="translate(-104.607 -125.027)" fill="#ff8a54"/>
        <path id="Path_21789" data-name="Path 21789" d="M33.2,1075.849l-6.988-2.652,4.572-8.787,6.986,2.653Z" transform="translate(-21.98 -892.637)" fill="#f3be99"/>
        <path id="Path_21790" data-name="Path 21790" d="M4.037,1108.049l-3.5,4.2a2.248,2.248,0,0,0-.523,1.169A2.486,2.486,0,0,0,1.8,1115.93l12.016,4.661a9.679,9.679,0,0,0,3.31.638,2.151,2.151,0,0,0,2.367-1.745,1.519,1.519,0,0,0-.444-1.115l-6.2-8.092a1.351,1.351,0,0,0-.634-.438l-6.4-2.208a1.671,1.671,0,0,0-1.774.417" transform="translate(0 -928.805)" fill="#4d4d4d"/>
        <rect id="Rectangle_13314" data-name="Rectangle 13314" width="7.474" height="9.896" transform="translate(53.06 175.654) rotate(-0.339)" fill="#f3be99"/>
        <path id="Path_21791" data-name="Path 21791" d="M315.307,1135.948l-1.753,5.179a2.243,2.243,0,0,0-.066,1.278,2.484,2.484,0,0,0,2.571,1.7l12.889.018a9.667,9.667,0,0,0,3.316-.6,2.15,2.15,0,0,0,1.58-2.479,1.515,1.515,0,0,0-.817-.88l-8.7-5.313a1.361,1.361,0,0,0-.749-.179l-6.768.249a1.662,1.662,0,0,0-1.5,1.025" transform="translate(-262.845 -951.559)" fill="#4d4d4d"/>
        <path id="Path_21792" data-name="Path 21792" d="M50.321,614.606l15.263-25.283a37.592,37.592,0,0,0,5.229-15.74l2.4-24.351,8.635,26.106a28.6,28.6,0,0,1,1.349,6.618L86,615.623h10.62V580.361a56.321,56.321,0,0,0-.976-10.435L87.746,528.14S67.085,532,54.535,521.961l1.025,50.383a28.607,28.607,0,0,1-2.643,12.608l-11.9,25.689Z" transform="translate(-34.399 -437.726)" fill="#4d4d4d"/>
        <path id="Path_21793" data-name="Path 21793" d="M316.72,45.46a.29.29,0,0,0-.434.239l-.173,3.944c-.006.206-.006.366-.147.458a3.9,3.9,0,0,1-1.128.481,5.187,5.187,0,0,1-4.417-1.394,11.468,11.468,0,0,1-2.329-2.551.21.21,0,0,1-.018-.181L310.21,40.9a.294.294,0,0,0-.035-.263c-2.463-3.754-.147-8.607-.147-8.607,5.7-10.341,12.968-5.377,16.177-2.342a4.4,4.4,0,0,1,1.3,3.957c-2.713,15.414-9.12,12.8-10.788,11.815" transform="translate(-258.348 -21.634)" fill="#f3be99"/>
        <path id="Path_21794" data-name="Path 21794" d="M309.894,12.736l-.8,3.518a.584.584,0,0,0,1.122.323l.88-2.524a1.655,1.655,0,0,1,1.252-1.073,3.833,3.833,0,0,0,3.289-2.8.73.73,0,0,1,.928-.544c1.419.442,4.3,1.175,5.857.4a5.269,5.269,0,0,1,.892-.347,2.855,2.855,0,0,0,2.363-2.847.7.7,0,0,0-.542-.646l-2.566-.586a.358.358,0,0,1-.276-.391l.258-2.254a.358.358,0,0,0-.431-.392l-3.173.671a1.868,1.868,0,0,1-1.843-.658A7.283,7.283,0,0,0,310.437.045c-3.291.305-5.834,2.906-7.32,4.9a5.516,5.516,0,0,0-.942,4.561l.872,3.713a3.066,3.066,0,0,1,.066.418c.087,1.062.014,5.755,1.993,5.508a.131.131,0,0,0,.11-.1l1.093-2.046a2.708,2.708,0,0,0-.1-1.556c-.5-1.339-1.257-4.133,1.009-4.428a2.773,2.773,0,0,1,2.114.607,1.2,1.2,0,0,1,.565,1.12" transform="translate(-253.285 -0.001)" fill="#4d4d4d"/>
        <path id="Path_21795" data-name="Path 21795" d="M783.578,209.157c.392-1.544,1.521-1.922,2.753-3.65A47.831,47.831,0,0,1,802.364,191.1c9.194-4.795,16.7-6.147,24.237-4.015h.005c1.68.474,2.764-.5,3.726.445l-2.48-2.447-4.115-4.054-6.171-.526-11.034,3.563-7.893,3.55-7.711,5.784-5.351,6.655-1.41,4.151-.278.82Z" transform="translate(-657.125 -151.374)" fill="#3386b7"/>
        <path id="Path_21796" data-name="Path 21796" d="M773.915,224.342a11.08,11.08,0,0,0,.954,3.951v0a9.214,9.214,0,0,0,1.681,2.561v.008a7.291,7.291,0,0,0,1.806,1.419,6.26,6.26,0,0,0,1.935.681c7.219,1.275,16.575-.854,26.114-6.289,5.971-3.407,10.666-7.394,13.6-11.4,3.47-4.737,4.5-9.488,2.307-13.33l-.1.044-2.471,1.078-1.5.657a3.488,3.488,0,0,1,.158.571,4.854,4.854,0,0,1,.089.775c.007.179.008.368,0,.557a4.348,4.348,0,0,1-.055.516,7.252,7.252,0,0,1-.3,1.265A13.63,13.63,0,0,1,816.223,211c-.224.308-.462.621-.713.936l0,.006c-.189.232-.386.47-.592.705-.068.079-.137.157-.21.237a33.5,33.5,0,0,1-4.013,3.792c-.218.176-.437.352-.66.525-.337.261-.681.52-1.033.778-1.057.773-2.183,1.527-3.376,2.25-.265.16-.531.32-.8.479-.726.416-1.474.829-2.235,1.226a49.482,49.482,0,0,1-4.525,2.085c-.828.342-1.649.645-2.454.918q-1.654.571-3.232.96c-.554.14-1.094.265-1.627.373-.428.09-.847.166-1.262.231a22.864,22.864,0,0,1-4.825.316c-.268-.014-.529-.032-.784-.061s-.512-.061-.757-.1c-.16-.024-.316-.055-.471-.087,0,0-.005,0-.005,0-.153-.031-.3-.066-.453-.1a6.9,6.9,0,0,1-2.629-1.21c-.065-.052-.122-.1-.182-.155a4.126,4.126,0,0,1-.981-1.241c-.061-.123-.121-.247-.172-.371a3.536,3.536,0,0,1-.216-.75c-.014-.069-.031-.14-.04-.213-.013-.115-.026-.224-.032-.339a5.342,5.342,0,0,1,0-.818l-1.875.818-2.1.917a.085.085,0,0,0,0,.053,7.249,7.249,0,0,0-.043,1.186" transform="translate(-649.014 -169.353)" fill="#3386b7"/>
        <path id="Path_21797" data-name="Path 21797" d="M774.765,203.51a5.1,5.1,0,0,0,.941,1.265,8,8,0,0,0,4.046,1.953c5.616,1.2,14.736-.734,23.92-5.516,7.322-3.815,13.134-8.635,16.328-13.117a15.184,15.184,0,0,0,2.464-4.948,6.47,6.47,0,0,0-.009-3.525,5.125,5.125,0,0,0-.324-.779c-2.889-5.543-15.83-4.512-28.911,2.3-11.114,5.794-18.749,13.9-19.02,19.6a.086.086,0,0,0,0,.053,5.319,5.319,0,0,0,.568,2.716m3.694-2.387a3.522,3.522,0,0,1-.216-.75c-.015-.069-.031-.14-.041-.213-.013-.115-.026-.224-.032-.339a5.29,5.29,0,0,1,0-.818v0c.365-4.754,6.718-11.437,15.906-16.22,10.943-5.7,21.77-6.563,24.188-1.928a2.028,2.028,0,0,1,.153.342c.019.055.046.108.06.163a4.11,4.11,0,0,1,.166.57,4.863,4.863,0,0,1,.089.775c.006.179.008.368,0,.557-.01.173-.029.337-.055.516a7.283,7.283,0,0,1-.3,1.265,13.619,13.619,0,0,1-1.914,3.594c-.224.308-.462.621-.713.936l-.005.006c-.189.232-.386.47-.592.705-.069.079-.141.157-.21.237a33.561,33.561,0,0,1-4.013,3.792c-.218.176-.438.352-.66.525-.337.261-.681.52-1.033.778q-1.588,1.157-3.376,2.25c-.265.16-.531.319-.8.479-.726.416-1.473.829-2.235,1.227a49.487,49.487,0,0,1-4.525,2.085c-.828.342-1.649.646-2.455.918q-1.653.571-3.232.96c-.553.14-1.094.265-1.627.373-.428.09-.847.166-1.262.231a22.865,22.865,0,0,1-4.825.316c-.268-.015-.529-.036-.784-.061s-.511-.061-.757-.1c-.159-.024-.316-.055-.471-.087,0,0,0,0,0,0-.153-.031-.3-.066-.453-.1a6.932,6.932,0,0,1-2.629-1.217c-.06-.047-.123-.1-.182-.15a4.127,4.127,0,0,1-.981-1.241,3.993,3.993,0,0,1-.172-.366" transform="translate(-649.251 -146.991)" fill="#5cb0e2"/>
        <path id="Path_21798" data-name="Path 21798" d="M502.219,395l43.346-29.733-1.648-2.54L499.1,390.2A2.867,2.867,0,1,0,502.219,395" transform="translate(-417.406 -304.195)" fill="#43b0ef"/>
        <path id="Path_21801" data-name="Path 21801" d="M774.765,203.51a5.1,5.1,0,0,0,.941,1.265,7.6,7.6,0,0,0,3.439,1.812c.2.052.4.1.607.14,5.616,1.2,14.736-.734,23.92-5.516,7.322-3.815,13.134-8.635,16.328-13.117q.239-.334.46-.668a14.285,14.285,0,0,0,2-4.28,6.475,6.475,0,0,0-.01-3.525,5.124,5.124,0,0,0-.324-.78c-2.889-5.543-15.829-4.512-28.911,2.3-11.114,5.794-18.749,13.9-19.02,19.6a.086.086,0,0,0,0,.053,5.319,5.319,0,0,0,.568,2.716m3.4-3.689a5.275,5.275,0,0,1,0-.818v0c.365-4.754,6.718-11.437,15.906-16.22,10.943-5.7,21.77-6.563,24.188-1.928a2.037,2.037,0,0,1,.153.342c.019.055.045.108.059.163a4.148,4.148,0,0,1,.166.57,4.862,4.862,0,0,1,.089.775c.006.179.008.368,0,.557-.01.173-.029.337-.055.516a7.3,7.3,0,0,1-.3,1.265,13.618,13.618,0,0,1-1.914,3.594c-.224.308-.462.621-.713.936l-.005.006c-.189.232-.386.47-.593.705-.069.079-.14.156-.209.237a33.519,33.519,0,0,1-4.014,3.792c-.218.176-.437.352-.66.525-.337.261-.681.52-1.033.778q-1.588,1.157-3.376,2.25c-.264.16-.531.32-.8.479-.726.416-1.474.829-2.235,1.226a49.508,49.508,0,0,1-4.525,2.085c-.828.342-1.649.646-2.455.918q-1.653.571-3.232.96c-.553.14-1.094.265-1.627.373-.427.09-.847.166-1.262.231a22.862,22.862,0,0,1-4.825.316c-.268-.014-.53-.035-.784-.061s-.512-.061-.757-.1c-.16-.024-.316-.055-.471-.087,0,0,0,0,0,0-.154-.031-.305-.066-.454-.1a6.933,6.933,0,0,1-2.629-1.217c-.06-.047-.123-.1-.182-.15a4.125,4.125,0,0,1-.981-1.241c-.061-.123-.121-.247-.173-.371a3.541,3.541,0,0,1-.216-.75c-.014-.069-.031-.14-.04-.213-.011-.11-.024-.218-.032-.334" transform="translate(-649.251 -146.989)" fill="#43b0ef"/>
        <path id="Path_21802" data-name="Path 21802" d="M800.638,234.632c.051.123.11.249.173.371a4.148,4.148,0,0,0,.981,1.241l.182.15a6.935,6.935,0,0,0,2.629,1.217c.147.035.3.073.453.1,0,0,0,0,0,0,.153.031.31.061.471.087.245.037.5.073.757.1s.516.047.784.061a22.859,22.859,0,0,0,4.825-.316c.415-.065.836-.14,1.262-.231.534-.108,1.075-.231,1.627-.373q1.576-.392,3.232-.96c.805-.273,1.627-.576,2.455-.918,1.491-.594,3.005-1.3,4.525-2.085.762-.4,1.509-.812,2.235-1.226.272-.16.539-.32.8-.479q1.789-1.092,3.376-2.25.528-.385,1.033-.778c.223-.173.442-.349.66-.525a33.742,33.742,0,0,0,4.014-3.792c.069-.081.14-.156.209-.237.205-.237.4-.473.593-.705l0-.006c.252-.315.488-.629.713-.936a13.564,13.564,0,0,0,1.914-3.594,7.365,7.365,0,0,0,.3-1.265c.026-.179.045-.344.055-.516.009-.189.008-.378,0-.557-7.535-2.132-15.043-.779-24.237,4.015a47.741,47.741,0,0,0-16.034,14.4" transform="translate(-671.432 -180.499)" fill="#d5dff0"/>
      </g>
      <g id="Group_32652" data-name="Group 32652" transform="translate(-9757.453 -13819.707)">
        <g id="Group_32522" data-name="Group 32522" transform="translate(0 0)">
          <g id="Group_32384" data-name="Group 32384" transform="translate(1.223 1.285)" clip-path="url(#clip-path)">
            <rect id="Rectangle_13252" data-name="Rectangle 13252" width="65.717" height="74.768" transform="translate(0 0)" fill="#00ae8d"/>
          </g>
          <path id="Path_21575" data-name="Path 21575" d="M283.151,3.233l31.634,11.152S314.42,62.544,283.151,75.5h-.011a.315.315,0,0,0-.086-.043c-31.182-13-31.537-61.07-31.537-61.07l31.537-11.12ZM283.172.66l-.792.265-.1.033L250.708,12.09l-1.638.578.013,1.735a106.44,106.44,0,0,0,4.173,26.326c5.407,18.508,15.331,31.266,28.7,36.905l.449.3h1.216l.458-.185c13.49-5.589,23.5-18.375,28.948-36.978A106.515,106.515,0,0,0,317.219,14.4l.013-1.736-1.638-.578L283.961.937Z" transform="translate(-249.07 -0.66)" fill="#68d2c0"/>
          <g id="Group_32386" data-name="Group 32386" transform="translate(2.446 2.605)" clip-path="url(#clip-path-2)" style="mix-blend-mode: soft-light;isolation: isolate">
            <path id="Path_21577" data-name="Path 21577" d="M282.618,2.8V74.99c-31.182-13-31.537-61.069-31.537-61.069Z" transform="translate(-251.081 -2.801)" fill="#68d2c0"/>
          </g>
        </g>
        <path id="Path_21803" data-name="Path 21803" d="M12.077,8.914h0l6.029,14.7H6.048Zm0-8.913L0,27.425H24.155Z" transform="translate(22.004 22.199)" fill="#fff"/>
      </g>
    </g>
  </g>
</svg>
