<svg xmlns="http://www.w3.org/2000/svg" xmlns:xlink="http://www.w3.org/1999/xlink" width="803.943" height="253" viewBox="0 0 803.943 253">
  <defs>
    <clipPath id="clip-path">
      <rect id="Rectangle_13215" data-name="Rectangle 13215" width="1.799" height="19.943" fill="none"/>
    </clipPath>
    <clipPath id="clip-path-2">
      <rect id="Rectangle_13206" data-name="Rectangle 13206" width="48.668" height="48.67" fill="#00ae8d"/>
    </clipPath>
    <clipPath id="clip-path-3">
      <rect id="Rectangle_13206-2" data-name="Rectangle 13206" width="36.64" height="36.642" fill="#68d2c0"/>
    </clipPath>
    <clipPath id="clip-path-4">
      <rect id="Rectangle_13204" data-name="Rectangle 13204" width="80.669" height="80.672" fill="#68d2c0"/>
    </clipPath>
  </defs>
  <g id="Group_32728" data-name="Group 32728" transform="translate(0.538)">
    <rect id="Rectangle_12169" data-name="Rectangle 12169" width="800" height="253" fill="#D8DDE3"/>
    <path id="Path_17974" data-name="Path 17974" d="M4835.669,3900.215s106.368,99.729,208.021,59.906c97.892-38.35,139.732-85.855,219.441-64.756s127.582,82.59,200.055,81.273c80.75-1.466,173.446-59.583,175.048-56.424" transform="translate(-4835.5 -3750.215)" fill="none" stroke="#707070" stroke-linecap="round" stroke-width="1" stroke-dasharray="2 4"/>
    <path id="Path_21291" data-name="Path 21291" d="M231.856,1373.462a14.6,14.6,0,0,1,.77-3.167c.183-.506.393-1.012.634-1.515a23,23,0,0,1,5.044-6.717c.168-.16.336-.315.5-.466-.67-2.994-1.354-5.876-1.977-8.422-1.366-5.582-2.443-9.563-2.46-9.629l1.574-.426c.017.063.968,3.583,2.219,8.648.634,2.563,1.343,5.523,2.045,8.631a31.323,31.323,0,0,1,3.056-2.183c.323-.2.518-.312.546-.326l.8,1.423c-.013.007-.183.1-.475.286a30.483,30.483,0,0,0-3.522,2.594q.35,1.582.688,3.186c.978,4.639,1.671,8.421,2.135,11.5,1.593,10.545.546,12.941-.691,13.682a1.782,1.782,0,0,1-.928.258,4.189,4.189,0,0,1-2.655-1.409c-4.343-4.108-6.79-8.308-7.305-12.531a13.925,13.925,0,0,1,0-3.418m7.422,13.778c.321.328.655.659,1,.987.115.109.223.2.325.289,0,0,0,0,0,0,.768.653,1.182.716,1.3.645.195-.116,1.134-1.035.468-7.67q-.206-2.062-.6-4.612c-.485-3.178-1.176-6.912-2.072-11.161q-.241-1.137-.487-2.265a21.283,21.283,0,0,0-4.505,6.056,13.835,13.835,0,0,0-.628,1.536,12.944,12.944,0,0,0-.611,2.618,12.17,12.17,0,0,0,.029,3.216c.479,3.446,2.412,6.916,5.776,10.36" transform="translate(207.316 -1159.693)" fill="#00ae8d"/>
    <path id="Path_21292" data-name="Path 21292" d="M256.447,1494.59c1.856-5.693,1.7-10.511-.453-14.323a14.75,14.75,0,0,0-8.837-6.638l-.365,1.589.182-.794-.184.794a13.324,13.324,0,0,1,7.793,5.869c1.913,3.394,2.018,7.767.312,13Z" transform="translate(191.318 -1265.276)" fill="#00ae8d"/>
    <path id="Path_21293" data-name="Path 21293" d="M319.579,1418.917l-.65-1.823a.627.627,0,0,1,.075-.568c.857-1.229,4.065-6.657-3.454-9.876a.629.629,0,0,0-.842.787l1.686,4.733a.628.628,0,0,1-.551.838l-.837.053a.628.628,0,0,1-.632-.416l-2.385-6.7a.626.626,0,0,0-.464-.4,21.706,21.706,0,0,0-7.622-.292.629.629,0,0,0-.368,1.013l3.907,4.818a.628.628,0,0,1-.885.882l-7.184-5.878a.631.631,0,0,0-.525-.129c-1.663.342-9.476,2.4-3.735,10.055a.63.63,0,0,0,.618.243l6.75-1.241a.628.628,0,0,1,.711.425l.019.059a.628.628,0,0,1-.423.8l-5.7,1.652a.627.627,0,0,0-.355.941,9.169,9.169,0,0,0,7.916,4.381.622.622,0,0,0,.372-.136l6.681-5.281a.628.628,0,0,1,.737-.031l.185.123a.628.628,0,0,1,.081.983L308,1423.312a.628.628,0,0,0,.242,1.06c1.535.469,4.889.632,9.457-4.05a.634.634,0,0,1,.238-.154l1.263-.449a.628.628,0,0,0,.381-.8" transform="translate(119.801 -1209.768)" fill="#00ae8d"/>
    <path id="Path_21294" data-name="Path 21294" d="M245.067,1211.89l.094-2.486a.84.84,0,0,1,.512-.744c3.208-1.356,20.507-9.6,3.653-23.446a.845.845,0,0,0-1.366.493l-2.238,11.763a.843.843,0,0,1-.986.67l-.765-.146a.843.843,0,0,1-.671-.986l2.79-14.665a.841.841,0,0,0-.2-.718,35.781,35.781,0,0,0-15.462-9.6.845.845,0,0,0-1.078,1l2.943,12.642a.843.843,0,0,1-1.59.537l-6.881-15.273a.84.84,0,0,0-.507-.456c-2.572-.832-18.17-5.078-18.083,14.336a.847.847,0,0,0,.612.813l13.515,3.867a.842.842,0,0,1,.569.546l.163.494a.843.843,0,0,1-.933,1.1l-12.394-1.965a.842.842,0,0,0-.975.811c-.058,2.341.5,8.538,7.279,13.542a.85.85,0,0,0,.511.164l18.608-.217a.844.844,0,0,1,.831.651l.133.566a.844.844,0,0,1-.762,1.034l-14.208.989a.843.843,0,0,0-.633,1.324c1.766,2.512,7.235,7.724,20.966,4.439a.821.821,0,0,1,.156-.022l5.591-.247a.843.843,0,0,0,.805-.81" transform="translate(200.393 -1019.239)" fill="#00ae8d"/>
    <path id="Path_21295" data-name="Path 21295" d="M79.833,1341.278l.451-2.337a.768.768,0,0,0-.2-.675c-1.27-1.336-6.177-7.338,2.364-12.647a.773.773,0,0,1,1.169.8l-1.17,6.067a.772.772,0,0,0,.826.915l1.028-.09a.772.772,0,0,0,.691-.623l1.655-8.584a.77.77,0,0,1,.489-.578,26.683,26.683,0,0,1,9.211-1.77.773.773,0,0,1,.636,1.163l-3.854,6.582a.772.772,0,0,0,1.24.907l7.641-8.479a.772.772,0,0,1,.615-.254c2.085.106,11.964,1.154,6.407,11.529a.775.775,0,0,1-.706.41l-8.435-.255a.772.772,0,0,0-.786.648l-.012.075a.772.772,0,0,0,.662.89l7.232.95A.771.771,0,0,1,107.6,1337a11.275,11.275,0,0,1-8.809,6.8.769.769,0,0,1-.477-.1l-9.1-5.179a.773.773,0,0,0-.9.1l-.2.183a.772.772,0,0,0,.084,1.21l6.538,4.458a.772.772,0,0,1-.1,1.334c-1.779.855-5.825,1.676-12.248-3.167a.774.774,0,0,0-.318-.143l-1.618-.312a.773.773,0,0,1-.612-.9" transform="translate(370.669 -1142.341)" fill="#00ae8d"/>
    <path id="Path_21296" data-name="Path 21296" d="M174.6,1522.592l1.356,10.1a12.2,12.2,0,0,0,12.093,10.579h7.846a12.193,12.193,0,0,0,12.091-10.579l1.358-10.1a2.387,2.387,0,0,0-2.366-2.7H176.964a2.384,2.384,0,0,0-2.364,2.7" transform="translate(253.479 -1302.701)" fill="#ff8a54"/>
    <g id="Group_32341" data-name="Group 32341" transform="translate(477.481 53.589)">
      <path id="Path_21298" data-name="Path 21298" d="M612.6,121.01H541.41a13.448,13.448,0,0,0-13.448,13.448V293.482a13.449,13.449,0,0,0,13.448,13.448H612.6a13.448,13.448,0,0,0,13.448-13.448V134.458A13.448,13.448,0,0,0,612.6,121.01" transform="translate(-527.27 -121.01)" fill="#43b0ef"/>
      <path id="Path_21299" data-name="Path 21299" d="M523.545,293.361h-.272a.94.94,0,0,0-.94.94v8.974a.94.94,0,0,0,.94.94h.272Z" transform="translate(-522.333 -272.192)" fill="#43b0ef"/>
      <path id="Path_21300" data-name="Path 21300" d="M523.545,561.9h-.066a1.146,1.146,0,0,0-1.146,1.146v13.831a1.146,1.146,0,0,0,1.146,1.146h.066Z" transform="translate(-522.333 -507.749)" fill="#43b0ef"/>
      <path id="Path_21301" data-name="Path 21301" d="M523.545,702.2h-.066a1.146,1.146,0,0,0-1.146,1.146v13.832a1.146,1.146,0,0,0,1.146,1.146h.066Z" transform="translate(-522.333 -630.817)" fill="#43b0ef"/>
      <path id="Rectangle_13209" data-name="Rectangle 13209" d="M46.9,0h0a46.9,46.9,0,0,1,46.9,46.9v87.83a46.9,46.9,0,0,1-46.9,46.9h0A46.9,46.9,0,0,1,0,134.733V46.9A46.9,46.9,0,0,1,46.9,0Z" transform="translate(2.775 2.142)" fill="#3ca2dc"/>
      <path id="Path_21302" data-name="Path 21302" d="M568.228,329.225V170.2a8.444,8.444,0,0,1,8.444-8.444h71.194a8.444,8.444,0,0,1,8.444,8.444V329.225a8.443,8.443,0,0,1-8.444,8.444H576.671a8.443,8.443,0,0,1-8.443-8.444" transform="translate(-562.591 -156.752)" fill="#fff"/>
      <g id="Group_32337" data-name="Group 32337" transform="translate(120.353 68.492)" style="mix-blend-mode: multiply;isolation: isolate">
        <g id="Group_32336" data-name="Group 32336">
          <g id="Group_32335" data-name="Group 32335" clip-path="url(#clip-path)">
            <path id="Path_21347" data-name="Path 21347" d="M1503.437,698.591a46.8,46.8,0,0,1-1.06-6.244,21.18,21.18,0,0,1-.132-3.54,10.781,10.781,0,0,1,.828-2.814,12.348,12.348,0,0,0,.542-4.822c-.028-.812-.12-1.7-.178-2.513l.052-.011c.14.728.33,1.767.4,2.492a11.477,11.477,0,0,1-.345,5.009,14.631,14.631,0,0,0-.74,2.4,9.058,9.058,0,0,0-.074,1.25c.007,1.25.1,2.529.208,3.773q.224,2.512.548,5.014Z" transform="translate(-1502.214 -678.648)" fill="#e7e7e7"/>
          </g>
        </g>
      </g>
    </g>
    <path id="Path_22040" data-name="Path 22040" d="M626.739,945.879c-.5-.021-.993-.041-1.5-.042v1.458c.479,0,.942.019,1.416.04Zm-5.267.233c-.492.072-.99.156-1.475.262l.3,1.425c.464-.1.926-.175,1.4-.245Zm-5.78,1.558c-.46.176-.931.391-1.378.6l.625,1.317c.422-.195.862-.4,1.3-.563Zm-5.262,2.866c-.411.292-.8.592-1.2.9l.915,1.136c.365-.295.747-.578,1.13-.851Zm-4.456,4c-.33.375-.65.762-.959,1.155l1.153.894c.281-.368.6-.74.9-1.087Zm-3.412,4.922c-.236.442-.453.887-.665,1.341l1.325.61c.2-.429.407-.851.63-1.27Zm-2.177,5.581c-.125.492-.225.971-.334,1.464l1.432.273c.1-.463.2-.917.316-1.376Zm-.818,5.929c-.006.5,0,1,.013,1.5l1.458-.056c-.018-.473-.018-.942-.011-1.415Zm.57,5.963c.1.492.225.972.357,1.455l1.4-.389c-.123-.457-.238-.912-.337-1.375Zm1.937,5.669c.217.452.447.893.689,1.333l1.274-.71c-.233-.4-.448-.838-.65-1.257Zm3.2,5.063c.318.391.643.76.978,1.138l1.073-.988c-.316-.326-.637-.721-.923-1.073Zm4.282,4.183c.4.308.8.6,1.216.885l.816-1.208c-.39-.266-.771-.545-1.143-.832Zm5.136,3.085c.458.206.917.394,1.384.576l.518-1.363c-.441-.173-.875-.35-1.308-.545Zm5.714,1.8c.494.093.98.169,1.479.237l.187-1.447c-.471-.061-.936-.136-1.4-.223Zm5.969.429c.482-.016,1.025-.051,1.5-.11l-.155-1.45c-.466.046-.942.086-1.41.1Zm5.916-.958c.481-.137.957-.285,1.429-.453l-.484-1.375q-.67.235-1.352.428Zm5.527-2.307c.433-.241.87-.5,1.286-.774l-.792-1.223c-.4.253-.8.5-1.213.729Zm4.841-3.527c.369-.338.727-.69,1.075-1.051l-1.057-1.005c-.316.338-.67.675-1.01.99Zm3.9-4.545c.277-.42.544-.836.8-1.267l-1.258-.738c-.242.407-.493.8-.755,1.2ZM649.3,980.5c.174-.468.34-.944.485-1.422l-1.4-.423c-.14.451-.292.894-.457,1.337Zm1.424-5.818c.061-.5.107-.993.141-1.493l-1.455-.094c-.033.472-.076.94-.132,1.411Zm.042-5.99c-.054-.5-.121-.993-.206-1.486l-1.437.247c.08.464.142.936.193,1.4Zm-1.343-5.835c-.151-.458-.354-.955-.547-1.4l-1.34.575c.182.418.372.886.516,1.315Zm-2.666-5.367c-.271-.419-.56-.831-.858-1.231l-1.167.872c.278.383.551.766.807,1.163Zm-3.833-4.6c-.369-.348-.745-.664-1.12-1l-.934,1.117c.361.308.709.619,1.054.945Zm-4.792-3.593c-.432-.25-.872-.487-1.317-.715l-.658,1.3c.423.217.835.439,1.246.678Zm-5.5-2.383c-.487-.146-.964-.261-1.451-.39l-.329,1.421c.459.109.911.232,1.365.365Z" transform="translate(-100.47 -782.669)" fill="#fff" fill-rule="evenodd"/>
    <g id="Group_32315" data-name="Group 32315" transform="translate(521.738 156.368)">
      <g id="Group_32314" data-name="Group 32314" clip-path="url(#clip-path-2)">
        <path id="Path_21264" data-name="Path 21264" d="M1408.306,639.074l4.347-.009a1.307,1.307,0,0,1,1.217.824l1.851,4.656a1.307,1.307,0,0,1-1.21,1.79l-8.03.027a1.307,1.307,0,0,1-1.221-1.784l1.832-4.674a1.307,1.307,0,0,1,1.214-.83" transform="translate(-1385.64 -639.064)" fill="#00ae8d"/>
        <path id="Path_21265" data-name="Path 21265" d="M1549.178,694.066l3.08,3.067a1.307,1.307,0,0,1,.278,1.444l-1.983,4.6a1.307,1.307,0,0,1-2.122.41l-5.7-5.659a1.307,1.307,0,0,1,.4-2.125l4.6-2.01a1.307,1.307,0,0,1,1.445.272" transform="translate(-1508.823 -688.112)" fill="#00ae8d"/>
        <path id="Path_21266" data-name="Path 21266" d="M1626.538,833.6l.009,4.347a1.307,1.307,0,0,1-.824,1.218l-4.656,1.851a1.307,1.307,0,0,1-1.79-1.21l-.027-8.03a1.307,1.307,0,0,1,1.784-1.221l4.674,1.832a1.306,1.306,0,0,1,.83,1.214" transform="translate(-1577.878 -810.934)" fill="#00ae8d"/>
        <path id="Path_21267" data-name="Path 21267" d="M1545.266,974.472l-3.067,3.08a1.307,1.307,0,0,1-1.444.278l-4.6-1.984a1.307,1.307,0,0,1-.41-2.122l5.659-5.7a1.307,1.307,0,0,1,2.125.4l2.01,4.6a1.307,1.307,0,0,1-.272,1.446" transform="translate(-1502.551 -934.117)" fill="#00ae8d"/>
        <path id="Path_21268" data-name="Path 21268" d="M1403.429,1051.83l-6.125.013-2.179-5.482a1.307,1.307,0,0,1,1.21-1.79l8.029-.027a1.307,1.307,0,0,1,1.221,1.784Z" transform="translate(-1376.536 -1003.172)" fill="#00ae8d"/>
        <path id="Path_21269" data-name="Path 21269" d="M1264.758,970.561l-3.08-3.067a1.307,1.307,0,0,1-.277-1.444l1.983-4.6a1.307,1.307,0,0,1,2.121-.41l5.7,5.659a1.307,1.307,0,0,1-.4,2.125l-4.6,2.01a1.307,1.307,0,0,1-1.446-.272" transform="translate(-1256.445 -927.846)" fill="#00ae8d"/>
        <path id="Path_21270" data-name="Path 21270" d="M1213.78,827.833l-.009-4.347a1.306,1.306,0,0,1,.824-1.217l4.656-1.851a1.307,1.307,0,0,1,1.79,1.21l.027,8.029a1.307,1.307,0,0,1-1.784,1.221l-4.674-1.832a1.307,1.307,0,0,1-.83-1.214" transform="translate(-1213.771 -801.83)" fill="#00ae8d"/>
        <path id="Path_21271" data-name="Path 21271" d="M1268.772,690.052l3.067-3.08a1.307,1.307,0,0,1,1.444-.278l4.6,1.983a1.307,1.307,0,0,1,.41,2.121l-5.659,5.7a1.307,1.307,0,0,1-2.125-.4l-2.01-4.6a1.307,1.307,0,0,1,.271-1.446" transform="translate(-1262.818 -681.738)" fill="#00ae8d"/>
        <path id="Path_21272" data-name="Path 21272" d="M1255.393,702.059a20.126,20.126,0,0,0,.56,3.576c.068.27.141.538.22.8a20.024,20.024,0,0,0,3.029,6.126,20.189,20.189,0,0,0,5.928,5.413c.238.142.478.279.723.412a19.948,19.948,0,0,0,6.472,2.192,20.222,20.222,0,0,0,8.02-.365c.27-.068.538-.142.8-.22a19.725,19.725,0,0,0,3.492-1.4h0a19.837,19.837,0,0,0,2.633-1.626,20.165,20.165,0,0,0,5.413-5.93c.142-.237.279-.478.412-.721a20.151,20.151,0,0,0,1.829-14.491c-.068-.27-.142-.54-.219-.8a19.847,19.847,0,0,0-1.4-3.491,19.641,19.641,0,0,0-1.627-2.635,20.167,20.167,0,0,0-5.929-5.411q-.356-.215-.722-.413a20.029,20.029,0,0,0-6.473-2.192,20.211,20.211,0,0,0-8.018.365c-.27.068-.538.142-.8.22a19.979,19.979,0,0,0-6.128,3.028,20.2,20.2,0,0,0-5.411,5.929q-.212.357-.412.723a20.015,20.015,0,0,0-2.389,10.916m19.229-13.811a12.642,12.642,0,0,1,13.3,11.646,12.509,12.509,0,0,1-11.661,13.318,12.642,12.642,0,0,1-13.3-11.646,12.507,12.507,0,0,1,11.661-13.318" transform="translate(-1251.106 -676.396)" fill="#00ae8d"/>
      </g>
    </g>
    <g id="Group_32717" data-name="Group 32717" transform="translate(489.435 185.793)">
      <g id="Group_32314-2" data-name="Group 32314" clip-path="url(#clip-path-3)">
        <path id="Path_21264-2" data-name="Path 21264" d="M1407.531,639.072l3.272-.007a.984.984,0,0,1,.916.621l1.394,3.506a.984.984,0,0,1-.911,1.348l-6.045.02a.984.984,0,0,1-.919-1.343l1.379-3.519a.985.985,0,0,1,.914-.625" transform="translate(-1390.466 -639.065)" fill="#68d2c0"/>
        <path id="Path_21265-2" data-name="Path 21265" d="M1547.49,693.972l2.319,2.309a.984.984,0,0,1,.209,1.087l-1.493,3.464a.984.984,0,0,1-1.6.309l-4.288-4.26a.984.984,0,0,1,.3-1.6l3.464-1.513a.984.984,0,0,1,1.088.2" transform="translate(-1517.109 -689.489)" fill="#68d2c0"/>
        <path id="Path_21266-2" data-name="Path 21266" d="M1624.737,832.824l.007,3.272a.984.984,0,0,1-.62.917l-3.506,1.393a.984.984,0,0,1-1.347-.911l-.02-6.045a.984.984,0,0,1,1.343-.919l3.519,1.379a.984.984,0,0,1,.625.914" transform="translate(-1588.103 -815.76)" fill="#68d2c0"/>
        <path id="Path_21267-2" data-name="Path 21267" d="M1542.819,972.784l-2.309,2.319a.984.984,0,0,1-1.087.209l-3.464-1.493a.984.984,0,0,1-.308-1.6l4.26-4.289a.984.984,0,0,1,1.6.3l1.513,3.463a.984.984,0,0,1-.2,1.088" transform="translate(-1510.661 -942.402)" fill="#68d2c0"/>
        <path id="Path_21268-2" data-name="Path 21268" d="M1401.353,1050.029l-4.611.01-1.641-4.127a.984.984,0,0,1,.911-1.348l6.045-.02a.984.984,0,0,1,.919,1.343Z" transform="translate(-1381.107 -1013.397)" fill="#68d2c0"/>
        <path id="Path_21269-2" data-name="Path 21269" d="M1263.9,968.113l-2.319-2.309a.984.984,0,0,1-.209-1.087l1.493-3.464a.984.984,0,0,1,1.6-.309l4.289,4.26a.984.984,0,0,1-.3,1.6l-3.464,1.513a.983.983,0,0,1-1.088-.2" transform="translate(-1257.643 -935.955)" fill="#68d2c0"/>
        <path id="Path_21270-2" data-name="Path 21270" d="M1213.778,825.977l-.007-3.272a.984.984,0,0,1,.621-.916l3.506-1.394a.984.984,0,0,1,1.347.911l.02,6.045a.984.984,0,0,1-1.343.919l-3.519-1.379a.984.984,0,0,1-.625-.914" transform="translate(-1213.771 -806.401)" fill="#68d2c0"/>
        <path id="Path_21271-2" data-name="Path 21271" d="M1268.678,689.2l2.309-2.319a.984.984,0,0,1,1.087-.209l3.464,1.493a.984.984,0,0,1,.308,1.6l-4.26,4.289a.984.984,0,0,1-1.6-.3l-1.513-3.463a.984.984,0,0,1,.2-1.088" transform="translate(-1264.196 -682.937)" fill="#68d2c0"/>
        <path id="Path_21272-2" data-name="Path 21272" d="M1255.382,696.765a15.159,15.159,0,0,0,.422,2.693q.077.305.165.6a15.075,15.075,0,0,0,2.281,4.612,15.2,15.2,0,0,0,4.463,4.075q.269.16.544.31a15.016,15.016,0,0,0,4.873,1.651,15.225,15.225,0,0,0,6.038-.275c.2-.051.405-.107.6-.165a14.853,14.853,0,0,0,2.629-1.056h0a14.934,14.934,0,0,0,1.982-1.224,15.182,15.182,0,0,0,4.075-4.464c.107-.178.21-.36.31-.543a15.171,15.171,0,0,0,1.377-10.91c-.051-.2-.107-.406-.165-.606a14.945,14.945,0,0,0-1.056-2.628,14.786,14.786,0,0,0-1.225-1.984,15.185,15.185,0,0,0-4.464-4.074q-.268-.161-.544-.311a15.08,15.08,0,0,0-4.874-1.651,15.217,15.217,0,0,0-6.037.275c-.2.051-.405.107-.6.165a15.043,15.043,0,0,0-4.613,2.28A15.21,15.21,0,0,0,1257.49,688q-.16.269-.31.544a15.067,15.067,0,0,0-1.8,8.218m14.477-10.4a9.517,9.517,0,0,1,10.012,8.767,9.417,9.417,0,0,1-8.779,10.027,9.518,9.518,0,0,1-10.012-8.767,9.416,9.416,0,0,1,8.779-10.027" transform="translate(-1252.154 -677.444)" fill="#68d2c0"/>
      </g>
    </g>
    <g id="Group_32309" data-name="Group 32309" transform="matrix(0.995, -0.105, 0.105, 0.995, 486.799, 109.269)">
      <g id="Group_32308" data-name="Group 32308" transform="translate(-2.273 -26.715)" clip-path="url(#clip-path-4)">
        <path id="Path_21246" data-name="Path 21246" d="M558.488.014,551.283,0a2.167,2.167,0,0,0-2.018,1.366L546.2,9.083A2.167,2.167,0,0,0,548.2,12.05l13.309.044a2.166,2.166,0,0,0,2.024-2.957L560.5,1.39A2.167,2.167,0,0,0,558.488.014" transform="translate(-515.388 0.001)" fill="#68d2c0"/>
        <path id="Path_21247" data-name="Path 21247" d="M360.716,78.667l-5.105,5.084a2.166,2.166,0,0,0-.461,2.393l3.288,7.627a2.166,2.166,0,0,0,3.516.679l9.442-9.38a2.166,2.166,0,0,0-.66-3.522l-7.625-3.331a2.167,2.167,0,0,0-2.4.45" transform="translate(-346.936 -68.799)" fill="#68d2c0"/>
        <path id="Path_21248" data-name="Path 21248" d="M287.093,278.648l-.015,7.2a2.167,2.167,0,0,0,1.366,2.018l7.718,3.068a2.166,2.166,0,0,0,2.967-2.006l.044-13.309a2.166,2.166,0,0,0-2.957-2.024l-7.747,3.036a2.167,2.167,0,0,0-1.376,2.013" transform="translate(-287.078 -241.079)" fill="#68d2c0"/>
        <path id="Path_21249" data-name="Path 21249" d="M365.746,480.757l5.084,5.105a2.166,2.166,0,0,0,2.393.461l7.627-3.288a2.166,2.166,0,0,0,.679-3.516l-9.38-9.442a2.166,2.166,0,0,0-3.522.659l-3.331,7.625a2.167,2.167,0,0,0,.45,2.4" transform="translate(-355.878 -413.868)" fill="#68d2c0"/>
        <path id="Path_21250" data-name="Path 21250" d="M564.252,591.381l10.153.021,3.612-9.087a2.167,2.167,0,0,0-2.006-2.967L562.7,579.3a2.167,2.167,0,0,0-2.024,2.957Z" transform="translate(-528.158 -510.73)" fill="#68d2c0"/>
        <path id="Path_21251" data-name="Path 21251" d="M767.836,475.872l5.105-5.084a2.167,2.167,0,0,0,.461-2.393l-3.288-7.627a2.167,2.167,0,0,0-3.516-.679l-9.442,9.38a2.166,2.166,0,0,0,.66,3.522l7.625,3.331a2.167,2.167,0,0,0,2.4-.45" transform="translate(-700.947 -405.071)" fill="#68d2c0"/>
        <path id="Path_21252" data-name="Path 21252" d="M878.464,271.41l.015-7.2a2.167,2.167,0,0,0-1.366-2.018l-7.718-3.068a2.166,2.166,0,0,0-2.967,2.006l-.044,13.309a2.166,2.166,0,0,0,2.957,2.024l7.747-3.036a2.167,2.167,0,0,0,1.376-2.013" transform="translate(-797.81 -228.31)" fill="#68d2c0"/>
        <path id="Path_21253" data-name="Path 21253" d="M762.951,73.638l-5.084-5.105a2.166,2.166,0,0,0-2.393-.461l-7.627,3.288a2.166,2.166,0,0,0-.679,3.516l9.38,9.442a2.166,2.166,0,0,0,3.522-.659l3.331-7.625a2.166,2.166,0,0,0-.45-2.4" transform="translate(-692.15 -59.858)" fill="#68d2c0"/>
        <path id="Path_21254" data-name="Path 21254" d="M412.687,87.536a33.029,33.029,0,0,0-3.636-10.73q-.33-.607-.683-1.2a33.491,33.491,0,0,0-8.97-9.827,33.113,33.113,0,0,0-10.156-5.019c-.44-.129-.883-.252-1.331-.364a33.5,33.5,0,0,0-13.291-.605,33.187,33.187,0,0,0-10.729,3.634q-.607.33-1.2.685a33.435,33.435,0,0,0-9.827,8.97,32.557,32.557,0,0,0-2.7,4.369,32.9,32.9,0,0,0-2.324,5.786c-.129.439-.252.885-.364,1.333a33.611,33.611,0,0,0-.605,13.291,33.028,33.028,0,0,0,3.636,10.73c.22.4.448.8.683,1.2a33.421,33.421,0,0,0,8.972,9.829,32.85,32.85,0,0,0,4.364,2.695h0a32.691,32.691,0,0,0,5.788,2.324c.439.129.883.252,1.331.364a33.506,33.506,0,0,0,13.293.605,33.053,33.053,0,0,0,10.727-3.634q.608-.33,1.2-.683a33.467,33.467,0,0,0,9.827-8.972,33.195,33.195,0,0,0,5.021-10.154c.129-.44.252-.883.364-1.331a33.626,33.626,0,0,0,.605-13.293m-12.22,6.548a20.954,20.954,0,0,1-22.043,19.3A20.733,20.733,0,0,1,359.1,91.312a20.954,20.954,0,0,1,22.043-19.3,20.731,20.731,0,0,1,19.328,22.075" transform="translate(-339.446 -52.364)" fill="#68d2c0"/>
      </g>
    </g>
    <g id="Group_32718" data-name="Group 32718" transform="translate(565.072 109.684)">
      <path id="Path_21971" data-name="Path 21971" d="M1059.3,611.878c-.707.051-1.388-.787-1.584-1.038a8.963,8.963,0,0,1-1.424-2.7q.219-.626.46-1.582,4.082-2.773,1.116-4.1a5.294,5.294,0,0,0-1.485,2.066,1.217,1.217,0,0,1-1.073-.724,35.919,35.919,0,0,0,1.1-4.743c-1.342-1.994-4.479-2.278-8.633-1.741q-.289,1.659-.475,3.514c-.734.676-.639,3.185.037,6.076q-.507,2.466,3.045,2.692c.023.4-.013.853-.021,1.131-.006.252-.015.745-.278.822l-.439.109c.044,5.877,3.052,7.008,9.655.225" transform="translate(-1016.936 -591.417)" fill="#f9af79" fill-rule="evenodd"/>
      <path id="Path_21972" data-name="Path 21972" d="M1041.3,565.393c4.154-.538,7.292-.254,8.633,1.74a35.908,35.908,0,0,1-1.1,4.743,1.219,1.219,0,0,0,1.073.723,5.3,5.3,0,0,1,1.485-2.065q2.967,1.33-1.117,4.1-.239.955-.46,1.582a7.516,7.516,0,0,0,4.786-3.687c2.857-5.63-.329-8.008-2.034-8.876-.753-5.577-8.882-.755-11.02-4.158-4.474,2.553-1.506,5.844-.249,5.894" transform="translate(-1010.461 -559.499)" fill="#4d4d4d" fill-rule="evenodd"/>
      <path id="Path_21973" data-name="Path 21973" d="M1073.291,676.455a7,7,0,0,1-2.73.573,8.394,8.394,0,0,1-.019,1.12,4.3,4.3,0,0,0,2.749-1.694" transform="translate(-1037.117 -658.854)" fill="#ed7d57" fill-rule="evenodd"/>
      <path id="Path_21974" data-name="Path 21974" d="M1138.557,1393.231c2.58-.908,2.787-2.238,4.178-2.887s1.561-1.819.192-3.083c-1.011.808-2.266,1.8-2.93,1.275-.443-.351-1.948-.328-2.246.184-1.31,3.046-3.134,2.081-3.492,3.467-.042,1.846,3.116,1.461,4.3,1.044" transform="translate(-1091.244 -1262.688)" fill="#3d3d3d" fill-rule="evenodd"/>
      <path id="Path_21975" data-name="Path 21975" d="M1002.219,1384.378c4.544-.074,7.94-.128,9.509-.623,1.693-.535,1.343-1.567.37-3.219-4.282,1.969-3.142-.405-5.144-.1a12.724,12.724,0,0,1-6.253,2.278c-1.168.861-.693,1.629,1.518,1.667" transform="translate(-977.264 -1256.864)" fill="#3d3d3d" fill-rule="evenodd"/>
      <path id="Path_21976" data-name="Path 21976" d="M973.854,692.537a30.7,30.7,0,0,1,6.109-1.2q.49,7.474,7.8-.1c4.693.394,5.611.454,8.214,1.3,5.634,5.381,6.152,11.592,9.1,18.688a20.042,20.042,0,0,0-6.939,1.329q-.714-2.551-1.195-4.107.134,14.038.1,19.237c-10.783,4.272-19.665,2.809-23.292-.52q-.076-12.478-.207-19.756a23.733,23.733,0,0,1-3.588,3.535c-2.643-3.031-4.435-4.252-5.934-6.038a78.944,78.944,0,0,1,9.833-12.366" transform="translate(-946.627 -671.409)" fill="#ff8a54" fill-rule="evenodd"/>
      <path id="Path_21977" data-name="Path 21977" d="M853.934,733.657a74.182,74.182,0,0,1,11.9,5.834L866.839,738c.937.938,2.007,1.858,3.311,3.194a17.9,17.9,0,0,1-4.009,3.179q-5.9-.63-13.051-8.942a5.786,5.786,0,0,1-3.272-1.611,2.824,2.824,0,0,1,1.079-2.147q-2.963-1.931-2.359-2.763,4.642,2.87,5.4,4.747" transform="translate(-848.436 -703.415)" fill="#f9af79" fill-rule="evenodd"/>
      <path id="Path_21978" data-name="Path 21978" d="M1020.33,929.959c.213.81-.669,5.561-.815,8.04-1.433,8.849-.205,20.367.567,35.177,1.381,5.219,3.419,12.174,3.286,21.963a8.011,8.011,0,0,0,5.448.259c1.518-10.216.483-18.4-.889-22.175.878-5.84,2.189-12.377,4.1-21.806,2.151,10.275,5.028,17.9,6.273,22.876.247,5.546,1.369,13.034,1.956,22.46a10.053,10.053,0,0,0,4.75.467c2.405-8.664,2-18.092.983-28.283-1.084-12.251.7-26.085-1.086-30.882a35.426,35.426,0,0,1-1.279-7.576q-13.494,4.491-23.291-.52" transform="translate(-993.206 -874.207)" fill="#ff8a54" fill-rule="evenodd"/>
      <path id="Path_21979" data-name="Path 21979" d="M1023.6,778.123c.578.086,1.124.162,1.637.231q.042,6.191.022,9.276c-.509.227-1.647-6.713-1.659-9.507m-26.363-8.27a19.193,19.193,0,0,0,4.534-6.441,25.056,25.056,0,0,0-.193,4.155,23.187,23.187,0,0,1-3.407,3.322q-.484-.556-.934-1.036m25.913-8.049q1.049,3.376,2,6.589.026,2.713.046,5.1c-.462-.044-1-.073-1.645-.088q-.1-6.59-.405-11.6" transform="translate(-974.846 -731.359)" fill="#ef7b45" fill-rule="evenodd"/>
      <path id="Path_21980" data-name="Path 21980" d="M1003.086,783.317h-11.87a.825.825,0,0,0-.833.989l2.664,16.816a1.206,1.206,0,0,0,1.145.989h11.87a.825.825,0,0,0,.832-.989l-2.664-16.816a1.208,1.208,0,0,0-1.146-.989" transform="translate(-969.012 -749.633)" fill="#4d4d4d" fill-rule="evenodd"/>
      <path id="Path_21981" data-name="Path 21981" d="M1084.6,824.453a15.009,15.009,0,0,1,.307,6.511c-1.281,1.861-6.451.821-19.762-1.4a3.667,3.667,0,0,1-2.963.676c-1.392-.348-1.458-.711-3.02-2.183a2.559,2.559,0,0,1,.234-2.626c1.758,1.035,2.683,1.585,4.664,1.651q-.79-2.034-.239-2.628a3.923,3.923,0,0,1,1.32,2.444c10.5-.456,13.262-.4,14.659.338q-.227-.988-.4-1.737a18.53,18.53,0,0,1,5.2-1.041" transform="translate(-1027.248 -784.577)" fill="#f9af79" fill-rule="evenodd"/>
      <path id="Path_21982" data-name="Path 21982" d="M1052.781,1364.6a10.728,10.728,0,0,0-.045,2.4c-3.583,1.557-2.975-.24-4.407-.285a6.283,6.283,0,0,0,.7-2.426,7.274,7.274,0,0,0,3.751.313m16.7,1.642a6.777,6.777,0,0,0,.189,1.71c-.958.758-2.059,1.548-2.668,1.067a2.309,2.309,0,0,0-1.606-.175,17.538,17.538,0,0,0,.551-2.942,9.345,9.345,0,0,0,3.534.339" transform="translate(-1018.247 -1243.175)" fill="#f9af79" fill-rule="evenodd"/>
      <path id="Path_21983" data-name="Path 21983" d="M1019.515,983.382q9.49,8.848,25.385.056c1.79,4.8,0,18.631,1.086,30.882,1.018,10.19,1.422,19.618-.983,28.283-.2.023-.383.044-.564.058a9.326,9.326,0,0,1-3.534-.34c-.209-.056-.425-.118-.652-.186-.587-9.426-1.709-16.913-1.955-22.46-1.245-4.976-4.123-12.6-6.273-22.876-1.909,9.429-3.22,15.966-4.1,21.806,1.372,3.777,2.408,11.959.889,22.175-.4.1-.748.18-1.075.239a7.274,7.274,0,0,1-3.752-.313c-.2-.057-.4-.117-.621-.185.133-9.789-1.905-16.744-3.286-21.963-.772-14.81-2-26.328-.567-35.177" transform="translate(-993.21 -919.59)" fill="#4d4d4d" fill-rule="evenodd"/>
    </g>
    <g id="_034-insurance_policy" data-name="034-insurance policy" transform="translate(498.327 89.127)">
      <path id="Path_22075" data-name="Path 22075" d="M408.016,120.962l.822,2.877a.411.411,0,0,0,.79,0l.822-2.877a.408.408,0,0,0,.015-.113h0V105.714a1.235,1.235,0,0,1,.822,1.162v4.109a.411.411,0,0,0,.043.184l.411.822a.411.411,0,1,0,.735-.368l-.368-.735v-4.012a2.057,2.057,0,0,0-2.055-2.055h-.411v-.411a.411.411,0,0,0-.822,0v.411h-.411a.411.411,0,0,0-.411.411v15.616h0A.409.409,0,0,0,408.016,120.962Zm1.217,1.268-.277-.97h.554Zm-.411-16.586h.822v.822h-.822Zm0,1.644h.822v13.15h-.822Z" transform="translate(-369.244 -80.717)" fill="#00ae8d"/>
      <path id="Path_22076" data-name="Path 22076" d="M16.467,41.591h1.867v1.371a.462.462,0,0,0,.467.457H37.467a.462.462,0,0,0,.467-.457V18.285a.462.462,0,0,0-.467-.457H35.6V16.457A.462.462,0,0,0,35.134,16H16.467a.462.462,0,0,0-.467.457V41.134A.462.462,0,0,0,16.467,41.591ZM37,18.742V42.505H19.267V18.742ZM16.933,16.914H34.667v.914H18.8a.462.462,0,0,0-.467.457V40.677h-1.4Z" transform="translate(0 0)" fill="#00ae8d"/>
      <path id="Path_22077" data-name="Path 22077" d="M98.255,85.7a.411.411,0,0,0,.425,0,4.987,4.987,0,0,0,2.251-4.049.411.411,0,0,0-.2-.352l-2.055-1.233a.411.411,0,0,0-.423,0L96.2,81.291a.411.411,0,0,0-.2.35A4.936,4.936,0,0,0,98.255,85.7Zm.211-4.805,1.637.982a4.133,4.133,0,0,1-1.646,2.975,4.154,4.154,0,0,1-1.621-2.979Z" transform="translate(-75.345 -60.712)" fill="#00ae8d"/>
      <path id="Path_22078" data-name="Path 22078" d="M208.411,120.822h5.753a.411.411,0,0,0,0-.822h-5.753a.411.411,0,0,0,0,.822Z" transform="translate(-180.709 -98.039)" fill="#00ae8d"/>
      <path id="Path_22079" data-name="Path 22079" d="M208.411,152.822h5.753a.411.411,0,0,0,0-.822h-5.753a.411.411,0,0,0,0,.822Z" transform="translate(-180.709 -128.204)" fill="#00ae8d"/>
      <path id="Path_22080" data-name="Path 22080" d="M88.411,216.822h13.15a.411.411,0,0,0,0-.822H88.411a.411.411,0,1,0,0,.822Z" transform="translate(-68.301 -188.536)" fill="#00ae8d"/>
      <path id="Path_22081" data-name="Path 22081" d="M88.411,248.822h13.15a.411.411,0,0,0,0-.822H88.411a.411.411,0,1,0,0,.822Z" transform="translate(-68.301 -218.701)" fill="#00ae8d"/>
      <path id="Path_22082" data-name="Path 22082" d="M88.411,280.822h13.15a.411.411,0,0,0,0-.822H88.411a.411.411,0,1,0,0,.822Z" transform="translate(-68.301 -248.867)" fill="#00ae8d"/>
      <path id="Path_22083" data-name="Path 22083" d="M88.411,312.822h13.15a.411.411,0,0,0,0-.822H88.411a.411.411,0,1,0,0,.822Z" transform="translate(-68.301 -279.033)" fill="#00ae8d"/>
      <path id="Path_22084" data-name="Path 22084" d="M88.411,344.822h13.15a.411.411,0,0,0,0-.822H88.411a.411.411,0,0,0,0,.822Z" transform="translate(-68.301 -309.199)" fill="#00ae8d"/>
      <path id="Path_22085" data-name="Path 22085" d="M88.411,376.822h13.15a.411.411,0,0,0,0-.822H88.411a.411.411,0,0,0,0,.822Z" transform="translate(-68.301 -339.364)" fill="#00ae8d"/>
      <path id="Path_22086" data-name="Path 22086" d="M192.63,409.233h-3.4l-.317-.952a.411.411,0,0,0-.68-.161l-.83.83-.156-.312a.411.411,0,0,0-.6-.158l-1.129.753h-1.108a.411.411,0,1,0,0,.822h1.233a.41.41,0,0,0,.228-.069l.846-.564.2.406a.411.411,0,0,0,.658.107l.762-.763.2.6a.411.411,0,0,0,.39.281h3.7a.411.411,0,1,0,0-.822Z" transform="translate(-157.923 -369.101)" fill="#00ae8d"/>
    </g>
  </g>
</svg>
