<svg xmlns="http://www.w3.org/2000/svg" width="24.295" height="24.295" viewBox="0 0 24.295 24.295">
  <path id="web" d="M12.148,24.3A12.148,12.148,0,1,1,24.3,12.148,12.161,12.161,0,0,1,12.148,24.3Zm2.233-5.69a6.87,6.87,0,0,0,3.927-3.5H15.525a12.41,12.41,0,0,1-.685,2.549A7.262,7.262,0,0,1,14.381,18.605ZM5.988,15.1a6.87,6.87,0,0,0,3.927,3.5,7.274,7.274,0,0,1-.459-.953A12.407,12.407,0,0,1,8.77,15.1ZM9.914,5.69a6.87,6.87,0,0,0-3.927,3.5H8.77a12.407,12.407,0,0,1,.685-2.549,7.262,7.262,0,0,1,.459-.953Zm2.233-.375c-.5,0-1.083.688-1.525,1.795a10.891,10.891,0,0,0-.577,2.082h4.2a10.888,10.888,0,0,0-.577-2.082C13.23,6,12.646,5.315,12.148,5.315ZM5.315,12.148a6.823,6.823,0,0,0,.214,1.7H8.611c-.05-.553-.076-1.122-.076-1.7s.026-1.147.076-1.7H5.529a6.823,6.823,0,0,0-.214,1.7Zm4.557,1.7h4.551c.053-.549.081-1.119.081-1.7s-.028-1.15-.081-1.7H9.872c-.053.549-.081,1.119-.081,1.7S9.819,13.3,9.872,13.847Zm2.276,5.133c.5,0,1.083-.688,1.525-1.795A10.887,10.887,0,0,0,14.25,15.1h-4.2a10.892,10.892,0,0,0,.577,2.082C11.065,18.293,11.649,18.981,12.148,18.981Zm6.833-6.833a6.823,6.823,0,0,0-.214-1.7H15.684c.05.553.076,1.122.076,1.7s-.026,1.147-.076,1.7h3.082A6.823,6.823,0,0,0,18.98,12.148Zm-.673-2.956a6.87,6.87,0,0,0-3.927-3.5,7.272,7.272,0,0,1,.459.953,12.406,12.406,0,0,1,.685,2.549h2.782Zm1.93,2.956a8.09,8.09,0,1,1-8.09-8.09A8.1,8.1,0,0,1,20.237,12.148Z" fill="#ff5100" fill-rule="evenodd"/>
</svg>
