<svg xmlns="http://www.w3.org/2000/svg" width="9.2" height="9.2" viewBox="0 0 9.2 9.2">
  <path id="web" d="M9.928,12.33a3.906,3.906,0,0,0,2.233-1.991H10.578a7.057,7.057,0,0,1-.39,1.449A4.13,4.13,0,0,1,9.928,12.33ZM5.155,10.339A3.907,3.907,0,0,0,7.388,12.33a4.136,4.136,0,0,1-.261-.542,7.055,7.055,0,0,1-.39-1.449ZM7.388,4.986A3.907,3.907,0,0,0,5.155,6.977H6.737a7.055,7.055,0,0,1,.39-1.449,4.129,4.129,0,0,1,.261-.542Zm1.27-.213c-.283,0-.616.391-.867,1.02a6.193,6.193,0,0,0-.328,1.184H9.853a6.191,6.191,0,0,0-.328-1.184C9.274,5.164,8.941,4.772,8.658,4.772ZM4.772,8.658a3.88,3.88,0,0,0,.122.966H6.647C6.618,9.31,6.6,8.987,6.6,8.658s.015-.652.043-.966H4.894a3.88,3.88,0,0,0-.122.966Zm2.591.966H9.952c.03-.312.046-.636.046-.966S9.982,8,9.952,7.691H7.364c-.03.312-.046.636-.046.966S7.334,9.312,7.364,9.624Zm1.294,2.919c.283,0,.616-.391.867-1.02a6.191,6.191,0,0,0,.328-1.184H7.462a6.193,6.193,0,0,0,.328,1.184C8.042,12.152,8.375,12.543,8.658,12.543Zm3.885-3.885a3.879,3.879,0,0,0-.122-.966H10.669c.028.314.043.638.043.966s-.015.652-.043.966h1.753A3.88,3.88,0,0,0,12.543,8.658Zm-.383-1.681A3.906,3.906,0,0,0,9.928,4.986a4.135,4.135,0,0,1,.261.542,7.055,7.055,0,0,1,.39,1.449h1.582Zm1.1,1.681a4.6,4.6,0,1,1-4.6-4.6A4.605,4.605,0,0,1,13.258,8.658Z" transform="translate(-4.058 -4.058)" fill-rule="evenodd"/>
</svg>
