<svg xmlns="http://www.w3.org/2000/svg" width="803.943" height="253" viewBox="0 0 803.943 253">
  <g id="Group_32691" data-name="Group 32691" transform="translate(0.538)">
    <rect id="Rectangle_12169" data-name="Rectangle 12169" width="800" height="253" fill="#D8DDE3"/>
    <path id="Path_17974" data-name="Path 17974" d="M4835.669,3900.215s106.368,99.729,208.021,59.906c97.892-38.35,139.732-85.855,219.441-64.756s127.582,82.59,200.055,81.273c80.75-1.466,173.446-59.583,175.048-56.424" transform="translate(-4835.5 -3750.215)" fill="none" stroke="#707070" stroke-linecap="round" stroke-width="1" stroke-dasharray="2 4"/>
    <g id="Group_32569" data-name="Group 32569" transform="translate(-153 -78.762)">
      <g id="Group_32353" data-name="Group 32353" transform="translate(507.86 151.573)">
        <g id="Group_32354" data-name="Group 32354" transform="translate(0)">
          <path id="Path_21352" data-name="Path 21352" d="M1013.715,975.212c-3.54-2.587-10.773-.84-16.113,1.027a24.379,24.379,0,0,0-2.934-3.4c11.5-7.409,27.385-23.209,18.966-24.546-7.319-1.163-17.2,13.059-22.474,21.717-5.482-3.687-13.881-6.4-26.7-5.458-33.281,2.44-59.28-19.028-78.445-11.868-15.238,5.693-29.2,8.882-42.67,7.792.58-9.838.705-29.155-7.02-31.159-7.843-2.035-.15,19.9,4.126,30.857q-1.505-.192-3-.459c-2.769-5.46-7.331-12.6-12.341-12.848-4.718-.23,1.1,6.193,6.835,11.635-16.47-3.458-36.007,9.93-36.331,25.76h205.616a19.052,19.052,0,0,0-1.978-5.357c7.947-.156,18.315-.878,14.47-3.687" transform="translate(-694.472 -804.492)" fill="#baece4"/>
          <rect id="Rectangle_13216" data-name="Rectangle 13216" width="54.193" height="12.237" transform="translate(91.794 167.53)" fill="#3a98cf"/>
          <rect id="Rectangle_13217" data-name="Rectangle 13217" width="54.192" height="12.238" transform="translate(75.085 167.53)" fill="#43b0ef"/>
          <rect id="Rectangle_13218" data-name="Rectangle 13218" width="40.353" height="56.402" transform="translate(167.306 123.362)" fill="#00ae8d"/>
          <path id="Path_21410" data-name="Path 21410" d="M0,0H40.352V56.4H0Z" transform="translate(154.864 123.362)" fill="#68d2c0"/>
          <path id="Path_21353" data-name="Path 21353" d="M1511.928,927.765v0Z" transform="translate(-1304.269 -795.934)" fill="#c95c12"/>
          <path id="Path_21354" data-name="Path 21354" d="M370.915,1002.7s-7.546,5.612-9.018,5.271,5.515-6.057,5.515-6.057c-2.629-1.264-10.8-.472-10.8-.472s-2.722,8.778-4.065,8.086,2.807-7.65,2.807-7.65c-2.928-.177-6.52,2-6.52,2-4.916,3.883.323,10,.323,10a14.942,14.942,0,0,1-4.114,5.774,12.973,12.973,0,0,0-4.742,9.139l.8.072s1.276-5.457,3.594-8.039c.09-.093.221-.228.383-.391.378-.35.642-.613.82-.808,1.154-1.109,2.749-2.521,3.517-2.658a1.478,1.478,0,0,1-.033-.386c.01.124.021.251.033.386.263,3.09,6.257,5.788,9.944,6.343s2.548-.961,1.277-3.208-5.291-3.253-6.209-4.288.979-1.037,3.2-.023,2.526,3.72,6.09,5.427,8.927-4.207,8.927-4.207c-2.84-.144-6.9-3.229-6.75-4.173s6.885,1.628,8.037,1.752,3.773-1.309,4.178-5.95-7.2-5.934-7.2-5.934" transform="translate(-300.263 -866.846)" fill="#00ae8d"/>
          <path id="Path_21355" data-name="Path 21355" d="M72.518,899.1s8.335-4.668,4.445-11c0,0-3.112-3.89-6.446-4.89,0,0,1.778,9.447,0,9.669S69.3,882.21,69.3,882.21s-8.779-4.223-12.225-3.89c0,0,5.446,9.224,3.667,9s-7.89-9.557-7.89-9.557-9-1.667-10.447,3.667.889,8,2.223,8.335,9.891.222,9.669,1.334-6,2.89-9.224,1.889c0,0,3.556,8.78,8.224,8.335s6.112-3.334,9-3.557,5,.556,3.556,1.334-6.335.255-8.668,2.239-4.223,3.206.111,4.1,12.114.333,13.669-3Z" transform="translate(-41.945 -759.763)" fill="#68d2c0"/>
          <path id="Path_21356" data-name="Path 21356" d="M104.212,943.224a17.729,17.729,0,0,1-2.223-8.113c-2.667-8.446-26.005-16-26.005-16,29.673,12,24.449,19.337,24.449,19.337.8.466,2,2.691,2.831,4.4.118.29.306.692.585,1.238.113.247.2.449.266.589,1.528,3.823.718,10.424.718,10.424l.926.249a15.393,15.393,0,0,0-1.547-12.119" transform="translate(-71.416 -795.772)" fill="#00ae8d"/>
          <path id="Path_21357" data-name="Path 21357" d="M321.99,806.821s-10.987-6.153-5.86-14.5c0,0,4.1-5.127,8.5-6.446,0,0-2.344,12.452,0,12.745s1.611-14.064,1.611-14.064,11.573-5.567,16.115-5.127c0,0-7.178,12.159-4.834,11.866s10.4-12.6,10.4-12.6,11.866-2.2,13.771,4.834-1.172,10.547-2.93,10.987-13.038.293-12.745,1.758,7.911,3.809,12.159,2.49c0,0-4.688,11.573-10.841,10.987s-8.057-4.395-11.866-4.688-6.592.732-4.688,1.758,8.35.336,11.427,2.951,5.567,4.227-.147,5.4-15.968.44-18.019-3.955Z" transform="translate(-278.156 -673.919)" fill="#68d2c0"/>
          <path id="Path_21358" data-name="Path 21358" d="M365.433,833.191s-30.764,9.962-34.28,21.1a23.369,23.369,0,0,1-2.93,10.694,20.29,20.29,0,0,0-2.039,15.974l1.221-.328s-1.067-8.7.947-13.74c.082-.186.2-.452.35-.777.368-.719.615-1.249.771-1.632,1.1-2.25,2.678-5.181,3.732-5.8,0,0-6.885-9.669,32.229-25.49" transform="translate(-287.319 -721.384)" fill="#00ae8d"/>
          <path id="Path_21359" data-name="Path 21359" d="M226.975,1191.989a21.522,21.522,0,0,0,21.522-21.522H205.453a21.522,21.522,0,0,0,21.522,21.522" transform="translate(-183.512 -1013.4)" fill="#ff8a54"/>
          <path id="Path_21360" data-name="Path 21360" d="M249.193,1191.824a21.536,21.536,0,0,1-24.2-21.358h5.347a21.526,21.526,0,0,0,18.848,21.358" transform="translate(-200.434 -1013.4)" fill="#ffb973"/>
          <path id="Path_21361" data-name="Path 21361" d="M244.22,1319.822H205.892a2.655,2.655,0,0,0-2.655,2.655h43.638a2.655,2.655,0,0,0-2.655-2.655" transform="translate(-181.593 -1142.713)" fill="#ff8a54"/>
          <path id="Path_21362" data-name="Path 21362" d="M244.09,1170.466H200.509a.33.33,0,0,0,0,.66H244.09a.33.33,0,0,0,0-.66" transform="translate(-178.945 -1013.4)" fill="#ff5100"/>
          <path id="Path_21363" data-name="Path 21363" d="M1530.232,305.75c-.624-.095-2.5,1.643-2.5,1.643-4.014.464-9.883,1.53-12,1.936-1.5.288-5.525-1.085-9.46-2.661-4.679-1.876-9.226-4.04-9.226-4.04-2.6-.132-5.545,4.6-.28,7.616a39.885,39.885,0,0,0,7.3,1.961h0c4.8.989,10.464,1.847,12.394,1.545,2.241-.35,8.584-2.671,12.357-4.448h0l.01,0,.042-.02a4.616,4.616,0,0,1,1.766-.481,3.945,3.945,0,0,0,2.329-1.6c.048-.345-2.113-1.355-2.737-1.45" transform="translate(-1299.012 -262.016)" fill="#ed975d"/>
          <path id="Path_21364" data-name="Path 21364" d="M1472.848,508.286l-2.21.449s-10.114-11.364-11.674-16.146c-.835-2.555-6.175-3.66-11.755-5.1-4.856-1.256-9.9-2.769-12.3-5.721-5.173-6.342,3.249-14.136,3.249-14.136s8.954,5.321,16.678,10.819c5.4,3.842,10.2,7.77,10.921,10.027,1.756,5.489,5.48,15.924,7.094,19.809" transform="translate(-1246.528 -404.879)" fill="#4d4d4d"/>
          <path id="Path_21365" data-name="Path 21365" d="M1699.922,769.452h1.243c.416-.065.724-.186,1.151-.242a1.153,1.153,0,0,1,1.007.242l.012.013h5.281c.133-.19.005-.629-.12-.953a.751.751,0,0,0-.495-.452,5.7,5.7,0,0,1-2.675-1.222c-.569-.514-2.746-1.89-2.746-1.89l-.011,0c-.048,0-.276.071-1.266.907-.512.432-1.385-.61-1.385-.61a1.238,1.238,0,0,0-.286.388,1.313,1.313,0,0,0-.114.811,5.243,5.243,0,0,1-.378,1.958c-.123.363-.227.619-.227.619s-.059.3,1.01.432" transform="translate(-1476.561 -662.297)"/>
          <path id="Path_21366" data-name="Path 21366" d="M1454.833,478.45l-7.624,9.037c-4.856-1.256-9.9-2.769-12.3-5.721-5.173-6.342,3.249-14.136,3.249-14.136s8.954,5.321,16.678,10.819" transform="translate(-1246.528 -404.879)" fill="#3b3b3b"/>
          <path id="Path_21367" data-name="Path 21367" d="M1384.117,490.926s-.615,1.938-1.615,4.854c-1.266,3.687-3.15,8.937-5.194,13.806-.449,1.07-.906,2.122-1.367,3.134-1.7,3.747-3.44,6.958-4.972,8.59-2.753,2.934-9.446,21.8-9.446,21.8l-1.668-.461s-2.325-16.107,5.912-25.273a.582.582,0,0,0,.167-.342,0,0,0,0,0,0,0c.109-1.357.5-7.432,1.354-13.589.21-1.511.447-3.025.714-4.476.017-.093.035-.185.051-.276,1.253-6.709,2.453-9.694,4-11.194l11.388,3.241Z" transform="translate(-1182.74 -422.076)" fill="#4d4d4d"/>
          <path id="Path_21368" data-name="Path 21368" d="M1353.9,890.128h1.243c.416-.066.724-.186,1.151-.242a1.153,1.153,0,0,1,1.006.242l.012.013h5.281c.133-.19.005-.629-.12-.953a.751.751,0,0,0-.495-.452,5.694,5.694,0,0,1-2.675-1.222c-.569-.514-2.747-1.89-2.747-1.89l-.012,0c-.048,0-.275.071-1.266.907-.512.432-1.385-.61-1.385-.61a1.245,1.245,0,0,0-.286.388,1.313,1.313,0,0,0-.114.811,5.255,5.255,0,0,1-.378,1.958c-.123.362-.227.619-.227.619s-.059.3,1.01.432" transform="translate(-1176.972 -766.778)"/>
          <path id="Path_21369" data-name="Path 21369" d="M1226.8,345.046s-1.905,4.661-4.1,9.2c-1.848,3.815-3.9,7.541-5.2,8.336-1.836,1.121-6.893,4.285-10.173,6.644,0,0-2.56-.019-2.958.471s-1.315,2.692-1.047,2.915a3.946,3.946,0,0,0,2.8-.387,4.616,4.616,0,0,1,1.63-.834l.044-.014.01,0h0c3.986-1.226,10.239-3.781,12.132-5.031,1.63-1.076,5.242-5.526,8.124-9.487h0a39.883,39.883,0,0,0,4.079-6.366c1.865-5.771-3.5-7.289-5.334-5.443" transform="translate(-1047.43 -298.102)" fill="#ffb27d"/>
          <path id="Path_21370" data-name="Path 21370" d="M1382.655,168.28a9.63,9.63,0,0,0-.683-.882,2.14,2.14,0,0,0,.841-.126c.669-.276.974-2.4.873-3.03s-1.029-2.451-2.175-2.632-2.33,1.091-2.33,1.091c.212-.918,2.15-1.448,2.15-1.448-3.993.736-3.789,3.4-3.762,3.645-3.655-1.3-5.8,5.581-5.8,5.581l9.467,5.579s.025-1.52.928-1.422c1.409.153,2.581-3.306.49-6.355" transform="translate(-1193.319 -139.613)" fill="#4d4d4d"/>
          <path id="Path_21371" data-name="Path 21371" d="M1412.828,272.385c-2.172,1.024-5.055-.451-5.039-.466.186-.186.121-.744-.05-1.473a10.735,10.735,0,0,0-1.319-3.041c-.155-.264-.31-.528-.5-.807l.248-.093,4.22-1.691s.683,1.226,1.4,2.343c.605.931,1.241,1.769,1.521,1.738.015-.015,2.808,1.908-.481,3.491" transform="translate(-1222.889 -229.277)" fill="#ffb27d"/>
          <path id="Path_21372" data-name="Path 21372" d="M1413.6,267.934c-.109,1.505-.62,4.22-2.653,5.214a10.734,10.734,0,0,0-1.319-3.041Z" transform="translate(-1226.093 -231.98)" fill="#ed975d"/>
          <path id="Path_21373" data-name="Path 21373" d="M1377.575,228.4s5.495-2.166,4.093-5.567-1.636-5.971-5.2-4.732-3.71,2.816-3.518,4.065,3.163,6.709,4.628,6.234" transform="translate(-1194.291 -188.561)" fill="#ffb27d"/>
          <path id="Path_21374" data-name="Path 21374" d="M1375.255,219.77c2.537-.358,3.277-1.384,3.277-1.384a7.027,7.027,0,0,1-3.709-2.958s-2.851-.962-4.964.646a1.422,1.422,0,0,0-.267.6c-.484-.159-1.213-.117-1.633,1.251-.631,2.056,1.615,4.3,1.615,4.3.544-.154-.07-1.986-.156-2.964a4.628,4.628,0,0,1,.535-2.078c.269.349,2.945,3.712,6.213,3.846a13.787,13.787,0,0,1-3.3-1.771,4.219,4.219,0,0,0,2.387.514" transform="translate(-1189.922 -186.272)" fill="#4d4d4d"/>
          <path id="Path_21375" data-name="Path 21375" d="M1381.409,302.059c-.047-.164-.1-.334-.149-.509a12.9,12.9,0,0,0,1.387-4.155,8.343,8.343,0,0,0-.264-4.065,27.8,27.8,0,0,0-5.494-2.278.092.092,0,0,0-.021-.006l-.068-.006a23.339,23.339,0,0,0-5.376.517,2.661,2.661,0,0,1-1.292,3.148c-2,1.259-4.139-.323-4.139-.323-.064.043-.133.091-.2.141h0s-5.266,3.475-5.739,4.269-2.5,4.725-2.5,4.725.642,3.3,7.756,3.577a16.424,16.424,0,0,1,1.178,3.956c.565,4.48-.091,8.014.568,10.629s12.529,1.124,14.678.621,1.666-2.8,1.831-5.028c.208-2.8-1.454-12.739-2.154-15.211" transform="translate(-1181.009 -251.945)" fill="#68d2c0"/>
          <path id="Path_21376" data-name="Path 21376" d="M1521.531,332.087a12.89,12.89,0,0,1-1.4,4.173c-.186-.822-.947-3.832-2.172-5.2a10.516,10.516,0,0,1,3.568,1.024" transform="translate(-1319.893 -286.637)" fill="#00ae8d"/>
          <path id="Path_21377" data-name="Path 21377" d="M1184.255,533.173a37.453,37.453,0,0,1,2.687-3,8.167,8.167,0,0,1,2.684-.76c.119.112.125.274-.134.5s-1.246.8-1.106.87,3.121-1.419,3.551-.92-.244,2.559-1.392,3.546-4.576,1.409-4.792,1.546c-1.828,1.169-1.5-1.789-1.5-1.789" transform="translate(-1030.947 -458.361)" fill="#ed975d"/>
          <path id="Path_21378" data-name="Path 21378" d="M894.273,465.633s3.177,3.769,7.222,2.192a12.248,12.248,0,0,0,.883-3.657c0-.191,0-.376.007-.552.022-1.748.081-2.728.081-2.728h0c-.184-.077-6.184-2.54-6.179-2.336.1,4.726-2.009,7.08-2.009,7.08" transform="translate(-779.898 -397.008)" fill="#ffb27d"/>
          <path id="Path_21379" data-name="Path 21379" d="M913.706,466.742a9.386,9.386,0,0,0,5.5,3.937c.022-1.747.081-2.728.081-2.728h0c-.166-.045-5.749-1.525-5.577-1.209" transform="translate(-796.72 -404.071)" fill="#ed975d"/>
          <path id="Path_21380" data-name="Path 21380" d="M908.591,402.93s-6.748,1.587-7.671-2.631-2.416-6.853,1.853-8.045,5.462.234,6.112,1.567,1.437,8.587-.294,9.109" transform="translate(-784.767 -339.231)" fill="#ffb27d"/>
          <path id="Path_21381" data-name="Path 21381" d="M878.962,380.114c-.092.059-1.544.505-4.294-4.973a4.771,4.771,0,0,1,.28-4.364c1.006-1.644,4.574-2.936,7.538-3.5s3.676,1.105,4.374,2.782a9.05,9.05,0,0,0,2.849,3.208c-2.556,1.428-5.635-.614-6.7-.278s-1.443,2.017-1.523,2.556-.2.986-1.544.505-.606,1.9-.392,2.356c0,0,.182,1.213-.587,1.706" transform="translate(-762.578 -317.897)" fill="#a9453d"/>
          <path id="Path_21382" data-name="Path 21382" d="M724.455,1182.449h-4.086c-.856,0-1.808-.869-2.047-2.46s-2-2.46-2.38-3.763,1.571-3.137,1.571-3.137l.326-.425.339-.443,3.237.771s.08.781.13,1.776c.035.718.054,1.549.013,2.277-.1,1.737.48,3.607,2,3.945s.893,1.458.893,1.458" transform="translate(-625.455 -1014.919)"/>
          <path id="Path_21383" data-name="Path 21383" d="M917,1209.558H906.169a.951.951,0,0,1-.23-.069c-.723-.373-.5-3.223-.41-4.1.017-.163.029-.259.029-.259s3.809-3.136,4.333-.735q.025.112.056.221h0c.661,2.247,3.617,3.268,5.324,3.552a1.877,1.877,0,0,1,1.73,1.392" transform="translate(-789.555 -1041.989)"/>
          <path id="Path_21384" data-name="Path 21384" d="M871.133,775.529s-.578,7.217-1.258,15.891c-.924,11.784-2.035,26.259-2.145,29-.19,4.762-.953,12.378-.953,12.378s-1.808,1.81-5.427,1.047a124.6,124.6,0,0,1-4.146-22.377c-.014-.189-.029-.378-.043-.568-.857-11.711-2.189-36.372-2.189-36.372Z" transform="translate(-745.871 -670.594)" fill="#ff8a54"/>
          <path id="Path_21385" data-name="Path 21385" d="M871.133,775.529s-.578,7.217-1.258,15.891L857.2,811.469c-.014-.189-.029-.378-.043-.568-.857-11.711-2.189-36.372-2.189-36.372Z" transform="translate(-745.871 -670.594)" fill="#e58638"/>
          <path id="Path_21386" data-name="Path 21386" d="M758.528,757.958s-10.426,26.136-17.281,38.418-9,15.71-9,15.71-3.928-1.571-4.285-2.642c0,0,2.622-23.712,7.212-29.492,2.594-3.266,5.641-13.068,5.784-16.5s.928-10.211.928-10.211Z" transform="translate(-635.907 -652.166)" fill="#ff8a54"/>
          <path id="Path_21387" data-name="Path 21387" d="M744.878,747.611a35.33,35.33,0,0,1-.468,3.765,7.7,7.7,0,0,1-1.669,2.032c-.153-.022-.244-.145-.167-.461s.532-1.294.388-1.268-1.653,2.777-2.253,2.622-1.188-2.112-.831-3.494,2.784-3.552,2.877-3.775c.786-1.888,2.123.578,2.123.578" transform="translate(-646.128 -646.171)" fill="#ed975d"/>
          <path id="Path_21388" data-name="Path 21388" d="M760.241,547.732c1.154.37,1.339.287,1.339.287s5.616-10.226,6.185-11.162S779.69,525.39,779.69,525.39l-2.918-10.883s-12.916,16.726-14.311,19.126c-2.3,3.966-3.655,13.177-3.655,13.177a3.378,3.378,0,0,0,1.435.922" transform="translate(-662.609 -445.465)" fill="#43b0ef"/>
          <path id="Path_21389" data-name="Path 21389" d="M847.789,513.961c-.041,2.235-.17,4.747-.346,7.3q-.016.227-.032.454c-.112,1.581-.234,3.165-.373,4.71-.056.62-.115,1.232-.177,1.833l-.009.081c0,.225-.032.469-.057.692-.569,5.787-1.166,10.359-1.277,10.43a.649.649,0,0,1-.444.113c-1.518-.191-6.046.154-9.753-.653a28.1,28.1,0,0,1-8.676-3.6c-.379-.224-1.243-.817-1.172-1.26.069-.487.2-1.191.359-2.076a112.371,112.371,0,0,0,1.864-14.57q.1-1.732.28-3.416a51.843,51.843,0,0,1,1.512-8.157c1.271-4.577,3.139-8.082,5.482-9.453.306-.172,1.954.877,3.467,1.848a6.681,6.681,0,0,0,4.3,1.018l1.259,1.393a14.063,14.063,0,0,1,3.592,7.487q.05.372.086.791a49.2,49.2,0,0,1,.118,5.033" transform="translate(-720.326 -429.764)" fill="#43b0ef"/>
          <path id="Path_21390" data-name="Path 21390" d="M924.823,578.391c-.04,2.235-.17,4.747-.345,7.3l-.032.454c-8.669-5.426-10-15.356-10-15.356a23.713,23.713,0,0,1,10.264,2.57,49.129,49.129,0,0,1,.118,5.033" transform="translate(-797.359 -494.193)" fill="#3a98cf"/>
          <path id="Path_21391" data-name="Path 21391" d="M947,534.938c-.447-1.209-1.142-1.13-1.142-1.13s-12.889,3.212-14.046,3.35-13.88-4.968-13.88-4.968-5.008-2.248-7.354-.2a5.6,5.6,0,0,0-1.654,5.94,5.672,5.672,0,0,0,4.794,4.226c5.191.661,15.547,1.906,17.718,1.6,4.831-.673,15.778-6.992,15.778-6.992a4.055,4.055,0,0,0-.214-1.833" transform="translate(-792.378 -459.857)" fill="#43b0ef"/>
          <path id="Path_21392" data-name="Path 21392" d="M2099.48,730.488s1.791,1.66,1.441,2.839-1.965,1.966-2.184,3.407-1.091,2.227-1.877,2.227h-3.748s-.579-1.014.819-1.32,1.925-2,1.837-3.572a28.175,28.175,0,0,1,.131-3.669l2.97-.7Z" transform="translate(-1817.759 -631.782)"/>
          <path id="Path_21393" data-name="Path 21393" d="M1909.387,762.731a6.9,6.9,0,0,1-1.7.2h-8.476c.029-.252.226-1.151,1.612-1.374,1.566-.255,4.279-1.165,4.883-3.168.021-.064.037-.13.052-.2.48-2.14,3.974.655,3.974.655s.01.086.025.232c.082.787.288,3.325-.374,3.656" transform="translate(-1649.985 -655.748)"/>
          <path id="Path_21394" data-name="Path 21394" d="M1914.32,364.75s.531,6.621,1.154,14.58c.848,10.811,1.867,24.091,1.968,26.607.174,4.368.874,11.356.874,11.356s1.659,1.66,4.979.96a114.315,114.315,0,0,0,3.8-20.53c.013-.173.026-.347.039-.521.786-10.745,2.009-33.369,2.009-33.369Z" transform="translate(-1663.063 -315.01)" fill="#4d4d4d"/>
          <path id="Path_21395" data-name="Path 21395" d="M1914.32,364.75s.531,6.621,1.154,14.58l11.625,18.394c.013-.173.026-.347.039-.521.786-10.745,2.009-33.369,2.009-33.369Z" transform="translate(-1663.063 -315.01)" fill="#3b3b3b"/>
          <path id="Path_21396" data-name="Path 21396" d="M1932.38,348.627s9.565,23.979,15.854,35.247,8.255,14.413,8.255,14.413,3.6-1.441,3.931-2.424c0,0-2.405-21.755-6.617-27.058-2.38-3-5.176-11.989-5.307-15.134s-.852-9.369-.852-9.369Z" transform="translate(-1678.7 -298.1)" fill="#4d4d4d"/>
          <path id="Path_21397" data-name="Path 21397" d="M1672.472,275.97a28.727,28.727,0,0,0-3.031-.563,6.246,6.246,0,0,0-1.984.793c-.02.124.052.224.316.242s1.133-.094,1.078.011-2.558.6-2.585,1.1,1.343,1.439,2.5,1.5,3.436-1.283,3.631-1.3c1.656-.145.074-1.786.074-1.786" transform="translate(-1448.295 -238.449)" fill="#ffb27d"/>
          <path id="Path_21398" data-name="Path 21398" d="M1702.351,156.9c-.372-1.185-.285-1.374-.285-1.374s10.517-5.687,11.48-6.264,11.832-12.143,11.832-12.143l11.132,3.064s-17.227,13.123-19.7,14.536c-4.08,2.335-13.528,3.657-13.528,3.657a3.459,3.459,0,0,1-.935-1.477" transform="translate(-1479.284 -118.719)" fill="#e58638"/>
          <path id="Path_21399" data-name="Path 21399" d="M1842.587,61.818s-3.9,6.867-7.717,7.763a10.424,10.424,0,0,1,1.088-3.884c-.38-.449-.714-.861-1-1.23a23.023,23.023,0,0,1-1.417-1.984L1834.832,59l.878-2.362a11.35,11.35,0,0,0,1.373,1.978,9.336,9.336,0,0,0,5.5,3.2" transform="translate(-1593.121 -49.04)" fill="#ffb27d"/>
          <path id="Path_21400" data-name="Path 21400" d="M1837.082,71.375a7.242,7.242,0,0,1-2.129,5.848,23,23,0,0,1-1.417-1.984l1.295-3.481a7.4,7.4,0,0,1,2.251-.384" transform="translate(-1593.12 -61.796)" fill="#ed975d"/>
          <path id="Path_21401" data-name="Path 21401" d="M1794.035,31.392s5.831-2.273,4.359-5.883-1.71-6.334-5.5-5.035-3.943,2.969-3.745,4.293,3.325,7.123,4.88,6.625" transform="translate(-1554.646 -17.441)" fill="#ffb27d"/>
          <path id="Path_21402" data-name="Path 21402" d="M1868.735,124.273c-2.353,3.382-19.94,7.9-19.731,5.56a25.415,25.415,0,0,0,0-4.617q-.066-.752-.187-1.6a36.769,36.769,0,0,0-3.875-11.609q-.266-.515-.554-1.039a35.782,35.782,0,0,1-2.439-5.479c-1.219-3.521-1.709-6.89-1.095-9.093a.266.266,0,0,1,.01-.031c3.676-1.7,5.1-8.293,5.1-8.293s12.543,2.251,19.568,18.97c0,0,5.251,14.282,3.2,17.226" transform="translate(-1599.225 -76.258)" fill="#ff8a54"/>
          <path id="Path_21403" data-name="Path 21403" d="M1877.083,216.6q-.066-.752-.187-1.6a36.784,36.784,0,0,0-3.875-11.609,16.419,16.419,0,0,1,1.583-5.435c2.5-3.749,3.959-4.335,3.959-4.335s3.751,15.82-1.48,22.974" transform="translate(-1627.306 -167.647)" fill="#e58638"/>
          <path id="Path_21404" data-name="Path 21404" d="M1709.29,336.783a37.437,37.437,0,0,0-4.007.376,8.163,8.163,0,0,0-2.209,1.7c.019.162.146.263.484.191s1.389-.523,1.357-.371-3,1.664-2.852,2.306,2.2,1.328,3.678.993,3.855-2.839,4.095-2.93c2.027-.773-.545-2.269-.545-2.269" transform="translate(-1479.284 -291.59)" fill="#ffb27d"/>
          <path id="Path_21405" data-name="Path 21405" d="M1748.7,143.974c-.7-1.123-.194-1.635-.194-1.635s10.718-8.392,11.558-9.24,4.732-14.347,4.732-14.347,1.34-5.463,4.477-6.066a5.742,5.742,0,0,1,5.842,2.406,5.813,5.813,0,0,1,.394,6.537c-2.737,4.611-8.257,13.765-9.87,15.329-3.588,3.481-15.593,8.345-15.593,8.345a4.157,4.157,0,0,1-1.347-1.328" transform="translate(-1519.351 -97.465)" fill="#ff8a54"/>
          <path id="Path_21406" data-name="Path 21406" d="M1785.208,1.362c.041-.081.16-.167.449-.256a1.214,1.214,0,0,0-.587-.022A1.543,1.543,0,0,0,1783.762,0a.92.92,0,0,1,.586.54c-1.023-.648-2.919-.837-7.652.74-6.238,2.078-3.121,5.7-2.176,5.989s2.686-1.573,4.251-1.827,2.412,1.926,3.009,2.107.258-.315.882-.812.984.672.97,1.493,1.2,1.6,1.2,1.6l.715-1.311c.715-1.311.52-6.07-.163-6.926l-.182-.229" transform="translate(-1540.623)" fill="#4d4d4d"/>
          <rect id="Rectangle_13220" data-name="Rectangle 13220" width="55.262" height="72.585" transform="translate(233.73 107.179)" fill="#e58638"/>
          <rect id="Rectangle_13221" data-name="Rectangle 13221" width="55.263" height="72.585" transform="translate(216.69 107.179)" fill="#ff8a54"/>
        </g>
      </g>
    </g>
  </g>
</svg>
